<svg width="25" height="24" viewBox="0 0 25 24" fill="none" xmlns="http://www.w3.org/2000/svg">
  <path d="M21.5136 24H2.92499C1.43104 24 0.21875 22.7887 0.21875 21.2943V2.70566C0.21875 1.21128 1.43104 0 2.92494 0H21.5136C23.008 0 24.2188 1.21128 24.2188 2.70566V21.2943C24.2188 22.7887 23.008 24 21.5136 24Z" fill="#00964B"/>
  <path d="M7.17657 18.1546L6.8855 16.3151L4.75593 16.3156L4.46486 18.1536L1.7207 18.1546V18.1216L4.31933 5.82401H7.32062L9.91925 18.1226L9.92021 18.1546H7.17657ZM5.82024 9.79351L5.14205 13.9906H6.4979L5.82024 9.79351ZM10.403 18.1545V5.82343H13.1472V15.6849H16.375V18.1545H10.403ZM16.9562 18.1538V5.82324L19.7004 5.82372L19.699 15.6852H22.9283V18.1553L16.9562 18.1538Z" fill="white"/>
</svg>
