<svg width="25" height="24" viewBox="0 0 25 24" fill="none" xmlns="http://www.w3.org/2000/svg">
  <path d="M22.2311 24H3.6434C2.14902 24 0.9375 22.789 0.9375 21.2951V2.7059C0.9375 1.21152 2.14907 0 3.6434 0H22.2311C23.7249 0 24.9375 1.21157 24.9375 2.7059V21.2951C24.9375 22.7889 23.7249 24 22.2311 24Z" fill="#EABC00"/>
  <path d="M6.12912 20.2689V8.34073H4.80859L6.51879 3.73052H9.83122V20.2689H6.12912ZM20.5013 3.73047H11.4553C11.3573 3.73047 11.2634 3.76938 11.1941 3.83865C11.1249 3.90792 11.0859 4.00187 11.0859 4.09983V9.09869H14.7019V6.84735H17.2567V8.83824L10.9557 17.8229V20.2486H20.8286V17.0218H15.5466L20.1567 10.5494C20.3013 10.3469 20.4162 10.1707 20.5033 10.0187C20.5905 9.86713 20.6623 9.7201 20.7202 9.57452C20.7771 9.4309 20.8172 9.27197 20.8385 9.09869C20.8608 8.92541 20.8707 8.71647 20.8707 8.47085V4.09983C20.8707 4.05131 20.8612 4.00327 20.8427 3.95844C20.8241 3.91361 20.7969 3.87287 20.7626 3.83857C20.7283 3.80426 20.6876 3.77706 20.6427 3.75851C20.5979 3.73996 20.5498 3.73043 20.5013 3.73047Z" fill="white"/>
</svg>
