<svg width="25" height="24" viewBox="0 0 25 24" fill="none" xmlns="http://www.w3.org/2000/svg">
  <path d="M21.9509 24H3.36115C1.86835 24 0.65625 22.7884 0.65625 21.2946V2.70538C0.65625 1.21162 1.86835 0 3.36115 0H21.9509C23.4451 0 24.6563 1.21157 24.6563 2.70538V21.2946C24.6563 22.7884 23.4452 24 21.9509 24Z" fill="#DC7317"/>
  <path d="M5.83859 20.2691V8.34143H4.51758L6.22729 3.72978H9.54121V20.2691H5.83859ZM20.2323 9.37991H14.4313V6.95524H20.4937V3.72949H10.7951V12.5404H17.0085V17.151H14.3887V14.9858H10.7951V19.899C10.7951 20.103 10.961 20.2683 11.1649 20.2683H20.2323C20.3302 20.2683 20.4242 20.2294 20.4934 20.1601C20.5627 20.0909 20.6016 19.9969 20.6016 19.899V9.74932C20.6016 9.70081 20.5921 9.65277 20.5735 9.60795C20.5549 9.56313 20.5277 9.52241 20.4934 9.48811C20.4591 9.4538 20.4184 9.42659 20.3736 9.40803C20.3288 9.38946 20.2808 9.37991 20.2323 9.37991Z" fill="white"/>
</svg>
