<svg width="24" height="24" viewBox="0 0 24 24" fill="none" xmlns="http://www.w3.org/2000/svg">
  <path d="M21.2938 24H2.7048C1.21008 24 0 22.7899 0 21.2952V2.70576C0 1.21152 1.21008 0 2.7048 0H21.2938C22.788 0 23.999 1.21152 23.999 2.70576V21.2952C23.999 22.7899 22.788 24 21.2938 24Z" fill="#D61D28"/>
  <path d="M5.08463 20.2694V8.34116H3.76367L5.47478 3.73071H8.78558V20.2694H5.08463ZM19.9986 13.4935C19.9704 13.292 19.9199 13.1183 19.8481 12.9742C19.7778 12.832 19.678 12.7065 19.5555 12.6058C19.4332 12.5048 19.2777 12.4043 19.0906 12.3033L17.9869 11.784L19.0906 11.1987C19.4223 10.9967 19.657 10.7734 19.7941 10.5278C19.9307 10.2828 19.9986 9.91488 19.9986 9.42423V4.09983C19.9986 4.00187 19.9597 3.90792 19.8904 3.83865C19.8212 3.76938 19.7272 3.73047 19.6293 3.73047H10.4326C10.2286 3.73047 10.0627 3.89583 10.0627 4.09983V9.42423C10.0627 9.89904 10.1325 10.2644 10.2687 10.5164C10.4058 10.7704 10.641 10.9967 10.9717 11.1987L12.0758 11.784L10.9717 12.3033C10.5954 12.5048 10.3479 12.744 10.2251 13.0167C10.1028 13.292 10.0414 13.6956 10.0414 14.2303V19.8998C10.0414 20.1038 10.2073 20.2696 10.4113 20.2696H19.6738C19.8773 20.2696 20.0427 20.1037 20.0427 19.8998V14.2303C20.0427 13.9411 20.0278 13.6956 19.9986 13.4935ZM16.3625 16.8479C16.3625 17.0519 16.1966 17.2168 15.9932 17.2168H14.0919C13.8885 17.2168 13.7221 17.0519 13.7221 16.8479V13.5381C13.7221 13.3341 13.8885 13.1688 14.0919 13.1688H15.9932C16.1967 13.1688 16.3625 13.3341 16.3625 13.5381V16.8479ZM16.3625 10.0362C16.3625 10.2402 16.1966 10.4055 15.9932 10.4055H14.0919C13.8885 10.4055 13.7221 10.2402 13.7221 10.0362V7.14178C13.7221 6.93826 13.8885 6.7729 14.0919 6.7729H15.9932C16.1967 6.7729 16.3625 6.93826 16.3625 7.14178V10.0362V10.0362Z" fill="white"/>
</svg>
