<svg width="21" height="24" viewBox="0 0 21 24" fill="none" xmlns="http://www.w3.org/2000/svg">
  <path d="M0.621094 20.6814H19.6029V0.6875H0.621613L0.621094 20.6814Z" fill="#42A13F"/>
  <path d="M9.15158 14.8204L9.90876 7.65479L10.667 14.8199L9.15158 14.8204ZM16.0118 19.4008L13.7206 2.36133H6.09796L3.91992 19.4123L9.015 19.3801V18.1181H10.8472V19.4008" fill="white"/>
  <path d="M14.1439 15.9193V11.7061H11.7617V17.7515H15.4255V15.9193" fill="#9CA1AB"/>
  <path d="M18.3574 15.9193V11.7061H15.793V17.7515H19.6401V15.9193" fill="white"/>
  <path d="M19.4175 18.0408C19.4185 18.3333 19.3033 18.6143 19.0972 18.822C18.8912 19.0297 18.6112 19.1471 18.3186 19.1485H2.38369C2.09114 19.1471 1.8111 19.0297 1.60506 18.822C1.39902 18.6143 1.28384 18.3333 1.28481 18.0408V2.34786C1.28481 1.7361 1.77712 1.24014 2.38369 1.24014H18.3186C18.9252 1.24014 19.4175 1.7361 19.4175 2.34786V18.0408ZM19.2368 0H1.46553C0.757173 0 0 0.762886 0 1.47696V22.5236C0 23.2371 0.757173 24 1.46553 24H19.2368C19.9451 24 20.7023 23.2366 20.7023 22.5236V1.47696C20.7023 0.763405 19.9451 0 19.2368 0Z" fill="#211E1E"/>
  <path d="M4.94581 22.1361H4.47115V21.1915H3.95026V20.909H4.47115V20.3107H4.94529L4.94581 22.1361ZM3.04405 22.5048H4.96762V22.7863H2.98952C2.83891 22.7863 2.72985 22.764 2.66338 22.7204C2.6021 22.6783 2.5699 22.6072 2.5699 22.5106V21.9798H3.04405V22.5048ZM4.09412 20.3621V20.6436H3.47612C3.47612 20.8892 3.55921 21.1022 3.72592 21.2834C3.85834 21.4252 4.03751 21.5425 4.26446 21.6339L4.04894 21.8573C3.88904 21.795 3.73505 21.7185 3.58882 21.6287C3.4351 21.5337 3.31825 21.4382 3.23931 21.3431C3.16505 21.4366 3.0508 21.5316 2.8976 21.6287C2.75253 21.7177 2.60016 21.7941 2.44215 21.8573L2.25 21.6339C2.47227 21.5457 2.64624 21.4288 2.77244 21.2834C2.92616 21.1068 3.0025 20.8923 3.0025 20.6436H2.41722V20.3621M8.39671 22.8118H7.92257V20.3107H8.39671V22.8118ZM6.81537 21.5498V21.2782H7.20279V20.3107H7.67641V22.8118H7.20279V21.5498H6.81537ZM6.12467 20.5423V20.2972H6.59726V20.5418H7.04595V20.8202H6.59726V21.2226C6.59726 21.5233 6.65334 21.7835 6.76396 22.0063C6.8564 22.1917 6.98207 22.3402 7.14203 22.4503L6.85069 22.63C6.73519 22.5513 6.63446 22.4528 6.55311 22.3392C6.45488 22.2018 6.38804 22.0446 6.35733 21.8785C6.32097 22.0454 6.25022 22.2028 6.1496 22.3407C6.05993 22.4555 5.95055 22.5535 5.82658 22.63L5.56692 22.4503C5.7331 22.3413 5.86397 22.1943 5.95745 22.0084C6.06858 21.7923 6.12415 21.5306 6.12415 21.2226V20.8202H5.68221V20.5418M11.7521 22.8118H11.2784V20.3107H11.7521V22.8118ZM9.72566 20.828C9.66386 20.9858 9.63322 21.1894 9.63322 21.4392C9.63322 21.7098 9.66386 21.9274 9.72566 22.0915C9.79421 22.268 9.89184 22.3563 10.0201 22.3563C10.1463 22.3563 10.2429 22.268 10.3115 22.0915C10.3753 21.9274 10.4075 21.7098 10.4075 21.4392C10.4075 21.1899 10.3753 20.9858 10.3115 20.828C10.2408 20.6566 10.1442 20.5704 10.0206 20.5704C9.89444 20.5704 9.79629 20.6566 9.72566 20.828ZM10.6703 20.641C10.8157 20.8503 10.8874 21.1183 10.8874 21.4413C10.8874 21.784 10.8152 22.0645 10.6703 22.2789C10.5161 22.5126 10.3006 22.63 10.0232 22.63C9.74384 22.63 9.52624 22.5126 9.37044 22.2789C9.22711 22.0639 9.15596 21.784 9.15596 21.4413C9.15596 21.1183 9.22711 20.8503 9.37044 20.6405C9.44049 20.5319 9.53739 20.4432 9.65176 20.3831C9.76612 20.323 9.89408 20.2934 10.0232 20.2972C10.2985 20.2972 10.514 20.412 10.6703 20.641ZM14.2843 21.4704V21.3094C14.2235 21.3164 14.1625 21.3223 14.1015 21.327C13.904 21.3386 13.7059 21.3325 13.5095 21.3088V21.4698L14.2843 21.4704ZM13.3521 22.2504C13.2337 22.2883 13.1734 22.3355 13.1734 22.3906C13.1734 22.4462 13.2337 22.4929 13.3521 22.5313C13.4871 22.5744 13.6689 22.5957 13.9 22.5957C14.1238 22.5957 14.3019 22.5744 14.4344 22.5313C14.5559 22.4929 14.6166 22.4462 14.6166 22.3906C14.6166 22.3355 14.5559 22.2883 14.4344 22.2504C14.3019 22.2088 14.1238 22.1881 13.8995 22.1881C13.6694 22.1881 13.4871 22.2088 13.3521 22.2504ZM13.3365 20.6535C13.2129 20.6955 13.1511 20.7485 13.1511 20.8155C13.1511 20.8788 13.2129 20.9318 13.3365 20.9734C13.4715 21.0191 13.6564 21.0409 13.8932 21.0409C14.13 21.0409 14.317 21.0191 14.4541 20.9734C14.5777 20.9318 14.639 20.8788 14.639 20.8155C14.639 20.7485 14.5777 20.696 14.4536 20.6535C14.317 20.6104 14.13 20.5885 13.8932 20.5885C13.6564 20.5885 13.471 20.6104 13.3365 20.6535ZM14.7927 22.0525C14.9932 22.1444 15.0939 22.2582 15.0939 22.3932C15.0939 22.5251 14.9932 22.6368 14.7927 22.7287C14.5709 22.8315 14.2729 22.8819 13.8969 22.8819C13.5193 22.8819 13.2191 22.8315 12.9974 22.7287C12.799 22.6368 12.6998 22.5251 12.6998 22.3932C12.6998 22.2582 12.799 22.1439 12.9974 22.0525C13.2191 21.9502 13.5193 21.8988 13.8969 21.8988C14.2729 21.8988 14.5709 21.9507 14.7927 22.0525ZM12.7538 21.0258C12.6971 20.9703 12.6641 20.8949 12.6619 20.8155C12.6619 20.6706 12.7642 20.5506 12.9683 20.453C13.1947 20.3491 13.5053 20.2972 13.9 20.2972C14.2926 20.2972 14.6031 20.3491 14.8316 20.453C15.0383 20.5506 15.1422 20.6711 15.1422 20.8155C15.1408 20.8551 15.1316 20.8941 15.1152 20.9302C15.0987 20.9663 15.0752 20.9988 15.0461 21.0258C14.9776 21.0933 14.8815 21.1525 14.7579 21.2024V21.4704H15.2861V21.7534H12.5144V21.4704H13.0358V21.2024C12.9305 21.1639 12.8345 21.1037 12.7538 21.0258ZM18.5126 20.3107V21.3249H18.8362V21.6111H18.5126V22.8118H18.039V20.3107H18.5126ZM17.4506 20.3626V21.1375C17.4506 21.5083 17.3306 21.8193 17.0923 22.0707C16.8705 22.3018 16.5407 22.4872 16.1035 22.63L15.9144 22.4171C16.2343 22.3059 16.4826 22.1642 16.6602 21.9923C16.8731 21.7866 16.9801 21.5379 16.9801 21.247V20.6457H15.9908V20.3621" fill="white"/>
</svg>
