<svg width="21" height="24" viewBox="0 0 21 24" fill="none" xmlns="http://www.w3.org/2000/svg">
  <path d="M0.621094 20.6814H19.6029V0.6875H0.621613L0.621094 20.6814Z" fill="#4268AE"/>
  <path d="M9.07256 2.3623C7.06537 5.11056 4.435 5.28194 4.06836 5.28921V7.62617C4.06836 7.62617 4.29738 7.63032 5.93792 7.635C7.01396 7.63811 6.99994 8.7074 6.99994 8.7074V19.5836H19.6408V2.3623" fill="#9CA1AB"/>
  <path d="M19.6414 4.56326C18.5425 3.69339 17.629 3.48047 15.9718 3.48047C13.9179 3.48047 12.2197 4.25063 11.6235 5.38431C10.9723 6.62186 10.8477 7.34683 10.8477 9.35921V9.87438H15.2448V8.33926C15.2448 7.67972 15.3715 6.4619 16.2845 6.4619C17.2317 6.4619 17.2836 7.29853 17.1413 8.3808C17.0536 9.03931 16.4267 10.2878 16.0315 10.9333C15.5558 11.7097 12.4965 16.6458 11.0305 18.7854V19.5842H19.5541L19.2996 18.3705L16.3753 18.2911C17.2712 16.8837 19.2752 13.7589 19.6419 12.8833" fill="white"/>
  <path d="M19.4175 18.0408C19.4185 18.3333 19.3033 18.6143 19.0972 18.822C18.8912 19.0297 18.6112 19.1471 18.3186 19.1485H2.38369C2.09114 19.1471 1.8111 19.0297 1.60506 18.822C1.39902 18.6143 1.28384 18.3333 1.28481 18.0408V2.34786C1.28481 1.7361 1.77712 1.24014 2.38369 1.24014H18.3186C18.9252 1.24014 19.4175 1.7361 19.4175 2.34786V18.0408ZM19.2368 0H1.46553C0.757173 0 0 0.762886 0 1.47696V22.5236C0 23.2371 0.757173 24 1.46553 24H19.2368C19.9451 24 20.7023 23.2366 20.7023 22.5236V1.47696C20.7023 0.763405 19.9451 0 19.2368 0Z" fill="#211E1E"/>
  <path d="M3.04547 20.4094V22.6715H2.59366V21.2647C2.59515 21.2125 2.59132 21.1603 2.58223 21.1089C2.57694 21.0783 2.5607 21.0506 2.53653 21.031C2.5004 21.0062 2.45896 20.9902 2.41553 20.9843C2.33775 20.9737 2.25927 20.9691 2.18079 20.9708H2.11328V20.7682C2.27427 20.7423 2.4093 20.7002 2.51991 20.6405C2.63105 20.5818 2.73076 20.5049 2.818 20.4094M5.12951 22.3802V22.6715H3.59958V22.3459C3.72318 22.1849 3.86184 22.026 4.01608 21.8692C4.16876 21.7129 4.29496 21.5908 4.39363 21.5057C4.49178 21.4195 4.57643 21.3291 4.6481 21.233C4.71925 21.138 4.75508 21.0502 4.75508 20.9682C4.75508 20.8524 4.72704 20.7693 4.66991 20.7215C4.6133 20.6727 4.51671 20.6488 4.38065 20.6488C4.25913 20.6488 4.17136 20.6748 4.11683 20.7282C4.0623 20.7807 4.0353 20.8591 4.0353 20.9625V21.179H3.59907V21.0907C3.59907 20.857 3.65723 20.6773 3.77252 20.5527C3.88781 20.4276 4.08152 20.3652 4.3552 20.3652C4.62213 20.3652 4.82778 20.4198 4.97423 20.5278C5.12068 20.6368 5.19391 20.7786 5.19391 20.9557C5.19391 21.0715 5.16379 21.1811 5.10355 21.2829C5.04615 21.3823 4.97401 21.4725 4.88958 21.5503C4.80597 21.6267 4.68082 21.744 4.51204 21.9035C4.34378 22.0619 4.18746 22.2208 4.04464 22.3802M8.41112 22.8118H7.94372V20.3107H8.41112V22.8118ZM7.71003 20.3107V22.8118H7.24264V21.5379H6.90352V21.2439H7.24264V20.3107H7.71003ZM6.57998 20.3315V21.1686C6.57998 21.4615 6.63866 21.7316 6.75655 21.9803C6.86042 22.1995 6.98661 22.3553 7.1341 22.4456L6.83912 22.63C6.7231 22.5445 6.62247 22.4398 6.54155 22.3205C6.44926 22.1865 6.38009 22.038 6.33694 21.8811C6.29591 22.0369 6.22788 22.1834 6.13181 22.3205C6.04855 22.4408 5.94484 22.5455 5.8254 22.63L5.55224 22.4456C5.68882 22.348 5.80982 22.1938 5.91421 21.9803C6.04248 21.7248 6.10636 21.4553 6.10636 21.1686V20.3315M11.7654 22.8118H11.2918V20.3107H11.7654V22.8118ZM9.74006 20.828C9.67775 20.9858 9.64659 21.1894 9.64659 21.4392C9.64659 21.7098 9.67775 21.9274 9.74006 22.0915C9.8081 22.268 9.90625 22.3563 10.0345 22.3563C10.1602 22.3563 10.2568 22.268 10.3253 22.0915C10.3892 21.9274 10.4214 21.7098 10.4214 21.4392C10.4214 21.1899 10.3892 20.9858 10.3259 20.828C10.2547 20.6566 10.1581 20.5704 10.0345 20.5704C9.90832 20.5704 9.81069 20.6566 9.74006 20.828ZM10.6842 20.641C10.8286 20.8503 10.9018 21.1183 10.9018 21.4413C10.9018 21.784 10.8291 22.0645 10.6842 22.2789C10.5305 22.5126 10.315 22.63 10.0382 22.63C9.75772 22.63 9.53961 22.5126 9.38485 22.2789C9.24151 22.0639 9.16985 21.784 9.16985 21.4413C9.16985 21.1183 9.24151 20.8503 9.38485 20.6405C9.45502 20.5319 9.55201 20.4432 9.66646 20.3831C9.7809 20.323 9.90893 20.2934 10.0382 20.2972C10.3129 20.2972 10.5284 20.412 10.6842 20.641ZM14.2992 21.4704V21.3094C14.2384 21.3164 14.1774 21.3223 14.1164 21.327C13.9189 21.3384 13.7208 21.3323 13.5244 21.3088V21.4698L14.2992 21.4704ZM13.367 22.2504C13.2476 22.2883 13.1873 22.3355 13.1873 22.3906C13.1873 22.4462 13.2476 22.4929 13.367 22.5313C13.502 22.5744 13.6838 22.5957 13.9149 22.5957C14.1382 22.5957 14.3169 22.5744 14.4493 22.5313C14.5703 22.4929 14.6311 22.4462 14.6311 22.3906C14.6311 22.3355 14.5703 22.2883 14.4493 22.2504C14.3169 22.2088 14.1387 22.1881 13.9144 22.1881C13.6843 22.1881 13.5015 22.2088 13.367 22.2504ZM13.3509 20.6535C13.2268 20.6955 13.1655 20.7485 13.1655 20.8155C13.1655 20.8788 13.2268 20.9318 13.3509 20.9734C13.4854 21.0191 13.6713 21.0409 13.9082 21.0409C14.145 21.0409 14.3319 21.0191 14.468 20.9734C14.5916 20.9318 14.6539 20.8788 14.6539 20.8155C14.6539 20.7485 14.5916 20.696 14.468 20.6535C14.3319 20.6104 14.145 20.5885 13.9082 20.5885C13.6713 20.5885 13.4854 20.6104 13.3509 20.6535ZM14.8071 22.0525C15.0081 22.1444 15.1083 22.2582 15.1083 22.3932C15.1083 22.5251 15.0081 22.6368 14.8071 22.7287C14.5854 22.8315 14.2867 22.8819 13.9113 22.8819C13.5337 22.8819 13.2336 22.8315 13.0113 22.7287C12.8134 22.6368 12.7147 22.5251 12.7147 22.3932C12.7147 22.2582 12.8134 22.1439 13.0113 22.0525C13.2336 21.9502 13.5337 21.8988 13.9113 21.8988C14.2867 21.8988 14.5854 21.9507 14.8071 22.0525ZM12.7682 21.0258C12.7113 20.9704 12.6781 20.8949 12.6758 20.8155C12.6758 20.6706 12.7781 20.5506 12.9827 20.453C13.2091 20.3491 13.5197 20.2972 13.9149 20.2972C14.307 20.2972 14.6175 20.3491 14.8455 20.453C15.0533 20.5506 15.1561 20.6711 15.1561 20.8155C15.1548 20.8551 15.1457 20.8941 15.1293 20.9302C15.1129 20.9663 15.0895 20.9988 15.0605 21.0258C14.9767 21.103 14.8786 21.1629 14.7718 21.2024V21.4704H15.2999V21.7534H12.5283V21.4704H13.0502V21.2024C12.9449 21.1639 12.8489 21.1037 12.7682 21.0258ZM18.5275 20.3107V21.3249H18.8506V21.6111H18.5275V22.8118H18.0539V20.3107H18.5275ZM17.465 20.3626V21.1375C17.465 21.5083 17.3456 21.8193 17.1067 22.0712C16.8844 22.3018 16.5546 22.4877 16.1174 22.63L15.9283 22.4171C16.2482 22.3059 16.497 22.1642 16.6741 21.9923C16.887 21.7866 16.994 21.5379 16.994 21.247V20.6457H16.0052V20.3621" fill="white"/>
</svg>
