<svg width="21" height="24" viewBox="0 0 21 24" fill="none" xmlns="http://www.w3.org/2000/svg">
  <path d="M0.621094 20.6804H19.6029V0.6875H0.621613L0.621094 20.6804Z" fill="#F8B845"/>
  <path d="M9.25875 2.5459C7.25104 5.11084 4.61808 5.28273 4.25195 5.28948V7.62644C4.25195 7.62644 4.48046 7.63059 6.12152 7.63527C7.19755 7.63838 7.18301 8.70767 7.18301 8.70767V19.4005H19.8244V2.5459" fill="#9CA1AB"/>
  <path d="M20.1904 6.75943V3.64453H11.2129V12.8054H15.4267V11.8883C15.4267 11.3778 15.8136 10.9649 16.2514 10.9649C16.6892 10.9649 17.0755 11.3778 17.0755 11.8883V17.6112C17.0755 18.1207 16.6892 18.5346 16.2514 18.5346C15.8136 18.5346 15.4267 18.1207 15.4267 17.6112V14.637H11.2129V15.5121C11.2129 19.4398 11.3614 20.1767 14.9744 20.1684C14.9744 20.1684 19.8259 20.6311 19.8259 17.3277L19.897 12.3712C19.9469 8.93384 19.7729 8.16213 17.9953 8.16213C16.6346 8.16213 15.9766 8.68768 15.4267 9.30412V6.75943" fill="white"/>
  <path d="M19.417 18.0408C19.4179 18.3334 19.3027 18.6144 19.0965 18.822C18.8903 19.0296 18.6102 19.1469 18.3176 19.148H2.38369C2.09119 19.1467 1.81114 19.0294 1.60509 18.8218C1.39904 18.6142 1.28384 18.3333 1.28481 18.0408V2.34786C1.28481 1.7361 1.77712 1.24014 2.38369 1.24014H18.3176C18.9247 1.24014 19.417 1.7361 19.417 2.34786V18.0408ZM19.2368 0H1.46553C0.757173 0 0 0.763405 0 1.47696V22.5236C0 23.2371 0.757173 24 1.46553 24H19.2368C19.9451 24 20.7023 23.2366 20.7023 22.5236V1.47696C20.7023 0.763405 19.9451 0 19.2368 0Z" fill="#211E1E"/>
  <path d="M3.03128 20.36V22.6222H2.57946V21.2148C2.57946 21.1457 2.57635 21.0943 2.56856 21.059C2.56375 21.0282 2.54741 21.0004 2.52286 20.9811C2.48688 20.9564 2.44563 20.9404 2.40237 20.9344C2.32439 20.9242 2.24574 20.92 2.16712 20.9219H2.09961V20.7189C2.2606 20.6929 2.39562 20.6508 2.50624 20.5911C2.61809 20.5319 2.71878 20.4537 2.80381 20.36M5.04158 20.3574V20.6358H3.97333V21.2517C4.07771 21.1271 4.24545 21.0647 4.47551 21.0647C4.9429 21.0647 5.1766 21.2652 5.1766 21.6656V21.9221C5.1766 22.1657 5.11947 22.3506 5.00367 22.4778C4.88838 22.605 4.68584 22.6679 4.39554 22.6668C3.8409 22.6611 3.56306 22.4586 3.56306 22.0577V21.9642H4.00189V22.0764C4.00189 22.1626 4.03097 22.2343 4.08862 22.2903C4.14626 22.3469 4.24182 22.3755 4.37684 22.3755C4.50667 22.3755 4.59963 22.3433 4.6552 22.2794C4.71025 22.215 4.73829 22.1107 4.73829 21.9668V21.6812C4.73829 21.5617 4.70713 21.4745 4.64377 21.4194C4.58094 21.3649 4.48486 21.3384 4.35763 21.3384C4.26784 21.3364 4.17993 21.3643 4.10783 21.4179C4.0372 21.4724 4.00189 21.5269 4.00189 21.5825H3.57605V20.3569M8.39744 22.7624H7.93005V20.2613H8.39744V22.7624ZM7.69636 20.2613V22.7624H7.22897V21.4885H6.88933V21.1946H7.22949V20.2613H7.69636ZM6.56683 20.2821V21.1193C6.56683 21.4122 6.62551 21.6827 6.74184 21.931C6.84674 22.1506 6.97346 22.3059 7.11991 22.3963L6.82597 22.5806C6.70959 22.4953 6.60875 22.3906 6.52788 22.2711C6.43512 22.1372 6.36592 21.9885 6.32327 21.8313C6.24393 22.1325 6.06307 22.3972 5.81121 22.5806L5.53909 22.3963C5.67567 22.2986 5.79615 22.1444 5.90054 21.931C6.02881 21.6765 6.09269 21.4054 6.09269 21.1193V20.2821M11.7518 22.7624H11.2776V20.2613H11.7518V22.7624ZM9.72639 20.7786C9.66407 20.9365 9.63291 21.14 9.63291 21.3898C9.63291 21.6604 9.66407 21.8775 9.72639 22.0421C9.7939 22.2192 9.89258 22.307 10.0203 22.307C10.1465 22.307 10.2431 22.2192 10.3117 22.0421C10.3761 21.8775 10.4077 21.6604 10.4077 21.3898C10.4077 21.1406 10.3766 20.9365 10.3117 20.7786C10.2416 20.6072 10.1444 20.522 10.0208 20.522C9.89465 20.522 9.7965 20.6072 9.72639 20.7786ZM10.6705 20.5916C10.8149 20.8009 10.8876 21.0684 10.8876 21.3919C10.8876 21.7357 10.8149 22.0151 10.6705 22.2296C10.5163 22.4633 10.3008 22.5806 10.024 22.5806C9.74405 22.5806 9.52645 22.4633 9.37066 22.2296C9.22836 22.0146 9.15669 21.7357 9.15669 21.3919C9.15669 21.0684 9.22836 20.8009 9.37066 20.5911C9.441 20.4827 9.53804 20.3943 9.65246 20.3342C9.76687 20.2742 9.89481 20.2446 10.024 20.2484C10.2992 20.2484 10.5142 20.3631 10.6705 20.5916ZM14.285 21.4205V21.2595C14.2294 21.2662 14.1682 21.2725 14.1027 21.2782C13.9673 21.2847 13.8316 21.2847 13.6961 21.2782C13.6275 21.273 13.5663 21.2662 13.5102 21.2595V21.4205H14.285ZM13.3533 22.2015C13.2339 22.2389 13.1742 22.2857 13.1742 22.3412C13.1742 22.3968 13.2339 22.4435 13.3533 22.482C13.4879 22.5251 13.6701 22.5469 13.9007 22.5469C14.1245 22.5469 14.3027 22.5251 14.4356 22.482C14.5571 22.4435 14.6174 22.3968 14.6174 22.3412C14.6174 22.2857 14.5571 22.2389 14.4356 22.201C14.3027 22.1595 14.1245 22.1387 13.9007 22.1387C13.6701 22.1387 13.4879 22.16 13.3533 22.2015ZM13.3378 20.6041C13.2136 20.6462 13.1513 20.6991 13.1513 20.7661C13.1513 20.8295 13.2136 20.8825 13.3378 20.924C13.4723 20.9697 13.6571 20.992 13.8945 20.992C14.1313 20.992 14.3177 20.9697 14.4548 20.9245C14.5779 20.883 14.6402 20.8295 14.6402 20.7661C14.6402 20.6991 14.5779 20.6467 14.4548 20.6041C14.3177 20.561 14.1313 20.5397 13.894 20.5397C13.6571 20.5397 13.4723 20.561 13.3378 20.6041ZM14.7939 22.0032C14.9944 22.0956 15.0946 22.2088 15.0946 22.3438C15.0946 22.4757 14.9944 22.5874 14.7934 22.6793C14.5722 22.7816 14.2736 22.8325 13.8981 22.8325C13.52 22.8325 13.2204 22.7816 12.9976 22.6793C12.7992 22.5874 12.7006 22.4757 12.7006 22.3438C12.7006 22.2088 12.7992 22.0956 12.9976 22.0032C13.2204 21.9008 13.52 21.85 13.8981 21.85C14.2736 21.85 14.5722 21.9008 14.7939 22.0032ZM12.754 20.9764C12.6973 20.9209 12.6643 20.8455 12.6621 20.7661C12.6621 20.6223 12.7644 20.5018 12.9685 20.4047C13.195 20.2998 13.5055 20.2489 13.9007 20.2489C14.2928 20.2489 14.6044 20.2998 14.8324 20.4047C15.0391 20.5018 15.1424 20.6223 15.1424 20.7661C15.1424 20.8393 15.1113 20.9105 15.0463 20.9764C14.9788 21.044 14.8817 21.1032 14.7586 21.153V21.4205H15.2868V21.704H12.5146V21.4205H13.036V21.153C12.9307 21.1145 12.8347 21.0544 12.754 20.9764ZM18.5139 20.2613V21.2756H18.8364V21.5612H18.5139V22.7624H18.0402V20.2613H18.5139ZM17.4508 20.3133V21.0886C17.4508 21.4584 17.3314 21.7705 17.0925 22.0218C16.8707 22.2524 16.541 22.4383 16.1037 22.5806L15.9146 22.3677C16.2346 22.2566 16.4833 22.1148 16.6604 21.9439C16.8744 21.7373 16.9808 21.4885 16.9808 21.1972V20.5963H15.991V20.3138" fill="white"/>
</svg>
