<svg width="21" height="24" viewBox="0 0 21 24" fill="none" xmlns="http://www.w3.org/2000/svg">
  <path d="M19.6024 20.6804H0.621094V0.6875H19.6024V20.6804Z" fill="#A11438"/>
  <path d="M9.25875 2.5459C7.25104 5.11084 4.61808 5.28273 4.25195 5.28948V7.62644C4.25195 7.62644 4.48149 7.63059 6.12152 7.63527C7.19755 7.63838 7.18301 8.70767 7.18301 8.70767V19.4005H19.8244V2.5459H9.25875Z" fill="#9CA1AB"/>
  <path d="M15.643 7.6409C15.643 7.07795 15.6965 6.69365 15.8045 6.488C15.9126 6.28183 16.1213 6.179 16.4308 6.179C16.7471 6.179 16.9606 6.27508 17.0732 6.46619C17.1849 6.65782 17.2415 7.04939 17.2415 7.6409V8.84261C17.2415 9.46372 17.187 9.87295 17.079 10.0724C16.9709 10.2702 16.7622 10.3699 16.4537 10.3699C16.1603 10.3699 15.951 10.2687 15.8274 10.0661C15.7043 9.86464 15.643 9.50008 15.643 8.97296V7.6409ZM19.4606 3.9537C18.678 3.65353 17.6559 3.50293 16.3955 3.50293C14.6189 3.50293 13.2843 3.87892 12.3915 4.62986C11.4994 5.38184 11.0527 6.50981 11.0527 8.01273C11.0527 8.8826 11.1971 9.59979 11.4858 10.1643C11.773 10.7293 12.4253 11.4621 13.1638 11.7939C13.1638 11.7939 13.518 11.997 14.1006 12.1294C14.3977 12.2317 15.3262 12.467 17.3194 12.3683C17.3225 14.0312 17.3272 17.8731 17.3179 17.9972C17.3059 18.1546 17.2285 18.3021 17.0842 18.4387C16.9398 18.5747 16.7497 18.6433 16.5165 18.6433C16.0092 18.6433 15.7121 18.406 15.6254 17.9318C15.5402 17.4561 15.4966 16.6543 15.4966 15.5247V14.4352H11.0714V15.383C11.0714 17.0059 11.2636 18.206 11.6479 18.9814C11.7216 19.1294 11.7777 19.2088 11.8696 19.3428L18.2241 19.3189L18.7673 19.12L19.2638 18.6412L19.4803 18.2034L19.4606 3.9537Z" fill="white"/>
  <path d="M19.4175 18.0408C19.418 18.1857 19.3899 18.3293 19.3349 18.4634C19.2799 18.5974 19.199 18.7194 19.0968 18.8222C18.9947 18.925 18.8733 19.0067 18.7396 19.0626C18.6059 19.1185 18.4625 19.1475 18.3176 19.148H2.38369C2.09119 19.1467 1.81114 19.0294 1.60509 18.8218C1.39904 18.6142 1.28384 18.3333 1.28481 18.0408V2.34786C1.28481 1.7361 1.77712 1.24014 2.38369 1.24014H18.3176C18.9252 1.24014 19.4175 1.7361 19.4175 2.34786V18.0408ZM19.2368 0H1.46553C0.757173 0 0 0.763405 0 1.47696V22.5236C0 23.2371 0.757173 24 1.46553 24H19.2368C19.9451 24 20.7023 23.2366 20.7023 22.5236V1.47696C20.7023 0.763405 19.9451 0 19.2368 0Z" fill="#211E1E"/>
  <path d="M3.64421 21.7138H3.25783V21.1877H2.81692V20.8954H3.25783V20.1844H3.64421V21.7138ZM2.20205 22.1796C2.1013 22.23 2.05144 22.2923 2.05144 22.3656C2.05144 22.4383 2.1013 22.4995 2.20205 22.5499C2.31474 22.6076 2.46898 22.6361 2.6658 22.6361C2.86574 22.6361 3.0231 22.6076 3.13735 22.5499C3.24069 22.4995 3.29211 22.4383 3.29211 22.3656C3.29211 22.2923 3.24017 22.23 3.13735 22.1796C3.0231 22.1241 2.86574 22.096 2.6658 22.096C2.46898 22.096 2.31474 22.1241 2.20205 22.1796ZM3.42973 21.9735C3.59695 22.081 3.68004 22.2134 3.68004 22.3687C3.67848 22.5234 3.59435 22.6533 3.42713 22.7587C3.24121 22.8776 2.98778 22.9379 2.6658 22.9379C2.3459 22.9379 2.09351 22.8776 1.90759 22.7587C1.74193 22.6533 1.65987 22.5234 1.65987 22.3687C1.65987 22.2129 1.74192 22.081 1.90707 21.974C2.09506 21.8545 2.34849 21.7953 2.6658 21.7953C2.98934 21.7953 3.24381 21.8551 3.42973 21.9735ZM2.05144 20.3854V20.1709H2.4373V20.3854H2.95922V20.6778H2.43678C2.43678 20.8502 2.49494 21.0101 2.61075 21.154C2.71877 21.289 2.86782 21.4012 3.05737 21.4884L2.88496 21.7138C2.74386 21.6568 2.61206 21.5791 2.49391 21.4832C2.37238 21.3825 2.28618 21.2838 2.2358 21.1851C2.18231 21.2838 2.09351 21.3825 1.96939 21.4832C1.84475 21.585 1.7118 21.6629 1.57107 21.7169L1.42773 21.4941C1.6069 21.4048 1.75179 21.2921 1.86293 21.1566C1.98808 21.007 2.05092 20.8471 2.05092 20.6778H1.52952V20.3854H2.05144ZM5.02717 22.377V21.6338H5.41146V22.377H6.35196V22.6699H4.09446V22.377H5.02717ZM5.69501 21.0787C5.84977 21.2573 6.07672 21.3981 6.37533 21.5019L6.20395 21.7398C5.99176 21.6678 5.78993 21.5682 5.60361 21.4438C5.44805 21.3362 5.31605 21.198 5.21568 21.0376C5.12739 21.1934 5.0012 21.3285 4.83813 21.4443C4.6813 21.5533 4.4798 21.652 4.2326 21.7398L4.07836 21.5019C4.36399 21.3981 4.58366 21.2558 4.73894 21.0761C4.93161 20.8517 5.02768 20.5619 5.02768 20.2067H5.41094C5.41094 20.5671 5.5065 20.8574 5.69501 21.0787ZM7.29817 22.5359H8.86548V22.8371H7.25506C7.13146 22.8371 7.04318 22.8137 6.98917 22.7675C6.93827 22.7208 6.91283 22.6455 6.91283 22.5416V21.9735H7.29869L7.29817 22.5359ZM8.46145 21.1898H7.75257V20.8865H8.46197V20.6778H7.76608V20.3766H8.46197V20.1844H8.84783V22.1241H8.46197V21.7174H7.05876C6.96528 21.7174 6.89517 21.6878 6.85051 21.6307C6.80792 21.5793 6.78819 21.504 6.78819 21.4074V20.2073H7.17301V21.4194H8.46197L8.46145 21.1898ZM11.4491 22.8651H11.0633V20.1844H11.4491V22.8651ZM9.79871 20.739C9.74781 20.9078 9.72289 21.1265 9.72289 21.3939C9.72289 21.6837 9.74781 21.9163 9.79871 22.0929C9.8548 22.2819 9.93373 22.377 10.0386 22.377C10.1409 22.377 10.2204 22.2819 10.2754 22.0929C10.3284 21.9163 10.3539 21.6837 10.3539 21.3939C10.3539 21.1265 10.3279 20.9078 10.2754 20.7396C10.2183 20.5552 10.1394 20.4638 10.0386 20.4638C9.93529 20.4638 9.85583 20.5552 9.79871 20.739ZM10.5678 20.5386C10.6862 20.7634 10.7444 21.0496 10.7444 21.396C10.7444 21.7642 10.6862 22.0638 10.5678 22.2934C10.4432 22.5447 10.2666 22.6699 10.0412 22.6699C9.81273 22.6699 9.63564 22.5447 9.50893 22.2934C9.39312 22.0638 9.33495 21.7637 9.33495 21.396C9.33495 21.0496 9.39312 20.7634 9.50893 20.5391C9.63772 20.2935 9.81533 20.1709 10.0412 20.1709C10.2656 20.1709 10.4411 20.2935 10.5678 20.5386ZM13.3415 21.4277V21.2552C13.2382 21.272 13.1336 21.2802 13.0289 21.2797C12.9666 21.2797 12.911 21.2781 12.8627 21.2739C12.8066 21.2687 12.7568 21.2615 12.7106 21.2552V21.4277H13.3415ZM12.5833 22.2627C12.4852 22.3038 12.4374 22.3536 12.4374 22.4133C12.4374 22.4725 12.4852 22.5234 12.5833 22.5639C12.6924 22.6096 12.8409 22.6335 13.0294 22.6335C13.2112 22.6335 13.3566 22.6096 13.4641 22.5639C13.5628 22.5234 13.6126 22.4725 13.6126 22.4133C13.6126 22.3536 13.5633 22.3038 13.4641 22.2627C13.3561 22.2186 13.2112 22.1963 13.0294 22.1963C12.8409 22.1963 12.6929 22.2186 12.5833 22.2627ZM12.5698 20.5526C12.4696 20.5973 12.4192 20.6549 12.4192 20.7255C12.4192 20.793 12.4696 20.8507 12.5698 20.8954C12.6799 20.9437 12.831 20.9675 13.0237 20.9675C13.2169 20.9675 13.3691 20.9437 13.4802 20.8948C13.5809 20.8507 13.6308 20.7936 13.6308 20.7255C13.6308 20.6549 13.5809 20.5973 13.4802 20.5526C13.3691 20.5059 13.2169 20.483 13.0232 20.483C12.831 20.483 12.6804 20.5059 12.5698 20.5526ZM13.7565 22.0508C13.9195 22.1495 14.0016 22.2716 14.0016 22.4159C14.0016 22.5577 13.9195 22.6772 13.7565 22.7758C13.5752 22.8849 13.3317 22.9399 13.0263 22.9399C12.7183 22.9399 12.4748 22.8854 12.2935 22.7758C12.1325 22.6772 12.051 22.5577 12.051 22.4159C12.051 22.2716 12.1325 22.1495 12.2935 22.0508C12.4748 21.9418 12.7183 21.8873 13.0263 21.8873C13.3317 21.8873 13.5752 21.9413 13.7565 22.0508ZM12.0952 20.9509C12.0471 20.8856 12.0209 20.8067 12.0204 20.7255C12.0204 20.5708 12.1035 20.442 12.2696 20.3381C12.4545 20.2265 12.7069 20.1709 13.0294 20.1709C13.3493 20.1709 13.6017 20.2265 13.7876 20.3381C13.9559 20.442 14.0405 20.5708 14.0405 20.7255C14.0405 20.805 14.0146 20.8803 13.9626 20.9509C13.9066 21.0236 13.8287 21.087 13.7279 21.1405V21.4277H14.1579V21.7309H11.8999V21.4277H12.3252V21.1405C12.235 21.0957 12.1563 21.0309 12.0952 20.9509ZM15.0153 20.8143H16.2466V20.6331H15.0153V20.8143ZM15.0153 20.2067V20.3355H16.2461V20.2067H16.632V21.1155H14.9816C14.8574 21.1155 14.7676 21.0896 14.7105 21.0397C14.6565 20.9904 14.6295 20.913 14.6295 20.8086V20.2062L15.0153 20.2067ZM16.7602 21.5113H15.8255V21.7008H16.632V22.4107H15.0153V22.5333H16.6527V22.8376H14.9816C14.8663 22.8376 14.779 22.8101 14.7183 22.7556C14.6585 22.7042 14.6295 22.6299 14.6295 22.5333V22.1095H16.2461V22.0015H14.6295V21.7008H15.4401V21.5113H14.5022V21.2121H16.7597L16.7602 21.5113ZM19.2182 20.1854V21.2713H19.4815V21.5777H19.2182V22.8657H18.8318V20.1854H19.2182ZM18.353 20.241V21.0714C18.353 21.4682 18.2549 21.8021 18.0601 22.0711C17.8794 22.3178 17.6109 22.5177 17.2546 22.6699L17.1014 22.4414C17.3616 22.3219 17.5642 22.1713 17.709 21.987C17.8825 21.7663 17.9692 21.4998 17.9692 21.1877V20.5448H17.1638V20.2415L18.353 20.241Z" fill="white"/>
</svg>
