<svg width="45" height="14" viewBox="0 0 45 14" fill="none" xmlns="http://www.w3.org/2000/svg">
  <mask id="prime_video" style="mask-type:luminance" maskUnits="userSpaceOnUse" x="0" y="0" width="45" height="14">
    <path d="M44.2705 0.432129H0.530045V13.8937H44.2705V0.432129Z" fill="white"/>
  </mask>
  <g mask="url(#prime_video)">
    <path d="M22.201 13.8936V13.8718C22.2229 13.8442 22.2612 13.828 22.2939 13.8334C22.4524 13.828 22.6055 13.828 22.7639 13.8334C22.7969 13.8334 22.835 13.8442 22.8568 13.8718V13.8936H22.201Z" fill="black"/>
    <path d="M22.8563 13.8719C22.6376 13.8662 22.4192 13.8662 22.2005 13.8719C21.9 13.8554 21.5992 13.8443 21.2987 13.8225C20.5006 13.7626 19.7082 13.6422 18.9322 13.4618C16.2486 12.8389 13.893 11.5872 11.8379 9.76712C11.6466 9.59783 11.4663 9.42288 11.2804 9.24793C11.2367 9.20986 11.1984 9.15505 11.1766 9.1005C11.1438 9.02383 11.1602 8.94203 11.2148 8.88183C11.2695 8.82158 11.357 8.79972 11.4335 8.83267C11.4826 8.85453 11.5319 8.8764 11.5756 8.9037C13.5377 10.1171 15.6802 11.0023 17.9265 11.527C18.6807 11.7019 19.4403 11.8385 20.2055 11.9371C21.3041 12.0737 22.4135 12.1229 23.5176 12.0845C24.1134 12.068 24.7036 12.0135 25.2939 11.9371C26.6714 11.7622 28.0322 11.4506 29.3492 11.0134C30.0434 10.7837 30.7211 10.5215 31.3826 10.2153C31.4809 10.1608 31.6013 10.1443 31.7104 10.1716C31.8907 10.2153 32.0001 10.4011 31.9563 10.5814C31.9509 10.6033 31.9401 10.6309 31.929 10.6527C31.8853 10.7345 31.8251 10.8055 31.7487 10.8604C31.1202 11.3523 30.4425 11.784 29.7264 12.1447C28.3764 12.8278 26.9336 13.3143 25.4469 13.593C24.5889 13.7461 23.7255 13.839 22.8563 13.8719ZM14.7619 2.79323C14.8986 2.71123 15.0407 2.62378 15.1883 2.54726C15.5709 2.35051 15.9972 2.25212 16.4289 2.274C16.7404 2.29039 17.0246 2.37784 17.2433 2.60739C17.451 2.82055 17.5275 3.08288 17.5493 3.36711C17.5548 3.42721 17.5548 3.48734 17.5548 3.55292V6.38407C17.5548 6.63004 17.522 6.66267 17.2761 6.66267H16.6093C16.5656 6.66267 16.5218 6.66267 16.4781 6.65729C16.4125 6.6519 16.3579 6.59709 16.3469 6.53177C16.336 6.47152 16.336 6.41132 16.336 6.35139V3.82071C16.3415 3.71704 16.3306 3.61848 16.3032 3.52014C16.2595 3.35069 16.1065 3.23047 15.9316 3.21953C15.6091 3.19766 15.2867 3.26327 14.9915 3.39989C14.9478 3.41082 14.9204 3.45456 14.9259 3.49827V6.37298C14.9259 6.4278 14.9259 6.47696 14.915 6.53177C14.915 6.60818 14.8549 6.66267 14.7783 6.66267C14.6964 6.66838 14.6144 6.66838 14.5269 6.66838H13.9476C13.7454 6.66838 13.7016 6.61895 13.7016 6.4167V3.83178C13.7016 3.73862 13.6962 3.64035 13.6743 3.54747C13.6361 3.36163 13.4776 3.23047 13.2917 3.21953C12.9638 3.19766 12.6304 3.26327 12.3352 3.40537C12.2916 3.4163 12.2642 3.46547 12.2751 3.50921V6.42241C12.2751 6.62466 12.2314 6.66838 12.0292 6.66838H11.2968C11.1056 6.66838 11.0563 6.61357 11.0563 6.4278V2.63471C11.0563 2.591 11.0618 2.54726 11.0727 2.50355C11.0946 2.43796 11.1602 2.39971 11.2257 2.39971H11.909C12.0073 2.39971 12.0675 2.45984 12.1003 2.55274C12.1276 2.62926 12.144 2.7003 12.1713 2.78229C12.226 2.78229 12.2587 2.74404 12.297 2.72217C12.5976 2.53636 12.9146 2.37784 13.2698 2.31225C13.5432 2.25761 13.8164 2.25761 14.0897 2.31225C14.3466 2.3669 14.5762 2.51994 14.7237 2.73855C14.7346 2.75497 14.7456 2.76591 14.7565 2.77681C14.751 2.78229 14.7565 2.78229 14.7619 2.79323Z" fill="#00A8E1"/>
    <path d="M26.092 5.51498C26.1249 5.40562 26.1576 5.30196 26.1905 5.19261C26.4419 4.34535 26.6933 3.50377 26.9447 2.65662L26.9776 2.55824C27.0049 2.45985 27.0977 2.39972 27.196 2.39972H28.0268C28.2347 2.39972 28.2784 2.45985 28.2071 2.65662L27.8794 3.52564C27.5133 4.47657 27.1469 5.43319 26.7808 6.38411C26.77 6.41679 26.7535 6.44969 26.7424 6.48238C26.7043 6.59712 26.5896 6.6738 26.4691 6.66271C26.2289 6.65732 25.9883 6.65732 25.7477 6.66271C25.5785 6.66842 25.4799 6.59174 25.42 6.43865C25.2833 6.07794 25.141 5.71179 25.0044 5.35109C24.6767 4.49304 24.3432 3.63499 24.0152 2.7714C23.9825 2.70579 23.9606 2.62927 23.9441 2.55824C23.9277 2.44891 23.966 2.39427 24.0754 2.39427C24.387 2.38882 24.6985 2.39427 25.0044 2.39427C25.1356 2.39427 25.1958 2.48172 25.2285 2.59649C25.2887 2.80418 25.3487 3.01734 25.4143 3.22502C25.6384 3.98463 25.8571 4.7498 26.0812 5.50959C26.0758 5.51498 26.0812 5.51498 26.092 5.51498Z" fill="black"/>
    <path d="M6.68403 3.00085C6.72232 2.98992 6.75505 2.96805 6.77697 2.93527C6.87535 2.83688 6.97916 2.74398 7.08847 2.65652C7.37267 2.43791 7.72795 2.32859 8.08317 2.35594C8.22527 2.36139 8.27448 2.40511 8.28542 2.54175C8.29635 2.72759 8.29085 2.91888 8.29085 3.1047C8.29635 3.18121 8.29085 3.25228 8.27992 3.32879C8.25812 3.42715 8.21983 3.46541 8.12145 3.47635C8.04494 3.48183 7.97392 3.47635 7.8974 3.47089C7.53119 3.43809 7.17592 3.50915 6.83157 3.62382C6.75505 3.65136 6.75505 3.7059 6.75505 3.76611V6.38942C6.75505 6.43853 6.75505 6.4823 6.74962 6.53168C6.74412 6.6027 6.68947 6.65725 6.61845 6.65725C6.58016 6.66263 6.53644 6.66263 6.49821 6.66263H5.78765C5.74942 6.66263 5.7057 6.66263 5.66747 6.65725C5.59639 6.65187 5.54174 6.59161 5.5363 6.52064C5.53081 6.47687 5.53081 6.43314 5.53081 6.38942V2.67292C5.53081 2.42152 5.55811 2.3942 5.80957 2.3942H6.33425C6.47635 2.3942 6.54193 2.44336 6.58016 2.58001C6.61845 2.71665 6.65124 2.85327 6.68403 3.00085ZM32.2517 8.54289C32.6124 8.55371 32.9677 8.57557 33.3174 8.66846C33.416 8.69597 33.5088 8.72866 33.6017 8.77238C33.7272 8.82154 33.8093 8.94194 33.8258 9.0729C33.8476 9.22598 33.8531 9.3845 33.842 9.54297C33.771 10.4777 33.4813 11.3795 33.0004 12.183C32.8254 12.4724 32.6124 12.7349 32.3664 12.9644C32.3173 13.0135 32.2571 13.0519 32.1915 13.0737C32.0878 13.101 32.0222 13.0465 32.0165 12.9425C32.0222 12.888 32.033 12.8331 32.0549 12.7786C32.2463 12.2648 32.4321 11.7567 32.5795 11.2264C32.667 10.9367 32.7272 10.6416 32.7655 10.3411C32.7763 10.2317 32.7817 10.1224 32.7709 10.013C32.7655 9.82728 32.6451 9.66881 32.4647 9.614C32.2954 9.55945 32.1205 9.52677 31.9401 9.51573C31.4374 9.49381 30.9344 9.51573 30.437 9.58131L29.7758 9.66337C29.7048 9.66881 29.6392 9.66337 29.6008 9.59779C29.5625 9.5322 29.579 9.46657 29.6173 9.40098C29.6611 9.34073 29.7156 9.28623 29.7812 9.24784C30.1857 8.95815 30.6393 8.78347 31.1204 8.66846C31.4919 8.59205 31.8691 8.55371 32.2517 8.54289Z" fill="#00A8E1"/>
    <path d="M29.9614 4.53129V6.49878C29.9506 6.60809 29.9015 6.65725 29.7921 6.66264C29.497 6.66834 29.2073 6.66834 28.9122 6.66264C28.8028 6.66264 28.7537 6.60809 28.7426 6.50417C28.7372 6.47148 28.7372 6.43314 28.7372 6.40051V2.61828C28.7426 2.44885 28.7864 2.39966 28.9559 2.39966H29.743C29.9122 2.39966 29.9614 2.44885 29.9614 2.61828V4.53129Z" fill="black"/>
    <path d="M8.81595 4.52025V2.58005C8.82144 2.44886 8.87061 2.39969 9.00177 2.39421C9.28597 2.38876 9.57023 2.38876 9.85443 2.39421C9.98011 2.39421 10.0184 2.43247 10.0293 2.55818C10.0348 2.60737 10.0348 2.65109 10.0348 2.70028V6.34033C10.0348 6.40053 10.0293 6.46046 10.0238 6.52066C10.0184 6.59168 9.96368 6.64079 9.89266 6.6465C9.85987 6.65188 9.83251 6.65188 9.79977 6.65188H9.04006C9.01271 6.65188 8.99084 6.65188 8.96354 6.6465C8.88703 6.64079 8.82144 6.58086 8.81595 6.50418C8.81051 6.46046 8.81051 6.41674 8.81051 6.37296C8.81595 5.76654 8.81595 5.14341 8.81595 4.52025ZM9.44994 0.437567C9.53738 0.432113 9.62483 0.448501 9.70684 0.475825C10.002 0.574213 10.155 0.831091 10.1276 1.16448C10.1058 1.44868 9.89266 1.67823 9.60846 1.72198C9.48822 1.74382 9.36249 1.74382 9.24225 1.72198C8.9307 1.66185 8.70115 1.43229 8.72301 1.03877C8.75586 0.650728 9.01271 0.437567 9.44994 0.437567Z" fill="#00A8E1"/>
    <path d="M29.3555 0.437601C29.4649 0.426666 29.5742 0.448536 29.6779 0.492248C29.8912 0.574245 30.0386 0.770994 30.0497 1.00055C30.0934 1.49791 29.76 1.74933 29.3172 1.7384C29.2573 1.7384 29.1971 1.72746 29.1369 1.71653C28.798 1.63456 28.6231 1.3722 28.656 0.99509C28.6833 0.694478 28.9184 0.470407 29.2408 0.443083C29.2791 0.437602 29.3172 0.432148 29.3555 0.437601Z" fill="black"/>
    <path d="M4.72208 4.07205C4.70024 3.78802 4.62372 3.50916 4.50894 3.25228C4.28485 2.78227 3.94052 2.43795 3.41583 2.31769C2.81463 2.18652 2.27355 2.31769 1.78165 2.68388C1.74884 2.71667 1.71058 2.74402 1.66687 2.76586C1.65593 2.76041 1.645 2.75492 1.645 2.74947C1.62861 2.69482 1.61767 2.64015 1.60129 2.5855C1.55754 2.44885 1.5029 2.39969 1.35535 2.39969C1.19137 2.39969 1.02195 2.40514 0.857986 2.39969C0.732272 2.39421 0.617499 2.41059 0.530045 2.50898C0.530045 4.42197 0.530046 6.34031 0.535499 8.24781C0.606563 8.36261 0.715886 8.38448 0.841569 8.37904C1.03834 8.37338 1.23509 8.37904 1.43186 8.37904C1.77619 8.37904 1.77619 8.37904 1.77619 8.04024V6.48231C1.77619 6.44424 1.75977 6.40051 1.79803 6.36756C2.07133 6.5809 2.40472 6.71212 2.74905 6.74475C3.23 6.79391 3.66725 6.67373 4.03342 6.3457C4.30124 6.09973 4.49801 5.78274 4.60185 5.43311C4.7494 4.98492 4.76034 4.53133 4.72208 4.07205ZM3.41583 5.20362C3.37757 5.3729 3.29012 5.526 3.16441 5.64074C3.02231 5.76088 2.84741 5.8319 2.6616 5.8319C2.38285 5.84837 2.10959 5.78817 1.86362 5.65722C1.80351 5.62965 1.76526 5.56972 1.77071 5.50414V4.51485C1.77071 4.1868 1.77619 3.85903 1.77071 3.53103C1.76526 3.45452 1.80897 3.38893 1.88003 3.36161C2.18062 3.21951 2.49217 3.15393 2.82008 3.21951C3.04963 3.25228 3.24641 3.39987 3.33931 3.61306C3.42128 3.78802 3.47048 3.97917 3.48141 4.1706C3.51422 4.52024 3.51422 4.87017 3.41583 5.20362Z" fill="#00A8E1"/>
    <path d="M44.2595 4.92471C44.2595 4.91932 44.2595 4.91932 44.2595 4.92471ZM44.265 4.19249V4.21436C44.2431 4.19249 44.2323 4.15954 44.2431 4.13228V4.08854C44.2431 4.08854 44.2431 4.08313 44.2488 4.08313H44.2431V4.02832H44.2542C44.2542 4.02292 44.2488 4.02292 44.2488 4.01753C44.2377 3.91357 44.2158 3.8099 44.1886 3.71134C43.9863 2.98997 43.5327 2.51447 42.7948 2.32863C42.4506 2.24666 42.1007 2.23573 41.751 2.29038C41.0131 2.3997 40.4828 2.79322 40.2261 3.49281C39.9747 4.15954 39.9801 4.89205 40.2315 5.55864C40.4502 6.16533 40.8873 6.54796 41.5159 6.70643C41.8493 6.78849 42.1992 6.8104 42.5435 6.76124C43.6913 6.62464 44.1667 5.7555 44.2431 5.0014H44.2377V4.92471C44.2323 4.89205 44.2269 4.8645 44.2595 4.84291V4.85371C44.2595 4.84831 44.265 4.83723 44.2706 4.83183V4.20328C44.2706 4.19789 44.265 4.19789 44.265 4.19249ZM42.9533 5.2309C42.9207 5.34564 42.8712 5.44934 42.8003 5.54787C42.6801 5.71717 42.4887 5.82653 42.281 5.84295C42.1774 5.85377 42.0734 5.85377 41.9695 5.83191C41.74 5.78846 41.5488 5.63537 41.4559 5.42204C41.3738 5.25276 41.3247 5.06673 41.3082 4.88097C41.281 4.5586 41.2756 4.23623 41.352 3.91897C41.3793 3.79343 41.4341 3.6676 41.4994 3.55839C41.6198 3.36162 41.8274 3.23591 42.0569 3.21952C42.1609 3.20858 42.2645 3.20858 42.3685 3.23045C42.5872 3.27417 42.7676 3.41629 42.8658 3.61846C42.9587 3.8099 43.0135 4.02292 43.0243 4.23623C43.0298 4.3345 43.0354 4.43277 43.0298 4.53133C43.0462 4.77162 43.0189 5.0068 42.9533 5.2309ZM34.6841 0.47583H33.9243C33.7167 0.47583 33.6783 0.51409 33.6783 0.7218V2.49261C33.6783 2.53086 33.6948 2.56912 33.6676 2.60738C33.6181 2.60192 33.5909 2.56912 33.5526 2.54728C32.9842 2.21386 32.3886 2.15376 31.7873 2.4325C31.3664 2.62925 31.1042 2.98451 30.9347 3.40536C30.7708 3.8099 30.7324 4.23623 30.7435 4.66795C30.7435 5.07241 30.8364 5.4712 31.0167 5.83191C31.2244 6.23097 31.5249 6.53714 31.9623 6.66836C32.5579 6.85413 33.1154 6.76124 33.6239 6.38405C33.6619 6.36219 33.6838 6.32385 33.7329 6.31303C33.7605 6.37328 33.7823 6.4386 33.7931 6.50418C33.815 6.59168 33.8917 6.65188 33.9846 6.65188H34.1155C34.3123 6.65188 34.5038 6.65727 34.6949 6.65188C34.848 6.65188 34.8917 6.60277 34.8972 6.44425V0.683542C34.8917 0.514089 34.848 0.47583 34.6841 0.47583ZM33.6838 4.49839V5.49306C33.6948 5.55864 33.6565 5.6189 33.5963 5.64614C33.3341 5.79384 33.0333 5.85377 32.7382 5.81005C32.4869 5.78275 32.2682 5.62967 32.1534 5.40588C32.0659 5.2309 32.0168 5.04514 32.0006 4.85371C31.9569 4.50946 31.9841 4.15954 32.0659 3.82609C32.0935 3.73321 32.1262 3.64573 32.1753 3.55839C32.29 3.34523 32.5088 3.20859 32.7493 3.1922C33.039 3.16488 33.3287 3.21952 33.5909 3.33978C33.6565 3.36162 33.6948 3.4272 33.6894 3.49826C33.6783 3.83717 33.6838 4.16494 33.6838 4.49839Z" fill="black"/>
    <path d="M19.55 4.87557C19.9598 4.95197 20.3804 4.95737 20.7906 4.89176C21.0309 4.8591 21.2607 4.78809 21.4737 4.67334C21.7196 4.53105 21.9 4.3345 21.9764 4.06126C22.1679 3.37249 21.8727 2.67838 21.1567 2.42148C20.8068 2.3067 20.4353 2.26844 20.0692 2.31763C19.2055 2.41602 18.6426 2.89152 18.3857 3.71673C18.2053 4.27968 18.2272 4.8537 18.3747 5.42206C18.566 6.14887 19.0469 6.58088 19.7738 6.7337C20.1893 6.82658 20.6103 6.81037 21.0255 6.74479C21.2442 6.7064 21.4626 6.65191 21.6705 6.56979C21.7961 6.52068 21.8617 6.44395 21.8563 6.30196C21.8509 6.17074 21.8563 6.03413 21.8563 5.89752C21.8563 5.73361 21.7907 5.6845 21.6322 5.72252C21.4737 5.76091 21.3206 5.79381 21.1621 5.8265C20.8233 5.89752 20.4736 5.89752 20.1345 5.83727C19.6701 5.74444 19.3693 5.34564 19.3969 4.8537C19.446 4.8591 19.5005 4.86449 19.55 4.87557ZM19.413 4.03939C19.4295 3.90817 19.4679 3.78235 19.517 3.6622C19.6809 3.26317 20.0254 3.12655 20.3751 3.14839C20.4736 3.15387 20.5719 3.17572 20.6648 3.21397C20.8068 3.2741 20.8997 3.40527 20.9162 3.5583C20.9326 3.65112 20.9272 3.74968 20.8997 3.84256C20.8344 4.03939 20.6758 4.12119 20.4844 4.15953C20.3697 4.1868 20.2495 4.19788 20.1291 4.1868C19.9161 4.1868 19.6974 4.17032 19.4843 4.13766C19.4023 4.12658 19.4023 4.12659 19.413 4.03939Z" fill="#00A8E1"/>
    <path d="M37.9858 4.9301C38.3027 4.90823 38.6197 4.8483 38.904 4.69521C39.1937 4.55291 39.3959 4.28536 39.4559 3.9681C39.4943 3.77155 39.4943 3.56378 39.4505 3.36703C39.3357 2.87513 39.0242 2.56906 38.5541 2.41057C38.2919 2.3286 38.013 2.29579 37.7398 2.30673C36.8215 2.3286 36.122 2.79316 35.8379 3.71134C35.6465 4.31802 35.6738 4.9355 35.8598 5.5422C36.051 6.16536 36.4881 6.54256 37.1112 6.7118C37.3791 6.77743 37.6577 6.80468 37.9312 6.79391C38.33 6.78853 38.729 6.7118 39.1062 6.5698C39.2647 6.5096 39.3031 6.45506 39.3031 6.2855V5.8921C39.2974 5.73363 39.2318 5.67881 39.0733 5.71715C38.9532 5.7501 38.8384 5.77735 38.7183 5.80465C38.3519 5.8921 37.9693 5.90857 37.5978 5.84299C37.226 5.77196 36.9746 5.55868 36.8764 5.18715C36.8491 5.0778 36.8272 4.96845 36.8161 4.8537C36.8434 4.8537 36.8707 4.8537 36.8925 4.86449C37.2532 4.9301 37.6197 4.95737 37.9858 4.9301ZM36.8434 4.05558C36.8817 3.84255 36.9309 3.63493 37.0621 3.45994C37.2643 3.19213 37.543 3.11561 37.8599 3.14842C37.8875 3.14842 37.9093 3.15935 37.9366 3.15935C38.3192 3.21945 38.4121 3.52552 38.3411 3.82069C38.2863 4.03939 38.1059 4.12119 37.9037 4.15953C37.7946 4.1814 37.6796 4.19219 37.5648 4.1868C37.3407 4.1814 37.1223 4.16493 36.9036 4.13227C36.8544 4.12687 36.8326 4.105 36.8434 4.05558Z" fill="black"/>
  </g>
</svg>
