<svg width="45" height="14" viewBox="0 0 45 14" fill="none" xmlns="http://www.w3.org/2000/svg">
  <mask id="prime_video" style="mask-type:luminance" maskUnits="userSpaceOnUse" x="0" y="0" width="45" height="14">
    <path d="M44.5782 0.432129H0.837738V13.8937H44.5782V0.432129Z" fill="white"/>
  </mask>
  <g mask="url(#prime_video)">
    <path d="M22.5087 13.8936V13.8718C22.5306 13.8442 22.5689 13.828 22.6016 13.8334C22.7601 13.828 22.9132 13.828 23.0716 13.8334C23.1046 13.8334 23.1427 13.8442 23.1645 13.8718V13.8936H22.5087Z" fill="white"/>
    <path d="M23.164 13.8719C22.9453 13.8662 22.7269 13.8662 22.5082 13.8719C22.2077 13.8554 21.9069 13.8443 21.6064 13.8225C20.8083 13.7626 20.0159 13.6422 19.2399 13.4618C16.5563 12.8389 14.2006 11.5872 12.1456 9.76712C11.9543 9.59783 11.774 9.42288 11.5881 9.24793C11.5444 9.20986 11.5061 9.15505 11.4843 9.1005C11.4515 9.02383 11.4678 8.94203 11.5225 8.88183C11.5772 8.82158 11.6647 8.79972 11.7412 8.83267C11.7903 8.85453 11.8395 8.8764 11.8833 8.9037C13.8454 10.1171 15.9879 11.0023 18.2342 11.527C18.9884 11.7019 19.748 11.8385 20.5132 11.9371C21.6118 12.0737 22.7212 12.1229 23.8253 12.0845C24.4211 12.068 25.0113 12.0135 25.6015 11.9371C26.9791 11.7622 28.3399 11.4506 29.6569 11.0134C30.3511 10.7837 31.0288 10.5215 31.6903 10.2153C31.7886 10.1608 31.909 10.1443 32.0181 10.1716C32.1984 10.2153 32.3078 10.4011 32.264 10.5814C32.2586 10.6033 32.2478 10.6309 32.2367 10.6527C32.193 10.7345 32.1328 10.8055 32.0564 10.8604C31.4279 11.3523 30.7502 11.784 30.0341 12.1447C28.6841 12.8278 27.2413 13.3143 25.7546 13.593C24.8966 13.7461 24.0332 13.839 23.164 13.8719ZM15.0696 2.79323C15.2063 2.71123 15.3484 2.62378 15.496 2.54726C15.8785 2.35051 16.3048 2.25212 16.7366 2.274C17.0481 2.29039 17.3323 2.37784 17.551 2.60739C17.7587 2.82055 17.8352 3.08288 17.857 3.36711C17.8625 3.42721 17.8625 3.48734 17.8625 3.55292V6.38407C17.8625 6.63004 17.8297 6.66267 17.5838 6.66267H16.917C16.8732 6.66267 16.8295 6.66267 16.7858 6.65729C16.7202 6.6519 16.6656 6.59709 16.6546 6.53177C16.6437 6.47152 16.6437 6.41132 16.6437 6.35139V3.82071C16.6492 3.71704 16.6383 3.61848 16.6109 3.52014C16.5672 3.35069 16.4142 3.23047 16.2393 3.21953C15.9168 3.19766 15.5943 3.26327 15.2992 3.39989C15.2555 3.41082 15.2281 3.45456 15.2336 3.49827V6.37298C15.2336 6.4278 15.2336 6.47696 15.2227 6.53177C15.2227 6.60818 15.1626 6.66267 15.086 6.66267C15.0041 6.66838 14.9221 6.66838 14.8346 6.66838H14.2552C14.0531 6.66838 14.0093 6.61895 14.0093 6.4167V3.83178C14.0093 3.73862 14.0039 3.64035 13.982 3.54747C13.9437 3.36163 13.7853 3.23047 13.5994 3.21953C13.2715 3.19766 12.9381 3.26327 12.6429 3.40537C12.5993 3.4163 12.5719 3.46547 12.5828 3.50921V6.42241C12.5828 6.62466 12.5391 6.66838 12.3369 6.66838H11.6045C11.4132 6.66838 11.364 6.61357 11.364 6.4278V2.63471C11.364 2.591 11.3695 2.54726 11.3804 2.50355C11.4023 2.43796 11.4679 2.39971 11.5334 2.39971H12.2167C12.315 2.39971 12.3752 2.45984 12.4079 2.55274C12.4353 2.62926 12.4517 2.7003 12.479 2.78229C12.5337 2.78229 12.5664 2.74404 12.6047 2.72217C12.9053 2.53636 13.2223 2.37784 13.5775 2.31225C13.8509 2.25761 14.1241 2.25761 14.3974 2.31225C14.6543 2.3669 14.8838 2.51994 15.0314 2.73855C15.0423 2.75497 15.0532 2.76591 15.0642 2.77681C15.0587 2.78229 15.0642 2.78229 15.0696 2.79323Z" fill="white"/>
    <path d="M26.3997 5.51498C26.4326 5.40562 26.4653 5.30196 26.4982 5.19261C26.7496 4.34535 27.0009 3.50377 27.2524 2.65662L27.2853 2.55824C27.3126 2.45985 27.4054 2.39972 27.5037 2.39972H28.3345C28.5424 2.39972 28.5861 2.45985 28.5148 2.65662L28.1871 3.52564C27.821 4.47657 27.4545 5.43319 27.0884 6.38411C27.0777 6.41679 27.0612 6.44969 27.0501 6.48238C27.012 6.59712 26.8973 6.6738 26.7768 6.66271C26.5366 6.65732 26.296 6.65732 26.0554 6.66271C25.8862 6.66842 25.7876 6.59174 25.7276 6.43865C25.591 6.07794 25.4487 5.71179 25.3121 5.35109C24.9844 4.49304 24.6509 3.63499 24.3229 2.7714C24.2902 2.70579 24.2683 2.62927 24.2518 2.55824C24.2354 2.44891 24.2737 2.39427 24.3831 2.39427C24.6947 2.38882 25.0062 2.39427 25.3121 2.39427C25.4433 2.39427 25.5035 2.48172 25.5362 2.59649C25.5964 2.80418 25.6564 3.01734 25.722 3.22502C25.9461 3.98463 26.1648 4.7498 26.3889 5.50959C26.3835 5.51498 26.3889 5.51498 26.3997 5.51498Z" fill="white"/>
    <path d="M6.99172 3.00085C7.03001 2.98992 7.06275 2.96805 7.08466 2.93527C7.18304 2.83688 7.28685 2.74398 7.39616 2.65652C7.68036 2.43791 8.03564 2.32859 8.39086 2.35594C8.53296 2.36139 8.58218 2.40511 8.59311 2.54175C8.60404 2.72759 8.59855 2.91888 8.59855 3.1047C8.60404 3.18121 8.59855 3.25228 8.58762 3.32879C8.56581 3.42715 8.52752 3.46541 8.42915 3.47635C8.35263 3.48183 8.28161 3.47635 8.20509 3.47089C7.83889 3.43809 7.48361 3.50915 7.13926 3.62382C7.06275 3.65136 7.06275 3.7059 7.06275 3.76611V6.38942C7.06275 6.43853 7.06275 6.4823 7.05731 6.53168C7.05182 6.6027 6.99716 6.65725 6.92614 6.65725C6.88785 6.66263 6.84413 6.66263 6.8059 6.66263H6.09535C6.05712 6.66263 6.01339 6.66263 5.97516 6.65725C5.90409 6.65187 5.84943 6.59161 5.84399 6.52064C5.8385 6.47687 5.8385 6.43314 5.8385 6.38942V2.67292C5.8385 2.42152 5.8658 2.3942 6.11726 2.3942H6.64194C6.78404 2.3942 6.84962 2.44336 6.88785 2.58001C6.92614 2.71665 6.95893 2.85327 6.99172 3.00085ZM32.5594 8.54289C32.9201 8.55371 33.2754 8.57557 33.6251 8.66846C33.7236 8.69597 33.8165 8.72866 33.9094 8.77238C34.0349 8.82154 34.117 8.94194 34.1335 9.0729C34.1553 9.22598 34.1608 9.3845 34.1497 9.54297C34.0787 10.4777 33.789 11.3795 33.3081 12.183C33.1331 12.4724 32.9201 12.7349 32.6741 12.9644C32.625 13.0135 32.5648 13.0519 32.4992 13.0737C32.3955 13.101 32.3299 13.0465 32.3242 12.9425C32.3299 12.888 32.3407 12.8331 32.3626 12.7786C32.554 12.2648 32.7398 11.7567 32.8871 11.2264C32.9746 10.9367 33.0348 10.6416 33.0732 10.3411C33.084 10.2317 33.0894 10.1224 33.0786 10.013C33.0732 9.82728 32.9528 9.66881 32.7724 9.614C32.6031 9.55945 32.4282 9.52677 32.2478 9.51573C31.7451 9.49381 31.2421 9.51573 30.7447 9.58131L30.0835 9.66337C30.0125 9.66881 29.9469 9.66337 29.9085 9.59779C29.8702 9.5322 29.8867 9.46657 29.925 9.40098C29.9688 9.34073 30.0233 9.28623 30.0889 9.24784C30.4934 8.95815 30.947 8.78347 31.4281 8.66846C31.7996 8.59205 32.1768 8.55371 32.5594 8.54289Z" fill="white"/>
    <path d="M30.2691 4.53129V6.49878C30.2583 6.60809 30.2092 6.65725 30.0998 6.66264C29.8047 6.66834 29.515 6.66834 29.2199 6.66264C29.1105 6.66264 29.0614 6.60809 29.0503 6.50417C29.0449 6.47148 29.0449 6.43314 29.0449 6.40051V2.61828C29.0503 2.44885 29.0941 2.39966 29.2636 2.39966H30.0507C30.2199 2.39966 30.2691 2.44885 30.2691 2.61828V4.53129Z" fill="white"/>
    <path d="M9.12365 4.52025V2.58005C9.12914 2.44886 9.17831 2.39969 9.30948 2.39421C9.59368 2.38876 9.87793 2.38876 10.1621 2.39421C10.2878 2.39421 10.3261 2.43247 10.337 2.55818C10.3425 2.60737 10.3425 2.65109 10.3425 2.70028V6.34033C10.3425 6.40053 10.337 6.46046 10.3315 6.52066C10.3261 6.59168 10.2714 6.64079 10.2004 6.6465C10.1676 6.65188 10.1402 6.65188 10.1075 6.65188H9.34776C9.32041 6.65188 9.29855 6.65188 9.27125 6.6465C9.19473 6.64079 9.12914 6.58086 9.12365 6.50418C9.11821 6.46046 9.11821 6.41674 9.11821 6.37296C9.12365 5.76654 9.12365 5.14341 9.12365 4.52025ZM9.75764 0.437567C9.84508 0.432113 9.93253 0.448501 10.0145 0.475825C10.3097 0.574213 10.4627 0.831091 10.4353 1.16448C10.4135 1.44868 10.2004 1.67823 9.91616 1.72198C9.79592 1.74382 9.67019 1.74382 9.54995 1.72198C9.2384 1.66185 9.00885 1.43229 9.03071 1.03877C9.06356 0.650728 9.32041 0.437567 9.75764 0.437567Z" fill="white"/>
    <path d="M29.6632 0.437601C29.7726 0.426666 29.8819 0.448536 29.9856 0.492248C30.1989 0.574245 30.3463 0.770994 30.3574 1.00055C30.4011 1.49791 30.0677 1.74933 29.6249 1.7384C29.5649 1.7384 29.5047 1.72746 29.4445 1.71653C29.1057 1.63456 28.9307 1.3722 28.9637 0.99509C28.9909 0.694478 29.2261 0.470407 29.5485 0.443083C29.5868 0.437602 29.6249 0.432148 29.6632 0.437601Z" fill="white"/>
    <path d="M5.02977 4.07205C5.00793 3.78802 4.93142 3.50916 4.81664 3.25228C4.59254 2.78227 4.24821 2.43795 3.72353 2.31769C3.12233 2.18652 2.58125 2.31769 2.08934 2.68388C2.05653 2.71667 2.01827 2.74402 1.97456 2.76586C1.96363 2.76041 1.9527 2.75492 1.9527 2.74947C1.9363 2.69482 1.92537 2.64015 1.90898 2.5855C1.86524 2.44885 1.8106 2.39969 1.66304 2.39969C1.49907 2.39969 1.32965 2.40514 1.16568 2.39969C1.03997 2.39421 0.925192 2.41059 0.837738 2.50898C0.837738 4.42197 0.837739 6.34031 0.843192 8.24781C0.914256 8.36261 1.02358 8.38448 1.14926 8.37904C1.34604 8.37338 1.54278 8.37904 1.73956 8.37904C2.08389 8.37904 2.08389 8.37904 2.08389 8.04024V6.48231C2.08389 6.44424 2.06747 6.40051 2.10573 6.36756C2.37902 6.5809 2.71241 6.71212 3.05674 6.74475C3.53769 6.79391 3.97495 6.67373 4.34112 6.3457C4.60893 6.09973 4.80571 5.78274 4.90954 5.43311C5.0571 4.98492 5.06803 4.53133 5.02977 4.07205ZM3.72353 5.20362C3.68527 5.3729 3.59781 5.526 3.4721 5.64074C3.33 5.76088 3.1551 5.8319 2.96929 5.8319C2.69054 5.84837 2.41728 5.78817 2.17131 5.65722C2.11121 5.62965 2.07295 5.56972 2.0784 5.50414V4.51485C2.0784 4.1868 2.08389 3.85903 2.0784 3.53103C2.07295 3.45452 2.11666 3.38893 2.18773 3.36161C2.48831 3.21951 2.79987 3.15393 3.12777 3.21951C3.35733 3.25228 3.5541 3.39987 3.64701 3.61306C3.72898 3.78802 3.77817 3.97917 3.78911 4.1706C3.82192 4.52024 3.82192 4.87017 3.72353 5.20362Z" fill="white"/>
    <path d="M44.5672 4.92471C44.5672 4.91932 44.5672 4.91932 44.5672 4.92471ZM44.5727 4.19249V4.21436C44.5508 4.19249 44.54 4.15954 44.5508 4.13228V4.08854C44.5508 4.08854 44.5508 4.08313 44.5565 4.08313H44.5508V4.02832H44.5619C44.5619 4.02292 44.5565 4.02292 44.5565 4.01753C44.5454 3.91357 44.5235 3.8099 44.4963 3.71134C44.294 2.98997 43.8404 2.51447 43.1025 2.32863C42.7583 2.24666 42.4084 2.23573 42.0587 2.29038C41.3208 2.3997 40.7905 2.79322 40.5338 3.49281C40.2824 4.15954 40.2878 4.89205 40.5392 5.55864C40.7579 6.16533 41.195 6.54796 41.8236 6.70643C42.157 6.78849 42.5069 6.8104 42.8512 6.76124C43.9989 6.62464 44.4744 5.7555 44.5508 5.0014H44.5454V4.92471C44.54 4.89205 44.5346 4.8645 44.5672 4.84291V4.85371C44.5672 4.84831 44.5727 4.83723 44.5783 4.83183V4.20328C44.5783 4.19789 44.5727 4.19789 44.5727 4.19249ZM43.261 5.2309C43.2284 5.34564 43.1789 5.44934 43.108 5.54787C42.9878 5.71717 42.7963 5.82653 42.5887 5.84295C42.4851 5.85377 42.3811 5.85377 42.2772 5.83191C42.0477 5.78846 41.8565 5.63537 41.7636 5.42204C41.6815 5.25276 41.6324 5.06673 41.6159 4.88097C41.5887 4.5586 41.5832 4.23623 41.6597 3.91897C41.687 3.79343 41.7418 3.6676 41.8071 3.55839C41.9275 3.36162 42.1351 3.23591 42.3646 3.21952C42.4686 3.20858 42.5722 3.20858 42.6762 3.23045C42.8949 3.27417 43.0753 3.41629 43.1735 3.61846C43.2664 3.8099 43.3212 4.02292 43.332 4.23623C43.3374 4.3345 43.3431 4.43277 43.3374 4.53133C43.3539 4.77162 43.3266 5.0068 43.261 5.2309ZM34.9918 0.47583H34.232C34.0244 0.47583 33.986 0.51409 33.986 0.7218V2.49261C33.986 2.53086 34.0025 2.56912 33.9753 2.60738C33.9258 2.60192 33.8986 2.56912 33.8603 2.54728C33.2919 2.21386 32.6963 2.15376 32.095 2.4325C31.674 2.62925 31.4119 2.98451 31.2424 3.40536C31.0785 3.8099 31.0401 4.23623 31.0512 4.66795C31.0512 5.07241 31.1441 5.4712 31.3244 5.83191C31.5321 6.23097 31.8326 6.53714 32.27 6.66836C32.8656 6.85413 33.4231 6.76124 33.9315 6.38405C33.9696 6.36219 33.9915 6.32385 34.0406 6.31303C34.0682 6.37328 34.09 6.4386 34.1008 6.50418C34.1227 6.59168 34.1994 6.65188 34.2923 6.65188H34.4232C34.62 6.65188 34.8114 6.65727 35.0026 6.65188C35.1557 6.65188 35.1994 6.60277 35.2048 6.44425V0.683542C35.1994 0.514089 35.1557 0.47583 34.9918 0.47583ZM33.9915 4.49839V5.49306C34.0025 5.55864 33.9642 5.6189 33.904 5.64614C33.6418 5.79384 33.341 5.85377 33.0459 5.81005C32.7946 5.78275 32.5759 5.62967 32.4611 5.40588C32.3736 5.2309 32.3245 5.04514 32.3083 4.85371C32.2646 4.50946 32.2918 4.15954 32.3736 3.82609C32.4012 3.73321 32.4339 3.64573 32.483 3.55839C32.5977 3.34523 32.8164 3.20859 33.057 3.1922C33.3467 3.16488 33.6364 3.21952 33.8986 3.33978C33.9642 3.36162 34.0025 3.4272 33.9971 3.49826C33.986 3.83717 33.9915 4.16494 33.9915 4.49839Z" fill="white"/>
    <path d="M19.8577 4.87557C20.2675 4.95197 20.6881 4.95737 21.0983 4.89176C21.3386 4.8591 21.5684 4.78809 21.7814 4.67334C22.0273 4.53105 22.2077 4.3345 22.2841 4.06126C22.4756 3.37249 22.1804 2.67838 21.4644 2.42148C21.1145 2.3067 20.743 2.26844 20.3769 2.31763C19.5132 2.41602 18.9503 2.89152 18.6934 3.71673C18.513 4.27968 18.5349 4.8537 18.6824 5.42206C18.8737 6.14887 19.3546 6.58088 20.0815 6.7337C20.497 6.82658 20.918 6.81037 21.3332 6.74479C21.5519 6.7064 21.7703 6.65191 21.9782 6.56979C22.1038 6.52068 22.1694 6.44395 22.164 6.30196C22.1586 6.17074 22.164 6.03413 22.164 5.89752C22.164 5.73361 22.0984 5.6845 21.9399 5.72252C21.7814 5.76091 21.6283 5.79381 21.4698 5.8265C21.131 5.89752 20.7813 5.89752 20.4422 5.83727C19.9778 5.74444 19.677 5.34564 19.7046 4.8537C19.7537 4.8591 19.8082 4.86449 19.8577 4.87557ZM19.7207 4.03939C19.7372 3.90817 19.7756 3.78235 19.8247 3.6622C19.9886 3.26317 20.3331 3.12655 20.6828 3.14839C20.7813 3.15387 20.8796 3.17572 20.9725 3.21397C21.1145 3.2741 21.2074 3.40527 21.2239 3.5583C21.2403 3.65112 21.2349 3.74968 21.2074 3.84256C21.1421 4.03939 20.9835 4.12119 20.7921 4.15953C20.6774 4.1868 20.5572 4.19788 20.4368 4.1868C20.2238 4.1868 20.0051 4.17032 19.792 4.13766C19.71 4.12658 19.71 4.12659 19.7207 4.03939Z" fill="white"/>
    <path d="M38.2935 4.9301C38.6104 4.90823 38.9274 4.8483 39.2117 4.69521C39.5014 4.55291 39.7036 4.28536 39.7636 3.9681C39.802 3.77155 39.802 3.56378 39.7582 3.36703C39.6434 2.87513 39.3319 2.56906 38.8618 2.41057C38.5996 2.3286 38.3207 2.29579 38.0475 2.30673C37.1293 2.3286 36.4297 2.79316 36.1456 3.71134C35.9542 4.31802 35.9815 4.9355 36.1675 5.5422C36.3587 6.16536 36.7958 6.54256 37.4189 6.7118C37.6868 6.77743 37.9654 6.80468 38.2389 6.79391C38.6377 6.78853 39.0367 6.7118 39.4139 6.5698C39.5724 6.5096 39.6108 6.45506 39.6108 6.2855V5.8921C39.6051 5.73363 39.5395 5.67881 39.381 5.71715C39.2609 5.7501 39.1461 5.77735 39.026 5.80465C38.6596 5.8921 38.277 5.90857 37.9055 5.84299C37.5337 5.77196 37.2823 5.55868 37.1841 5.18715C37.1568 5.0778 37.1349 4.96845 37.1238 4.8537C37.1511 4.8537 37.1784 4.8537 37.2002 4.86449C37.5609 4.9301 37.9274 4.95737 38.2935 4.9301ZM37.1511 4.05558C37.1894 3.84255 37.2386 3.63493 37.3698 3.45994C37.572 3.19213 37.8507 3.11561 38.1676 3.14842C38.1952 3.14842 38.217 3.15935 38.2443 3.15935C38.6269 3.21945 38.7198 3.52552 38.6488 3.82069C38.594 4.03939 38.4136 4.12119 38.2114 4.15953C38.1023 4.1814 37.9873 4.19219 37.8725 4.1868C37.6484 4.1814 37.43 4.16493 37.2113 4.13227C37.1621 4.12687 37.1403 4.105 37.1511 4.05558Z" fill="white"/>
  </g>
</svg>
