<svg width="36" height="14" viewBox="0 0 36 14" fill="none" xmlns="http://www.w3.org/2000/svg">
  <path d="M7.58056 2.35205C8.08098 1.7496 8.32895 0.97694 8.27261 0.195801C7.50569 0.269827 6.79768 0.639601 6.29878 1.22674C6.05036 1.50798 5.85991 1.83554 5.73846 2.1906C5.617 2.54566 5.5669 2.92123 5.59105 3.2957C5.97308 3.3032 6.35164 3.22186 6.69688 3.0581C7.04218 2.89435 7.34469 2.65264 7.58056 2.35205ZM8.2254 3.43804C7.1245 3.37434 6.19658 4.06714 5.66968 4.06714C5.14281 4.06714 4.34071 3.47264 3.47569 3.48837C2.9093 3.50433 2.35701 3.66866 1.87402 3.96494C1.39104 4.26122 0.994264 4.67906 0.723364 5.17673C-0.456209 7.22133 0.408809 10.2669 1.55692 11.9317C2.11525 12.7228 2.78367 13.6657 3.67228 13.635C4.56089 13.6043 4.83612 13.0845 5.85056 13.0845C6.865 13.0845 7.16381 13.635 8.04452 13.6154C8.92529 13.5957 9.53866 12.8227 10.0891 11.964C10.4862 11.3774 10.7961 10.7364 11.0092 10.0609C10.4804 9.82684 10.0306 9.44487 9.71388 8.96097C9.39715 8.47713 9.22708 7.91204 9.22411 7.33378C9.2306 6.82065 9.36579 6.31738 9.61723 5.87005C9.86861 5.42273 10.2282 5.04563 10.6632 4.77331C10.3868 4.37819 10.0232 4.05206 9.60043 3.82022C9.17763 3.58838 8.70712 3.45706 8.2254 3.43647M15.2478 1.85113V4.09624H17.0407V5.57857H15.2478V10.8906C15.2478 11.6832 15.6017 12.0874 16.388 12.0874C16.6037 12.0835 16.8189 12.0678 17.0329 12.0402V13.5344C16.6819 13.5912 16.3267 13.6175 15.9713 13.613C14.1154 13.613 13.3998 12.8919 13.3998 11.084V5.61396H11.9922V4.1277H13.3605V1.8527L15.2478 1.85113ZM23.3082 13.5312H21.3422L18.0394 4.1277H19.9975L22.3173 11.6832H22.3645L24.6843 4.1277H26.6031L23.3082 13.5312ZM31.9426 13.5312H30.244V9.67794H26.5953V7.98097H30.2361V4.1277H31.9347V7.98097H35.5835V9.67794H31.9426V13.5312Z" fill="black"/>
</svg>
