<svg width="92" height="51" viewBox="0 0 92 51" fill="none" xmlns="http://www.w3.org/2000/svg">
  <path d="M14.3677 19.6253C11.5888 18.8399 7.14528 17.795 2.28159 19.0904C1.37811 19.3309 0.764554 19.7289 0.334578 20.4843C0.12015 20.8616 -0.0772381 21.2698 0.0302246 21.6861C0.12326 22.0396 0.629354 22.1639 1.03557 22.2286C1.42662 22.2901 2.31244 22.3366 2.55137 22.0522C2.67575 21.9033 2.67898 21.4851 2.03023 21.349C1.79055 21.2987 1.13868 21.2761 1.08893 21.1662C1.08893 21.1662 1.11157 21.0902 1.46928 20.9797C1.62724 20.9308 2.78645 20.4542 5.95386 20.5565C9.72041 20.6777 13.0103 21.5587 16.4896 22.9268C19.8939 24.2655 23.7195 26.6866 25.9635 29.5694C26.8122 30.66 27.8658 32.4521 28.0049 33.9609C28.3412 37.6253 24.7576 40.7176 17.4816 40.4696C16.2381 40.427 14.7268 40.1324 14.7268 40.1324L14.5758 33.0579C14.5758 33.0579 17.6545 33.0347 21.0584 34.1537C21.3482 34.2491 21.6392 34.438 21.6657 34.7187C21.6845 34.9348 21.5141 35.12 21.3224 35.287C20.9697 35.5946 20.4843 35.7284 20.3775 35.859C20.3001 35.9532 20.2995 36.097 20.4001 36.1761C20.656 36.3738 21.284 36.5083 21.7077 36.4712C22.5659 36.3952 23.1368 35.8998 23.5681 35.2506C24.0276 34.5587 24.2892 32.7992 21.8442 31.6772C18.6837 30.2261 14.5531 30.4992 14.5531 30.4992C14.5531 30.4992 14.5319 29.5399 14.4891 28.9013C14.418 27.8539 14.1275 25.7951 13.1719 25.2017C12.9972 25.0944 12.7827 25.0818 12.6621 25.2444C12.4766 25.4861 12.2943 26.4073 12.2541 26.6465C11.8944 28.7883 11.9133 30.709 11.8944 30.736C11.8834 30.7489 11.871 30.7604 11.8573 30.7705C11.8197 30.7944 9.53558 31.0669 7.33073 32.0206C6.4505 32.4012 5.19192 33.0881 4.8102 33.9722C4.31791 35.113 5.18371 36.3619 6.6454 37.7446C7.88334 38.9156 9.70847 40.1482 11.0608 40.7862C11.4054 40.9487 11.8102 41.1491 11.8102 41.1491C11.8102 41.1491 11.8975 41.9665 11.9679 42.4388C12.222 44.141 13.5215 43.893 13.8799 43.8201C14.4621 43.7015 14.5739 43.3146 14.6544 42.8664C14.6984 42.6215 14.6802 42.2674 14.6802 42.2674C14.6802 42.2674 15.5603 42.4701 16.1514 42.5775C17.8702 42.8946 19.7375 42.9492 21.3557 42.7288C27.8281 41.8454 29.459 38.8001 29.9745 37.9869C30.8704 36.573 32.7709 32.6335 27.046 26.7859C25.7383 25.4497 21.958 21.7702 14.3664 19.6247L14.3677 19.6253ZM5.82053 35.5626C5.58545 35.3202 5.40436 35.0578 5.45971 34.7408C5.51244 34.4349 6.11232 34.1649 6.4153 34.0758C9.33496 33.2161 11.8096 33.1722 11.8096 33.1722C11.8096 33.1722 11.7863 34.2184 11.7812 35.2763C11.7718 37.2806 11.8246 39.3149 11.8246 39.3149C11.8246 39.3149 8.53148 38.3568 5.82053 35.562V35.5626ZM35.475 28.1993C36.8437 27.6636 37.9005 26.8951 38.9706 25.8013C39.5956 25.1665 40.1437 24.1223 39.9426 23.1711C39.8419 22.6983 39.6257 22.3723 39.2303 22.032C39.0335 21.8631 38.5826 21.6246 38.2162 21.5517C38.1099 21.5304 37.9967 21.5222 37.9508 21.4927C37.8987 21.4594 37.8571 21.391 37.8063 21.3276C37.5667 21.0237 37.0908 20.7329 36.7488 20.6155C35.6988 20.2526 34.298 20.5263 33.3418 20.9288C32.3309 21.3564 31.3985 21.9832 30.6899 22.7416C28.8309 24.732 29.6477 26.3087 29.813 26.6026C29.9538 26.8512 30.2147 27.1194 30.2719 27.3793C30.3065 27.5337 30.2756 27.7359 30.282 27.9186C30.2952 28.3374 30.4775 28.7694 30.7924 29.0476C31.0182 29.246 31.3426 29.305 31.6689 28.8109C31.7783 28.6451 31.9606 28.3079 31.9606 28.3079C31.9606 28.3079 32.3397 28.5271 33.2557 28.5911C33.9385 28.6388 34.874 28.4335 35.475 28.1993ZM31.0892 25.7939C31.0892 25.7939 31.0258 25.6613 30.9849 25.5615C30.7031 24.862 31.325 24.0733 31.8927 23.5899C32.9979 22.6493 33.9385 22.6718 33.9385 22.6718C33.9385 22.6718 33.7135 22.8521 33.5266 23.0154C31.9135 24.4249 31.0892 25.7939 31.0892 25.7939ZM33.5085 25.7681C34.1844 24.8978 35.4354 23.8179 36.308 23.298C36.9914 22.8904 37.5817 22.7787 38.0225 22.9721C38.284 23.0869 38.4934 23.3237 38.5293 23.6407C38.6462 24.6221 37.512 25.4422 36.7538 25.8843C35.0305 26.8883 32.9923 26.6609 32.9401 26.5698C32.9326 26.546 33.3525 25.9733 33.5091 25.7681H33.5085ZM74.538 31.1014C72.3445 29.5813 68.8055 34.4017 67.2488 36.792C67.0168 35.5752 67.8411 34.0312 67.8411 34.0312C67.8411 34.0312 69.1626 31.7456 69.3499 31.2817C69.5304 30.8145 69.6354 29.8544 69.4084 29.759C69.2022 29.6641 68.8463 29.9718 68.8463 29.9718C65.8783 32.6323 65.4634 35.584 65.4634 35.584C65.1829 37.1732 65.5105 38.2896 65.9921 39.0707C64.3423 42.5813 63.5351 45.6435 63.7501 47.4537C63.9501 48.8319 64.939 49.8285 65.5387 50.0388C66.1448 50.2913 66.2523 49.5635 66.2523 49.5635C66.7433 45.8187 67.6009 43.3153 68.6226 40.8408C71.7163 41.5508 74.0445 38.5426 74.8686 37.1054C75.3534 36.2426 75.6142 35.0905 75.6142 34.0067C75.6142 32.7722 75.2742 31.6269 74.538 31.1008V31.1014ZM72.5217 37.0709C72.1665 37.4074 70.9909 38.068 69.7718 38.2048C70.9336 35.9557 72.3764 34.3006 73.1762 33.4177C74.1067 32.371 74.2287 33.3217 74.2287 33.3217C74.4456 35.169 73.0994 36.5592 72.5211 37.0715L72.5217 37.0709ZM64.3738 38.8516C64.5216 38.289 64.0091 37.6723 63.5458 37.5574C63.1132 37.4682 59.7931 38.0899 59.3963 38.1966C58.9695 38.3109 59.16 37.9103 59.16 37.9103L59.6729 36.1767C59.6729 36.1767 62.8416 36.0549 63.303 35.9777C63.7294 35.9011 63.7552 35.6003 63.7552 35.6003C63.7552 35.6003 63.8099 35.1043 63.7941 34.6409C63.7476 34.1449 63.3503 34.1906 63.3503 34.1906C62.1249 34.0626 60.4406 34.207 60.4406 34.207L60.8656 32.8764C60.8656 32.8764 64.2361 32.7126 65.518 32.4175C66.1763 32.2624 65.789 31.6169 65.789 31.6169C64.9899 30.0208 64.0688 30.1106 64.0688 30.1106C61.4176 30.0221 57.565 30.7241 57.1449 30.9319C56.752 31.1102 56.7948 31.4059 57.3073 32.0508C57.8573 32.7302 58.7828 32.6667 58.7828 32.6667L57.9704 34.3451C57.3073 34.3916 57.0797 34.5982 57.0797 34.5982C56.6973 35.0057 57.2248 36.21 57.2248 36.21C57.2248 36.21 56.0737 38.7888 56.9086 40.1507C57.8051 41.5804 58.8657 41.5119 58.8657 41.5119C60.8839 41.6589 64.1977 39.5485 64.3744 38.8516H64.3738ZM52.7887 28.6068C52.7887 28.6068 52.3191 28.3876 52.2003 28.8554C52.0809 29.3182 52.2581 29.8118 52.2581 29.8118C53.4269 33.7718 53.6922 36.1114 53.6922 36.1114C53.6922 36.1114 53.7463 36.7996 53.6124 36.8379C53.5187 36.9088 53.4143 36.8109 53.4143 36.8109C53.2804 36.8159 51.999 34.6691 51.999 34.6691L51.7502 34.2485C50.34 31.9761 49.4856 31.2018 49.4856 31.2018C49.2856 31.0148 48.7727 30.5006 48.1332 31.2094C47.4932 31.9227 46.9928 34.2139 46.791 36.3676C46.6193 38.5169 46.75 39.74 47.0638 40.2562C47.4096 40.7786 48.076 40.9569 48.6255 40.5092C49.2064 40.0634 49.0971 37.2278 49.1888 35.7742C49.2768 34.3138 49.4208 34.575 49.4208 34.575C49.549 34.5404 50.2142 35.8766 50.2142 35.8766C50.2142 35.8766 51.9671 39.4607 53.0678 39.9911C54.1833 40.5205 55.0804 39.6685 55.4198 38.8704C55.765 38.0666 56.3515 35.4082 55.4783 32.462C54.5994 29.5166 52.7881 28.6068 52.7881 28.6068H52.7887ZM34.576 36.1911C34.5307 35.211 34.4137 32.7082 34.1397 31.5773C34.0208 31.0907 33.824 30.6468 33.3443 30.4641C33.2921 30.4441 33.2382 30.4286 33.1834 30.4176C32.8835 30.3593 32.7112 30.7725 32.6301 30.9777C32.3932 31.5855 32.2222 33.0373 32.1756 33.49C32.0347 34.8613 31.9203 38.1113 32.1586 39.767C32.2586 40.4609 32.4875 40.9117 33.1897 41.0567C33.4745 41.1158 33.9932 41.1044 34.2214 40.9588C34.4207 40.835 34.5596 40.594 34.6061 40.3868C34.735 39.8098 34.6847 38.9916 34.659 38.3762C34.6281 37.6497 34.61 36.9258 34.5766 36.1911H34.576ZM45.9107 30.7153C44.3956 29.9109 41.9015 29.909 40.3587 30.1006C38.765 30.2977 36.6319 30.7944 35.7208 32.1023C35.3732 32.6014 35.1694 33.3687 35.3291 33.9935C35.4197 34.3408 35.6699 34.6044 36.0332 34.7935C36.679 35.1294 38.8329 35.201 39.7929 35.3039C40.6977 35.4006 42.3637 35.5614 43.2823 35.9444C43.2823 35.9444 44.1517 36.2471 44.1461 36.7431C44.1442 36.988 43.9606 37.1833 43.7744 37.3158C42.4115 38.2802 40.538 38.5539 38.8719 38.527C38.3072 38.5194 37.8421 38.4302 37.2687 38.1848C37.0248 38.0779 36.7079 37.8833 36.7507 37.5506C36.8192 37.0175 37.429 36.8863 37.9137 36.932C38.1841 36.9566 38.5373 37.0721 38.8028 37.1757C39.8716 37.597 40.3587 37.9518 41.2993 37.8087C41.65 37.7553 42.866 37.4921 43.0295 36.9918C43.0703 36.8699 43.0119 36.738 42.9219 36.647C42.7937 36.5158 42.0625 36.2319 41.8638 36.1598C41.1478 35.9054 39.7905 35.6725 39.036 35.6436C38.0464 35.6084 36.6852 35.8107 36.1207 36.6313C35.6121 37.371 35.4977 38.8597 38.0225 40.1124C39.1963 40.6945 40.6178 40.9531 41.9293 40.8093C42.6786 40.7233 44.837 40.388 45.653 38.6732C46.0918 37.7508 46.049 36.5189 45.5763 35.6436C45.2657 35.0666 44.886 34.2987 42.0694 33.9445C41.6193 33.888 38.306 33.5051 38.0018 33.4573C37.8332 33.4309 37.0575 33.3393 37.3296 33.0435C37.4064 32.9582 37.6414 32.8954 37.7779 32.8564C39.5176 32.3817 41.7255 32.4357 43.5519 32.3334C43.96 32.3083 44.8878 32.2523 45.3367 32.1098C45.7643 31.9767 46.117 31.6747 46.2157 31.2057C46.2647 30.9564 46.1453 30.839 45.9114 30.7146L45.9107 30.7153ZM91.1042 32.8564H85.8986C85.8427 31.0737 85.6607 29.2971 85.354 27.54C85.3287 27.395 85.2531 27.2635 85.1404 27.1688C85.0277 27.074 84.8852 27.022 84.738 27.022H83.3346C83.2702 27.0221 83.2066 27.0363 83.1483 27.0638C83.09 27.0913 83.0385 27.1312 82.9974 27.1809C82.9562 27.2305 82.9266 27.2886 82.9105 27.351C82.8943 27.4134 82.8921 27.4785 82.904 27.5419C83.233 29.296 83.428 31.0727 83.4875 32.8564H78.1988C78.1412 32.8565 78.0841 32.8679 78.0309 32.89C77.9777 32.9122 77.9293 32.9446 77.8886 32.9854C77.8479 33.0262 77.8157 33.0747 77.7937 33.1279C77.7718 33.1812 77.7605 33.2383 77.7606 33.296V34.8901C77.7605 34.9478 77.7718 35.0049 77.7937 35.0582C77.8157 35.1115 77.8479 35.1599 77.8886 35.2007C77.9293 35.2415 77.9777 35.2739 78.0309 35.2961C78.0841 35.3182 78.1412 35.3296 78.1988 35.3297H83.4875C83.4278 37.1134 83.2327 38.89 82.904 40.6442C82.8921 40.7076 82.8943 40.7727 82.9105 40.8351C82.9266 40.8975 82.9562 40.9556 82.9974 41.0052C83.0385 41.0549 83.09 41.0948 83.1483 41.1223C83.2066 41.1498 83.2702 41.164 83.3346 41.1641H84.738C84.8852 41.1641 85.0277 41.1121 85.1404 41.0174C85.2531 40.9226 85.3287 40.7911 85.354 40.6461C85.6607 38.889 85.8427 37.1125 85.8986 35.3297H91.1042C91.1618 35.3296 91.2189 35.3182 91.2721 35.2961C91.3253 35.2739 91.3737 35.2415 91.4144 35.2007C91.4551 35.1599 91.4873 35.1115 91.5093 35.0582C91.5312 35.0049 91.5425 34.9478 91.5424 34.8901V33.296C91.5425 33.2383 91.5312 33.1812 91.5093 33.1279C91.4873 33.0747 91.4551 33.0262 91.4144 32.9854C91.3737 32.9446 91.3253 32.9122 91.2721 32.89C91.2189 32.8679 91.1618 32.8565 91.1042 32.8564ZM19.4224 13.563C19.6286 13.7062 19.9179 13.6001 20.1248 13.3784C21.9102 11.4564 23.8636 9.78489 26.0886 8.26735C40.6864 -1.6905 62.1161 -0.243232 74.6549 12.3763C78.7734 16.5003 81.0406 20.9269 82.23 24.4062C82.2719 24.5302 82.3515 24.638 82.4577 24.7144C82.564 24.7909 82.6915 24.8322 82.8223 24.8325H84.262C84.5613 24.8325 84.7738 24.538 84.6776 24.2536C83.1171 19.6385 80.0956 14.5727 75.7054 10.453C62.5442 -1.92843 41.2238 -3.3048 26.3677 6.81871C23.9371 8.45814 21.5223 10.5579 19.4004 12.9576C19.1911 13.1945 19.2621 13.4518 19.4218 13.563H19.4224Z" fill="white"/>
</svg>
