<svg width="50" height="14" viewBox="0 0 50 14" fill="none" xmlns="http://www.w3.org/2000/svg">
  <path d="M7.06922 12.7695C6.32112 12.9009 5.55985 12.9403 4.77237 13.0452L2.37043 6.01022V13.3471C1.62234 13.4258 0.939851 13.5308 0.231094 13.6358V0.195801H2.22615L4.95609 7.82154V0.195801H7.06922V12.7695ZM11.2036 5.11768C12.0174 5.11768 13.2643 5.07829 14.0124 5.07829V7.17827C13.0804 7.17827 11.9911 7.17827 11.2036 7.21764V10.3414C12.4374 10.2627 13.6711 10.1576 14.918 10.1182V12.1394L9.10354 12.5988V0.195801H14.918V2.2958H11.2036V5.11768ZM22.7273 2.29585H20.5486V11.9559C19.8399 11.9559 19.1311 11.9559 18.4487 11.982V2.29585H16.27V0.195801H22.7274L22.7273 2.29585ZM26.1398 4.97334H29.0142V7.07332H26.1398V11.8377H24.0791V0.195801H29.9461V2.2958H26.1398V4.97334ZM33.3585 10.0002C34.553 10.0264 35.7604 10.1184 36.9286 10.1839V12.2577C35.0518 12.1395 33.1749 12.0215 31.2586 11.982V0.195801H33.3585V10.0002ZM38.7004 12.4021C39.3698 12.4415 40.0785 12.4809 40.7611 12.5595V0.195801H38.7004V12.4021ZM49.9618 0.195801L47.2973 6.58769L49.9618 13.6358C49.1742 13.5308 48.3867 13.3864 47.5992 13.2552L46.0899 9.37022L44.5543 12.9403C43.793 12.8089 43.058 12.7695 42.2969 12.6645L45.0006 6.5089L42.5593 0.195801H44.8166L46.1948 3.72643L47.6649 0.195801H49.9618Z" fill="white"/>
</svg>
