<svg width="130" height="23" viewBox="0 0 130 23" fill="none" xmlns="http://www.w3.org/2000/svg">
  <path d="M19.2966 11.6715C19.2342 10.8762 18.938 10.2291 18.1622 9.88216C17.8386 9.73793 17.4995 9.65996 17.1486 9.62487C16.1273 9.52742 15.1059 9.43386 14.0846 9.3364C12.8839 9.22335 11.6793 9.1142 10.4786 9.00115C9.54695 8.91538 8.61526 8.83352 7.68746 8.73606C7.27814 8.69318 7.05593 8.42809 7.05593 8.01487V6.51403C7.05593 6.08521 7.23136 5.90979 7.66407 5.92538C9.23509 5.97216 10.8061 6.02674 12.3771 6.07742C12.6695 6.08911 12.8605 6.28013 12.8644 6.5725C12.8683 6.94284 12.8722 7.31318 12.8644 7.68352C12.8605 7.81606 12.9034 7.83945 13.0281 7.84335C15.067 7.87843 17.1058 7.91742 19.1446 7.9603C19.2966 7.9642 19.3239 7.92132 19.3239 7.77708C19.3161 6.68555 19.3239 5.59403 19.32 4.5025C19.32 4.22962 19.3044 3.95674 19.2381 3.69165C18.8639 2.15572 17.6359 1.16165 16.0532 1.09148C15.1449 1.0486 14.2366 0.982332 13.3322 0.923857C11.769 0.8264 10.2097 0.725044 8.64644 0.623688C7.51983 0.54962 6.39322 0.475552 5.26271 0.405383C4.64678 0.3664 4.03475 0.300128 3.42271 0.448264C1.6178 0.884874 0.331357 2.46759 0.319662 4.32318C0.304069 6.54911 0.315764 8.77894 0.315764 11.0049C0.315764 11.344 0.37034 11.6754 0.471696 11.9989C0.756273 12.8917 1.53204 13.5778 2.36237 13.6401C3.83983 13.7493 5.31729 13.8506 6.79475 13.952C8.42814 14.0611 10.0615 14.1664 11.691 14.2795C11.9678 14.2989 12.2485 14.2911 12.5175 14.3847C12.8293 14.49 12.9502 14.6498 12.9541 14.9695C12.958 15.4879 12.958 16.0103 12.9541 16.5288C12.9502 16.8718 12.7708 17.0589 12.4278 17.0706C10.8061 17.1213 9.18051 17.1759 7.55882 17.2227C7.18848 17.2344 6.98576 17.0395 6.98576 16.6691C6.98187 16.3261 6.97407 15.9791 6.98966 15.6361C6.99746 15.484 6.94678 15.4567 6.80644 15.4606C5.7539 15.4684 4.70136 15.4645 3.64882 15.4645C2.58848 15.4645 1.53204 15.4684 0.471696 15.4606C0.346951 15.4606 0.311866 15.4918 0.311866 15.6205C0.319662 16.6535 0.307968 17.6866 0.319662 18.7196C0.339154 20.4232 1.52814 21.9708 3.16153 22.4542C3.79305 22.6413 4.42848 22.6179 5.0717 22.575C6.78695 22.4581 8.5061 22.3567 10.2253 22.2476C12.1939 22.1228 14.1664 21.9942 16.1351 21.8656C16.9537 21.811 17.6749 21.5303 18.2753 20.965C18.9964 20.2789 19.3239 19.4252 19.3239 18.435C19.32 16.7861 19.3239 15.1371 19.3239 13.4881C19.32 12.88 19.3434 12.2757 19.2966 11.6715ZM96.2921 7.69521C97.3719 7.68352 98.4478 7.68742 99.5276 7.68742V7.60555C100.627 7.60555 101.722 7.60165 102.822 7.60945C102.978 7.60945 102.997 7.55877 102.997 7.42233C102.989 6.75182 103.001 6.08521 102.993 5.4147C102.989 4.88843 103.021 4.36216 102.962 3.83979C102.744 1.91403 101.048 0.378095 99.1144 0.354705C98.6856 0.350806 98.2607 0.401484 97.8319 0.428773C96.3739 0.522332 94.9159 0.619789 93.458 0.717247C91.7544 0.830298 90.0509 0.943349 88.3473 1.0603C87.8288 1.09538 87.3065 1.09538 86.7958 1.18504C85.2326 1.46182 83.9695 2.80674 83.989 4.58437C84.0124 6.65437 83.9929 8.72826 83.9929 10.7983C83.9929 11.1764 84.0202 11.5506 84.1293 11.9132C84.3866 12.7825 85.0181 13.3205 85.9148 13.414C86.6554 13.492 87.4 13.5622 88.1446 13.6323C90.3861 13.8467 92.6315 14.0572 94.8731 14.2717C95.1615 14.2989 95.4578 14.3028 95.7346 14.4159C96.0465 14.5445 96.1712 14.72 96.1751 15.0552V16.5756C96.1751 16.9849 95.988 17.1681 95.5748 17.1525C94.6275 17.1252 93.6802 17.0901 92.7329 17.0589L90.7448 16.9888C90.2965 16.9732 90.1327 16.8133 90.1327 16.3728C90.1327 16.0727 90.121 15.7764 90.1366 15.4762C90.1444 15.3008 90.0976 15.2501 89.9183 15.2462C88.0082 15.2111 86.098 15.1683 84.1917 15.1254C84.0436 15.1215 83.9929 15.1527 83.9968 15.3125C84.0046 16.3339 84.0007 17.3513 84.0007 18.3727C84.0007 18.5481 84.0046 18.7235 84.0319 18.8989C84.2619 20.3569 85.3534 21.4679 86.8153 21.7174C87.5014 21.8344 88.1992 21.8344 88.8931 21.8811C90.5381 21.9942 92.1832 22.1072 93.8283 22.2164C95.337 22.3178 96.8456 22.4191 98.3582 22.5205C98.9117 22.5595 99.4614 22.575 100.003 22.4347C101.769 21.9747 102.997 20.4115 103.001 18.5871C103.009 16.5015 103.001 14.4159 103.005 12.3342C103.005 12.0925 103.001 11.8547 102.966 11.6169C102.822 10.6657 102.37 9.94064 101.438 9.57809C101.036 9.42216 100.615 9.41437 100.194 9.38708C98.6973 9.28962 97.2004 9.18826 95.7034 9.09081C94.4209 9.00504 93.1383 8.93098 91.8558 8.84132C91.501 8.81793 91.1385 8.82572 90.7915 8.73606C90.429 8.6425 90.2887 8.45928 90.2887 8.08115V6.65826C90.2887 6.24504 90.4407 6.07742 90.8617 6.06572C92.421 6.01504 93.9765 5.96826 95.5358 5.92538C95.8788 5.91369 96.0698 6.10081 96.0737 6.44386C96.0776 6.78301 96.0854 7.11826 96.0698 7.45742C96.0464 7.64064 96.0815 7.69911 96.2921 7.69521ZM53.4809 14.8252C55.1727 14.2132 56.1005 12.9774 56.4163 11.2388C56.5332 10.5878 56.4981 9.93284 56.4942 9.27793C56.4903 8.42809 56.5527 7.57437 56.4475 6.72843C56.2798 5.35233 55.6561 4.24521 54.471 3.48894C53.4497 2.83792 52.3036 2.60013 51.1224 2.54555C49.7346 2.48318 48.3429 2.45979 46.9551 2.42081L39.4353 2.2103C39.0844 2.1986 38.987 2.28826 38.987 2.63131V20.3413C38.987 20.6805 39.0922 20.7779 39.4353 20.7662C41.2402 20.7 43.0451 20.6376 44.85 20.6181C45.0098 20.6181 45.0371 20.5674 45.0371 20.4193C45.0332 18.9379 45.0371 17.4566 45.0293 15.9752C45.0293 15.8271 45.0605 15.7803 45.2164 15.7803C45.8714 15.7725 46.5302 15.7569 47.1851 15.7296C47.3254 15.7218 47.4034 15.7608 47.4814 15.8817C48.4364 17.3474 49.3019 18.8678 50.218 20.3608C50.2998 20.4933 50.3856 20.5401 50.5415 20.5401C52.6973 20.5206 54.8531 20.4427 57.0127 20.4778C57.0439 20.4778 57.0712 20.4739 57.1258 20.47C55.8939 18.5871 54.6776 16.7198 53.4653 14.8603C53.4731 14.8369 53.477 14.8291 53.4809 14.8252ZM50.3739 9.50013C50.37 9.78081 50.218 9.97572 49.9724 10.0927C49.7892 10.1784 49.5903 10.2174 49.3876 10.2174H47.3254V10.2213C46.6198 10.2213 45.9103 10.2174 45.2048 10.2252C45.0683 10.2252 45.0332 10.1862 45.0332 10.0537C45.041 9.3403 45.041 8.62691 45.0332 7.91352C45.0332 7.76928 45.08 7.74589 45.2086 7.74589C46.577 7.75369 47.9453 7.75759 49.3175 7.76538C49.5007 7.76538 49.68 7.78098 49.8554 7.83165C50.1868 7.92521 50.3544 8.11623 50.37 8.45538C50.3817 8.79843 50.3778 9.14928 50.3739 9.50013ZM36.9988 2.14013C36.0047 2.11674 35.0107 2.08555 34.0205 2.05437C31.3346 1.9686 28.6448 1.88674 25.9588 1.79318C24.5554 1.7464 23.1559 1.68013 21.7525 1.61386C21.3237 1.59437 21.238 1.66454 21.238 2.10115V20.8442C21.238 21.2184 21.3198 21.3003 21.698 21.2847C22.3841 21.2574 23.0741 21.2262 23.7602 21.1911C26.6215 21.0586 29.4829 20.9767 32.3481 20.8871C33.9114 20.8403 35.4785 20.7896 37.0417 20.7428C37.1431 20.7389 37.2015 20.735 37.2015 20.5986C37.1976 18.9964 37.1976 17.3903 37.2015 15.7881C37.2015 15.6633 37.1664 15.64 37.0456 15.64C33.9347 15.6945 30.8239 15.7491 27.7131 15.8388C27.5922 15.8427 27.5571 15.8154 27.561 15.6945C27.5688 15.1605 27.5727 14.6303 27.561 14.0962C27.5571 13.9247 27.6117 13.9013 27.7676 13.8974C30.4302 13.8779 33.0927 13.8467 35.7553 13.8272C35.919 13.8272 35.958 13.7844 35.958 13.6245C35.9502 12.1978 35.9502 10.7671 35.958 9.3403C35.958 9.16098 35.9112 9.11809 35.7358 9.11809C33.0849 9.0986 30.4341 9.07132 27.7871 9.04793C27.6195 9.04793 27.5571 9.01674 27.561 8.82962C27.5766 8.31894 27.5649 7.80437 27.5649 7.28979C27.5649 7.04809 27.5649 7.0442 27.8144 7.05199C30.8785 7.14165 33.9425 7.19623 37.0105 7.24691C37.1586 7.25081 37.2054 7.21962 37.2054 7.06369C37.1976 5.48487 37.1976 3.90606 37.2054 2.33115C37.2054 2.16742 37.147 2.14403 36.9988 2.14013ZM73.3271 7.10657C76.2742 7.0403 79.2253 6.97013 82.1724 6.86877C82.2893 6.86487 82.34 6.84928 82.3361 6.71284C82.3322 5.13403 82.3322 3.55521 82.3322 1.9764C82.3322 1.70352 82.2075 1.59826 81.9268 1.60996C80.0127 1.69572 78.0987 1.79318 76.1846 1.86335C73.0426 1.9803 69.9005 2.07776 66.7585 2.17521C66.5909 2.17911 66.5636 2.22979 66.5636 2.38182C66.5675 8.43589 66.5675 14.4861 66.5636 20.5401C66.5636 20.6961 66.5948 20.7467 66.7585 20.7506C69.2924 20.8208 71.8224 20.8988 74.7851 20.9884C75.2451 21.004 76.1339 21.0313 77.0227 21.0664C78.6639 21.1366 80.3051 21.2145 81.9463 21.2847C82.2192 21.2964 82.3283 21.1911 82.3283 20.9222C82.3283 19.3511 82.3283 17.7801 82.3322 16.2052C82.3322 16.0649 82.2815 16.0376 82.1568 16.0337C81.6422 16.022 81.1315 15.9986 80.617 15.983C78.0597 15.9167 75.4985 15.8505 72.9412 15.7881C72.8165 15.7842 72.7775 15.7608 72.7775 15.6283C72.7853 15.141 72.7892 14.6537 72.7775 14.1664C72.7736 13.991 72.8126 13.9403 72.9958 13.9442C75.6388 13.9793 78.2819 14.0066 80.9249 14.0417C81.0848 14.0456 81.1276 14.0144 81.1276 13.8467C81.1198 12.2757 81.1198 10.7047 81.1276 9.13369C81.1276 8.94657 81.0692 8.91928 80.9015 8.92318C78.2702 8.95826 75.6388 8.98165 73.0114 9.01674C72.8048 9.02064 72.7658 8.95826 72.7736 8.77115C72.7892 8.40081 72.7736 8.03047 72.7775 7.66013C72.7814 7.4847 72.7034 7.2586 72.8087 7.15335C72.9256 7.04809 73.1517 7.11047 73.3271 7.10657ZM65.2888 2.6742C65.2771 2.4403 65.168 2.33115 64.9302 2.33894C62.9693 2.40131 61.0085 2.36233 59.0437 2.38962C58.8683 2.39352 58.8215 2.4364 58.8215 2.61572C58.8293 5.57064 58.8254 8.52555 58.8254 11.4805C58.8254 14.4354 58.8254 17.3903 58.8215 20.3452C58.8215 20.5089 58.8605 20.544 59.0203 20.5479C60.3964 20.5752 61.7726 20.6103 63.1487 20.6493C63.7412 20.6649 64.3298 20.6844 64.9224 20.7C65.168 20.7039 65.2771 20.5947 65.2849 20.3491V2.83403C65.2888 2.77945 65.2888 2.72877 65.2888 2.6742ZM129.166 8.45148C128.742 6.5647 127.549 5.32504 125.627 5.04826C120.411 4.29589 115.179 4.29979 109.963 5.04047C108.006 5.31725 106.763 6.60369 106.389 8.56454C106.03 10.4357 106.03 12.3342 106.361 14.2093C106.74 16.365 107.913 17.5189 110.084 17.9205C112.626 18.3883 115.199 18.4039 117.772 18.4195C120.391 18.4078 123.015 18.3727 125.603 17.9049C127.529 17.5579 128.726 16.3923 129.159 14.5172C129.626 12.5057 129.623 10.463 129.166 8.45148ZM113.932 14.8993C111.92 14.9149 110.342 13.4218 110.322 11.4805C110.303 9.55081 111.866 8.04996 113.901 8.04216C115.947 8.03437 117.499 9.50403 117.499 11.4493C117.499 13.3984 115.967 14.8837 113.932 14.8993ZM123.927 14.9383C122.871 14.9227 122.711 14.4471 122.773 13.5895C122.816 13.0086 122.777 12.4239 122.781 11.8391C122.785 11.1764 122.769 10.4825 121.857 10.5137C120.937 10.541 121.011 11.2778 121.003 11.9093C120.996 12.494 120.953 13.0788 121.011 13.6557C121.109 14.603 120.754 14.9227 119.783 14.9305C118.789 14.9383 118.489 14.5601 118.555 13.6401C118.606 12.915 118.551 12.1822 118.571 11.4532C118.625 9.37538 119.966 8.01098 121.923 8.03826C123.884 8.06165 125.163 9.42216 125.19 11.5195C125.194 11.8118 125.19 12.1042 125.19 12.3927C125.19 12.7825 125.155 13.1723 125.198 13.5583C125.303 14.5289 125.007 14.9539 123.927 14.9383Z" fill="white"/>
  <path d="M113.889 10.1978C113.086 10.2134 112.622 10.689 112.626 11.4609C112.63 12.3029 113.152 12.8253 113.998 12.7785C114.766 12.7356 115.172 12.2094 115.203 11.3868C115.097 10.6501 114.7 10.1784 113.889 10.1978Z" fill="white"/>
</svg>
