<svg width="56" height="14" viewBox="0 0 56 14" fill="none" xmlns="http://www.w3.org/2000/svg">
  <path d="M25.8182 0.412351H30.4478V13.3932H25.8182V0.412351ZM0.492798 4.2854H3.82078V13.3932H8.29882V4.2854H11.6275V0.412351H0.492798V4.2854ZM20.4192 0.412351L17.6475 9.0244C17.5653 9.2806 17.1862 9.22152 17.1862 8.95179V0.412351H12.7839V13.3932H20.8652L25.2532 0.412351H20.4192ZM39.5755 0.412351V5.8353C39.5755 6.08515 39.2387 6.16411 39.1278 5.94067L36.3895 0.412351H32.0145V13.3932H36.269V7.9996C36.269 7.74984 36.6059 7.67079 36.7168 7.89507L39.4414 13.3931H43.8173V0.412351H39.5755ZM49.2338 8.21128V5.37628C49.2338 4.65808 49.5196 4.12972 50.2083 3.95015C50.9457 3.75788 51.6265 4.22707 51.858 4.99483L55.9297 2.81531C54.3248 -0.111156 51.3224 -0.0720492 50.1213 0.0340708C48.8914 0.143457 47.6313 0.514551 46.5164 1.46907C45.403 2.42032 44.8771 3.97339 44.8771 5.61102L44.8763 8.16807C44.8763 10.6046 45.8365 12.2296 47.4972 13.1792C50.3592 14.8169 54.3752 13.7004 56 12.4642V6.23346H51.7957V10.1225C51.1996 10.3539 49.2339 10.6197 49.2339 8.2111" fill="#FF143D"/>
</svg>
