<svg width="48" height="14" viewBox="0 0 48 14" fill="none" xmlns="http://www.w3.org/2000/svg">
  <path fill-rule="evenodd" clip-rule="evenodd" d="M19.1335 3.14527V5.0573H21.0385V13.6825H23.4119V5.05706H25.2076V3.14502H19.1335V3.14527ZM37.4414 7.21622H35.625V3.15963H33.2587V13.6966H35.625V9.12826H37.4414V13.6964H39.8077V3.15939H37.4414V7.21671V7.21622ZM29.1994 3.03205H28.7872C26.6499 3.03205 25.7951 4.12259 25.7951 5.89292V10.9207C25.7951 12.6908 26.6499 13.824 28.833 13.824H29.2452C31.4129 13.824 32.1762 12.5209 32.1762 11.0483V9.24951H29.8558V10.9205C29.8558 11.5438 29.642 11.9261 29.0314 11.9261C28.4358 11.9261 28.2377 11.5723 28.2377 10.9066V5.8788C28.2377 5.21288 28.4358 4.87323 29.0314 4.87323C29.6571 4.87323 29.8558 5.24137 29.8558 5.8788V7.09667H32.1762V5.75121C32.1762 3.99525 31.3517 3.03205 29.1994 3.03205ZM16.8232 10.0856L16.1351 5.68085H15.728L15.0399 10.0854L16.8232 10.0856ZM17.686 3.14527L19.5486 13.6825H17.3851L17.1219 11.9976H14.7412L14.4777 13.6825H12.3144L14.177 3.14527H17.686ZM44.9714 10.0854L44.2831 5.68085H43.8763L43.188 10.0854H44.9714ZM45.8343 3.14527L47.6969 13.6825H45.5334L45.2702 11.9976H42.8894L42.6263 13.6825H40.4627L42.3251 3.14527H45.8343ZM10.3632 0.18457L9.65759 10.2765L9.46792 10.2862L7.78987 3.14624H5.71616L4.46079 10.5443L4.19175 10.5582L3.06761 3.14624H0.177032L2.80684 14.1802L5.7466 13.9893L6.70298 7.14026L6.98347 7.12565L8.26416 13.8237L11.0778 13.6399L13.3122 0.18457H10.3632Z" fill="white"/>
</svg>
