<svg width="48" height="14" viewBox="0 0 48 14" fill="none" xmlns="http://www.w3.org/2000/svg">
  <path fill-rule="evenodd" clip-rule="evenodd" d="M19.3355 3.14527V5.0573H21.2405V13.6825H23.6139V5.05706H25.4096V3.14502H19.3355V3.14527ZM37.6434 7.21622H35.8271V3.15963H33.4607V13.6966H35.8271V9.12826H37.6434V13.6964H40.0098V3.15939H37.6434V7.21671V7.21622ZM29.4014 3.03205H28.9892C26.852 3.03205 25.9971 4.12259 25.9971 5.89292V10.9207C25.9971 12.6908 26.852 13.824 29.035 13.824H29.4472C31.6149 13.824 32.3782 12.5209 32.3782 11.0483V9.24951H30.0578V10.9205C30.0578 11.5438 29.8441 11.9261 29.2334 11.9261C28.6379 11.9261 28.4397 11.5723 28.4397 10.9066V5.8788C28.4397 5.21288 28.6379 4.87323 29.2334 4.87323C29.8592 4.87323 30.0578 5.24137 30.0578 5.8788V7.09667H32.3782V5.75121C32.3782 3.99525 31.5538 3.03205 29.4014 3.03205ZM17.0252 10.0856L16.3371 5.68085H15.93L15.2419 10.0854L17.0252 10.0856ZM17.8881 3.14527L19.7507 13.6825H17.5871L17.3239 11.9976H14.9432L14.6798 13.6825H12.5165L14.3791 3.14527H17.8881ZM45.1735 10.0854L44.4851 5.68085H44.0783L43.39 10.0854H45.1735ZM46.0363 3.14527L47.899 13.6825H45.7354L45.4722 11.9976H43.0915L42.8283 13.6825H40.6647L42.5271 3.14527H46.0363ZM10.5652 0.18457L9.85962 10.2765L9.66995 10.2862L7.99189 3.14624H5.91819L4.66282 10.5443L4.39377 10.5582L3.26963 3.14624H0.379059L3.00887 14.1802L5.94862 13.9893L6.90501 7.14026L7.18549 7.12565L8.46619 13.8237L11.2798 13.6399L13.5142 0.18457H10.5652Z" fill="#FF0558"/>
</svg>
