<svg width="61" height="14" viewBox="0 0 61 14" fill="none" xmlns="http://www.w3.org/2000/svg">
  <path fill-rule="evenodd" clip-rule="evenodd" d="M31.3622 3.01225C31.3587 5.28399 31.9307 7.51961 33.0247 9.51059C33.2053 7.20013 33.9489 4.96906 35.1906 3.01225H39.1619C37.1659 5.77517 36.0336 9.06773 35.9081 12.4739H31.0413C28.9913 9.739 27.8515 6.42952 27.7828 3.01225H31.3622ZM43.2143 3.01225C43.2109 5.28399 43.7828 7.51961 44.8768 9.51059C45.0575 7.20013 45.8011 4.96906 47.0427 3.01225H51.0141C49.0181 5.77518 47.8858 9.06774 47.7602 12.4739H42.8935C40.8434 9.73901 39.7037 6.42953 39.635 3.01225H43.2143ZM13.2549 12.4739C13.0275 9.1094 13.9633 5.76894 15.9056 3.01225H11.9541C11.0409 4.62805 10.5269 6.43859 10.4549 8.29317C9.66735 6.2239 9.43605 3.98431 9.78408 1.79775H6.59791C5.41292 3.75585 4.78373 5.99976 4.77792 8.2885C3.92294 5.81241 3.73602 3.15464 4.236 0.583252H0.358582C-0.303501 4.99617 0.749416 9.61617 3.51675 13.3688H7.42741C7.07002 11.6033 7.0911 9.78213 7.48925 8.02542C7.81334 9.614 8.4423 11.1247 9.34133 12.4739H13.2549ZM20.8528 9.83958C19.5928 9.83958 18.7237 8.901 18.7237 7.74309C18.7237 6.58517 19.5928 5.646 20.8528 5.646C22.1122 5.646 22.982 6.58517 22.982 7.74309C22.982 8.901 22.1122 9.83958 20.8528 9.83958ZM23.5857 3.01225C23.5414 3.25259 23.5006 3.4935 23.4632 3.735C22.5914 3.0378 21.5066 2.66098 20.3902 2.6675C17.5762 2.6675 15.3561 4.91859 15.3561 7.74309C15.3561 10.5676 17.5762 12.8187 20.3902 12.8187C21.5482 12.8187 22.6127 12.4325 23.4627 11.7512C23.5006 11.9927 23.5414 12.233 23.5857 12.4733H26.7859C26.2081 9.34611 26.2081 6.13948 26.7859 3.01225H23.5857Z" fill="white"/>
  <mask id="e" style="mask-type:luminance" maskUnits="userSpaceOnUse" x="50" y="2" width="11" height="11">
    <path d="M50.3491 2.66748H60.8333V12.8192H50.3491V2.66748Z" fill="white"/>
  </mask>
  <g mask="url(#e)">
    <path fill-rule="evenodd" clip-rule="evenodd" d="M53.6735 6.64873C53.9652 5.6804 54.7702 5.20206 55.6971 5.20206C56.624 5.20206 57.3882 5.70606 57.6827 6.64873H53.6735ZM55.6912 2.66748C52.3091 2.66748 50.3491 5.10523 50.3491 7.69581C50.3491 10.5046 52.4275 12.8192 56.0751 12.8192C57.6443 12.8192 59.2251 12.3776 60.2191 11.89V9.10573C59.2152 9.63365 57.842 10.1021 56.5242 10.1021C54.9545 10.1021 53.9663 9.46215 53.6834 8.51248H60.8059C61.0988 5.03581 58.9976 2.66748 55.6912 2.66748Z" fill="white"/>
  </g>
</svg>
