<svg width="83" height="26" viewBox="0 0 83 26" fill="none" xmlns="http://www.w3.org/2000/svg">
  <mask id="amazon" style="mask-type:luminance" maskUnits="userSpaceOnUse" x="0" y="0" width="83" height="26">
    <path d="M82.2166 0.80249H0.984375V25.8025H82.2166V0.80249Z" fill="white"/>
  </mask>
  <g mask="url(#amazon)">
    <path d="M41.2305 25.8027V25.7621C41.2711 25.7109 41.3423 25.6808 41.403 25.6909C41.6973 25.6808 41.9816 25.6808 42.2759 25.6909C42.3371 25.6909 42.4078 25.7109 42.4484 25.7621V25.8027H41.2305Z" fill="#D1EFFA"/>
    <path d="M42.4475 25.7621C42.0413 25.7515 41.6357 25.7515 41.2295 25.7621C40.6715 25.7315 40.1129 25.7109 39.5548 25.6703C38.0726 25.559 36.6009 25.3354 35.1598 25.0004C30.1759 23.8436 25.8012 21.519 21.9847 18.1389C21.6294 17.8245 21.2945 17.4996 20.9494 17.1747C20.8682 17.104 20.7971 17.0022 20.7565 16.9009C20.6956 16.7585 20.726 16.6066 20.8275 16.4948C20.9291 16.3829 21.0915 16.3423 21.2336 16.4035C21.3249 16.4441 21.4163 16.4847 21.4975 16.5354C25.1414 18.7888 29.1203 20.4329 33.292 21.4072C34.6928 21.7321 36.1035 21.9858 37.5245 22.1689C39.5648 22.4226 41.6251 22.5139 43.6755 22.4426C44.7821 22.412 45.8782 22.3108 46.9743 22.1689C49.5326 21.844 52.0598 21.2653 54.5057 20.4535C55.7949 20.0268 57.0535 19.5399 58.282 18.9713C58.4645 18.87 58.6881 18.8394 58.8907 18.89C59.2256 18.9713 59.4287 19.3163 59.3475 19.6512C59.3374 19.6918 59.3174 19.743 59.2968 19.7836C59.2156 19.9355 59.1038 20.0674 58.9619 20.1692C57.7946 21.0828 56.536 21.8846 55.2062 22.5545C52.6991 23.8231 50.0195 24.7266 47.2586 25.2441C45.6651 25.5284 44.0616 25.7009 42.4475 25.7621ZM27.415 5.18739C27.6688 5.03511 27.9327 4.87269 28.2068 4.73059C28.9173 4.3652 29.709 4.18248 30.5109 4.2231C31.0894 4.25354 31.6172 4.41595 32.0232 4.84226C32.409 5.23813 32.5511 5.72532 32.5916 6.25317C32.6018 6.36478 32.6018 6.47645 32.6018 6.59825V11.8561C32.6018 12.3129 32.5409 12.3735 32.0842 12.3735H30.8458C30.7646 12.3735 30.6834 12.3735 30.6022 12.3635C30.4804 12.3535 30.3789 12.2517 30.3586 12.1304C30.3383 12.0185 30.3383 11.9067 30.3383 11.7954V7.09556C30.3485 6.90303 30.3282 6.71999 30.2774 6.53737C30.1962 6.22268 29.912 5.9994 29.5872 5.97909C28.9883 5.93847 28.3895 6.06032 27.8414 6.31404C27.7602 6.33435 27.7094 6.41558 27.7196 6.49676V11.8355C27.7196 11.9373 27.7196 12.0286 27.6993 12.1304C27.6993 12.2723 27.5876 12.3735 27.4455 12.3735C27.2933 12.3841 27.141 12.3841 26.9786 12.3841H25.9026C25.5271 12.3841 25.4459 12.2923 25.4459 11.9167V7.11613C25.4459 6.94311 25.4358 6.76061 25.3952 6.58812C25.3241 6.24299 25.0298 5.9994 24.6846 5.97909C24.0756 5.93847 23.4565 6.06032 22.9083 6.32422C22.8272 6.34453 22.7764 6.43583 22.7967 6.51707V11.9273C22.7967 12.3029 22.7155 12.3841 22.3399 12.3841H20.9798C20.6246 12.3841 20.5332 12.2823 20.5332 11.9373V4.893C20.5332 4.81182 20.5433 4.73059 20.5636 4.64941C20.6043 4.52761 20.7261 4.45657 20.8478 4.45657H22.1167C22.2993 4.45657 22.411 4.56823 22.4719 4.74077C22.5227 4.88287 22.5531 5.0148 22.6038 5.16708C22.7054 5.16708 22.7662 5.09603 22.8373 5.05542C23.3956 4.71034 23.9843 4.41595 24.644 4.29415C25.1516 4.19266 25.6591 4.19266 26.1666 4.29415C26.6437 4.39564 27.07 4.67985 27.344 5.08585C27.3643 5.11634 27.3846 5.13665 27.4049 5.1569C27.3947 5.16708 27.4049 5.16708 27.415 5.18739Z" fill="#00A8E1"/>
    <path d="M48.4566 10.242C48.5177 10.0389 48.5784 9.84639 48.6396 9.64331C49.1064 8.06983 49.5732 6.5069 50.0401 4.93363L50.1012 4.75091C50.1519 4.56819 50.3244 4.45652 50.5069 4.45652H52.0498C52.4359 4.45652 52.5171 4.56819 52.3847 4.93363L51.776 6.54751C51.0961 8.31352 50.4156 10.0901 49.7357 11.8561C49.7157 11.9168 49.6851 11.9779 49.6645 12.0386C49.5938 12.2517 49.3807 12.3941 49.157 12.3735C48.7108 12.3635 48.264 12.3635 47.8172 12.3735C47.5029 12.3841 47.3198 12.2417 47.2085 11.9574C46.9548 11.2875 46.6905 10.6075 46.4368 9.93764C45.8281 8.34412 45.2088 6.75059 44.5996 5.14678C44.5389 5.02494 44.4983 4.88283 44.4677 4.75091C44.4371 4.54788 44.5083 4.4464 44.7114 4.4464C45.2901 4.43627 45.8687 4.4464 46.4368 4.4464C46.6805 4.4464 46.7923 4.60881 46.853 4.82196C46.9648 5.20766 47.0761 5.60353 47.198 5.98923C47.6142 7.39992 48.0203 8.82096 48.4365 10.232C48.4265 10.242 48.4365 10.242 48.4566 10.242Z" fill="white"/>
    <path d="M12.4132 5.57305C12.4843 5.55274 12.5451 5.51213 12.5858 5.45125C12.7685 5.26853 12.9613 5.096 13.1643 4.93358C13.6921 4.52758 14.3519 4.32456 15.0116 4.37535C15.2755 4.38548 15.3669 4.46666 15.3872 4.72043C15.4075 5.06556 15.3973 5.42082 15.3973 5.7659C15.4075 5.908 15.3973 6.03998 15.377 6.18208C15.3365 6.36475 15.2654 6.4358 15.0827 6.45611C14.9406 6.46629 14.8087 6.45611 14.6666 6.44598C13.9865 6.38506 13.3267 6.51703 12.6872 6.72998C12.5451 6.78114 12.5451 6.88242 12.5451 6.99424V11.8661C12.5451 11.9573 12.5451 12.0386 12.535 12.1303C12.5248 12.2622 12.4233 12.3635 12.2914 12.3635C12.2203 12.3735 12.1391 12.3735 12.0681 12.3735H10.7485C10.6775 12.3735 10.5963 12.3735 10.5253 12.3635C10.3933 12.3535 10.2918 12.2416 10.2817 12.1098C10.2715 12.0285 10.2715 11.9473 10.2715 11.8661V4.96402C10.2715 4.49715 10.3222 4.4464 10.7892 4.4464H11.7636C12.0275 4.4464 12.1493 4.53771 12.2203 4.79148C12.2914 5.04525 12.3523 5.29897 12.4132 5.57305ZM59.896 15.8654C60.5659 15.8855 61.2258 15.9261 61.8751 16.0986C62.0582 16.1497 62.2307 16.2104 62.4031 16.2916C62.6363 16.3829 62.7887 16.6065 62.8193 16.8497C62.8599 17.134 62.87 17.4284 62.8494 17.7227C62.7175 19.4586 62.1795 21.1334 61.2865 22.6256C60.9615 23.1631 60.5659 23.6505 60.1091 24.0767C60.0179 24.168 59.906 24.2392 59.7842 24.2798C59.5917 24.3305 59.4698 24.2292 59.4593 24.0361C59.4698 23.9348 59.4899 23.833 59.5305 23.7318C59.886 22.7776 60.231 21.8339 60.5047 20.8491C60.6672 20.311 60.779 19.763 60.8502 19.2049C60.8703 19.0018 60.8803 18.7988 60.8603 18.5957C60.8502 18.2507 60.6266 17.9564 60.2916 17.8546C59.9772 17.7533 59.6523 17.6926 59.3174 17.6721C58.3837 17.6314 57.4496 17.6721 56.5259 17.7939L55.298 17.9463C55.1661 17.9564 55.0442 17.9463 54.973 17.8245C54.9018 17.7027 54.9324 17.5808 55.0036 17.459C55.0849 17.3471 55.1861 17.2459 55.308 17.1746C56.0591 16.6366 56.9015 16.3122 57.7951 16.0986C58.485 15.9567 59.1855 15.8855 59.896 15.8654Z" fill="#00A8E1"/>
    <path d="M55.6426 8.41529V12.0692C55.6225 12.2722 55.5313 12.3635 55.3282 12.3735C54.7802 12.3841 54.2421 12.3841 53.6941 12.3735C53.491 12.3735 53.3997 12.2722 53.3792 12.0792C53.3691 12.0185 53.3691 11.9473 53.3691 11.8867V4.86255C53.3792 4.5479 53.4604 4.45654 53.7753 4.45654H55.237C55.5513 4.45654 55.6426 4.5479 55.6426 4.86255V8.41529Z" fill="white"/>
    <path d="M16.3725 8.39486V4.79163C16.3827 4.54798 16.474 4.45668 16.7176 4.4465C17.2454 4.43637 17.7733 4.43637 18.3011 4.4465C18.5345 4.4465 18.6056 4.51755 18.6258 4.75101C18.636 4.84237 18.636 4.92355 18.636 5.01491V11.775C18.636 11.8868 18.6258 11.9981 18.6157 12.1099C18.6056 12.2418 18.504 12.333 18.3721 12.3436C18.3112 12.3536 18.2604 12.3536 18.1996 12.3536H16.7887C16.7379 12.3536 16.6973 12.3536 16.6466 12.3436C16.5045 12.333 16.3827 12.2217 16.3725 12.0793C16.3624 11.9981 16.3624 11.9169 16.3624 11.8356C16.3725 10.7094 16.3725 9.55215 16.3725 8.39486ZM17.5499 0.812729C17.7123 0.802601 17.8747 0.833035 18.027 0.883779C18.5751 1.0665 18.8593 1.54356 18.8085 2.16271C18.7679 2.69051 18.3721 3.11682 17.8443 3.19806C17.621 3.23862 17.3875 3.23862 17.1642 3.19806C16.5856 3.08639 16.1593 2.66008 16.1999 1.92925C16.2609 1.2086 16.7379 0.812729 17.5499 0.812729Z" fill="#00A8E1"/>
    <path d="M54.5174 0.812793C54.7205 0.792485 54.9236 0.8331 55.1161 0.914279C55.5123 1.06656 55.786 1.43195 55.8066 1.85826C55.8878 2.78194 55.2686 3.24886 54.4462 3.22856C54.3349 3.22856 54.2231 3.20825 54.1113 3.18794C53.482 3.03571 53.1571 2.54847 53.2183 1.84813C53.2689 1.28985 53.7056 0.873718 54.3043 0.822974C54.3755 0.812794 54.4462 0.802665 54.5174 0.812793Z" fill="white"/>
    <path d="M8.76958 7.56241C8.72902 7.03493 8.58692 6.51704 8.37376 6.03999C7.95758 5.16711 7.31811 4.52765 6.3437 4.30431C5.22718 4.06072 4.22232 4.30431 3.30878 4.98439C3.24785 5.04527 3.1768 5.09607 3.09562 5.13663C3.07531 5.1265 3.05501 5.11632 3.05501 5.10619C3.02457 5.0047 3.00426 4.90316 2.97383 4.80168C2.89259 4.5479 2.79111 4.4566 2.51708 4.4566C2.21256 4.4566 1.89792 4.46673 1.59341 4.4566C1.35994 4.44642 1.14679 4.47685 0.984375 4.65957C0.984375 8.21227 0.984377 11.7749 0.994504 15.3174C1.12648 15.5306 1.32951 15.5712 1.56292 15.5611C1.92836 15.5506 2.29374 15.5611 2.65918 15.5611C3.29865 15.5611 3.29865 15.5611 3.29865 14.9319V12.0386C3.29865 11.9679 3.26816 11.8867 3.33921 11.8255C3.84676 12.2217 4.46591 12.4654 5.10538 12.526C5.99857 12.6173 6.81062 12.3941 7.49065 11.7849C7.98802 11.3281 8.35346 10.7394 8.5463 10.0901C8.82033 9.25774 8.84064 8.41535 8.76958 7.56241ZM6.3437 9.6639C6.27264 9.97828 6.11023 10.2626 5.87677 10.4757C5.61287 10.6988 5.28805 10.8307 4.94297 10.8307C4.4253 10.8613 3.91781 10.7495 3.46101 10.5063C3.34939 10.4551 3.27834 10.3438 3.28847 10.222V8.38476C3.28847 7.77551 3.29865 7.1668 3.28847 6.55766C3.27834 6.41556 3.35952 6.29376 3.4915 6.24302C4.04973 5.97912 4.62833 5.85733 5.2373 5.97912C5.66361 6.03999 6.02905 6.31407 6.20159 6.71C6.35382 7.03493 6.44518 7.38992 6.46549 7.74544C6.52642 8.39477 6.52642 9.04463 6.3437 9.6639Z" fill="#00A8E1"/>
    <path d="M82.1963 9.146C82.1963 9.13598 82.1963 9.13598 82.1963 9.146ZM82.2064 7.78615V7.82677C82.1658 7.78616 82.1457 7.72497 82.1658 7.67433V7.5931C82.1658 7.5931 82.1658 7.58307 82.1763 7.58307H82.1658V7.48127H82.1863C82.1863 7.47125 82.1763 7.47125 82.1763 7.46123C82.1557 7.26817 82.1151 7.07564 82.0645 6.8926C81.6889 5.5529 80.8465 4.66984 79.4761 4.32471C78.8368 4.17248 78.187 4.15217 77.5376 4.25366C76.1672 4.45669 75.1824 5.18751 74.7056 6.48675C74.2388 7.72496 74.2488 9.08534 74.7156 10.3233C75.1218 11.45 75.9336 12.1606 77.1009 12.4549C77.7201 12.6073 78.37 12.648 79.0093 12.5567C81.1409 12.303 82.0239 10.6889 82.1658 9.28842H82.1557V9.146C82.1457 9.08534 82.1357 9.03418 82.1963 8.99409V9.01413C82.1963 9.00411 82.2064 8.98354 82.2169 8.97351V7.8062C82.2169 7.79618 82.2064 7.79618 82.2064 7.78615ZM79.7705 9.71463C79.7098 9.92773 79.618 10.1203 79.4862 10.3033C79.263 10.6177 78.9075 10.8208 78.5219 10.8513C78.3294 10.8714 78.1363 10.8714 77.9433 10.8308C77.5171 10.7501 77.1621 10.4658 76.9896 10.0696C76.8371 9.75524 76.7459 9.40974 76.7153 9.06477C76.6647 8.46608 76.6546 7.86739 76.7965 7.27819C76.8472 7.04504 76.949 6.81137 77.0703 6.60855C77.2939 6.24311 77.6795 6.00965 78.1057 5.97921C78.2988 5.9589 78.4913 5.9589 78.6844 5.99952C79.0905 6.0807 79.4255 6.34465 79.608 6.72011C79.7805 7.07564 79.8823 7.47125 79.9023 7.86739C79.9124 8.04989 79.9229 8.2324 79.9124 8.41544C79.943 8.86169 79.8923 9.29844 79.7705 9.71463ZM64.4134 0.883789H63.0023C62.6168 0.883789 62.5455 0.954843 62.5455 1.34059V4.62923C62.5455 4.70028 62.5761 4.77133 62.5255 4.84238C62.4337 4.83225 62.3831 4.77133 62.3119 4.73077C61.2564 4.11156 60.1503 3.99994 59.0336 4.51761C58.2518 4.883 57.765 5.54277 57.4501 6.32434C57.1457 7.07563 57.0745 7.86739 57.0951 8.66916C57.0951 9.42029 57.2676 10.1609 57.6025 10.8308C57.9881 11.5719 58.5462 12.1405 59.3585 12.3842C60.4646 12.7292 61.5001 12.5567 62.4443 11.8562C62.5149 11.8156 62.5556 11.7444 62.6468 11.7243C62.698 11.8362 62.7386 11.9575 62.7586 12.0793C62.7993 12.2418 62.9417 12.3536 63.1142 12.3536H63.3573C63.7229 12.3536 64.0784 12.3636 64.4334 12.3536C64.7177 12.3536 64.7989 12.2624 64.809 11.968V1.26954C64.7989 0.954841 64.7177 0.883789 64.4134 0.883789ZM62.5556 8.35425V10.2015C62.5761 10.3233 62.5049 10.4352 62.3931 10.4858C61.9062 10.7601 61.3476 10.8714 60.7996 10.7902C60.3328 10.7395 59.9266 10.4552 59.7135 10.0396C59.551 9.71463 59.4598 9.36966 59.4297 9.01413C59.3485 8.37482 59.3991 7.72497 59.551 7.1057C59.6022 6.93321 59.6629 6.77075 59.7541 6.60855C59.9672 6.21268 60.3734 5.95891 60.8202 5.92847C61.3582 5.87773 61.8962 5.97921 62.3831 6.20255C62.5049 6.24311 62.5761 6.36491 62.5661 6.49688C62.5455 7.12627 62.5556 7.73499 62.5556 8.35425Z" fill="white"/>
    <path d="M36.3071 9.05459C37.0682 9.19648 37.8494 9.20651 38.6111 9.08466C39.0574 9.024 39.4841 8.89213 39.8797 8.67903C40.3365 8.41476 40.6715 8.04974 40.8134 7.5423C41.1689 6.26316 40.6208 4.9741 39.2911 4.49699C38.6412 4.28384 37.9512 4.21278 37.2713 4.30414C35.6673 4.48686 34.6219 5.36992 34.1448 6.90246C33.8099 7.94793 33.8505 9.01398 34.1245 10.0695C34.4798 11.4193 35.3729 12.2216 36.7227 12.5054C37.4944 12.6779 38.2762 12.6478 39.0474 12.526C39.4535 12.4547 39.8591 12.3535 40.2453 12.201C40.4784 12.1098 40.6003 11.9673 40.5902 11.7036C40.5802 11.4599 40.5902 11.2062 40.5902 10.9525C40.5902 10.6481 40.4684 10.5569 40.1741 10.6275C39.8797 10.6988 39.5954 10.7599 39.3011 10.8206C38.6718 10.9525 38.0225 10.9525 37.3926 10.8406C36.5302 10.6682 35.9716 9.92758 36.0228 9.01398C36.114 9.024 36.2153 9.03402 36.3071 9.05459ZM36.0528 7.50169C36.0834 7.25799 36.1546 7.02432 36.2459 6.80119C36.5503 6.06013 37.1901 5.80641 37.8394 5.84697C38.0225 5.85715 38.205 5.89772 38.3775 5.96877C38.6412 6.08044 38.8137 6.32403 38.8443 6.60824C38.8749 6.78062 38.8648 6.96365 38.8137 7.13614C38.6924 7.50168 38.398 7.6536 38.0425 7.72481C37.8294 7.77545 37.6063 7.79602 37.3826 7.77545C36.987 7.77545 36.5809 7.74485 36.1852 7.68419C36.0328 7.66362 36.0328 7.66362 36.0528 7.50169Z" fill="#00A8E1"/>
    <path d="M70.545 9.15604C71.1337 9.11542 71.7223 9.00412 72.2504 8.71981C72.7884 8.45554 73.1639 7.95866 73.2752 7.36946C73.3465 7.00444 73.3465 6.61859 73.2652 6.2532C73.0521 5.33966 72.4735 4.77124 71.6005 4.47691C71.1136 4.32468 70.5956 4.26375 70.0882 4.28406C68.3829 4.32468 67.0837 5.18743 66.5562 6.89262C66.2007 8.01932 66.2513 9.16606 66.5968 10.2928C66.9518 11.4501 67.7636 12.1506 68.9209 12.4649C69.4183 12.5868 69.9358 12.6374 70.4437 12.6174C71.1843 12.6074 71.9254 12.4649 72.6259 12.2012C72.9202 12.0894 72.9915 11.9881 72.9915 11.6732V10.9426C72.9809 10.6483 72.8591 10.5465 72.5647 10.6177C72.3416 10.6789 72.1285 10.7295 71.9054 10.7802C71.2249 10.9426 70.5144 10.9732 69.8245 10.8514C69.134 10.7195 68.6672 10.3234 68.4847 9.63341C68.434 9.43033 68.3934 9.22725 68.3728 9.01415C68.4235 9.01415 68.4741 9.01415 68.5147 9.03419C69.1846 9.15604 69.8651 9.20668 70.545 9.15604ZM68.4235 7.53192C68.4947 7.13631 68.5859 6.75072 68.8296 6.42574C69.2052 5.92838 69.7227 5.78627 70.3113 5.8472C70.3625 5.8472 70.4031 5.86751 70.4537 5.86751C71.1643 5.97912 71.3367 6.54754 71.2049 7.0957C71.1031 7.50186 70.7681 7.65377 70.3926 7.72498C70.19 7.7656 69.9764 7.78564 69.7633 7.77562C69.3471 7.7656 68.9415 7.73501 68.5353 7.67435C68.444 7.66432 68.4034 7.6237 68.4235 7.53192Z" fill="white"/>
  </g>
</svg>
