<svg width="225" height="225" viewBox="0 0 225 225" fill="none" xmlns="http://www.w3.org/2000/svg">
  <path d="M225 0H0V225H225V0Z" fill="url(#paint0_linear_0_1)"/>
  <mask id="mask0_0_1" style="mask-type:luminance" maskUnits="userSpaceOnUse" x="35" y="88" width="155" height="49">
    <path d="M189.941 88.8025H35.9414V136.197H189.941V88.8025Z" fill="white"/>
  </mask>
  <g mask="url(#mask0_0_1)">
    <path d="M112.238 136.198V136.121C112.315 136.024 112.45 135.967 112.565 135.986C113.123 135.967 113.662 135.967 114.22 135.986C114.336 135.986 114.47 136.024 114.547 136.121V136.198H112.238Z" fill="#D1EFFA"/>
    <path d="M114.549 136.121C113.779 136.101 113.01 136.101 112.24 136.121C111.182 136.063 110.123 136.024 109.065 135.947C106.255 135.736 103.465 135.312 100.733 134.677C91.2846 132.484 82.9909 128.077 75.7556 121.669C75.0821 121.073 74.4471 120.457 73.7929 119.841C73.6389 119.707 73.5042 119.514 73.4272 119.322C73.3118 119.052 73.3695 118.764 73.5619 118.552C73.7544 118.34 74.0623 118.263 74.3317 118.379C74.5048 118.456 74.678 118.533 74.832 118.629C81.7401 122.901 89.2833 126.018 97.1921 127.865C99.8476 128.481 102.522 128.962 105.216 129.309C109.084 129.79 112.99 129.963 116.877 129.828C118.975 129.77 121.053 129.578 123.131 129.309C127.981 128.693 132.772 127.596 137.409 126.057C139.853 125.248 142.239 124.325 144.568 123.247C144.914 123.055 145.338 122.997 145.722 123.093C146.357 123.247 146.742 123.901 146.588 124.536C146.569 124.613 146.531 124.71 146.492 124.787C146.338 125.075 146.126 125.325 145.857 125.518C143.644 127.25 141.258 128.77 138.737 130.04C133.984 132.445 128.904 134.158 123.67 135.139C120.649 135.678 117.609 136.005 114.549 136.121ZM86.0505 97.1155C86.5316 96.8268 87.0319 96.5189 87.5515 96.2495C88.8984 95.5568 90.3994 95.2104 91.9196 95.2874C93.0164 95.3451 94.017 95.653 94.7867 96.4612C95.518 97.2117 95.7874 98.1353 95.8643 99.136C95.8836 99.3476 95.8836 99.5593 95.8836 99.7902V109.758C95.8836 110.624 95.7681 110.739 94.9022 110.739H92.5546C92.4006 110.739 92.2467 110.739 92.0927 110.72C91.8618 110.701 91.6694 110.508 91.6309 110.278C91.5924 110.066 91.5924 109.854 91.5924 109.643V100.733C91.6117 100.368 91.5732 100.021 91.477 99.6748C91.323 99.0782 90.7842 98.6549 90.1685 98.6164C89.0331 98.5394 87.8978 98.7704 86.8587 99.2514C86.7048 99.2899 86.6086 99.4439 86.6278 99.5978V109.719C86.6278 109.912 86.6278 110.085 86.5893 110.278C86.5893 110.547 86.3776 110.739 86.1082 110.739C85.8196 110.759 85.531 110.759 85.2231 110.759H83.1833C82.4714 110.759 82.3174 110.585 82.3174 109.873V100.772C82.3174 100.444 82.2982 100.098 82.2212 99.771C82.0865 99.1167 81.5285 98.6549 80.8742 98.6164C79.7196 98.5394 78.5458 98.7704 77.5067 99.2707C77.3528 99.3092 77.2566 99.4823 77.295 99.6363V109.893C77.295 110.605 77.1411 110.759 76.4291 110.759H73.8506C73.1771 110.759 73.0039 110.566 73.0039 109.912V96.5574C73.0039 96.4035 73.0231 96.2495 73.0616 96.0956C73.1386 95.8647 73.3695 95.73 73.6004 95.73H76.0058C76.3521 95.73 76.5638 95.9417 76.6793 96.2688C76.7755 96.5382 76.8332 96.7883 76.9294 97.077C77.1219 97.077 77.2373 96.9423 77.372 96.8653C78.4304 96.2111 79.5465 95.653 80.7972 95.4221C81.7594 95.2297 82.7215 95.2297 83.6837 95.4221C84.5881 95.6145 85.3963 96.1533 85.9158 96.923C85.9543 96.9808 85.9928 97.0193 86.0313 97.0577C86.012 97.077 86.0313 97.077 86.0505 97.1155Z" fill="#00A8E1"/>
    <path d="M125.94 106.698C126.056 106.313 126.171 105.948 126.287 105.563C127.172 102.58 128.057 99.617 128.942 96.6344L129.058 96.288C129.154 95.9416 129.481 95.7299 129.827 95.7299H132.752C133.484 95.7299 133.638 95.9416 133.387 96.6344L132.233 99.694C130.944 103.042 129.654 106.41 128.365 109.758C128.327 109.873 128.269 109.989 128.23 110.104C128.096 110.508 127.692 110.778 127.268 110.739C126.422 110.72 125.575 110.72 124.728 110.739C124.132 110.759 123.785 110.489 123.574 109.95C123.093 108.68 122.592 107.391 122.111 106.121C120.957 103.1 119.783 100.079 118.628 97.0385C118.513 96.8075 118.436 96.5381 118.378 96.288C118.32 95.9031 118.455 95.7107 118.84 95.7107C119.937 95.6915 121.034 95.7107 122.111 95.7107C122.573 95.7107 122.785 96.0186 122.9 96.4227C123.112 97.1539 123.323 97.9044 123.554 98.6356C124.343 101.31 125.113 104.004 125.902 106.679C125.883 106.698 125.902 106.698 125.94 106.698Z" fill="white"/>
    <path d="M57.6091 97.8467C57.7438 97.8082 57.8592 97.7312 57.9362 97.6158C58.2826 97.2694 58.6482 96.9423 59.033 96.6344C60.0336 95.8647 61.2844 95.4798 62.5352 95.5761C63.0355 95.5953 63.2087 95.7492 63.2472 96.2303C63.2857 96.8846 63.2664 97.5581 63.2664 98.2123C63.2857 98.4817 63.2664 98.7319 63.2279 99.0013C63.151 99.3476 63.0163 99.4823 62.6699 99.5208C62.4005 99.5401 62.1504 99.5208 61.881 99.5016C60.5917 99.3861 59.3409 99.6363 58.1286 100.04C57.8592 100.137 57.8592 100.329 57.8592 100.541V109.777C57.8592 109.95 57.8592 110.104 57.84 110.278C57.8207 110.528 57.6283 110.72 57.3781 110.72C57.2434 110.739 57.0895 110.739 56.9548 110.739H54.4532C54.3185 110.739 54.1646 110.739 54.0299 110.72C53.7797 110.701 53.5873 110.489 53.5681 110.239C53.5488 110.085 53.5488 109.931 53.5488 109.777V96.6921C53.5488 95.807 53.645 95.7108 54.5302 95.7108H56.3775C56.8778 95.7108 57.1087 95.8839 57.2434 96.365C57.3781 96.8461 57.4936 97.3271 57.6091 97.8467ZM147.627 117.359C148.897 117.397 150.148 117.474 151.379 117.801C151.726 117.898 152.053 118.013 152.38 118.167C152.822 118.34 153.111 118.764 153.169 119.225C153.246 119.764 153.265 120.322 153.226 120.88C152.976 124.171 151.956 127.346 150.263 130.175C149.647 131.194 148.897 132.118 148.031 132.926C147.858 133.099 147.646 133.234 147.415 133.311C147.05 133.407 146.819 133.215 146.799 132.849C146.819 132.657 146.857 132.464 146.934 132.272C147.608 130.463 148.262 128.674 148.781 126.807C149.089 125.787 149.301 124.748 149.436 123.69C149.474 123.305 149.493 122.92 149.455 122.535C149.436 121.881 149.012 121.323 148.377 121.13C147.781 120.938 147.165 120.823 146.53 120.784C144.76 120.707 142.989 120.784 141.238 121.015L138.91 121.304C138.66 121.323 138.429 121.304 138.294 121.073C138.159 120.842 138.217 120.611 138.352 120.38C138.506 120.168 138.698 119.976 138.929 119.841C140.353 118.821 141.95 118.206 143.644 117.801C144.952 117.532 146.28 117.397 147.627 117.359Z" fill="#00A8E1"/>
    <path d="M139.564 103.235V110.162C139.526 110.547 139.353 110.72 138.968 110.739C137.929 110.759 136.909 110.759 135.87 110.739C135.485 110.739 135.312 110.547 135.273 110.181C135.254 110.066 135.254 109.931 135.254 109.816V96.4997C135.273 95.9032 135.427 95.73 136.024 95.73H138.795C139.391 95.73 139.564 95.9032 139.564 96.4997V103.235Z" fill="white"/>
    <path d="M65.1134 103.196V96.365C65.1327 95.9031 65.3059 95.73 65.7677 95.7107C66.7683 95.6915 67.769 95.6915 68.7696 95.7107C69.2122 95.7107 69.3469 95.8454 69.3853 96.288C69.4046 96.4612 69.4046 96.6151 69.4046 96.7883V109.604C69.4046 109.816 69.3853 110.027 69.3661 110.239C69.3469 110.489 69.1544 110.662 68.9043 110.682C68.7888 110.701 68.6926 110.701 68.5772 110.701H65.9024C65.8062 110.701 65.7292 110.701 65.633 110.682C65.3636 110.662 65.1327 110.451 65.1134 110.181C65.0942 110.027 65.0942 109.873 65.0942 109.719C65.1134 107.584 65.1134 105.39 65.1134 103.196ZM67.3456 88.8218C67.6535 88.8026 67.9614 88.8603 68.25 88.9565C69.2891 89.3029 69.8279 90.2073 69.7317 91.3811C69.6547 92.3817 68.9043 93.1899 67.9037 93.3439C67.4803 93.4208 67.0377 93.4208 66.6144 93.3439C65.5175 93.1322 64.7093 92.324 64.7863 90.9385C64.9018 89.5723 65.8062 88.8218 67.3456 88.8218Z" fill="#00A8E1"/>
    <path d="M137.428 88.8218C137.813 88.7833 138.198 88.8603 138.563 89.0142C139.314 89.3029 139.833 89.9956 139.872 90.8038C140.026 92.5549 138.852 93.4401 137.293 93.4016C137.082 93.4016 136.87 93.3631 136.658 93.3246C135.465 93.036 134.849 92.1123 134.965 90.7846C135.061 89.7262 135.889 88.9373 137.024 88.8411C137.159 88.8218 137.293 88.8026 137.428 88.8218Z" fill="white"/>
    <path d="M50.7006 101.618C50.6237 100.618 50.3543 99.6362 49.9502 98.7318C49.1612 97.077 47.9489 95.8647 46.1016 95.4413C43.9849 94.9795 42.0799 95.4413 40.348 96.7306C40.2325 96.846 40.0978 96.9423 39.9439 97.0192C39.9054 97 39.8669 96.9807 39.8669 96.9615C39.8092 96.7691 39.7707 96.5766 39.713 96.3842C39.559 95.9031 39.3666 95.73 38.8471 95.73C38.2698 95.73 37.6733 95.7492 37.096 95.73C36.6534 95.7107 36.2493 95.7684 35.9414 96.1148C35.9414 102.85 35.9414 109.604 35.9606 116.32C36.2108 116.724 36.5957 116.801 37.0382 116.782C37.731 116.762 38.4237 116.782 39.1165 116.782C40.3288 116.782 40.3288 116.782 40.3288 115.589V110.104C40.3288 109.97 40.271 109.816 40.4057 109.7C41.3679 110.451 42.5417 110.913 43.754 111.028C45.4473 111.201 46.9868 110.778 48.276 109.623C49.2189 108.757 49.9117 107.641 50.2773 106.41C50.7968 104.832 50.8353 103.235 50.7006 101.618ZM46.1016 105.602C45.9669 106.198 45.659 106.737 45.2164 107.141C44.7161 107.564 44.1003 107.814 43.4461 107.814C42.4647 107.872 41.5026 107.66 40.6366 107.199C40.425 107.102 40.2903 106.891 40.3095 106.66V103.177C40.3095 102.022 40.3288 100.868 40.3095 99.7132C40.2903 99.4438 40.4442 99.2129 40.6944 99.1167C41.7527 98.6164 42.8496 98.3855 44.0041 98.6164C44.8123 98.7318 45.5051 99.2514 45.8322 100.002C46.1208 100.618 46.294 101.291 46.3325 101.965C46.448 103.196 46.448 104.428 46.1016 105.602Z" fill="#00A8E1"/>
    <path d="M189.902 104.62C189.902 104.601 189.902 104.601 189.902 104.62ZM189.921 102.042V102.119C189.844 102.042 189.806 101.926 189.844 101.83V101.676C189.844 101.676 189.844 101.657 189.864 101.657H189.844V101.464H189.883C189.883 101.445 189.864 101.445 189.864 101.426C189.825 101.06 189.748 100.695 189.652 100.348C188.94 97.8082 187.343 96.1341 184.745 95.4798C183.533 95.1912 182.301 95.1527 181.07 95.3451C178.472 95.73 176.605 97.1155 175.701 99.5786C174.816 101.926 174.835 104.505 175.72 106.852C176.49 108.988 178.029 110.335 180.242 110.893C181.416 111.182 182.648 111.259 183.86 111.086C187.901 110.605 189.575 107.545 189.844 104.89H189.825V104.62C189.806 104.505 189.787 104.408 189.902 104.332V104.37C189.902 104.351 189.921 104.312 189.941 104.293V102.08C189.941 102.061 189.921 102.061 189.921 102.042ZM185.303 105.698C185.188 106.102 185.014 106.467 184.764 106.814C184.341 107.41 183.667 107.795 182.936 107.853C182.571 107.891 182.205 107.891 181.839 107.814C181.031 107.661 180.358 107.122 180.031 106.371C179.742 105.775 179.569 105.12 179.511 104.466C179.415 103.331 179.396 102.196 179.665 101.079C179.761 100.637 179.954 100.194 180.184 99.8095C180.608 99.1167 181.339 98.6741 182.147 98.6164C182.513 98.5779 182.878 98.5779 183.244 98.6549C184.014 98.8088 184.649 99.3092 184.995 100.021C185.322 100.695 185.515 101.445 185.553 102.196C185.572 102.542 185.592 102.888 185.572 103.235C185.63 104.081 185.534 104.909 185.303 105.698ZM156.189 88.9565H153.514C152.783 88.9565 152.648 89.0912 152.648 89.8225V96.0571C152.648 96.1918 152.706 96.3265 152.61 96.4612C152.436 96.442 152.34 96.3265 152.205 96.2496C150.204 95.0757 148.107 94.8641 145.99 95.8455C144.508 96.5382 143.585 97.789 142.988 99.2707C142.411 100.695 142.276 102.196 142.315 103.716C142.315 105.14 142.642 106.544 143.277 107.814C144.008 109.219 145.066 110.297 146.606 110.759C148.703 111.413 150.666 111.086 152.456 109.758C152.59 109.681 152.667 109.546 152.84 109.508C152.937 109.72 153.014 109.95 153.052 110.181C153.129 110.489 153.399 110.701 153.726 110.701H154.187C154.88 110.701 155.554 110.72 156.227 110.701C156.766 110.701 156.92 110.528 156.939 109.97V89.6878C156.92 89.0912 156.766 88.9565 156.189 88.9565ZM152.667 103.119V106.621C152.706 106.852 152.571 107.064 152.359 107.16C151.436 107.68 150.377 107.891 149.338 107.737C148.453 107.641 147.683 107.102 147.279 106.314C146.971 105.698 146.798 105.044 146.741 104.37C146.587 103.158 146.683 101.926 146.971 100.752C147.068 100.425 147.183 100.117 147.356 99.8095C147.76 99.059 148.53 98.5779 149.377 98.5202C150.397 98.424 151.417 98.6164 152.34 99.0398C152.571 99.1167 152.706 99.3476 152.687 99.5978C152.648 100.791 152.667 101.945 152.667 103.119Z" fill="white"/>
    <path d="M102.907 104.447C104.35 104.716 105.831 104.735 107.275 104.504C108.121 104.389 108.93 104.139 109.68 103.735C110.546 103.234 111.181 102.542 111.45 101.58C112.124 99.155 111.085 96.7112 108.564 95.8067C107.332 95.4026 106.024 95.2679 104.735 95.4411C101.694 95.7875 99.7122 97.4616 98.8078 100.367C98.1728 102.349 98.2498 104.37 98.7693 106.371C99.4428 108.93 101.136 110.451 103.695 110.989C105.158 111.316 106.64 111.259 108.102 111.028C108.872 110.893 109.641 110.701 110.373 110.412C110.815 110.239 111.046 109.969 111.027 109.469C111.008 109.007 111.027 108.526 111.027 108.045C111.027 107.468 110.796 107.295 110.238 107.429C109.68 107.564 109.141 107.68 108.583 107.795C107.39 108.045 106.159 108.045 104.965 107.833C103.33 107.506 102.271 106.102 102.368 104.37C102.541 104.389 102.733 104.408 102.907 104.447ZM102.425 101.503C102.483 101.041 102.618 100.598 102.791 100.175C103.368 98.7701 104.581 98.2891 105.812 98.366C106.159 98.3853 106.505 98.4622 106.832 98.5969C107.332 98.8086 107.659 99.2704 107.717 99.8092C107.775 100.136 107.756 100.483 107.659 100.81C107.429 101.503 106.871 101.791 106.197 101.926C105.793 102.022 105.37 102.061 104.946 102.022C104.196 102.022 103.426 101.964 102.676 101.849C102.387 101.81 102.387 101.81 102.425 101.503Z" fill="#00A8E1"/>
    <path d="M167.813 104.639C168.929 104.562 170.045 104.351 171.046 103.812C172.066 103.311 172.778 102.369 172.989 101.252C173.124 100.56 173.124 99.8285 172.97 99.1358C172.566 97.4039 171.469 96.3263 169.814 95.7683C168.891 95.4797 167.909 95.3642 166.947 95.4027C163.714 95.4797 161.251 97.1153 160.251 100.348C159.577 102.484 159.673 104.658 160.328 106.794C161.001 108.988 162.54 110.316 164.734 110.912C165.677 111.143 166.658 111.239 167.621 111.201C169.025 111.182 170.43 110.912 171.758 110.412C172.316 110.2 172.451 110.008 172.451 109.411V108.026C172.431 107.468 172.2 107.275 171.642 107.41C171.219 107.526 170.815 107.622 170.392 107.718C169.102 108.026 167.755 108.084 166.447 107.853C165.138 107.603 164.253 106.852 163.907 105.544C163.811 105.159 163.734 104.774 163.695 104.37C163.791 104.37 163.887 104.37 163.964 104.408C165.234 104.639 166.524 104.735 167.813 104.639ZM163.791 101.56C163.926 100.81 164.099 100.079 164.561 99.4629C165.273 98.52 166.254 98.2506 167.37 98.3661C167.467 98.3661 167.544 98.4046 167.64 98.4046C168.987 98.6162 169.314 99.6938 169.064 100.733C168.871 101.503 168.236 101.791 167.524 101.926C167.14 102.003 166.735 102.041 166.331 102.022C165.542 102.003 164.773 101.945 164.003 101.83C163.83 101.811 163.753 101.734 163.791 101.56Z" fill="white"/>
  </g>
  <defs>
    <linearGradient id="paint0_linear_0_1" x1="112.5" y1="0" x2="112.5" y2="225" gradientUnits="userSpaceOnUse">
      <stop stop-color="#07082B"/>
      <stop offset="1"/>
    </linearGradient>
  </defs>
</svg>
