<svg width="78" height="25" viewBox="0 0 78 25" fill="none" xmlns="http://www.w3.org/2000/svg">
  <path d="M38.6367 24.3498V24.3109C38.6757 24.2621 38.7439 24.2329 38.8024 24.2427C39.085 24.2329 39.3578 24.2329 39.6404 24.2427C39.6988 24.2427 39.767 24.2621 39.806 24.3109V24.3498H38.6367Z" fill="#1399FF"/>
  <path d="M39.8046 24.3102C39.4148 24.3004 39.025 24.3004 38.6352 24.3102C38.0993 24.2809 37.5634 24.2614 37.0275 24.2225C35.6048 24.1153 34.1919 23.9009 32.8082 23.5793C28.0238 22.4685 23.824 20.2371 20.1602 16.9922C19.8192 16.6902 19.4976 16.3784 19.1663 16.0665C19.0884 15.9983 19.0201 15.9009 18.9812 15.8035C18.9227 15.667 18.9519 15.5209 19.0494 15.4137C19.1468 15.3065 19.3027 15.2675 19.4391 15.326C19.5268 15.365 19.6145 15.4039 19.6925 15.4527C23.1907 17.6159 27.0104 19.1944 31.0153 20.1299C32.36 20.4417 33.7144 20.6853 35.0786 20.8607C37.0372 21.1043 39.0153 21.192 40.9836 21.1238C42.0457 21.0946 43.0981 20.9971 44.1505 20.8607C46.606 20.5489 49.0323 19.9935 51.3807 19.2139C52.6182 18.8047 53.8265 18.3369 55.0055 17.7913C55.1809 17.6938 55.3953 17.6646 55.5902 17.7133C55.9117 17.7913 56.1066 18.1226 56.0287 18.4441C56.0189 18.4831 55.9994 18.5318 55.98 18.5708C55.902 18.717 55.7948 18.8436 55.6584 18.9411C54.5378 19.8181 53.3295 20.5879 52.053 21.231C49.6462 22.449 47.0737 23.3162 44.4233 23.8132C42.8935 24.086 41.3539 24.2517 39.8046 24.3102Z" fill="#1399FF"/>
  <path d="M25.3742 4.55897C25.6178 4.41281 25.8711 4.2569 26.1342 4.12049C26.8163 3.76969 27.5763 3.5943 28.3461 3.63327C28.9016 3.66251 29.4083 3.81841 29.798 4.22767C30.1683 4.6077 30.3047 5.07542 30.3437 5.58212C30.3534 5.6893 30.3534 5.79649 30.3534 5.91342V10.9609C30.3534 11.3994 30.295 11.4579 29.8565 11.4579H28.6677C28.5897 11.4579 28.5118 11.4579 28.4338 11.4481C28.3169 11.4384 28.2195 11.3409 28.2 11.224C28.1805 11.1168 28.1805 11.0096 28.1805 10.9025V6.39089C28.1902 6.20575 28.1707 6.03035 28.122 5.85496C28.0441 5.55288 27.7712 5.33851 27.4594 5.31902C26.8845 5.28005 26.3096 5.39698 25.7834 5.64058C25.7055 5.66007 25.6567 5.73802 25.6665 5.81598V10.9414C25.6665 11.0389 25.6665 11.1266 25.647 11.224C25.647 11.3604 25.5398 11.4579 25.4034 11.4579C25.2572 11.4676 25.1111 11.4676 24.9552 11.4676H23.9223C23.5617 11.4676 23.4838 11.3799 23.4838 11.0194V6.41038C23.4838 6.24472 23.474 6.06933 23.4351 5.90368C23.3668 5.57237 23.0843 5.33851 22.753 5.31902C22.1683 5.28005 21.5739 5.39698 21.0477 5.65033C20.9698 5.66982 20.921 5.75751 20.9405 5.83547V11.0291C20.9405 11.3897 20.8626 11.4676 20.502 11.4676H19.1963C18.8553 11.4676 18.7676 11.3702 18.7676 11.0389V4.27639C18.7676 4.19844 18.7773 4.12049 18.7968 4.04253C18.8358 3.9256 18.9527 3.85739 19.0696 3.85739H20.2877C20.4631 3.85739 20.5703 3.96458 20.6287 4.13023C20.6774 4.26665 20.7067 4.39332 20.7554 4.53949C20.8528 4.53949 20.9113 4.47128 20.9795 4.4323C21.5154 4.101 22.0806 3.81841 22.714 3.70148C23.2012 3.60404 23.6884 3.60404 24.1756 3.70148C24.6336 3.79893 25.0429 4.07176 25.3059 4.46153C25.3254 4.49077 25.3449 4.51025 25.3644 4.52974C25.3547 4.53949 25.3644 4.53949 25.3742 4.55897Z" fill="#1399FF"/>
  <path d="M45.5742 9.41203C45.6327 9.21714 45.6912 9.032 45.7496 8.83712C46.1979 7.32677 46.6461 5.82616 47.0943 4.3158L47.1528 4.14041C47.2015 3.96501 47.3672 3.85782 47.5426 3.85782H49.0237C49.394 3.85782 49.4719 3.96501 49.3453 4.3158L48.7606 5.86513C48.1077 7.56063 47.4549 9.26586 46.802 10.9614C46.7825 11.0198 46.7533 11.0783 46.7338 11.1368C46.6656 11.3414 46.461 11.4778 46.2466 11.4583C45.8178 11.4486 45.3891 11.4486 44.9604 11.4583C44.6583 11.4681 44.4829 11.3316 44.3757 11.0588C44.1321 10.4157 43.8787 9.76282 43.6351 9.1197C43.0505 7.58986 42.4561 6.06002 41.8714 4.52043C41.813 4.4035 41.774 4.26708 41.7448 4.14041C41.7155 3.94552 41.7837 3.84808 41.9786 3.84808C42.534 3.83834 43.0895 3.84808 43.6351 3.84808C43.869 3.84808 43.9762 4.00399 44.0347 4.20862C44.1418 4.5789 44.249 4.95892 44.366 5.3292C44.7655 6.68365 45.1552 8.04784 45.5548 9.40228C45.545 9.41203 45.5548 9.41203 45.5742 9.41203Z" fill="#1399FF"/>
  <path d="M10.972 4.92964C11.0403 4.91015 11.0987 4.87117 11.1377 4.81271C11.3131 4.63731 11.4982 4.47166 11.6931 4.31575C12.1998 3.92598 12.8332 3.7311 13.4666 3.77982C13.7199 3.78956 13.8076 3.86752 13.8271 4.11112C13.8466 4.44242 13.8368 4.78347 13.8368 5.11478C13.8466 5.2512 13.8368 5.37787 13.8174 5.51429C13.7784 5.68968 13.7102 5.75789 13.5348 5.77738C13.3984 5.78713 13.2717 5.77738 13.1353 5.76764C12.4824 5.70917 11.849 5.83585 11.2351 6.04048C11.0987 6.0892 11.0987 6.18664 11.0987 6.29383V10.971C11.0987 11.0587 11.0987 11.1367 11.089 11.2244C11.0792 11.3511 10.9818 11.4485 10.8551 11.4485C10.7869 11.4583 10.709 11.4583 10.6407 11.4583H9.37399C9.30578 11.4583 9.22783 11.4583 9.15962 11.4485C9.03295 11.4388 8.9355 11.3316 8.92576 11.2049C8.91602 11.127 8.91602 11.049 8.91602 10.971V4.34498C8.91602 3.89675 8.96474 3.84803 9.41297 3.84803H10.3484C10.6018 3.84803 10.7187 3.93573 10.7869 4.17933C10.8551 4.42294 10.9136 4.66654 10.972 4.92964Z" fill="#1399FF"/>
  <path d="M56.5558 14.8096C57.1989 14.8291 57.8323 14.868 58.4559 15.0337C58.6313 15.0824 58.7969 15.1409 58.9626 15.2188C59.1867 15.3065 59.3329 15.5209 59.3621 15.7548C59.4011 16.0276 59.4108 16.3102 59.3913 16.5928C59.2647 18.259 58.7482 19.8668 57.8907 21.2992C57.5789 21.8157 57.1989 22.2834 56.7604 22.6926C56.6727 22.7803 56.5655 22.8485 56.4486 22.8875C56.2635 22.9362 56.1465 22.8388 56.1368 22.6537C56.1465 22.5562 56.166 22.4588 56.205 22.3613C56.546 21.4454 56.8773 20.5392 57.1404 19.594C57.2963 19.0775 57.4035 18.5513 57.4717 18.0154C57.4912 17.8205 57.501 17.6256 57.4815 17.4308C57.4717 17.0995 57.2574 16.8169 56.9358 16.7194C56.6337 16.622 56.3219 16.5635 56.0004 16.544C55.1039 16.5051 54.2074 16.544 53.3207 16.661L52.1416 16.8071C52.015 16.8169 51.898 16.8071 51.8298 16.6902C51.7616 16.5733 51.7909 16.4563 51.8591 16.3394C51.937 16.2322 52.0345 16.1348 52.1514 16.0666C52.8725 15.5501 53.6812 15.2383 54.5387 15.0337C55.2013 14.8973 55.8737 14.8291 56.5558 14.8096Z" fill="#1399FF"/>
  <path d="M52.4718 7.65767V11.1656C52.4523 11.3605 52.3646 11.4482 52.1697 11.4579C51.6435 11.4677 51.1271 11.4677 50.6009 11.4579C50.406 11.4579 50.3183 11.3605 50.2988 11.1753C50.2891 11.1169 50.2891 11.0487 50.2891 10.9902V4.24719C50.2988 3.94512 50.3768 3.85742 50.6788 3.85742H52.082C52.3841 3.85742 52.4718 3.94512 52.4718 4.24719V7.65767Z" fill="#1399FF"/>
  <path d="M14.7715 7.63863V4.17943C14.7812 3.94557 14.8689 3.85787 15.1028 3.84813C15.6095 3.83838 16.1162 3.83838 16.6229 3.84813C16.847 3.84813 16.9152 3.91634 16.9347 4.14045C16.9444 4.22815 16.9444 4.30611 16.9444 4.3938V10.8835C16.9444 10.9906 16.9347 11.0978 16.9249 11.205C16.9152 11.3317 16.8177 11.4194 16.6911 11.4291C16.6326 11.4389 16.5839 11.4389 16.5254 11.4389H15.171C15.1223 11.4389 15.0833 11.4389 15.0346 11.4291C14.8981 11.4194 14.7812 11.3122 14.7715 11.1758C14.7617 11.0978 14.7617 11.0199 14.7617 10.9419C14.7715 9.86031 14.7715 8.74947 14.7715 7.63863Z" fill="#1399FF"/>
  <path d="M15.9021 0.359289C16.058 0.349545 16.2139 0.378777 16.36 0.427498C16.8862 0.602894 17.1591 1.06087 17.1103 1.65527C17.0714 2.16197 16.6913 2.57123 16.1846 2.64918C15.9703 2.68816 15.7462 2.68816 15.5318 2.64918C14.9764 2.54199 14.5671 2.13274 14.6061 1.43115C14.6645 0.739313 15.1225 0.359289 15.9021 0.359289Z" fill="#1399FF"/>
  <path d="M51.3909 0.359459C51.5858 0.33997 51.7807 0.378947 51.9659 0.456901C52.3459 0.603064 52.609 0.953856 52.6285 1.36311C52.7064 2.24984 52.112 2.69807 51.3227 2.67858C51.2155 2.67858 51.1084 2.65909 51.0012 2.6396C50.397 2.49344 50.0852 2.02572 50.1437 1.35337C50.1924 0.817437 50.6114 0.417924 51.1863 0.369203C51.2545 0.359459 51.3227 0.349714 51.3909 0.359459Z" fill="#1399FF"/>
  <path d="M7.47381 6.83941C7.43484 6.33271 7.29842 5.83576 7.09379 5.37778C6.69428 4.53978 6.08039 3.92589 5.14495 3.71152C4.07308 3.47766 3.1084 3.71152 2.23143 4.36438C2.17296 4.42285 2.10475 4.47157 2.0268 4.51055C2.00731 4.5008 1.98782 4.49106 1.98782 4.48131C1.95859 4.38387 1.9391 4.28643 1.90987 4.18899C1.83191 3.94538 1.73447 3.85768 1.47138 3.85768C1.17905 3.85768 0.876979 3.86743 0.584653 3.85768C0.360536 3.84794 0.155907 3.87717 0 4.05257C0 7.46304 0 10.8833 0.00974421 14.284C0.136419 14.4886 0.331303 14.5276 0.55542 14.5179C0.906212 14.5081 1.257 14.5179 1.6078 14.5179C2.01705 14.5179 2.22168 14.3165 2.22168 13.9137V11.1366C2.22168 11.0684 2.19245 10.9904 2.26066 10.932C2.74787 11.312 3.34227 11.5459 3.95615 11.6043C4.81364 11.692 5.59318 11.4777 6.24604 10.893C6.72351 10.4545 7.0743 9.88935 7.25944 9.26572C7.52253 8.4667 7.54202 7.65793 7.47381 6.83941ZM5.14495 8.85647C5.07674 9.15854 4.92083 9.43138 4.69671 9.636C4.44336 9.85038 4.13155 9.97705 3.80024 9.97705C3.30329 10.0063 2.81608 9.8991 2.37759 9.66524C2.2704 9.61651 2.20219 9.50933 2.21194 9.3924V7.62869C2.21194 7.04404 2.22168 6.45939 2.21194 5.87474C2.20219 5.73832 2.28015 5.62139 2.40682 5.57267C2.94275 5.31932 3.49817 5.20239 4.08283 5.31932C4.49208 5.37778 4.84287 5.64088 5.00853 6.0209C5.15469 6.33271 5.24239 6.67376 5.26188 7.01481C5.32034 7.63844 5.32034 8.26207 5.14495 8.85647Z" fill="#1399FF"/>
  <path d="M77.9737 7.05374V7.09272C77.9347 7.05374 77.9153 6.99527 77.9347 6.94655V6.8686C77.9347 6.8686 77.9347 6.85886 77.9445 6.85886H77.9347V6.76141H77.9542C77.9542 6.75167 77.9445 6.75167 77.9445 6.74192C77.925 6.55678 77.886 6.37165 77.8373 6.19625C77.4768 4.91001 76.668 4.06227 75.3525 3.73096C74.7386 3.5848 74.115 3.56531 73.4914 3.66275C72.1759 3.85764 71.2307 4.55922 70.7727 5.80648C70.3245 6.99527 70.3343 8.301 70.7825 9.48979C71.1723 10.5714 71.9518 11.2535 73.0724 11.5361C73.6668 11.6822 74.2904 11.7212 74.9043 11.6335C76.9506 11.3899 77.7983 9.84059 77.9347 8.49588H77.925V8.35946C77.9153 8.301 77.9055 8.25228 77.964 8.2133V8.23279C77.964 8.22305 77.9737 8.20356 77.9835 8.19381V7.07323C77.9835 7.06348 77.9737 7.06348 77.9737 7.05374ZM75.6351 8.90514C75.5766 9.10977 75.489 9.29491 75.3623 9.47031C75.1479 9.77238 74.8069 9.96726 74.4366 9.99649C74.2514 10.016 74.0663 10.016 73.8812 9.97701C73.4719 9.89905 73.1308 9.62621 72.9652 9.24619C72.819 8.94412 72.7313 8.61281 72.7021 8.28151C72.6534 7.7066 72.6436 7.13169 72.7801 6.56653C72.8288 6.34241 72.9262 6.1183 73.0431 5.92341C73.2575 5.57262 73.6278 5.3485 74.0371 5.31927C74.2222 5.29978 74.4073 5.29978 74.5925 5.33876C74.9822 5.41671 75.3038 5.67006 75.4792 6.0306C75.6449 6.37164 75.7423 6.75167 75.7618 7.13169C75.7715 7.30709 75.7813 7.48249 75.7715 7.65788C75.8008 8.08663 75.752 8.50563 75.6351 8.90514Z" fill="#1399FF"/>
  <path d="M60.8919 0.427734H59.5375C59.1672 0.427734 59.099 0.495944 59.099 0.866224V4.02335C59.099 4.09156 59.1282 4.15977 59.0795 4.22798C58.9918 4.21823 58.9431 4.15977 58.8749 4.12079C57.8615 3.52639 56.7994 3.41921 55.7275 3.91616C54.9772 4.26695 54.5095 4.90033 54.2074 5.65063C53.9151 6.37171 53.8469 7.13175 53.8664 7.90155C53.8664 8.62262 54.032 9.33395 54.3536 9.97706C54.7239 10.6884 55.2598 11.2341 56.0393 11.4679C57.1014 11.7992 58.0954 11.6336 59.0016 10.9612C59.0698 10.9223 59.1088 10.854 59.1964 10.8346C59.2452 10.9417 59.2841 11.0587 59.3036 11.1756C59.3426 11.3315 59.479 11.4387 59.6447 11.4387H59.8785C60.2293 11.4387 60.5704 11.4484 60.9114 11.4387C61.1843 11.4387 61.2622 11.351 61.272 11.0684V0.798015C61.2622 0.495944 61.1843 0.427734 60.8919 0.427734ZM59.1087 7.59948V9.37292C59.1282 9.48985 59.06 9.59704 58.9528 9.64576C58.4851 9.90885 57.9492 10.016 57.423 9.93809C56.9748 9.88937 56.585 9.61653 56.3804 9.21702C56.2245 8.9052 56.1368 8.5739 56.1075 8.23285C56.0296 7.61896 56.0783 6.99533 56.2245 6.40094C56.2732 6.23529 56.3317 6.07938 56.4193 5.92347C56.624 5.54345 57.0137 5.29984 57.4425 5.27061C57.9589 5.22189 58.4754 5.31933 58.9431 5.5337C59.06 5.57268 59.1282 5.68961 59.1185 5.81628C59.099 6.42043 59.1087 7.00508 59.1087 7.59948Z" fill="#1399FF"/>
  <path d="M33.91 8.27156C34.6409 8.40798 35.3912 8.41773 36.122 8.3008C36.5507 8.24233 36.96 8.11566 37.34 7.91103C37.7785 7.65768 38.1 7.30689 38.2365 6.81968C38.5775 5.5919 38.0513 4.35439 36.7748 3.89641C36.1512 3.69178 35.4886 3.62357 34.8357 3.71127C33.2962 3.88667 32.2925 4.73441 31.8345 6.20579C31.513 7.20944 31.5519 8.23259 31.815 9.24598C32.1561 10.542 33.0136 11.3118 34.3095 11.5846C35.0501 11.7502 35.8004 11.721 36.541 11.6041C36.9307 11.5359 37.3205 11.4384 37.6908 11.2923C37.9149 11.2046 38.0318 11.0682 38.0221 10.8148C38.0124 10.5809 38.0221 10.3373 38.0221 10.0937C38.0221 9.8014 37.9052 9.71371 37.6226 9.78192C37.34 9.85013 37.0672 9.90859 36.7846 9.96706C36.1804 10.0937 35.5568 10.0937 34.9527 9.98654C34.1244 9.82089 33.5885 9.10957 33.6372 8.23259C33.7249 8.24233 33.8223 8.25207 33.91 8.27156ZM33.6664 6.7807C33.6957 6.54684 33.7639 6.32272 33.8516 6.10835C34.1439 5.39702 34.7578 5.15341 35.3814 5.19239C35.5568 5.20214 35.7322 5.24111 35.8979 5.30932C36.1512 5.41651 36.3169 5.65037 36.3461 5.92321C36.3753 6.08886 36.3656 6.26426 36.3169 6.42991C36.1999 6.7807 35.9173 6.92686 35.5763 6.99507C35.3717 7.04379 35.1573 7.06328 34.9429 7.04379C34.5629 7.04379 34.1731 7.01456 33.7931 6.95609C33.6957 6.9431 33.6534 6.88464 33.6664 6.7807Z" fill="#1399FF"/>
  <path d="M66.778 8.36934C67.3432 8.33036 67.9084 8.22317 68.4151 7.95033C68.9315 7.69698 69.292 7.21952 69.3992 6.65435C69.4674 6.30356 69.4674 5.93328 69.3895 5.58249C69.1849 4.70551 68.6294 4.15983 67.7914 3.87725C67.3237 3.73109 66.8268 3.67262 66.3395 3.69211C64.7025 3.73109 63.4553 4.55935 62.9486 6.19638C62.6075 7.27798 62.6562 8.37908 62.9875 9.46069C63.3286 10.5715 64.1081 11.2439 65.219 11.5459C65.6964 11.6629 66.1934 11.7116 66.6806 11.6921C67.3919 11.6824 68.1032 11.5459 68.7756 11.2926C69.0582 11.1854 69.1264 11.088 69.1264 10.7859V10.0843C69.1166 9.80173 68.9997 9.70429 68.7171 9.7725C68.5028 9.83097 68.2981 9.87969 68.0838 9.92841C67.4309 10.0843 66.7488 10.1135 66.0862 9.99662C65.4236 9.86994 64.9754 9.48992 64.8 8.82731C64.7512 8.63243 64.7123 8.43754 64.6928 8.23292C64.7415 8.23292 64.7902 8.23292 64.8292 8.2524C65.4723 8.36933 66.1252 8.41806 66.778 8.36934ZM64.7415 6.81026C64.8097 6.43024 64.8974 6.05996 65.1313 5.74814C65.4918 5.27067 65.9887 5.13426 66.5539 5.19272C66.6026 5.19272 66.6416 5.21221 66.6903 5.21221C67.3724 5.3194 67.5381 5.86507 67.4114 6.39126C67.314 6.78103 66.9924 6.92719 66.6319 6.9954C66.437 7.03438 66.2324 7.05387 66.0277 7.04412C65.6282 7.03438 65.2384 7.00514 64.8487 6.94668C64.761 6.93694 64.722 6.89796 64.7415 6.81026Z" fill="#1399FF"/>
</svg>
