<svg width="225" height="225" viewBox="0 0 225 225" fill="none" xmlns="http://www.w3.org/2000/svg">
  <path d="M225 0H0V225H225V0Z" fill="url(#prime)"/>
  <path d="M137.427 100.934C138.405 100.347 139.423 99.7206 140.48 99.1726C143.22 97.7636 146.273 97.059 149.365 97.2156C151.596 97.333 153.631 97.9593 155.197 99.6032C156.685 101.13 157.233 103.009 157.389 105.044C157.428 105.474 157.428 105.905 157.428 106.375V126.65C157.428 128.412 157.193 128.646 155.432 128.646H150.657C150.344 128.646 150.03 128.646 149.717 128.607C149.248 128.568 148.856 128.176 148.778 127.708C148.7 127.277 148.7 126.846 148.7 126.416V108.293C148.739 107.55 148.66 106.844 148.465 106.14C148.152 104.926 147.056 104.065 145.803 103.987C143.494 103.831 141.184 104.3 139.071 105.279C138.758 105.357 138.562 105.67 138.601 105.983V126.571C138.601 126.963 138.601 127.315 138.523 127.708C138.523 128.255 138.092 128.646 137.544 128.646C136.957 128.686 136.37 128.686 135.744 128.686H131.595C130.147 128.686 129.833 128.332 129.833 126.884V108.372C129.833 107.705 129.794 107.001 129.638 106.336C129.364 105.005 128.229 104.065 126.898 103.987C124.549 103.831 122.161 104.3 120.048 105.318C119.735 105.396 119.539 105.748 119.617 106.062V126.925C119.617 128.373 119.304 128.686 117.856 128.686H112.611C111.241 128.686 110.889 128.294 110.889 126.963V99.7989C110.889 99.4859 110.928 99.1726 111.006 98.8596C111.163 98.3899 111.632 98.1159 112.102 98.1159H116.995C117.699 98.1159 118.13 98.5465 118.365 99.2119C118.561 99.7599 118.678 100.269 118.874 100.856C119.265 100.856 119.5 100.582 119.774 100.425C121.927 99.0945 124.197 97.9593 126.741 97.4896C128.698 97.0982 130.655 97.0982 132.612 97.4896C134.452 97.881 136.096 98.9769 137.153 100.543C137.231 100.66 137.309 100.738 137.388 100.817C137.348 100.856 137.388 100.856 137.427 100.934Z" fill="#00A8E1"/>
  <path d="M94.8387 113.303V99.408C94.878 98.4685 95.2303 98.1164 96.1696 98.0771C98.2049 98.038 100.24 98.038 102.276 98.0771C103.176 98.0771 103.45 98.3511 103.528 99.2514C103.567 99.6037 103.567 99.9167 103.567 100.269V126.337C103.567 126.769 103.528 127.198 103.489 127.629C103.45 128.138 103.058 128.489 102.55 128.53C102.315 128.569 102.119 128.569 101.884 128.569H96.4436C96.2479 128.569 96.0913 128.569 95.8956 128.53C95.3476 128.489 94.878 128.06 94.8387 127.511C94.7996 127.198 94.7996 126.885 94.7996 126.571C94.8387 122.229 94.8387 117.766 94.8387 113.303ZM99.3792 84.0644C100.005 84.0253 100.632 84.1427 101.219 84.3384C103.332 85.043 104.428 86.8827 104.233 89.2703C104.076 91.3056 102.55 92.9495 100.514 93.2628C99.6532 93.4192 98.7529 93.4192 97.8919 93.2628C95.6607 92.8322 94.0167 91.1882 94.1733 88.37C94.4083 85.591 96.2479 84.0644 99.3792 84.0644Z" fill="#00A8E1"/>
  <path d="M79.5742 102.421C79.8482 102.343 80.083 102.186 80.2396 101.952C80.9442 101.247 81.6879 100.582 82.4706 99.9555C84.5059 98.3898 87.0501 97.6069 89.5944 97.8028C90.612 97.8418 90.9644 98.1549 91.0427 99.1335C91.121 100.464 91.0817 101.834 91.0817 103.165C91.121 103.713 91.0817 104.222 91.0034 104.77C90.847 105.474 90.573 105.748 89.8684 105.827C89.3204 105.866 88.8117 105.827 88.2637 105.788C85.6411 105.553 83.0969 106.062 80.6309 106.883C80.083 107.08 80.083 107.471 80.083 107.902V126.689C80.083 127.041 80.083 127.354 80.0439 127.708C80.0046 128.216 79.6133 128.607 79.1044 128.607C78.8304 128.646 78.5173 128.646 78.2433 128.646H73.1548C72.8808 128.646 72.5678 128.646 72.2938 128.607C71.7849 128.568 71.3935 128.137 71.3544 127.629C71.3152 127.315 71.3152 127.002 71.3152 126.689V100.073C71.3152 98.2724 71.5109 98.0768 73.3114 98.0768H77.069C78.0867 98.0768 78.5564 98.4289 78.8304 99.4075C79.1044 100.386 79.3393 101.364 79.5742 102.421Z" fill="#00A8E1"/>
  <path d="M65.5217 110.093C65.3652 108.059 64.8172 106.061 63.9953 104.222C62.3904 100.856 59.9244 98.3899 56.1668 97.5286C51.8613 96.5893 47.9863 97.5286 44.4635 100.151C44.2285 100.386 43.9545 100.582 43.6415 100.738C43.5632 100.699 43.4849 100.66 43.4849 100.621C43.3675 100.23 43.2892 99.838 43.1718 99.4466C42.8586 98.468 42.4672 98.1159 41.4105 98.1159C40.2362 98.1159 39.0229 98.155 37.8486 98.1159C36.9483 98.0766 36.1263 98.194 35.5 98.8986C35.5 112.599 35.5 126.337 35.5391 139.998C36.048 140.82 36.8309 140.976 37.731 140.938C39.1402 140.897 40.5492 140.938 41.9585 140.938C44.4244 140.938 44.4244 140.938 44.4244 138.511V127.354C44.4244 127.081 44.3068 126.768 44.5808 126.532C46.538 128.06 48.9257 129 51.3916 129.234C54.8359 129.585 57.9674 128.725 60.5898 126.376C62.5077 124.614 63.917 122.344 64.6606 119.84C65.7173 116.63 65.7956 113.382 65.5217 110.093ZM56.1668 118.196C55.8928 119.409 55.2665 120.505 54.3663 121.327C53.3486 122.187 52.096 122.696 50.7653 122.696C48.769 122.814 46.812 122.383 45.0505 121.445C44.6201 121.248 44.3461 120.818 44.3851 120.349V113.264C44.3851 110.914 44.4244 108.567 44.3851 106.218C44.3461 105.67 44.6591 105.2 45.1681 105.005C47.3208 103.987 49.552 103.517 51.9003 103.987C53.5443 104.222 54.9535 105.279 55.6189 106.806C56.2059 108.059 56.5582 109.428 56.6365 110.798C56.8715 113.302 56.8715 115.808 56.1668 118.196Z" fill="#00A8E1"/>
  <path d="M171.714 115.847C174.65 116.394 177.662 116.433 180.599 115.963C182.32 115.729 183.966 115.221 185.491 114.399C187.253 113.38 188.545 111.972 189.092 110.015C190.463 105.083 188.349 100.112 183.221 98.272C180.715 97.45 178.055 97.176 175.433 97.5283C169.247 98.2329 165.216 101.638 163.376 107.548C162.085 111.58 162.241 115.691 163.298 119.761C164.668 124.966 168.112 128.06 173.317 129.154C176.293 129.819 179.308 129.703 182.282 129.234C183.848 128.959 185.412 128.568 186.901 127.981C187.8 127.629 188.27 127.079 188.231 126.062C188.193 125.123 188.231 124.144 188.231 123.166C188.231 121.992 187.761 121.64 186.626 121.913C185.491 122.187 184.395 122.423 183.26 122.657C180.833 123.166 178.329 123.166 175.901 122.735C172.575 122.069 170.421 119.214 170.618 115.691C170.97 115.729 171.361 115.768 171.714 115.847ZM170.734 109.859C170.852 108.919 171.127 108.018 171.479 107.158C172.652 104.3 175.12 103.321 177.624 103.478C178.329 103.517 179.033 103.674 179.698 103.948C180.715 104.378 181.381 105.317 181.498 106.413C181.616 107.078 181.578 107.784 181.38 108.449C180.913 109.859 179.778 110.445 178.407 110.719C177.585 110.915 176.724 110.994 175.862 110.915C174.336 110.915 172.77 110.797 171.245 110.563C170.657 110.483 170.657 110.483 170.734 109.859Z" fill="#00A8E1"/>
  <defs>
    <linearGradient id="prime" x1="112.5" y1="0" x2="112.5" y2="225" gradientUnits="userSpaceOnUse">
      <stop stop-color="#07082B"/>
      <stop offset="1"/>
    </linearGradient>
  </defs>
</svg>
