<svg width="64" height="25" viewBox="0 0 64 25" fill="none" xmlns="http://www.w3.org/2000/svg">
  <path d="M13.251 4.20006C14.1446 3.12425 14.5874 1.7445 14.4868 0.349609C13.1173 0.481798 11.853 1.14211 10.9621 2.19058C10.5185 2.69279 10.1784 3.27772 9.96153 3.91175C9.74464 4.54579 9.65518 5.21644 9.69829 5.88515C10.3805 5.89853 11.0565 5.75328 11.673 5.46086C12.2896 5.16844 12.8298 4.73683 13.251 4.20006ZM14.4025 6.13932C12.4366 6.02558 10.7796 7.26272 9.83871 7.26272C8.89787 7.26272 7.46554 6.20111 5.92086 6.22919C4.90945 6.2577 3.92322 6.55114 3.06075 7.08021C2.19827 7.60928 1.48975 8.35543 1.006 9.24412C-1.10038 12.8952 0.444296 18.3338 2.4945 21.3066C3.49151 22.7193 4.68512 24.403 6.27192 24.3482C7.85872 24.2934 8.35021 23.3652 10.1617 23.3652C11.9732 23.3652 12.5068 24.3482 14.0795 24.3131C15.6523 24.278 16.7476 22.8976 17.7306 21.3642C18.4396 20.3168 18.993 19.1721 19.3736 17.9659C18.4293 17.5479 17.626 16.8658 17.0605 16.0017C16.4949 15.1377 16.1912 14.1286 16.1859 13.096C16.1975 12.1797 16.4389 11.281 16.8879 10.4822C17.3368 9.68341 17.979 9.01002 18.7557 8.52374C18.2622 7.81817 17.6128 7.23579 16.8579 6.82179C16.1029 6.40778 15.2627 6.17329 14.4025 6.13651M26.9425 3.30555V7.31468H30.1441V9.96169H26.9425V19.4474C26.9425 20.8629 27.5744 21.5846 28.9786 21.5846C29.3637 21.5777 29.7481 21.5496 30.1301 21.5004V24.1685C29.5034 24.27 28.8691 24.3169 28.2344 24.3089C24.9203 24.3089 23.6425 23.0212 23.6425 19.7928V10.0249H21.1289V7.37085H23.5723V3.30836L26.9425 3.30555ZM41.336 24.1628H37.8254L31.9275 7.37085H35.4241L39.5666 20.8629H39.6509L43.7934 7.37085H47.2198L41.336 24.1628ZM56.7546 24.1628H53.7215V17.282H47.2058V14.2517H53.7074V7.37085H56.7406V14.2517H63.2563V17.282H56.7546V24.1628Z" fill="black"/>
</svg>
