<svg width="225" height="225" viewBox="0 0 225 225" fill="none" xmlns="http://www.w3.org/2000/svg">
  <path d="M225 0H0V225H225V0Z" fill="black"/>
  <mask id="mask0_0_1" style="mask-type:luminance" maskUnits="userSpaceOnUse" x="35" y="83" width="155" height="59">
    <path d="M189.941 83.2065H35.9414V141.794H189.941V83.2065Z" fill="white"/>
  </mask>
  <g mask="url(#mask0_0_1)">
    <path d="M68.1999 92.606C70.3754 89.9798 71.4534 86.6116 71.2084 83.2065C67.8742 83.5292 64.7964 85.1411 62.6274 87.7006C61.5473 88.9265 60.7194 90.3544 60.1914 91.9022C59.6634 93.4499 59.4456 95.0871 59.5505 96.7195C61.2114 96.7521 62.8572 96.3976 64.3582 95.6837C65.8592 94.9699 67.1743 93.9163 68.1999 92.606ZM71.0033 97.3399C66.2171 97.0623 62.183 100.082 59.8924 100.082C57.6019 100.082 54.1148 97.4908 50.3542 97.5593C47.8918 97.6289 45.4908 98.3453 43.391 99.6368C41.2913 100.928 39.5663 102.75 38.3886 104.919C33.2605 113.832 37.0211 127.108 42.0125 134.365C44.4398 137.814 47.3457 141.924 51.2088 141.79C55.072 141.656 56.2686 139.391 60.6787 139.391C65.0889 139.391 66.388 141.79 70.217 141.704C74.0459 141.619 76.7125 138.249 79.1057 134.506C80.8319 131.949 82.1792 129.155 83.1056 126.21C80.8067 125.19 78.8511 123.525 77.4742 121.415C76.0973 119.306 75.3579 116.843 75.3451 114.322C75.3734 112.085 75.961 109.891 77.054 107.941C78.147 105.991 79.7105 104.348 81.6013 103.161C80.3999 101.438 78.8189 100.017 76.981 99.0059C75.143 97.9953 73.0975 97.4229 71.0033 97.3331M101.533 90.4224V100.209H109.327V106.671H101.533V129.827C101.533 133.282 103.071 135.044 106.49 135.044C107.427 135.027 108.363 134.958 109.293 134.838V141.351C107.767 141.599 106.223 141.714 104.678 141.694C96.6095 141.694 93.4985 138.551 93.4985 130.67V106.825H87.379V100.346H93.3276V90.4292L101.533 90.4224ZM136.574 141.338H128.028L113.669 100.346H122.182L132.267 133.282H132.472L142.557 100.346H150.899L136.574 141.338ZM174.112 141.338H166.728V124.541H150.865V117.143H166.693V100.346H174.078V117.143H189.941V124.541H174.112V141.338Z" fill="white"/>
  </g>
</svg>
