<svg width="225" height="225" viewBox="0 0 225 225" fill="none" xmlns="http://www.w3.org/2000/svg">
  <path d="M225 0H0V225H225V0Z" fill="url(#disney)"/>
  <path d="M59.6705 103.303C54.9956 101.982 47.5204 100.224 39.3383 102.404C37.8184 102.808 36.7862 103.478 36.0629 104.748C35.7021 105.383 35.3701 106.07 35.5508 106.77C35.7074 107.365 36.5588 107.574 37.2421 107.683C37.9 107.786 39.3902 107.865 39.7921 107.386C40.0014 107.136 40.0068 106.432 38.9154 106.203C38.5122 106.119 37.4156 106.081 37.3319 105.896C37.3319 105.896 37.37 105.768 37.9717 105.582C38.2375 105.5 40.1876 104.698 45.5161 104.87C51.8525 105.074 57.387 106.556 63.2401 108.858C68.9672 111.11 75.4029 115.183 79.1778 120.032C80.6057 121.867 82.3781 124.882 82.6121 127.42C83.1779 133.585 77.1493 138.787 64.909 138.369C62.817 138.298 60.2745 137.802 60.2745 137.802L60.0205 125.901C60.0205 125.901 65.1998 125.862 70.9261 127.744C71.4136 127.905 71.9032 128.223 71.9478 128.695C71.9794 129.058 71.6927 129.37 71.3703 129.651C70.7769 130.168 69.9604 130.393 69.7807 130.613C69.6505 130.772 69.6495 131.013 69.8188 131.147C70.2492 131.479 71.3056 131.705 72.0185 131.643C73.4623 131.515 74.4227 130.682 75.1481 129.59C75.9212 128.426 76.3613 125.466 72.248 123.578C66.9313 121.137 59.9824 121.596 59.9824 121.596C59.9824 121.596 59.9467 119.983 59.8747 118.908C59.7552 117.146 59.2664 113.683 57.6588 112.685C57.3649 112.504 57.0041 112.483 56.8012 112.756C56.4892 113.163 56.1825 114.713 56.1149 115.115C55.5097 118.718 55.5416 121.949 55.5097 121.995C55.4912 122.016 55.4703 122.036 55.4474 122.053C55.384 122.093 51.5415 122.551 47.8323 124.156C46.3516 124.796 44.2343 125.952 43.5921 127.439C42.7639 129.358 44.2205 131.459 46.6794 133.785C48.762 135.755 51.8324 137.829 54.1074 138.902C54.687 139.175 55.3681 139.513 55.3681 139.513C55.3681 139.513 55.515 140.888 55.6334 141.682C56.0609 144.546 58.247 144.129 58.8498 144.006C59.8293 143.806 60.0174 143.156 60.1528 142.401C60.2268 141.99 60.1963 141.394 60.1963 141.394C60.1963 141.394 61.6769 141.735 62.6712 141.915C65.5626 142.449 68.7039 142.541 71.4264 142.17C82.3147 140.684 85.0583 135.561 85.9256 134.193C87.4327 131.814 90.6299 125.187 80.999 115.35C78.7991 113.102 72.4395 106.912 59.6684 103.302L59.6705 103.303ZM45.2918 130.115C44.8963 129.707 44.5917 129.265 44.6848 128.732C44.7735 128.217 45.7826 127.763 46.2923 127.613C51.204 126.167 55.367 126.093 55.367 126.093C55.367 126.093 55.3279 127.853 55.3193 129.633C55.3034 133.005 55.3924 136.427 55.3924 136.427C55.3924 136.427 49.8523 134.815 45.2918 130.114V130.115ZM95.179 117.727C97.4814 116.826 99.2593 115.533 101.059 113.693C102.111 112.625 103.033 110.869 102.695 109.268C102.525 108.473 102.161 107.925 101.496 107.352C101.165 107.068 100.407 106.667 99.7904 106.544C99.6115 106.508 99.4211 106.495 99.3439 106.445C99.2562 106.389 99.1863 106.274 99.1007 106.167C98.6977 105.656 97.8972 105.167 97.3218 104.969C95.5554 104.359 93.1989 104.819 91.5903 105.496C89.8896 106.216 88.3212 107.27 87.1291 108.546C84.0016 111.894 85.3757 114.547 85.6538 115.041C85.8906 115.459 86.3296 115.911 86.4259 116.348C86.484 116.608 86.4321 116.948 86.4428 117.255C86.465 117.96 86.7717 118.686 87.3015 119.154C87.6813 119.488 88.227 119.588 88.776 118.756C88.96 118.477 89.2667 117.91 89.2667 117.91C89.2667 117.91 89.9045 118.279 91.4455 118.386C92.594 118.467 94.1679 118.121 95.179 117.727ZM87.8008 113.681C87.8008 113.681 87.6941 113.458 87.6252 113.29C87.1513 112.113 88.1975 110.786 89.1525 109.973C91.0118 108.391 92.594 108.429 92.594 108.429C92.594 108.429 92.2155 108.732 91.9012 109.007C89.1874 111.378 87.8008 113.681 87.8008 113.681ZM91.8707 113.637C93.0077 112.173 95.1122 110.357 96.5802 109.482C97.73 108.796 98.7231 108.608 99.4646 108.934C99.9044 109.127 100.257 109.525 100.317 110.059C100.514 111.709 98.6057 113.089 97.3302 113.833C94.4312 115.522 91.0024 115.139 90.9145 114.986C90.9019 114.946 91.6083 113.983 91.8717 113.637H91.8707ZM160.894 122.61C157.204 120.052 151.25 128.162 148.631 132.183C148.241 130.136 149.628 127.538 149.628 127.538C149.628 127.538 151.851 123.693 152.166 122.913C152.47 122.127 152.646 120.512 152.264 120.351C151.918 120.192 151.319 120.709 151.319 120.709C146.326 125.185 145.628 130.151 145.628 130.151C145.156 132.824 145.707 134.702 146.517 136.016C143.742 141.922 142.384 147.073 142.746 150.119C143.082 152.437 144.746 154.114 145.755 154.467C146.774 154.892 146.955 153.668 146.955 153.668C147.781 147.368 149.224 143.157 150.942 138.994C156.147 140.188 160.064 135.128 161.45 132.71C162.266 131.258 162.704 129.32 162.704 127.497C162.704 125.42 162.132 123.494 160.894 122.609V122.61ZM157.502 132.652C156.904 133.218 154.927 134.329 152.876 134.559C154.83 130.776 157.258 127.991 158.603 126.506C160.168 124.745 160.373 126.345 160.373 126.345C160.738 129.452 158.474 131.791 157.501 132.653L157.502 132.652ZM143.795 135.647C144.043 134.701 143.181 133.664 142.402 133.47C141.674 133.32 136.089 134.366 135.421 134.546C134.703 134.738 135.024 134.064 135.024 134.064L135.887 131.148C135.887 131.148 141.217 130.943 141.994 130.813C142.711 130.684 142.754 130.178 142.754 130.178C142.754 130.178 142.846 129.344 142.82 128.564C142.741 127.729 142.073 127.806 142.073 127.806C140.012 127.591 137.178 127.834 137.178 127.834L137.893 125.596C137.893 125.596 143.563 125.32 145.72 124.824C146.827 124.563 146.176 123.477 146.176 123.477C144.831 120.792 143.282 120.943 143.282 120.943C138.822 120.794 132.34 121.975 131.634 122.324C130.973 122.624 131.045 123.122 131.907 124.207C132.832 125.35 134.389 125.243 134.389 125.243L133.023 128.066C131.907 128.145 131.524 128.492 131.524 128.492C130.881 129.178 131.768 131.204 131.768 131.204C131.768 131.204 129.832 135.542 131.236 137.833C132.745 140.238 134.529 140.123 134.529 140.123C137.924 140.37 143.499 136.82 143.796 135.647H143.795ZM124.305 118.413C124.305 118.413 123.515 118.044 123.316 118.831C123.115 119.61 123.413 120.44 123.413 120.44C125.379 127.102 125.825 131.038 125.825 131.038C125.825 131.038 125.916 132.195 125.691 132.26C125.534 132.379 125.358 132.214 125.358 132.214C125.133 132.223 122.977 128.611 122.977 128.611L122.558 127.904C120.186 124.081 118.749 122.778 118.749 122.778C118.412 122.464 117.549 121.599 116.474 122.791C115.397 123.991 114.555 127.846 114.216 131.469C113.927 135.084 114.147 137.142 114.675 138.01C115.256 138.889 116.377 139.189 117.302 138.436C118.279 137.686 118.095 132.916 118.249 130.47C118.397 128.014 118.64 128.453 118.64 128.453C118.855 128.395 119.974 130.643 119.974 130.643C119.974 130.643 122.923 136.672 124.775 137.565C126.651 138.455 128.161 137.022 128.732 135.679C129.312 134.327 130.299 129.855 128.83 124.898C127.352 119.943 124.304 118.413 124.304 118.413H124.305ZM93.6666 131.172C93.5904 129.523 93.3935 125.313 92.9326 123.41C92.7326 122.592 92.4015 121.845 91.5945 121.537C91.5066 121.504 91.416 121.478 91.3237 121.459C90.8193 121.361 90.5295 122.056 90.393 122.401C89.9944 123.424 89.7067 125.866 89.6285 126.628C89.3914 128.935 89.1989 134.402 89.5998 137.187C89.768 138.355 90.1531 139.113 91.3344 139.357C91.8136 139.456 92.6861 139.437 93.0701 139.192C93.4053 138.984 93.639 138.579 93.7172 138.23C93.934 137.259 93.8495 135.883 93.8062 134.848C93.7543 133.626 93.7237 132.408 93.6676 131.172H93.6666ZM112.735 121.96C110.186 120.607 105.99 120.604 103.395 120.926C100.714 121.257 97.1251 122.093 95.5924 124.293C95.0076 125.133 94.6649 126.424 94.9335 127.475C95.0859 128.059 95.5069 128.503 96.118 128.821C97.2044 129.386 100.828 129.506 102.443 129.679C103.965 129.842 106.768 130.112 108.313 130.757C108.313 130.757 109.775 131.266 109.766 132.1C109.763 132.512 109.454 132.841 109.141 133.064C106.848 134.686 103.696 135.147 100.894 135.101C99.9436 135.089 99.161 134.939 98.1964 134.526C97.7861 134.346 97.253 134.019 97.3249 133.459C97.4402 132.562 98.4661 132.341 99.2815 132.418C99.7364 132.459 100.331 132.654 100.777 132.828C102.575 133.537 103.395 134.134 104.977 133.893C105.567 133.803 107.613 133.36 107.888 132.519C107.956 132.314 107.858 132.092 107.707 131.939C107.491 131.718 106.261 131.24 105.927 131.119C104.722 130.691 102.439 130.299 101.169 130.251C99.5048 130.192 97.2149 130.532 96.2651 131.912C95.4096 133.157 95.2171 135.661 99.4646 137.769C101.439 138.748 103.831 139.183 106.037 138.941C107.297 138.796 110.928 138.232 112.301 135.347C113.039 133.796 112.967 131.723 112.172 130.251C111.65 129.28 111.011 127.988 106.273 127.392C105.515 127.297 99.9415 126.653 99.4297 126.573C99.1461 126.528 97.8411 126.374 98.2989 125.877C98.428 125.733 98.8235 125.627 99.053 125.562C101.98 124.763 105.694 124.854 108.767 124.682C109.453 124.64 111.014 124.546 111.769 124.306C112.488 124.082 113.082 123.574 113.248 122.785C113.33 122.366 113.129 122.168 112.736 121.959L112.735 121.96ZM188.763 125.562H180.006C179.912 122.563 179.605 119.574 179.09 116.618C179.047 116.374 178.92 116.153 178.73 115.994C178.541 115.834 178.301 115.747 178.053 115.747H175.692C175.584 115.747 175.477 115.771 175.379 115.817C175.281 115.863 175.194 115.931 175.125 116.014C175.056 116.098 175.006 116.195 174.979 116.3C174.952 116.405 174.948 116.515 174.968 116.621C175.521 119.572 175.849 122.561 175.949 125.562H167.052C166.955 125.562 166.859 125.581 166.77 125.618C166.68 125.656 166.599 125.71 166.531 125.779C166.462 125.848 166.408 125.929 166.371 126.019C166.334 126.108 166.315 126.204 166.315 126.301V128.983C166.315 129.08 166.334 129.176 166.371 129.266C166.408 129.356 166.462 129.437 166.531 129.506C166.599 129.574 166.68 129.629 166.77 129.666C166.859 129.703 166.955 129.723 167.052 129.723H175.949C175.849 132.723 175.521 135.712 174.968 138.663C174.948 138.77 174.952 138.879 174.979 138.984C175.006 139.089 175.056 139.187 175.125 139.271C175.194 139.354 175.281 139.421 175.379 139.467C175.477 139.514 175.584 139.538 175.692 139.538H178.053C178.301 139.538 178.541 139.45 178.73 139.291C178.92 139.132 179.047 138.91 179.09 138.666C179.605 135.71 179.912 132.722 180.006 129.723H188.763C188.86 129.723 188.956 129.703 189.045 129.666C189.135 129.629 189.216 129.574 189.285 129.506C189.353 129.437 189.407 129.356 189.444 129.266C189.481 129.176 189.5 129.08 189.5 128.983V126.301C189.5 126.204 189.481 126.108 189.444 126.019C189.407 125.929 189.353 125.848 189.285 125.779C189.216 125.71 189.135 125.656 189.045 125.618C188.956 125.581 188.86 125.562 188.763 125.562ZM68.1739 93.105C68.5209 93.3458 69.0076 93.1673 69.3555 92.7945C72.3591 89.5611 75.6452 86.7491 79.3883 84.1962C103.946 67.4443 139.997 69.879 161.091 91.1086C168.019 98.0464 171.833 105.493 173.834 111.346C173.904 111.555 174.038 111.736 174.217 111.865C174.396 111.993 174.61 112.063 174.83 112.063H177.252C177.756 112.063 178.113 111.568 177.951 111.089C175.326 103.326 170.243 94.8036 162.858 87.8731C140.717 67.044 104.85 64.7286 79.8579 81.7592C75.7689 84.5172 71.7065 88.0495 68.1369 92.0866C67.7848 92.485 67.9042 92.9179 68.1729 93.105H68.1739Z" fill="white"/>
  <defs>
    <linearGradient id="disney" x1="112.5" y1="0" x2="112.5" y2="225" gradientUnits="userSpaceOnUse">
      <stop stop-color="#054553"/>
      <stop offset="1" stop-color="#02172A"/>
    </linearGradient>
  </defs>
</svg>
