<svg width="46" height="25" viewBox="0 0 46 25" fill="none" xmlns="http://www.w3.org/2000/svg">
  <g clip-path="url(#disney)">
    <path d="M32.1456 15.8839C31.5339 16.0241 29.924 16.1048 29.924 16.1048L29.7201 16.742C29.7201 16.742 30.523 16.674 31.1092 16.7335C31.1092 16.7335 31.3003 16.7123 31.3216 16.9501C31.33 17.171 31.3046 17.4089 31.3046 17.4089C31.3046 17.4089 31.2918 17.5533 31.0879 17.5873C30.867 17.6255 29.3548 17.6808 29.3548 17.6808L29.1085 18.5091C29.1085 18.5091 29.0193 18.7002 29.2231 18.645C29.4143 18.594 30.9987 18.2967 31.2069 18.3392C31.4277 18.3944 31.6741 18.6875 31.6019 18.9593C31.517 19.2907 29.9368 20.3016 28.9725 20.2294C28.9725 20.2294 28.467 20.2634 28.038 19.5795C27.6387 18.9296 28.1909 17.6935 28.1909 17.6935C28.1909 17.6935 27.9403 17.1158 28.123 16.9246C28.123 16.9246 28.2334 16.8269 28.5477 16.8015L28.9343 15.9986C28.9343 15.9986 28.4925 16.0284 28.2292 15.7055C27.9828 15.3954 27.9658 15.2553 28.1527 15.1703C28.3523 15.0726 30.1916 14.737 31.4575 14.7795C31.4575 14.7795 31.8993 14.737 32.2773 15.5016C32.2731 15.5016 32.46 15.8117 32.1456 15.8839ZM27.3839 18.9678C27.2224 19.3501 26.7934 19.7579 26.2624 19.5031C25.7357 19.2482 24.8989 17.5363 24.8989 17.5363C24.8989 17.5363 24.5803 16.8992 24.5208 16.9119C24.5208 16.9119 24.4529 16.7887 24.4104 17.4854C24.3679 18.182 24.4189 19.537 24.1428 19.7494C23.8794 19.9618 23.5608 19.8769 23.3952 19.6262C23.2465 19.3799 23.1828 18.7937 23.2635 17.7657C23.3612 16.7377 23.5991 15.6418 23.9049 15.2977C24.2108 14.9579 24.4571 15.2043 24.5506 15.2935C24.5506 15.2935 24.9584 15.6631 25.6338 16.7505L25.7527 16.9501C25.7527 16.9501 26.3644 17.9781 26.4281 17.9738C26.4281 17.9738 26.4791 18.0206 26.5216 17.9866C26.5853 17.9696 26.5598 17.6383 26.5598 17.6383C26.5598 17.6383 26.4324 16.5211 25.8759 14.6266C25.8759 14.6266 25.7909 14.3887 25.8504 14.1678C25.9056 13.9427 26.1308 14.0489 26.1308 14.0489C26.1308 14.0489 26.9973 14.4822 27.4136 15.8924C27.8256 17.3154 27.5453 18.5855 27.3839 18.9678ZM23.1276 15.3445C23.0554 15.4889 23.0129 15.697 22.6476 15.7523C22.6476 15.7523 19.1516 15.9901 18.986 16.2365C18.986 16.2365 18.8628 16.3809 19.0539 16.4234C19.2451 16.4616 20.0352 16.5678 20.4175 16.5891C20.8253 16.5933 22.2016 16.6061 22.6943 17.222C22.6943 17.222 22.9874 17.5151 22.9747 18.1777C22.9619 18.8574 22.843 19.0953 22.5796 19.3416C22.3035 19.571 19.9332 20.633 18.404 19.0018C18.404 19.0018 17.6989 18.216 18.6462 17.6213C18.6462 17.6213 19.33 17.2092 21.0674 17.6935C21.0674 17.6935 21.5941 17.8846 21.5686 18.0758C21.5389 18.2797 21.1354 18.4963 20.5492 18.4836C19.98 18.4666 19.5637 18.1947 19.6444 18.2372C19.7208 18.2669 19.0327 17.9059 18.8203 18.1523C18.6079 18.3774 18.6589 18.5176 18.867 18.6577C19.398 18.9593 21.4497 18.8531 22.0614 18.1735C22.0614 18.1735 22.3035 17.8974 21.9339 17.6723C21.5644 17.4599 20.5067 17.3324 20.0947 17.3112C19.6996 17.29 18.2299 17.3154 18.0175 16.9246C18.0175 16.9246 17.8051 16.6613 18.0387 15.9137C18.2851 15.1321 19.997 14.8305 20.7361 14.7625C20.7361 14.7625 22.7708 14.6903 23.1446 15.1066C23.1403 15.1066 23.1913 15.2043 23.1276 15.3445ZM17.3506 19.9278C17.1042 20.1105 16.5817 20.0298 16.4331 19.8259C16.2844 19.6432 16.2334 18.9169 16.2631 17.7785C16.2929 16.6273 16.3184 15.2 16.5647 14.9749C16.8281 14.7455 16.9895 14.9452 17.0915 15.1023C17.2019 15.2553 17.3336 15.4252 17.3633 15.7862C17.3888 16.1473 17.4738 18.0418 17.4738 18.0418C17.4738 18.0418 17.5842 19.7494 17.3506 19.9278ZM17.8816 13.8195C17.1637 14.0574 16.6709 13.9767 16.2547 13.7983C16.072 14.1169 15.9658 14.2146 15.8256 14.2358C15.6217 14.257 15.4391 13.93 15.4051 13.8238C15.3711 13.7431 15.2734 13.6071 15.3924 13.2843C14.9846 12.919 14.9548 12.4262 15.0228 12.0949C15.1247 11.7126 15.8129 10.2599 17.907 10.09C17.907 10.09 18.9308 10.0135 19.1049 10.5615H19.1347C19.1347 10.5615 20.1286 10.5657 20.1074 11.4492C20.0947 12.337 19.003 13.4415 17.8816 13.8195ZM15.9276 11.8528C15.7152 12.1926 15.7067 12.3965 15.8044 12.5367C16.0465 12.1671 16.4883 11.5852 17.1382 11.1434C16.637 11.1859 16.2164 11.4025 15.9276 11.8528ZM18.8203 11.2836C18.1619 11.3813 17.1424 12.2648 16.6582 12.9869C17.4016 13.1229 18.7141 13.0719 19.2961 11.8868C19.2918 11.8868 19.5722 11.1519 18.8203 11.2836ZM36.695 18.1268C36.3 18.8149 35.1913 20.2507 33.7131 19.9151C33.2246 21.1002 32.8168 22.2938 32.5831 24.0864C32.5831 24.0864 32.5322 24.4347 32.2433 24.3115C31.9587 24.2096 31.483 23.7338 31.3895 23.0754C31.2876 22.2089 31.6741 20.7434 32.46 19.0655C32.2306 18.6917 32.0734 18.1565 32.2093 17.3961C32.2093 17.3961 32.409 15.9859 33.8235 14.7115C33.8235 14.7115 33.9934 14.5629 34.0911 14.6096C34.2016 14.6563 34.1506 15.1151 34.0614 15.336C33.9722 15.5569 33.3393 16.6528 33.3393 16.6528C33.3393 16.6528 32.9442 17.3919 33.0547 17.9738C33.798 16.8312 35.4886 14.5246 36.5378 15.251C36.8904 15.5016 37.0518 16.0496 37.0518 16.64C37.0476 17.1625 36.9244 17.7147 36.695 18.1268ZM36.3892 16.3172C36.3892 16.3172 36.3297 15.8627 35.8879 16.3639C35.5056 16.7845 34.8175 17.5788 34.261 18.6535C34.843 18.5898 35.4037 18.2712 35.5736 18.1098C35.8497 17.8634 36.4911 17.2008 36.3892 16.3172ZM15.7662 16.8949C15.6854 17.9229 15.2904 19.6517 12.4911 20.5055C10.6433 21.062 8.89748 20.7944 7.94598 20.5523C7.92474 20.9303 7.88226 21.0917 7.82279 21.1554C7.74209 21.2361 7.1389 21.5845 6.80757 21.0917C6.6589 20.8581 6.58244 20.4333 6.53996 20.0553C4.39908 19.0698 3.41359 17.651 3.37536 17.5873C3.32864 17.5406 2.84014 17.0308 3.32864 16.4064C3.7874 15.8415 5.28687 15.2765 6.63766 15.0471C6.68439 13.8917 6.82032 13.0209 6.98173 12.6216C7.17713 12.1586 7.4235 12.5749 7.63589 12.8892C7.8143 13.1229 7.92049 14.1296 7.92899 14.9324C8.81253 14.89 9.33501 14.9537 10.3205 15.1321C11.6033 15.3657 12.4614 16.0199 12.3849 16.7632C12.3297 17.4938 11.6585 17.7954 11.4037 17.8167C11.1361 17.8379 10.7198 17.6468 10.7198 17.6468C10.4352 17.5108 10.6985 17.3919 11.0426 17.2432C11.4164 17.0606 11.3315 16.8737 11.3315 16.8737C11.1913 16.4659 9.52616 16.1813 7.86952 16.1813C7.86102 17.0946 7.90775 18.611 7.92899 19.4946C9.08863 19.7154 9.95518 19.673 9.95518 19.673C9.95518 19.673 14.186 19.554 14.3134 16.8524C14.4451 14.1466 10.0954 11.5512 6.87979 10.7271C3.66846 9.88606 1.85041 10.4723 1.69324 10.553C1.52333 10.6379 1.68049 10.6634 1.68049 10.6634C1.68049 10.6634 1.85465 10.6889 2.15625 10.7908C2.47483 10.8928 2.22846 11.0585 2.22846 11.0585C1.68049 11.2326 1.06456 11.1222 0.945627 10.8715C0.826689 10.6209 1.02633 10.3958 1.25572 10.073C1.4851 9.73314 1.73572 9.74588 1.73572 9.74588C5.7074 8.3696 10.5456 10.8588 10.5456 10.8588C15.078 13.1569 15.8511 15.85 15.7662 16.8949ZM3.7789 16.7547C3.32864 16.9756 3.63872 17.2942 3.63872 17.2942C4.48403 18.2032 5.52474 18.7724 6.51448 19.125C6.62917 17.5576 6.61217 17.0054 6.62492 16.2153C5.07872 16.3215 4.18669 16.5678 3.7789 16.7547Z" fill="white"/>
    <path d="M45.1052 16.432V16.9927C45.1052 17.1159 45.0075 17.2136 44.8843 17.2136H42.2125C42.2125 17.3538 42.2167 17.477 42.2167 17.5917C42.2167 18.42 42.1827 19.0954 42.102 19.8558C42.0893 19.9704 41.9958 20.0554 41.8854 20.0554H41.3077C41.2482 20.0554 41.193 20.0299 41.1548 19.9874C41.1165 19.945 41.0953 19.8855 41.1038 19.826C41.1845 19.0699 41.2227 18.403 41.2227 17.5917C41.2227 17.4727 41.2227 17.3496 41.2185 17.2136H38.5764C38.4532 17.2136 38.3555 17.1159 38.3555 16.9927V16.432C38.3555 16.3089 38.4532 16.2112 38.5764 16.2112H41.1802C41.125 15.2979 41.0146 14.4186 40.8362 13.5265C40.8277 13.4713 40.8404 13.4161 40.8744 13.3736C40.9084 13.3312 40.9594 13.3057 41.0146 13.3057H41.639C41.7367 13.3057 41.8174 13.3736 41.8387 13.4713C42.0128 14.3931 42.1233 15.2894 42.1785 16.2112H44.8843C45.0033 16.2112 45.1052 16.3131 45.1052 16.432Z" fill="white"/>
    <path d="M41.4701 11.9843C40.0895 8.59027 37.7575 5.69753 34.7246 3.61611C31.6194 1.48797 27.9791 0.362305 24.1986 0.362305C17.9458 0.362305 12.1433 3.46744 8.6814 8.67098C8.64317 8.7262 8.63467 8.79841 8.65591 8.86213C8.67715 8.93009 8.72812 8.97682 8.79184 8.99806L9.27609 9.16372C9.30582 9.17222 9.33555 9.17646 9.36104 9.17646C9.45025 9.17646 9.5352 9.12974 9.58617 9.05753C11.1748 6.72124 13.3242 4.78 15.8049 3.4377C18.3664 2.05292 21.2676 1.31806 24.1943 1.31806C27.7327 1.31806 31.1437 2.36301 34.0662 4.33399C36.9164 6.25823 39.1295 8.94708 40.4676 12.1032C40.5058 12.1966 40.5993 12.2604 40.7012 12.2604H41.2789C41.3469 12.2604 41.4106 12.2264 41.4446 12.1712C41.4871 12.1159 41.4956 12.048 41.4701 11.9843ZM9.36104 9.03204H9.36954C9.36954 9.03204 9.36529 9.03204 9.36104 9.03204ZM40.5823 12.1839C40.595 12.1924 40.6078 12.2009 40.6205 12.2051C40.6078 12.1966 40.595 12.1924 40.5823 12.1839Z" fill="url(#radialGradient)"/>
  </g>
  <defs>
    <radialGradient id="radialGradient" cx="0" cy="0" r="1" gradientUnits="userSpaceOnUse" gradientTransform="translate(40.9274 12.2389) scale(32.2885 32.2885)">
      <stop offset="0.007" stop-color="#FFFFFF"/>
      <stop offset="0.216" stop-color="#00FFFF"/>
      <stop offset="1" stop-color="#0F1EFF" stop-opacity="0"/>
    </radialGradient>
    <clipPath id="disney">
      <rect width="46" height="25" fill="white"/>
    </clipPath>
  </defs>
</svg>
