<svg width="92" height="50" viewBox="0 0 92 50" fill="none" xmlns="http://www.w3.org/2000/svg">
  <path d="M14.3677 19.5333C11.5888 18.7479 7.14528 17.703 2.28159 18.9984C1.37811 19.2389 0.764554 19.6369 0.334578 20.3923C0.12015 20.7696 -0.0772381 21.1778 0.0302246 21.5941C0.12326 21.9476 0.629354 22.0719 1.03557 22.1365C1.42662 22.1981 2.31244 22.2446 2.55137 21.9602C2.67575 21.8113 2.67898 21.3931 2.03023 21.2569C1.79055 21.2067 1.13868 21.1841 1.08893 21.0742C1.08893 21.0742 1.11157 20.9982 1.46928 20.8877C1.62724 20.8388 2.78645 20.3622 5.95386 20.4645C9.72041 20.5857 13.0103 21.4666 16.4896 22.8348C19.8939 24.1735 23.7195 26.5946 25.9635 29.4774C26.8122 30.568 27.8658 32.3601 28.0049 33.8689C28.3412 37.5333 24.7576 40.6256 17.4816 40.3776C16.2381 40.3349 14.7268 40.0404 14.7268 40.0404L14.5758 32.9659C14.5758 32.9659 17.6545 32.9427 21.0584 34.0617C21.3482 34.1571 21.6392 34.346 21.6657 34.6267C21.6845 34.8428 21.5141 35.028 21.3224 35.195C20.9697 35.5026 20.4843 35.6364 20.3775 35.767C20.3001 35.8612 20.2995 36.005 20.4001 36.0841C20.656 36.2818 21.284 36.4163 21.7077 36.3792C22.5659 36.3032 23.1368 35.8078 23.5681 35.1586C24.0276 34.4667 24.2892 32.7072 21.8442 31.5852C18.6837 30.1341 14.5531 30.4072 14.5531 30.4072C14.5531 30.4072 14.5319 29.4479 14.4891 28.8093C14.418 27.7619 14.1275 25.7031 13.1719 25.1097C12.9972 25.0023 12.7827 24.9898 12.6621 25.1523C12.4766 25.3941 12.2943 26.3153 12.2541 26.5545C11.8944 28.6963 11.9133 30.617 11.8944 30.644C11.8834 30.6569 11.871 30.6684 11.8573 30.6785C11.8197 30.7024 9.53558 30.9749 7.33073 31.9286C6.4505 32.3092 5.19192 32.9961 4.8102 33.8802C4.31791 35.021 5.18371 36.2699 6.6454 37.6526C7.88334 38.8236 9.70847 40.0562 11.0608 40.6942C11.4054 40.8567 11.8102 41.0571 11.8102 41.0571C11.8102 41.0571 11.8975 41.8745 11.9679 42.3468C12.222 44.049 13.5215 43.801 13.8799 43.7281C14.4621 43.6095 14.5739 43.2226 14.6544 42.7744C14.6984 42.5295 14.6802 42.1754 14.6802 42.1754C14.6802 42.1754 15.5603 42.3781 16.1514 42.4854C17.8702 42.8026 19.7375 42.8572 21.3557 42.6368C27.8281 41.7534 29.459 38.7081 29.9745 37.8949C30.8704 36.481 32.7709 32.5415 27.046 26.6939C25.7383 25.3577 21.958 21.6782 14.3664 19.5327L14.3677 19.5333ZM5.82053 35.4706C5.58545 35.2282 5.40436 34.9658 5.45971 34.6487C5.51244 34.3429 6.11232 34.0729 6.4153 33.9838C9.33496 33.1241 11.8096 33.0802 11.8096 33.0802C11.8096 33.0802 11.7863 34.1264 11.7812 35.1843C11.7718 37.1886 11.8246 39.2229 11.8246 39.2229C11.8246 39.2229 8.53148 38.2648 5.82053 35.47V35.4706ZM35.475 28.1073C36.8437 27.5716 37.9005 26.8031 38.9706 25.7093C39.5956 25.0745 40.1437 24.0303 39.9426 23.0791C39.8419 22.6063 39.6257 22.2803 39.2303 21.94C39.0335 21.7711 38.5826 21.5326 38.2162 21.4597C38.1099 21.4384 37.9967 21.4302 37.9508 21.4007C37.8987 21.3674 37.8571 21.299 37.8063 21.2356C37.5667 20.9317 37.0908 20.6409 36.7488 20.5235C35.6988 20.1606 34.298 20.4343 33.3418 20.8368C32.3309 21.2644 31.3985 21.8912 30.6899 22.6496C28.8309 24.64 29.6477 26.2167 29.813 26.5106C29.9538 26.7592 30.2147 27.0273 30.2719 27.2873C30.3065 27.4417 30.2756 27.6439 30.282 27.8266C30.2952 28.2454 30.4775 28.6773 30.7924 28.9556C31.0182 29.154 31.3426 29.213 31.6689 28.7189C31.7783 28.5531 31.9606 28.2159 31.9606 28.2159C31.9606 28.2159 32.3397 28.4351 33.2557 28.4991C33.9385 28.5468 34.874 28.3415 35.475 28.1073ZM31.0892 25.7019C31.0892 25.7019 31.0258 25.5693 30.9849 25.4695C30.7031 24.77 31.325 23.9813 31.8927 23.4979C32.9979 22.5573 33.9385 22.5798 33.9385 22.5798C33.9385 22.5798 33.7135 22.7601 33.5266 22.9234C31.9135 24.3329 31.0892 25.7019 31.0892 25.7019ZM33.5085 25.6761C34.1844 24.8058 35.4354 23.7259 36.308 23.206C36.9914 22.7984 37.5817 22.6867 38.0225 22.8801C38.284 22.9949 38.4934 23.2317 38.5293 23.5487C38.6462 24.5301 37.512 25.3502 36.7538 25.7923C35.0305 26.7963 32.9923 26.5689 32.9401 26.4778C32.9326 26.454 33.3525 25.8813 33.5091 25.6761H33.5085ZM74.538 31.0094C72.3445 29.4893 68.8055 34.3097 67.2488 36.7C67.0168 35.4832 67.8411 33.9392 67.8411 33.9392C67.8411 33.9392 69.1626 31.6536 69.3499 31.1897C69.5304 30.7225 69.6354 29.7624 69.4084 29.667C69.2022 29.5721 68.8463 29.8798 68.8463 29.8798C65.8783 32.5403 65.4634 35.492 65.4634 35.492C65.1829 37.0812 65.5105 38.1976 65.9921 38.9787C64.3423 42.4893 63.5351 45.5515 63.7501 47.3617C63.9501 48.7399 64.939 49.7364 65.5387 49.9468C66.1448 50.1993 66.2523 49.4715 66.2523 49.4715C66.7433 45.7267 67.6009 43.2233 68.6226 40.7488C71.7163 41.4588 74.0445 38.4506 74.8686 37.0134C75.3534 36.1506 75.6142 34.9985 75.6142 33.9147C75.6142 32.6802 75.2742 31.5349 74.538 31.0088V31.0094ZM72.5217 36.9789C72.1665 37.3154 70.9909 37.976 69.7718 38.1128C70.9336 35.8637 72.3764 34.2086 73.1762 33.3257C74.1067 32.279 74.2287 33.2297 74.2287 33.2297C74.4456 35.077 73.0994 36.4672 72.5211 36.9795L72.5217 36.9789ZM64.3738 38.7596C64.5216 38.197 64.0091 37.5803 63.5458 37.4654C63.1132 37.3762 59.7931 37.9979 59.3963 38.1046C58.9695 38.2189 59.16 37.8183 59.16 37.8183L59.6729 36.0847C59.6729 36.0847 62.8416 35.9629 63.303 35.8857C63.7294 35.8091 63.7552 35.5083 63.7552 35.5083C63.7552 35.5083 63.8099 35.0123 63.7941 34.5489C63.7476 34.0529 63.3503 34.0986 63.3503 34.0986C62.1249 33.9706 60.4406 34.115 60.4406 34.115L60.8656 32.7844C60.8656 32.7844 64.2361 32.6206 65.518 32.3255C66.1763 32.1704 65.789 31.5249 65.789 31.5249C64.9899 29.9288 64.0688 30.0186 64.0688 30.0186C61.4176 29.9301 57.565 30.6321 57.1449 30.8399C56.752 31.0181 56.7948 31.3139 57.3073 31.9588C57.8573 32.6382 58.7828 32.5747 58.7828 32.5747L57.9704 34.2531C57.3073 34.2996 57.0797 34.5062 57.0797 34.5062C56.6973 34.9137 57.2248 36.118 57.2248 36.118C57.2248 36.118 56.0737 38.6968 56.9086 40.0587C57.8051 41.4884 58.8657 41.4199 58.8657 41.4199C60.8839 41.5669 64.1977 39.4565 64.3744 38.7596H64.3738ZM52.7887 28.5148C52.7887 28.5148 52.3191 28.2956 52.2003 28.7634C52.0809 29.2262 52.2581 29.7198 52.2581 29.7198C53.4269 33.6798 53.6922 36.0194 53.6922 36.0194C53.6922 36.0194 53.7463 36.7076 53.6124 36.7459C53.5187 36.8168 53.4143 36.7189 53.4143 36.7189C53.2804 36.7239 51.999 34.5771 51.999 34.5771L51.7502 34.1565C50.34 31.8841 49.4856 31.1098 49.4856 31.1098C49.2856 30.9228 48.7727 30.4086 48.1332 31.1174C47.4932 31.8307 46.9928 34.1219 46.791 36.2756C46.6193 38.4249 46.75 39.648 47.0638 40.1642C47.4096 40.6866 48.076 40.8649 48.6255 40.4172C49.2064 39.9714 49.0971 37.1358 49.1888 35.6822C49.2768 34.2218 49.4208 34.483 49.4208 34.483C49.549 34.4484 50.2142 35.7846 50.2142 35.7846C50.2142 35.7846 51.9671 39.3687 53.0678 39.8991C54.1833 40.4285 55.0804 39.5765 55.4198 38.7784C55.765 37.9746 56.3515 35.3162 55.4783 32.37C54.5994 29.4246 52.7881 28.5148 52.7881 28.5148H52.7887ZM34.576 36.0991C34.5307 35.119 34.4137 32.6162 34.1397 31.4853C34.0208 30.9987 33.824 30.5548 33.3443 30.3721C33.2921 30.3521 33.2382 30.3366 33.1834 30.3256C32.8835 30.2673 32.7112 30.6805 32.6301 30.8857C32.3932 31.4935 32.2222 32.9453 32.1756 33.398C32.0347 34.7693 31.9203 38.0193 32.1586 39.675C32.2586 40.3689 32.4875 40.8196 33.1897 40.9647C33.4745 41.0238 33.9932 41.0124 34.2214 40.8668C34.4207 40.743 34.5596 40.502 34.6061 40.2948C34.735 39.7178 34.6847 38.8996 34.659 38.2842C34.6281 37.5577 34.61 36.8338 34.5766 36.0991H34.576ZM45.9107 30.6232C44.3956 29.8189 41.9015 29.817 40.3587 30.0086C38.765 30.2057 36.6319 30.7024 35.7208 32.0103C35.3732 32.5094 35.1694 33.2767 35.3291 33.9015C35.4197 34.2487 35.6699 34.5124 36.0332 34.7015C36.679 35.0374 38.8329 35.109 39.7929 35.2119C40.6977 35.3086 42.3637 35.4694 43.2823 35.8524C43.2823 35.8524 44.1517 36.1551 44.1461 36.6511C44.1442 36.896 43.9606 37.0913 43.7744 37.2238C42.4115 38.1882 40.538 38.4619 38.8719 38.4349C38.3072 38.4274 37.8421 38.3382 37.2687 38.0928C37.0248 37.9859 36.7079 37.7913 36.7507 37.4586C36.8192 36.9255 37.429 36.7943 37.9137 36.84C38.1841 36.8645 38.5373 36.9801 38.8028 37.0837C39.8716 37.505 40.3587 37.8598 41.2993 37.7167C41.65 37.6633 42.866 37.4001 43.0295 36.8997C43.0703 36.7779 43.0119 36.646 42.9219 36.555C42.7937 36.4238 42.0625 36.1399 41.8638 36.0678C41.1478 35.8134 39.7905 35.5805 39.036 35.5516C38.0464 35.5164 36.6852 35.7187 36.1207 36.5393C35.6121 37.279 35.4977 38.7677 38.0225 40.0204C39.1963 40.6025 40.6178 40.8611 41.9293 40.7173C42.6786 40.6313 44.837 40.296 45.653 38.5812C46.0918 37.6588 46.049 36.4269 45.5763 35.5516C45.2657 34.9746 44.886 34.2067 42.0694 33.8525C41.6193 33.796 38.306 33.4131 38.0018 33.3653C37.8332 33.3389 37.0575 33.2473 37.3296 32.9515C37.4064 32.8662 37.6414 32.8034 37.7779 32.7644C39.5176 32.2897 41.7255 32.3437 43.5519 32.2414C43.96 32.2163 44.8878 32.1603 45.3367 32.0178C45.7643 31.8847 46.117 31.5827 46.2157 31.1137C46.2647 30.8644 46.1453 30.747 45.9114 30.6226L45.9107 30.6232ZM91.1042 32.7644H85.8986C85.8427 30.9817 85.6607 29.2051 85.354 27.448C85.3287 27.303 85.2531 27.1715 85.1404 27.0768C85.0277 26.982 84.8852 26.93 84.738 26.93H83.3346C83.2702 26.9301 83.2066 26.9443 83.1483 26.9718C83.09 26.9993 83.0385 27.0392 82.9974 27.0889C82.9562 27.1385 82.9266 27.1966 82.9105 27.259C82.8943 27.3214 82.8921 27.3865 82.904 27.4499C83.233 29.204 83.428 30.9807 83.4875 32.7644H78.1988C78.1412 32.7645 78.0841 32.7759 78.0309 32.798C77.9777 32.8202 77.9293 32.8526 77.8886 32.8934C77.8479 32.9342 77.8157 32.9827 77.7937 33.0359C77.7718 33.0892 77.7605 33.1463 77.7606 33.204V34.7981C77.7605 34.8558 77.7718 34.9129 77.7937 34.9662C77.8157 35.0195 77.8479 35.0679 77.8886 35.1087C77.9293 35.1495 77.9777 35.1819 78.0309 35.2041C78.0841 35.2262 78.1412 35.2376 78.1988 35.2377H83.4875C83.4278 37.0214 83.2327 38.798 82.904 40.5522C82.8921 40.6156 82.8943 40.6807 82.9105 40.7431C82.9266 40.8055 82.9562 40.8636 82.9974 40.9132C83.0385 40.9629 83.09 41.0028 83.1483 41.0303C83.2066 41.0578 83.2702 41.072 83.3346 41.0721H84.738C84.8852 41.0721 85.0277 41.0201 85.1404 40.9253C85.2531 40.8306 85.3287 40.6991 85.354 40.5541C85.6607 38.797 85.8427 37.0204 85.8986 35.2377H91.1042C91.1618 35.2376 91.2189 35.2262 91.2721 35.2041C91.3253 35.1819 91.3737 35.1495 91.4144 35.1087C91.4551 35.0679 91.4873 35.0195 91.5093 34.9662C91.5312 34.9129 91.5425 34.8558 91.5424 34.7981V33.204C91.5425 33.1463 91.5312 33.0892 91.5093 33.0359C91.4873 32.9827 91.4551 32.9342 91.4144 32.8934C91.3737 32.8526 91.3253 32.8202 91.2721 32.798C91.2189 32.7759 91.1618 32.7645 91.1042 32.7644ZM19.4224 13.471C19.6286 13.6142 19.9179 13.5081 20.1248 13.2864C21.9102 11.3644 23.8636 9.69288 26.0886 8.17534C40.6864 -1.7825 62.1161 -0.335235 74.6549 12.2843C78.7734 16.4083 81.0406 20.8349 82.23 24.3142C82.2719 24.4382 82.3515 24.546 82.4577 24.6224C82.564 24.6989 82.6915 24.7402 82.8223 24.7405H84.262C84.5613 24.7405 84.7738 24.446 84.6776 24.1616C83.1171 19.5465 80.0956 14.4807 75.7054 10.361C62.5442 -2.02044 41.2238 -3.3968 26.3677 6.72671C23.9371 8.36614 21.5223 10.4659 19.4004 12.8656C19.1911 13.1025 19.2621 13.3598 19.4218 13.471H19.4224Z" fill="#146777"/>
</svg>
