<svg width="226" height="225" viewBox="0 0 226 225" fill="none" xmlns="http://www.w3.org/2000/svg">
  <rect x="0.441406" width="225" height="225" fill="url(#bg)"/>
    <g clip-path="url(#disney)">
      <path d="M144.68 124.726C142.558 125.212 136.972 125.491 136.972 125.491L136.265 127.699C136.265 127.699 139.05 127.464 141.084 127.67C141.084 127.67 141.747 127.596 141.821 128.421C141.835 128.951 141.815 129.482 141.762 130.011C141.762 130.011 141.718 130.511 141.01 130.629C140.244 130.761 134.997 130.953 134.997 130.953L134.142 133.823C134.142 133.823 133.833 134.486 134.54 134.294C135.204 134.118 140.701 133.087 141.423 133.234C142.189 133.426 143.044 134.442 142.794 135.384C142.499 136.532 137.016 140.036 133.671 139.785C133.671 139.785 131.917 139.903 130.428 137.533C129.043 135.281 130.959 130.997 130.959 130.997C130.959 130.997 130.089 128.995 130.723 128.332C130.723 128.332 131.106 127.994 132.197 127.905L133.538 125.123C133.538 125.123 132.005 125.226 131.092 124.107C130.237 123.033 130.178 122.547 130.826 122.253C131.519 121.914 137.901 120.751 142.293 120.898C142.293 120.898 143.825 120.751 145.137 123.401C145.122 123.401 145.771 124.476 144.68 124.726ZM128.159 135.413C127.599 136.738 126.11 138.151 124.268 137.268C122.425 136.385 119.537 130.452 119.537 130.452C119.537 130.452 118.431 128.244 118.225 128.288C118.225 128.288 117.989 127.861 117.842 130.276C117.694 132.69 117.871 137.386 116.913 138.122C116 138.858 114.894 138.563 114.319 137.695C113.804 136.841 113.583 134.81 113.863 131.247C114.202 127.685 115.027 123.887 116.088 122.694C117.149 121.502 118.004 122.37 118.328 122.68C118.328 122.68 119.743 123.96 122.086 127.729L122.499 128.421C122.499 128.421 124.621 131.983 124.843 131.968C124.843 131.968 125.019 132.13 125.167 132.013C125.388 131.954 125.299 130.806 125.299 130.806C125.299 130.806 124.857 126.934 122.927 120.368C122.927 120.368 122.632 119.544 122.838 118.779C123.044 118.013 123.811 118.366 123.811 118.366C123.811 118.366 126.817 119.868 128.262 124.755C129.691 129.687 128.719 134.088 128.159 135.413ZM113.391 122.856C113.14 123.357 112.993 124.078 111.725 124.269C111.725 124.269 99.5959 125.094 99.0211 125.948C99.0211 125.948 98.5937 126.448 99.2569 126.595C99.9202 126.743 102.661 127.096 103.988 127.169C105.403 127.184 110.178 127.228 111.888 129.363C111.888 129.363 112.905 130.379 112.86 132.675C112.816 135.03 112.403 135.855 111.49 136.709C110.532 137.504 102.308 141.184 97.002 135.531C97.002 135.531 94.5554 132.808 97.8421 130.747C97.8421 130.747 100.215 129.319 106.243 130.997C106.243 130.997 108.07 131.659 107.982 132.322C107.879 133.028 106.479 133.779 104.445 133.735C102.47 133.676 101.026 132.734 101.306 132.881C101.571 132.984 99.1832 131.733 98.4463 132.587C97.7094 133.367 97.8863 133.853 98.6084 134.339C100.451 135.384 107.569 135.016 109.692 132.66C109.692 132.66 110.532 131.704 109.249 130.923C107.967 130.187 104.297 129.746 102.868 129.672C101.497 129.598 96.3977 129.687 95.6608 128.332C95.6608 128.332 94.9239 127.42 95.7345 124.829C96.5893 122.12 102.529 121.075 105.093 120.839C105.093 120.839 112.153 120.589 113.45 122.032C113.538 122.304 113.516 122.599 113.391 122.856ZM93.3469 138.74C92.4921 139.373 90.6793 139.093 90.1634 138.387C89.6476 137.754 89.4707 135.237 89.5739 131.291C89.6771 127.302 89.7655 122.356 90.6203 121.575C91.5341 120.781 92.0941 121.472 92.4479 122.017C92.831 122.547 93.2879 123.136 93.3911 124.387C93.4943 125.638 93.7743 132.204 93.7743 132.204C93.7743 132.204 94.1575 138.122 93.3469 138.74ZM95.1892 117.571C92.6984 118.396 90.9888 118.116 89.5444 117.498C88.9107 118.602 88.5422 118.94 88.0559 119.014C87.3484 119.088 86.7147 117.954 86.5968 117.586C86.4789 117.306 86.1399 116.835 86.5526 115.717C85.1377 114.451 85.0345 112.743 85.2703 111.595C85.624 110.27 88.0116 105.235 95.2776 104.646C95.2776 104.646 98.8295 104.381 99.4338 106.28H99.537C99.537 106.28 102.986 106.295 102.912 109.357C102.868 112.434 99.0801 116.261 95.1892 117.571ZM88.4096 110.756C87.6727 111.933 87.6432 112.64 87.9822 113.126C88.8222 111.845 90.355 109.828 92.61 108.297C90.8709 108.444 89.4118 109.195 88.4096 110.756ZM98.4463 108.783C96.1619 109.122 92.6247 112.184 90.9446 114.686C93.5237 115.157 98.0779 114.98 100.097 110.873C100.082 110.873 101.055 108.327 98.4463 108.783ZM160.465 132.498C159.094 134.883 155.248 139.859 150.119 138.696C148.424 142.803 147.009 146.94 146.198 153.152C146.198 153.152 146.021 154.359 145.019 153.932C144.032 153.579 142.381 151.93 142.057 149.648C141.703 146.645 143.044 141.567 145.771 135.752C144.975 134.456 144.43 132.601 144.901 129.966C144.901 129.966 145.594 125.079 150.502 120.663C150.502 120.663 151.091 120.148 151.43 120.309C151.814 120.471 151.637 122.061 151.327 122.827C151.018 123.592 148.822 127.39 148.822 127.39C148.822 127.39 147.451 129.952 147.834 131.968C150.413 128.009 156.279 120.015 159.92 122.532C161.143 123.401 161.703 125.3 161.703 127.346C161.688 129.157 161.261 131.071 160.465 132.498ZM159.404 126.227C159.404 126.227 159.197 124.652 157.665 126.389C156.338 127.847 153.951 130.599 152.02 134.324C154.039 134.103 155.984 132.999 156.574 132.44C157.532 131.586 159.757 129.289 159.404 126.227ZM87.8495 128.229C87.5695 131.792 86.1988 137.783 76.4863 140.742C70.0752 142.671 64.0178 141.743 60.7164 140.904C60.6427 142.214 60.4953 142.774 60.289 142.994C60.009 143.274 57.9161 144.481 56.7665 142.774C56.2507 141.964 55.9854 140.492 55.838 139.182C48.41 135.766 44.9907 130.85 44.858 130.629C44.6959 130.467 43.001 128.7 44.6959 126.536C46.2876 124.579 51.4903 122.621 56.177 121.826C56.3391 117.822 56.8108 114.804 57.3708 113.42C58.0488 111.815 58.9036 113.258 59.6405 114.347C60.2595 115.157 60.628 118.646 60.6574 121.428C63.723 121.281 65.5358 121.502 68.9551 122.12C73.406 122.93 76.3832 125.197 76.1179 127.773C75.9263 130.305 73.5976 131.35 72.7133 131.424C71.7848 131.497 70.3405 130.835 70.3405 130.835C69.353 130.364 70.2668 129.952 71.4606 129.436C72.7576 128.803 72.4628 128.156 72.4628 128.156C71.9764 126.743 66.199 125.756 60.4511 125.756C60.4216 128.921 60.5838 134.177 60.6574 137.239C64.681 138.004 67.6876 137.857 67.6876 137.857C67.6876 137.857 82.3669 137.445 82.809 128.082C83.2512 118.72 68.174 109.71 57.0171 106.855C45.875 103.94 39.567 105.971 39.0217 106.251C38.4322 106.545 38.9775 106.634 38.9775 106.634C39.5388 106.736 40.0908 106.884 40.6282 107.075C41.7335 107.429 40.8787 108.003 40.8787 108.003C38.9775 108.606 36.8404 108.224 36.4278 107.355C36.0151 106.486 36.7078 105.706 37.5036 104.587C38.2995 103.41 39.1691 103.454 39.1691 103.454C52.9493 98.6844 69.7362 107.311 69.7362 107.311C85.4619 115.275 88.1443 124.608 87.8495 128.229ZM46.2582 127.744C44.6959 128.509 45.7718 129.613 45.7718 129.613C48.7047 132.763 52.3156 134.736 55.7496 135.958C56.1475 130.526 56.0886 128.612 56.1328 125.874C50.7681 126.242 47.673 127.096 46.2582 127.744ZM189.647 126.625V128.568C189.647 128.669 189.628 128.769 189.59 128.862C189.552 128.955 189.495 129.04 189.424 129.111C189.353 129.182 189.268 129.239 189.174 129.277C189.081 129.315 188.981 129.334 188.88 129.333H179.61C179.61 129.819 179.625 130.246 179.625 130.644C179.638 133.264 179.505 135.884 179.227 138.49C179.209 138.677 179.122 138.852 178.984 138.98C178.845 139.107 178.664 139.179 178.475 139.182H176.471C176.371 139.182 176.272 139.161 176.18 139.12C176.089 139.08 176.007 139.02 175.94 138.946C175.872 138.871 175.821 138.783 175.79 138.686C175.76 138.589 175.75 138.487 175.763 138.387C176.045 135.815 176.183 133.23 176.176 130.644C176.176 130.231 176.176 129.805 176.161 129.333H166.994C166.893 129.334 166.793 129.315 166.7 129.277C166.606 129.239 166.522 129.182 166.45 129.111C166.379 129.04 166.323 128.955 166.284 128.862C166.246 128.769 166.227 128.669 166.228 128.568V126.625C166.227 126.524 166.246 126.424 166.284 126.331C166.323 126.238 166.379 126.153 166.45 126.082C166.522 126.011 166.606 125.954 166.7 125.916C166.793 125.878 166.893 125.859 166.994 125.859H176.028C175.846 122.734 175.447 119.626 174.835 116.556C174.819 116.463 174.822 116.368 174.845 116.277C174.868 116.185 174.91 116.1 174.967 116.026C175.025 115.952 175.099 115.893 175.184 115.852C175.268 115.812 175.36 115.79 175.454 115.79H177.62C177.784 115.791 177.943 115.849 178.069 115.953C178.196 116.058 178.282 116.203 178.313 116.364C178.909 119.501 179.303 122.672 179.492 125.859H188.88C189.082 125.863 189.275 125.944 189.418 126.087C189.561 126.23 189.643 126.423 189.647 126.625Z" fill="white"/>
      <path d="M177.032 111.212C172.603 100.332 165.289 90.8641 155.877 83.8253C146.464 76.7865 135.309 72.4432 123.61 71.2625C111.911 70.0817 100.112 72.1081 89.4797 77.1238C78.8476 82.1395 69.7853 89.9548 63.267 99.7295C63.2023 99.8257 63.1606 99.9355 63.1453 100.05C63.13 100.165 63.1414 100.282 63.1786 100.392C63.2133 100.503 63.2743 100.603 63.3564 100.685C63.4386 100.767 63.5394 100.828 63.6502 100.863L65.3304 101.437C65.4262 101.465 65.5253 101.48 65.6252 101.481C65.7787 101.479 65.9296 101.441 66.0654 101.369C66.2011 101.297 66.318 101.195 66.4063 101.069C72.0206 92.8053 79.5753 86.0403 88.4105 81.3648C97.2456 76.6894 107.093 74.2458 117.091 74.2475C129.138 74.2496 140.916 77.7954 150.958 84.4425C160.999 91.0896 168.858 100.543 173.553 111.624C173.62 111.784 173.732 111.921 173.877 112.018C174.021 112.115 174.19 112.168 174.364 112.169H176.368C176.483 112.17 176.595 112.142 176.696 112.088C176.796 112.034 176.881 111.955 176.943 111.86C177.014 111.769 177.06 111.662 177.076 111.548C177.091 111.434 177.076 111.318 177.032 111.212ZM173.951 111.904C173.992 111.934 174.037 111.959 174.084 111.977C174.04 111.948 173.996 111.933 173.951 111.904Z" fill="url(#rainbow)"/>
    </g>
    <defs>
    <linearGradient id="bg" x1="112.941" y1="0" x2="112.941" y2="225" gradientUnits="userSpaceOnUse">
      <stop stop-color="#07082B"/>
      <stop offset="1" stop-color="#165ABC"/>
    </linearGradient>
    <radialGradient id="rainbow" cx="0" cy="0" r="1" gradientUnits="userSpaceOnUse" gradientTransform="translate(175.148 112.095) scale(112.028 111.897)">
      <stop offset="0.01" stop-color="white"/>
      <stop offset="0.03" stop-color="#CBFFFF"/>
      <stop offset="0.06" stop-color="#96FFFF"/>
      <stop offset="0.08" stop-color="#68FFFF"/>
      <stop offset="0.11" stop-color="#43FFFF"/>
      <stop offset="0.14" stop-color="#25FFFF"/>
      <stop offset="0.16" stop-color="#11FFFF"/>
      <stop offset="0.19" stop-color="#04FFFF"/>
      <stop offset="0.22" stop-color="#00FFFF"/>
      <stop offset="1" stop-color="#0000FF" stop-opacity="0"/>
    </radialGradient>
    <clipPath id="disney">
      <rect width="154" height="83.7181" fill="white" transform="translate(35.9414 70.6409)"/>
    </clipPath>
  </defs>
</svg>
