<svg width="225" height="225" viewBox="0 0 225 225" fill="none" xmlns="http://www.w3.org/2000/svg">
  <path d="M225 0H0V225H225V0Z" fill="black" />
  <path fill-rule="evenodd" clip-rule="evenodd" d="M124.567 36.2901L124.507 70.0187L124.448 103.747L121.673 95.9175C121.672 95.9148 121.668 95.9049 121.667 95.9022L118.082 170.991C121.607 180.947 123.496 186.262 123.517 186.284C123.545 186.311 125.554 186.432 127.982 186.553C135.338 186.918 144.454 187.7 151.369 188.559C152.97 188.758 154.348 188.86 154.431 188.786C154.514 188.712 154.559 154.37 154.531 112.47L154.481 36.2901H124.567ZM70.4602 36.1897V112.447C70.4602 154.389 70.5012 188.746 70.5515 188.796C70.6017 188.846 73.1991 188.601 76.3235 188.251C79.4479 187.901 83.766 187.466 85.9192 187.285C89.2215 187.006 99.0814 186.372 100.223 186.365C100.555 186.363 100.577 184.649 100.625 154.065L100.675 121.768L103.061 128.518C103.43 129.561 103.545 129.887 103.905 130.903L107.49 55.8328C106.73 53.6852 107.128 54.8125 106.258 52.3513C103.329 44.0698 100.843 37.0455 100.734 36.7418L100.536 36.1897H70.4602Z" fill="#B1060F" stroke="black" stroke-width="0.310123" />
  <path fill-rule="evenodd" clip-rule="evenodd" d="M70.4602 36.1897V78.9952L100.615 158.984C100.618 157.151 100.621 156.161 100.625 154.065L100.675 121.768L103.061 128.518C116.341 166.094 123.475 186.242 123.517 186.284C123.545 186.311 125.554 186.432 127.982 186.553C135.338 186.918 144.454 187.7 151.369 188.559C152.97 188.758 154.348 188.86 154.431 188.786C154.488 188.735 154.525 171.896 154.535 148.141L124.522 61.8532L124.507 70.0187L124.448 103.747L121.673 95.9175C118.961 88.2669 117.151 83.1504 106.258 52.3513C103.329 44.0698 100.843 37.0455 100.734 36.7418L100.536 36.1897H70.4602Z" fill="url(#paint0_radial_0_1)" />
  <path fill-rule="evenodd" clip-rule="evenodd" d="M70.4609 36.1897L100.676 121.807V121.768L103.061 128.518C116.341 166.094 123.475 186.242 123.517 186.283C123.545 186.311 125.554 186.432 127.982 186.553C135.338 186.918 144.454 187.7 151.369 188.559C152.962 188.757 154.333 188.859 154.428 188.787L124.448 103.732V103.747L121.673 95.9175C118.961 88.2669 117.151 83.1504 106.258 52.3513C103.329 44.0698 100.843 37.0455 100.734 36.7418L100.536 36.1897L70.4609 36.1897Z" fill="#E50914" />
  <path fill-rule="evenodd" clip-rule="evenodd" d="M124.567 36.2901L124.507 70.0187L124.448 103.747L121.673 95.9175C121.672 95.9148 121.668 95.9049 121.667 95.9022L118.082 170.991C121.607 180.947 123.496 186.262 123.517 186.284C123.545 186.311 125.554 186.432 127.982 186.553C135.338 186.918 144.454 187.7 151.369 188.559C152.97 188.758 154.348 188.86 154.431 188.786C154.514 188.712 154.559 154.37 154.531 112.47L154.481 36.2901H124.567ZM70.4602 36.1897V112.447C70.4602 154.389 70.5012 188.746 70.5515 188.796C70.6017 188.846 73.1991 188.601 76.3235 188.251C79.4479 187.901 83.766 187.466 85.9192 187.285C89.2215 187.006 99.0814 186.372 100.223 186.365C100.555 186.363 100.577 184.649 100.625 154.065L100.675 121.768L103.061 128.518C103.43 129.561 103.545 129.887 103.905 130.903L107.49 55.8328C106.73 53.6852 107.128 54.8125 106.258 52.3513C103.329 44.0698 100.843 37.0455 100.734 36.7418L100.536 36.1897H70.4602Z" fill="#B1060F" stroke="black" stroke-width="0.310123" />
  <path fill-rule="evenodd" clip-rule="evenodd" d="M70.4602 36.1897V78.9952L100.615 158.984C100.618 157.151 100.621 156.161 100.625 154.065L100.675 121.768L103.061 128.518C116.341 166.094 123.475 186.242 123.517 186.284C123.545 186.311 125.554 186.432 127.982 186.553C135.338 186.918 144.454 187.7 151.369 188.559C152.97 188.758 154.348 188.86 154.431 188.786C154.488 188.735 154.525 171.896 154.535 148.141L124.522 61.8532L124.507 70.0187L124.448 103.747L121.673 95.9175C118.961 88.2669 117.151 83.1504 106.258 52.3513C103.329 44.0698 100.843 37.0455 100.734 36.7418L100.536 36.1897H70.4602Z" fill="url(#paint1_radial_0_1)" />
  <path fill-rule="evenodd" clip-rule="evenodd" d="M70.4609 36.1897L100.676 121.807V121.768L103.061 128.518C116.341 166.094 123.475 186.242 123.517 186.283C123.545 186.311 125.554 186.432 127.982 186.553C135.338 186.918 144.454 187.7 151.369 188.559C152.962 188.757 154.333 188.859 154.428 188.787L124.448 103.732V103.747L121.673 95.9175C118.961 88.2669 117.151 83.1504 106.258 52.3513C103.329 44.0698 100.843 37.0455 100.734 36.7418L100.536 36.1897L70.4609 36.1897Z" fill="#E50914" />
  <defs>
    <radialGradient id="paint0_radial_0_1" cx="0" cy="0" r="1" gradientUnits="userSpaceOnUse" gradientTransform="translate(111.101 111.613) rotate(-19.0977) scale(19.056 698.004)">
      <stop />
      <stop offset="1" stop-opacity="0" />
    </radialGradient>
    <radialGradient id="paint1_radial_0_1" cx="0" cy="0" r="1" gradientUnits="userSpaceOnUse" gradientTransform="translate(111.101 111.613) rotate(-19.0977) scale(19.056 698.004)">
      <stop />
      <stop offset="1" stop-opacity="0" />
    </radialGradient>
  </defs>
</svg>
