<svg width="89" height="25" viewBox="0 0 89 25" fill="none" xmlns="http://www.w3.org/2000/svg">
  <path d="M12.3379 22.8026C11.002 23.0372 9.64259 23.1076 8.23637 23.2949L3.9472 10.7325V23.834C2.61132 23.9746 1.39259 24.1621 0.126953 24.3496V0.349609H3.68955L8.56444 13.967V0.349609H12.3379V22.8026ZM19.7207 9.13868C21.1739 9.13868 23.4005 9.06834 24.7364 9.06834V12.8183C23.0722 12.8183 21.127 12.8183 19.7207 12.8886V18.4668C21.9239 18.3262 24.127 18.1386 26.3535 18.0682V21.6774L15.9706 22.4979V0.349609H26.3535V4.09961H19.7207V9.13868ZM40.2988 4.0997H36.4082V21.3497C35.1426 21.3497 33.8769 21.3497 32.6584 21.3964V4.0997H28.7678V0.349609H40.299L40.2988 4.0997ZM46.3925 8.88093H51.5254V12.6309H46.3925V21.1388H42.7126V0.349609H53.1894V4.09961H46.3925V8.88093ZM59.2831 17.8574C61.416 17.9042 63.5721 18.0685 65.6582 18.1855V21.8887C62.3067 21.6776 58.9551 21.4669 55.5332 21.3964V0.349609H59.2831V17.8574ZM68.8222 22.1465C70.0175 22.2169 71.2831 22.2872 72.5019 22.4276V0.349609H68.8222V22.1465ZM88.9317 0.349609L84.1738 11.7637L88.9317 24.3496C87.5253 24.1621 86.1191 23.9043 84.7128 23.6699L82.0176 16.7325L79.2756 23.1076C77.916 22.873 76.6035 22.8026 75.2444 22.6151L80.0725 11.623L75.713 0.349609H79.744L82.205 6.65431L84.8301 0.349609L88.9317 0.349609Z" fill="#D81F26"/>
</svg>
