<svg width="225" height="226" viewBox="0 0 225 226" fill="none" xmlns="http://www.w3.org/2000/svg">
  <path d="M225 0.0921631H0V225.092H225V0.0921631Z" fill="#0064FF"/>
  <path d="M98.5552 144.566C97.9207 144.302 96.8806 143.135 98.6109 139.885L102.63 131.485C102.752 131.231 102.459 130.913 102.276 131.129L98.7613 134.662C97.0984 136.398 94.2774 141.277 93.7312 142.18L89.4613 149.237C89.7785 149.227 90.044 149.477 90.054 149.795C90.0572 149.899 90.0321 150.002 89.981 150.093L86.0784 156.648C85.1256 158.274 86.8375 159.41 87.0695 159.036C93.2035 149.156 96.7712 149.944 96.7712 149.944L98.8188 145.202C98.9267 144.965 98.8215 144.685 98.5838 144.577C98.575 144.573 98.5652 144.57 98.5552 144.566ZM112.501 62.0142C77.4303 62.0142 49.0001 90.4304 49.0001 125.484C48.9815 139.054 53.3348 152.269 61.4149 163.17C64.0787 162.02 65.559 160.301 66.6164 158.986L78.4399 143.871C78.6888 143.553 79.014 143.302 79.3855 143.143L81.1653 142.377L100.606 117.73L103.425 115.524L109.218 107.465C109.367 107.256 109.55 107.073 109.758 106.922L112.285 105.086C112.91 104.632 113.753 104.625 114.385 105.068L117.452 107.22C119.079 108.361 120.397 109.887 121.291 111.662L133.576 133.229C133.776 133.641 134.117 133.967 134.536 134.15C136.946 135.349 138.417 135.561 141.57 138.984C143.042 140.58 149.489 147.787 158.524 158.988C159.837 160.785 161.595 162.208 163.625 163.121C171.68 152.228 176.019 139.032 176 125.484C176 90.4302 147.571 62.0142 112.501 62.0142ZM66.1251 128.982L62.0079 127.646L59.4645 131.144V126.82L55.3469 125.484L59.4645 124.147V119.821L62.0079 123.321L66.1251 121.985L63.5813 125.484L66.1251 128.982ZM65.149 143.134L63.8117 147.249L62.4743 143.134H58.147L61.6476 140.592L60.3105 136.478L63.8114 139.021L67.3126 136.478L65.9752 140.592L69.4763 143.134H65.149ZM65.9754 110.373L67.3128 114.487L63.8117 111.944L60.3108 114.487L61.6478 110.373L58.1473 107.83H62.4746L63.8119 103.717L65.1495 107.83H69.4768L65.9754 110.373ZM72.9244 101.068L70.3822 97.5683L66.2649 98.905L68.8086 95.4058L66.2649 91.9066L70.3822 93.2431L72.9259 89.7438V94.0693L77.0432 95.4036L72.9259 96.7406V101.066L72.9244 101.068ZM83.7466 85.9255L82.4093 90.0392L81.0719 85.9258H76.7444L80.2454 83.3833L78.9084 79.2695L82.4093 81.8116L85.91 79.269L84.5728 83.386L88.074 85.9287H83.7463L83.7466 85.9255ZM97.384 78.98L94.8404 82.4796V78.1554L90.7228 76.8189L94.8404 75.4817V71.1565L97.384 74.656L101.499 73.3195L98.9559 76.8189L101.5 80.3179L97.384 78.98ZM114.665 75.0152L116.002 79.1286L112.501 76.5861L109 79.1286L110.336 75.0171L106.835 72.4744H111.162L112.5 68.361L113.837 72.4744H118.165L114.665 75.0152ZM130.16 78.1554V82.4806L127.617 78.9811L123.5 80.3179L126.044 76.8189L123.5 73.3195L127.618 74.656L130.16 71.1565V75.4817L134.278 76.8189L130.16 78.1554ZM158.875 121.985L162.992 123.321L165.535 119.821V124.147L169.652 125.484L165.535 126.82V131.145L162.992 127.646L158.875 128.983L161.422 125.484L158.875 121.985ZM142.592 90.0402L141.254 85.9265H136.927L140.427 83.384L139.092 79.2701L142.592 81.8126L146.092 79.2706L144.757 83.384L148.257 85.9265H143.93L142.592 90.0402ZM152.078 101.069V96.744L147.96 95.407L152.078 94.0727V89.7453L154.62 93.2446L158.736 91.9081L156.194 95.4075L158.736 98.9065L154.62 97.5699L152.078 101.069ZM159.85 107.832L161.19 103.718L162.527 107.832H166.854L163.355 110.374L164.692 114.488L161.19 111.945L157.689 114.488L159.028 110.374L155.524 107.832H159.85ZM162.527 143.134L161.188 147.249L159.85 143.134H155.523L159.026 140.592L157.688 136.478L161.188 139.021L164.691 136.478L163.354 140.592L166.853 143.134H162.527ZM135.501 162.164C135.806 161.721 136.302 160.505 135.371 158.252L132.562 150.699C132.18 149.734 133.015 149.149 133.576 149.783C133.576 149.783 138.886 155.905 140.259 158.461L142.878 162.806C145.131 162.952 151.348 163.121 157.334 163.121C156.732 162.523 156.175 161.879 155.668 161.198C145.455 148.542 138.977 141.5 138.913 141.431C136.843 139.182 135.886 138.749 134.307 138.03C134.078 137.927 133.831 137.815 133.575 137.693V139.615C133.591 139.745 133.498 139.862 133.368 139.878C133.263 139.89 133.162 139.832 133.122 139.734L118.106 113.368L118.064 113.284C117.438 112.042 116.515 110.974 115.377 110.175L113.912 109.145L106.749 125.664C107.605 125.664 108.299 126.358 108.299 127.214C108.3 127.425 108.256 127.635 108.172 127.83L101.553 143.134H107.629C109.977 143.134 112.303 143.59 114.476 144.48L116.077 145.137C116.077 145.137 111.246 155.072 111.246 160.305C111.253 161.257 111.385 162.202 111.64 163.12H122.777L122.261 159.984C126.63 160.958 131.05 161.687 135.501 162.166L135.501 162.164Z" fill="white"/>
</svg>
