<svg width="81" height="19" viewBox="0 0 81 19" fill="none" xmlns="http://www.w3.org/2000/svg">
  <path d="M20.7055 5.03577C20.7055 1.94043 17.3021 0.449951 13.2588 0.449951C8.93355 0.449951 4.96503 2.29845 3.50841 5.16469C3.10641 5.92833 2.89751 6.77308 2.89864 7.62962C2.88025 8.37029 3.09272 9.09915 3.50841 9.72207C4.13251 10.611 5.24715 11.1697 6.88222 11.1697C8.88908 11.1697 10.4795 10.1089 10.4795 8.26035C10.4795 8.26035 10.509 7.7448 9.88489 7.7448C9.37953 7.7448 9.24556 8.08852 9.26054 8.26035C9.33523 9.70784 8.44309 10.8687 6.85258 10.8687C5.06944 10.8687 4.32562 9.40694 4.32562 7.84497C4.32562 4.64899 6.82277 2.52771 9.42392 1.61068C10.6395 1.16788 11.9304 0.94886 13.2297 0.965347C16.1727 0.965347 18.5806 2.05474 18.5806 4.97857C18.5806 7.41451 16.4552 9.49258 13.9132 9.67909L14.0172 9.34966C14.5376 7.55805 15.1767 5.59484 16.2169 4.14726C16.2768 4.06077 16.3805 3.91785 16.4995 3.7747L16.351 3.60257C16.1286 3.73274 15.915 3.87628 15.7114 4.0324C10.8366 7.70143 10.6885 18.0198 4.19245 18.0198C3.96873 18.0198 3.74542 18.0054 3.52372 17.9768C2.17134 17.7619 1.45741 16.8874 1.45741 15.6699C1.45741 15.4262 1.54675 15.0964 1.54675 14.9103C1.55704 14.5642 1.27451 14.2756 0.91568 14.2655C0.912845 14.2655 0.910173 14.2655 0.9075 14.2655H0.833384C0.253829 14.2655 0.0159319 14.7092 0.00102788 15.3402C-0.0433601 17.1603 1.3534 18.2205 3.50906 18.4215C3.74663 18.4357 3.98453 18.4499 4.23725 18.4499C9.3055 18.4499 12.412 14.7524 13.7351 10.2666C14.4052 10.1909 15.0668 10.0567 15.7117 9.86568C18.0607 9.23449 20.7055 7.71612 20.7055 5.03577ZM68.984 6.11055H67.1997L66.7988 7.01358L66.0999 8.53266H65.2681L65.0143 9.04868H65.8771L64.836 11.2701C64.094 12.8321 62.9342 14.3657 62.2652 14.3657C62.1169 14.3657 62.0271 14.308 62.0271 14.1652C62.0271 14.0225 62.0714 13.8925 62.2354 13.4914C62.4436 13.0181 62.7858 12.3305 63.0384 11.829C63.4094 11.0981 64.0042 9.96593 64.0042 9.40702C64.0042 8.84802 63.6332 8.40365 62.9043 8.40365C62.087 8.40365 61.3437 8.87709 60.6592 9.56423L61.1056 8.5325H59.4265L58.0585 11.542C57.5092 12.6027 56.3937 14.3654 55.6948 14.3654C55.5464 14.3654 55.4865 14.2793 55.4865 14.1361C55.501 14.0074 55.5361 13.8816 55.5907 13.7633C55.6505 13.6344 56.4679 11.7858 56.4679 11.7858L57.9543 8.5039H56.1412L54.699 11.6996C54.2539 12.6886 53.1241 14.3654 52.3952 14.3654C52.2683 14.3774 52.1551 14.2879 52.1428 14.1651C52.1428 14.1651 52.1428 14.1651 52.1428 14.165V14.1073C52.1428 13.9355 52.2768 13.62 52.381 13.3906L53.1386 11.7858L54.6991 8.5039H52.9016L52.5437 9.2491C52.2769 9.75051 51.8304 10.3381 51.1172 10.3381C50.775 10.3381 50.6122 10.2095 50.538 10.0803C50.4339 8.97671 49.7051 8.38912 48.635 8.38912C47.1486 8.38912 46.0932 9.23464 45.3942 10.2667C44.9363 10.978 44.5765 11.744 44.3245 12.545C43.6851 13.5629 43.0166 14.3513 42.4814 14.3513C42.3475 14.3513 42.2582 14.2793 42.2582 14.1075C42.2582 13.9355 42.4367 13.5488 42.4961 13.4048L43.6704 10.9973C43.9974 10.2525 44.2209 9.76512 44.2209 9.27778C44.2209 8.76176 43.8499 8.38888 43.2395 8.38888C42.3922 8.38888 41.4704 8.86216 40.7422 9.6358C40.767 9.51297 40.7768 9.38787 40.7719 9.26293C40.7719 8.68956 40.4749 8.38849 39.8651 8.38849C39.0924 8.38849 38.2899 8.83325 37.5616 9.63541L38.0373 8.51703H36.402L35.02 11.5275C34.3661 12.9465 33.3107 14.3513 32.716 14.3513C32.5824 14.3513 32.4931 14.2791 32.4931 14.1075C32.4931 13.8352 32.8053 13.1616 32.924 12.8893L34.7525 8.89099C34.8862 8.59017 34.009 8.40357 32.8943 8.40357C31.7499 8.40357 30.5755 8.94843 29.7137 9.65049C29.1043 10.1374 28.6583 10.3814 28.4349 10.3814C28.3621 10.3965 28.2904 10.3516 28.2746 10.2815C28.2725 10.272 28.2716 10.2622 28.2717 10.2526C28.2717 10.0089 28.8811 9.32067 28.8811 8.79059C28.8811 8.54703 28.7475 8.3892 28.4052 8.3892C27.7516 8.3892 26.9783 8.99125 26.4136 9.62158L26.8893 8.51789H25.2843L23.9022 11.5277C23.248 12.9466 22.163 14.4231 21.5684 14.4231C21.4345 14.4231 21.3457 14.3515 21.3457 14.1792C21.3457 13.907 21.643 13.2481 21.8064 12.9037L23.6347 8.89115C23.7685 8.59032 22.8914 8.40373 21.7764 8.40373C20.1265 8.40373 18.5211 9.47859 17.674 10.5821C16.7377 11.7713 16.0988 13.0326 16.0837 14.0647C16.0692 14.8959 16.5145 15.4117 17.4066 15.4117C18.4025 15.4117 19.2054 14.6522 19.6659 14.0789C19.6386 14.1922 19.6186 14.3072 19.606 14.423C19.606 14.9959 19.8439 15.4116 20.5721 15.4116C21.2111 15.4116 22.0585 14.8957 22.7423 14.0788L22.1916 15.2971H23.9305L25.64 11.5564C26.2061 10.3386 26.8452 9.70816 27.023 9.70816C27.0639 9.70066 27.1034 9.72644 27.1113 9.76582C27.1121 9.77043 27.1126 9.77512 27.1126 9.77973C27.1126 9.90882 26.8452 10.2532 26.8452 10.568C26.8452 10.8828 27.023 11.1267 27.4994 11.1267C27.8704 11.1267 28.2868 10.9547 28.6585 10.7251C27.7816 11.872 27.1865 13.0758 27.1865 14.0649C27.1718 14.8962 27.6172 15.412 28.5095 15.412C29.4457 15.412 30.3227 14.552 30.7983 13.9788C30.7804 14.1118 30.7705 14.2458 30.7686 14.38C30.7686 14.9392 31.0958 15.412 31.7645 15.412C32.5075 15.412 33.1022 14.9674 33.8454 14.0935L33.2949 15.2973H35.0782L36.7131 11.7286C37.4266 10.1808 38.3925 9.34927 38.8682 9.34927C38.9871 9.33747 39.0936 9.42077 39.106 9.53555C39.106 9.53571 39.106 9.53602 39.106 9.53618V9.57892C39.0864 9.75293 39.0361 9.92257 38.9575 10.0804L36.6112 15.3115H38.4394L40.1043 11.6711C40.8173 10.1092 41.6055 9.34927 42.1999 9.34927C42.3782 9.34927 42.4528 9.43585 42.4528 9.62166C42.4369 9.8213 42.3814 10.016 42.2893 10.1957L40.6838 13.4915C40.5359 13.8088 40.4455 14.1479 40.4161 14.4945C40.4161 14.9963 40.6984 15.4413 41.5015 15.4413C42.5426 15.4413 43.3297 14.6817 44.2212 13.5495V13.793C44.2958 14.6959 44.8159 15.4842 46.1981 15.4842C47.833 15.4842 49.1565 14.3948 49.9584 12.6611C50.2617 12.0516 50.458 11.3975 50.5388 10.7257C50.7178 10.8133 50.9179 10.8531 51.118 10.8412C51.3882 10.8441 51.6543 10.7799 51.8912 10.6546L51.6088 11.242C51.2808 11.9014 50.9242 12.6323 50.643 13.249C50.4648 13.6136 50.3588 14.0071 50.3307 14.4094C50.3307 15.0253 50.6873 15.47 51.415 15.47C52.1427 15.47 53.1395 14.8107 53.8529 13.8792H53.8684C53.8206 14.0718 53.7954 14.2688 53.793 14.4667C53.793 14.9828 53.9569 15.4701 54.7001 15.4701C55.563 15.4701 56.2308 14.868 56.8854 14.1083L56.3349 15.3124H58.1336L59.5759 12.1594C60.3933 10.3824 61.2107 9.3077 61.9681 9.3077C62.0983 9.30325 62.2096 9.3974 62.2219 9.52258V9.56501C62.2219 9.86623 61.7755 10.6831 61.3746 11.4999C61.0024 12.2452 60.7199 12.8181 60.5272 13.2629C60.3484 13.6375 60.2426 14.0406 60.215 14.452C60.215 14.9964 60.5272 15.4121 61.2263 15.4121C62.2662 15.4121 63.3218 14.4377 63.8855 13.7065C63.7583 14.0571 63.6884 14.4243 63.6784 14.7955C63.6784 15.7992 64.3018 16.3007 65.1791 16.3007C65.7619 16.2964 66.3285 16.1161 66.7995 15.785C67.4829 15.3261 68.0335 14.6384 68.4942 14.0078L68.182 13.7209C67.7511 14.3086 67.2748 14.8677 66.7841 15.2116C66.5254 15.4225 66.201 15.5437 65.8625 15.5556C65.4916 15.5556 65.2533 15.3691 65.2533 14.9109C65.2533 14.4528 65.4759 13.8358 65.8183 13.0044C65.8326 12.9905 66.3233 11.9297 66.7841 10.9124C67.1706 10.052 67.5571 9.22113 67.6314 9.04915H68.8055L69.0435 8.53312H67.884L68.984 6.11055ZM18.2833 14.3799C18.0307 14.3799 17.8524 14.294 17.8524 13.9787C17.8671 13.1329 18.5952 11.6283 19.5025 10.4242C20.1414 9.59306 20.9737 8.97702 21.8656 8.97702L20.7358 11.413C19.8886 13.2477 18.967 14.3799 18.2833 14.3799ZM29.4014 14.3799C29.149 14.3799 28.9706 14.294 28.9559 13.9787C28.9707 13.1329 29.6989 11.6283 30.6058 10.4242C31.2446 9.59306 32.0772 8.97702 32.969 8.97702L31.8391 11.413C30.9772 13.2908 30.1003 14.3799 29.4012 14.3799H29.4014ZM49.1402 9.63658C49.0959 10.5678 48.2485 12.8175 47.2528 14.1652C46.8519 14.7097 46.5095 14.8672 46.2128 14.8672C45.7962 14.8672 45.6766 14.5374 45.7364 14.0503C45.825 13.2048 46.5538 11.2271 47.5651 9.86561C48.0258 9.24933 48.3383 8.99125 48.6948 8.99125C49.0516 8.99125 49.1556 9.27801 49.1402 9.63658ZM76.8817 8.5325L78.5189 4.88746H76.5813L74.9441 8.5325H70.826L70.139 10.0611H74.2583L72.6212 13.7061H74.5587L76.196 10.0611H80.3141L80.9999 8.5325H76.8817Z" fill="#0064FF"/>
</svg>
