<svg width="152" height="151" viewBox="0 0 152 151" fill="none" xmlns="http://www.w3.org/2000/svg">
  <path d="M151.33 0H0.941406V150.9H151.33V0Z" fill="#0064FF"/>
  <path d="M64.7714 100.918C64.266 100.708 63.4375 99.7785 64.8158 97.1899L68.0175 90.4984C68.1147 90.2962 67.881 90.043 67.7351 90.2148L64.9356 93.0295C63.611 94.412 61.364 98.2981 60.9289 99.0173L57.5278 104.639C57.7804 104.631 57.9919 104.83 57.9999 105.083C58.0024 105.166 57.9824 105.248 57.9417 105.321L54.8332 110.542C54.0742 111.837 55.4378 112.742 55.6226 112.444C60.5086 104.574 63.3504 105.202 63.3504 105.202L64.9814 101.425C65.0673 101.236 64.9835 101.013 64.7942 100.927C64.7872 100.924 64.7794 100.921 64.7714 100.918ZM75.8796 35.1626C47.9446 35.1626 25.2989 57.7972 25.2989 85.7185C25.2841 96.5273 28.7517 107.054 35.1878 115.737C37.3096 114.821 38.4887 113.452 39.331 112.404L48.7488 100.365C48.9471 100.111 49.2061 99.9117 49.502 99.7845L50.9197 99.1747L66.4051 79.542L68.6505 77.785L73.2645 71.3658C73.3837 71.1997 73.529 71.0536 73.6949 70.9334L75.708 69.4706C76.2054 69.1093 76.8771 69.1036 77.3802 69.4567L79.8231 71.1705C81.1191 72.0796 82.1696 73.2953 82.8813 74.7091L92.6664 91.8882C92.8261 92.216 93.0976 92.476 93.4318 92.6215C95.3508 93.5764 96.5231 93.7451 99.0346 96.472C100.207 97.7434 105.342 103.484 112.539 112.406C113.585 113.837 114.985 114.971 116.602 115.698C123.018 107.021 126.474 96.5105 126.459 85.7185C126.459 57.797 103.814 35.1626 75.8796 35.1626ZM38.9396 88.505L35.6601 87.4404L33.6342 90.2273V86.7831L30.3544 85.7183L33.6342 84.6535V81.2082L35.6601 83.9958L38.9396 82.9312L36.9134 85.7185L38.9396 88.505ZM38.1621 99.7779L37.0969 103.055L36.0316 99.7779H32.5848L35.3731 97.7527L34.3081 94.4762L37.0967 96.5014L39.8855 94.4762L38.8202 97.7527L41.609 99.7779H38.1621ZM38.8204 73.6823L39.8857 76.9588L37.0969 74.9335L34.3083 76.9588L35.3733 73.6823L32.585 71.657H36.0319L37.0971 68.3805L38.1625 71.657H41.6094L38.8204 73.6823ZM44.3555 66.2704L42.3306 63.4828L39.051 64.5475L41.0771 61.7603L39.051 58.973L42.3306 60.0376L44.3567 57.2503V60.6957L47.6363 61.7585L44.3567 62.8235V66.2688L44.3555 66.2704ZM52.9758 54.2089L51.9106 57.4856L50.8453 54.2091H47.3983L50.187 52.1839L49.122 48.9071L51.9106 50.932L54.699 48.9067L53.6339 52.1861L56.4227 54.2114H52.9756L52.9758 54.2089ZM63.8385 48.6765L61.8124 51.4641V48.0197L58.5326 46.9551L61.8124 45.89V42.4448L63.8385 45.2323L67.1166 44.1677L65.0906 46.9551L67.1168 49.7422L63.8385 48.6765ZM77.6032 45.5184L78.6684 48.7949L75.8796 46.7697L73.0909 48.7949L74.1549 45.5199L71.3665 43.4946H74.8134L75.879 40.2181L76.9443 43.4946H80.3912L77.6032 45.5184ZM89.9456 48.0197V51.4649L87.9204 48.6774L84.641 49.7422L86.6671 46.9551L84.6412 44.1677L87.9208 45.2323L89.9461 42.4448V45.89L93.2256 46.9551L89.9456 48.0197ZM112.818 82.9312L116.098 83.9958L118.123 81.2082V84.6535L121.403 85.7183L118.123 86.7831V90.2282L116.098 87.441L112.818 88.5056L114.847 85.7183L112.818 82.9312ZM99.8483 57.4864L98.7824 54.2097H95.3358L98.1235 52.1845L97.0607 48.9076L99.8483 50.9328L102.636 48.908L101.573 52.1845L104.361 54.2097H100.914L99.8483 57.4864ZM107.404 66.2712V62.8262L104.124 61.7612L107.404 60.6984V57.2515L109.429 60.0388L112.708 58.9742L110.683 61.7616L112.708 64.5487L109.429 63.4841L107.404 66.2712ZM113.595 71.6581L114.662 68.3816L115.727 71.6581H119.174L116.387 73.6833L117.452 76.9598L114.662 74.9346L111.874 76.9598L112.94 73.6833L110.149 71.6581H113.595ZM115.727 99.7779L114.661 103.055L113.595 99.7779H110.148L112.939 97.7527L111.873 94.4762L114.661 96.5014L117.451 94.4762L116.386 97.7527L119.173 99.7779H115.727ZM94.2002 114.936C94.4432 114.583 94.838 113.614 94.0969 111.82L91.8587 105.803C91.5549 105.035 92.2202 104.569 92.6666 105.074C92.6666 105.074 96.8967 109.95 97.9899 111.986L100.076 115.447C101.871 115.563 106.823 115.698 111.591 115.698C111.111 115.222 110.668 114.709 110.264 114.166C102.129 104.085 96.9691 98.4763 96.9175 98.4208C95.2688 96.6293 94.5067 96.285 93.2491 95.7124C93.067 95.6298 92.8695 95.5406 92.6662 95.4438V96.9743C92.6787 97.0777 92.6047 97.1716 92.5012 97.184C92.4175 97.1938 92.3371 97.147 92.3049 97.0691L80.3443 76.0676L80.311 76.0012C79.8122 75.012 79.077 74.1612 78.1706 73.5242L77.0039 72.7044L71.2979 85.8624C71.9796 85.8622 72.5327 86.4146 72.5331 87.0964C72.5333 87.2651 72.4987 87.4322 72.4315 87.5871L67.1596 99.7773H71.9989C73.8692 99.7773 75.7218 100.141 77.4527 100.85L78.7282 101.373C78.7282 101.373 74.8798 109.287 74.8798 113.455C74.8853 114.213 74.9912 114.966 75.194 115.697H84.0651L83.6543 113.199C87.1343 113.975 90.6549 114.556 94.2 114.937V114.936H94.2002Z" fill="white"/>
</svg>
