<svg width="155" height="57" viewBox="0 0 155 57" fill="none" xmlns="http://www.w3.org/2000/svg">
  <path d="M118.788 21.8123H96.5451C96.2499 21.8123 96.1137 21.6646 96.0342 21.3808L89.0512 0.295624L82.2159 21.3808C82.1477 21.676 82.0001 21.8123 81.7049 21.8123H59.4616L77.4243 34.9039C77.64 35.0515 77.8558 35.0515 78.0829 34.9039C83.022 31.8496 87.4616 29.6695 96.6928 27.3419C88.2564 33.882 79.9677 41.2964 73.1323 49.8804C72.9166 50.1756 72.8371 50.2437 72.7009 50.6752L70.7365 56.7044L88.6992 43.6922C88.9945 43.4765 89.1307 43.4765 89.4259 43.6922L107.389 56.7044L100.553 35.4716C100.485 35.1764 100.553 35.0401 100.769 34.8925L118.788 21.8123Z" fill="url(#paint0_linear_0_1)"/>
  <path d="M131.006 16.1464H137.035C140.668 16.1464 142.996 18.0312 142.996 21.3127C142.996 24.8779 140.668 27.2056 137.035 27.2056H131.006V16.1464ZM141.406 34.393C147.663 33.5981 152.818 28.2161 152.818 21.3808C152.818 12.513 146.788 7.64194 137.046 7.64194H121.343V52.2875H131.017V34.393L143.019 52.2762H154.214L141.406 34.393Z" fill="white"/>
  <path d="M43.6108 16.4303V52.2762H53.4324V16.4303H63.2426V7.64194H33.8006V16.4303H43.6108Z" fill="white"/>
  <path d="M15.6222 24.0718C12.7155 22.766 11.6254 21.3127 11.6254 19.4165C11.6254 17.2364 13.4421 15.4197 16.3489 15.4878C18.8923 15.556 20.8566 16.9412 22.2418 20.2113L30.5987 16.4984C28.271 10.5373 23.5476 7.05151 15.9174 7.05151C7.8444 7.05151 1.88333 12.3654 1.88333 19.4846C1.88333 24.3556 4.27912 28.2048 9.95633 31.0434L16.2126 34.1659C19.6984 35.9144 21.3789 37.2202 21.3789 39.7636C21.3789 42.5227 19.1307 44.487 16.2126 44.487C13.0901 44.487 10.2515 42.7385 8.94578 38.8212L0.214233 41.3759C2.24667 48.7222 8.28723 53.0142 16.1331 53.0142C24.6376 53.0142 31.1777 47.5641 31.1777 39.7068C31.1777 33.6776 27.9077 29.6695 21.6514 26.8423L15.6222 24.0718Z" fill="white"/>
  <defs>
    <linearGradient id="paint0_linear_0_1" x1="69.5872" y1="55.7514" x2="106.627" y2="11.6089" gradientUnits="userSpaceOnUse">
      <stop offset="0.28" stop-color="#FA1660"/>
      <stop offset="0.78" stop-color="#FF7D17"/>
    </linearGradient>
  </defs>
</svg>
