<svg width="225" height="225" viewBox="0 0 225 225" fill="none" xmlns="http://www.w3.org/2000/svg">
  <path d="M225 0H0V225H225V0Z" fill="#241C32"/>
  <path d="M154.074 105.812H131.831C131.536 105.812 131.399 105.665 131.32 105.381L124.337 84.2956L117.502 105.381C117.433 105.676 117.286 105.812 116.991 105.812H94.7474L112.71 118.904C112.926 119.052 113.142 119.052 113.369 118.904C118.308 115.85 122.747 113.67 131.979 111.342C123.542 117.882 115.253 125.296 108.418 133.88C108.202 134.176 108.123 134.244 107.987 134.675L106.022 140.704L123.985 127.692C124.28 127.476 124.416 127.476 124.712 127.692L142.674 140.704L135.839 119.472C135.771 119.176 135.839 119.04 136.055 118.893L154.074 105.812Z" fill="url(#paint0_linear_0_1)"/>
  <path d="M166.292 100.146H172.321C175.954 100.146 178.282 102.031 178.282 105.313C178.282 108.878 175.954 111.206 172.321 111.206H166.292V100.146ZM176.692 118.393C182.949 117.598 188.103 112.216 188.103 105.381C188.103 96.513 182.074 91.6419 172.332 91.6419H156.629V136.288H166.303V118.393L178.305 136.276H189.5L176.692 118.393Z" fill="white"/>
  <path d="M78.8966 100.43V136.276H88.7182V100.43H98.5284V91.6419H69.0864V100.43H78.8966Z" fill="white"/>
  <path d="M50.9079 108.072C48.0012 106.766 46.9112 105.313 46.9112 103.416C46.9112 101.236 48.7279 99.4197 51.6346 99.4878C54.178 99.556 56.1423 100.941 57.5276 104.211L65.8844 100.498C63.5568 94.5373 58.8333 91.0515 51.2032 91.0515C43.1302 91.0515 37.1691 96.3654 37.1691 103.485C37.1691 108.356 39.5649 112.205 45.2421 115.043L51.4984 118.166C54.9842 119.914 56.6646 121.22 56.6646 123.764C56.6646 126.523 54.4165 128.487 51.4984 128.487C48.3759 128.487 45.5373 126.738 44.2315 122.821L35.5 125.376C37.5324 132.722 43.573 137.014 51.4189 137.014C59.9234 137.014 66.4635 131.564 66.4635 123.707C66.4635 117.678 63.1934 113.67 56.9371 110.842L50.9079 108.072Z" fill="white"/>
  <defs>
    <linearGradient id="paint0_linear_0_1" x1="104.873" y1="139.751" x2="141.913" y2="95.6089" gradientUnits="userSpaceOnUse">
      <stop offset="0.28" stop-color="#FA1660"/>
      <stop offset="0.78" stop-color="#FF7D17"/>
    </linearGradient>
  </defs>
</svg>
