<svg width="155" height="57" viewBox="0 0 155 57" fill="none" xmlns="http://www.w3.org/2000/svg">
  <path d="M118.788 21.5166H96.5451C96.2499 21.5166 96.1137 21.369 96.0342 21.0852L89.0512 0L82.2159 21.0852C82.1477 21.3804 82.0001 21.5166 81.7049 21.5166H59.4616L77.4243 34.6083C77.64 34.7559 77.8558 34.7559 78.0829 34.6083C83.022 31.5539 87.4616 29.3739 96.6928 27.0462C88.2564 33.5864 79.9677 41.0008 73.1323 49.5848C72.9166 49.88 72.8371 49.9481 72.7009 50.3796L70.7365 56.4088L88.6992 43.3966C88.9945 43.1809 89.1307 43.1809 89.4259 43.3966L107.389 56.4088L100.553 35.176C100.485 34.8808 100.553 34.7445 100.769 34.5969L118.788 21.5166Z" fill="url(#paint0_linear_0_1)"/>
  <path d="M131.006 15.8508H137.035C140.668 15.8508 142.996 17.7356 142.996 21.017C142.996 24.5823 140.668 26.91 137.035 26.91H131.006V15.8508ZM141.406 34.0973C147.663 33.3025 152.818 27.9205 152.818 21.0852C152.818 12.2174 146.788 7.34631 137.046 7.34631H121.343V51.9919H131.017V34.0973L143.019 51.9805H154.214L141.406 34.0973Z" fill="#241C32"/>
  <path d="M43.6108 16.1346V51.9805H53.4324V16.1346H63.2426V7.34631H33.8006V16.1346H43.6108Z" fill="#241C32"/>
  <path d="M15.6222 23.7762C12.7155 22.4704 11.6254 21.017 11.6254 19.1209C11.6254 16.9408 13.4421 15.1241 16.3489 15.1922C18.8923 15.2604 20.8566 16.6456 22.2418 19.9157L30.5987 16.2028C28.271 10.2417 23.5476 6.75589 15.9174 6.75589C7.8444 6.75589 1.88333 12.0698 1.88333 19.189C1.88333 24.06 4.27912 27.9092 9.95633 30.7478L16.2126 33.8702C19.6984 35.6188 21.3789 36.9246 21.3789 39.468C21.3789 42.2271 19.1307 44.1914 16.2126 44.1914C13.0901 44.1914 10.2515 42.4428 8.94578 38.5256L0.214233 41.0803C2.24667 48.4266 8.28723 52.7186 16.1331 52.7186C24.6376 52.7186 31.1777 47.2685 31.1777 39.4112C31.1777 33.382 27.9077 29.3739 21.6514 26.5466L15.6222 23.7762Z" fill="#241C32"/>
  <defs>
    <linearGradient id="paint0_linear_0_1" x1="69.5872" y1="55.4558" x2="106.627" y2="11.3133" gradientUnits="userSpaceOnUse">
      <stop offset="0.28" stop-color="#FA1660"/>
      <stop offset="0.78" stop-color="#FF7D17"/>
    </linearGradient>
  </defs>
</svg>
