<svg width="97" height="25" viewBox="0 0 97 25" fill="none" xmlns="http://www.w3.org/2000/svg">
  <path d="M53.4227 6.98594V17.9828C53.4227 22.4094 51.0695 24.9953 46.8789 24.9953C42.6867 24.9953 40.4102 22.4047 40.4102 17.9828V6.98594C40.4102 2.58906 42.7133 0 46.8789 0C51.0445 0 53.4227 2.58906 53.4227 6.98594ZM49.0508 6.26406C49.0508 4.7375 48.2227 3.75469 46.9539 3.75469C45.6836 3.75469 44.7805 4.73906 44.7805 6.26406V18.7359C44.7805 20.2625 45.6586 21.2453 46.9289 21.2453C48.1977 21.2453 49.0508 20.2609 49.0508 18.7359V6.26563V6.26406ZM65.4539 7.16719V0.260937H69.5445V24.7141H65.2961L60.8711 9.9375H60.6398L60.7961 15.5031V24.7141H56.6805V0.260937H61.418L65.3539 13.4312H65.6148L65.4586 7.16719H65.4539ZM83.1555 21.0156V24.7141H73.118V0.260937H77.4398V21.0156H83.1555ZM89.932 7.29688L91.8195 0.2625L96.582 0.2375L90.9414 17.1625V24.7203H86.6445V17.0609L81.0586 0.23125L85.9523 0.25625L87.8648 7.29219L88.743 10.6297H89.0789L89.932 7.29219V7.29688Z" fill="white"/>
  <path d="M23.4598 0.260986L18.241 16.4829C18.0848 16.9641 17.3723 16.8547 17.3723 16.3469V0.260986H1.36133V7.55786H9.0957V24.7141H24.2988L32.5629 0.260986H23.4582H23.4598Z" fill="#FF153C"/>
</svg>
