<svg width="226" height="225" viewBox="0 0 226 225" fill="none" xmlns="http://www.w3.org/2000/svg">
  <g clip-path="url(#clip0_5590_635)">
    <g clip-path="url(#clip1_5590_635)">
      <path d="M81.0571 103.962V120.992C81.0571 127.846 77.4111 131.848 70.9224 131.848C64.4337 131.848 60.9062 127.839 60.9062 120.992V103.96C60.9062 97.1444 64.4724 93.1428 70.9224 93.1428C77.3724 93.1428 81.0571 97.1541 81.0571 103.96V103.962ZM74.2877 102.844C74.2877 100.481 73.0054 98.959 71.0385 98.959C69.074 98.959 67.6756 100.483 67.6756 102.844V122.156C67.6756 124.519 69.0353 126.044 70.9998 126.044C72.9667 126.044 74.2901 124.519 74.2901 122.156V102.847L74.2877 102.844ZM99.974 131.412L97.1675 118.27H92.8006V131.412H86.1087V93.5493H96.1248C102.219 93.5493 105.865 96.8759 105.865 103.287V107.973C105.865 111.339 104.583 113.903 102.855 115.505L106.702 131.412H99.974ZM95.0071 112.66C97.6103 112.66 99.0571 111.215 99.0571 108.254V103.682C99.0571 100.761 97.5716 99.2783 95.0071 99.2783H92.8853V112.66H95.0071ZM117.476 93.5493V131.412H110.784V93.5493H117.476ZM129.933 131.855C125.805 131.816 122.518 128.654 122.518 122.717V103.96C122.52 97.1081 126.089 93.1452 132.703 93.1452C139.315 93.1452 142.477 96.7114 142.477 102.286V107.337H135.824V102.806C135.824 100.038 134.542 98.959 132.626 98.959C130.705 98.959 129.299 100.483 129.299 102.806V122.156C129.299 124.923 130.697 126.044 132.584 126.044C134.474 126.044 135.911 124.481 135.911 122.439V116.543H132.548V111.012H142.487V131.407H136.915L136.431 128.359H135.95C134.909 130.962 132.943 131.886 129.943 131.848L129.933 131.855ZM154.056 93.5493V131.412H147.364V93.5493H154.056ZM173.167 104.243V93.5493H179.501V131.412H172.925L166.071 108.532H165.713L165.955 117.153V131.419H159.582V93.5493H166.918L173.012 113.944H173.416L173.174 104.243H173.167ZM198.207 123.603L190.233 123.525L189.028 131.419H182.135L189.388 93.5493H199.243L206.377 131.412H199.368L198.202 123.603H198.209H198.207ZM197.329 117.876L195.604 106.372L194.438 99.5565H193.995L192.875 106.372L191.111 117.876H197.329ZM224.491 125.686V131.412H208.939V93.5493H215.631V125.686H224.491Z" fill="white"/>
      <path d="M34.6608 93.5493L26.5777 118.667C26.3358 119.415 25.2325 119.243 25.2325 118.457V93.5493H0.441406V104.848H12.4172V131.412H35.9575L48.7559 93.5493H34.6608Z" fill="#FF153C"/>
    </g>
  </g>
  <defs>
    <clipPath id="clip0_5590_635">
      <rect x="0.441406" width="225" height="225" rx="112.5" fill="white"/>
    </clipPath>
    <clipPath id="clip1_5590_635">
      <rect width="225" height="38.7097" fill="white" transform="translate(0.441406 93.1453)"/>
    </clipPath>
  </defs>
</svg>
