<svg width="96" height="25" viewBox="0 0 96 25" fill="none" xmlns="http://www.w3.org/2000/svg">
  <path d="M43.915 1.0565H51.8515V23.3093H43.915V1.0565ZM0.5 7.69602H6.20512V23.3093H13.8818V7.69602H19.588V1.0565H0.5V7.69602ZM34.6595 1.0565L29.908 15.82C29.7672 16.2592 29.1173 16.1579 29.1173 15.6955V1.0565H21.5704V23.3093H35.4242L42.9464 1.0565H34.6595ZM67.4989 1.0565V10.353C67.4989 10.7813 66.9216 10.9167 66.7314 10.5336L62.0373 1.0565H54.5373V23.3093H61.8307V14.0632C61.8307 13.6351 62.4082 13.4995 62.5982 13.884L67.2691 23.3091H74.7706V1.0565H67.4989ZM84.056 14.4261V9.5661C84.056 8.3349 84.5459 7.42914 85.7266 7.1213C86.9907 6.7917 88.1578 7.59602 88.5546 8.91218L95.5347 5.17586C92.7834 0.159056 87.6365 0.226096 85.5774 0.408016C83.4691 0.595536 81.3088 1.2317 79.3976 2.86802C77.489 4.49874 76.5874 7.16114 76.5874 9.9685L76.5861 14.352C76.5861 18.529 78.232 21.3146 81.079 22.9426C85.9853 25.7499 92.8698 23.836 95.6552 21.7168V11.0355H88.4478V17.7024C87.4259 18.0992 84.0562 18.5549 84.0562 14.4258" fill="#FF143D"/>
</svg>
