<svg width="146" height="25" viewBox="0 0 146 25" fill="none" xmlns="http://www.w3.org/2000/svg">
  <path d="M52.0648 6.98604V17.9845C52.0648 22.411 49.7102 24.9954 45.5195 24.9954C41.3289 24.9954 39.0508 22.4063 39.0508 17.9845V6.98447C39.0508 2.58291 41.3539 -0.00146484 45.5195 -0.00146484C49.6852 -0.00146484 52.0648 2.58916 52.0648 6.98447V6.98604ZM47.693 6.26416C47.693 4.7376 46.8648 3.75479 45.5945 3.75479C44.3258 3.75479 43.4227 4.73916 43.4227 6.26416V18.736C43.4227 20.2626 44.3008 21.247 45.5695 21.247C46.8398 21.247 47.6945 20.2626 47.6945 18.736V6.26572L47.693 6.26416ZM64.282 24.7142L62.4695 16.2267H59.6492V24.7142H55.3273V0.261035H61.7961C65.732 0.261035 68.0867 2.40947 68.0867 6.5501V9.57666C68.0867 11.7501 67.2586 13.4063 66.143 14.4407L68.6273 24.7142H64.282ZM61.0742 12.6032C62.7555 12.6032 63.6898 11.6704 63.6898 9.75791V6.80479C63.6898 4.91885 62.7305 3.96104 61.0742 3.96104H59.7039V12.6032H61.0742ZM75.5852 0.261035V24.7142H71.2633V0.261035H75.5852ZM83.6305 25.0001C80.9648 24.9751 78.8414 22.9329 78.8414 19.0985V6.98447C78.843 2.55947 81.1477 9.76563e-05 85.4195 9.76563e-05C89.6898 9.76563e-05 91.732 2.30322 91.732 5.90322V9.16572H87.4352V6.23916C87.4352 4.45166 86.607 3.75479 85.3695 3.75479C84.1289 3.75479 83.2211 4.73916 83.2211 6.23916V18.736C83.2211 20.5235 84.1242 21.247 85.343 21.247C86.5633 21.247 87.4914 20.2376 87.4914 18.9188V15.111H85.3195V11.5392H91.7383V24.711H88.1398L87.8273 22.7423H87.5164C86.8445 24.4235 85.5742 25.0204 83.6367 24.9954L83.6305 25.0001ZM99.2102 0.261035V24.7142H94.8883V0.261035H99.2102ZM111.552 7.16728V0.261035H115.643V24.7142H111.396L106.97 9.9376H106.738L106.895 15.5048V24.7188H102.779V0.261035H107.516L111.452 13.4329H111.713L111.557 7.16728H111.552ZM127.724 19.6704L122.574 19.6204L121.796 24.7188H117.345L122.029 0.261035H128.393L133.001 24.7142H128.474L127.721 19.6704H127.726H127.724ZM127.157 15.972L126.043 8.54229L125.29 4.14072H125.004L124.28 8.54229L123.141 15.972H127.157ZM144.699 21.0157V24.7142H134.655V0.261035H138.977V21.0157H144.699Z" fill="white"/>
  <path d="M22.1 0.260986L16.8797 16.4829C16.7234 16.9657 16.0109 16.8547 16.0109 16.3469V0.260986H0V7.55786H7.73437V24.7141H22.9375L31.2031 0.260986H22.1Z" fill="#FF153C"/>
</svg>
