<svg width="226" height="225" viewBox="0 0 226 225" fill="none" xmlns="http://www.w3.org/2000/svg">
  <g clip-path="url(#clip0_5590_635)">
    <path d="M120.867 103.734V121.216C120.867 128.253 117.127 132.363 110.465 132.363C103.801 132.363 100.182 128.245 100.182 121.216V103.734C100.182 96.7447 103.843 92.6289 110.465 92.6289C117.087 92.6289 120.867 96.7447 120.867 103.734ZM113.917 102.587C113.917 100.16 112.601 98.5976 110.584 98.5976C108.565 98.5976 107.129 100.162 107.129 102.587V122.413C107.129 124.84 108.525 126.402 110.544 126.402C112.561 126.402 113.917 124.837 113.917 122.413V102.589V102.587ZM139.993 104.022V93.0437H146.496V131.916H139.742L132.708 108.426H132.34L132.589 117.274V131.916H126.046V93.0437H133.577L139.834 113.98H140.249L140.001 104.022H139.993ZM168.133 126.037V131.916H152.177V93.0437H159.047V126.037H168.133ZM178.905 104.229L181.906 93.0462L189.477 93.0065L180.51 119.912V131.926H173.679V119.75L164.8 92.9965L172.579 93.0363L175.619 104.221L177.015 109.527H177.549L178.905 104.221V104.229Z" fill="white"/>
    <path d="M73.2349 93.0437L64.9387 118.831C64.6903 119.596 63.5577 119.422 63.5577 118.615V93.0437H38.1055V104.643H50.4006V131.916H74.5687L87.7059 93.0437H73.2324H73.2349Z" fill="#FF153C"/>
  </g>
  <defs>
    <clipPath id="clip0_5590_635">
      <rect width="154" height="39.7419" fill="white" transform="translate(35.9414 92.6289)"/>
    </clipPath>
  </defs>
</svg>
