<svg width="226" height="225" viewBox="0 0 226 225" fill="none" xmlns="http://www.w3.org/2000/svg">
  <g clip-path="url(#clip0_5590_635)">
    <path d="M70.3845 92.7829C70.3845 92.8385 69.751 98.6146 69.0072 105.64C68.2635 112.666 67.63 118.498 67.63 118.609C67.63 119.053 66.8312 118.803 66.6935 118.331C66.6384 118.081 65.9773 114.11 65.2887 109.528C64.6 104.946 63.9114 100.92 63.7737 100.558C63.5258 99.9753 63.3605 99.9476 60.7713 99.9476C58.4024 99.9476 58.0168 100.003 57.9066 100.42C57.824 100.697 57.1078 105.141 56.309 110.278C55.097 117.998 54.7665 119.664 54.4084 119.664C54.0503 119.664 53.7749 118.054 52.7006 110.084C51.9845 104.835 51.3509 100.392 51.2408 100.225C51.1306 100.059 49.6707 99.9476 47.6324 99.9476C44.5749 99.9476 44.2168 100.003 44.2168 100.42C44.2168 101.058 50.4144 127.967 50.6072 128.134C50.7725 128.301 57.4108 127.856 57.5761 127.662C57.6312 127.606 58.2647 123.996 58.9258 119.664C59.6144 115.304 60.2479 111.333 60.3306 110.833C60.5785 109.473 61.2396 109.723 61.4599 111.25C62.1761 116.11 63.9941 127.19 64.0767 127.273C64.2695 127.44 71.321 126.884 71.5138 126.662C71.6516 126.496 77.5737 93.4494 77.5462 92.9218C77.5462 92.7552 70.3845 92.6163 70.3845 92.7829Z" fill="black"/>
    <path d="M81.4023 112.028V125.218H86.2227H91.0431V123.83V122.441H87.8754H84.7077V117.582V112.722H87.7377H90.7676V111.194V109.667H87.7377H84.6802L84.7628 105.696L84.8455 101.753L87.958 101.669L91.0431 101.586V100.225V98.8369H86.2227H81.4023V112.028Z" fill="#FF0558"/>
    <path d="M119.689 112.028V125.218H121.204H122.719V112.028V98.8369H121.204H119.689V112.028Z" fill="#FF0558"/>
    <path d="M151.834 100.17C150.898 101.225 151.449 102.808 152.881 103.169C154.231 103.502 155.47 102.03 154.974 100.669C154.534 99.5587 152.633 99.2532 151.834 100.17Z" fill="#FF0558"/>
    <path d="M109.691 105.89C107.983 106.362 106.826 107.501 106.33 109.223C105.835 110.917 105.752 120.025 106.22 121.747C106.936 124.302 108.644 125.468 111.702 125.496C113.988 125.496 115.723 124.691 116.412 123.274C116.687 122.747 116.99 121.386 117.1 120.275L117.293 118.276H115.585H113.905V119.775C113.905 121.775 113.189 122.719 111.702 122.719C109.443 122.719 108.975 121.469 108.975 115.638C108.975 109.861 109.443 108.528 111.564 108.473C112.996 108.445 113.905 109.5 113.905 111.222V112.444H115.585H117.293L117.1 110.722C117.018 109.778 116.715 108.556 116.439 108.029C115.53 106.14 112.39 105.141 109.691 105.89Z" fill="#FF0558"/>
    <path d="M142.221 105.89C139.908 106.529 139.247 107.612 139.247 110.778C139.247 113.805 139.908 114.749 143.296 116.443C145.775 117.692 146.133 118.192 146.133 120.414C146.133 121.886 146.05 122.191 145.527 122.552C143.847 123.746 142.001 122.635 142.001 120.414V119.109H140.459H138.916L139.026 121.053C139.191 124.274 140.651 125.579 144.039 125.579C146.243 125.579 147.841 124.996 148.529 123.913C149.19 122.913 149.466 120.636 149.163 118.609C148.86 116.415 148.144 115.554 145.582 114.332C142.827 113.027 142.276 112.388 142.276 110.5C142.276 108.695 142.579 108.278 143.929 108.278C145.362 108.278 145.885 108.778 146.05 110.306L146.215 111.611H147.538H148.887V110C148.887 108.167 148.254 106.862 147.042 106.251C145.885 105.64 143.681 105.474 142.221 105.89Z" fill="#FF0558"/>
    <path d="M174.202 105.752C172.577 106.085 171.31 107.057 170.593 108.501C169.987 109.75 169.96 110.084 169.987 115.638C170.015 122.025 170.125 122.691 171.668 124.191C173.926 126.329 179.242 125.829 180.647 123.33C180.95 122.83 181.253 121.636 181.336 120.636L181.474 118.831H179.959H178.444L178.306 120.22C178.141 121.83 177.59 122.58 176.405 122.83C175.386 123.024 173.816 122.414 173.403 121.636C173.238 121.303 173.072 119.942 173.045 118.609L172.99 116.193L177.204 116.11L181.391 116.026V113.194C181.391 109.889 181.088 108.64 180.096 107.418C178.912 106.002 176.405 105.28 174.202 105.752ZM176.681 108.584C177.81 109.001 178.361 110.084 178.361 112.028V113.555H175.607H172.825L173.017 111.805C173.32 108.834 174.477 107.807 176.681 108.584Z" fill="#FF0558"/>
    <path d="M94.0456 106.001L92.4755 106.085L94.5138 110.667L96.5521 115.277L94.4587 120.025C93.3018 122.663 92.3102 124.885 92.2276 124.996C92.1725 125.135 92.8887 125.218 93.8527 125.218H95.6156L96.9653 121.608C97.7366 119.637 98.4252 117.998 98.5354 117.998C98.6456 117.998 99.3342 119.581 100.078 121.525L101.455 125.079L103.163 125.163C104.485 125.218 104.843 125.163 104.733 124.885C104.65 124.691 103.686 122.441 102.612 119.886L100.601 115.221L102.584 110.722C103.659 108.223 104.54 106.14 104.54 106.057C104.54 105.974 103.769 105.974 102.832 106.057L101.152 106.196L99.9126 109.445C99.224 111.25 98.5905 112.722 98.5078 112.722C98.4252 112.722 97.7917 111.222 97.1581 109.389C96.497 107.557 95.8635 106.029 95.7809 106.001C95.6707 105.946 94.8994 105.946 94.0456 106.001Z" fill="#FF0558"/>
    <path d="M127.072 106.001L125.75 106.085V114.416C125.75 123.441 125.778 123.719 127.293 124.913C128.257 125.662 130.928 125.718 132.113 125.024C132.554 124.746 132.912 124.441 132.912 124.329C132.912 124.218 133.049 124.107 133.187 124.107C133.352 124.107 133.463 124.357 133.463 124.663C133.463 125.163 133.655 125.218 134.978 125.218H136.493V115.554V105.918L135.06 105.946L133.6 106.001L133.463 113.583C133.38 117.776 133.215 121.414 133.077 121.691C132.526 122.83 130.267 123.108 129.331 122.163C128.807 121.636 128.78 121.247 128.78 113.86C128.78 109.584 128.697 106.057 128.587 106.001C128.449 105.946 127.788 105.946 127.072 106.001Z" fill="#FF0558"/>
    <path d="M153.102 105.974L151.643 106.085V115.665V125.218H153.158H154.673V115.499C154.673 110.139 154.645 105.807 154.617 105.835C154.562 105.863 153.874 105.918 153.102 105.974Z" fill="#FF0558"/>
    <path d="M167.151 106.001C165.911 106.085 165.663 106.168 165.553 106.696C165.47 107.029 164.864 110.361 164.176 114.083C163.019 120.414 162.799 121.33 162.578 121.025C162.468 120.914 159.906 106.64 159.906 106.251C159.906 106.14 159.135 106.057 158.226 106.057C156.601 106.057 156.546 106.085 156.711 106.668C156.794 107.029 157.758 111.333 158.86 116.249L160.87 125.218H162.716C164.231 125.218 164.589 125.135 164.699 124.718C165.195 123.08 168.748 106.557 168.666 106.251C168.611 106.029 168.115 105.946 167.151 106.001Z" fill="#FF0558"/>
  </g>
  <defs>
    <clipPath id="clip0_5590_635">
      <rect width="138" height="35.5455" fill="white" transform="translate(43.9414 92.7273)"/>
    </clipPath>
  </defs>
</svg>
