<svg width="226" height="225" viewBox="0 0 226 225" fill="none" xmlns="http://www.w3.org/2000/svg">
  <g clip-path="url(#clip0_5590_635)">
    <path d="M79.1967 93.1973C79.1967 93.3667 78.592 99.0027 77.8663 105.727C77.1407 112.452 76.5359 118.136 76.5359 118.378C76.5359 118.789 75.907 119.225 75.6651 118.983C75.5684 118.862 72.6657 100.962 72.6657 100.406C72.6657 100.261 71.5288 100.164 69.6662 100.164H66.691L65.796 105.776C65.288 108.872 64.5865 113.25 64.2479 115.524C63.7157 118.886 63.5222 119.636 63.1836 119.709C62.6514 119.805 62.724 120.265 61.2727 109.477C60.5954 104.421 60.0148 100.261 59.9906 100.212C59.9423 100.188 58.2974 100.188 56.2897 100.212L52.6855 100.285L55.9269 114.314C57.7169 122.031 59.1924 128.368 59.2166 128.392C59.3133 128.489 66.2556 127.957 66.3523 127.836C66.4007 127.788 67.0296 124.135 67.7311 119.733C69.3276 109.67 69.2308 110.081 69.6421 110.081C70.0775 110.081 70.0291 109.815 71.5046 119.225L72.7866 127.522L75.6893 127.352C77.2858 127.28 79.0274 127.135 79.5596 127.038L80.5029 126.893L80.8174 125.078C80.9867 124.087 82.3655 116.443 83.8652 108.074L86.5986 92.9071H82.8976C80.0917 92.9071 79.1967 92.9796 79.1967 93.1973Z" fill="black"/>
    <path d="M94.4842 98.9301C92.017 99.7767 90.7349 101.76 90.3237 105.316C90.0093 107.977 90.0093 116.733 90.3237 119.249C90.6382 121.74 91.2671 123.119 92.6459 124.329C94.0247 125.538 95.3551 125.901 97.8707 125.756C100.991 125.586 102.829 124.329 103.773 121.716C104.378 119.975 104.692 112.863 104.402 107.759C104.16 103.695 104.111 103.405 103.386 101.93C102.563 100.26 101.281 99.1962 99.5156 98.7124C98.1852 98.3495 95.8872 98.4463 94.4842 98.9301ZM99.7575 102.462C101.015 103.671 101.088 104.203 101.088 112.258C101.088 119.321 101.064 119.684 100.556 120.773C99.9268 122.152 98.9108 122.756 97.1934 122.756C96.2017 122.756 95.7663 122.635 95.089 122.103C93.6618 121.015 93.5893 120.507 93.5893 112.137C93.5893 105.268 93.6376 104.542 94.0488 103.599C94.7261 102.099 95.6695 101.567 97.5079 101.688C98.7899 101.736 99.1285 101.857 99.7575 102.462Z" fill="#FF0558"/>
    <path d="M170.316 112.186L170.389 125.441L171.84 125.514L173.291 125.586L173.34 112.258L173.412 98.9543H171.84H170.268L170.316 112.186Z" fill="#FF0558"/>
    <path d="M116.666 100.139C116.255 100.454 116.109 100.841 116.109 101.494C116.109 103.115 118.093 103.937 119.302 102.824C121.02 101.228 118.48 98.6639 116.666 100.139Z" fill="#FF0558"/>
    <path d="M136.888 100.285C136.549 100.599 136.283 101.156 136.283 101.494C136.283 102.413 137.299 103.308 138.315 103.308C139.283 103.308 140.153 102.413 140.153 101.446C140.153 100.623 139.138 99.68 138.218 99.68C137.759 99.68 137.251 99.8977 136.888 100.285Z" fill="#FF0558"/>
    <path d="M124.794 106.066C124.382 106.235 123.753 106.719 123.415 107.13C122.23 108.533 122.133 109.259 122.133 115.766C122.133 122.418 122.302 123.385 123.657 124.643C125.253 126.119 128.011 126.143 129.728 124.691C130.696 123.893 130.696 123.845 130.526 127.207C130.454 128.683 129.462 129.674 128.059 129.674C126.487 129.674 125.423 128.924 125.398 127.788C125.398 127.28 125.302 127.255 123.802 127.255H122.181L122.351 128.271C122.762 130.763 124.261 132.021 127.043 132.263C130.309 132.529 132.728 131.319 133.357 129.07C133.526 128.441 133.623 124.377 133.623 117.023V105.969H132.171H130.72V106.695C130.72 107.517 130.454 107.614 129.97 107.009C129.027 105.896 126.318 105.389 124.794 106.066ZM129.51 109.283C130.454 110.154 130.72 111.581 130.72 115.766C130.72 119.95 130.454 121.377 129.51 122.248C128.543 123.119 127.164 123.143 126.221 122.321C125.423 121.644 125.181 120.047 125.181 115.524C125.205 111.194 125.423 109.888 126.221 109.21C127.164 108.388 128.543 108.412 129.51 109.283Z" fill="#FF0558"/>
    <path d="M147.894 105.993C147.58 106.114 146.951 106.501 146.515 106.84L145.717 107.445V106.719V105.969H144.266H142.814V115.524C142.814 120.773 142.814 125.151 142.814 125.248C142.814 125.369 143.468 125.465 144.266 125.514L145.717 125.586V118.499C145.717 114.387 145.814 111.025 145.959 110.517C146.443 108.799 148.547 108.025 149.853 109.09L150.434 109.549L150.555 117.507L150.676 125.441L152.2 125.514L153.724 125.586L153.651 116.878C153.579 108.533 153.554 108.146 153.071 107.517C152.176 106.308 151.377 105.897 149.902 105.8C149.128 105.776 148.233 105.848 147.894 105.993Z" fill="#FF0558"/>
    <path d="M159.77 105.945C157.81 106.453 156.77 107.832 156.649 110.081L156.552 111.774H158.149C159.092 111.774 159.721 111.678 159.624 111.557C159.383 111.17 159.939 109.259 160.374 108.944C161.052 108.436 163.059 108.557 163.616 109.114C164.245 109.742 164.39 110.396 164.293 112.258L164.22 113.83L161.681 113.951C158.512 114.121 157.472 114.58 156.649 116.153C156.141 117.12 156.093 117.459 156.165 120.361C156.262 124.062 156.48 124.595 158.246 125.369C159.745 126.046 161.56 125.852 163.156 124.861L164.341 124.135V124.861V125.586L165.865 125.514L167.365 125.441V117.338C167.365 109.331 167.341 109.21 166.784 108.073C166.035 106.525 164.849 105.921 162.406 105.824C161.414 105.775 160.229 105.848 159.77 105.945ZM164.341 118.426C164.341 121.74 163.519 123.022 161.414 123.022C159.673 123.022 159.407 122.635 159.31 120.047C159.237 118.209 159.286 117.87 159.721 117.289C160.302 116.564 160.689 116.443 162.842 116.394L164.341 116.37V118.426Z" fill="#FF0558"/>
    <path d="M107.256 115.766V125.562H108.828H110.4V118.886C110.4 114.459 110.497 111.871 110.691 111.242C111.029 110.057 112.069 109.162 113.327 108.969L114.271 108.799V107.348V105.897L113.158 106.042C112.336 106.114 111.852 106.356 111.223 106.961L110.4 107.759V106.864V105.969H108.828H107.256V115.766Z" fill="#FF0558"/>
    <path d="M116.447 115.766V125.586L117.971 125.514L119.471 125.441L119.543 115.693L119.592 105.969H118.02H116.447V115.766Z" fill="#FF0558"/>
    <path d="M136.766 115.766V125.562H138.217H139.668V115.766V105.969H138.217H136.766V115.766Z" fill="#FF0558"/>
  </g>
  <defs>
    <clipPath id="clip0_5590_635">
      <rect width="121.187" height="39.67" fill="white" transform="translate(52.3477 92.665)"/>
    </clipPath>
  </defs>
</svg>
