<svg width="71" height="19" viewBox="0 0 71 19" fill="none" xmlns="http://www.w3.org/2000/svg">
  <path d="M13.9093 0.255605C13.9093 0.28376 13.5886 3.20874 13.2119 6.76635C12.8353 10.3243 12.5145 13.2776 12.5145 13.3338C12.5145 13.5586 12.11 13.432 12.0403 13.193C12.0123 13.0664 11.6776 11.0555 11.3289 8.73521C10.9801 6.41492 10.6314 4.37618 10.5617 4.19286C10.4362 3.89779 10.3524 3.88376 9.04129 3.88376C7.8417 3.88376 7.64643 3.91181 7.59063 4.12298C7.5488 4.26325 7.18612 6.51366 6.78161 9.11501C6.16786 13.0244 6.0005 13.868 5.81916 13.868C5.63782 13.868 5.49836 13.0527 4.95434 9.01676C4.59171 6.35871 4.27086 4.1088 4.21511 4.02423C4.1593 3.94017 3.42002 3.88376 2.38784 3.88376C0.839543 3.88376 0.658203 3.91181 0.658203 4.12298C0.658203 4.44606 3.79663 18.0726 3.89426 18.1572C3.97797 18.2417 7.33956 18.0164 7.42326 17.9181C7.45116 17.8898 7.77196 16.0617 8.10674 13.868C8.45544 11.6601 8.77624 9.64925 8.81812 9.39605C8.94366 8.70736 9.27843 8.83396 9.38999 9.60722C9.75267 12.0683 10.6733 17.6791 10.7151 17.7212C10.8128 17.8057 14.3836 17.5242 14.4812 17.4118C14.551 17.3277 17.5499 0.593116 17.536 0.325943C17.536 0.241578 13.9093 0.17124 13.9093 0.255605Z" fill="#FF0558"/>
  <path d="M19.4883 10.0012V16.6805H21.9293H24.3703V15.9776V15.2742H22.7662H21.1621V12.8137V10.3526H22.6965H24.2308V9.57884V8.80558H22.6965H21.1482L21.19 6.79469L21.2319 4.79798L22.808 4.75545L24.3703 4.71341V4.02421V3.32129H21.9293H19.4883V10.0012Z" fill="white"/>
  <path d="M38.877 10.0012V16.6805H39.6441H40.4113V10.0012V3.32129H39.6441H38.877V10.0012Z" fill="white"/>
  <path d="M55.1543 3.99645C54.6803 4.5307 54.9593 5.33232 55.6845 5.51513C56.3681 5.68376 56.9956 4.93835 56.7444 4.24914C56.5216 3.6869 55.5589 3.53219 55.1543 3.99645Z" fill="white"/>
  <path d="M33.813 6.8929C32.9481 7.13192 32.3622 7.7087 32.111 8.58071C31.8603 9.43854 31.8183 14.0508 32.0553 14.9228C32.4179 16.2166 33.2828 16.8071 34.8313 16.8212C35.9889 16.8212 36.8675 16.4136 37.2164 15.696C37.3557 15.4292 37.5091 14.74 37.5648 14.1774L37.6626 13.1651H36.7977H35.9469V13.9242C35.9469 14.937 35.5843 15.415 34.8313 15.415C33.6874 15.415 33.4504 14.782 33.4504 11.8292C33.4504 8.90379 33.6874 8.22876 34.7615 8.20091C35.4866 8.18673 35.9469 8.72098 35.9469 9.59299V10.2118H36.7977H37.6626L37.5648 9.33979C37.5233 8.86176 37.3699 8.24294 37.2301 7.97607C36.7698 7.0195 35.1797 6.51361 33.813 6.8929Z" fill="white"/>
  <path d="M50.2869 6.89293C49.1156 7.21651 48.7809 7.76494 48.7809 9.36818C48.7809 10.901 49.1156 11.3791 50.8313 12.2369C52.0866 12.8694 52.2679 13.1226 52.2679 14.2478C52.2679 14.9932 52.2259 15.1476 51.961 15.3305C51.1103 15.9351 50.1755 15.3725 50.1755 14.2478V13.5869H49.3946H48.6133L48.669 14.5714C48.7525 16.2025 49.4919 16.8633 51.2075 16.8633C52.3236 16.8633 53.1328 16.5681 53.4812 16.0197C53.816 15.5133 53.9557 14.3602 53.8023 13.3337C53.6489 12.2227 53.2863 11.7867 51.9889 11.1679C50.5938 10.5071 50.3148 10.1835 50.3148 9.2274C50.3148 8.31336 50.4682 8.10219 51.1518 8.10219C51.8775 8.10219 52.1423 8.35539 52.2259 9.12916L52.3094 9.79H52.9794H53.6625V8.9742C53.6625 8.04599 53.342 7.38514 52.7282 7.07574C52.1423 6.76633 51.0262 6.68227 50.2869 6.89293Z" fill="white"/>
  <path d="M66.4816 6.82295C65.6587 6.99158 65.0171 7.4838 64.654 8.21503C64.3472 8.84751 64.3335 9.01665 64.3472 11.8292C64.3613 15.0635 64.417 15.4007 65.1984 16.1603C66.3418 17.243 69.0338 16.9898 69.7453 15.7243C69.8988 15.4711 70.0522 14.8665 70.0942 14.3601L70.1641 13.4461H69.3969H68.6297L68.5598 14.1494C68.4763 14.9647 68.1973 15.3445 67.5972 15.4711C67.0812 15.5694 66.2861 15.2605 66.077 14.8665C65.9934 14.6979 65.9094 14.0087 65.8957 13.3337L65.8679 12.1102L68.0018 12.0682L70.1221 12.0256V10.5915C70.1221 8.9179 69.9686 8.28542 69.4663 7.6666C68.8667 6.94955 67.5972 6.58393 66.4816 6.82295ZM67.737 8.25706C68.3087 8.46822 68.5877 9.01665 68.5877 10.0011V10.7743H67.1931H65.7843L65.8815 9.88815C66.035 8.38366 66.6209 7.86359 67.737 8.25706Z" fill="white"/>
  <path d="M25.8909 6.94911L25.0958 6.99165L26.128 9.31194L27.1602 11.6464L26.1001 14.0508C25.5142 15.3866 25.0121 16.5118 24.9703 16.5681C24.9424 16.6384 25.305 16.6805 25.7932 16.6805H26.6859L27.3694 14.8524C27.76 13.8543 28.1087 13.0243 28.1645 13.0243C28.2203 13.0243 28.569 13.8259 28.9456 14.8104L29.643 16.6101L30.5079 16.6526C31.1773 16.6805 31.3586 16.6526 31.3029 16.5118C31.2609 16.4136 30.7727 15.2742 30.2288 13.9804L29.2105 11.6181L30.2147 9.33979C30.759 8.07432 31.2052 7.0195 31.2052 6.97747C31.2052 6.93544 30.8147 6.93544 30.3403 6.97747L29.4895 7.04786L28.8619 8.69313C28.5132 9.60717 28.1924 10.3526 28.1505 10.3526C28.1087 10.3526 27.7879 9.59299 27.467 8.66477C27.1323 7.73706 26.8115 6.96329 26.7696 6.94911C26.7138 6.92126 26.3232 6.92126 25.8909 6.94911Z" fill="white"/>
  <path d="M42.6148 6.94901L41.9453 6.99155V11.2103C41.9453 15.7805 41.9595 15.9213 42.7267 16.5259C43.2148 16.9052 44.5674 16.9336 45.1675 16.5821C45.3908 16.4414 45.5721 16.2869 45.5721 16.2302C45.5721 16.174 45.6415 16.1178 45.7114 16.1178C45.7949 16.1178 45.8511 16.2444 45.8511 16.3993C45.8511 16.6525 45.9483 16.6804 46.6183 16.6804H47.3855V11.7866V6.90698L46.6598 6.92116L45.9205 6.94901L45.8511 10.7885C45.8091 12.9118 45.7255 14.7541 45.6557 14.8943C45.3766 15.4711 44.2327 15.6119 43.7587 15.1333C43.4934 14.8665 43.4797 14.6695 43.4797 10.9288C43.4797 8.76342 43.4377 6.97737 43.382 6.94901C43.3121 6.92116 42.9773 6.92116 42.6148 6.94901Z" fill="white"/>
  <path d="M55.7974 6.93545L55.0586 6.99166V11.8429V16.6805H55.8258H56.593V11.7588C56.593 9.04458 56.5788 6.85088 56.5646 6.86506C56.5368 6.87924 56.1884 6.90709 55.7974 6.93545Z" fill="white"/>
  <path d="M62.9122 6.94924C62.2843 6.99178 62.1587 7.03381 62.103 7.30118C62.0609 7.46981 61.7541 9.15711 61.4057 11.0419C60.8198 14.2479 60.7084 14.7117 60.5965 14.5573C60.5408 14.5011 59.2434 7.27282 59.2434 7.07584C59.2434 7.01963 58.8529 6.9776 58.3926 6.9776C57.5697 6.9776 57.5419 6.99178 57.6254 7.287C57.6675 7.46981 58.1556 9.64933 58.7137 12.1388L59.7315 16.6806H60.6663C61.4335 16.6806 61.6148 16.6386 61.6705 16.4274C61.9217 15.5979 63.7209 7.23079 63.6794 7.07584C63.6515 6.96342 63.4004 6.92139 62.9122 6.94924Z" fill="white"/>
</svg>
