<svg width="56" height="19" viewBox="0 0 56 19" fill="none" xmlns="http://www.w3.org/2000/svg">
  <path d="M12.5137 0.958095C12.5137 1.03496 12.2393 3.59225 11.91 6.64336C11.5808 9.69479 11.3063 12.2739 11.3063 12.3837C11.3063 12.5702 11.021 12.768 10.9112 12.6582C10.8673 12.6033 9.55026 4.48127 9.55026 4.22899C9.55026 4.1632 9.0344 4.11919 8.18925 4.11919H6.83928L6.43318 6.6656C6.20267 8.07039 5.88438 10.0569 5.73074 11.0887C5.48926 12.6142 5.40146 12.9545 5.24782 12.9876C5.00634 13.0312 5.03928 13.2399 4.38076 8.3449C4.07344 6.05077 3.81 4.1632 3.79902 4.14097C3.7771 4.13008 3.03074 4.13008 2.11976 4.14097L0.484375 4.17409L1.95514 10.5397C2.76734 14.0412 3.43684 16.9166 3.44782 16.9275C3.49169 16.9715 6.64172 16.7301 6.6856 16.6752C6.70756 16.6534 6.99292 14.9959 7.31122 12.9985C8.03562 8.43247 7.99169 8.61896 8.17832 8.61896C8.37588 8.61896 8.35392 8.49826 9.02342 12.768L9.60512 16.5327L10.9222 16.4556C11.6466 16.4229 12.4368 16.3571 12.6783 16.3131L13.1063 16.2473L13.249 15.4238C13.3259 14.9741 13.9515 11.5057 14.632 7.7083L15.8722 0.826416H14.1929C12.9198 0.826416 12.5137 0.859316 12.5137 0.958095Z" fill="#FF0558"/>
  <path d="M19.4499 3.55924C18.3304 3.94338 17.7487 4.84329 17.5621 6.4568C17.4194 7.66421 17.4194 11.6372 17.5621 12.7788C17.7048 13.9091 17.9901 14.5348 18.6158 15.0838C19.2414 15.6324 19.845 15.7971 20.9865 15.7313C22.4023 15.6542 23.2363 15.0838 23.6646 13.8982C23.9391 13.1082 24.0816 9.8812 23.95 7.5653C23.8402 5.72128 23.818 5.5897 23.489 4.92043C23.1156 4.16268 22.5339 3.67998 21.7328 3.46046C21.1292 3.2958 20.0865 3.33972 19.4499 3.55924ZM21.8426 5.16182C22.4132 5.71039 22.4463 5.95179 22.4463 9.60669C22.4463 12.8115 22.4354 12.9762 22.2049 13.4703C21.9194 14.096 21.4584 14.3701 20.6792 14.3701C20.2292 14.3701 20.0316 14.3152 19.7243 14.0738C19.0767 13.5801 19.0438 13.3496 19.0438 9.55179C19.0438 6.43502 19.0657 6.1056 19.2523 5.67772C19.5596 4.99711 19.9877 4.75572 20.8219 4.81062C21.4036 4.8324 21.5572 4.8873 21.8426 5.16182Z" fill="white"/>
  <path d="M53.8577 9.57411L53.8908 15.5885L54.5492 15.6216L55.2076 15.6543L55.2298 9.60678L55.2625 3.57031H54.5492H53.8359L53.8577 9.57411Z" fill="white"/>
  <path d="M29.5145 4.10771C29.328 4.25064 29.2617 4.42624 29.2617 4.72253C29.2617 5.45805 30.1619 5.83102 30.7105 5.32601C31.4901 4.60183 30.3375 3.43839 29.5145 4.10771Z" fill="white"/>
  <path d="M38.6905 4.17417C38.5367 4.31665 38.416 4.56938 38.416 4.72275C38.416 5.13974 38.877 5.54584 39.338 5.54584C39.7772 5.54584 40.172 5.13974 40.172 4.70097C40.172 4.32754 39.7115 3.89966 39.294 3.89966C39.0857 3.89966 38.8552 3.99844 38.6905 4.17417Z" fill="white"/>
  <path d="M33.2035 6.7973C33.0166 6.87399 32.7312 7.09359 32.5778 7.28008C32.0401 7.91669 31.9961 8.2461 31.9961 11.1986C31.9961 14.2169 32.0728 14.6557 32.6876 15.2265C33.4118 15.8962 34.6632 15.9071 35.4423 15.2483C35.8815 14.8862 35.8815 14.8644 35.8044 16.3899C35.7717 17.0596 35.3216 17.5093 34.685 17.5093C33.9717 17.5093 33.4889 17.169 33.4776 16.6535C33.4776 16.423 33.434 16.4117 32.7534 16.4117H32.0179L32.095 16.8727C32.2815 18.0034 32.9617 18.5742 34.224 18.684C35.7059 18.8047 36.8035 18.2557 37.0889 17.2352C37.1656 16.9498 37.2096 15.1058 37.2096 11.769V6.75329H36.5508H35.8924V7.08271C35.8924 7.45568 35.7717 7.4997 35.5521 7.22518C35.1242 6.72017 33.895 6.49012 33.2035 6.7973ZM35.3434 8.25699C35.7717 8.6522 35.8924 9.2997 35.8924 11.1986C35.8924 13.0971 35.7717 13.7446 35.3434 14.1398C34.9046 14.535 34.2789 14.5459 33.851 14.1729C33.4889 13.8657 33.3791 13.1411 33.3791 11.0888C33.39 9.1241 33.4889 8.53151 33.851 8.22387C34.2789 7.85089 34.9046 7.86178 35.3434 8.25699Z" fill="white"/>
  <path d="M43.6839 6.76419C43.5414 6.8191 43.256 6.99469 43.0582 7.14851L42.6961 7.42303V7.09361V6.75331H42.0377H41.3789V11.0888C41.3789 13.4705 41.3789 15.457 41.3789 15.501C41.3789 15.5559 41.6757 15.5995 42.0377 15.6217L42.6961 15.6544V12.4387C42.6961 10.5729 42.7401 9.04743 42.8059 8.81693C43.0255 8.0374 43.9802 7.6862 44.5728 8.16944L44.8364 8.37771L44.8913 11.9886L44.9462 15.5886L45.6377 15.6217L46.3292 15.6544L46.2961 11.7032C46.2635 7.9167 46.2521 7.7411 46.033 7.4557C45.6269 6.90712 45.2643 6.72064 44.595 6.67662C44.2438 6.66573 43.8377 6.6984 43.6839 6.76419Z" fill="white"/>
  <path d="M49.0736 6.74219C48.1842 6.97269 47.7123 7.5984 47.6574 8.61887L47.6134 9.38706H48.338C48.7659 9.38706 49.0513 9.3435 49.0073 9.2886C48.898 9.113 49.1502 8.2459 49.3476 8.10297C49.6553 7.87246 50.5659 7.92737 50.8187 8.1801C51.1041 8.46505 51.1698 8.7618 51.1258 9.60667L51.0927 10.32L49.9407 10.3749C48.5027 10.452 48.0309 10.6603 47.6574 11.374C47.4269 11.8128 47.4051 11.9666 47.4378 13.2834C47.4818 14.9627 47.5807 15.2045 48.3821 15.5557C49.0622 15.8629 49.8858 15.7749 50.6099 15.3252L51.1476 14.9958V15.3252V15.6542L51.8391 15.6215L52.5197 15.5884V11.9117C52.5197 8.27856 52.5088 8.22366 52.2561 7.70775C51.9163 7.00536 51.3781 6.7313 50.2696 6.68729C49.8195 6.66505 49.2818 6.69818 49.0736 6.74219ZM51.1476 12.4054C51.1476 13.9091 50.7746 14.4908 49.8195 14.4908C49.0295 14.4908 48.9088 14.3152 48.8648 13.1409C48.8317 12.3069 48.8539 12.1531 49.0513 11.8895C49.3149 11.5605 49.4905 11.5056 50.4675 11.4834L51.1476 11.4725V12.4054Z" fill="white"/>
  <path d="M25.2461 11.1985V15.6433H25.9594H26.6727V12.6141C26.6727 10.6054 26.7167 9.43112 26.8047 9.14571C26.9581 8.60803 27.43 8.20193 28.0008 8.11436L28.4291 8.03722V7.37884V6.72046L27.9241 6.78625C27.5511 6.81892 27.3315 6.92873 27.0461 7.20324L26.6727 7.56533V7.15923V6.75313H25.9594H25.2461V11.1985Z" fill="white"/>
  <path d="M29.416 11.1985V15.6543L30.1075 15.6216L30.7881 15.5885L30.8208 11.1654L30.843 6.75317H30.1298H29.416V11.1985Z" fill="white"/>
  <path d="M38.6348 11.1985V15.6434H39.2931H39.9515V11.1985V6.75317H39.2931H38.6348V11.1985Z" fill="white"/>
</svg>
