<svg width="228" height="225" viewBox="0 0 228 225" fill="none" xmlns="http://www.w3.org/2000/svg">
  <rect width="227.016" height="225" fill="#FF0558"/>
  <path d="M157.374 30.9973C157.374 31.2537 154.45 57.9168 151.017 90.3484C147.584 122.78 144.659 149.7 144.659 150.212C144.659 152.263 140.972 151.11 140.336 148.93C140.082 147.777 137.03 129.446 133.852 108.295C130.673 87.1437 127.494 68.5564 126.858 66.89C125.714 64.198 124.951 64.0699 112.999 64.0699C102.064 64.0699 100.284 64.3262 99.7755 66.2491C99.394 67.5309 96.0881 88.0411 92.4008 111.756C86.8062 147.392 85.2804 155.083 83.6274 155.083C81.9745 155.083 80.703 147.649 75.7442 110.859C72.4383 86.631 69.5138 66.1209 69.0052 65.3517C68.4966 64.5826 61.7577 64.0699 52.3486 64.0699C38.235 64.0699 36.582 64.3262 36.582 66.2491C36.582 69.1974 65.1907 193.412 66.0808 194.181C66.8437 194.95 97.4868 192.899 98.2497 192.002C98.504 191.745 101.428 175.081 104.48 155.083C107.659 134.958 110.583 116.627 110.965 114.32C112.109 108.038 115.161 109.192 116.178 116.242C119.484 138.675 127.876 189.822 128.257 190.207C129.147 190.976 161.697 188.412 162.587 187.387C163.223 186.618 190.56 34.0738 190.433 31.6382C190.433 30.8691 157.374 30.2282 157.374 30.9973Z" fill="white"/>
</svg>
