<svg width="228" height="225" viewBox="0 0 228 225" fill="none" xmlns="http://www.w3.org/2000/svg">
  <path d="M227.36 0H0.34375V225H227.36V0Z" fill="#FF0558"/>
  <path d="M148.376 49.2694C148.376 49.4683 146.107 70.1537 143.444 95.3145C140.78 120.475 138.511 141.36 138.511 141.757C138.511 143.348 135.651 142.454 135.157 140.763C134.96 139.868 132.593 125.647 130.127 109.238C127.661 92.8282 125.194 78.408 124.701 77.1152C123.813 75.0268 123.222 74.9274 113.949 74.9274C105.466 74.9274 104.085 75.1262 103.69 76.618C103.394 77.6125 100.829 93.5245 97.9688 111.923C93.6285 139.569 92.4447 145.536 91.1623 145.536C89.88 145.536 88.8935 139.769 85.0465 111.227C82.4817 92.4305 80.2129 76.5186 79.8183 75.9218C79.4237 75.3251 74.1956 74.9274 66.8959 74.9274C55.9465 74.9274 54.6641 75.1262 54.6641 76.618C54.6641 78.9053 76.859 175.272 77.5495 175.869C78.1414 176.465 101.915 174.874 102.506 174.178C102.704 173.979 104.972 161.051 107.34 145.536C109.806 129.923 112.075 115.702 112.371 113.912C113.259 109.038 115.626 109.934 116.415 115.403C118.98 132.807 125.491 172.487 125.786 172.786C126.477 173.382 151.729 171.393 152.42 170.598C152.913 170.001 174.122 51.6561 174.023 49.7666C174.023 49.1699 148.376 48.6727 148.376 49.2694Z" fill="white"/>
</svg>
