<svg width="82" height="25" viewBox="0 0 82 25" fill="none" xmlns="http://www.w3.org/2000/svg">
  <path fill-rule="evenodd" clip-rule="evenodd" d="M32.6687 5.74149V9.01927H35.9344V23.8054H40.0031V9.01885H43.0814V5.74108H32.6687V5.74149ZM64.0536 12.7203H60.9399V5.76612H56.8832V23.8296H60.9399V15.9981H64.0536V23.8291H68.1102V5.7657H64.0536V12.7211V12.7203ZM49.9245 5.54741H49.2179C45.554 5.54741 44.0885 7.4169 44.0885 10.4518V19.0709C44.0885 22.1053 45.554 24.0479 49.2963 24.0479H50.003C53.719 24.0479 55.0275 21.814 55.0275 19.2896V16.2059H51.0498V19.0705C51.0498 20.139 50.6833 20.7943 49.6365 20.7943C48.6156 20.7943 48.2758 20.1878 48.2758 19.0467V10.4275C48.2758 9.28598 48.6156 8.70372 49.6365 8.70372C50.7092 8.70372 51.0498 9.33482 51.0498 10.4275V12.5153H55.0275V10.2088C55.0275 7.19861 53.6142 5.54741 49.9245 5.54741ZM28.7081 17.6392L27.5285 10.0882H26.8307L25.6511 17.6388L28.7081 17.6392ZM30.1873 5.74149L33.3804 23.8054H29.6714L29.2202 20.917H25.139L24.6874 23.8054H20.9788L24.1719 5.74149H30.1873ZM76.9623 17.6388L75.7823 10.0882H75.0848L73.9049 17.6388H76.9623ZM78.4415 5.74149L81.6346 23.8054H77.9256L77.4744 20.917H73.3932L72.942 23.8054H69.233L72.4256 5.74149H78.4415ZM17.6339 0.666016L16.4243 17.9665L16.0991 17.9832L13.2224 5.74316H9.66753L7.51546 18.4256L7.05424 18.4494L5.12714 5.74316H0.171875L4.68012 24.6585L9.7197 24.3313L11.3592 12.5901L11.84 12.565L14.0355 24.0474L18.8589 23.7323L22.6893 0.666016H17.6339Z" fill="#FF0558"/>
</svg>
