<svg width="225" height="226" viewBox="0 0 225 226" fill="none" xmlns="http://www.w3.org/2000/svg">
  <path d="M225 0.592163H0V225.592H225V0.592163Z" fill="#FF0558"/>
  <path d="M148.376 49.8615C148.376 50.0604 146.107 70.7458 143.444 95.9066C140.78 121.067 138.511 141.952 138.511 142.349C138.511 143.94 135.651 143.046 135.157 141.355C134.96 140.46 132.593 126.239 130.127 109.83C127.661 93.4203 125.194 79.0001 124.701 77.7073C123.813 75.6189 123.222 75.5195 113.949 75.5195C105.466 75.5195 104.085 75.7183 103.69 77.2101C103.394 78.2046 100.829 94.1166 97.9688 112.515C93.6285 140.161 92.4447 146.128 91.1623 146.128C89.88 146.128 88.8935 140.361 85.0465 111.819C82.4817 93.0226 80.2129 77.1107 79.8183 76.5139C79.4237 75.9172 74.1956 75.5195 66.8959 75.5195C55.9465 75.5195 54.6641 75.7183 54.6641 77.2101C54.6641 79.4974 76.859 175.864 77.5495 176.461C78.1414 177.057 101.915 175.466 102.506 174.77C102.704 174.571 104.972 161.643 107.34 146.128C109.806 130.515 112.075 116.294 112.371 114.504C113.259 109.63 115.626 110.526 116.415 115.995C118.98 133.399 125.491 173.079 125.786 173.378C126.477 173.974 151.729 171.985 152.42 171.19C152.913 170.593 174.122 52.2482 174.023 50.3587C174.023 49.762 148.376 49.2648 148.376 49.8615Z" fill="white"/>
</svg>
