<svg width="122" height="28" viewBox="0 0 122 28" fill="none" xmlns="http://www.w3.org/2000/svg">
  <path fill-rule="evenodd" clip-rule="evenodd" d="M62.4123 6.15911C62.4057 10.5403 63.5087 14.8519 65.6186 18.6916C65.967 14.2357 67.4011 9.93295 69.7957 6.15911H77.4547C73.6052 11.4876 71.4215 17.8375 71.1795 24.4066H61.7936C57.84 19.1321 55.6419 12.7496 55.5093 6.15911H62.4123ZM85.2701 6.15911C85.2634 10.5403 86.3665 14.8519 88.4763 18.6916C88.8247 14.2357 90.2588 9.93295 92.6535 6.15911H100.312C96.463 11.4876 94.2793 17.8375 94.0372 24.4066H84.6513C80.6976 19.1322 78.4995 12.7496 78.3671 6.15911H85.2701ZM27.4912 24.4066C27.0526 17.9179 28.8575 11.4756 32.6032 6.15911H24.9825C23.2214 9.27529 22.2301 12.7671 22.0912 16.3437C20.5723 12.353 20.1263 8.03379 20.7975 3.81686H14.6527C12.3674 7.59319 11.1539 11.9207 11.1427 16.3347C9.49383 11.5594 9.13334 6.43372 10.0976 1.47461H2.61972C1.34284 9.98523 3.37347 18.8952 8.71047 26.1324H16.2525C15.5632 22.7276 15.6039 19.2153 16.3717 15.8274C16.9967 18.8911 18.2097 21.8046 19.9436 24.4066H27.4912ZM42.1443 19.3261C39.7143 19.3261 38.0381 17.516 38.0381 15.2829C38.0381 13.0497 39.7143 11.2385 42.1443 11.2385C44.5732 11.2385 46.2506 13.0497 46.2506 15.2829C46.2506 17.516 44.5732 19.3261 42.1443 19.3261ZM47.415 6.15911C47.3295 6.62261 47.2507 7.08723 47.1787 7.55298C45.4972 6.20839 43.4052 5.48165 41.2522 5.49423C35.8252 5.49423 31.5435 9.83561 31.5435 15.2829C31.5435 20.7301 35.8252 25.0715 41.2522 25.0715C43.4853 25.0715 45.5385 24.3267 47.1776 23.0127C47.2507 23.4785 47.3295 23.942 47.415 24.4055H53.5867C52.4723 18.3744 52.4723 12.1902 53.5867 6.15911H47.415Z" fill="#0050FF"/>
  <mask id="wavve" style="mask-type:luminance" maskUnits="userSpaceOnUse" x="99" y="5" width="21" height="21">
    <path d="M99.0312 5.49414H119.251V25.0725H99.0312V5.49414Z" fill="white"/>
  </mask>
  <g mask="url(#wavve)">
    <path fill-rule="evenodd" clip-rule="evenodd" d="M105.443 13.1723C106.005 11.3048 107.558 10.3823 109.345 10.3823C111.133 10.3823 112.607 11.3543 113.175 13.1723H105.443ZM109.334 5.49414C102.811 5.49414 99.0312 10.1955 99.0312 15.1916C99.0312 20.6085 103.04 25.0725 110.074 25.0725C113.101 25.0725 116.149 24.2209 118.066 23.2804V17.9108C116.13 18.9289 113.482 19.8323 110.94 19.8323C107.913 19.8323 106.007 18.5981 105.462 16.7666H119.198C119.763 10.0616 115.71 5.49414 109.334 5.49414Z" fill="#0050FF"/>
  </g>
</svg>
