<svg width="226" height="225" viewBox="0 0 226 225" fill="none" xmlns="http://www.w3.org/2000/svg">
  <g clip-path="url(#clip0_5590_635)">
    <path d="M91.0388 93.645H66.0481C62.4421 93.645 59.5195 96.5424 59.5195 100.115V124.885C59.5195 128.458 62.4421 131.355 66.0481 131.355H91.0388C94.6448 131.355 97.5674 128.458 97.5674 124.885V100.115C97.5674 96.5424 94.6448 93.645 91.0388 93.645Z" fill="#0050FF"/>
    <path d="M88.4147 121.998C88.0187 116.185 89.6497 110.415 93.0342 105.653H86.1474C84.556 108.442 83.6593 111.573 83.5328 114.782C82.1615 111.209 81.7588 107.338 82.3654 103.56H76.811C74.7472 106.936 73.6493 110.815 73.6371 114.772C72.1475 110.497 71.8221 105.902 72.6943 101.459H65.9348C65.3464 105.322 65.5295 109.263 66.4737 113.055C67.418 116.846 69.1045 120.413 71.4358 123.549H78.255C77.6318 120.499 77.6687 117.351 78.3634 114.316C78.9299 117.063 80.0267 119.673 81.5923 122L88.4147 121.998ZM145.31 100.606V121.571H142.489V100.606H145.31ZM136.951 107.475C138.123 108.618 138.707 110.266 138.707 112.418V121.569H135.915V113.085C135.915 109.761 134.256 108.399 131.674 108.399C130.535 108.399 129.379 108.792 128.562 109.681C127.702 110.618 127.313 111.685 127.313 113.57L127.273 121.571H124.454V106.042H127.273V108.101C128.519 106.509 130.53 105.788 132.26 105.788C134.149 105.788 135.78 106.331 136.951 107.474V107.475ZM113.666 105.791C109.062 105.791 105.819 109.023 105.819 113.807C105.819 118.592 109.062 121.824 113.666 121.824C118.27 121.824 121.515 118.592 121.515 113.807C121.515 109.023 118.272 105.791 113.666 105.791ZM113.666 119.252C110.673 119.252 108.756 117.019 108.756 113.807C108.756 110.596 110.671 108.361 113.666 108.361C116.663 108.361 118.578 110.596 118.578 113.807C118.578 117.019 116.661 119.252 113.666 119.252ZM163.968 106.044L154.619 128.879H151.552L154.5 121.561L148.251 106.044H151.414L156.077 118.461L160.901 106.044H163.968Z" fill="white"/>
  </g>
  <defs>
    <clipPath id="clip0_5590_635">
      <rect width="106.845" height="37.71" fill="white" transform="translate(59.5195 93.645)"/>
    </clipPath>
  </defs>
</svg>
