<svg width="228" height="225" viewBox="0 0 228 225" fill="none" xmlns="http://www.w3.org/2000/svg">
  <rect width="227.016" height="225" fill="#0050FF"/>
  <path d="M172.405 169.172C170.043 134.484 179.774 100.059 199.968 71.6437H158.877C149.382 88.2853 144.032 106.968 143.277 126.112C135.095 104.798 132.692 81.6988 136.312 59.1562H103.171C90.8569 79.3037 84.3066 102.444 84.2336 126.056C75.3459 100.546 73.4045 73.1302 78.6086 46.6218H38.2773C34.7663 69.6702 35.8592 93.186 41.4929 115.809C47.1266 138.433 57.1893 159.715 71.0992 178.425H111.787C108.068 160.227 108.289 141.443 112.434 123.337C115.814 139.726 122.358 155.298 131.699 169.181L172.405 169.172Z" fill="white"/>
</svg>
