<svg width="225" height="225" viewBox="0 0 225 225" fill="none" xmlns="http://www.w3.org/2000/svg">
  <g clip-path="url(#firstrun)">
    <path d="M225 0H0V225H225V0Z" fill="black"/>
    <path d="M154.617 156.448C152.784 129.537 160.334 102.83 176 80.7858H144.122C136.755 93.6963 132.605 108.19 132.019 123.042C125.672 106.507 123.807 88.5865 126.616 71.098H100.905C91.3518 86.7284 86.2701 104.68 86.2135 122.998C79.3184 103.208 77.8123 81.939 81.8496 61.3738H50.5606C47.8368 79.2547 48.6847 97.4983 53.0553 115.049C57.4259 132.6 65.2325 149.111 76.0238 163.626H107.589C104.704 149.508 104.876 134.936 108.091 120.889C110.713 133.604 115.79 145.684 123.037 156.455L154.617 156.448Z" fill="white"/>
  </g>
  <defs>
    <clipPath id="firstrun">
      <rect width="225" height="225" fill="white"/>
    </clipPath>
  </defs>
</svg>
