<svg width="72" height="19" viewBox="0 0 72 19" fill="none" xmlns="http://www.w3.org/2000/svg">
  <path d="M15.045 0.788818H3.11626C1.39502 0.788818 0 2.17181 0 3.87734V15.7003C0 17.4056 1.39502 18.7888 3.11626 18.7888H15.045C16.7663 18.7888 18.1612 17.4056 18.1612 15.7003V3.87734C18.1612 2.17181 16.7663 0.788818 15.045 0.788818Z" fill="#0050FF"/>
  <path fill-rule="evenodd" clip-rule="evenodd" d="M50.4704 14.2012V6.67027L49.0901 6.67123V14.2012H50.4704ZM50.6675 4.59509C50.6675 5.08095 50.2699 5.4747 49.7798 5.4747C49.2891 5.4747 48.8916 5.08095 48.8916 4.59509C48.8916 4.10923 49.2891 3.71533 49.7798 3.71533C50.2699 3.71533 50.6675 4.10923 50.6675 4.59509ZM45.764 7.86154V6.67027H47.139V13.5454C47.139 14.6503 47.0794 15.7069 46.4279 16.5718C45.7879 17.4247 44.7293 17.9143 43.3452 17.9143C41.5392 17.9143 39.915 17.0247 39.6344 15.2053H40.9784C41.2762 16.1126 42.0637 16.6333 43.4039 16.6333C44.3412 16.6333 44.8429 16.4062 45.281 15.9026C45.7196 15.4005 45.7611 14.7013 45.7611 13.7277V12.9359C45.144 13.8117 44.1203 14.3276 42.9319 14.3276C41.7449 14.3276 40.8266 13.8551 40.2095 13.1263C39.5924 12.399 39.2788 11.5385 39.2788 10.4111C39.2788 9.27188 39.632 8.3918 40.1947 7.7637C40.8987 6.97764 41.7611 6.54904 42.9357 6.54904C44.1308 6.54904 45.1369 7.03252 45.764 7.86154ZM40.7292 10.4288C40.7292 12.0081 41.6766 13.1063 43.1576 13.1063H43.1562C44.6367 13.1063 45.5864 12.0081 45.5864 10.4288C45.5864 8.84998 44.6391 7.7513 43.1576 7.7513C41.6766 7.7513 40.7292 8.84998 40.7292 10.4288ZM71.9992 14.1988V4.03191H70.6175V14.1988H71.9992ZM67.2718 7.95652V6.67027H68.664V14.204H67.2689V12.9307C66.764 13.7377 65.6863 14.3276 64.5442 14.3276C63.257 14.3276 62.3172 13.8537 61.6133 12.9426C61.0114 12.1632 60.8382 11.1719 60.8382 10.4111C60.8377 9.64177 60.9952 8.96595 61.3102 8.38416C61.6066 7.82002 62.0557 7.35134 62.606 7.03014C63.1634 6.70654 63.7982 6.5395 64.443 6.54666C65.8123 6.54666 66.8031 7.18239 67.2718 7.95652ZM62.2566 10.4355C62.2566 11.9742 63.1911 13.0452 64.6563 13.0452C66.1197 13.0452 67.0566 11.9742 67.0566 10.4355C67.0566 8.89627 66.1206 7.82527 64.6563 7.82527C63.1935 7.82527 62.2566 8.89627 62.2566 10.4355ZM59.3992 9.76204C59.3997 8.71777 59.1124 7.91929 58.5396 7.36422C57.9664 6.81059 57.1684 6.54666 56.243 6.54666C55.3939 6.54666 54.4107 6.89602 53.7994 7.66777V6.67027H52.4196V14.2026H53.8003L53.8189 10.3219C53.8189 9.40695 54.0094 8.88959 54.4294 8.4357C54.8331 8.00377 55.3987 7.81334 55.9566 7.81334C57.2204 7.81334 58.0328 8.47484 58.0328 10.0856V14.2016H59.3992V9.76204ZM35.1237 6.54904C34.4393 6.54904 33.9448 6.66884 33.5262 6.89363C33.153 7.09075 32.7712 7.44202 32.5746 7.7952V6.67027H31.1962L31.1967 14.2064H32.577V10.5118C32.577 8.79509 33.4146 7.94172 34.8282 7.94172H35.1237V6.54904ZM38.0384 4.59509C38.0384 5.08095 37.6408 5.4747 37.1502 5.4747C36.66 5.4747 36.2625 5.08095 36.2625 4.59509C36.2625 4.10923 36.66 3.71533 37.1502 3.71533C37.6408 3.71533 38.0384 4.10923 38.0384 4.59509ZM37.8403 14.2012V6.67027L36.4605 6.67123V14.2012H37.8403ZM22.0783 10.4355C22.0783 8.11402 23.6653 6.54666 25.9183 6.54666C28.1691 6.54666 29.7591 8.11498 29.7591 10.4355C29.7591 12.7565 28.1713 14.3248 25.9183 14.3248C23.6653 14.3248 22.0783 12.7565 22.0783 10.4355ZM23.5146 10.4355C23.5146 11.9933 24.4528 13.0767 25.9183 13.0767C27.3838 13.0767 28.3221 11.9933 28.3221 10.4355C28.3221 8.87814 27.3838 7.79472 25.9183 7.79472C24.4521 7.79472 23.5146 8.87814 23.5146 10.4355Z" fill="black"/>
  <path d="M13.7916 14.3224C13.6026 11.5475 14.3811 8.79366 15.9966 6.52041H12.7093C11.9498 7.85152 11.5217 9.34634 11.4613 10.8779C10.8068 9.17261 10.6145 7.32461 10.9041 5.52148H8.25285C7.26771 7.13322 6.74367 8.98409 6.73784 10.8731C6.0268 8.83232 5.8715 6.63925 6.28783 4.51873H3.06132C2.78044 6.36243 2.86788 8.24384 3.31857 10.0537C3.76926 11.8635 4.57427 13.5659 5.68708 15.0626H8.94208C8.6446 13.607 8.66226 12.1045 8.99382 10.656C9.26424 11.967 9.78776 13.2127 10.5351 14.3233L13.7916 14.3224Z" fill="white"/>
</svg>
