<svg width="226" height="225" viewBox="0 0 226 225" fill="none" xmlns="http://www.w3.org/2000/svg">
  <g clip-path="url(#clip0_5590_635)">
    <path d="M67.4643 93.6428H42.4707C38.8643 93.6428 35.9414 96.5405 35.9414 100.114V124.886C35.9414 128.459 38.8643 131.357 42.4707 131.357H67.4643C71.0707 131.357 73.9935 128.459 73.9935 124.886V100.114C73.9935 96.5405 71.0707 93.6428 67.4643 93.6428Z" fill="#0050FF"/>
    <path d="M64.8392 121.999C64.4432 116.185 66.0743 110.415 69.4592 105.652H62.5716C60.9801 108.441 60.0832 111.573 59.9567 114.782C58.5853 111.209 58.1825 107.337 58.7892 103.559H53.2342C51.1701 106.936 50.0721 110.814 50.0599 114.772C48.5701 110.496 48.2447 105.901 49.117 101.458H42.3567C41.7682 105.321 41.9514 109.263 42.8957 113.055C43.84 116.847 45.5267 120.414 47.8583 123.55H54.6783C54.055 120.5 54.092 117.352 54.7867 114.317C55.3533 117.064 56.4502 119.674 58.016 122.001L64.8392 121.999ZM141.69 105.966V121.745H138.798V105.968L141.69 105.966ZM140.243 103.461C141.27 103.461 142.103 102.636 142.103 101.618C142.103 100.6 141.27 99.7747 140.243 99.7747C139.215 99.7747 138.382 100.6 138.382 101.618C138.382 102.636 139.215 103.461 140.243 103.461ZM131.829 105.966V108.462C130.515 106.725 128.407 105.712 125.903 105.712C123.442 105.712 121.635 106.61 120.16 108.257C118.981 109.573 118.241 111.417 118.241 113.804C118.241 116.166 118.898 117.969 120.191 119.493C121.484 121.02 123.408 122.01 125.895 122.01C128.385 122.01 130.53 120.929 131.823 119.094V120.753C131.823 122.793 131.736 124.258 130.817 125.31C129.899 126.365 128.848 126.841 126.884 126.841C124.076 126.841 122.426 125.75 121.802 123.849H118.986C119.574 127.661 122.977 129.525 126.761 129.525C129.661 129.525 131.879 128.499 133.22 126.712C134.585 124.9 134.71 122.686 134.71 120.371V105.966H131.829ZM126.368 119.451C123.265 119.451 121.28 117.15 121.28 113.841C121.28 110.533 123.265 108.231 126.368 108.231C129.472 108.231 131.457 110.533 131.457 113.841C131.457 117.15 129.467 119.451 126.365 119.451H126.368ZM186.798 100.438V121.74H183.903V100.438H186.798ZM176.893 105.966V108.661C175.911 107.039 173.835 105.707 170.966 105.707C169.615 105.692 168.285 106.042 167.117 106.72C165.964 107.393 165.023 108.375 164.402 109.557C163.742 110.776 163.412 112.192 163.413 113.804C163.413 115.398 163.776 117.475 165.037 119.108C166.512 121.017 168.481 122.01 171.178 122.01C173.571 122.01 175.829 120.774 176.887 119.083V121.751H179.81V105.966H176.893ZM171.413 119.323C168.343 119.323 166.385 117.079 166.385 113.855C166.385 110.63 168.348 108.386 171.413 108.386C174.481 108.386 176.442 110.63 176.442 113.855C176.442 117.079 174.479 119.323 171.413 119.323ZM158.597 107.42C159.797 108.583 160.399 110.256 160.398 112.444V121.746H157.535V113.122C157.535 109.747 155.833 108.361 153.185 108.361C152.016 108.361 150.831 108.76 149.985 109.665C149.105 110.616 148.706 111.7 148.706 113.617L148.667 121.748H145.774V105.966H148.665V108.056C149.946 106.439 152.006 105.707 153.785 105.707C155.724 105.707 157.396 106.26 158.597 107.42ZM106.188 106.434C107.065 105.963 108.101 105.712 109.535 105.712V108.63H108.916C105.954 108.63 104.199 110.418 104.199 114.015V121.756H101.307L101.306 105.966H104.194V108.323C104.606 107.583 105.406 106.846 106.188 106.433V106.434ZM113.781 103.461C114.809 103.461 115.642 102.636 115.642 101.618C115.642 100.6 114.809 99.7747 113.781 99.7747C112.754 99.7747 111.921 100.6 111.921 101.618C111.921 102.636 112.754 103.461 113.781 103.461ZM115.227 105.966V121.745H112.336V105.968L115.227 105.966ZM90.2476 105.707C85.527 105.707 82.2019 108.991 82.2019 113.855C82.2019 118.718 85.527 122.004 90.2476 122.004C94.9682 122.004 98.2949 118.718 98.2949 113.855C98.2949 108.993 94.9634 105.707 90.2476 105.707ZM90.2476 119.389C87.177 119.389 85.2112 117.119 85.2112 113.855C85.2112 110.592 87.1754 108.322 90.2476 108.322C93.3182 108.322 95.284 110.592 95.284 113.855C95.284 117.119 93.3182 119.389 90.2476 119.389Z" fill="white"/>
  </g>
  <defs>
    <clipPath id="clip0_5590_635">
      <rect width="154" height="37.7143" fill="white" transform="translate(35.9414 93.6428)"/>
    </clipPath>
  </defs>
</svg>
