<svg width="228" height="226" viewBox="0 0 228 226" fill="none" xmlns="http://www.w3.org/2000/svg">
  <path d="M227.016 0.5H0V225.5H227.016V0.5Z" fill="#0050FF"/>
  <path d="M156.117 156.948C154.284 130.037 161.834 103.33 177.5 81.2855H145.622C138.255 94.196 134.105 108.69 133.519 123.542C127.172 107.007 125.307 89.0862 128.116 71.5977H102.405C92.8518 87.2281 87.7701 105.18 87.7135 123.498C80.8184 103.708 79.3123 82.4387 83.3496 61.8735H52.0606C49.3368 79.7544 50.1847 97.998 54.5553 115.549C58.9259 133.1 66.7325 149.611 77.5238 164.126H109.089C106.204 150.008 106.376 135.436 109.591 121.389C112.213 134.104 117.29 146.184 124.537 156.955L156.117 156.948Z" fill="white"/>
</svg>
