<svg width="225" height="226" viewBox="0 0 225 226" fill="none" xmlns="http://www.w3.org/2000/svg">
  <path d="M225 0.0921631H0V225.092H225V0.0921631Z" fill="#0050FF"/>
  <path d="M156.117 157.04C154.284 130.129 161.834 103.422 177.5 81.3777H145.622C138.255 94.2882 134.105 108.782 133.519 123.634C127.172 107.099 125.307 89.1784 128.116 71.6899H102.405C92.8518 87.3203 87.7701 105.272 87.7135 123.59C80.8184 103.8 79.3123 82.5309 83.3496 61.9657H52.0606C49.3368 79.8466 50.1847 98.0902 54.5553 115.641C58.9259 133.192 66.7325 149.703 77.5238 164.218H109.089C106.204 150.1 106.376 135.528 109.591 121.481C112.213 134.196 117.29 146.276 124.537 157.047L156.117 157.04Z" fill="white"/>
</svg>
