<svg width="51" height="19" viewBox="0 0 51 19" fill="none" xmlns="http://www.w3.org/2000/svg">
  <path d="M15.6231 0.645996H3.6944C1.97316 0.645996 0.578125 2.029 0.578125 3.7343V15.5577C0.578125 17.2632 1.97316 18.646 3.6944 18.646H15.6231C17.3444 18.646 18.7394 17.2632 18.7394 15.5577V3.7343C18.7394 2.029 17.3444 0.645996 15.6231 0.645996Z" fill="#0050FF"/>
  <path fill-rule="evenodd" clip-rule="evenodd" d="M41.5274 13.9759V3.96875H40.1808V13.9759H41.5274ZM38.3756 9.60693C38.3756 8.57973 38.0968 7.79309 37.5374 7.24751C36.9784 6.70192 36.1999 6.44226 35.2982 6.44226C34.4725 6.44226 33.5126 6.78641 32.9178 7.54631V6.5635H31.5722V13.9759H32.9178L32.9369 10.1568C32.9369 9.25705 33.1226 8.74775 33.5331 8.30049C33.9231 7.87615 34.4749 7.68856 35.0185 7.68856C36.251 7.68856 37.0429 8.33868 37.0429 9.92531V13.975H38.3756V9.60693ZM22.6772 10.2699C22.6772 7.98641 24.2252 6.44369 26.4228 6.44369C28.6214 6.44369 30.1694 7.98641 30.1694 10.2699C30.1694 12.554 28.6204 14.0967 26.4228 14.0967C24.2252 14.0967 22.6772 12.554 22.6772 10.2699ZM24.0792 10.2699C24.0792 11.8031 24.9942 12.869 26.4228 12.869C27.8524 12.869 28.7675 11.8031 28.7675 10.2699C28.7675 8.73724 27.8534 7.67042 26.4228 7.67042C24.9932 7.67042 24.0792 8.73724 24.0792 10.2699ZM45.9708 17.4642L50.4333 6.56445H48.9694L46.6667 12.4914L44.441 6.56445H42.9312L45.914 13.9711L44.5068 17.4642H45.9708Z" fill="black"/>
  <path d="M14.3697 14.1797C14.1807 11.405 14.9592 8.65085 16.5747 6.37782H13.2875C12.5278 7.70908 12.0998 9.20359 12.0394 10.7353C11.3849 9.02985 11.1927 7.18211 11.4822 5.37877H8.83095C7.84584 6.99023 7.32178 8.84178 7.31596 10.7306C6.60493 8.68999 6.44961 6.49667 6.86593 4.37591H3.63944C3.35858 6.21982 3.44598 8.10097 3.89668 9.91099C4.34742 11.7205 5.15243 13.4232 6.26522 14.9201H9.52021C9.22274 13.4642 9.24035 11.9616 9.57195 10.5129C9.84236 11.8241 10.3659 13.0699 11.1132 14.1807L14.3697 14.1797Z" fill="white"/>
</svg>
