<svg width="266" height="70" viewBox="0 0 266 70" fill="none" xmlns="http://www.w3.org/2000/svg">
  <path d="M55.4289 2.90613H11.481C5.13955 2.90613 0 8.00136 0 14.2849V57.8432C0 64.1259 5.13955 69.2218 11.481 69.2218H55.4289C61.7706 69.2218 66.9097 64.1259 66.9097 57.8432V14.2849C66.9097 8.00136 61.7706 2.90613 55.4289 2.90613Z" fill="black"/>
  <path d="M50.8112 52.7667C50.1148 42.5434 52.983 32.3977 58.9348 24.0226H46.8237C44.0256 28.9266 42.4484 34.4339 42.2258 40.0765C39.8145 33.7938 39.106 26.9854 40.173 20.3423H30.4052C26.7758 26.2803 24.8451 33.0993 24.8236 40.0588C22.204 32.5401 21.6318 24.4604 23.1657 16.6479H11.2785C10.2437 23.4405 10.5659 30.372 12.2263 37.0399C13.8867 43.7076 16.8526 49.9796 20.9524 55.4938H32.9445C31.8485 50.131 31.9136 44.5955 33.1351 39.2589C34.1314 44.0889 36.0602 48.6784 38.8135 52.7701L50.8112 52.7667Z" fill="white"/>
  <path d="M236.184 52C235.82 52 235.612 51.792 235.612 51.428V26.26C235.612 25.948 235.82 25.74 236.184 25.74H238.836C239.2 25.74 239.408 25.896 239.408 26.26L239.616 30.472C241.592 26.988 245.44 25.22 249.028 25.22C254.956 25.22 258.44 28.86 258.44 34.944V51.428C258.44 51.792 258.232 52 257.92 52H254.852C254.488 52 254.28 51.792 254.28 51.428V36.66C254.28 31.616 252.304 29.068 247.936 29.068C244.192 29.068 239.772 31.876 239.772 38.116V51.428C239.772 51.792 239.564 52 239.252 52H236.184Z" fill="black"/>
  <path d="M213.155 52.52C207.279 52.52 203.795 48.828 203.795 42.796V26.26C203.795 25.948 204.003 25.74 204.315 25.74H207.383C207.747 25.74 207.955 25.948 207.955 26.26V41.028C207.955 46.072 209.931 48.672 214.247 48.672C217.939 48.672 222.307 45.864 222.307 39.624V26.26C222.307 25.948 222.515 25.74 222.879 25.74H225.947C226.259 25.74 226.467 25.948 226.467 26.26V51.428C226.467 51.792 226.259 52 225.947 52H223.243C222.931 52 222.671 51.844 222.671 51.428L222.515 47.216C220.591 50.752 216.743 52.52 213.155 52.52Z" fill="black"/>
  <path d="M183.577 52C183.213 52 183.005 51.792 183.005 51.428V26.26C183.005 25.948 183.213 25.74 183.577 25.74H186.229C186.593 25.74 186.801 25.896 186.801 26.26L187.009 30.784C188.933 27.352 192.261 25.376 195.953 25.376C196.577 25.376 196.993 25.376 197.357 25.48C197.721 25.532 197.825 25.74 197.825 26.052V29.068C197.825 29.484 197.617 29.64 197.253 29.588C196.785 29.536 196.265 29.432 195.485 29.432C191.169 29.432 187.165 33.02 187.165 37.752V51.428C187.165 51.792 186.957 52 186.645 52H183.577Z" fill="black"/>
  <path d="M170.397 52.52C165.665 52.52 162.805 49.556 162.805 42.9V29.484H158.177C157.865 29.484 157.657 29.276 157.657 28.964V26.26C157.657 25.948 157.865 25.74 158.177 25.74H162.805V17.68C162.805 17.368 163.013 17.16 163.325 17.16H166.393C166.757 17.16 166.965 17.368 166.965 17.68V25.74H174.245C174.557 25.74 174.765 25.948 174.765 26.26V28.964C174.765 29.276 174.557 29.484 174.245 29.484H166.965V43.004C166.965 46.956 168.161 48.672 170.761 48.672C172.217 48.672 173.361 47.944 174.141 46.28C174.297 45.968 174.557 45.864 174.869 46.02L177.209 47.008C177.521 47.164 177.625 47.476 177.417 47.892C175.753 51.22 173.205 52.52 170.397 52.52Z" fill="black"/>
  <path d="M143.451 52.52C137.939 52.52 134.143 50.232 132.479 45.552C132.375 45.24 132.531 44.98 132.843 44.876L135.547 44.148C135.911 44.044 136.119 44.148 136.223 44.46C137.575 47.528 139.863 48.724 143.295 48.724C146.311 48.724 148.547 47.58 148.547 45.136C148.547 43.108 146.987 42.016 143.399 41.028L141.839 40.612C136.067 39 133.675 36.296 133.675 32.5C133.675 28.288 137.315 25.22 142.827 25.22C147.351 25.22 150.887 27.248 152.447 31.564C152.603 31.876 152.447 32.136 152.135 32.24L149.431 33.072C149.067 33.228 148.859 33.072 148.703 32.76C147.559 30.264 145.583 28.964 142.775 28.964C139.915 28.964 137.939 30.264 137.939 32.5C137.939 34.528 139.395 35.62 143.347 36.66L144.803 37.024C150.627 38.532 152.863 41.08 152.863 45.032C152.863 49.556 148.963 52.52 143.451 52.52Z" fill="black"/>
  <path d="M114.289 52C113.925 52 113.717 51.792 113.717 51.428V26.26C113.717 25.948 113.925 25.74 114.289 25.74H116.941C117.305 25.74 117.513 25.896 117.513 26.26L117.721 30.784C119.645 27.352 122.973 25.376 126.665 25.376C127.289 25.376 127.705 25.376 128.069 25.48C128.433 25.532 128.537 25.74 128.537 26.052V29.068C128.537 29.484 128.329 29.64 127.965 29.588C127.497 29.536 126.977 29.432 126.197 29.432C121.881 29.432 117.877 33.02 117.877 37.752V51.428C117.877 51.792 117.669 52 117.357 52H114.289Z" fill="black"/>
  <path d="M84.188 52C83.824 52 83.616 51.792 83.616 51.428V29.484H79.404C79.04 29.484 78.832 29.276 78.832 28.964V26.26C78.832 25.948 79.04 25.74 79.404 25.74H83.616V22.308C83.616 16.016 86.944 12.636 92.04 12.636C94.484 12.636 96.512 13.416 98.176 15.028C98.384 15.288 98.384 15.6 98.176 15.808L96.824 17.836C96.616 18.096 96.304 18.2 96.044 17.94C94.848 16.9 93.808 16.484 92.3 16.484C89.284 16.484 87.776 18.408 87.776 22.36V25.74H104C104.312 25.74 104.52 25.948 104.52 26.26V51.428C104.52 51.792 104.312 52 104 52H100.932C100.568 52 100.36 51.792 100.36 51.428V29.484H87.776V51.428C87.776 51.792 87.568 52 87.256 52H84.188ZM102.44 20.228C100.88 20.228 99.684 19.136 99.684 17.524C99.684 15.912 100.88 14.82 102.44 14.82C104.052 14.82 105.248 15.912 105.248 17.524C105.248 19.136 104.052 20.228 102.44 20.228Z" fill="black"/>
</svg>
