<svg width="51" height="19" viewBox="0 0 51 19" fill="none" xmlns="http://www.w3.org/2000/svg">
  <path d="M15.6231 0.645996H3.6944C1.97316 0.645996 0.578125 2.029 0.578125 3.7343V15.5577C0.578125 17.2632 1.97316 18.646 3.6944 18.646H15.6231C17.3444 18.646 18.7394 17.2632 18.7394 15.5577V3.7343C18.7394 2.029 17.3444 0.645996 15.6231 0.645996Z" fill="#0050FF"/>
  <path d="M14.3697 14.1797C14.1807 11.405 14.9592 8.65085 16.5747 6.37782H13.2875C12.5278 7.70908 12.0998 9.20359 12.0394 10.7353C11.3849 9.02985 11.1927 7.18211 11.4822 5.37877H8.83095C7.84584 6.99023 7.32178 8.84178 7.31596 10.7306C6.60493 8.68999 6.44961 6.49667 6.86593 4.37591H3.63944C3.35858 6.21982 3.44598 8.10097 3.89668 9.91099C4.34742 11.7205 5.15243 13.4232 6.26522 14.9201H9.52021C9.22274 13.4642 9.24035 11.9616 9.57195 10.5129C9.84236 11.8241 10.3659 13.0699 11.1132 14.1807L14.3697 14.1797ZM41.5274 3.96875V13.9759H40.1808V3.96875H41.5274ZM37.5374 7.24751C38.0968 7.79309 38.3756 8.57973 38.3756 9.60693V13.975H37.0429V9.92531C37.0429 8.33868 36.251 7.68856 35.0185 7.68856C34.4749 7.68856 33.9231 7.87615 33.5331 8.30049C33.1226 8.74775 32.9369 9.25705 32.9369 10.1568L32.9178 13.9759H31.5722V6.5635H32.9178V7.54631C33.5126 6.78641 34.4725 6.44226 35.2982 6.44226C36.1999 6.44226 36.9784 6.70192 37.5374 7.24751ZM26.4228 6.44369C24.2252 6.44369 22.6772 7.98641 22.6772 10.2699C22.6772 12.554 24.2252 14.0967 26.4228 14.0967C28.6204 14.0967 30.1694 12.554 30.1694 10.2699C30.1694 7.98641 28.6214 6.44369 26.4228 6.44369ZM26.4228 12.869C24.9942 12.869 24.0792 11.8031 24.0792 10.2699C24.0792 8.73724 24.9932 7.67042 26.4228 7.67042C27.8534 7.67042 28.7675 8.73724 28.7675 10.2699C28.7675 11.8031 27.8524 12.869 26.4228 12.869ZM50.4333 6.56445L45.9708 17.4642H44.5068L45.914 13.9711L42.9312 6.56445H44.441L46.6667 12.4914L48.9694 6.56445H50.4333Z" fill="white"/>
</svg>
