<svg width="43" height="16" viewBox="0 0 43 16" fill="none" xmlns="http://www.w3.org/2000/svg">
  <g clip-path="url(#ad)">
    <path fill-rule="evenodd" clip-rule="evenodd" d="M39.2486 1.25H39.7556C41.7341 3.38735 42.8593 6.12313 42.8593 8.96724C42.8593 11.4921 41.9752 13.943 40.3985 15.9435H39.8854H39.0199H38.5129C40.2872 13.9943 41.2889 11.5377 41.2889 8.96724C41.2889 6.07193 40.009 3.28476 37.7894 1.25H38.2964H39.2486ZM12.3467 16H15.846V1.26085H11.4749L0 16H5.13776L6.48555 14.0508H12.3467V16ZM8.68344 10.9793H12.3683V5.70151L8.68344 10.9793ZM21.9687 4.71182C24.3244 4.71182 26.2225 6.47296 26.2225 8.63321C26.2225 10.7989 24.3244 12.5601 21.9687 12.5601H20.8558V4.71182H21.9687ZM22.4016 15.9913C26.8098 15.9913 30.3957 12.6913 30.3957 8.63321C30.3957 4.55792 26.8468 1.26357 22.4385 1.26357H22.3891H17.4987V15.997H22.4016V15.9913ZM35.7343 1.25H35.2274H34.2752H33.7682C35.9878 3.28476 37.2676 6.07193 37.2676 8.96724C37.2676 11.5377 36.266 13.9943 34.4916 15.9435H34.9986H35.8642H36.3649C37.9537 13.943 38.8379 11.4921 38.8379 8.96724C38.8379 6.12313 37.7127 3.38735 35.7343 1.25ZM31.2059 1.25H31.7129C33.6914 3.38735 34.8043 6.12313 34.8043 8.96724C34.8043 11.4921 33.9325 13.943 32.3437 15.9435H31.8367H30.9772H30.4702C32.2322 13.9943 33.2339 11.5377 33.2339 8.96724C33.2339 6.07193 31.9665 3.28476 29.7469 1.25H30.2414H31.2059Z" fill="white"/>
  </g>
  <defs>
    <clipPath id="ad">
      <rect width="42.8593" height="16" fill="white"/>
    </clipPath>
  </defs>
</svg>
