<svg width="16" height="16" viewBox="0 0 16 16" fill="none" xmlns="http://www.w3.org/2000/svg">
  <path fill-rule="evenodd" clip-rule="evenodd" d="M0 1.75C0 1.33579 0.335786 1 0.75 1H15.25C15.6642 1 16 1.33579 16 1.75V12.25C16 12.6642 15.6642 13 15.25 13H12.75V15C12.75 15.2652 12.61 15.5106 12.3817 15.6456C12.1535 15.7806 11.8709 15.785 11.6386 15.6572L6.80736 13H0.75C0.335786 13 0 12.6642 0 12.25V1.75ZM1.5 2.5V11.5H7H7.19264L7.36144 11.5928L11.25 13.7315V12.25V11.5H12H14.5V2.5H1.5ZM6 6.5H3V5H6V6.5ZM13 7.5H10V9H13V7.5ZM3 9V7.5H9V9H3ZM13 5H7V6.5H13V5Z" fill="black"/>
</svg>
