<svg width="24" height="24" viewBox="0 0 24 24" fill="none" xmlns="http://www.w3.org/2000/svg">
  <path d="M19.9803 2.99022C19.943 2.9914 19.9059 2.99466 19.869 2.99999H14.9998C14.8673 2.99812 14.7358 3.0226 14.6128 3.07201C14.4898 3.12142 14.3779 3.19478 14.2835 3.28783C14.1892 3.38087 14.1142 3.49175 14.0631 3.614C14.0119 3.73626 13.9856 3.86746 13.9856 3.99999C13.9856 4.13251 14.0119 4.26372 14.0631 4.38598C14.1142 4.50823 14.1892 4.61911 14.2835 4.71215C14.3779 4.80519 14.4898 4.87855 14.6128 4.92797C14.7358 4.97738 14.8673 5.00186 14.9998 4.99999H17.5858L8.29281 14.293C8.19684 14.3851 8.12021 14.4955 8.06743 14.6176C8.01464 14.7397 7.98676 14.8712 7.9854 15.0042C7.98405 15.1372 8.00926 15.2692 8.05954 15.3924C8.10983 15.5156 8.1842 15.6275 8.27827 15.7216C8.37235 15.8156 8.48426 15.89 8.60744 15.9403C8.73061 15.9906 8.86259 16.0158 8.99563 16.0144C9.12867 16.0131 9.2601 15.9852 9.38223 15.9324C9.50436 15.8796 9.61473 15.803 9.70687 15.707L18.9998 6.41405V8.99999C18.998 9.1325 19.0224 9.26406 19.0719 9.38703C19.1213 9.51 19.1946 9.62192 19.2877 9.71629C19.3807 9.81066 19.4916 9.8856 19.6139 9.93674C19.7361 9.98789 19.8673 10.0142 19.9998 10.0142C20.1324 10.0142 20.2636 9.98789 20.3858 9.93674C20.5081 9.8856 20.619 9.81066 20.712 9.71629C20.805 9.62192 20.8784 9.51 20.9278 9.38703C20.9772 9.26406 21.0017 9.1325 20.9998 8.99999V4.12694C21.0198 3.98297 21.008 3.83638 20.9655 3.69739C20.923 3.5584 20.8507 3.43035 20.7537 3.32215C20.6566 3.21395 20.5372 3.1282 20.4036 3.07088C20.27 3.01355 20.1256 2.98603 19.9803 2.99022Z" fill="white"/>
</svg>
