<svg width="456" height="71" viewBox="0 0 456 71" fill="none" xmlns="http://www.w3.org/2000/svg">
  <path d="M442.288 6.49457C442.637 6.34524 442.861 6.27057 442.96 6.27057C443.11 6.27057 443.433 6.32035 443.931 6.4199C445.026 6.76835 445.798 7.29101 446.246 7.9879L446.768 8.80924V17.0972C446.768 20.3826 446.743 22.8217 446.694 24.4146C446.644 26.0075 446.495 27.4012 446.246 28.5959C445.997 29.7408 445.673 30.5372 445.275 30.9852C444.927 31.3835 444.354 31.8066 443.558 32.2546C442.811 32.6528 440.297 32.8768 436.016 32.9266C431.785 32.9763 429.197 32.8021 428.251 32.4039C426.509 31.707 425.414 30.3879 424.966 28.4466C424.617 27.003 424.393 23.5435 424.294 18.0679C424.194 12.5924 424.294 9.50613 424.592 8.80924C424.891 8.06257 425.389 7.46524 426.086 7.01724C426.783 6.51946 427.48 6.32035 428.176 6.4199C429.122 6.56924 429.844 6.89279 430.342 7.39057C430.889 7.88835 431.238 8.4359 431.387 9.03324C431.536 9.63057 431.636 10.7506 431.686 12.3932L431.76 15.1559H434.374C437.41 15.1559 439.103 15.0563 439.451 14.8572C439.6 14.7577 439.7 13.7372 439.75 11.7959C439.8 9.95412 439.974 8.70968 440.272 8.06257C440.571 7.41546 441.243 6.89279 442.288 6.49457ZM439.078 22.4732C438.928 22.4235 438.53 22.3986 437.883 22.3986C437.286 22.3986 436.962 22.4235 436.912 22.4732C436.863 22.523 436.091 22.5977 434.598 22.6972C433.204 22.7968 432.358 22.9212 432.059 23.0706C431.81 23.2199 431.686 23.5683 431.686 24.1159C431.686 24.8626 431.835 25.2857 432.134 25.3852C432.432 25.4848 433.552 25.5346 435.494 25.5346C437.734 25.5346 438.903 25.4599 439.003 25.3106C439.202 25.211 439.302 24.7381 439.302 23.8919C439.302 23.0457 439.227 22.5728 439.078 22.4732ZM430.566 38.7506C444.951 38.5515 452.543 38.651 453.339 39.0492C454.135 39.4475 454.683 40.0448 454.982 40.8412C455.33 41.5879 455.38 42.3843 455.131 43.2306C454.832 44.3257 454.235 45.0723 453.339 45.4706C452.493 45.819 450.9 46.043 448.56 46.1426C447.216 46.1924 446.47 46.2421 446.32 46.2919C446.171 46.2919 446.072 46.6155 446.022 47.2626C446.022 47.8599 445.997 50.0252 445.947 53.7586C445.897 58.6368 445.773 61.4244 445.574 62.1212C445.126 63.515 444.28 64.3364 443.035 64.5852C441.791 64.8341 440.646 64.411 439.6 63.3159C439.053 62.7186 438.729 61.947 438.63 61.0012C438.53 60.0555 438.505 57.467 438.555 53.2359C438.605 52.7381 438.63 52.0164 438.63 51.0706C438.68 48.4324 438.605 46.9141 438.406 46.5159C438.207 46.0679 437.46 45.8439 436.166 45.8439C435.768 45.8937 435.444 45.9186 435.195 45.9186C432.607 45.9186 431.288 46.0928 431.238 46.4412C431.238 46.5906 431.238 48.059 431.238 50.8466C431.288 56.6706 431.163 60.2297 430.864 61.5239C430.715 62.0715 430.416 62.6439 429.968 63.2412C429.52 63.8386 429.147 64.1372 428.848 64.1372C428.749 64.1372 428.55 64.2119 428.251 64.3612C427.604 64.7097 426.807 64.6101 425.862 64.0626C424.966 63.5648 424.368 62.843 424.07 61.8972C423.871 61.3497 423.771 58.8359 423.771 54.3559C423.821 49.8759 423.796 47.4119 423.696 46.9639L423.622 46.3666H420.859C419.366 46.3666 418.395 46.3417 417.947 46.2919C417.549 46.1923 417.126 45.9932 416.678 45.6946C415.632 44.8484 415.209 43.7532 415.408 42.4092C415.657 41.0652 416.404 40.1195 417.648 39.5719C418.644 39.1239 422.95 38.8501 430.566 38.7506Z" fill="#EF233C"/>
  <path d="M405.597 12.6172C407.14 12.219 408.334 12.5674 409.181 13.6625C410.077 14.7078 410.425 16.2758 410.226 18.3665C410.126 19.3621 410.052 25.3852 410.002 36.4358C409.952 46.1425 409.853 51.9167 409.703 53.7585C409.604 55.6003 409.181 56.795 408.434 57.3425C407.588 57.9398 406.717 58.1887 405.821 58.0892C404.974 57.9896 404.228 57.5665 403.581 56.8198C403.033 56.123 402.709 55.5256 402.61 55.0278C402.56 54.5301 402.56 52.987 402.61 50.3985C402.709 47.0136 402.759 41.6625 402.759 34.3452C402.759 22.5478 402.933 16.1763 403.282 15.2305C403.73 13.787 404.501 12.9158 405.597 12.6172ZM384.69 16.1265C388.174 15.7283 390.389 16.5496 391.335 18.5905C391.634 19.1878 391.758 21.403 391.709 25.2358C391.709 29.019 391.559 31.4083 391.261 32.4038C390.713 34.2954 389.493 35.5896 387.602 36.2865C387.104 36.4856 385.71 36.6847 383.421 36.8838C381.131 37.083 379.314 37.1576 377.97 37.1078C376.825 37.0581 376.228 37.083 376.178 37.1825C376.029 37.2821 375.979 38.5265 376.029 40.9158C376.078 43.3052 376.153 44.5496 376.253 44.6492C376.352 44.699 377.696 44.699 380.285 44.6492C382.873 44.5994 384.765 44.5247 385.959 44.4252C387.154 44.3256 388.174 44.2261 389.021 44.1265C391.211 43.9274 392.754 44.4003 393.65 45.5452C394.546 46.6403 394.521 48.0092 393.575 49.6518C392.779 50.9461 390.887 51.6927 387.901 51.8918C385.909 51.9914 382.749 52.0412 378.418 52.0412C374.137 52.0412 371.847 51.9665 371.549 51.8172C370.702 51.3692 370.03 50.7718 369.533 50.0252L369.01 49.2038V40.9905C369.01 36.9087 369.01 34.5194 369.01 33.8225C369.06 33.0758 369.209 32.5283 369.458 32.1798C370.354 30.7363 371.349 30.0145 372.445 30.0145C372.644 30.0145 372.942 29.9647 373.341 29.8652C373.639 29.7656 374.884 29.6661 377.074 29.5665C381.554 29.3674 383.968 29.1185 384.317 28.8198C384.416 28.7203 384.491 28.0234 384.541 26.7292C384.59 25.435 384.565 24.5887 384.466 24.1905C384.317 23.643 383.794 23.4438 382.898 23.5932C382.35 23.643 381.305 23.7176 379.762 23.8172C378.119 23.867 376.701 23.9914 375.506 24.1905C373.565 24.4892 372.32 24.5638 371.773 24.4145C370.429 23.9665 369.582 23.1452 369.234 21.9505C368.885 20.7061 369.184 19.5363 370.13 18.4412C370.329 18.1425 370.677 17.8687 371.175 17.6198C371.723 17.3212 372.146 17.1718 372.445 17.1718C372.644 17.1718 372.843 17.1221 373.042 17.0225C373.191 16.923 374.013 16.8234 375.506 16.7238C377.447 16.5745 378.667 16.475 379.165 16.4252C380.061 16.3256 381.031 16.2758 382.077 16.2758C383.172 16.2758 384.043 16.2261 384.69 16.1265Z" fill="#332941"/>
  <path d="M325.026 6.79326C325.474 6.74348 328.361 6.6937 333.687 6.64392C338.068 6.64392 340.581 6.6937 341.228 6.79326C341.925 6.84303 342.523 7.06703 343.02 7.46526C343.867 8.16215 344.265 9.08303 344.215 10.2279C344.215 11.3728 343.817 12.3435 343.02 13.1399C342.523 13.5879 341.925 13.8617 341.228 13.9613C340.581 14.0608 339.362 14.0857 337.57 14.0359C335.33 13.9861 333.04 14.011 330.7 14.1106C328.361 14.1604 327.116 14.235 326.967 14.3346C326.818 14.4839 326.743 15.4048 326.743 17.0973C326.743 18.7399 326.818 19.611 326.967 19.7106C327.266 20.0093 330.676 20.1586 337.196 20.1586C340.133 20.1586 341.876 20.2084 342.423 20.3079C343.668 20.4573 344.613 21.0546 345.26 22.0999C345.957 23.0955 346.082 24.1159 345.634 25.1613C345.086 26.3559 344.29 27.1026 343.244 27.4013C342.199 27.6999 340.084 27.7995 336.898 27.6999C334.409 27.6004 331.621 27.5257 328.535 27.4759C326.843 27.4261 325.573 27.3764 324.727 27.3266C323.931 27.2768 323.109 27.1026 322.263 26.8039C321.417 26.4555 320.844 26.107 320.546 25.7586C320.297 25.4101 320.048 24.7381 319.799 23.7426C319.55 22.747 319.401 21.7515 319.351 20.7559C319.351 19.7106 319.351 18.1675 319.351 16.1266C319.351 13.5879 319.451 11.8457 319.65 10.8999C319.849 9.90437 320.272 9.08304 320.919 8.43592C321.417 7.93815 321.915 7.5897 322.412 7.39059C322.91 7.19148 323.781 6.99237 325.026 6.79326ZM339.884 32.0306C344.862 31.8315 347.849 31.8564 348.844 32.1053C350.188 32.5533 351.01 33.4741 351.308 34.8679C351.607 36.2119 351.234 37.3319 350.188 38.2279C349.541 38.7755 348.72 39.099 347.724 39.1986C346.729 39.2484 343.269 39.323 337.346 39.4226C330.327 39.4724 324.852 39.5719 320.919 39.7213C317.783 39.8706 315.792 39.9453 314.946 39.9453C314.149 39.8955 313.477 39.6964 312.93 39.3479C312.133 38.8501 311.586 38.1284 311.287 37.1826C311.038 36.187 311.163 35.3906 311.66 34.7933C311.81 34.6439 311.884 34.5195 311.884 34.4199C311.884 34.2706 312.059 34.0466 312.407 33.7479C312.805 33.4493 313.179 33.2253 313.527 33.0759C314.075 32.827 315.095 32.6528 316.588 32.5533C318.082 32.4537 321.492 32.379 326.818 32.3293C333.289 32.2297 337.644 32.1301 339.884 32.0306ZM319.426 43.0813C319.575 42.8324 320.123 42.8573 321.068 43.1559C322.014 43.4546 322.661 43.803 323.01 44.2013C323.458 44.7488 323.707 45.2964 323.756 45.8439C323.856 46.3417 323.931 48.0093 323.98 50.8466C323.98 54.2813 324.055 56.0484 324.204 56.1479C324.354 56.2475 327.465 56.2724 333.538 56.2226C333.886 56.2226 334.409 56.2226 335.106 56.2226C339.287 56.1728 341.751 56.1977 342.498 56.2973C343.244 56.3968 343.842 56.7204 344.29 57.2679C344.34 57.3177 344.389 57.3675 344.439 57.4173C345.335 58.5621 345.534 59.7319 345.036 60.9266C344.588 62.171 343.643 62.9675 342.199 63.3159C341.751 63.4155 338.366 63.515 332.044 63.6146C325.772 63.7639 322.213 63.7888 321.367 63.6893C320.471 63.5897 319.625 63.291 318.828 62.7933C318.032 62.2955 317.484 61.6981 317.186 61.0013C316.887 60.2546 316.663 57.6413 316.514 53.1613C316.364 48.6813 316.439 46.1924 316.738 45.6946C316.887 45.3959 316.962 45.1719 316.962 45.0226C316.962 44.8733 317.211 44.5746 317.708 44.1266C318.256 43.6288 318.654 43.355 318.903 43.3053C319.202 43.2555 319.376 43.1808 319.426 43.0813Z" fill="#332941"/>
  <path d="M286.154 12.0946C288.096 11.995 289.091 11.9203 289.141 11.8706C289.191 11.8208 290.759 11.7959 293.845 11.7959C297.479 11.7959 299.843 11.9701 300.938 12.3186C302.083 12.6172 303.004 13.3639 303.701 14.5586C304 15.1559 304.149 17.147 304.149 20.5319C304.199 23.9168 304.05 27.5008 303.701 31.2839C303.602 33.0759 303.129 34.395 302.282 35.2412C301.486 36.0377 300.217 36.5603 298.474 36.8092C297.28 36.9088 296.533 37.0083 296.234 37.1079C296.035 37.1577 295.911 37.3568 295.861 37.7052C295.861 38.0537 295.861 39.2732 295.861 41.3639C295.861 43.9523 295.836 46.2421 295.786 48.2332C295.737 50.0252 295.762 50.9959 295.861 51.1452C295.961 51.2946 296.782 51.3941 298.325 51.4439C299.918 51.4937 301.511 51.4688 303.104 51.3692C306.588 51.1701 308.704 51.1203 309.45 51.2199C310.197 51.2697 310.894 51.5683 311.541 52.1159C313.333 53.8083 313.333 55.5506 311.541 57.3426C310.944 57.9399 310.172 58.2883 309.226 58.3879C308.281 58.5372 305.194 58.6368 299.968 58.6866C293.895 58.8359 290.834 58.9106 290.784 58.9106C290.585 59.0599 287.797 59.1097 282.421 59.0599C277.045 59.0101 274.208 58.9355 273.909 58.8359C272.665 58.2883 271.893 57.3923 271.594 56.1479C271.296 54.8537 271.619 53.7835 272.565 52.9372C273.162 52.3897 273.785 52.0412 274.432 51.8919C275.129 51.7426 276.572 51.6928 278.762 51.7426C284.338 51.7923 287.399 51.643 287.946 51.2946C288.146 51.195 288.245 50.9212 288.245 50.4732C288.295 49.9755 288.295 48.3328 288.245 45.5452C288.245 41.8119 288.27 39.4475 288.32 38.4519C288.419 37.5559 288.394 37.0332 288.245 36.8839C288.146 36.6848 287.772 36.5852 287.125 36.5852C282.745 36.5852 280.231 34.7186 279.584 30.9852C279.385 30.0395 279.285 27.5008 279.285 23.3692C279.285 19.1879 279.36 16.7986 279.509 16.2012C279.957 14.6083 280.604 13.563 281.45 13.0652C282.297 12.5177 283.865 12.1941 286.154 12.0946ZM296.608 19.4866C296.359 19.1879 294.766 19.0635 291.829 19.1132C288.892 19.1132 287.274 19.2626 286.976 19.5612C286.876 19.6608 286.777 20.8306 286.677 23.0706C286.627 25.3106 286.652 26.8786 286.752 27.7746C286.802 28.3221 287.026 28.6457 287.424 28.7452C287.822 28.8448 289.166 28.9443 291.456 29.0439C293.795 29.1435 295.164 29.1683 295.562 29.1186C295.961 29.0688 296.234 28.8946 296.384 28.5959C296.533 28.2475 296.633 26.6795 296.682 23.8919C296.732 21.1043 296.707 19.6359 296.608 19.4866Z" fill="#EE9B00"/>
  <path d="M241.758 13.7373C242.256 13.3888 243.002 13.3142 243.998 13.5133C244.993 13.7124 245.715 14.0857 246.163 14.6333C246.213 14.6333 246.238 14.6582 246.238 14.7079C246.686 15.2057 246.935 16.0768 246.985 17.3213C247.084 18.5159 247.109 22.4733 247.059 29.1933C247.059 29.4919 247.059 29.7408 247.059 29.9399C246.96 39.3479 246.935 45.3213 246.985 47.8599C246.985 51.0955 246.935 53.0119 246.835 53.6093C246.636 54.8039 246.113 55.7248 245.267 56.3719C244.421 56.9693 243.5 57.1684 242.505 56.9693C241.509 56.7702 240.713 56.1728 240.115 55.1773C239.767 54.6795 239.593 48.1088 239.593 35.4653C239.593 22.8217 239.742 16.2013 240.041 15.6039C240.389 14.8573 240.961 14.235 241.758 13.7373ZM217.865 14.9319C219.557 14.6333 221.449 14.8822 223.539 15.6786C225.68 16.4253 227.347 17.4706 228.542 18.8146C229.786 20.1586 230.508 22.0253 230.707 24.4146C230.956 26.8039 230.633 28.9444 229.737 30.8359C229.04 32.2795 228.243 33.4244 227.347 34.2706C226.451 35.1168 225.281 35.8386 223.838 36.4359C221.648 37.3319 219.159 37.3817 216.371 36.5853C213.584 35.739 211.468 34.3453 210.025 32.4039C208.88 30.9106 208.257 29.1933 208.158 27.2519C208.058 25.3106 208.382 23.5186 209.129 21.8759C209.925 20.1835 211.095 18.6902 212.638 17.3959C214.181 16.0519 215.923 15.2306 217.865 14.9319ZM221.598 22.6973C220.105 22.2493 218.736 22.4235 217.491 23.2199C216.247 24.0164 215.625 25.1115 215.625 26.5053C215.625 27.6999 216.297 28.6208 217.641 29.2679C218.985 29.8653 220.304 29.8653 221.598 29.2679C222.942 28.6706 223.614 27.5257 223.614 25.8333C223.614 24.1408 222.942 23.0955 221.598 22.6973ZM231.529 42.7079C232.723 42.5586 233.669 42.5835 234.366 42.7826C234.963 42.9319 235.536 43.2306 236.083 43.6786C236.581 44.1266 236.905 44.7488 237.054 45.5453C237.253 46.2919 237.203 46.9639 236.905 47.5613C236.357 48.7062 235.461 49.4528 234.217 49.8013C233.022 50.0999 230.657 50.2493 227.123 50.2493C224.833 50.2493 222.245 50.299 219.358 50.3986C213.136 50.6973 209.676 50.7471 208.979 50.5479C207.536 50.1497 206.59 49.3284 206.142 48.0839C205.744 46.7897 206.042 45.6199 207.038 44.5746C207.585 43.9773 208.183 43.6288 208.83 43.5293C209.477 43.4297 211.369 43.3302 214.505 43.2306C218.238 43.1808 220.652 43.1062 221.747 43.0066C222.992 42.907 224.709 42.8324 226.899 42.7826C229.289 42.7826 230.832 42.7577 231.529 42.7079Z" fill="#332941"/>
  <path d="M192.354 6.19597C193.051 5.99686 193.773 6.02175 194.519 6.27064C195.316 6.46975 195.913 6.84309 196.311 7.39064C196.759 7.9382 197.008 8.46086 197.058 8.95864C197.158 9.45642 197.207 10.7755 197.207 12.916C197.207 15.5044 197.257 16.8733 197.357 17.0226C197.506 17.1222 198.75 17.172 201.09 17.172C203.081 17.2218 204.326 17.3213 204.823 17.4706C205.321 17.5702 205.869 17.9186 206.466 18.516C207.362 19.4618 207.71 20.4822 207.511 21.5773C207.362 22.6226 206.74 23.444 205.645 24.0413C205.346 24.1906 204.998 24.2902 204.599 24.34C204.201 24.34 203.056 24.34 201.165 24.34C200.916 24.34 200.567 24.34 200.119 24.34C198.477 24.2902 197.506 24.3898 197.207 24.6386C196.958 24.8875 196.859 25.8084 196.909 27.4013C196.958 27.7995 196.983 28.1231 196.983 28.372C197.033 30.164 197.083 31.6324 197.133 32.7773C197.282 34.9178 196.635 36.4111 195.191 37.2573C193.748 38.0538 192.304 37.7551 190.861 36.3613C190.811 36.3613 190.761 36.3364 190.711 36.2866C190.214 35.7889 189.915 34.9924 189.815 33.8973C189.716 32.7524 189.691 29.044 189.741 22.772C189.741 22.324 189.741 21.9755 189.741 21.7266C189.741 15.5044 189.766 11.8458 189.815 10.7506C189.865 9.65553 189.99 8.85909 190.189 8.36131C190.786 7.11686 191.508 6.39509 192.354 6.19597ZM174.285 8.06264C174.982 7.96309 175.629 8.03775 176.226 8.28664C176.624 8.43597 176.998 8.65997 177.346 8.95864C177.744 9.25731 177.943 9.48131 177.943 9.63064C177.943 9.77997 178.018 9.90442 178.167 10.004C178.566 10.3524 178.69 10.9746 178.541 11.8706C178.441 12.7666 178.093 13.6875 177.495 14.6333C177.296 14.932 177.172 15.1809 177.122 15.38C176.923 15.6786 176.724 15.9773 176.525 16.276C175.728 17.5702 175.28 18.4911 175.181 19.0386C175.081 19.5364 175.23 20.0093 175.629 20.4573C176.176 21.1044 176.5 21.5026 176.599 21.652C177.545 22.7471 178.989 24.2653 180.93 26.2066C181.926 27.252 182.598 28.0484 182.946 28.596C183.294 29.1435 183.469 29.716 183.469 30.3133C183.469 30.9604 183.22 31.6075 182.722 32.2546C182.274 32.9018 181.751 33.3 181.154 33.4493C180.855 33.4991 180.681 33.5738 180.631 33.6733C180.532 33.7729 180.233 33.7978 179.735 33.748C179.287 33.6982 178.889 33.5986 178.541 33.4493C177.943 33.1009 177.321 32.6778 176.674 32.18C176.077 31.6324 174.882 30.4129 173.09 28.5213C171.846 27.2769 171.149 26.6546 170.999 26.6546C170.9 26.6546 170.551 27.1524 169.954 28.148C169.158 29.4422 168.436 30.5871 167.789 31.5826C167.092 32.6778 166.47 33.4244 165.922 33.8226C165.374 34.2209 164.702 34.42 163.906 34.42C162.214 34.42 161.094 33.6733 160.546 32.18C159.998 30.6369 160.347 29.1684 161.591 27.7746C161.691 27.6751 161.741 27.5755 161.741 27.476C161.741 27.2271 162.686 25.6342 164.578 22.6973C164.777 22.3489 164.976 21.9755 165.175 21.5773C165.474 21.0298 165.673 20.6564 165.773 20.4573C165.922 20.1586 166.022 19.9844 166.071 19.9346C166.171 19.8351 166.345 19.5364 166.594 19.0386C167.042 18.1924 167.316 17.6946 167.415 17.5453C167.664 17.0973 167.838 16.7738 167.938 16.5746C168.286 15.9773 168.51 15.5791 168.61 15.38C168.809 15.0315 168.934 14.7826 168.983 14.6333C169.083 14.484 169.406 13.9364 169.954 12.9906C170.551 11.9951 170.9 11.4226 170.999 11.2733C171.248 10.5764 171.721 9.90442 172.418 9.25731C173.165 8.56042 173.787 8.1622 174.285 8.06264ZM184.365 40.02C185.758 39.8706 187.177 39.9453 188.621 40.244C189.019 40.3435 189.467 40.4431 189.965 40.5426C190.462 40.6422 190.861 40.7418 191.159 40.8413C191.508 40.9906 191.707 41.0653 191.757 41.0653C192.155 41.0653 192.902 41.5133 193.997 42.4093C195.092 43.3053 195.838 44.0769 196.237 44.724C196.535 45.1222 196.834 45.6946 197.133 46.4413C197.481 47.188 197.655 47.6609 197.655 47.86C197.655 48.0093 197.73 48.308 197.879 48.756C198.477 50.5978 198.302 52.8378 197.357 55.476C196.411 58.0644 195.042 60.0555 193.25 61.4493C192.553 61.9969 191.657 62.4946 190.562 62.9426C190.512 62.9924 190.164 63.1418 189.517 63.3906C189.318 63.4902 188.994 63.5898 188.546 63.6893C187.55 63.8386 186.978 63.9382 186.829 63.988C184.887 64.3364 182.647 63.9631 180.109 62.868C177.57 61.8226 175.902 60.5284 175.106 58.9853C175.106 58.9355 175.056 58.836 174.957 58.6866C174.907 58.5871 174.857 58.4875 174.807 58.388C174.807 58.3382 174.782 58.3133 174.733 58.3133C174.135 57.2182 173.762 56.0484 173.613 54.804C173.115 51.668 173.812 48.7311 175.703 45.9933C176.699 44.5498 178.018 43.2555 179.661 42.1106C181.353 40.916 182.921 40.2191 184.365 40.02ZM188.471 48.0093C187.974 47.86 187.302 47.7853 186.455 47.7853C185.609 47.7853 184.937 47.86 184.439 48.0093C182.946 48.3578 181.851 49.4529 181.154 51.2946C180.457 53.1364 180.582 54.58 181.527 55.6253C182.075 56.2226 183.095 56.596 184.589 56.7453C186.082 56.8946 187.277 56.7453 188.173 56.2973C189.268 55.7 190.039 54.804 190.487 53.6093C190.935 52.3649 190.96 51.1951 190.562 50.1C190.214 48.9551 189.517 48.2582 188.471 48.0093Z" fill="#332941"/>
  <path d="M149.928 14.4093C150.426 14.1107 151.073 14.036 151.869 14.1853C152.666 14.2849 153.313 14.5587 153.811 15.0067C153.86 15.0564 153.91 15.1062 153.96 15.156C154.458 15.604 154.732 16.276 154.781 17.172C154.881 18.0182 154.906 20.8555 154.856 25.684C154.856 26.3809 154.856 26.9284 154.856 27.3267C154.856 34.5942 154.906 39.6715 155.005 42.5587C155.204 48.084 155.279 51.3942 155.229 52.4893C155.18 53.5844 154.906 54.4307 154.408 55.028C153.761 55.9738 152.815 56.4218 151.571 56.372C150.326 56.3222 149.405 55.8244 148.808 54.8787C148.46 54.3809 148.236 53.7338 148.136 52.9373C148.036 52.0911 147.962 50.2742 147.912 47.4867C147.862 44.3009 147.788 41.7373 147.688 39.796C147.588 37.9542 147.539 33.972 147.539 27.8493C147.539 21.6769 147.588 18.2422 147.688 17.5453C147.987 16.052 148.733 15.0067 149.928 14.4093ZM120.733 17.0973C121.629 16.7987 122.127 16.7738 122.227 17.0227C122.326 17.1222 122.476 17.172 122.675 17.172C123.272 17.172 123.869 17.5702 124.467 18.3667C125.114 19.1133 125.412 19.86 125.363 20.6067C125.363 21.4529 123.994 24.4893 121.256 29.716C120.957 30.3631 120.858 30.8609 120.957 31.2093C121.057 31.5578 121.505 32.2547 122.301 33.3C123.645 35.0422 124.442 36.1622 124.691 36.66C124.691 36.66 124.989 37.1329 125.587 38.0787C127.08 40.3187 127.976 41.7373 128.275 42.3347C128.573 42.932 128.723 43.5293 128.723 44.1267C128.723 45.0227 128.125 45.9436 126.931 46.8893C126.781 46.9889 126.582 47.0636 126.333 47.1133C125.985 47.2129 125.711 47.3124 125.512 47.412C125.164 47.5115 124.666 47.4618 124.019 47.2627C123.421 47.0635 122.899 46.74 122.451 46.292C121.903 45.8938 121.206 44.9729 120.36 43.5293C119.215 41.588 118.269 40.1942 117.523 39.348C117.274 38.9995 117.05 38.8751 116.851 38.9747C116.701 39.0742 116.428 39.4973 116.029 40.244C115.631 41.0902 115.382 41.5631 115.283 41.6627C115.183 41.812 115.084 41.9613 114.984 42.1107C114.536 43.1062 113.964 43.9773 113.267 44.724C112.47 45.5204 111.599 45.9436 110.653 45.9933C109.708 45.9933 108.936 45.6947 108.339 45.0973C107.741 44.5 107.318 43.7533 107.069 42.8573C106.87 41.9613 107.094 40.9907 107.741 39.9453C107.791 39.8955 108.712 38.0538 110.504 34.42C112.396 30.6867 113.54 28.4467 113.939 27.7C114.785 26.0573 115.382 24.9373 115.731 24.34C116.477 22.8964 117 21.9009 117.299 21.3533C117.647 20.7062 117.946 20.1338 118.195 19.636C118.444 19.1382 118.817 18.6404 119.315 18.1427C119.862 17.5951 120.335 17.2467 120.733 17.0973ZM137.533 18.516C138.38 17.9684 139.35 17.9684 140.445 18.516C141.54 19.0138 142.237 19.8102 142.536 20.9053C142.685 21.5027 142.71 26.3062 142.611 35.316C142.561 44.276 142.436 48.9053 142.237 49.204C142.088 49.5524 141.814 49.9258 141.416 50.324C141.018 50.6724 140.694 50.8467 140.445 50.8467C140.296 50.8467 140.122 50.9213 139.923 51.0707C139.425 51.4191 138.728 51.3693 137.832 50.9213C136.936 50.4235 136.264 49.7515 135.816 48.9053C135.418 48.1089 135.268 45.4707 135.368 40.9907C135.368 40.6422 135.368 40.1942 135.368 39.6467C135.468 37.9542 135.368 36.9835 135.069 36.7347C134.82 36.436 133.924 36.2618 132.381 36.212C131.834 36.212 131.411 36.212 131.112 36.212C129.32 36.1622 128.225 36.1124 127.827 36.0627C127.478 36.0129 127.13 35.8635 126.781 35.6147C125.885 35.0173 125.363 34.1711 125.213 33.076C125.064 31.9809 125.338 31.06 126.035 30.3133C126.582 29.6662 127.229 29.268 127.976 29.1187C128.772 28.9195 130.216 28.82 132.307 28.82C134.298 28.82 135.343 28.7453 135.443 28.596C135.592 28.4467 135.617 27.2022 135.517 24.8627C135.468 22.6724 135.542 21.204 135.741 20.4573C135.99 19.7107 136.588 19.0635 137.533 18.516Z" fill="#EE9B00"/>
  <path d="M33.3624 0.655983C27.6923 1.65018 22.566 4.94349 19.3814 9.66595C18.729 10.6291 2.80617 38.2338 2.13819 39.5387C1.42361 40.9834 0.600284 43.4689 0.30513 45.1621C-0.0676966 47.2282 -0.0366277 50.6302 0.382802 52.7429C1.26826 57.2634 3.44308 61.2558 6.79852 64.4559C9.90541 67.4074 13.6181 69.2871 17.859 70.0017C19.5212 70.2968 46.2715 70.4677 60.268 70.2813L70.3654 70.1415L72.1519 69.6754C76.284 68.5725 79.3754 66.7705 82.2648 63.7724C82.9949 63.0267 83.958 61.8772 84.4085 61.2403C86.1328 58.8013 87.562 55.3372 88.0746 52.3856C88.4164 50.4749 88.4164 47.0263 88.0746 45.1621C87.764 43.4378 86.9562 40.9678 86.2105 39.5076C85.5425 38.1872 69.6663 10.6602 68.9984 9.66595C68.0663 8.28339 66.4041 6.43479 65.208 5.44058C62.8778 3.49878 60.8739 2.38031 58.0311 1.43271C54.9552 0.407433 54.1319 0.345291 43.9413 0.360832C36.0188 0.376366 34.7605 0.407425 33.3624 0.655983ZM40.4616 2.76866C45.386 3.62305 49.9066 6.45033 52.7649 10.4582C53.4795 11.4524 69.2159 38.5911 70.0858 40.3464C71.3907 42.9407 72.0431 45.7058 72.0431 48.735C72.0431 51.9662 71.4839 54.374 70.0547 57.2945C67.01 63.5704 60.734 67.7958 54.0542 68.0909L53.1222 68.1375L17.4085 67.7647C17.3775 67.7647 16.7716 67.5938 16.057 67.3919C9.00441 65.3413 3.66057 59.2363 2.38674 51.7798C2.12266 50.2419 2.16926 46.7932 2.47995 45.3175C2.82171 43.6863 3.52076 41.6047 4.1266 40.3931C5.0276 38.6066 20.7484 11.4679 21.4786 10.4582C23.933 6.99403 27.8632 4.24444 31.8245 3.20363C34.5585 2.48904 37.8363 2.31817 40.4616 2.76866ZM54.5358 2.75314C56.3533 3.07936 58.8699 3.93375 60.3768 4.72601C62.8467 6.04643 65.3167 8.20572 66.9012 10.4582C67.476 11.2815 74.5752 23.4605 82.6531 37.5347C84.4706 40.6882 85.0765 42.0242 85.6047 44.1213C87.6086 51.9973 84.3464 60.4014 77.5423 64.9219C74.6684 66.8482 71.748 67.8113 68.1284 68.0754C66.1245 68.2152 62.3652 68.2618 62.3652 68.1531C62.3652 68.122 62.8157 67.8424 63.3749 67.5317C65.8759 66.1336 68.8741 63.3529 70.4897 60.8985C72.9907 57.1081 74.2024 53.1468 74.2024 48.735C74.2024 45.4573 73.4567 42.2261 72.0742 39.4765C71.08 37.5347 55.8718 11.2194 54.7844 9.58828C53.0756 7.0251 50.2794 4.46192 47.5453 2.95508L46.7531 2.52011H49.9532C52.159 2.52011 53.5882 2.59779 54.5358 2.75314Z" fill="#332941"/>
  <path d="M40.4616 2.76866C45.386 3.62305 49.9066 6.45033 52.7649 10.4582C53.4795 11.4524 69.2159 38.5911 70.0858 40.3464C71.3907 42.9407 72.0431 45.7058 72.0431 48.735C72.0431 51.9662 71.4839 54.374 70.0547 57.2945C67.01 63.5704 60.734 67.7958 54.0542 68.0909L53.1222 68.1375L17.4085 67.7647C17.3775 67.7647 16.7716 67.5938 16.057 67.3919C9.00441 65.3413 3.66057 59.2363 2.38674 51.7798C2.12266 50.2419 2.16926 46.7932 2.47995 45.3175C2.82171 43.6863 3.52076 41.6047 4.1266 40.3931C5.0276 38.6066 20.7484 11.4679 21.4786 10.4582C23.933 6.99403 27.8632 4.24444 31.8245 3.20363C34.5585 2.48904 37.8363 2.31817 40.4616 2.76866Z" fill="#EEF5FF"/>
  <path d="M54.5358 2.75314C56.3533 3.07936 58.8699 3.93375 60.3768 4.72601C62.8467 6.04643 65.3167 8.20572 66.9012 10.4582C67.476 11.2815 74.5752 23.4605 82.6531 37.5347C84.4706 40.6882 85.0765 42.0242 85.6047 44.1213C87.6086 51.9973 84.3464 60.4014 77.5423 64.9219C74.6684 66.8482 71.748 67.8113 68.1284 68.0754C66.1245 68.2152 62.3652 68.2618 62.3652 68.1531C62.3652 68.122 62.8157 67.8424 63.3749 67.5317C65.8759 66.1336 68.8741 63.3529 70.4897 60.8985C72.9907 57.1081 74.2024 53.1468 74.2024 48.735C74.2024 45.4573 73.4567 42.2261 72.0742 39.4765C71.08 37.5347 55.8718 11.2194 54.7844 9.58828C53.0756 7.0251 50.2794 4.46192 47.5453 2.95508L46.7531 2.52011H49.9532C52.159 2.52011 53.5882 2.59779 54.5358 2.75314Z" fill="#EEF5FF"/>
  <path d="M20.7175 38.1694C19.5999 39.3016 19.3515 40.591 20.0035 41.9119C21.028 43.9246 23.6048 44.3335 25.3123 42.7925C26.1815 42.0062 26.3368 41.6603 26.3368 40.4023C26.3368 39.1444 26.1815 38.7984 25.3123 38.0122C23.8531 36.6599 22.1456 36.7228 20.7175 38.1694Z" fill="#EE9B00"/>
  <path d="M46.0856 37.8918C44.394 39.3298 44.5477 41.7055 46.4239 43.1123C47.9617 44.2689 50.2991 43.7375 51.1603 42.0181C51.8985 40.5489 51.7139 39.3298 50.5452 38.1419C49.1919 36.7664 47.5003 36.6726 46.0856 37.8918Z" fill="#EE9B00"/>
  <path d="M25.2161 47.9108C23.9741 49.308 25.3713 50.6121 29.7802 52.1335C34.5307 53.779 39.7158 53.4065 44.0626 51.1399C46.4223 49.8669 46.9812 48.9665 46.0187 47.9108C45.2735 47.0725 45.1183 47.1036 42.5723 48.4076C38.2565 50.581 33.475 50.5189 28.5693 48.2524C26.1786 47.1346 25.9612 47.1036 25.2161 47.9108Z" fill="#EF233C"/>
</svg>
