<svg width="248" height="48" viewBox="0 0 248 48" fill="none" xmlns="http://www.w3.org/2000/svg">
  <path d="M39.2598 26.8198V31.3039C39.2598 34.3562 39.9004 35.8634 42.9149 38.162C45.1381 39.8577 47.4367 41.4026 49.9991 43.0229L47.5121 46.565C44.912 44.907 42.312 43.136 40.2772 41.591C38.6192 40.3475 37.1873 39.104 36.9612 38.5765H36.9235C36.7351 39.1417 35.1525 40.4606 33.4945 41.7041C31.4597 43.249 28.8597 45.0201 26.2596 46.678L23.6973 43.0229C26.2596 41.4026 28.5582 39.8577 30.7814 38.162C33.7959 35.8634 34.4365 34.3562 34.4365 31.3039V26.8198H39.2598Z" fill="#EF233C"/>
  <path d="M19.7833 42.1942V37.3333H6.51937V42.1942H19.7833ZM24.5312 46.2262H1.77148V27.1216H6.51937V33.3014H19.7833V27.1216H24.5312V46.2262Z" fill="#EF233C"/>
  <path d="M25.1668 4.18266V0H48.5295V4.18266H39.2598V4.71021C39.2598 7.68705 39.7873 9.11896 42.8395 11.3045C45.1758 12.9625 47.3613 14.3944 49.9991 15.977L47.6251 19.5945C44.9874 17.9741 42.3874 16.2785 40.2772 14.7712C38.5815 13.6031 37.1496 12.2842 36.9612 11.8697H36.9235C36.7728 12.2842 35.567 13.4147 33.4945 14.8842C31.3843 16.3915 28.7843 18.0872 26.1466 19.7075L23.6973 15.977C26.335 14.3944 28.5205 12.9625 30.8568 11.3045C33.909 9.11896 34.4365 7.68705 34.4365 4.71021V4.18266H25.1668Z" fill="#EEF5FF"/>
  <path d="M1.46958 4.18266V0H24.8322V4.18266H15.5625V4.71021C15.5625 7.68705 16.0901 9.11896 19.1423 11.3045C21.4785 12.9625 23.6641 14.3944 26.3018 15.977L23.9278 19.5945C21.2901 17.9741 18.6901 16.2785 16.5799 14.7712C14.8842 13.6031 13.4523 12.2842 13.2639 11.8697H13.2263C13.0755 12.2842 11.8697 13.4147 9.79723 14.8842C7.68705 16.3915 5.08702 18.0872 2.44931 19.7075L0 15.977C2.63772 14.3944 4.82325 12.9625 7.15951 11.3045C10.2117 9.11896 10.7393 7.68705 10.7393 4.71021V4.18266H1.46958Z" fill="#EEF5FF"/>
  <path d="M245.206 36.1808V38.1968H230.254V26.3408H244.87V28.3568H232.63V31.2848H244.702V33.2528H232.63V36.1808H245.206ZM227.518 41.8448H247.822V43.8608H227.518V41.8448Z" fill="#EEF5FF"/>
  <path d="M226.009 46.8131H223.633V24.6851H226.009V46.8131ZM214.369 26.1731C217.609 26.1731 219.961 28.3811 219.961 32.6051V35.1011C219.961 39.3251 217.609 41.5091 214.369 41.5091C211.129 41.5091 208.777 39.3251 208.777 35.1011V32.6051C208.777 28.3571 211.129 26.1731 214.369 26.1731ZM214.369 39.3731C216.097 39.3731 217.681 38.1491 217.681 34.7651V32.9411C217.681 29.5571 216.073 28.3331 214.369 28.3331C212.641 28.3331 211.057 29.5571 211.057 32.9411V34.7651C211.057 38.1491 212.641 39.3731 214.369 39.3731Z" fill="#EEF5FF"/>
  <path d="M208.541 32.6771V34.7411H205.133V46.8131H202.757V24.6851H205.133V32.6771H208.541ZM194.405 35.7011H194.381C194.165 36.2291 193.757 36.7091 192.989 37.5491C192.005 38.6291 190.733 39.9011 189.101 41.3891L187.541 39.7811C189.005 38.4851 190.253 37.2611 191.333 36.0611C192.797 34.4051 193.181 33.3251 193.181 31.6211V26.2931H195.581V31.6211C195.581 33.5171 196.037 34.5011 197.501 36.1331C198.533 37.2611 199.589 38.2691 201.029 39.5411L199.493 41.1731C197.837 39.6371 196.757 38.5571 195.845 37.5731C195.173 36.8531 194.597 36.1811 194.405 35.7011Z" fill="#EEF5FF"/>
  <path d="M167.986 36.0611H188.29V38.0771H167.986V36.0611ZM173.29 40.0211V44.5091H185.794V46.5731H170.914V40.0211H173.29ZM170.986 25.6211H185.17V27.6371H173.338V31.6931H185.314V33.7091H170.986V25.6211Z" fill="#EEF5FF"/>
  <path d="M159.206 26.0291V36.6611H149.102V26.0291H159.206ZM168.758 30.8771V32.9411H165.614V40.4771H163.262V24.6851H165.614V30.8771H168.758ZM154.478 39.2291V44.5091H166.214V46.5731H152.102V39.2291H154.478ZM151.43 28.0451V34.6451H156.878V28.0451H151.43Z" fill="#EEF5FF"/>
  <path d="M146.803 46.8131H144.427V33.6131H139.723V31.5251H144.427V24.6851H146.803V46.8131ZM134.995 35.7011H134.971C134.755 36.2291 134.347 36.7091 133.579 37.5491C132.595 38.6291 131.323 39.9011 129.691 41.3891L128.131 39.7811C129.595 38.4851 130.843 37.2611 131.923 36.0611C133.387 34.4051 133.771 33.3251 133.771 31.6211V26.2931H136.171V31.6211C136.171 33.5171 136.627 34.5011 138.091 36.1331C139.123 37.2611 140.179 38.2691 141.619 39.5411L140.083 41.1731C138.427 39.6371 137.347 38.5571 136.435 37.5731C135.763 36.8531 135.187 36.1811 134.995 35.7011Z" fill="#EF233C"/>
  <path d="M129.191 32.5571V34.6211H125.783V46.8131H123.407V24.6851H125.783V32.5571H129.191ZM112.175 26.5331V38.7011H113.375C116.495 38.7011 119.039 38.5091 121.655 38.0771L121.919 40.1171C119.063 40.6211 116.543 40.7891 112.943 40.7891H109.799V26.5331H112.175Z" fill="#EF233C"/>
  <path d="M98.7633 38.6049C102.987 38.6049 105.675 40.3089 105.675 42.6129V43.4289C105.675 45.7329 102.987 47.4369 98.7633 47.4369C94.5393 47.4369 91.8513 45.7329 91.8513 43.4289V42.6129C91.8513 40.3089 94.5393 38.6049 98.7633 38.6049ZM100.011 27.4929V28.0449C100.011 29.0769 100.779 29.7009 102.627 30.4689C103.707 30.9249 105.219 31.4769 107.115 32.1249L106.251 33.9969C104.475 33.3729 102.963 32.8209 101.187 32.0529C100.179 31.6209 99.1233 31.0929 98.7633 30.4689C98.4033 31.0929 97.3713 31.6209 96.3633 32.0529C94.5633 32.8209 93.0513 33.3729 91.2753 33.9969L90.4113 32.1249C92.3073 31.4769 93.8193 30.9249 94.8993 30.4689C96.7473 29.7009 97.5153 29.0769 97.5153 28.0449V27.4929H91.2513V25.5249H106.275V27.4929H100.011ZM88.6113 35.1729H108.915V37.1889H88.6113V35.1729ZM98.7633 45.4929C101.475 45.4929 103.323 44.4369 103.323 43.2849V42.7569C103.323 41.6049 101.475 40.5489 98.7633 40.5489C96.0513 40.5489 94.2033 41.6049 94.2033 42.7569V43.2849C94.2033 44.4369 96.0513 45.4929 98.7633 45.4929Z" fill="#EF233C"/>
  <path d="M82.8311 26.7011V28.7651H80.2871V32.2451C80.2871 34.0211 80.5511 34.8371 81.3191 36.2771C81.9431 37.4531 82.6151 38.6051 83.7191 40.0931L82.0151 41.2931C81.1271 40.0211 80.7431 39.3971 80.2391 38.5331C79.6871 37.5971 79.2551 36.8291 79.1591 36.4211H79.1351C79.0151 36.8771 78.5351 37.6451 77.9831 38.5091C77.5991 39.1091 76.7831 40.2851 76.1111 41.0291H76.0631C75.3911 40.2851 74.5751 39.1091 74.1911 38.5091C73.6391 37.6451 73.1591 36.8771 73.0391 36.4211H73.0151C72.9191 36.8291 72.5111 37.5971 71.9591 38.5331C71.4551 39.3971 70.9271 40.2371 69.9911 41.5331L68.2871 40.3331C69.4871 38.7251 70.2551 37.4531 70.8791 36.2771C71.6471 34.8371 71.8871 34.0211 71.8871 32.2451V28.7651H69.2711V26.7011H82.8311ZM86.8871 34.7651V46.8131H84.5831V24.6851H86.8871V32.7011H89.7191V34.7651H86.8871ZM74.8151 35.5811C75.1511 36.2291 75.5351 36.9011 76.0871 37.6691C76.6391 36.9011 77.0231 36.2291 77.3591 35.5811C77.8871 34.5251 78.0551 33.9491 78.0551 32.2691V28.7651H74.1191V32.2691C74.1191 33.9491 74.2871 34.5251 74.8151 35.5811Z" fill="#EF233C"/>
  <path d="M246.022 21.8131H243.646V8.61306H238.942V6.52506H243.646V-0.314941H246.022V21.8131ZM234.214 10.7011H234.19C233.974 11.2291 233.566 11.7091 232.798 12.5491C231.814 13.6291 230.542 14.9011 228.91 16.3891L227.35 14.7811C228.814 13.4851 230.062 12.2611 231.142 11.0611C232.606 9.40506 232.99 8.32506 232.99 6.62106V1.29306H235.39V6.62106C235.39 8.51706 235.846 9.50106 237.31 11.1331C238.342 12.2611 239.398 13.2691 240.838 14.5411L239.302 16.1731C237.646 14.6371 236.566 13.5571 235.654 12.5731C234.982 11.8531 234.406 11.1811 234.214 10.7011Z" fill="#EF233C"/>
  <path d="M226.177 21.8131H223.801V9.54906H219.529V10.1011C219.529 14.3251 217.201 16.4851 213.961 16.4851C210.721 16.4851 208.393 14.3251 208.393 10.1011V7.60506C208.393 3.35706 210.721 1.19706 213.961 1.19706C217.153 1.19706 219.481 3.33306 219.529 7.46106H223.801V-0.314941H226.177V21.8131ZM213.961 14.3491C215.689 14.3491 217.249 13.1491 217.249 9.76506V7.94106C217.249 4.55706 215.689 3.35706 213.961 3.35706C212.233 3.35706 210.673 4.55706 210.673 7.94106V9.76506C210.673 13.1491 212.233 14.3491 213.961 14.3491Z" fill="#EF233C"/>
  <path d="M206.309 11.3251H203.957V6.52506H199.493C199.253 8.56506 197.477 10.7731 194.021 10.7731C190.277 10.7731 188.525 8.20506 188.525 6.04506V5.08506C188.525 2.92506 190.277 0.35706 194.021 0.35706C197.429 0.35706 199.181 2.49306 199.469 4.48506H203.957V-0.314941H206.309V11.3251ZM203.453 18.2851C203.285 18.7411 202.877 19.2451 202.061 20.1811C201.581 20.7331 200.789 21.5251 200.189 22.1491L198.629 20.6131V21.8611H191.165V12.5731H193.373V15.1891H196.397V12.5731H198.629V20.5651C199.253 19.9651 199.949 19.2931 200.621 18.5731C201.893 17.1571 202.277 16.4371 202.277 14.7331V12.5251H204.629V14.7331C204.629 16.4371 205.013 17.1571 206.285 18.5731C206.957 19.3171 207.605 19.9891 208.253 20.6131L206.717 22.1491C206.117 21.5251 205.325 20.7331 204.845 20.1811C204.029 19.2211 203.621 18.7411 203.453 18.2851ZM194.021 8.73306C196.133 8.73306 197.237 7.24506 197.237 5.92506V5.20506C197.237 3.88506 196.133 2.42106 194.021 2.42106C191.909 2.42106 190.805 3.88506 190.805 5.20506V5.92506C190.805 7.24506 191.909 8.73306 194.021 8.73306ZM193.373 19.9411H196.397V17.1091H193.373V19.9411Z" fill="#EF233C"/>
  <path d="M186.322 21.8131H183.946V-0.314941H186.322V21.8131ZM174.682 1.17306C177.922 1.17306 180.274 3.38106 180.274 7.60506V10.1011C180.274 14.3251 177.922 16.5091 174.682 16.5091C171.442 16.5091 169.09 14.3251 169.09 10.1011V7.60506C169.09 3.35706 171.442 1.17306 174.682 1.17306ZM174.682 14.3731C176.41 14.3731 177.994 13.1491 177.994 9.76506V7.94106C177.994 4.55706 176.386 3.33306 174.682 3.33306C172.954 3.33306 171.37 4.55706 171.37 7.94106V9.76506C171.37 13.1491 172.954 14.3731 174.682 14.3731Z" fill="#EEF5FF"/>
  <path d="M165.495 0.453125V8.37313H159.495V10.6291H168.447V12.6451H148.143V10.6291H157.095V8.37313H151.095V0.453125H165.495ZM150.759 16.7731V14.7571H165.615V22.0291H163.239V16.7731H150.759ZM163.143 6.38113V2.44513H153.447V6.38113H163.143Z" fill="#EEF5FF"/>
  <path d="M133.938 11.0371H133.914C133.746 11.5171 133.362 12.0451 132.882 12.6211C131.922 13.7731 130.698 15.0931 129.426 16.3891L127.818 14.7811C129.258 13.4131 130.506 12.1171 131.538 10.7731C132.498 9.52506 132.738 8.34906 132.738 6.98106V3.81306H128.946V1.82106H138.594V3.81306H135.042V6.98106C135.042 8.34906 135.354 9.47706 136.314 10.7251C137.322 12.0211 138.378 13.1491 139.794 14.5171L138.186 16.1011C136.914 14.8291 135.906 13.7731 134.946 12.6211C134.466 12.0451 134.106 11.5171 133.938 11.0371ZM140.85 6.93306V0.14106H143.178V20.7331H140.85V8.99706H137.49V6.93306H140.85ZM147.57 -0.314941V21.8131H145.242V-0.314941H147.57Z" fill="#EEF5FF"/>
  <path d="M113.854 1.34106C117.046 1.34106 118.726 3.47706 118.726 7.70106V7.77306H121.006V0.14106H123.334V20.7331H121.006V9.83706H118.726V10.0531C118.726 14.2771 117.046 16.4131 113.854 16.4131C110.662 16.4131 108.982 14.2771 108.982 10.0531V7.70106C108.982 3.47706 110.662 1.34106 113.854 1.34106ZM127.726 -0.314941V21.8131H125.398V-0.314941H127.726ZM113.854 14.3251C115.63 14.3251 116.47 13.0291 116.47 9.78906V7.96506C116.47 4.72506 115.63 3.45306 113.854 3.45306C112.078 3.45306 111.238 4.72506 111.238 7.96506V9.78906C111.238 13.0291 112.078 14.3251 113.854 14.3251Z" fill="#EEF5FF"/>
  <path d="M105.963 0.453125V8.37313H99.9633V10.6291H108.915V12.6451H88.6113V10.6291H97.5633V8.37313H91.5633V0.453125H105.963ZM91.2273 16.7731V14.7571H106.083V22.0291H103.707V16.7731H91.2273ZM103.611 6.38113V2.44513H93.9153V6.38113H103.611Z" fill="#EEF5FF"/>
  <path d="M74.4071 11.0371H74.3831C74.2151 11.5171 73.8311 12.0451 73.3511 12.6211C72.3911 13.7731 71.1671 15.0931 69.8951 16.3891L68.2871 14.7811C69.7271 13.4131 70.9751 12.1171 72.0071 10.7731C72.9671 9.52506 73.2071 8.34906 73.2071 6.98106V3.81306H69.4151V1.82106H79.0631V3.81306H75.5111V6.98106C75.5111 8.34906 75.8231 9.47706 76.7831 10.7251C77.7911 12.0211 78.8471 13.1491 80.2631 14.5171L78.6551 16.1011C77.3831 14.8291 76.3751 13.7731 75.4151 12.6211C74.9351 12.0451 74.5751 11.5171 74.4071 11.0371ZM81.3191 6.93306V0.14106H83.6471V20.7331H81.3191V8.99706H77.9591V6.93306H81.3191ZM88.0391 -0.314941V21.8131H85.7111V-0.314941H88.0391Z" fill="#EEF5FF"/>
</svg>
