<svg width="210" height="71" viewBox="0 0 210 71" fill="none" xmlns="http://www.w3.org/2000/svg">
  <path d="M196.564 11.6029C196.909 11.4549 197.131 11.3809 197.23 11.3809C197.378 11.3809 197.699 11.4302 198.192 11.5289C199.277 11.8742 200.042 12.3922 200.486 13.0829L201.004 13.8969V22.1109C201.004 25.3669 200.979 27.7842 200.93 29.3629C200.881 30.9415 200.733 32.3229 200.486 33.5069C200.239 34.6415 199.919 35.4309 199.524 35.8749C199.179 36.2695 198.611 36.6889 197.822 37.1329C197.082 37.5275 194.591 37.7495 190.348 37.7989C186.155 37.8482 183.589 37.6755 182.652 37.2809C180.925 36.5902 179.84 35.2829 179.396 33.3589C179.051 31.9282 178.829 28.4995 178.73 23.0729C178.631 17.6462 178.73 14.5875 179.026 13.8969C179.322 13.1569 179.815 12.5649 180.506 12.1209C181.197 11.6275 181.887 11.4302 182.578 11.5289C183.515 11.6769 184.231 11.9975 184.724 12.4909C185.267 12.9842 185.612 13.5269 185.76 14.1189C185.908 14.7109 186.007 15.8209 186.056 17.4489L186.13 20.1869H188.72C191.729 20.1869 193.407 20.0882 193.752 19.8909C193.9 19.7922 193.999 18.7809 194.048 16.8569C194.097 15.0315 194.27 13.7982 194.566 13.1569C194.862 12.5155 195.528 11.9975 196.564 11.6029ZM193.382 27.4389C193.234 27.3895 192.839 27.3649 192.198 27.3649C191.606 27.3649 191.285 27.3895 191.236 27.4389C191.187 27.4882 190.422 27.5622 188.942 27.6609C187.561 27.7595 186.722 27.8829 186.426 28.0309C186.179 28.1789 186.056 28.5242 186.056 29.0669C186.056 29.8069 186.204 30.2262 186.5 30.3249C186.796 30.4235 187.906 30.4729 189.83 30.4729C192.05 30.4729 193.209 30.3989 193.308 30.2509C193.505 30.1522 193.604 29.6835 193.604 28.8449C193.604 28.0062 193.53 27.5375 193.382 27.4389ZM184.946 43.5709C199.203 43.3735 206.727 43.4722 207.516 43.8669C208.305 44.2615 208.848 44.8535 209.144 45.6429C209.489 46.3829 209.539 47.1722 209.292 48.0109C208.996 49.0962 208.404 49.8362 207.516 50.2309C206.677 50.5762 205.099 50.7982 202.78 50.8969C201.448 50.9462 200.708 50.9955 200.56 51.0449C200.412 51.0449 200.313 51.3655 200.264 52.0069C200.264 52.5989 200.239 54.7449 200.19 58.4449C200.141 63.2795 200.017 66.0422 199.82 66.7329C199.376 68.1142 198.537 68.9282 197.304 69.1749C196.071 69.4215 194.936 69.0022 193.9 67.9169C193.357 67.3249 193.037 66.5602 192.938 65.6229C192.839 64.6855 192.815 62.1202 192.864 57.9269C192.913 57.4335 192.938 56.7182 192.938 55.7809C192.987 53.1662 192.913 51.6615 192.716 51.2669C192.519 50.8229 191.779 50.6009 190.496 50.6009C190.101 50.6502 189.781 50.6749 189.534 50.6749C186.969 50.6749 185.661 50.8475 185.612 51.1929C185.612 51.3409 185.612 52.7962 185.612 55.5589C185.661 61.3309 185.538 64.8582 185.242 66.1409C185.094 66.6835 184.798 67.2509 184.354 67.8429C183.91 68.4349 183.54 68.7309 183.244 68.7309C183.145 68.7309 182.948 68.8049 182.652 68.9529C182.011 69.2982 181.221 69.1995 180.284 68.6569C179.396 68.1635 178.804 67.4482 178.508 66.5109C178.311 65.9682 178.212 63.4769 178.212 59.0369C178.261 54.5969 178.237 52.1549 178.138 51.7109L178.064 51.1189H175.326C173.846 51.1189 172.884 51.0942 172.44 51.0449C172.045 50.9462 171.626 50.7489 171.182 50.4529C170.146 49.6142 169.727 48.5289 169.924 47.1969C170.171 45.8649 170.911 44.9275 172.144 44.3849C173.131 43.9409 177.398 43.6695 184.946 43.5709Z" fill="#EF233C"/>
  <path d="M161 18.4847C161.74 18.2381 162.504 18.2874 163.294 18.6327C164.083 18.9781 164.675 19.5454 165.07 20.3347C165.316 20.7787 165.439 22.5301 165.439 25.5887C165.489 28.5981 165.464 35.0607 165.366 44.9767C165.267 51.2421 165.168 55.1887 165.07 56.8167C164.971 58.4447 164.798 59.4807 164.551 59.9247C163.713 61.2567 162.578 61.8981 161.148 61.8487C159.766 61.7994 158.78 61.0594 158.188 59.6287C157.99 59.2341 157.941 56.4221 158.04 51.1927C158.089 45.9141 158.04 43.2007 157.892 43.0527C157.842 42.9541 156.708 42.8801 154.488 42.8307C152.268 42.7321 151.084 42.7567 150.936 42.9047C150.886 42.9541 150.837 45.0507 150.788 49.1947C150.788 53.3881 150.689 55.7067 150.492 56.1507C150.048 57.0881 149.554 57.6307 149.012 57.7787C148.814 57.8774 148.617 57.9761 148.42 58.0747C148.272 58.1734 147.926 58.2227 147.383 58.2227C146.495 58.2227 145.731 57.9267 145.09 57.3347C144.448 56.6934 144.004 55.8547 143.758 54.8187C143.659 54.2761 143.585 51.5874 143.536 46.7527C143.486 41.8687 143.536 38.9334 143.684 37.9467C143.782 36.9601 143.856 34.3701 143.906 30.1767C143.955 26.9701 144.004 24.9474 144.053 24.1087C144.152 23.2701 144.35 22.6781 144.646 22.3327C144.744 22.1847 144.794 22.0614 144.794 21.9627C144.794 21.8147 144.942 21.6421 145.238 21.4447C146.274 20.5074 147.408 20.2114 148.642 20.5567C149.875 20.8527 150.689 21.6667 151.083 22.9987C151.231 23.5414 151.306 25.6874 151.306 29.4367C151.306 29.7327 151.306 30.1767 151.306 30.7687C151.306 33.0874 151.355 34.4441 151.454 34.8387C151.552 35.1841 151.922 35.3567 152.564 35.3567C152.712 35.3567 152.81 35.3567 152.859 35.3567C154.635 35.3567 156.066 35.4554 157.152 35.6527C157.596 35.7514 157.867 35.6281 157.965 35.2827C158.064 34.8387 158.114 32.7421 158.114 28.9927C158.114 25.8847 158.163 23.7141 158.262 22.4807C158.41 21.1981 158.656 20.2854 159.002 19.7427C159.396 19.2001 160.062 18.7807 161 18.4847ZM125.85 25.5887C126.195 25.3914 126.959 25.3174 128.143 25.3667C129.377 25.3667 130.24 25.4654 130.734 25.6627C134.779 27.1921 137.369 29.3874 138.503 32.2487C139.095 33.6301 139.416 35.5541 139.465 38.0207C139.515 40.4381 139.293 42.1401 138.799 43.1267C138.651 43.3734 138.578 43.5954 138.578 43.7927C138.578 43.9407 138.528 44.1381 138.43 44.3847C138.331 44.5821 138.158 44.9027 137.912 45.3467C137.418 46.4814 136.9 47.3694 136.358 48.0107C135.075 49.5894 133.817 50.6501 132.584 51.1927C132.09 51.4394 131.77 51.5874 131.622 51.6367C131.178 51.8834 130.29 52.0067 128.958 52.0067C127.675 52.0067 126.614 51.8834 125.776 51.6367C121.484 50.2554 118.696 47.0487 117.414 42.0167C117.266 41.4247 117.167 40.2654 117.117 38.5387C117.068 36.7627 117.118 35.7761 117.266 35.5787C117.414 35.4801 117.512 35.2581 117.561 34.9127C117.709 33.9754 118.178 32.9394 118.967 31.8047C119.115 31.5087 119.263 31.2374 119.411 30.9907C119.757 30.1027 120.571 29.0914 121.853 27.9567C123.185 26.7727 124.271 26.0574 125.11 25.8107C125.406 25.7614 125.652 25.6874 125.85 25.5887ZM130.29 33.5067C129.056 33.1121 127.823 33.2601 126.589 33.9507C125.405 34.6414 124.715 35.6034 124.517 36.8367C124.468 37.1821 124.394 37.3794 124.295 37.4287C123.999 37.6261 123.95 38.4154 124.147 39.7967C124.345 41.1287 124.641 42.1154 125.035 42.7567C125.677 43.6941 126.54 44.2614 127.626 44.4587C128.711 44.6561 129.599 44.4094 130.29 43.7187C131.622 42.4854 132.362 40.5121 132.51 37.7987C132.608 35.4801 131.868 34.0494 130.29 33.5067Z" fill="#EE9B00"/>
  <path d="M90.9872 17.1528C92.9112 17.0541 93.8979 16.9801 93.9472 16.9308C93.9966 16.8815 95.5506 16.8568 98.6092 16.8568C102.211 16.8568 104.554 17.0295 105.639 17.3748C106.774 17.6708 107.687 18.4108 108.377 19.5948C108.673 20.1868 108.821 22.1601 108.821 25.5148C108.871 28.8695 108.723 32.4215 108.377 36.1708C108.279 37.9468 107.81 39.2541 106.971 40.0928C106.182 40.8821 104.924 41.4001 103.197 41.6468C102.013 41.7455 101.273 41.8441 100.977 41.9428C100.78 41.9921 100.657 42.1895 100.607 42.5348C100.607 42.8801 100.607 44.0888 100.607 46.1608C100.607 48.7261 100.583 50.9955 100.533 52.9688C100.484 54.7448 100.509 55.7068 100.607 55.8548C100.706 56.0028 101.52 56.1015 103.049 56.1508C104.628 56.2001 106.207 56.1755 107.785 56.0768C111.239 55.8795 113.335 55.8301 114.075 55.9288C114.815 55.9781 115.506 56.2741 116.147 56.8168C117.923 58.4941 117.923 60.2208 116.147 61.9968C115.555 62.5888 114.791 62.9341 113.853 63.0328C112.916 63.1808 109.857 63.2795 104.677 63.3288C98.6586 63.4768 95.6246 63.5508 95.5752 63.5508C95.3779 63.6988 92.6152 63.7481 87.2872 63.6988C81.9592 63.6495 79.1472 63.5755 78.8512 63.4768C77.6179 62.9341 76.8532 62.0462 76.5572 60.8128C76.2612 59.5302 76.5819 58.4695 77.5192 57.6308C78.1112 57.0881 78.7279 56.7428 79.3692 56.5948C80.0599 56.4468 81.4906 56.3975 83.6612 56.4468C89.1866 56.4961 92.2206 56.3481 92.7632 56.0028C92.9606 55.9041 93.0592 55.6328 93.0592 55.1888C93.1086 54.6955 93.1086 53.0675 93.0592 50.3048C93.0592 46.6048 93.0839 44.2615 93.1332 43.2748C93.2319 42.3868 93.2072 41.8688 93.0592 41.7208C92.9606 41.5235 92.5906 41.4248 91.9492 41.4248C87.6079 41.4248 85.1166 39.5748 84.4752 35.8748C84.2779 34.9375 84.1792 32.4215 84.1792 28.3268C84.1792 24.1828 84.2532 21.8148 84.4012 21.2228C84.8452 19.6441 85.4866 18.6081 86.3252 18.1148C87.1639 17.5721 88.7179 17.2515 90.9872 17.1528ZM101.347 24.4788C101.101 24.1828 99.5219 24.0595 96.6112 24.1088C93.7006 24.1088 92.0972 24.2568 91.8012 24.5528C91.7026 24.6515 91.6039 25.8108 91.5052 28.0308C91.4559 30.2508 91.4806 31.8048 91.5792 32.6928C91.6286 33.2355 91.8506 33.5561 92.2452 33.6548C92.6399 33.7535 93.9719 33.8521 96.2412 33.9508C98.5599 34.0495 99.9166 34.0741 100.311 34.0248C100.706 33.9755 100.977 33.8028 101.125 33.5068C101.273 33.1615 101.372 31.6075 101.421 28.8448C101.471 26.0821 101.446 24.6268 101.347 24.4788Z" fill="#EE9B00"/>
  <path d="M10.5283 0.739711C10.2397 0.932116 9.99237 1.24821 9.88245 1.59179C9.69008 2.14151 9.70382 2.18275 11.7099 7.6388C12.8229 10.6623 13.771 13.246 13.7985 13.3697C13.8397 13.5209 13.6336 13.8782 13.2352 14.3317C12.8779 14.7166 12.4245 15.3075 12.2321 15.6373C12.0397 15.9809 11.8336 16.2008 11.7786 16.1321C11.7237 16.0771 10.171 13.6446 8.3435 10.731C6.516 7.81746 4.79842 5.23374 4.53735 4.97262C4.09765 4.56032 4.00147 4.51909 3.42436 4.58781C2.5587 4.68401 2.02282 5.26123 2.02282 6.09956C2.02282 6.63555 2.39382 7.28148 6.0763 13.0949C8.30228 16.6269 10.1298 19.5404 10.1298 19.5679C10.1298 19.5954 9.78626 19.6916 9.37404 19.7878C6.70837 20.3925 4.33124 22.7151 3.60299 25.4363C3.34192 26.4258 3.34192 28.2948 3.61673 29.3806L3.83658 30.2464L3.3007 30.906C1.45945 33.1187 0.511353 35.4963 0.511353 37.8326C0.511353 40.2789 1.55564 45.1577 2.70985 48.0301C4.64727 52.9364 8.21983 57.6366 12.3145 60.6876C13.5649 61.6221 13.5649 61.6221 13.5649 62.2406C13.5649 63.5736 14.3069 64.8655 15.7909 66.1161C21.562 70.9675 32.843 71.8883 40.3729 68.1089C42.1042 67.2293 43.1485 66.5147 44.1378 65.4977C45.1408 64.4807 45.608 63.5736 45.7042 62.4467L45.7866 61.5946L46.9134 60.7563C51.118 57.6366 54.7455 52.8127 56.6967 47.769C58.2906 43.6323 59.1425 38.1075 58.5654 35.6337C58.1807 34.012 57.1639 32.1155 55.9822 30.8236L55.4326 30.2464L55.6661 29.4493C55.7898 28.982 55.886 28.1437 55.886 27.4428C55.886 25.1751 55.2127 23.5122 53.6188 21.918C52.2447 20.5299 50.9943 19.939 48.7134 19.5954C48.2325 19.5267 48.205 19.4854 48.1226 18.867C47.6829 15.5137 45.4157 12.8612 42.2828 12.0366C40.6751 11.6106 38.4079 11.8305 36.9927 12.5451L36.4568 12.8337L36.2507 12.5039C35.7697 11.7205 34.0797 10.2225 33.214 9.79648C30.0537 8.25724 26.6048 8.79323 24.2002 11.1983C23.6643 11.7343 23.1421 12.3252 23.0185 12.5176C22.8261 12.8337 22.7986 12.8475 22.4688 12.6276C22.2902 12.5039 21.7131 12.2703 21.2047 12.1191C20.1742 11.803 18.1268 11.7205 17.2886 11.9679C17.0276 12.0366 16.7802 12.0779 16.7527 12.0504C16.7253 12.0091 15.7909 9.52162 14.6917 6.5256C12.7955 1.38564 12.6443 1.02832 12.2046 0.739711C11.6138 0.341158 11.1191 0.341158 10.5283 0.739711ZM31.1117 12.3252C32.5819 12.82 33.4751 13.7545 34.1209 15.4312C34.3957 16.1458 34.5881 16.4619 34.9178 16.6543C35.6736 17.1079 36.4705 16.943 37.1988 16.1596C38.1469 15.1288 40.4141 14.6616 41.8431 15.1976C43.3958 15.7885 44.4263 16.9292 44.8385 18.5509C45.0309 19.3068 45.0309 19.5679 44.8798 20.4887C44.7011 21.6431 44.7698 22.1516 45.1683 22.5502C45.5668 22.9487 46.0752 23.0312 47.1607 22.8388C49.3455 22.4815 51.3928 23.471 52.3272 25.3675C52.602 25.9448 52.657 26.2471 52.657 27.3603C52.657 28.501 52.602 28.7759 52.2585 29.5455C51.7363 30.7274 51.805 30.9885 53.0692 32.3353C54.8829 34.2594 55.6112 35.8399 55.6112 37.8326C55.6112 39.7292 54.8005 41.3784 52.9318 43.2337C51.5714 44.608 50.0325 45.6388 47.6416 46.7932C36.814 52.0156 19.5971 51.5621 9.81374 45.7899C7.12058 44.1957 5.2656 42.3267 4.08391 40.004C3.38314 38.6297 3.67169 36.1972 4.74346 34.3556C5.03201 33.8883 5.73278 32.995 6.32363 32.3628C7.56028 31.0297 7.62899 30.7136 7.01066 29.518C6.66714 28.8721 6.62592 28.6659 6.62592 27.429C6.62592 26.1921 6.66714 25.986 7.01066 25.3263C7.91754 23.6084 9.92367 22.4952 11.655 22.7701C12.2733 22.88 12.3558 22.9487 13.2901 24.4742C13.6886 25.1202 14.1695 25.8073 14.3619 26.0135C15.5573 27.3053 17.6184 25.7936 16.8077 24.2268C16.6978 24.0207 16.0932 23.0449 15.4749 22.0692C14.3894 20.3788 14.3344 20.2413 14.3344 19.5267C14.3481 18.7021 14.7054 17.4377 14.994 17.1903C15.1451 17.0804 15.2138 17.1216 15.3237 17.424C16.5604 20.8872 17.6184 23.6496 17.7696 23.897C17.8932 24.0757 18.2093 24.3093 18.4841 24.433C19.4734 24.8453 20.5726 24.1169 20.5726 23.0312C20.5726 22.7976 19.9543 20.9147 19.1986 18.8533C18.4428 16.8055 17.8245 15.0739 17.8245 15.0326C17.8245 14.9914 18.4016 14.9914 19.1024 15.0189C20.5314 15.0876 21.1772 15.335 22.2078 16.2558C22.8948 16.8605 23.2521 16.9842 23.9253 16.8605C24.4337 16.7643 25.107 16.1046 25.107 15.7061C25.1208 15.335 25.6154 14.3317 26.0826 13.7408C26.5223 13.1773 27.388 12.6001 28.2399 12.2977C28.9407 12.0504 30.3285 12.0641 31.1117 12.3252ZM6.72211 47.6178C10.858 50.4764 16.3543 52.3454 23.3895 53.28C25.5742 53.5686 31.1941 53.6785 33.6949 53.4861C41.1561 52.8952 47.9714 50.8062 52.3821 47.7827C52.9867 47.3704 53.4951 47.0543 53.5226 47.0681C53.6051 47.1643 52.4508 49.5143 51.7638 50.655C49.1119 55.0391 45.292 58.5849 40.84 60.7563C36.869 62.7078 33.1865 63.4912 28.7483 63.3263C25.5467 63.2026 23.0322 62.6803 20.1604 61.5259C16.9314 60.234 14.3344 58.5024 11.6962 55.8774C9.88245 54.0633 8.8519 52.799 7.79387 51.0673C6.90073 49.6243 5.62286 47.0131 5.80149 47.0131C5.82897 47.0131 6.24119 47.2879 6.72211 47.6178ZM20.7513 65.1541C22.2765 65.6626 24.6399 66.1849 26.3849 66.4047C28.5147 66.6659 32.8705 66.4872 35.0003 66.0749C36.4568 65.7863 38.5453 65.2091 39.6034 64.8105C39.7545 64.7556 39.6996 64.838 39.466 65.0029C38.8476 65.4427 36.4705 66.3223 35.069 66.6384C33.2003 67.0644 31.7163 67.2293 29.7239 67.2293C27.4842 67.2293 25.7528 67.0232 23.8017 66.5284C22.3727 66.1711 19.8719 65.1953 19.5558 64.8792C19.3635 64.6868 19.3909 64.6868 20.7513 65.1541Z" fill="#332941"/>
  <path d="M31.1117 12.3252C32.5819 12.82 33.4751 13.7545 34.1209 15.4312C34.3957 16.1458 34.5881 16.4619 34.9178 16.6543C35.6736 17.1079 36.4705 16.943 37.1988 16.1596C38.1469 15.1288 40.4141 14.6616 41.8431 15.1976C43.3958 15.7885 44.4263 16.9292 44.8385 18.5509C45.0309 19.3068 45.0309 19.5679 44.8798 20.4887C44.7011 21.6431 44.7698 22.1516 45.1683 22.5502C45.5668 22.9487 46.0752 23.0312 47.1607 22.8388C49.3455 22.4815 51.3928 23.471 52.3272 25.3675C52.602 25.9448 52.657 26.2471 52.657 27.3603C52.657 28.501 52.602 28.7759 52.2585 29.5455C51.7363 30.7274 51.805 30.9885 53.0692 32.3353C54.8829 34.2594 55.6112 35.8399 55.6112 37.8326C55.6112 39.7292 54.8005 41.3784 52.9318 43.2337C51.5714 44.608 50.0325 45.6388 47.6416 46.7932C36.814 52.0156 19.5971 51.5621 9.81374 45.7899C7.12058 44.1957 5.2656 42.3267 4.08391 40.004C3.38314 38.6297 3.67169 36.1972 4.74346 34.3556C5.03201 33.8883 5.73278 32.995 6.32363 32.3628C7.56028 31.0297 7.62899 30.7136 7.01066 29.518C6.66714 28.8721 6.62592 28.6659 6.62592 27.429C6.62592 26.1921 6.66714 25.986 7.01066 25.3263C7.91754 23.6084 9.92367 22.4952 11.655 22.7701C12.2733 22.88 12.3558 22.9487 13.2901 24.4742C13.6886 25.1202 14.1695 25.8073 14.3619 26.0135C15.5573 27.3053 17.6184 25.7936 16.8077 24.2268C16.6978 24.0207 16.0932 23.0449 15.4749 22.0692C14.3894 20.3788 14.3344 20.2413 14.3344 19.5267C14.3481 18.7021 14.7054 17.4377 14.994 17.1903C15.1451 17.0804 15.2138 17.1216 15.3237 17.424C16.5604 20.8872 17.6184 23.6496 17.7696 23.897C17.8932 24.0757 18.2093 24.3093 18.4841 24.433C19.4734 24.8453 20.5726 24.1169 20.5726 23.0312C20.5726 22.7976 19.9543 20.9147 19.1986 18.8533C18.4428 16.8055 17.8245 15.0739 17.8245 15.0326C17.8245 14.9914 18.4016 14.9914 19.1024 15.0189C20.5314 15.0876 21.1772 15.335 22.2078 16.2558C22.8948 16.8605 23.2521 16.9842 23.9253 16.8605C24.4337 16.7643 25.107 16.1046 25.107 15.7061C25.1208 15.335 25.6154 14.3317 26.0826 13.7408C26.5223 13.1773 27.388 12.6001 28.2399 12.2977C28.9407 12.0504 30.3285 12.0641 31.1117 12.3252Z" fill="#EEF5FF"/>
  <path d="M6.72211 47.6178C10.858 50.4764 16.3543 52.3454 23.3895 53.28C25.5742 53.5686 31.1941 53.6785 33.6949 53.4861C41.1561 52.8952 47.9714 50.8062 52.3821 47.7827C52.9867 47.3704 53.4951 47.0543 53.5226 47.0681C53.6051 47.1643 52.4508 49.5143 51.7638 50.655C49.1119 55.0391 45.292 58.5849 40.84 60.7563C36.869 62.7078 33.1865 63.4912 28.7483 63.3263C25.5467 63.2026 23.0322 62.6803 20.1604 61.5259C16.9314 60.234 14.3344 58.5024 11.6962 55.8774C9.88245 54.0633 8.8519 52.799 7.79387 51.0673C6.90073 49.6243 5.62286 47.0131 5.80149 47.0131C5.82897 47.0131 6.24119 47.2879 6.72211 47.6178Z" fill="#EEF5FF"/>
  <path d="M19.3634 36.101C18.484 36.7057 18.7039 37.544 20.0642 38.8633C21.8092 40.54 23.8978 41.7357 26.2062 42.3679C27.1956 42.629 27.704 42.684 29.6414 42.684C31.5788 42.684 32.0735 42.6427 33.0765 42.3679C35.4537 41.7219 37.817 40.3201 39.6033 38.506C40.3316 37.7501 40.4278 37.599 40.4278 37.1042C40.4278 36.3896 39.9056 35.8811 39.1911 35.8811C38.7926 35.8811 38.559 36.0322 37.6934 36.8981C33.8872 40.65 28.4047 41.3509 23.8291 38.6572C23.3894 38.3961 22.4688 37.6677 21.7955 37.0355C20.7787 36.0597 20.5176 35.8811 20.1329 35.8811C19.8718 35.8811 19.5283 35.9773 19.3634 36.101Z" fill="#EF233C"/>
  <path d="M15.8545 30.8478C15.1953 31.5156 15.0488 32.2761 15.4334 33.0552C16.0377 34.2424 17.5576 34.4836 18.5647 33.5746C19.0775 33.1109 19.169 32.9068 19.169 32.1648C19.169 31.4228 19.0775 31.2188 18.5647 30.755C17.7041 29.9574 16.6969 29.9945 15.8545 30.8478Z" fill="#EE9B00"/>
  <path d="M40.7299 30.8478C40.0707 31.5156 39.9242 32.2761 40.3087 33.0552C40.913 34.2424 42.4329 34.4836 43.4401 33.5746C43.9528 33.1109 44.0444 32.9068 44.0444 32.1648C44.0444 31.4228 43.9528 31.2188 43.4401 30.755C42.5794 29.9574 41.5723 29.9945 40.7299 30.8478Z" fill="#EE9B00"/>
</svg>
