<svg width="247" height="71" viewBox="0 0 247 71" fill="none" xmlns="http://www.w3.org/2000/svg">
  <path d="M233.397 6.39305C233.745 6.24373 233.969 6.16907 234.069 6.16907C234.218 6.16907 234.541 6.21884 235.039 6.31839C236.134 6.66681 236.906 7.18945 237.354 7.88629L237.876 8.70757V16.995C237.876 20.2801 237.851 22.7191 237.802 24.3119C237.752 25.9047 237.602 27.2984 237.354 28.4929C237.105 29.6378 236.781 30.4342 236.383 30.8821C236.035 31.2803 235.462 31.7034 234.666 32.1514C233.919 32.5496 231.406 32.7736 227.125 32.8233C222.894 32.8731 220.306 32.6989 219.36 32.3007C217.618 31.6039 216.523 30.2848 216.075 28.3436C215.727 26.9002 215.503 23.4408 215.403 17.9656C215.304 12.4904 215.403 9.40441 215.702 8.70757C216 7.96095 216.498 7.36366 217.195 6.91569C217.892 6.41794 218.589 6.21884 219.285 6.31839C220.231 6.46772 220.953 6.79125 221.451 7.289C221.998 7.78674 222.347 8.33426 222.496 8.93155C222.645 9.52885 222.745 10.6488 222.795 12.2913L222.869 15.0538H225.482C228.519 15.0538 230.211 14.9543 230.559 14.7552C230.709 14.6556 230.808 13.6352 230.858 11.694C230.908 9.85238 231.082 8.60802 231.381 7.96095C231.679 7.31388 232.351 6.79125 233.397 6.39305ZM230.186 22.3707C230.037 22.3209 229.639 22.296 228.992 22.296C228.394 22.296 228.071 22.3209 228.021 22.3707C227.971 22.4205 227.2 22.4951 225.706 22.5947C224.313 22.6942 223.467 22.8186 223.168 22.968C222.919 23.1173 222.795 23.4657 222.795 24.0132C222.795 24.7599 222.944 25.1829 223.243 25.2825C223.541 25.382 224.661 25.4318 226.602 25.4318C228.842 25.4318 230.012 25.3572 230.111 25.2078C230.311 25.1083 230.41 24.6354 230.41 23.7893C230.41 22.9431 230.335 22.4702 230.186 22.3707ZM221.675 38.647C236.059 38.4479 243.65 38.5474 244.446 38.9456C245.243 39.3438 245.79 39.9411 246.089 40.7375C246.437 41.4841 246.487 42.2805 246.238 43.1267C245.94 44.2217 245.342 44.9683 244.446 45.3665C243.6 45.7149 242.008 45.9389 239.668 46.0385C238.324 46.0882 237.578 46.138 237.428 46.1878C237.279 46.1878 237.179 46.5113 237.13 47.1584C237.13 47.7557 237.105 49.9209 237.055 53.654C237.005 58.5319 236.881 61.3193 236.682 62.0161C236.234 63.4098 235.388 64.2311 234.143 64.4799C232.899 64.7288 231.754 64.3057 230.709 63.2107C230.161 62.6134 229.838 61.8419 229.738 60.8962C229.639 59.9505 229.614 57.3622 229.663 53.1313C229.713 52.6336 229.738 51.9119 229.738 50.9661C229.788 48.3281 229.713 46.81 229.514 46.4118C229.315 45.9638 228.568 45.7398 227.274 45.7398C226.876 45.7896 226.553 45.8145 226.304 45.8145C223.715 45.8145 222.396 45.9887 222.347 46.3371C222.347 46.4864 222.347 47.9548 222.347 50.7422C222.396 56.5658 222.272 60.1247 221.973 61.4188C221.824 61.9663 221.525 62.5387 221.077 63.136C220.629 63.7333 220.256 64.032 219.957 64.032C219.858 64.032 219.659 64.1066 219.36 64.256C218.713 64.6044 217.917 64.5048 216.971 63.9573C216.075 63.4596 215.478 62.7378 215.179 61.7921C214.98 61.2446 214.88 58.731 214.88 54.2513C214.93 49.7716 214.905 47.3077 214.806 46.8598L214.731 46.2625H211.969C210.475 46.2625 209.505 46.2376 209.057 46.1878C208.659 46.0882 208.236 45.8891 207.788 45.5905C206.742 44.7443 206.319 43.6493 206.518 42.3054C206.767 40.9615 207.514 40.0158 208.758 39.4682C209.754 39.0203 214.059 38.7465 221.675 38.647Z" fill="#EF233C"/>
  <path d="M178.353 11.9929C180.294 11.8933 181.289 11.8187 181.339 11.7689C181.389 11.7191 182.957 11.6942 186.043 11.6942C189.676 11.6942 192.041 11.8684 193.136 12.2168C194.281 12.5155 195.201 13.2621 195.898 14.4567C196.197 15.054 196.346 17.045 196.346 20.4296C196.396 23.8143 196.247 27.3981 195.898 31.1809C195.799 32.9728 195.326 34.2919 194.48 35.138C193.683 35.9344 192.414 36.457 190.672 36.7059C189.477 36.8055 188.731 36.905 188.432 37.0046C188.233 37.0543 188.109 37.2534 188.059 37.6019C188.059 37.9503 188.059 39.1698 188.059 41.2603C188.059 43.8486 188.034 46.1382 187.984 48.1292C187.934 49.9211 187.959 50.8917 188.059 51.041C188.158 51.1903 188.98 51.2899 190.523 51.3396C192.115 51.3894 193.708 51.3645 195.301 51.265C198.785 51.0659 200.901 51.0161 201.647 51.1157C202.394 51.1654 203.091 51.4641 203.738 52.0116C205.53 53.7039 205.53 55.446 203.738 57.2379C203.14 57.8352 202.369 58.1836 201.423 58.2832C200.478 58.4325 197.392 58.5321 192.165 58.5818C186.093 58.7312 183.032 58.8058 182.982 58.8058C182.783 58.9551 179.995 59.0049 174.62 58.9551C169.244 58.9054 166.407 58.8307 166.108 58.7312C164.864 58.1836 164.092 57.2877 163.794 56.0433C163.495 54.7492 163.819 53.679 164.764 52.8329C165.362 52.2854 165.984 51.9369 166.631 51.7876C167.328 51.6383 168.771 51.5885 170.961 51.6383C176.536 51.6881 179.597 51.5387 180.145 51.1903C180.344 51.0908 180.443 50.817 180.443 50.369C180.493 49.8713 180.493 48.2287 180.443 45.4414C180.443 41.7083 180.468 39.344 180.518 38.3485C180.617 37.4525 180.593 36.9299 180.443 36.7806C180.344 36.5815 179.97 36.4819 179.323 36.4819C174.943 36.4819 172.43 34.6154 171.783 30.8823C171.583 29.9366 171.484 27.3981 171.484 23.2668C171.484 19.0857 171.559 16.6966 171.708 16.0993C172.156 14.5065 172.803 13.4612 173.649 12.9635C174.495 12.4159 176.063 12.0924 178.353 11.9929ZM188.805 19.3844C188.557 19.0857 186.964 18.9613 184.027 19.0111C181.09 19.0111 179.473 19.1604 179.174 19.459C179.074 19.5586 178.975 20.7283 178.875 22.9681C178.826 25.208 178.85 26.7759 178.95 27.6718C179 28.2194 179.224 28.5429 179.622 28.6424C180.02 28.742 181.364 28.8415 183.654 28.9411C185.993 29.0406 187.362 29.0655 187.76 29.0158C188.158 28.966 188.432 28.7918 188.581 28.4931C188.731 28.1447 188.83 26.5768 188.88 23.7894C188.93 21.0021 188.905 19.5337 188.805 19.3844Z" fill="#EE9B00"/>
  <path d="M150.17 14.4094C150.668 14.1107 151.315 14.0361 152.112 14.1854C152.908 14.2849 153.555 14.5587 154.053 15.0067C154.103 15.0565 154.153 15.1063 154.202 15.1561C154.7 15.6041 154.974 16.2761 155.024 17.1721C155.123 18.0183 155.148 20.8556 155.098 25.6841C155.098 26.3809 155.098 26.9285 155.098 27.3267C155.098 34.5943 155.148 39.6716 155.248 42.5587C155.447 48.0841 155.521 51.3943 155.472 52.4894C155.422 53.5845 155.148 54.4307 154.65 55.0281C154.003 55.9738 153.057 56.4218 151.813 56.3721C150.569 56.3223 149.648 55.8245 149.05 54.8787C148.702 54.3809 148.478 53.7338 148.378 52.9374C148.279 52.0912 148.204 50.2743 148.154 47.4867C148.105 44.3009 148.03 41.7374 147.93 39.7961C147.831 37.9543 147.781 33.9721 147.781 27.8494C147.781 21.6769 147.831 18.2423 147.93 17.5454C148.229 16.0521 148.976 15.0067 150.17 14.4094ZM120.976 17.0974C121.872 16.7987 122.369 16.7738 122.469 17.0227C122.569 17.1223 122.718 17.1721 122.917 17.1721C123.514 17.1721 124.112 17.5703 124.709 18.3667C125.356 19.1134 125.655 19.8601 125.605 20.6067C125.605 21.4529 124.236 24.4894 121.498 29.7161C121.2 30.3632 121.1 30.8609 121.2 31.2094C121.299 31.5578 121.747 32.2547 122.544 33.3001C123.888 35.0423 124.684 36.1623 124.933 36.6601C124.933 36.6601 125.232 37.1329 125.829 38.0787C127.322 40.3187 128.218 41.7374 128.517 42.3347C128.816 42.9321 128.965 43.5294 128.965 44.1267C128.965 45.0227 128.368 45.9436 127.173 46.8894C127.024 46.9889 126.825 47.0636 126.576 47.1134C126.227 47.2129 125.953 47.3125 125.754 47.4121C125.406 47.5116 124.908 47.4618 124.261 47.2627C123.664 47.0636 123.141 46.7401 122.693 46.292C122.145 45.8938 121.449 44.9729 120.602 43.5294C119.457 41.5881 118.512 40.1943 117.765 39.3481C117.516 38.9996 117.292 38.8752 117.093 38.9747C116.944 39.0743 116.67 39.4974 116.272 40.2441C115.873 41.0903 115.625 41.5632 115.525 41.6627C115.425 41.8121 115.326 41.9614 115.226 42.1107C114.778 43.1063 114.206 43.9774 113.509 44.7241C112.713 45.5205 111.841 45.9436 110.896 45.9934C109.95 45.9934 109.178 45.6947 108.581 45.0974C107.984 44.5001 107.561 43.7534 107.312 42.8574C107.113 41.9614 107.337 40.9907 107.984 39.9454C108.033 39.8956 108.954 38.0538 110.746 34.4201C112.638 30.6867 113.783 28.4467 114.181 27.7001C115.027 26.0574 115.625 24.9374 115.973 24.3401C116.72 22.8965 117.242 21.9009 117.541 21.3534C117.889 20.7063 118.188 20.1338 118.437 19.6361C118.686 19.1383 119.059 18.6405 119.557 18.1427C120.105 17.5952 120.577 17.2467 120.976 17.0974ZM137.776 18.5161C138.622 17.9685 139.593 17.9685 140.688 18.5161C141.783 19.0138 142.48 19.8103 142.778 20.9054C142.928 21.5027 142.953 26.3063 142.853 35.3161C142.803 44.2761 142.679 48.9054 142.48 49.2041C142.33 49.5525 142.057 49.9258 141.658 50.3241C141.26 50.6725 140.937 50.8467 140.688 50.8467C140.538 50.8467 140.364 50.9214 140.165 51.0707C139.667 51.4192 138.97 51.3694 138.074 50.9214C137.178 50.4236 136.506 49.7516 136.058 48.9054C135.66 48.1089 135.511 45.4707 135.61 40.9907C135.61 40.6423 135.61 40.1943 135.61 39.6467C135.71 37.9543 135.61 36.9836 135.312 36.7347C135.063 36.4361 134.167 36.2618 132.624 36.2121C132.076 36.2121 131.653 36.2121 131.354 36.2121C129.562 36.1623 128.467 36.1125 128.069 36.0627C127.721 36.0129 127.372 35.8636 127.024 35.6147C126.128 35.0174 125.605 34.1712 125.456 33.0761C125.306 31.9809 125.58 31.0601 126.277 30.3134C126.825 29.6663 127.472 29.2681 128.218 29.1187C129.015 28.9196 130.458 28.8201 132.549 28.8201C134.54 28.8201 135.585 28.7454 135.685 28.5961C135.834 28.4467 135.859 27.2023 135.76 24.8627C135.71 22.6725 135.785 21.2041 135.984 20.4574C136.233 19.7107 136.83 19.0636 137.776 18.5161Z" fill="#EE9B00"/>
  <path d="M33.6048 0.655983C27.9347 1.65018 22.8083 4.94349 19.6238 9.66595C18.9713 10.6291 3.04854 38.2338 2.38056 39.5387C1.66598 40.9834 0.842654 43.4689 0.5475 45.1621C0.174674 47.2282 0.205743 50.6302 0.625172 52.7429C1.51063 57.2634 3.68545 61.2558 7.04089 64.4559C10.1478 67.4074 13.8605 69.2871 18.1014 70.0017C19.7636 70.2968 46.5139 70.4677 60.5104 70.2813L70.6078 70.1415L72.3942 69.6754C76.5264 68.5725 79.6177 66.7705 82.5071 63.7724C83.2373 63.0267 84.2004 61.8772 84.6509 61.2403C86.3752 58.8013 87.8044 55.3372 88.317 52.3856C88.6588 50.4749 88.6588 47.0263 88.317 45.1621C88.0063 43.4378 87.1985 40.9678 86.4529 39.5076C85.7849 38.1872 69.9087 10.6602 69.2407 9.66595C68.3087 8.28339 66.6465 6.43479 65.4503 5.44058C63.1202 3.49878 61.1162 2.38031 58.2734 1.43271C55.1976 0.407433 54.3743 0.345291 44.1837 0.360832C36.2612 0.376366 35.0029 0.407425 33.6048 0.655983ZM40.704 2.76866C45.6284 3.62305 50.1489 6.45033 53.0073 10.4582C53.7218 11.4524 69.4582 38.5911 70.3281 40.3464C71.633 42.9407 72.2855 45.7058 72.2855 48.735C72.2855 51.9662 71.7262 54.374 70.2971 57.2945C67.2523 63.5704 60.9764 67.7958 54.2966 68.0909L53.3646 68.1375L17.6509 67.7647C17.6198 67.7647 17.014 67.5938 16.2994 67.3919C9.24678 65.3413 3.90294 59.2363 2.62911 51.7798C2.36503 50.2419 2.41163 46.7932 2.72232 45.3175C3.06408 43.6863 3.76313 41.6047 4.36897 40.3931C5.26997 38.6066 20.9908 11.4679 21.7209 10.4582C24.1754 6.99403 28.1056 4.24444 32.0669 3.20363C34.8009 2.48904 38.0787 2.31817 40.704 2.76866ZM54.7782 2.75314C56.5957 3.07936 59.1123 3.93375 60.6191 4.72601C63.0891 6.04643 65.5591 8.20572 67.1436 10.4582C67.7184 11.2815 74.8176 23.4605 82.8955 37.5347C84.713 40.6882 85.3189 42.0242 85.847 44.1213C87.851 51.9973 84.5888 60.4014 77.7847 64.9219C74.9108 66.8482 71.9903 67.8113 68.3708 68.0754C66.3669 68.2152 62.6075 68.2618 62.6075 68.1531C62.6075 68.122 63.058 67.8424 63.6173 67.5317C66.1183 66.1336 69.1165 63.3529 70.732 60.8985C73.2331 57.1081 74.4448 53.1468 74.4448 48.735C74.4448 45.4573 73.6991 42.2261 72.3166 39.4765C71.3223 37.5347 56.1142 11.2194 55.0267 9.58828C53.318 7.0251 50.5218 4.46192 47.7877 2.95508L46.9954 2.52011H50.1955C52.4014 2.52011 53.8306 2.59779 54.7782 2.75314Z" fill="#332941"/>
  <path d="M40.704 2.76866C45.6284 3.62305 50.1489 6.45033 53.0073 10.4582C53.7218 11.4524 69.4582 38.5911 70.3281 40.3464C71.633 42.9407 72.2855 45.7058 72.2855 48.735C72.2855 51.9662 71.7262 54.374 70.2971 57.2945C67.2523 63.5704 60.9764 67.7958 54.2966 68.0909L53.3646 68.1375L17.6509 67.7647C17.6198 67.7647 17.014 67.5938 16.2994 67.3919C9.24678 65.3413 3.90294 59.2363 2.62911 51.7798C2.36503 50.2419 2.41163 46.7932 2.72232 45.3175C3.06408 43.6863 3.76313 41.6047 4.36897 40.3931C5.26997 38.6066 20.9908 11.4679 21.7209 10.4582C24.1754 6.99403 28.1056 4.24444 32.0669 3.20363C34.8009 2.48904 38.0787 2.31817 40.704 2.76866Z" fill="#EEF5FF"/>
  <path d="M54.7782 2.75314C56.5957 3.07936 59.1123 3.93375 60.6191 4.72601C63.0891 6.04643 65.5591 8.20572 67.1436 10.4582C67.7184 11.2815 74.8176 23.4605 82.8955 37.5347C84.713 40.6882 85.3189 42.0242 85.847 44.1213C87.851 51.9973 84.5888 60.4014 77.7847 64.9219C74.9108 66.8482 71.9903 67.8113 68.3708 68.0754C66.3669 68.2152 62.6075 68.2618 62.6075 68.1531C62.6075 68.122 63.058 67.8424 63.6173 67.5317C66.1183 66.1336 69.1165 63.3529 70.732 60.8985C73.2331 57.1081 74.4448 53.1468 74.4448 48.735C74.4448 45.4573 73.6991 42.2261 72.3166 39.4765C71.3223 37.5347 56.1142 11.2194 55.0267 9.58828C53.318 7.0251 50.5218 4.46192 47.7877 2.95508L46.9954 2.52011H50.1955C52.4014 2.52011 53.8306 2.59779 54.7782 2.75314Z" fill="#EEF5FF"/>
  <path d="M20.9599 38.1694C19.8422 39.3016 19.5939 40.591 20.2458 41.9119C21.2704 43.9246 23.8471 44.3335 25.5547 42.7925C26.4239 42.0062 26.5792 41.6603 26.5792 40.4023C26.5792 39.1444 26.4239 38.7984 25.5547 38.0122C24.0955 36.6599 22.388 36.7228 20.9599 38.1694Z" fill="#EE9B00"/>
  <path d="M46.328 37.8918C44.6364 39.3298 44.7901 41.7055 46.6663 43.1123C48.2041 44.2689 50.5416 43.7375 51.4027 42.0181C52.1409 40.5489 51.9563 39.3298 50.7876 38.1419C49.4343 36.7664 47.7427 36.6726 46.328 37.8918Z" fill="#EE9B00"/>
  <path d="M25.4584 47.9108C24.2165 49.308 25.6137 50.6121 30.0226 52.1335C34.773 53.779 39.9582 53.4065 44.305 51.1399C46.6647 49.8669 47.2236 48.9665 46.2611 47.9108C45.5159 47.0725 45.3606 47.1036 42.8146 48.4076C38.4989 50.581 33.7174 50.5189 28.8117 48.2524C26.4209 47.1346 26.2036 47.1036 25.4584 47.9108Z" fill="#EF233C"/>
</svg>
