<svg width="361" height="50" viewBox="0 0 361 50" fill="none" xmlns="http://www.w3.org/2000/svg">
  <path d="M344.288 14.7812C346.796 14.7812 349.06 15.1919 351.08 16.0131C353.122 16.8343 354.853 17.9995 356.273 19.5088C357.716 21.018 358.826 22.849 359.602 25.0019C360.379 27.1548 360.768 29.574 360.768 32.2595C360.768 34.945 360.379 37.3642 359.602 39.5171C358.826 41.67 357.716 43.5121 356.273 45.0435C354.853 46.5527 353.122 47.7179 351.08 48.5391C349.06 49.3603 346.796 49.7709 344.288 49.7709C341.758 49.7709 339.472 49.3603 337.43 48.5391C335.41 47.7179 333.679 46.5527 332.237 45.0435C330.794 43.5121 329.684 41.67 328.907 39.5171C328.131 37.3642 327.742 34.945 327.742 32.2595C327.742 29.574 328.131 27.1548 328.907 25.0019C329.684 22.849 330.794 21.018 332.237 19.5088C333.679 17.9995 335.41 16.8343 337.43 16.0131C339.472 15.1919 341.758 14.7812 344.288 14.7812ZM344.288 44.1779C347.351 44.1779 349.626 43.157 351.113 41.1151C352.622 39.051 353.377 36.1102 353.377 32.2928C353.377 28.4753 352.622 25.5346 351.113 23.4705C349.626 21.3842 347.351 20.3411 344.288 20.3411C341.181 20.3411 338.873 21.3842 337.364 23.4705C335.854 25.5346 335.1 28.4753 335.1 32.2928C335.1 36.1102 335.854 39.051 337.364 41.1151C338.873 43.157 341.181 44.1779 344.288 44.1779Z" fill="#EAFFFF"/>
  <path d="M323.94 15.3135V49.2711H316.782V15.3135H323.94ZM325.139 5.05963C325.139 5.70333 325.006 6.31362 324.739 6.89072C324.495 7.46772 324.151 7.97822 323.707 8.42212C323.263 8.84382 322.742 9.18782 322.142 9.45412C321.565 9.69832 320.944 9.82043 320.278 9.82043C319.634 9.82043 319.024 9.69832 318.447 9.45412C317.892 9.18782 317.404 8.84382 316.982 8.42212C316.561 7.97822 316.217 7.46772 315.95 6.89072C315.706 6.31362 315.584 5.70333 315.584 5.05963C315.584 4.39383 315.706 3.77242 315.95 3.19532C316.217 2.61822 316.561 2.11893 316.982 1.69723C317.404 1.25333 317.892 0.909325 318.447 0.665125C319.024 0.398825 319.634 0.265625 320.278 0.265625C320.944 0.265625 321.565 0.398825 322.142 0.665125C322.742 0.909325 323.263 1.25333 323.707 1.69723C324.151 2.11893 324.495 2.61822 324.739 3.19532C325.006 3.77242 325.139 4.39383 325.139 5.05963Z" fill="#EAFFFF"/>
  <path d="M305.234 23.6704C304.236 22.3831 303.137 21.4843 301.938 20.9738C300.74 20.4633 299.442 20.2081 298.043 20.2081C295.247 20.2081 293.061 21.2401 291.485 23.3042C289.909 25.3461 289.121 28.3756 289.121 32.3929C289.121 34.4791 289.299 36.2658 289.654 37.7528C290.009 39.2177 290.519 40.4162 291.185 41.3483C291.851 42.2805 292.661 42.9574 293.616 43.3791C294.57 43.8008 295.646 44.0117 296.845 44.0117C298.665 44.0117 300.229 43.6233 301.539 42.8465C302.871 42.0475 304.102 40.9266 305.234 39.484V23.6704ZM312.392 0V49.2718H308.064C307.11 49.2718 306.499 48.8168 306.233 47.9068L305.601 44.2114C304.18 45.876 302.56 47.2188 300.74 48.2397C298.942 49.2607 296.845 49.7711 294.448 49.7711C292.539 49.7711 290.808 49.3938 289.254 48.6392C287.701 47.8624 286.369 46.7416 285.259 45.2767C284.15 43.8119 283.284 42.0031 282.663 39.8502C282.063 37.6751 281.764 35.1894 281.764 32.3929C281.764 29.8627 282.097 27.5212 282.762 25.3683C283.45 23.2154 284.427 21.3511 285.692 19.7753C286.957 18.1773 288.489 16.9344 290.286 16.0466C292.106 15.1366 294.137 14.6817 296.379 14.6817C298.376 14.6817 300.074 15.0035 301.472 15.6471C302.871 16.2686 304.125 17.1452 305.234 18.2772V0H312.392Z" fill="#EAFFFF"/>
  <path d="M276.204 15.3145V49.272H271.876C270.922 49.272 270.311 48.817 270.045 47.9071L269.512 44.7443C268.802 45.499 268.048 46.187 267.249 46.8084C266.472 47.4299 265.639 47.9625 264.752 48.4064C263.864 48.8503 262.91 49.1943 261.889 49.4385C260.89 49.6826 259.813 49.8047 258.659 49.8047C256.795 49.8047 255.153 49.494 253.732 48.8725C252.312 48.2511 251.113 47.3744 250.137 46.2425C249.182 45.1106 248.461 43.7567 247.973 42.1809C247.484 40.5829 247.24 38.8295 247.24 36.9208V15.3145H254.398V36.9208C254.398 39.2068 254.92 40.9824 255.963 42.2475C257.028 43.5126 258.637 44.1451 260.79 44.1451C262.366 44.1451 263.831 43.79 265.184 43.0798C266.561 42.3473 267.848 41.3486 269.046 40.0835V15.3145H276.204Z" fill="#EAFFFF"/>
  <path d="M235.469 49.8039C232.65 49.8039 230.475 49.016 228.944 47.4402C227.434 45.8422 226.68 43.6005 226.68 40.7152V20.94H222.951C222.552 20.94 222.208 20.8179 221.919 20.5738C221.631 20.3074 221.486 19.919 221.486 19.4085V16.5122L226.979 15.7132L228.544 5.89205C228.655 5.51475 228.844 5.21515 229.11 4.99315C229.376 4.74905 229.732 4.62695 230.175 4.62695H233.838V15.7797H243.259V20.94H233.838V40.2159C233.838 41.4366 234.137 42.3687 234.736 43.0124C235.336 43.656 236.135 43.9778 237.133 43.9778C237.688 43.9778 238.165 43.9113 238.565 43.7781C238.964 43.6227 239.309 43.4674 239.597 43.312C239.886 43.1344 240.13 42.9791 240.329 42.8459C240.551 42.6906 240.762 42.6129 240.962 42.6129C241.361 42.6129 241.683 42.8348 241.927 43.2787L244.058 46.7743C242.948 47.7509 241.639 48.5055 240.13 49.0382C238.62 49.5487 237.067 49.8039 235.469 49.8039Z" fill="#EAFFFF"/>
  <path d="M217.123 21.4729C216.945 21.7836 216.746 22.0056 216.524 22.1388C216.302 22.272 216.024 22.3386 215.691 22.3386C215.314 22.3386 214.904 22.2276 214.46 22.0056C214.016 21.7615 213.494 21.4952 212.895 21.2066C212.296 20.9181 211.585 20.6629 210.764 20.4409C209.965 20.1968 209.022 20.0746 207.935 20.0746C207.047 20.0746 206.237 20.1857 205.504 20.4076C204.794 20.6074 204.184 20.9069 203.673 21.3064C203.185 21.6837 202.808 22.1388 202.541 22.6715C202.275 23.1819 202.142 23.7368 202.142 24.3361C202.142 25.1351 202.386 25.8008 202.874 26.3335C203.362 26.8661 204.006 27.3323 204.805 27.7318C205.604 28.1091 206.514 28.4531 207.535 28.7639C208.556 29.0746 209.599 29.4075 210.664 29.7626C211.73 30.1177 212.773 30.5283 213.794 30.9944C214.815 31.4605 215.725 32.0375 216.524 32.7256C217.323 33.3914 217.966 34.2126 218.455 35.1892C218.943 36.1435 219.187 37.3086 219.187 38.6847C219.187 40.2827 218.899 41.7587 218.322 43.1126C217.744 44.4665 216.901 45.6428 215.791 46.6415C214.682 47.6403 213.294 48.4171 211.63 48.9719C209.987 49.5268 208.101 49.8041 205.97 49.8041C204.794 49.8041 203.651 49.6932 202.541 49.4712C201.454 49.2715 200.411 48.9941 199.412 48.639C198.435 48.2617 197.514 47.8178 196.649 47.3073C195.805 46.7969 195.051 46.2419 194.385 45.6427L196.049 42.9128C196.249 42.5799 196.493 42.3247 196.782 42.1471C197.092 41.9474 197.47 41.8475 197.914 41.8475C198.38 41.8475 198.835 42.0029 199.279 42.3136C199.745 42.6021 200.277 42.9238 200.877 43.2789C201.498 43.6341 202.242 43.9671 203.107 44.2778C203.973 44.5663 205.049 44.7106 206.336 44.7106C207.402 44.7106 208.323 44.5884 209.1 44.3443C209.877 44.078 210.52 43.7228 211.031 43.2789C211.541 42.8351 211.918 42.3357 212.163 41.7808C212.407 41.2038 212.529 40.5935 212.529 39.9499C212.529 39.0843 212.285 38.3741 211.796 37.8192C211.308 37.2643 210.653 36.7871 209.832 36.3876C209.033 35.9881 208.112 35.633 207.069 35.3223C206.048 35.0116 205.005 34.6787 203.939 34.3236C202.874 33.9685 201.82 33.5579 200.777 33.0918C199.756 32.6257 198.835 32.0375 198.014 31.3273C197.215 30.5949 196.571 29.7182 196.083 28.6973C195.594 27.6541 195.35 26.389 195.35 24.902C195.35 23.5482 195.617 22.2608 196.149 21.0401C196.704 19.8194 197.503 18.743 198.546 17.8109C199.612 16.8787 200.91 16.1463 202.441 15.6136C203.995 15.0588 205.782 14.7812 207.801 14.7812C210.087 14.7812 212.163 15.1475 214.027 15.88C215.891 16.6124 217.456 17.6111 218.721 18.8762L217.123 21.4729Z" fill="#EAFFFF"/>
  <path d="M173.104 41.1042C173.104 39.8557 173.329 38.694 173.78 37.6189C174.265 36.5439 174.907 35.6075 175.704 34.8099C176.537 34.0123 177.508 33.3881 178.617 32.9373C179.727 32.4518 180.941 32.209 182.259 32.209C183.542 32.209 184.738 32.4518 185.848 32.9373C186.958 33.3881 187.929 34.0123 188.761 34.8099C189.593 35.6075 190.235 36.5439 190.686 37.6189C191.171 38.694 191.414 39.8557 191.414 41.1042C191.414 42.3526 191.171 43.5317 190.686 44.6414C190.235 45.7164 189.593 46.6528 188.761 47.4504C187.929 48.248 186.958 48.8722 185.848 49.323C184.738 49.7739 183.542 49.9993 182.259 49.9993C180.941 49.9993 179.727 49.7739 178.617 49.323C177.508 48.8722 176.537 48.248 175.704 47.4504C174.907 46.6528 174.265 45.7164 173.78 44.6414C173.329 43.5317 173.104 42.3526 173.104 41.1042Z" fill="#89DDFF"/>
  <path d="M170.324 46.3755V49.2719H144.59V2.16406H148.019V46.3755H170.324Z" fill="#EAFFFF"/>
  <path d="M142.187 46.8088V49.2724H117.884V46.8088H128.704V8.58994C128.704 7.83534 128.738 7.03635 128.804 6.19295L118.417 15.4147C118.106 15.681 117.796 15.7809 117.485 15.7143C117.174 15.6477 116.93 15.5146 116.753 15.3148L115.787 13.9831L129.403 1.96484H131.9V46.8088H142.187Z" fill="#EAFFFF"/>
  <path d="M116.135 2.16406L96.6929 49.2719H93.6629L74.2209 2.16406H76.9169C77.2279 2.16406 77.483 2.25286 77.683 2.43036C77.883 2.58576 78.0379 2.79666 78.1489 3.06296L94.196 42.1475C94.373 42.6358 94.5509 43.1573 94.7279 43.7122C94.9059 44.2671 95.0719 44.833 95.2279 45.4101C95.3609 44.833 95.5049 44.2671 95.6609 43.7122C95.8159 43.1573 95.9929 42.6358 96.1929 42.1475L112.207 3.06296C112.295 2.81876 112.451 2.60796 112.673 2.43036C112.895 2.25286 113.161 2.16406 113.472 2.16406H116.135Z" fill="#EAFFFF"/>
  <path d="M71.321 46.4421L71.255 49.2719H43.0229V2.16406H71.255V4.99386H46.452V24.0368H67.093V26.8H46.452V46.4421H71.321Z" fill="#EAFFFF"/>
  <path d="M40.111 25.7014C40.111 29.3413 39.568 32.6149 38.48 35.5224C37.393 38.4299 35.861 40.9046 33.886 42.9465C31.911 44.9884 29.536 46.5531 26.761 47.6406C24.009 48.7281 20.969 49.2719 17.64 49.2719H0.427979V2.16406H17.64C20.969 2.16406 24.009 2.70786 26.761 3.79536C29.536 4.88286 31.911 6.44756 33.886 8.48946C35.861 10.5314 37.393 13.0061 38.48 15.9136C39.568 18.8211 40.111 22.0837 40.111 25.7014ZM36.583 25.7014C36.583 22.4166 36.128 19.4869 35.218 16.9123C34.308 14.3378 33.02 12.1627 31.356 10.3872C29.691 8.61156 27.694 7.25766 25.363 6.32556C23.033 5.39336 20.458 4.92726 17.64 4.92726H3.85698V46.5087H17.64C20.458 46.5087 23.033 46.0426 25.363 45.1104C27.694 44.1783 29.691 42.8244 31.356 41.0489C33.02 39.2733 34.308 37.0982 35.218 34.5237C36.128 31.9491 36.583 29.0083 36.583 25.7014Z" fill="#EAFFFF"/>
</svg>
