<svg width="382" height="50" viewBox="0 0 382 50" fill="none" xmlns="http://www.w3.org/2000/svg">
  <path d="M378.835 22.2133C378.615 22.5653 378.384 22.8183 378.142 22.9723C377.9 23.1043 377.592 23.1703 377.218 23.1703C376.822 23.1703 376.393 23.0603 375.931 22.8403C375.491 22.6203 374.974 22.3783 374.38 22.1143C373.786 21.8283 373.104 21.5753 372.334 21.3553C371.586 21.1353 370.695 21.0253 369.661 21.0253C368.055 21.0253 366.79 21.3663 365.866 22.0483C364.942 22.7303 364.48 23.6213 364.48 24.7213C364.48 25.4473 364.711 26.0633 365.173 26.5693C365.657 27.0533 366.284 27.4823 367.054 27.8563C367.846 28.2303 368.737 28.5713 369.727 28.8793C370.717 29.1653 371.729 29.4843 372.763 29.8363C373.797 30.1883 374.809 30.5953 375.799 31.0573C376.789 31.4973 377.669 32.0693 378.439 32.7733C379.231 33.4553 379.858 34.2803 380.32 35.2483C380.804 36.2163 381.046 37.3823 381.046 38.7463C381.046 40.3743 380.749 41.8813 380.155 43.2673C379.561 44.6313 378.692 45.8193 377.548 46.8313C376.404 47.8213 374.985 48.6023 373.291 49.1743C371.619 49.7243 369.694 49.9993 367.516 49.9993C366.35 49.9993 365.206 49.8893 364.084 49.6693C362.984 49.4713 361.917 49.1853 360.883 48.8113C359.871 48.4373 358.925 47.9973 358.045 47.4913C357.187 46.9853 356.428 46.4353 355.768 45.8413L357.649 42.7393C357.891 42.3653 358.177 42.0793 358.507 41.8813C358.837 41.6833 359.255 41.5843 359.761 41.5843C360.267 41.5843 360.74 41.7273 361.18 42.0133C361.642 42.2993 362.17 42.6073 362.764 42.9373C363.358 43.2673 364.051 43.5753 364.843 43.8613C365.657 44.1473 366.68 44.2903 367.912 44.2903C368.88 44.2903 369.705 44.1803 370.387 43.9603C371.091 43.7183 371.663 43.4103 372.103 43.0363C372.565 42.6623 372.895 42.2333 373.093 41.7493C373.313 41.2433 373.423 40.7263 373.423 40.1983C373.423 39.4063 373.181 38.7573 372.697 38.2513C372.235 37.7453 371.608 37.3053 370.816 36.9313C370.046 36.5573 369.155 36.2273 368.143 35.9413C367.153 35.6333 366.13 35.3033 365.074 34.9513C364.04 34.5993 363.017 34.1923 362.005 33.7303C361.015 33.2463 360.124 32.6413 359.332 31.9153C358.562 31.1893 357.935 30.2983 357.451 29.2423C356.989 28.1863 356.758 26.9103 356.758 25.4143C356.758 24.0283 357.033 22.7083 357.583 21.4543C358.133 20.2003 358.936 19.1113 359.992 18.1873C361.07 17.2413 362.401 16.4933 363.985 15.9433C365.591 15.3713 367.439 15.0853 369.529 15.0853C371.861 15.0853 373.984 15.4703 375.898 16.2403C377.812 17.0103 379.407 18.0223 380.683 19.2763L378.835 22.2133Z" fill="#EAFFFF"/>
  <path d="M337.288 14.7812C339.796 14.7812 342.06 15.1919 344.08 16.0131C346.122 16.8343 347.853 17.9996 349.273 19.5089C350.716 21.0181 351.826 22.849 352.602 25.0019C353.379 27.1548 353.768 29.574 353.768 32.2595C353.768 34.945 353.379 37.3643 352.602 39.5172C351.826 41.6701 350.716 43.5121 349.273 45.0435C347.853 46.5527 346.122 47.718 344.08 48.5392C342.06 49.3604 339.796 49.771 337.288 49.771C334.758 49.771 332.472 49.3604 330.43 48.5392C328.41 47.718 326.679 46.5527 325.237 45.0435C323.794 43.5121 322.684 41.6701 321.907 39.5172C321.131 37.3643 320.742 34.945 320.742 32.2595C320.742 29.574 321.131 27.1548 321.907 25.0019C322.684 22.849 323.794 21.0181 325.237 19.5089C326.679 17.9996 328.41 16.8343 330.43 16.0131C332.472 15.1919 334.758 14.7812 337.288 14.7812ZM337.288 44.1779C340.351 44.1779 342.626 43.1571 344.113 41.1152C345.622 39.0511 346.377 36.1103 346.377 32.2929C346.377 28.4754 345.622 25.5347 344.113 23.4706C342.626 21.3843 340.351 20.3412 337.288 20.3412C334.181 20.3412 331.873 21.3843 330.364 23.4706C328.854 25.5347 328.1 28.4754 328.1 32.2929C328.1 36.1103 328.854 39.0511 330.364 41.1152C331.873 43.1571 334.181 44.1779 337.288 44.1779Z" fill="#EAFFFF"/>
  <path d="M317.94 15.3135V49.2711H310.782V15.3135H317.94Z" fill="#EAFFFF"/>
  <path d="M301.234 23.6704C300.236 22.3831 299.137 21.4843 297.938 20.9738C296.74 20.4633 295.442 20.2081 294.043 20.2081C291.247 20.2081 289.061 21.2401 287.485 23.3042C285.909 25.3461 285.121 28.3756 285.121 32.3929C285.121 34.4791 285.299 36.2658 285.654 37.7528C286.009 39.2177 286.519 40.4162 287.185 41.3483C287.851 42.2805 288.661 42.9574 289.616 43.3791C290.57 43.8008 291.646 44.0117 292.845 44.0117C294.665 44.0117 296.229 43.6233 297.539 42.8465C298.871 42.0475 300.102 40.9266 301.234 39.484V23.6704ZM308.392 0V49.2718H304.064C303.11 49.2718 302.499 48.8168 302.233 47.9068L301.601 44.2114C300.18 45.876 298.56 47.2188 296.74 48.2397C294.942 49.2607 292.845 49.7711 290.448 49.7711C288.539 49.7711 286.808 49.3938 285.254 48.6392C283.701 47.8624 282.369 46.7416 281.259 45.2767C280.15 43.8119 279.284 42.0031 278.663 39.8502C278.063 37.6751 277.764 35.1894 277.764 32.3929C277.764 29.8627 278.097 27.5212 278.762 25.3683C279.45 23.2154 280.427 21.3511 281.692 19.7753C282.957 18.1773 284.489 16.9344 286.286 16.0466C288.106 15.1366 290.137 14.6817 292.379 14.6817C294.376 14.6817 296.074 15.0035 297.472 15.6471C298.871 16.2686 300.125 17.1452 301.234 18.2772V0H308.392Z" fill="#EAFFFF"/>
  <path d="M275.204 15.3145V49.272H270.876C269.922 49.272 269.311 48.817 269.045 47.9071L268.512 44.7443C267.802 45.499 267.048 46.187 266.249 46.8084C265.472 47.4299 264.639 47.9625 263.752 48.4064C262.864 48.8503 261.91 49.1943 260.889 49.4385C259.89 49.6826 258.813 49.8047 257.659 49.8047C255.795 49.8047 254.153 49.494 252.732 48.8725C251.312 48.2511 250.113 47.3744 249.137 46.2425C248.182 45.1106 247.461 43.7567 246.973 42.1809C246.484 40.5829 246.24 38.8295 246.24 36.9208V15.3145H253.398V36.9208C253.398 39.2068 253.92 40.9824 254.963 42.2475C256.028 43.5126 257.637 44.1451 259.79 44.1451C261.366 44.1451 262.831 43.79 264.184 43.0798C265.561 42.3473 266.848 41.3486 268.046 40.0835V15.3145H275.204Z" fill="#EAFFFF"/>
  <path d="M235.469 49.8039C232.65 49.8039 230.475 49.016 228.944 47.4402C227.434 45.8422 226.68 43.6005 226.68 40.7152V20.94H222.951C222.552 20.94 222.208 20.8179 221.919 20.5738C221.631 20.3074 221.486 19.919 221.486 19.4085V16.5122L226.979 15.7132L228.544 5.89205C228.655 5.51475 228.844 5.21515 229.11 4.99315C229.376 4.74905 229.732 4.62695 230.175 4.62695H233.838V15.7797H243.259V20.94H233.838V40.2159C233.838 41.4366 234.137 42.3687 234.736 43.0124C235.336 43.656 236.135 43.9778 237.133 43.9778C237.688 43.9778 238.165 43.9113 238.565 43.7781C238.964 43.6227 239.309 43.4674 239.597 43.312C239.886 43.1344 240.13 42.9791 240.329 42.8459C240.551 42.6906 240.762 42.6129 240.962 42.6129C241.361 42.6129 241.683 42.8348 241.927 43.2787L244.058 46.7743C242.948 47.7509 241.639 48.5055 240.13 49.0382C238.62 49.5487 237.067 49.8039 235.469 49.8039Z" fill="#EAFFFF"/>
  <path d="M217.123 21.4729C216.945 21.7836 216.746 22.0056 216.524 22.1388C216.302 22.272 216.024 22.3386 215.691 22.3386C215.314 22.3386 214.904 22.2276 214.46 22.0056C214.016 21.7615 213.494 21.4952 212.895 21.2066C212.296 20.9181 211.585 20.663 210.764 20.441C209.965 20.1969 209.022 20.0746 207.935 20.0746C207.047 20.0746 206.237 20.1857 205.504 20.4076C204.794 20.6074 204.184 20.9069 203.673 21.3064C203.185 21.6837 202.808 22.1388 202.541 22.6715C202.275 23.1819 202.142 23.7368 202.142 24.3361C202.142 25.1351 202.386 25.8008 202.874 26.3335C203.362 26.8661 204.006 27.3323 204.805 27.7318C205.604 28.1091 206.514 28.4532 207.535 28.764C208.556 29.0747 209.599 29.4075 210.664 29.7626C211.73 30.1177 212.773 30.5283 213.794 30.9944C214.815 31.4605 215.725 32.0376 216.524 32.7257C217.323 33.3915 217.966 34.2127 218.455 35.1893C218.943 36.1436 219.187 37.3086 219.187 38.6847C219.187 40.2827 218.899 41.7587 218.322 43.1126C217.744 44.4665 216.901 45.6428 215.791 46.6415C214.682 47.6403 213.294 48.4172 211.63 48.972C209.987 49.5269 208.101 49.8041 205.97 49.8041C204.794 49.8041 203.651 49.6932 202.541 49.4712C201.454 49.2715 200.411 48.9941 199.412 48.639C198.435 48.2617 197.514 47.8179 196.649 47.3074C195.805 46.797 195.051 46.2419 194.385 45.6427L196.049 42.9128C196.249 42.5799 196.493 42.3247 196.782 42.1471C197.092 41.9474 197.47 41.8475 197.914 41.8475C198.38 41.8475 198.835 42.0029 199.279 42.3136C199.745 42.6021 200.277 42.9238 200.877 43.2789C201.498 43.6341 202.242 43.9672 203.107 44.2779C203.973 44.5664 205.049 44.7107 206.336 44.7107C207.402 44.7107 208.323 44.5884 209.1 44.3443C209.877 44.078 210.52 43.7228 211.031 43.2789C211.541 42.8351 211.918 42.3357 212.163 41.7808C212.407 41.2038 212.529 40.5936 212.529 39.95C212.529 39.0844 212.285 38.3741 211.796 37.8192C211.308 37.2643 210.653 36.7871 209.832 36.3876C209.033 35.9881 208.112 35.633 207.069 35.3223C206.048 35.0116 205.005 34.6788 203.939 34.3237C202.874 33.9686 201.82 33.558 200.777 33.0919C199.756 32.6258 198.835 32.0375 198.014 31.3273C197.215 30.5949 196.571 29.7182 196.083 28.6973C195.594 27.6541 195.35 26.3891 195.35 24.9021C195.35 23.5482 195.617 22.2608 196.149 21.0401C196.704 19.8194 197.503 18.743 198.546 17.8109C199.612 16.8787 200.91 16.1463 202.441 15.6136C203.995 15.0588 205.782 14.7812 207.801 14.7812C210.087 14.7812 212.163 15.1475 214.027 15.88C215.891 16.6124 217.456 17.6111 218.721 18.8762L217.123 21.4729Z" fill="#EAFFFF"/>
  <path d="M173.104 41.1042C173.104 39.8557 173.329 38.694 173.78 37.6189C174.265 36.5439 174.907 35.6075 175.704 34.8099C176.537 34.0123 177.508 33.3881 178.617 32.9373C179.727 32.4518 180.941 32.209 182.259 32.209C183.542 32.209 184.738 32.4518 185.848 32.9373C186.958 33.3881 187.929 34.0123 188.761 34.8099C189.593 35.6075 190.235 36.5439 190.686 37.6189C191.171 38.694 191.414 39.8557 191.414 41.1042C191.414 42.3526 191.171 43.5317 190.686 44.6414C190.235 45.7164 189.593 46.6528 188.761 47.4504C187.929 48.248 186.958 48.8722 185.848 49.323C184.738 49.7739 183.542 49.9993 182.259 49.9993C180.941 49.9993 179.727 49.7739 178.617 49.323C177.508 48.8722 176.537 48.248 175.704 47.4504C174.907 46.6528 174.265 45.7164 173.78 44.6414C173.329 43.5317 173.104 42.3526 173.104 41.1042Z" fill="#89DDFF"/>
  <path d="M170.324 46.3755V49.2719H144.59V2.16406H148.019V46.3755H170.324Z" fill="#EAFFFF"/>
  <path d="M142.187 46.8088V49.2724H117.884V46.8088H128.704V8.58994C128.704 7.83534 128.738 7.03635 128.804 6.19295L118.417 15.4147C118.106 15.681 117.796 15.7809 117.485 15.7143C117.174 15.6477 116.93 15.5146 116.753 15.3148L115.787 13.9831L129.403 1.96484H131.9V46.8088H142.187Z" fill="#EAFFFF"/>
  <path d="M116.135 2.16406L96.6929 49.2719H93.6629L74.2209 2.16406H76.9169C77.2279 2.16406 77.483 2.25286 77.683 2.43036C77.883 2.58576 78.0379 2.79666 78.1489 3.06296L94.196 42.1475C94.373 42.6358 94.5509 43.1573 94.7279 43.7122C94.9059 44.2671 95.0719 44.833 95.2279 45.4101C95.3609 44.833 95.5049 44.2671 95.6609 43.7122C95.8159 43.1573 95.9929 42.6358 96.1929 42.1475L112.207 3.06296C112.295 2.81876 112.451 2.60796 112.673 2.43036C112.895 2.25286 113.161 2.16406 113.472 2.16406H116.135Z" fill="#EAFFFF"/>
  <path d="M71.321 46.4421L71.255 49.2719H43.0229V2.16406H71.255V4.99386H46.452V24.0368H67.0931V26.8H46.452V46.4421H71.321Z" fill="#EAFFFF"/>
  <path d="M40.111 25.7014C40.111 29.3413 39.568 32.6149 38.48 35.5224C37.393 38.4299 35.861 40.9046 33.886 42.9465C31.911 44.9884 29.536 46.5531 26.761 47.6406C24.009 48.7281 20.969 49.2719 17.64 49.2719H0.427979V2.16406H17.64C20.969 2.16406 24.009 2.70786 26.761 3.79536C29.536 4.88286 31.911 6.44756 33.886 8.48946C35.861 10.5314 37.393 13.0061 38.48 15.9136C39.568 18.8211 40.111 22.0837 40.111 25.7014ZM36.583 25.7014C36.583 22.4166 36.128 19.4869 35.218 16.9123C34.308 14.3378 33.02 12.1627 31.356 10.3872C29.691 8.61156 27.694 7.25766 25.363 6.32556C23.033 5.39336 20.458 4.92726 17.64 4.92726H3.85698V46.5087H17.64C20.458 46.5087 23.033 46.0426 25.363 45.1104C27.694 44.1783 29.691 42.8244 31.356 41.0489C33.02 39.2733 34.308 37.0982 35.218 34.5237C36.128 31.9491 36.583 29.0083 36.583 25.7014Z" fill="#EAFFFF"/>
</svg>
