<svg width="1920" height="540" viewBox="0 0 1920 540" fill="none" xmlns="http://www.w3.org/2000/svg">
  <g clip-path="url(#wrap)">
    <rect width="1920" height="540" fill="url(#background)"/>
    <g opacity="0.2">
      <path d="M77 -7.66663C4.41952 -7.66663 -30.043 54.549 -38.4038 72.3078C-39.8008 75.2712 -39.8008 78.7083 -38.4038 81.6716C-30.043 99.441 4.41952 161.667 77 161.667C149.327 161.667 183.812 99.8911 192.321 81.8783C193.782 78.7774 193.782 75.2227 192.321 72.1218C183.812 54.1089 149.327 -7.66663 77 -7.66663ZM77 24.0834C106.221 24.0834 129.917 47.7795 129.917 77C129.917 106.221 106.221 129.917 77 129.917C47.7794 129.917 24.0834 106.221 24.0834 77C24.0834 47.7795 47.7794 24.0834 77 24.0834ZM77 45.25C68.5794 45.25 60.5037 48.5951 54.5494 54.5494C48.5951 60.5037 45.25 68.5794 45.25 77C45.25 85.4207 48.5951 93.4964 54.5494 99.4507C60.5037 105.405 68.5794 108.75 77 108.75C85.4206 108.75 93.4964 105.405 99.4507 99.4507C105.405 93.4964 108.75 85.4207 108.75 77C108.75 68.5794 105.405 60.5037 99.4507 54.5494C93.4964 48.5951 85.4206 45.25 77 45.25Z" fill="white"/>
    </g>
    <g opacity="0.2">
      <path d="M1402.5 278.333C1329.92 278.333 1295.46 340.549 1287.1 358.308C1285.7 361.271 1285.7 364.708 1287.1 367.672C1295.46 385.441 1329.92 447.667 1402.5 447.667C1474.83 447.667 1509.31 385.891 1517.82 367.878C1519.28 364.777 1519.28 361.223 1517.82 358.122C1509.31 340.109 1474.83 278.333 1402.5 278.333ZM1402.5 310.083C1431.72 310.083 1455.42 333.779 1455.42 363C1455.42 392.221 1431.72 415.917 1402.5 415.917C1373.28 415.917 1349.58 392.221 1349.58 363C1349.58 333.779 1373.28 310.083 1402.5 310.083ZM1402.5 331.25C1394.08 331.25 1386 334.595 1380.05 340.549C1374.09 346.504 1370.75 354.579 1370.75 363C1370.75 371.421 1374.09 379.496 1380.05 385.451C1386 391.405 1394.08 394.75 1402.5 394.75C1410.92 394.75 1419 391.405 1424.95 385.451C1430.9 379.496 1434.25 371.421 1434.25 363C1434.25 354.579 1430.9 346.504 1424.95 340.549C1419 334.595 1410.92 331.25 1402.5 331.25Z" fill="white"/>
    </g>
    <g opacity="0.2">
      <path d="M1843.66 357.167C1816.79 359.068 1794.67 374.943 1785.12 401.815C1783.96 405.081 1781.73 410.952 1781.15 415.706L1802.65 419.013C1803.23 414.383 1804.72 410.083 1806.62 405.784C1816 387.18 1835.48 372.546 1866.48 380.648C1882.56 384.865 1894.43 393.34 1900.88 405.453C1906.83 416.615 1908.28 430.754 1904.52 445.141C1896.87 474.452 1855.9 505.333 1855.9 505.333L1849.28 529.477C1847.92 534.851 1840.35 547.129 1823.82 544.359C1805.05 541.217 1807.28 521.911 1808.27 515.586L1786.78 512.94C1786.03 517.818 1783.63 556.596 1818.2 564.865C1850.9 572.678 1867.43 545.558 1870.12 534.768L1874.42 517.57C1884.55 509.467 1916.5 481.769 1924.69 450.432C1929.82 430.878 1928.16 411.406 1919.73 395.531C1910.43 378.085 1893.77 365.89 1871.77 360.143C1862.06 357.621 1852.63 356.547 1843.66 357.167ZM1851.93 389.578C1837.54 390.405 1817.82 399.913 1806.95 441.503L1804.3 451.755L1814.56 454.401C1817.29 455.104 1824.85 459.321 1821.83 467.63C1819.1 475.072 1803.64 473.583 1797.03 472.26L1794.71 493.096C1797.4 493.882 1834.48 499.38 1842.34 472.922C1844.74 464.778 1843.33 456.096 1839.03 448.779C1836.63 444.686 1833.53 441.131 1829.77 438.526C1835.1 422.444 1844.16 407.396 1858.54 411.406C1876.03 416.285 1874.34 437.658 1874.09 440.51L1892.94 441.833C1895.26 436.831 1898.15 399.707 1863.84 390.901C1860.78 390.116 1856.73 389.289 1851.93 389.578Z" fill="white"/>
    </g>
    <g opacity="0.2">
      <path d="M519.661 71.1667C492.79 73.0684 470.672 88.9434 461.122 115.815C459.965 119.081 457.732 124.952 457.154 129.706L478.651 133.013C479.23 128.383 480.718 124.083 482.62 119.784C492.004 101.18 511.476 86.5456 542.482 94.6485C558.564 98.8653 570.428 107.34 576.878 119.453C582.831 130.615 584.278 144.754 580.516 159.141C572.868 188.452 531.898 219.333 531.898 219.333L525.284 243.477C523.92 248.851 516.354 261.129 499.818 258.359C481.049 255.217 483.281 235.911 484.273 229.586L462.776 226.94C462.032 231.818 459.634 270.596 494.195 278.865C526.896 286.678 543.433 259.558 546.12 248.768L550.419 231.57C560.548 223.467 592.505 195.769 600.69 164.432C605.816 144.878 604.163 125.406 595.729 109.531C586.427 92.0853 569.767 79.8897 547.773 74.1433C538.058 71.6215 528.633 70.5466 519.661 71.1667ZM527.93 103.578C513.543 104.405 493.823 113.913 482.951 155.503L480.305 165.755L490.557 168.401C493.286 169.104 500.851 173.321 497.833 181.63C495.105 189.072 479.643 187.583 473.029 186.26L470.714 207.096C473.401 207.882 510.484 213.38 518.339 186.922C520.736 178.778 519.331 170.096 515.031 162.779C512.634 158.686 509.533 155.131 505.771 152.526C511.104 136.444 520.158 121.396 534.544 125.406C552.032 130.285 550.337 151.658 550.089 154.51L568.94 155.833C571.255 150.831 574.149 113.707 539.836 104.901C536.777 104.116 532.725 103.289 527.93 103.578Z" fill="white"/>
    </g>
    <g opacity="0.2">
      <path d="M960 164.167C901.548 164.167 854.167 211.548 854.167 270C854.167 328.452 901.548 375.833 960 375.833C1018.45 375.833 1065.83 328.452 1065.83 270C1065.83 211.548 1018.45 164.167 960 164.167ZM960 185.333C971.695 185.333 981.167 194.805 981.167 206.5C981.167 218.195 971.695 227.667 960 227.667C948.305 227.667 938.833 218.195 938.833 206.5C938.833 194.805 948.305 185.333 960 185.333ZM1023.5 270H981.167V289.124L1001.58 340.157L981.929 348.02L963.418 301.75H956.582L938.071 348.02L918.418 340.157L938.833 289.124V270H896.5V248.833H1023.5V270Z" fill="white"/>
    </g>
    <g opacity="0.2" clip-path="url(#clip1)">
      <path fill-rule="evenodd" clip-rule="evenodd" d="M1312.68 55.4948H1314.69C1322.54 63.9725 1327 74.8238 1327 86.1049C1327 96.1199 1323.49 105.841 1317.24 113.776H1315.2H1311.77H1309.76C1316.8 106.045 1320.77 96.3007 1320.77 86.1049C1320.77 74.6208 1315.69 63.5655 1306.89 55.4948H1308.9H1312.68ZM1205.97 114H1219.85V55.5378H1202.51L1157 114H1177.38L1182.72 106.269H1205.97V114ZM1191.44 94.0858H1206.06V73.1515L1191.44 94.0858ZM1244.14 69.2259C1253.48 69.2259 1261.01 76.2114 1261.01 84.78C1261.01 93.3701 1253.48 100.356 1244.14 100.356H1239.72V69.2259H1244.14ZM1245.86 113.965C1263.34 113.965 1277.56 100.876 1277.56 84.78C1277.56 68.6155 1263.49 55.5486 1246 55.5486H1245.81H1226.41V113.988H1245.86V113.965ZM1298.74 55.4948H1296.73H1292.95H1290.94C1299.74 63.5655 1304.82 74.6208 1304.82 86.1049C1304.82 96.3007 1300.85 106.045 1293.81 113.776H1295.82H1299.25H1301.24C1307.54 105.841 1311.05 96.1199 1311.05 86.1049C1311.05 74.8238 1306.59 63.9725 1298.74 55.4948ZM1280.78 55.4948H1282.79C1290.64 63.9725 1295.05 74.8238 1295.05 86.1049C1295.05 96.1199 1291.59 105.841 1285.29 113.776H1283.28H1279.87H1277.86C1284.85 106.045 1288.82 96.3007 1288.82 86.1049C1288.82 74.6208 1283.79 63.5655 1274.99 55.4948H1276.95H1280.78Z" fill="white"/>
    </g>
    <g opacity="0.2" clip-path="url(#clip2)">
      <path fill-rule="evenodd" clip-rule="evenodd" d="M212.602 463.945H215.606C227.331 476.611 234 492.825 234 509.68C234 524.643 228.76 539.168 219.416 551.024H216.376H211.246H208.241C218.757 539.472 224.693 524.914 224.693 509.68C224.693 492.521 217.108 476.003 203.954 463.945H206.959H212.602ZM53.1708 551.358H73.9093V464.009H48.0046L-20 551.358H10.4482L18.4358 539.807H53.1708V551.358ZM31.4612 521.604H53.299V490.326L31.4612 521.604ZM110.195 484.461C124.155 484.461 135.404 494.898 135.404 507.7C135.404 520.535 124.155 530.972 110.195 530.972H103.599V484.461H110.195ZM112.76 551.307C138.885 551.307 160.136 531.75 160.136 507.7C160.136 483.549 139.104 464.025 112.979 464.025H112.686H83.7039V551.341H112.76V551.307ZM191.775 463.945H188.77H183.127H180.123C193.277 476.003 200.862 492.521 200.862 509.68C200.862 524.914 194.925 539.472 184.41 551.024H187.414H192.544H195.512C204.928 539.168 210.167 524.643 210.167 509.68C210.167 492.825 203.499 476.611 191.775 463.945ZM164.938 463.945H167.942C179.668 476.611 186.263 492.825 186.263 509.68C186.263 524.643 181.096 539.168 171.68 551.024H168.676H163.582H160.577C171.02 539.472 176.956 524.914 176.956 509.68C176.956 492.521 169.445 476.003 156.291 463.945H159.222H164.938Z" fill="white"/>
    </g>
    <g opacity="0.2">
      <path fill-rule="evenodd" clip-rule="evenodd" d="M536 376.891C536 373.603 538.665 370.938 541.953 370.938H657.047C660.335 370.938 663 373.603 663 376.891V460.234C663 463.522 660.335 466.188 657.047 466.188H637.203V482.062C637.203 484.168 636.092 486.115 634.28 487.187C632.468 488.259 630.225 488.293 628.381 487.279L590.033 466.188H541.953C538.665 466.188 536 463.522 536 460.234V376.891ZM547.906 382.844V454.281H591.562H593.092L594.431 455.018L625.297 471.994V460.234V454.281H631.25H651.094V382.844H547.906ZM583.625 414.594H559.812V402.688H583.625V414.594ZM639.188 422.531H615.375V434.438H639.188V422.531ZM559.812 434.438V422.531H607.438V434.438H559.812ZM639.188 402.688H591.562V414.594H639.188V402.688Z" fill="white"/>
    </g>
    <g opacity="0.2">
      <path fill-rule="evenodd" clip-rule="evenodd" d="M1743 -22.2188C1743 -28.7943 1748.33 -34.125 1754.91 -34.125H1985.09C1991.67 -34.125 1997 -28.7943 1997 -22.2188V144.469C1997 151.044 1991.67 156.375 1985.09 156.375H1945.41V188.125C1945.41 192.335 1943.18 196.231 1939.56 198.374C1935.94 200.517 1931.45 200.587 1927.76 198.558L1851.07 156.375H1754.91C1748.33 156.375 1743 151.044 1743 144.469V-22.2188ZM1766.81 -10.3125V132.562H1854.12H1857.18L1859.86 134.036L1921.59 167.988V144.469V132.562H1933.5H1973.19V-10.3125H1766.81ZM1838.25 53.1875H1790.62V29.375H1838.25V53.1875ZM1949.38 69.0625H1901.75V92.875H1949.38V69.0625ZM1790.62 92.875V69.0625H1885.88V92.875H1790.62ZM1949.38 29.375H1854.12V53.1875H1949.38V29.375Z" fill="white"/>
    </g>
  </g>
  <defs>
    <linearGradient id="background" x1="0" y1="0" x2="1920" y2="540" gradientUnits="userSpaceOnUse">
      <stop stop-color="#008CDB"/>
      <stop offset="1" stop-color="#0112DB"/>
    </linearGradient>
    <clipPath id="wrap">
      <rect width="1920" height="540" fill="white"/>
    </clipPath>
    <clipPath id="clip1">
      <rect width="170" height="63.4634" fill="white" transform="translate(1157 50.5366)"/>
    </clipPath>
    <clipPath id="clip2">
      <rect width="254" height="94.8218" fill="white" transform="translate(-20 456.537)"/>
    </clipPath>
  </defs>
</svg>
