<svg width="225" height="225" viewBox="0 0 225 225" fill="none" xmlns="http://www.w3.org/2000/svg">
  <g clip-path="url(#clip0_177_4)">
    <path d="M225 0H0V225H225V0Z" fill="#07080A"/>
    <circle cx="29.0093" cy="-55.728" r="231.543" fill="#161827"/>
    <path d="M112.563 42.8961C74.6709 42.8961 44.2323 74.0489 44.2323 112.699C44.2323 151.349 74.6722 182.502 112.563 182.502C150.451 182.502 180.866 151.349 180.866 112.699C180.866 74.0489 150.451 42.8961 112.563 42.8961Z" fill="#A60021"/>
    <path d="M72.1276 94.6124C62.3784 94.6124 54.5562 102.627 54.5562 112.564C54.5562 122.501 62.3784 130.515 72.1276 130.515C78.1141 130.515 80.4542 126.203 80.4542 126.203V130.126H89.699V112.564C89.699 102.627 81.8767 94.6122 72.1276 94.6122V94.6124ZM72.1276 103.998C76.7756 103.998 80.5016 107.823 80.5016 112.564C80.5016 117.306 76.7756 121.13 72.1276 121.13C67.4795 121.13 63.7536 117.306 63.7536 112.564C63.7536 107.823 67.4795 103.998 72.1276 103.998Z" fill="white"/>
    <path d="M95.2328 83.9605V113.2C95.2328 122.784 102.784 130.521 112.187 130.521C121.591 130.521 129.122 122.784 129.122 113.2C129.122 103.615 121.591 95.8786 112.187 95.8786C106.413 95.8786 104.148 100.05 104.148 100.05V83.96L95.2328 83.9605ZM112.187 104.937C116.67 104.937 120.265 108.627 120.265 113.2C120.265 117.774 116.671 121.464 112.187 121.464C107.704 121.464 104.109 117.774 104.109 113.2C104.109 108.627 107.704 104.937 112.187 104.937Z" fill="white"/>
    <path d="M152.532 94.6124C142.783 94.6124 134.961 102.627 134.961 112.564C134.961 122.501 142.783 130.515 152.532 130.515C160.948 130.515 167.93 124.543 169.682 116.519H159.963C158.569 119.255 155.776 121.13 152.532 121.13C147.884 121.13 144.158 117.305 144.158 112.564C144.158 107.822 147.884 103.998 152.532 103.998C155.786 103.998 158.593 105.879 159.983 108.629H169.682C167.936 100.595 160.954 94.6122 152.532 94.6122L152.532 94.6124Z" fill="white"/>
  </g>
  <defs>
    <clipPath id="clip0_177_4">
      <rect width="225" height="225" fill="white"/>
    </clipPath>
  </defs>
</svg>
