<svg width="125" height="50" viewBox="0 0 125 50" fill="none" xmlns="http://www.w3.org/2000/svg">
  <path d="M19.425 11.4392C8.95589 11.4392 0.555908 20.0462 0.555908 30.7165C0.555908 41.3871 8.95589 49.9938 19.425 49.9938C25.8536 49.9938 28.3666 45.3624 28.3666 45.3624V49.5756H38.2942V30.7162C38.2942 20.0456 29.8942 11.4389 19.425 11.4389V11.4392ZM19.425 21.5181C24.4163 21.5181 28.4174 25.6251 28.4174 30.7168C28.4174 35.8085 24.4163 39.9155 19.425 39.9155C14.4337 39.9155 10.4326 35.8085 10.4326 30.7168C10.4326 25.6251 14.4337 21.5181 19.425 21.5181Z" fill="black"/>
  <path d="M44.2366 0.000591993V31.3994C44.2366 41.6918 52.345 50 62.4431 50C72.5412 50 80.6287 41.6915 80.6287 31.3994C80.6287 21.107 72.5412 12.7988 62.4431 12.7988C56.2423 12.7988 53.81 17.2782 53.81 17.2782V0L44.2366 0.000591993ZM62.4431 22.5262C67.2575 22.5262 71.118 26.4888 71.118 31.4C71.118 36.3112 67.2578 40.2738 62.4431 40.2738C57.6287 40.2738 53.7682 36.3112 53.7682 31.4C53.7682 26.4888 57.6287 22.5262 62.4431 22.5262Z" fill="black"/>
  <path d="M105.768 11.4392C95.2989 11.4392 86.8989 20.0462 86.8989 30.7165C86.8989 41.3871 95.2989 49.9938 105.768 49.9938C114.805 49.9938 122.302 43.5806 124.184 34.9635H113.747C112.25 37.9021 109.252 39.9148 105.768 39.9148C100.777 39.9148 96.7756 35.8079 96.7756 30.7162C96.7756 25.6245 100.777 21.5175 105.768 21.5175C109.262 21.5175 112.276 23.5379 113.768 26.491H124.184C122.31 17.8631 114.812 11.4389 105.768 11.4389L105.768 11.4392Z" fill="black"/>
</svg>
