<svg width="125" height="51" viewBox="0 0 125 51" fill="none" xmlns="http://www.w3.org/2000/svg">
  <path d="M19.425 11.4932C8.95589 11.4932 0.555908 20.1002 0.555908 30.7705C0.555908 41.4411 8.95589 50.0478 19.425 50.0478C25.8536 50.0478 28.3666 45.4164 28.3666 45.4164V49.6296H38.2942V30.7702C38.2942 20.0996 29.8942 11.4929 19.425 11.4929V11.4932ZM19.425 21.5722C24.4163 21.5722 28.4174 25.6791 28.4174 30.7708C28.4174 35.8625 24.4163 39.9695 19.425 39.9695C14.4337 39.9695 10.4326 35.8625 10.4326 30.7708C10.4326 25.6791 14.4337 21.5722 19.425 21.5722Z" fill="white"/>
  <path d="M44.2366 0.0546081V31.4534C44.2366 41.7459 52.345 50.054 62.4431 50.054C72.5412 50.054 80.6287 41.7456 80.6287 31.4534C80.6287 21.161 72.5412 12.8528 62.4431 12.8528C56.2423 12.8528 53.81 17.3323 53.81 17.3323V0.0540161L44.2366 0.0546081ZM62.4431 22.5802C67.2575 22.5802 71.118 26.5428 71.118 31.454C71.118 36.3652 67.2578 40.3278 62.4431 40.3278C57.6287 40.3278 53.7682 36.3652 53.7682 31.454C53.7682 26.5428 57.6287 22.5802 62.4431 22.5802Z" fill="white"/>
  <path d="M105.768 11.4932C95.2989 11.4932 86.8989 20.1002 86.8989 30.7705C86.8989 41.4411 95.2989 50.0478 105.768 50.0478C114.805 50.0478 122.302 43.6346 124.184 35.0175H113.747C112.25 37.9561 109.252 39.9689 105.768 39.9689C100.777 39.9689 96.7756 35.8619 96.7756 30.7702C96.7756 25.6785 100.777 21.5715 105.768 21.5715C109.262 21.5715 112.276 23.5919 113.768 26.545H124.184C122.31 17.9171 114.812 11.4929 105.768 11.4929L105.768 11.4932Z" fill="white"/>
</svg>
