<svg width="225" height="225" viewBox="0 0 225 225" fill="none" xmlns="http://www.w3.org/2000/svg">
  <g clip-path="url(#bb)">
    <path d="M225 0H0V225H225V0Z" fill="black"/>
    <mask id="c" style="mask-type:luminance" maskUnits="userSpaceOnUse" x="145" y="88" width="52" height="49">
      <path d="M145.805 88.3943H196.875V136.437H145.805V88.3943Z" fill="white"/>
    </mask>
    <g mask="url(#c)">
      <path fill-rule="evenodd" clip-rule="evenodd" d="M186.684 120.421L185.865 120.917C182.22 123.235 178.013 124.518 173.695 124.63C165.339 124.63 159.837 119.633 159.806 112.428C159.781 105.223 165.631 100.14 173.495 100.125C177.735 100.186 181.882 101.368 185.518 103.546L186.32 103.986V97.5477L185.968 97.4199C182.045 95.6884 177.823 94.7383 173.536 94.6227C168.268 94.4942 163.14 96.3317 159.152 99.7772C157.332 101.436 155.883 103.461 154.9 105.719C153.916 107.976 153.42 110.416 153.445 112.878C153.547 117.133 155.25 121.193 158.206 124.251C160.169 126.21 162.519 127.739 165.106 128.741C167.692 129.743 170.459 130.196 173.23 130.07C177.779 130.15 182.278 129.116 186.336 127.058L186.638 126.915L186.684 120.421ZM145.805 136.437H196.875V88.3943H145.805V136.437Z" fill="white"/>
    </g>
    <path fill-rule="evenodd" clip-rule="evenodd" d="M125.898 120.247C125.898 115.88 122.993 112.561 118.345 111.293C119.511 110.736 120.528 109.918 121.331 108.905C122.334 107.555 122.85 105.898 122.789 104.216C122.796 103.035 122.551 101.866 122.072 100.787C121.592 99.7076 120.888 98.7429 120.007 97.9568C117.553 95.9519 114.437 94.9394 111.273 95.1187H100.396V129.738H113.165C117.716 129.738 120.922 128.501 122.978 126.67C123.897 125.872 124.634 124.885 125.139 123.777C125.644 122.669 125.899 121.465 125.898 120.247ZM86.9625 136.437H138.032V88.3943H86.9625V136.437Z" fill="white"/>
    <path fill-rule="evenodd" clip-rule="evenodd" d="M119.541 119.562C119.563 120.162 119.45 120.76 119.211 121.311C118.972 121.862 118.613 122.353 118.161 122.748C116.515 123.953 114.486 124.518 112.454 124.338H106.624V114.857H112.26C114.239 114.724 116.212 115.2 117.91 116.228C118.442 116.6 118.87 117.102 119.155 117.685C119.441 118.268 119.573 118.914 119.541 119.562ZM114.765 108.251C115.324 107.845 115.769 107.303 116.057 106.676C116.346 106.049 116.468 105.359 116.412 104.671C116.442 104.13 116.353 103.588 116.151 103.085C115.95 102.581 115.641 102.128 115.246 101.756C113.94 100.81 112.337 100.365 110.731 100.503H106.553V109.457H109.468C111.309 109.595 113.16 109.176 114.765 108.251ZM67.0551 120.247C67.0551 115.88 64.1454 112.561 59.5125 111.293C60.6528 110.726 61.6449 109.912 62.4273 108.905C63.4244 107.55 63.9358 105.898 63.8795 104.216C63.8808 103.036 63.6343 101.87 63.156 100.791C62.6777 99.7132 61.9782 98.7475 61.1028 97.9568C58.6441 95.9569 55.5283 94.945 52.3636 95.1187H41.4767V129.738H54.2557C58.817 129.738 62.0028 128.501 64.0687 126.67C64.9983 125.876 65.7462 124.892 66.2615 123.784C66.7768 122.676 67.0475 121.469 67.0551 120.247ZM28.125 136.437H79.1949V88.3943H28.125V136.437Z" fill="white"/>
    <path fill-rule="evenodd" clip-rule="evenodd" d="M55.933 108.251C56.5008 107.851 56.956 107.311 57.2543 106.684C57.5526 106.057 57.684 105.364 57.6358 104.671C57.6738 104.129 57.5887 103.585 57.3868 103.08C57.1849 102.575 56.8714 102.123 56.4699 101.756C55.1661 100.81 53.5648 100.365 51.9597 100.503H47.7972V109.457H50.7068C52.5273 109.575 54.3477 109.156 55.933 108.251ZM59.0062 116.315C57.3073 115.291 55.3351 114.812 53.3557 114.944H47.7256V124.394H53.5449C55.5852 124.573 57.6153 124.011 59.267 122.809C59.7136 122.408 60.0682 121.915 60.3065 121.365C60.5448 120.814 60.6612 120.218 60.6477 119.618C60.6729 118.974 60.5358 118.334 60.2489 117.757C59.9621 117.18 59.5348 116.684 59.0062 116.315Z" fill="white"/>
  </g>
  <defs>
    <clipPath id="bb">
      <rect width="225" height="225" fill="white"/>
    </clipPath>
  </defs>
</svg>
