<svg width="170" height="49" viewBox="0 0 170 49" fill="none" xmlns="http://www.w3.org/2000/svg">
  <mask id="c" style="mask-type:luminance" maskUnits="userSpaceOnUse" x="118" y="0" width="52" height="49">
    <path d="M118.305 0.394287H169.375V48.4369H118.305V0.394287Z" fill="white"/>
  </mask>
  <g mask="url(#c)">
    <path fill-rule="evenodd" clip-rule="evenodd" d="M159.184 32.421L158.365 32.917C154.72 35.2348 150.513 36.518 146.195 36.6295C137.839 36.6295 132.337 31.6335 132.306 24.4284C132.281 17.2233 138.131 12.1403 145.995 12.125C150.235 12.1863 154.382 13.3676 158.018 15.546L158.82 15.9858V9.5477L158.468 9.41986C154.545 7.68844 150.323 6.73833 146.036 6.6227C140.768 6.49416 135.64 8.33167 131.652 11.7772C129.832 13.4363 128.383 15.4609 127.4 17.7185C126.416 19.9762 125.92 22.416 125.945 24.8784C126.047 29.1329 127.75 33.1932 130.706 36.2511C132.669 38.2101 135.019 39.7392 137.606 40.741C140.192 41.7429 142.959 42.1956 145.73 42.0704C150.279 42.1501 154.778 41.1161 158.836 39.0585L159.138 38.9153L159.184 32.421ZM118.305 48.4369H169.375V0.394287H118.305V48.4369Z" fill="black"/>
  </g>
  <path fill-rule="evenodd" clip-rule="evenodd" d="M98.3978 32.2471C98.3978 27.8801 95.4932 24.5613 90.8449 23.2932C92.0108 22.7358 93.0284 21.9176 93.8313 20.9051C94.8335 19.5551 95.35 17.8983 95.2887 16.2159C95.2958 15.0349 95.0514 13.866 94.5717 12.7868C94.0921 11.7076 93.3882 10.7429 92.5068 9.95679C90.0528 7.95194 86.9366 6.93936 83.7728 7.11872H72.896V41.738H85.6648C90.2159 41.738 93.4222 40.5005 95.4779 38.6699C96.3973 37.8715 97.1343 36.8848 97.639 35.7767C98.1437 34.6685 98.3991 33.4648 98.3978 32.2471ZM59.4625 48.4369H110.532V0.394287H59.4625V48.4369Z" fill="black"/>
  <path fill-rule="evenodd" clip-rule="evenodd" d="M92.0415 31.5619C92.0626 32.1622 91.9497 32.7596 91.7109 33.3107C91.472 33.8618 91.1133 34.3527 90.6608 34.7477C89.0145 35.9527 86.9862 36.518 84.954 36.338H79.1244V26.8574H84.7596C86.7386 26.7244 88.7125 27.2 90.4102 28.2278C90.9417 28.6004 91.3701 29.1016 91.6554 29.6847C91.9407 30.2677 92.0735 30.9136 92.0415 31.5619ZM87.2653 20.2505C87.824 19.8454 88.2689 19.3033 88.5573 18.6764C88.8457 18.0494 88.9678 17.3588 88.9119 16.671C88.9416 16.1296 88.8526 15.5882 88.6512 15.0847C88.4499 14.5812 88.1409 14.1278 87.746 13.7562C86.4402 12.8099 84.8374 12.3652 83.2307 12.5034H79.0528V21.4574H81.9676C83.8085 21.5954 85.6597 21.1761 87.2653 20.2505ZM39.5551 32.2471C39.5551 27.8801 36.6454 24.5613 32.0125 23.2932C33.1528 22.7255 34.1449 21.9125 34.9273 20.9051C35.9244 19.55 36.4358 17.8983 36.3795 16.2159C36.3808 15.0363 36.1343 13.8696 35.656 12.7914C35.1777 11.7132 34.4782 10.7475 33.6028 9.95679C31.1441 7.95691 28.0283 6.94505 24.8636 7.11872H13.9767V41.738H26.7557C31.317 41.738 34.5028 40.5005 36.5687 38.6699C37.4983 37.8764 38.2462 36.892 38.7615 35.7838C39.2768 34.6755 39.5475 33.4693 39.5551 32.2471ZM0.625 48.4369H51.6949V0.394287H0.625V48.4369Z" fill="black"/>
  <path fill-rule="evenodd" clip-rule="evenodd" d="M28.433 20.2506C29.0009 19.8509 29.456 19.3114 29.7543 18.6843C30.0526 18.0572 30.184 17.3638 30.1358 16.671C30.1738 16.1287 30.0887 15.5848 29.8868 15.08C29.6849 14.5753 29.3714 14.1227 28.9699 13.7562C27.6661 12.8098 26.0648 12.3651 24.4597 12.5034H20.2972V21.4574H23.2068C25.0273 21.575 26.8477 21.1557 28.433 20.2506ZM31.5063 28.3148C29.8073 27.2906 27.8351 26.8123 25.8557 26.9443H20.2256V36.3943H26.0449C28.0852 36.5733 30.1154 36.0108 31.7671 34.8091C32.2136 34.4082 32.5682 33.9154 32.8065 33.3647C33.0448 32.8139 33.1612 32.2181 33.1477 31.6182C33.1729 30.9741 33.0358 30.334 32.749 29.7568C32.4621 29.1796 32.0348 28.6837 31.5063 28.3148Z" fill="black"/>
</svg>
