<svg width="170" height="49" viewBox="0 0 170 49" fill="none" xmlns="http://www.w3.org/2000/svg">
  <mask id="c" style="mask-type:luminance" maskUnits="userSpaceOnUse" x="118" y="0" width="52" height="49">
    <path d="M118.305 0.496216H169.375V48.5388H118.305V0.496216Z" fill="white"/>
  </mask>
  <g mask="url(#c)">
    <path fill-rule="evenodd" clip-rule="evenodd" d="M159.184 32.5229L158.365 33.0189C154.72 35.3367 150.513 36.6199 146.195 36.7314C137.839 36.7314 132.337 31.7354 132.306 24.5303C132.281 17.3252 138.131 12.2422 145.995 12.2269C150.235 12.2883 154.382 13.4695 158.018 15.6479L158.82 16.0877V9.64962L158.468 9.52178C154.545 7.79037 150.323 6.84026 146.036 6.72463C140.768 6.59609 135.64 8.4336 131.652 11.8792C129.832 13.5382 128.383 15.5628 127.4 17.8205C126.416 20.0781 125.92 22.5179 125.945 24.9803C126.047 29.2349 127.75 33.2951 130.706 36.353C132.669 38.3121 135.019 39.8411 137.606 40.843C140.192 41.8448 142.959 42.2975 145.73 42.1724C150.279 42.252 154.778 41.218 158.836 39.1604L159.138 39.0172L159.184 32.5229ZM118.305 48.5388H169.375V0.496216H118.305V48.5388Z" fill="white"/>
  </g>
  <path fill-rule="evenodd" clip-rule="evenodd" d="M98.3978 32.3491C98.3978 27.982 95.4932 24.6633 90.8449 23.3951C92.0108 22.8377 93.0284 22.0195 93.8313 21.007C94.8335 19.657 95.35 18.0002 95.2887 16.3178C95.2958 15.1368 95.0514 13.9679 94.5717 12.8887C94.0921 11.8095 93.3882 10.8448 92.5068 10.0587C90.0528 8.05387 86.9366 7.04129 83.7728 7.22065H72.896V41.84H85.6648C90.2159 41.84 93.4222 40.6025 95.4779 38.7718C96.3973 37.9735 97.1343 36.9868 97.639 35.8786C98.1437 34.7704 98.3991 33.5667 98.3978 32.3491ZM59.4625 48.5388H110.532V0.496216H59.4625V48.5388Z" fill="white"/>
  <path fill-rule="evenodd" clip-rule="evenodd" d="M92.0415 31.6638C92.0626 32.2641 91.9497 32.8615 91.7109 33.4126C91.472 33.9637 91.1133 34.4546 90.6608 34.8496C89.0145 36.0546 86.9862 36.6199 84.954 36.44H79.1244V26.9593H84.7596C86.7386 26.8263 88.7125 27.3019 90.4102 28.3297C90.9417 28.7023 91.3701 29.2036 91.6554 29.7866C91.9407 30.3697 92.0735 31.0155 92.0415 31.6638ZM87.2653 20.3525C87.824 19.9474 88.2689 19.4052 88.5573 18.7783C88.8457 18.1514 88.9678 17.4607 88.9119 16.7729C88.9416 16.2315 88.8526 15.6901 88.6512 15.1866C88.4499 14.6832 88.1409 14.2298 87.746 13.8582C86.4402 12.9118 84.8374 12.4671 83.2307 12.6053H79.0528V21.5593H81.9676C83.8085 21.6974 85.6597 21.278 87.2653 20.3525ZM39.5551 32.3491C39.5551 27.982 36.6454 24.6633 32.0125 23.3951C33.1528 22.8275 34.1449 22.0144 34.9273 21.007C35.9244 19.6519 36.4358 18.0002 36.3795 16.3178C36.3808 15.1382 36.1343 13.9716 35.656 12.8933C35.1777 11.8151 34.4782 10.8494 33.6028 10.0587C31.1441 8.05884 28.0283 7.04698 24.8636 7.22065H13.9767V41.84H26.7557C31.317 41.84 34.5028 40.6025 36.5687 38.7718C37.4983 37.9783 38.2462 36.994 38.7615 35.8857C39.2768 34.7775 39.5475 33.5712 39.5551 32.3491ZM0.625 48.5388H51.6949V0.496216H0.625V48.5388Z" fill="white"/>
  <path fill-rule="evenodd" clip-rule="evenodd" d="M28.433 20.3525C29.0009 19.9528 29.456 19.4133 29.7543 18.7862C30.0526 18.1592 30.184 17.4657 30.1358 16.7729C30.1738 16.2306 30.0887 15.6867 29.8868 15.182C29.6849 14.6772 29.3714 14.2247 28.9699 13.8582C27.6661 12.9118 26.0648 12.467 24.4597 12.6053H20.2972V21.5593H23.2068C25.0273 21.6769 26.8477 21.2576 28.433 20.3525ZM31.5063 28.4167C29.8073 27.3925 27.8351 26.9142 25.8557 27.0462H20.2256V36.4962H26.0449C28.0852 36.6752 30.1154 36.1127 31.7671 34.911C32.2136 34.5101 32.5682 34.0174 32.8065 33.4666C33.0448 32.9158 33.1612 32.3201 33.1477 31.7201C33.1729 31.076 33.0358 30.4359 32.749 29.8587C32.4621 29.2815 32.0348 28.7856 31.5063 28.4167Z" fill="white"/>
</svg>
