<svg width="225" height="225" viewBox="0 0 225 225" fill="none" xmlns="http://www.w3.org/2000/svg">
  <g clip-path="url(#clip0_10_903)">
    <path d="M225 0H0V225H225V0Z" fill="url(#paint0_linear_10_903)" />
    <g clip-path="url(#clip1_10_903)">
      <path d="M105.635 92.1103C105.702 91.7996 105.863 91.517 106.097 91.3013C106.33 91.0856 106.625 90.9471 106.94 90.9049C107.255 90.8627 107.575 90.9187 107.857 91.0653C108.14 91.2119 108.37 91.442 108.516 91.7241L108.519 91.7215L105.331 85.5628C104.533 84.0206 102.939 83.0499 101.201 83.0499H96.9761C95.9116 83.05 94.8793 83.4154 94.0517 84.0851C93.2241 84.7547 92.6514 85.688 92.4292 86.7292L84.2931 124.822C84.0468 125.978 83.4116 127.014 82.4937 127.757C81.5758 128.501 80.4305 128.907 79.2492 128.908L52.0138 128.955C51.6062 128.955 51.2026 128.875 50.8261 128.719C50.4495 128.563 50.1073 128.335 49.8192 128.047C49.531 127.758 49.3025 127.416 49.1467 127.04C48.9909 126.663 48.9109 126.26 48.9112 125.852V119.163C48.9109 119.082 48.9266 119.001 48.9575 118.926C48.9884 118.85 49.0339 118.782 49.0913 118.724C49.1487 118.667 49.2169 118.621 49.2921 118.59C49.3672 118.558 49.4478 118.542 49.5292 118.542H69.7047C71.9009 118.542 73.7959 117.008 74.2542 114.861L75.7115 108.02C75.7518 107.831 75.7495 107.636 75.7047 107.449C75.6598 107.261 75.5737 107.086 75.4525 106.936C75.3313 106.786 75.1781 106.666 75.0042 106.583C74.8303 106.5 74.64 106.457 74.4473 106.457H49.5292C49.3653 106.457 49.2081 106.392 49.0922 106.276C48.9763 106.16 48.9112 106.003 48.9112 105.839V97.0126C48.9109 96.9312 48.9266 96.8506 48.9575 96.7753C48.9884 96.7001 49.0339 96.6316 49.0913 96.574C49.1487 96.5163 49.2169 96.4706 49.2921 96.4394C49.3672 96.4082 49.4478 96.3921 49.5292 96.3921H74.5657C76.7594 96.3921 78.6544 94.8576 79.1127 92.7102L80.8378 84.6102C80.8781 84.4218 80.8758 84.2269 80.831 84.0396C80.7862 83.8523 80.7 83.6774 80.5787 83.5278C80.4575 83.3781 80.3043 83.2575 80.1304 83.1748C79.9564 83.0921 79.7662 83.0494 79.5736 83.0499H40.8137C39.2718 83.0499 37.7931 83.6624 36.7028 84.7527C35.6125 85.843 35 87.3217 35 88.8636V127.999C35 129.832 35.3609 131.646 36.0621 133.338C36.7633 135.031 37.7911 136.569 39.0867 137.864C40.3824 139.16 41.9205 140.187 43.6133 140.888C45.306 141.589 47.1203 141.95 48.9524 141.949H83.6957C86.8891 141.95 89.986 140.854 92.4692 138.846C94.9523 136.839 96.6714 134.039 97.3392 130.917L101.719 110.432L105.635 92.1103Z" fill="white" />
      <mask id="mask0_10_903" style="mask-type:luminance" maskUnits="userSpaceOnUse" x="101" y="90" width="20" height="48">
        <path d="M105.636 92.1122L101.717 110.431L115.559 137.18L120.34 114.569L108.517 91.7234C108.37 91.4413 108.14 91.2113 107.857 91.0649C107.575 90.9184 107.255 90.8626 106.939 90.9052C106.624 90.9477 106.33 91.0864 106.097 91.3025C105.863 91.5185 105.702 91.8013 105.636 92.1122Z" fill="white" />
      </mask>
      <g mask="url(#mask0_10_903)">
        <path d="M105.636 92.1122L101.717 110.431L115.559 137.18L120.34 114.569L108.517 91.7234C108.37 91.4413 108.14 91.2113 107.857 91.0649C107.575 90.9184 107.255 90.8626 106.939 90.9052C106.624 90.9477 106.33 91.0864 106.097 91.3025C105.863 91.5185 105.702 91.8013 105.636 92.1122Z" fill="url(#paint1_linear_10_903)" />
      </g>
      <mask id="mask1_10_903" style="mask-type:luminance" maskUnits="userSpaceOnUse" x="97" y="131" width="9" height="10">
        <mask id="mask2_10_903" style="mask-type:luminance" maskUnits="userSpaceOnUse" x="97" y="131" width="9" height="10">
          <path d="M97.7344 140.427H105.414V131.886H97.7344V140.427Z" fill="white" />
        </mask>
        <g mask="url(#mask2_10_903)">
          <path d="M97.7344 140.427H105.414V131.886H97.7344V140.427Z" fill="black" />
          <mask id="mask3_10_903" style="mask-type:luminance" maskUnits="userSpaceOnUse" x="97" y="131" width="9" height="10">
            <path d="M97.7344 140.427H105.414V131.886H97.7344V140.427Z" fill="white" />
          </mask>
          <g mask="url(#mask3_10_903)">
            <mask id="mask4_10_903" style="mask-type:luminance" maskUnits="userSpaceOnUse" x="97" y="131" width="9" height="10">
              <path d="M105.414 134.115L100.753 131.886L97.7344 138.198L102.395 140.427L105.414 134.115Z" fill="white" />
            </mask>
            <g mask="url(#mask4_10_903)">
              <path d="M105.414 134.115L100.753 131.886L97.7344 138.198L102.395 140.427L105.414 134.115Z" fill="url(#paint2_linear_10_903)" />
            </g>
          </g>
        </g>
      </mask>
      <g mask="url(#mask1_10_903)">
        <mask id="mask5_10_903" style="mask-type:luminance" maskUnits="userSpaceOnUse" x="101" y="90" width="20" height="48">
          <path d="M105.635 92.1122L101.717 110.431L115.558 137.18L120.34 114.569L108.516 91.7234C108.37 91.4413 108.139 91.2113 107.857 91.0649C107.575 90.9184 107.254 90.8626 106.939 90.9052C106.624 90.9477 106.33 91.0864 106.096 91.3025C105.863 91.5185 105.702 91.8013 105.635 92.1122Z" fill="white" />
        </mask>
        <g mask="url(#mask5_10_903)">
          <path d="M138.358 128.563L105.185 144.428L83.6987 99.5042L116.874 83.6388L138.358 128.563Z" fill="url(#paint3_linear_10_903)" />
        </g>
      </g>
      <mask id="mask6_10_903" style="mask-type:luminance" maskUnits="userSpaceOnUse" x="120" y="94" width="18" height="38">
        <path d="M120.34 114.569L128.504 130.347C128.651 130.629 128.881 130.859 129.163 131.005C129.445 131.152 129.766 131.208 130.081 131.165C130.396 131.123 130.691 130.984 130.924 130.768C131.157 130.552 131.319 130.269 131.385 129.958L137.904 100.109L124.57 94.5582L120.34 114.569Z" fill="white" />
      </mask>
      <g mask="url(#mask6_10_903)">
        <path d="M120.34 114.569L128.504 130.347C128.651 130.629 128.881 130.859 129.163 131.005C129.445 131.152 129.766 131.208 130.081 131.165C130.396 131.123 130.691 130.984 130.924 130.768C131.157 130.552 131.319 130.269 131.385 129.958L137.904 100.109L124.57 94.5582L120.34 114.569Z" fill="url(#paint4_linear_10_903)" />
      </g>
      <path d="M176.05 83.0498H138.313C131.719 83.0498 126.026 87.6638 124.665 94.1133L124.435 95.1974L137.762 100.743L137.901 100.107C138.152 98.9551 138.79 97.9236 139.708 97.184C140.627 96.4444 141.771 96.0413 142.95 96.0417H172.995C174.707 96.0417 176.095 97.4272 176.095 99.1418V116.845C176.095 117.188 175.816 117.466 175.474 117.466H161.088C161.019 117.466 160.95 117.45 160.888 117.42C160.825 117.39 160.77 117.347 160.727 117.292C160.683 117.238 160.653 117.175 160.637 117.108C160.621 117.04 160.62 116.97 160.635 116.902L163.143 105.128C163.315 104.325 162.703 103.565 161.881 103.565H152.939C151.874 103.566 150.842 103.931 150.014 104.602C149.187 105.272 148.614 106.205 148.392 107.247L141.333 140.389C141.292 140.577 141.295 140.772 141.34 140.959C141.385 141.146 141.471 141.321 141.592 141.471C141.713 141.62 141.866 141.741 142.04 141.823C142.214 141.906 142.404 141.949 142.596 141.949H151.533C152.599 141.95 153.633 141.584 154.461 140.913C155.289 140.242 155.862 139.307 156.083 138.265L157.934 129.567C157.972 129.394 158.067 129.238 158.206 129.126C158.344 129.014 158.516 128.953 158.694 128.952H175.473C175.816 128.952 176.094 129.23 176.094 129.572V140.657C176.093 140.999 176.229 141.328 176.471 141.57C176.713 141.812 177.041 141.949 177.384 141.949H188.71C189.052 141.948 189.38 141.812 189.622 141.569C189.864 141.327 190 140.999 190 140.657V96.9996C190 89.2934 183.756 83.0498 176.05 83.0498Z" fill="white" />
      <path d="M131.385 129.959C131.318 130.27 131.156 130.553 130.923 130.768C130.689 130.984 130.395 131.122 130.08 131.165C129.765 131.207 129.444 131.151 129.162 131.004C128.88 130.858 128.65 130.628 128.503 130.345L120.339 114.568L120.063 114.035L115.282 136.646L115.56 137.179L116.727 139.437C117.525 140.982 119.119 141.95 120.856 141.95H125.022C127.208 141.95 129.101 140.428 129.567 138.291L131.385 129.959Z" fill="white" />
    </g>
  </g>
  <defs>
    <linearGradient id="paint0_linear_10_903" x1="0" y1="0" x2="225" y2="239.686" gradientUnits="userSpaceOnUse">
      <stop stop-color="#1B1381" />
      <stop offset="1" stop-color="#3B31E0" />
    </linearGradient>
    <linearGradient id="paint1_linear_10_903" x1="100.406" y1="94.0449" x2="112.686" y2="117.161" gradientUnits="userSpaceOnUse">
      <stop stop-color="#580A0D" />
      <stop offset="0.00658633" stop-color="#1B1381" />
      <stop offset="1" stop-color="white" />
    </linearGradient>
    <linearGradient id="paint2_linear_10_903" x1="102.602" y1="136.649" x2="101.046" y2="135.905" gradientUnits="userSpaceOnUse">
      <stop stop-color="white" />
      <stop offset="1" stop-color="#231F20" />
    </linearGradient>
    <linearGradient id="paint3_linear_10_903" x1="118.348" y1="110.532" x2="107.272" y2="115.83" gradientUnits="userSpaceOnUse">
      <stop stop-color="#3B31E0" />
      <stop offset="1" stop-color="white" />
    </linearGradient>
    <linearGradient id="paint4_linear_10_903" x1="125.312" y1="129.521" x2="132.086" y2="99.9317" gradientUnits="userSpaceOnUse">
      <stop stop-color="#1B1381" />
      <stop offset="0.00658633" stop-color="#1B1481" />
      <stop offset="0.9999" stop-color="white" />
    </linearGradient>
    <clipPath id="clip0_10_903">
      <rect width="225" height="225" fill="white" />
    </clipPath>
    <clipPath id="clip1_10_903">
      <rect width="155" height="58.9003" fill="white" transform="translate(35 83.0498)" />
    </clipPath>
  </defs>
</svg>
