<svg width="66" height="25" viewBox="0 0 66 25" fill="none" xmlns="http://www.w3.org/2000/svg">
  <g clip-path="url(#clip0_10_1124)">
    <path d="M29.9807 3.84573C30.0091 3.71382 30.0776 3.59391 30.1767 3.50234C30.2758 3.41078 30.4008 3.35202 30.5345 3.33409C30.6683 3.31617 30.8043 3.33994 30.924 3.40217C31.0438 3.4644 31.1414 3.56205 31.2036 3.6818L31.2047 3.68071L29.8517 1.06666C29.513 0.412059 28.8365 5.99897e-05 28.0988 5.99897e-05H26.3055C25.8537 0.000113185 25.4155 0.155209 25.0642 0.439438C24.713 0.723668 24.4699 1.11982 24.3756 1.56171L20.9222 17.7301C20.8177 18.2205 20.5481 18.6603 20.1585 18.9759C19.7689 19.2915 19.2828 19.464 18.7814 19.4645L7.22142 19.4841C7.04845 19.4843 6.87714 19.4503 6.71731 19.3842C6.55748 19.318 6.41225 19.2211 6.28994 19.0987C6.16763 18.9764 6.07063 18.8312 6.00451 18.6714C5.93838 18.5115 5.90442 18.3402 5.90456 18.1673V15.3281C5.90442 15.2936 5.91109 15.2593 5.92421 15.2274C5.93733 15.1954 5.95662 15.1664 5.98099 15.1419C6.00536 15.1175 6.03432 15.098 6.06622 15.0848C6.09811 15.0715 6.1323 15.0647 6.16684 15.0647H14.7303C15.6624 15.0647 16.4668 14.4134 16.6613 13.502L17.2798 10.5983C17.2969 10.5183 17.2959 10.4355 17.2769 10.356C17.2579 10.2764 17.2213 10.2022 17.1699 10.1386C17.1184 10.075 17.0534 10.0237 16.9796 9.98846C16.9058 9.95323 16.825 9.93496 16.7432 9.93498H6.16684C6.09728 9.93498 6.03057 9.90734 5.98138 9.85816C5.93219 9.80897 5.90456 9.74226 5.90456 9.6727V5.92648C5.90442 5.89194 5.91109 5.85772 5.92421 5.82577C5.93733 5.79382 5.95662 5.76478 5.98099 5.74031C6.00536 5.71584 6.03432 5.69642 6.06622 5.68317C6.09811 5.66992 6.1323 5.6631 6.16684 5.6631H16.7935C17.7246 5.6631 18.5289 5.01178 18.7235 4.10036L19.4557 0.662316C19.4728 0.582387 19.4718 0.499636 19.4528 0.420137C19.4337 0.340638 19.3972 0.266407 19.3457 0.202894C19.2942 0.13938 19.2292 0.0881965 19.1554 0.0530977C19.0816 0.0179989 19.0008 -0.000123864 18.9191 5.99897e-05H2.46761C1.81316 5.99897e-05 1.18551 0.260041 0.722745 0.722807C0.259979 1.18557 0 1.81322 0 2.46767V19.0787C-1.32456e-08 19.8563 0.153185 20.6263 0.450809 21.3448C0.748433 22.0632 1.18467 22.716 1.73459 23.2658C2.28452 23.8156 2.93737 24.2517 3.65586 24.5492C4.37435 24.8467 5.1444 24.9998 5.92205 24.9996H20.6687C22.0241 24.9998 23.3386 24.535 24.3926 23.6827C25.4465 22.8304 26.1761 21.6423 26.4596 20.3169L28.3185 11.6223L29.9807 3.84573Z" fill="#3B31E0" />
    <mask id="mask0_10_1124" style="mask-type:luminance" maskUnits="userSpaceOnUse" x="28" y="3" width="9" height="20">
      <path d="M29.9809 3.84644L28.3176 11.6219L34.1927 22.9753L36.2221 13.3781L31.2038 3.68142C31.1415 3.56166 31.0438 3.46405 30.924 3.40189C30.8042 3.33973 30.6681 3.31606 30.5344 3.33411C30.4006 3.35216 30.2757 3.41105 30.1766 3.50274C30.0776 3.59444 30.0092 3.71446 29.9809 3.84644Z" fill="white" />
    </mask>
    <g mask="url(#mask0_10_1124)">
      <path d="M29.9809 3.84644L28.3176 11.6219L34.1927 22.9753L36.2221 13.3781L31.2038 3.68142C31.1415 3.56166 31.0438 3.46405 30.924 3.40189C30.8042 3.33973 30.6681 3.31606 30.5344 3.33411C30.4006 3.35216 30.2757 3.41105 30.1766 3.50274C30.0776 3.59444 30.0092 3.71446 29.9809 3.84644Z" fill="url(#paint0_linear_10_1124)" />
    </g>
    <mask id="mask1_10_1124" style="mask-type:luminance" maskUnits="userSpaceOnUse" x="26" y="20" width="4" height="5">
      <mask id="mask2_10_1124" style="mask-type:luminance" maskUnits="userSpaceOnUse" x="26" y="20" width="4" height="5">
        <path d="M26.6274 24.3533H29.8869V20.7283H26.6274V24.3533Z" fill="white" />
      </mask>
      <g mask="url(#mask2_10_1124)">
        <path d="M26.6274 24.3535H29.8869V20.7284H26.6274V24.3535Z" fill="black" />
        <mask id="mask3_10_1124" style="mask-type:luminance" maskUnits="userSpaceOnUse" x="26" y="20" width="4" height="5">
          <path d="M26.6274 24.3535H29.8869V20.7283H26.6274V24.3535Z" fill="white" />
        </mask>
        <g mask="url(#mask3_10_1124)">
          <mask id="mask4_10_1124" style="mask-type:luminance" maskUnits="userSpaceOnUse" x="26" y="20" width="4" height="5">
            <path d="M29.8869 21.6745L27.9087 20.7283L26.6274 23.4074L28.6058 24.3535L29.8869 21.6745Z" fill="white" />
          </mask>
          <g mask="url(#mask4_10_1124)">
            <path d="M29.8869 21.6745L27.9087 20.7283L26.6274 23.4074L28.6058 24.3535L29.8869 21.6745Z" fill="url(#paint1_linear_10_1124)" />
          </g>
        </g>
      </g>
    </mask>
    <g mask="url(#mask1_10_1124)">
      <mask id="mask5_10_1124" style="mask-type:luminance" maskUnits="userSpaceOnUse" x="28" y="3" width="9" height="20">
        <path d="M29.9809 3.84656L28.3176 11.622L34.1927 22.9755L36.2221 13.3782L31.2038 3.68154C31.1415 3.56179 31.0438 3.46417 30.924 3.40201C30.8042 3.33985 30.6681 3.31618 30.5344 3.33423C30.4006 3.35228 30.2757 3.41117 30.1766 3.50286C30.0776 3.59456 30.0092 3.71458 29.9809 3.84656Z" fill="white" />
      </mask>
      <g mask="url(#mask5_10_1124)">
        <path d="M43.8696 19.3178L29.7896 26.0518L20.6699 6.98407L34.751 0.250048L43.8696 19.3178Z" fill="url(#paint2_linear_10_1124)" />
      </g>
    </g>
    <mask id="mask6_10_1124" style="mask-type:luminance" maskUnits="userSpaceOnUse" x="36" y="4" width="8" height="17">
      <path d="M36.2222 13.3782L39.6875 20.075C39.7498 20.1948 39.8475 20.2924 39.9673 20.3545C40.0871 20.4167 40.2232 20.4404 40.357 20.4223C40.4907 20.4043 40.6157 20.3454 40.7147 20.2537C40.8138 20.162 40.8821 20.042 40.9104 19.91L43.6775 7.24083L38.0177 4.88469L36.2222 13.3782Z" fill="white" />
    </mask>
    <g mask="url(#mask6_10_1124)">
      <path d="M36.2222 13.3782L39.6875 20.075C39.7498 20.1948 39.8475 20.2924 39.9673 20.3545C40.0871 20.4167 40.2232 20.4404 40.357 20.4223C40.4907 20.4043 40.6157 20.3454 40.7147 20.2537C40.8138 20.162 40.8821 20.042 40.9104 19.91L43.6775 7.24083L38.0177 4.88469L36.2222 13.3782Z" fill="url(#paint3_linear_10_1124)" />
    </g>
    <path d="M59.8682 0H43.8508C41.052 0 38.6357 1.95839 38.0578 4.69584L37.9604 5.156L43.6168 7.5099L43.6759 7.23998C43.7825 6.75095 44.0532 6.31311 44.4431 5.9992C44.8329 5.68528 45.3184 5.5142 45.8189 5.51436H58.5712C59.2979 5.51436 59.8871 6.10241 59.8871 6.83019V14.3444C59.8871 14.4898 59.7688 14.6079 59.6236 14.6079H53.5176C53.4882 14.6078 53.4591 14.6012 53.4326 14.5884C53.406 14.5757 53.3827 14.5571 53.3642 14.5342C53.3458 14.5112 53.3327 14.4844 53.326 14.4557C53.3192 14.4271 53.319 14.3973 53.3253 14.3685L54.3897 9.37095C54.463 9.03009 54.2029 8.70766 53.8542 8.70766H50.0587C49.6067 8.70784 49.1685 8.86311 48.8173 9.14754C48.466 9.43197 48.223 9.82833 48.1289 10.2704L45.1324 24.3373C45.1154 24.4172 45.1165 24.4999 45.1356 24.5794C45.1546 24.6588 45.1912 24.733 45.2426 24.7964C45.2941 24.8599 45.359 24.9111 45.4328 24.9462C45.5065 24.9814 45.5872 24.9996 45.6689 24.9995H49.4621C49.9144 24.9997 50.3531 24.8445 50.7047 24.5598C51.0562 24.2751 51.2993 23.8783 51.3931 23.4357L52.1789 19.7442C52.1948 19.6704 52.2354 19.6043 52.2941 19.5568C52.3528 19.5093 52.4259 19.4832 52.5014 19.483H59.6233C59.7687 19.483 59.8866 19.601 59.8866 19.7464V24.4509C59.8865 24.5963 59.9441 24.7357 60.0468 24.8386C60.1494 24.9415 60.2888 24.9994 60.4341 24.9995H65.2414C65.3867 24.9992 65.526 24.9413 65.6286 24.8384C65.7312 24.7356 65.7889 24.5962 65.7889 24.4509V5.92093C65.7891 2.65008 63.139 0 59.8682 0Z" fill="#3B31E0" />
    <path d="M40.91 19.9104C40.8815 20.0424 40.8131 20.1623 40.714 20.2538C40.6149 20.3454 40.4899 20.4042 40.3562 20.4221C40.2224 20.44 40.0864 20.4162 39.9667 20.354C39.8469 20.2918 39.7493 20.1941 39.6871 20.0744L36.2218 13.3775L36.1048 13.1513L34.0754 22.7485L34.1935 22.9747L34.6885 23.9332C35.0273 24.5889 35.7038 24.9998 36.4414 24.9998H38.2096C39.1374 24.9998 39.9407 24.3539 40.1385 23.4468L40.91 19.9104Z" fill="#3B31E0" />
  </g>
  <defs>
    <linearGradient id="paint0_linear_10_1124" x1="27.7613" y1="4.66674" x2="32.9736" y2="14.4784" gradientUnits="userSpaceOnUse">
      <stop stop-color="#580A0D" />
      <stop offset="0.00658633" stop-color="#1B1381" />
      <stop offset="1" stop-color="#3B31E0" />
    </linearGradient>
    <linearGradient id="paint1_linear_10_1124" x1="28.6936" y1="22.7499" x2="28.0331" y2="22.434" gradientUnits="userSpaceOnUse">
      <stop stop-color="white" />
      <stop offset="1" stop-color="#231F20" />
    </linearGradient>
    <linearGradient id="paint2_linear_10_1124" x1="35.3767" y1="11.6648" x2="30.6753" y2="13.9133" gradientUnits="userSpaceOnUse">
      <stop stop-color="#3B31E0" />
      <stop offset="1" stop-color="#3B31E0" />
    </linearGradient>
    <linearGradient id="paint3_linear_10_1124" x1="38.3328" y1="19.7247" x2="41.2078" y2="7.16548" gradientUnits="userSpaceOnUse">
      <stop stop-color="#1B1381" />
      <stop offset="0.00658633" stop-color="#1B1481" />
      <stop offset="1" stop-color="#3B31E0" />
    </linearGradient>
    <clipPath id="clip0_10_1124">
      <rect width="65.7891" height="25" fill="white" />
    </clipPath>
  </defs>
</svg>
