<svg width="66" height="26" viewBox="0 0 66 26" fill="none" xmlns="http://www.w3.org/2000/svg">
  <g clip-path="url(#clip0_10_1057)">
    <path d="M29.9807 4.02761C30.0091 3.89571 30.0776 3.77579 30.1767 3.68423C30.2758 3.59266 30.4008 3.53391 30.5345 3.51598C30.6683 3.49805 30.8043 3.52182 30.924 3.58405C31.0438 3.64628 31.1414 3.74393 31.2036 3.86369L31.2047 3.8626L29.8517 1.24855C29.513 0.593943 28.8365 0.181945 28.0988 0.181945H26.3055C25.8537 0.181998 25.4155 0.337094 25.0642 0.621323C24.713 0.905552 24.4699 1.3017 24.3756 1.7436L20.9222 17.912C20.8177 18.4024 20.5481 18.8421 20.1585 19.1578C19.7689 19.4734 19.2828 19.6458 18.7814 19.6463L7.22142 19.666C7.04845 19.6662 6.87714 19.6322 6.71731 19.5661C6.55748 19.4999 6.41225 19.4029 6.28994 19.2806C6.16763 19.1583 6.07063 19.0131 6.00451 18.8533C5.93838 18.6934 5.90442 18.5221 5.90456 18.3491V15.51C5.90442 15.4754 5.91109 15.4412 5.92421 15.4093C5.93733 15.3773 5.95662 15.3483 5.98099 15.3238C6.00536 15.2993 6.03432 15.2799 6.06622 15.2667C6.09811 15.2534 6.1323 15.2466 6.16684 15.2466H14.7303C15.6624 15.2466 16.4668 14.5953 16.6613 13.6839L17.2798 10.7802C17.2969 10.7002 17.2959 10.6174 17.2769 10.5379C17.2579 10.4583 17.2213 10.384 17.1699 10.3204C17.1184 10.2569 17.0534 10.2056 16.9796 10.1703C16.9058 10.1351 16.825 10.1168 16.7432 10.1169H6.16684C6.09728 10.1169 6.03057 10.0892 5.98138 10.04C5.93219 9.99085 5.90456 9.92414 5.90456 9.85458V6.10836C5.90442 6.07383 5.91109 6.0396 5.92421 6.00766C5.93733 5.97571 5.95662 5.94667 5.98099 5.9222C6.00536 5.89773 6.03432 5.87831 6.06622 5.86506C6.09811 5.85181 6.1323 5.84499 6.16684 5.84499H16.7935C17.7246 5.84499 18.5289 5.19366 18.7235 4.28224L19.4557 0.844201C19.4728 0.764272 19.4718 0.681521 19.4528 0.602022C19.4337 0.522522 19.3972 0.448292 19.3457 0.384778C19.2942 0.321265 19.2292 0.270081 19.1554 0.234982C19.0816 0.199884 19.0008 0.181761 18.9191 0.181945H2.46761C1.81316 0.181945 1.18551 0.441926 0.722745 0.904692C0.259979 1.36746 0 1.9951 0 2.64956V19.2606C-1.32456e-08 20.0382 0.153185 20.8082 0.450809 21.5267C0.748433 22.2451 1.18467 22.8979 1.73459 23.4477C2.28452 23.9975 2.93737 24.4336 3.65586 24.7311C4.37435 25.0286 5.1444 25.1817 5.92205 25.1815H20.6687C22.0241 25.1817 23.3386 24.7169 24.3926 23.8646C25.4465 23.0123 26.1761 21.8242 26.4596 20.4987L28.3185 11.8042L29.9807 4.02761Z" fill="white" />
    <mask id="mask0_10_1057" style="mask-type:luminance" maskUnits="userSpaceOnUse" x="28" y="3" width="9" height="21">
      <path d="M29.9809 4.02832L28.3176 11.8038L34.1927 23.1572L36.2221 13.56L31.2038 3.8633C31.1415 3.74355 31.0438 3.64593 30.924 3.58378C30.8042 3.52162 30.6681 3.49794 30.5344 3.51599C30.4006 3.53404 30.2757 3.59293 30.1766 3.68463C30.0776 3.77632 30.0092 3.89635 29.9809 4.02832Z" fill="white" />
    </mask>
    <g mask="url(#mask0_10_1057)">
      <path d="M29.9809 4.02832L28.3176 11.8038L34.1927 23.1572L36.2221 13.56L31.2038 3.8633C31.1415 3.74355 31.0438 3.64593 30.924 3.58378C30.8042 3.52162 30.6681 3.49794 30.5344 3.51599C30.4006 3.53404 30.2757 3.59293 30.1766 3.68463C30.0776 3.77632 30.0092 3.89635 29.9809 4.02832Z" fill="url(#paint0_linear_10_1057)" />
    </g>
    <mask id="mask1_10_1057" style="mask-type:luminance" maskUnits="userSpaceOnUse" x="26" y="20" width="4" height="5">
      <mask id="mask2_10_1057" style="mask-type:luminance" maskUnits="userSpaceOnUse" x="26" y="20" width="4" height="5">
        <path d="M26.6274 24.5352H29.8869V20.9102H26.6274V24.5352Z" fill="white" />
      </mask>
      <g mask="url(#mask2_10_1057)">
        <path d="M26.6274 24.5356H29.8869V20.9105H26.6274V24.5356Z" fill="black" />
        <mask id="mask3_10_1057" style="mask-type:luminance" maskUnits="userSpaceOnUse" x="26" y="20" width="4" height="5">
          <path d="M26.6274 24.5354H29.8869V20.9102H26.6274V24.5354Z" fill="white" />
        </mask>
        <g mask="url(#mask3_10_1057)">
          <mask id="mask4_10_1057" style="mask-type:luminance" maskUnits="userSpaceOnUse" x="26" y="20" width="4" height="5">
            <path d="M29.8869 21.8564L27.9087 20.9102L26.6274 23.5893L28.6058 24.5354L29.8869 21.8564Z" fill="white" />
          </mask>
          <g mask="url(#mask4_10_1057)">
            <path d="M29.8869 21.8564L27.9087 20.9102L26.6274 23.5893L28.6058 24.5354L29.8869 21.8564Z" fill="url(#paint1_linear_10_1057)" />
          </g>
        </g>
      </g>
    </mask>
    <g mask="url(#mask1_10_1057)">
      <mask id="mask5_10_1057" style="mask-type:luminance" maskUnits="userSpaceOnUse" x="28" y="3" width="9" height="21">
        <path d="M29.9809 4.02844L28.3176 11.8039L34.1927 23.1573L36.2221 13.5601L31.2038 3.86342C31.1415 3.74367 31.0438 3.64606 30.924 3.5839C30.8042 3.52174 30.6681 3.49806 30.5344 3.51611C30.4006 3.53416 30.2757 3.59306 30.1766 3.68475C30.0776 3.77644 30.0092 3.89647 29.9809 4.02844Z" fill="white" />
      </mask>
      <g mask="url(#mask5_10_1057)">
        <path d="M43.8696 19.4996L29.7896 26.2336L20.6699 7.16595L34.751 0.431933L43.8696 19.4996Z" fill="url(#paint2_linear_10_1057)" />
      </g>
    </g>
    <mask id="mask6_10_1057" style="mask-type:luminance" maskUnits="userSpaceOnUse" x="36" y="5" width="8" height="16">
      <path d="M36.2222 13.56L39.6875 20.2569C39.7498 20.3767 39.8475 20.4743 39.9673 20.5364C40.0871 20.5986 40.2232 20.6223 40.357 20.6042C40.4907 20.5862 40.6157 20.5273 40.7147 20.4356C40.8138 20.3439 40.8821 20.2239 40.9104 20.0919L43.6775 7.42271L38.0177 5.06658L36.2222 13.56Z" fill="white" />
    </mask>
    <g mask="url(#mask6_10_1057)">
      <path d="M36.2222 13.56L39.6875 20.2569C39.7498 20.3767 39.8475 20.4743 39.9673 20.5364C40.0871 20.5986 40.2232 20.6223 40.357 20.6042C40.4907 20.5862 40.6157 20.5273 40.7147 20.4356C40.8138 20.3439 40.8821 20.2239 40.9104 20.0919L43.6775 7.42271L38.0177 5.06658L36.2222 13.56Z" fill="url(#paint3_linear_10_1057)" />
    </g>
    <path d="M59.8682 0.181885H43.8508C41.052 0.181885 38.6357 2.14028 38.0578 4.87772L37.9604 5.33788L43.6168 7.69179L43.6759 7.42187C43.7825 6.93284 44.0532 6.495 44.4431 6.18108C44.8329 5.86717 45.3184 5.69608 45.8189 5.69624H58.5712C59.2979 5.69624 59.8871 6.2843 59.8871 7.01207V14.5263C59.8871 14.6717 59.7688 14.7897 59.6236 14.7897H53.5176C53.4882 14.7897 53.4591 14.783 53.4326 14.7703C53.406 14.7575 53.3827 14.739 53.3642 14.716C53.3458 14.6931 53.3327 14.6663 53.326 14.6376C53.3192 14.609 53.319 14.5792 53.3253 14.5504L54.3897 9.55283C54.463 9.21198 54.2029 8.88955 53.8542 8.88955H50.0587C49.6067 8.88972 49.1685 9.045 48.8173 9.32943C48.466 9.61386 48.223 10.0102 48.1289 10.4523L45.1324 24.5192C45.1154 24.5991 45.1165 24.6818 45.1356 24.7612C45.1546 24.8407 45.1912 24.9148 45.2426 24.9783C45.2941 25.0418 45.359 25.093 45.4328 25.1281C45.5065 25.1633 45.5872 25.1815 45.6689 25.1814H49.4621C49.9144 25.1816 50.3531 25.0264 50.7047 24.7417C51.0562 24.457 51.2993 24.0602 51.3931 23.6176L52.1789 19.9261C52.1948 19.8523 52.2354 19.7862 52.2941 19.7386C52.3528 19.6911 52.4259 19.6651 52.5014 19.6649H59.6233C59.7687 19.6649 59.8866 19.7828 59.8866 19.9282V24.6328C59.8865 24.7782 59.9441 24.9176 60.0468 25.0205C60.1494 25.1234 60.2888 25.1813 60.4341 25.1814H65.2414C65.3867 25.1811 65.526 25.1232 65.6286 25.0203C65.7312 24.9175 65.7889 24.7781 65.7889 24.6328V6.10281C65.7891 2.83197 63.139 0.181885 59.8682 0.181885Z" fill="white" />
    <path d="M40.91 20.0923C40.8815 20.2242 40.8131 20.3442 40.714 20.4357C40.6149 20.5273 40.4899 20.586 40.3562 20.604C40.2224 20.6219 40.0864 20.5981 39.9667 20.5359C39.8469 20.4737 39.7493 20.376 39.6871 20.2563L36.2218 13.5594L36.1048 13.3332L34.0754 22.9304L34.1935 23.1566L34.6885 24.115C35.0273 24.7707 35.7038 25.1816 36.4414 25.1816H38.2096C39.1374 25.1816 39.9407 24.5358 40.1385 23.6287L40.91 20.0923Z" fill="white" />
  </g>
  <defs>
    <linearGradient id="paint0_linear_10_1057" x1="27.7613" y1="4.84863" x2="32.9736" y2="14.6603" gradientUnits="userSpaceOnUse">
      <stop stop-color="#580A0D" />
      <stop offset="0.00658633" stop-color="#1B1381" />
      <stop offset="1" stop-color="white" />
    </linearGradient>
    <linearGradient id="paint1_linear_10_1057" x1="28.6936" y1="22.9318" x2="28.0331" y2="22.6159" gradientUnits="userSpaceOnUse">
      <stop stop-color="white" />
      <stop offset="1" stop-color="#231F20" />
    </linearGradient>
    <linearGradient id="paint2_linear_10_1057" x1="35.3767" y1="11.8467" x2="30.6753" y2="14.0952" gradientUnits="userSpaceOnUse">
      <stop stop-color="#3B31E0" />
      <stop offset="1" stop-color="white" />
    </linearGradient>
    <linearGradient id="paint3_linear_10_1057" x1="38.3328" y1="19.9065" x2="41.2078" y2="7.34736" gradientUnits="userSpaceOnUse">
      <stop stop-color="#1B1381" />
      <stop offset="0.00658633" stop-color="#1B1481" />
      <stop offset="0.9999" stop-color="white" />
    </linearGradient>
    <clipPath id="clip0_10_1057">
      <rect width="65.7891" height="25" fill="white" transform="translate(0 0.181885)" />
    </clipPath>
  </defs>
</svg>
