<svg width="225" height="225" viewBox="0 0 225 225" fill="none" xmlns="http://www.w3.org/2000/svg">
  <g clip-path="url(#hbomax)">
    <path d="M225 0H0V225H225V0Z" fill="black"/>
    <path fill-rule="evenodd" clip-rule="evenodd" d="M77.9318 113.799C72.5625 113.799 67.7557 115.66 64.4727 119.209C61.1386 115.66 56.3369 113.84 50.9727 113.886C41.1903 113.886 33.2284 119.94 33.0136 131.364V157.413C33.0136 159.791 34.9568 161.698 37.2989 161.739H41.3233C41.6659 161.739 42.0136 161.437 42.0136 161.003V131.369C42.1875 125.744 46.125 122.758 50.9267 122.717C55.7744 122.717 59.7119 125.703 59.8858 131.328V157.203C59.8858 159.581 61.875 161.703 64.2119 161.703H68.2364C68.4262 161.678 68.6004 161.584 68.7272 161.441C68.8539 161.297 68.9248 161.113 68.9267 160.921V131.456C69.1006 125.831 73.0381 122.712 77.8398 122.712C82.6875 122.712 86.625 125.703 86.7989 131.328V157.331C86.7989 159.714 88.7932 161.744 91.125 161.744H95.1494C95.4972 161.744 95.8398 161.356 95.8398 160.926V131.195C95.6659 119.777 87.7091 113.758 77.9267 113.804M188.872 115.098C189 114.924 188.959 114.75 188.739 114.622C188.652 114.576 188.611 114.535 188.524 114.535H181.34C179.652 114.535 178.011 114.75 176.538 116.739L169.185 127.601C168.622 128.47 167.753 129.462 166.587 129.462C165.375 129.462 164.552 128.465 163.989 127.601L156.636 116.739C155.163 114.709 153.516 114.535 151.829 114.535H144.649C144.435 114.535 144.302 114.709 144.302 114.837C144.302 114.924 144.348 115.011 144.389 115.052L158.584 136.038C159.402 137.291 159.402 138.851 158.584 140.103L144.389 161.09C144.261 161.31 144.302 161.478 144.522 161.611C144.603 161.652 144.649 161.698 144.736 161.698H151.875C153.563 161.698 155.209 161.437 156.682 159.448L164.076 148.541C164.639 147.677 165.508 146.685 166.674 146.685C167.886 146.685 168.709 147.677 169.272 148.541L176.625 159.402C178.098 161.437 179.744 161.652 181.432 161.652L188.611 161.611C188.826 161.611 188.959 161.437 188.959 161.304C188.959 161.223 188.959 161.136 188.872 161.09L174.677 140.103C174.275 139.502 174.061 138.794 174.061 138.071C174.061 137.347 174.275 136.64 174.677 136.038L188.872 115.098ZM119.813 153.087C112.285 153.087 106.788 147.503 106.788 137.94C106.788 128.424 112.285 122.799 119.813 122.799C127.34 122.799 132.837 128.378 132.837 137.94C132.878 147.462 127.386 153.087 119.813 153.087ZM141.443 114.53H138.631C137.878 114.545 137.14 114.747 136.484 115.117C135.828 115.488 135.274 116.015 134.872 116.652L133.834 118.514C129.764 115.098 124.44 113.707 120.073 113.707C106.829 113.707 98.0489 123.06 98.0489 137.853C98.0489 152.785 106.962 162 119.986 162C124.962 162 129.897 160.353 133.011 157.807C133.115 158.875 133.618 159.864 134.42 160.577C135.222 161.29 136.264 161.674 137.337 161.652H141.448C141.837 161.652 142.185 161.437 142.185 161.09V115.226C142.139 114.837 141.878 114.535 141.448 114.535M66.9375 90.3886H75.6818V109.687H89.0898V60.1465H75.6818V78.5352H66.9375V60.1465H53.0898V109.687H66.9375V90.3886ZM104.712 98.1306V89.7852H111.549C113.543 89.7852 115.098 91.7744 115.098 93.9784C115.098 96.1874 113.584 98.1766 111.549 98.1766L104.712 98.1306ZM104.753 71.1306H111.59C113.584 71.1306 115.139 73.1249 115.139 75.334C115.139 77.538 113.625 79.5272 111.59 79.5272H104.753V71.1357V71.1306ZM125.652 81.3477C125.351 82.7744 125.351 86.8397 125.698 88.2715C124.66 86.6659 122.19 84.6766 120.59 84.5028C122.149 84.334 124.788 82.5136 125.652 81.3477ZM150.75 71.913C154.088 71.9171 157.288 73.2448 159.648 75.605C162.008 77.9651 163.336 81.165 163.34 84.5028C163.337 87.8414 162.01 91.0427 159.65 93.4039C157.289 95.7652 154.089 97.0936 150.75 97.0977C147.411 97.0936 144.211 95.7652 141.85 93.4039C139.49 91.0427 138.163 87.8414 138.16 84.5028C138.155 82.848 138.477 81.2084 139.108 79.6785C139.738 78.1486 140.665 76.7586 141.836 75.5884C143.006 74.4183 144.396 73.4911 145.926 72.8604C147.456 72.2296 149.095 71.9076 150.75 71.913ZM128.076 95.7528C130.07 99.7772 136.861 109.902 150.75 109.902C164.639 109.902 175.889 98.3505 175.889 84.5028C175.889 70.3124 164.639 59.3642 150.75 59.3232C136.861 59.3232 129.851 69.4891 128.076 73.6005C128.076 67.413 122.022 60.1465 114.883 60.1005H91.9023V109.601H113.323C121.976 109.687 128.076 102.16 128.076 95.7528Z" fill="white"/>
    <path fill-rule="evenodd" clip-rule="evenodd" d="M150.75 94.413C153.387 94.4049 155.913 93.3539 157.778 91.4895C159.642 89.625 160.693 87.0986 160.701 84.4619C160.693 81.8252 159.642 79.2988 157.778 77.4343C155.913 75.5699 153.387 74.5188 150.75 74.5107C148.113 74.5188 145.587 75.5699 143.722 77.4343C141.858 79.2988 140.807 81.8252 140.799 84.4619C140.822 87.0941 141.877 89.612 143.739 91.4733C145.6 93.3346 148.118 94.3903 150.75 94.413ZM190.084 114.878H190.728V116.739H191.25V114.878H191.94V114.402H190.084V114.878ZM194.022 114.402L193.413 115.486L192.81 114.402H192.247V116.739H192.81V115.399L193.372 116.397H193.413L194.022 115.399V116.739H194.538V114.402H194.022Z" fill="white"/>
  </g>
  <defs>
    <clipPath id="hbomax">
      <rect width="225" height="225" fill="white"/>
    </clipPath>
  </defs>
</svg>
