<svg width="81" height="14" viewBox="0 0 81 14" fill="none" xmlns="http://www.w3.org/2000/svg">
  <path d="M9.96752 13.9412H6.23799V8.63062H3.82517V13.9412H0V0.242371H3.81782V5.35465H6.23062V0.242371H9.96017V13.9412H9.96752ZM27.0631 14C30.881 14 34 10.8268 34 6.96325C34 3.0409 30.881 0.00732422 27.0631 0.00732422C23.1938 0.00732422 21.2371 2.8132 20.7663 3.95906C20.7663 2.26231 19.067 0.235026 17.0956 0.235026H10.7252V13.9412H16.6542C19.067 13.9412 20.7663 11.8846 20.7663 10.0776C21.3033 11.1941 23.2012 14 27.0631 14ZM16.1834 8.4323C16.7352 8.4323 17.1765 8.9685 17.1765 9.57815C17.1765 10.2172 16.7352 10.7534 16.1834 10.7534H14.2856V8.4323H16.1834ZM16.1834 3.29064C16.7352 3.29064 17.1765 3.82684 17.1765 4.43649C17.1765 5.04615 16.7352 5.58235 16.1834 5.58235H14.2856V3.29064H16.1834ZM18.6919 6.96325C19.1332 6.93387 19.8541 6.42705 20.1263 6.1259C20.0233 6.49316 20.0233 7.6537 20.1263 8.02097C19.8247 7.57291 19.1332 7.04405 18.6919 6.96325ZM23.5837 6.96325C23.5837 5.03146 25.1579 3.47427 27.0926 3.48162C29.0346 3.49631 30.5793 5.07553 30.5573 7.01467C30.5279 8.92443 28.9831 10.4596 27.0705 10.4596C25.1432 10.4596 23.5837 8.90239 23.5837 6.96325ZM27.0631 9.71037C28.5491 9.71037 29.7996 8.49106 29.7996 6.96325C29.7996 5.43545 28.5491 4.23083 27.0631 4.23083C25.5331 4.23083 24.3119 5.43545 24.3119 6.96325C24.3119 8.49106 25.5331 9.71037 27.0631 9.71037Z" fill="white" />
  <path d="M53.935 5.09024C53.8614 1.7702 51.5075 0.0146902 48.6239 0.0146902C47.0423 0.0146902 45.6152 0.543546 44.6442 1.57188C43.6732 0.543546 42.2461 0.0146902 40.6646 0.0146902C37.781 0.0146902 35.427 1.77754 35.3535 5.09759C35.3535 5.10493 35.3535 5.11228 35.3535 5.11962V12.6926C35.3535 13.3903 35.9199 13.9486 36.6113 13.9486H37.803C37.9207 13.9486 38.0164 13.8531 38.0164 13.7356V5.11228C38.0679 3.47429 39.2301 2.60756 40.6646 2.60756C42.099 2.60756 43.2613 3.47429 43.3128 5.11228V12.6852C43.3128 13.383 43.8792 13.9412 44.5706 13.9412H45.7624C45.88 13.9412 45.9757 13.8457 45.9757 13.7282V5.10493C46.0272 3.46695 47.1894 2.60021 48.6239 2.60021C50.0583 2.60021 51.2206 3.46695 51.2721 5.10493V12.6779C51.2721 13.3757 51.8385 13.9339 52.53 13.9339H53.7217C53.8394 13.9339 53.935 13.8384 53.935 13.7209V5.09759C53.9423 5.10493 53.935 5.09759 53.935 5.09024ZM80.7627 0.227702H78.7398C78.1807 0.227702 77.6584 0.50682 77.3421 0.96957L75.1059 4.27492C74.8116 4.70829 74.179 4.70829 73.8847 4.27492L71.6485 0.96957C71.3395 0.50682 70.8099 0.227702 70.2508 0.227702H68.2279C68.1029 0.227702 68.0293 0.367261 68.0955 0.470094L72.0825 6.37566C72.3694 6.80168 72.3694 7.35992 72.0825 7.78594L68.0955 13.6915C68.0219 13.7943 68.1029 13.9339 68.2279 13.9339H70.2508C70.8099 13.9339 71.3322 13.6548 71.6485 13.192L73.8847 9.88667C74.179 9.45331 74.8116 9.45331 75.1059 9.88667L77.3421 13.192C77.6511 13.6548 78.1807 13.9339 78.7398 13.9339H80.7627C80.8878 13.9339 80.9613 13.7943 80.8951 13.6915L76.9008 7.79328C76.6139 7.36726 76.6139 6.80902 76.9008 6.383L80.8878 0.47744C80.9613 0.374607 80.8878 0.227702 80.7627 0.227702ZM67.1833 0.227702H65.9917C65.3885 0.227702 64.8809 0.653726 64.7558 1.21931C63.6965 0.411333 62.3651 0 60.9306 0C57.4439 0 54.6117 2.42392 54.6117 7C54.6117 11.5761 57.4365 14 60.9306 14C62.3577 14 63.6745 13.596 64.7338 12.8027C64.7926 13.4418 65.3296 13.9486 65.9917 13.9486H67.1833C67.301 13.9486 67.3967 13.8531 67.3967 13.7356V0.440714C67.3893 0.32319 67.301 0.227702 67.1833 0.227702ZM60.9306 11.3998C58.8489 11.3998 57.157 9.87933 57.157 7.00735C57.157 4.13536 58.8489 2.6149 60.9306 2.6149C63.0124 2.6149 64.7043 4.13536 64.7043 7.00735C64.7043 9.87933 63.0124 11.3998 60.9306 11.3998Z" fill="white" />
</svg>
