<svg width="225" height="225" viewBox="0 0 225 225" fill="none" xmlns="http://www.w3.org/2000/svg">
  <g clip-path="url(#hulu)">
    <path d="M225 0H0V225H225V0Z" fill="black"/>
    <path d="M151.41 96.0971C157.933 101.403 161.2 109.685 161.2 120.946V177.5H130.12V125.108C130.12 122.825 129.264 120.824 127.551 119.11C125.837 117.396 123.837 116.54 121.555 116.54H103.445C101.159 116.54 99.2013 117.396 97.5725 119.11C95.9398 120.824 95.125 122.825 95.125 125.108V177.5H63.8004V47.5H95.1246V89.854C95.6143 89.6932 96.7534 89.3644 98.5512 88.8745C100.344 88.3853 102.711 88.1405 105.648 88.1405H125.715C136.318 88.1402 144.884 90.7948 151.41 96.0971Z" fill="#1CE783"/>
  </g>
  <defs>
    <clipPath id="hulu">
      <rect width="225" height="225" fill="white"/>
    </clipPath>
  </defs>
</svg>
