<svg width="160" height="50" viewBox="0 0 160 50" fill="none" xmlns="http://www.w3.org/2000/svg">
  <path fill-rule="evenodd" clip-rule="evenodd" d="M16.9535 15.5747H25.0843C33.042 15.5747 39.5005 19.0805 39.5005 28.2184V50H26.8142V29.8276C26.7698 28.9585 26.3919 28.1397 25.7586 27.5406C25.1253 26.9416 24.2851 26.6081 23.412 26.6092H16.0309C15.5944 26.5939 15.1593 26.6654 14.7509 26.8195C14.3425 26.9737 13.969 27.2074 13.6523 27.507C13.3355 27.8067 13.0819 28.1662 12.9061 28.5646C12.7304 28.9631 12.636 29.3924 12.6286 29.8276V49.9425H0V0H12.6863V16.2644C14.0439 15.7369 15.4982 15.5018 16.9535 15.5747ZM110.313 50.0575H97.6268V0H110.313V50.0575ZM71.9659 38.9655C72.839 38.9666 73.6792 38.6332 74.3125 38.0341C74.9458 37.435 75.3237 36.6162 75.3681 35.7471V15.5747H88.1121V36.7816C88.2532 38.5063 88.024 40.2412 87.4398 41.8707C86.8556 43.5002 85.9299 44.9871 84.7242 46.2322C83.5185 47.4774 82.0605 48.4523 80.4473 49.092C78.834 49.7318 77.1026 50.0217 75.3681 49.9425H62.8548C61.0114 50.179 59.1383 50.0108 57.367 49.4497C55.5957 48.8885 53.969 47.948 52.6009 46.694C51.2328 45.4401 50.1565 43.903 49.4475 42.1907C48.7384 40.4784 48.4138 38.6322 48.4963 36.7816V15.5747H61.1826V35.7471C61.2127 36.6211 61.5862 37.4484 62.2227 38.0504C62.8591 38.6525 63.7074 38.9811 64.5848 38.9655H71.9659ZM146.93 15.5747V35.7471C146.923 36.1823 146.829 36.6117 146.653 37.0101C146.477 37.4085 146.223 37.7681 145.907 38.0677C145.59 38.3673 145.217 38.601 144.808 38.7552C144.4 38.9094 143.965 38.9809 143.528 38.9655H135.916C135.055 38.9657 134.227 38.6284 133.612 38.0264C132.998 37.4245 132.645 36.6059 132.629 35.7471V15.5747H119.943V36.7241C119.852 38.5794 120.17 40.4321 120.875 42.1515C121.581 43.8709 122.656 45.4153 124.025 46.6757C125.394 47.936 127.024 48.8818 128.799 49.4462C130.575 50.0107 132.453 50.1801 134.302 49.9425H146.7C148.437 50.0237 150.172 49.7326 151.787 49.089C153.402 48.4454 154.86 47.4642 156.062 46.2115C157.264 44.9588 158.183 43.4637 158.756 41.8271C159.33 40.1905 159.545 38.4504 159.386 36.7241V15.5747H146.93Z" fill="#1CE783"/>
</svg>
