<svg width="46" height="14" viewBox="0 0 46 14" fill="none" xmlns="http://www.w3.org/2000/svg">
  <g clip-path="url(#clip0_391_716)">
    <path fill-rule="evenodd" clip-rule="evenodd" d="M5.62021 4.36092H7.89683C10.125 4.36092 11.9334 5.34253 11.9334 7.90115V14H8.38121V8.35172C8.36878 8.10838 8.26295 7.87912 8.08563 7.71138C7.90831 7.54363 7.67307 7.45026 7.42859 7.45058H5.36187C5.23967 7.44628 5.11783 7.4663 5.00348 7.50946C4.88913 7.55263 4.78456 7.61807 4.69587 7.70197C4.60718 7.78586 4.53615 7.88653 4.48694 7.99809C4.43773 8.10966 4.41132 8.22987 4.40925 8.35172V13.9839H0.87323V0H4.42539V4.55402C4.80553 4.40633 5.21273 4.34051 5.62021 4.36092ZM31.7609 14.0161H28.2087V0H31.7609V14.0161ZM21.0237 10.9103C21.2682 10.9107 21.5034 10.8173 21.6807 10.6495C21.8581 10.4818 21.9639 10.2525 21.9763 10.0092V4.36092H25.5446V10.2989C25.5841 10.7818 25.5199 11.2675 25.3564 11.7238C25.1928 12.1801 24.9336 12.5964 24.596 12.945C24.2584 13.2937 23.8502 13.5666 23.3985 13.7458C22.9468 13.9249 22.462 14.0061 21.9763 13.9839H18.4726C17.9564 14.0501 17.432 14.003 16.936 13.8459C16.44 13.6888 15.9845 13.4254 15.6015 13.0743C15.2184 12.7232 14.9171 12.2928 14.7185 11.8134C14.52 11.3339 14.4291 10.817 14.4522 10.2989V4.36092H18.0043V10.0092C18.0128 10.2539 18.1174 10.4855 18.2956 10.6541C18.4738 10.8227 18.7113 10.9147 18.957 10.9103H21.0237ZM42.0137 4.36092V10.0092C42.0117 10.131 41.9853 10.2513 41.936 10.3628C41.8868 10.4744 41.8158 10.5751 41.7271 10.659C41.6384 10.7429 41.5339 10.8083 41.4195 10.8515C41.3052 10.8946 41.1833 10.9146 41.0611 10.9103H38.9298C38.6885 10.9104 38.4568 10.816 38.2847 10.6474C38.1125 10.4789 38.0137 10.2497 38.0095 10.0092V4.36092H34.4573V10.2828C34.4318 10.8022 34.5209 11.321 34.7183 11.8024C34.9158 12.2839 35.2168 12.7163 35.6002 13.0692C35.9835 13.4221 36.4399 13.6869 36.937 13.8449C37.4342 14.003 37.9601 14.0504 38.4777 13.9839H41.9492C42.4356 14.0066 42.9214 13.9251 43.3736 13.7449C43.8258 13.5647 44.2339 13.29 44.5706 12.9392C44.9072 12.5885 45.1645 12.1698 45.325 11.7116C45.4856 11.2533 45.5457 10.7661 45.5013 10.2828V4.36092H42.0137Z" fill="white"/>
  </g>
  <defs>
    <clipPath id="clip0_391_716">
      <rect width="44.6119" height="14" fill="white" transform="translate(0.87323)"/>
    </clipPath>
  </defs>
</svg>
