<svg width="49" height="25" viewBox="0 0 49 25" fill="none" xmlns="http://www.w3.org/2000/svg">
  <mask id="mask0_10_1178" style="mask-type:luminance" maskUnits="userSpaceOnUse" x="0" y="0" width="49" height="25">
    <path d="M0 0H48.8857V25H0V0Z" fill="white" />
  </mask>
  <g mask="url(#mask0_10_1178)">
    <mask id="mask1_10_1178" style="mask-type:luminance" maskUnits="userSpaceOnUse" x="0" y="4" width="11" height="22">
      <path d="M4.36991 14.8017C4.37042 17.2124 2.40993 19.173 0 19.173V25.0002C5.62299 25.0002 10.1983 20.4251 10.1983 14.8017L10.1976 4.96734L4.36991 4.96716V14.8017Z" fill="url(#paint0_linear_10_1178)" />
    </mask>
    <g mask="url(#mask1_10_1178)">
      <path d="M33.1208 30.0822C15.7551 32.3153 -2.09479 27.3704 -6.74753 19.0376C-11.4011 10.7055 -1.09539 2.1409 16.2709 -0.0919138C33.6366 -2.32473 51.4856 2.62033 56.1396 10.953C60.7921 19.2851 50.4864 27.8502 33.1208 30.0822Z" fill="white" />
      <path d="M33.1208 30.0822C15.7551 32.3153 -2.09479 27.3704 -6.74753 19.0376C-11.4011 10.7055 -1.09539 2.1409 16.2709 -0.0919138C33.6366 -2.32473 51.4856 2.62033 56.1396 10.953C60.7921 19.2851 50.4864 27.8502 33.1208 30.0822Z" fill="url(#paint1_linear_10_1178)" />
      <path d="M47.717 3.9491C60.4315 10.0498 60.4315 19.9406 47.717 26.042C35.0029 32.1427 14.3875 32.1427 1.67302 26.042C-11.043 19.9404 -11.0423 10.0501 1.67267 3.94893C14.3875 -2.15211 35.0022 -2.15211 47.717 3.9491Z" fill="url(#paint2_linear_10_1178)" />
    </g>
    <mask id="mask2_10_1178" style="mask-type:luminance" maskUnits="userSpaceOnUse" x="36" y="4" width="13" height="21">
      <path d="M48.8858 18.5392C48.1646 18.9512 47.4944 19.1732 46.6195 19.1732C44.2048 19.1732 42.2474 17.2151 42.2474 14.8015C42.2474 12.3868 44.2048 10.4294 46.6195 10.4294C47.4946 10.4294 48.1646 10.651 48.8858 11.0633V4.85571C48.1421 4.6873 47.382 4.60238 46.6195 4.60254C40.9874 4.60254 36.4209 9.16888 36.4209 14.8017C36.4209 20.4338 40.9874 25 46.6195 25C47.3984 25 48.1572 24.9122 48.8858 24.747V18.5392Z" fill="url(#paint3_linear_10_1178)" />
    </mask>
    <g mask="url(#mask2_10_1178)">
      <path d="M-6.75379 10.9519C-2.10019 2.6181 15.7525 -2.32747 33.1224 -0.0948341C50.4915 2.13798 60.7983 10.7048 56.1442 19.0383C51.4906 27.3722 33.6374 32.3186 16.2685 30.0851C-1.10045 27.852 -11.4079 19.2861 -6.75379 10.9519Z" fill="white" />
      <path d="M-6.75379 10.9519C-2.10019 2.6181 15.7525 -2.32747 33.1224 -0.0948341C50.4915 2.13798 60.7983 10.7048 56.1442 19.0383C51.4906 27.3722 33.6374 32.3186 16.2685 30.0851C-1.10045 27.852 -11.4079 19.2861 -6.75379 10.9519Z" fill="url(#paint4_linear_10_1178)" />
      <path d="M33.1208 30.0822C15.7551 32.3153 -2.09479 27.3704 -6.74753 19.0376C-11.4011 10.7055 -1.09539 2.1409 16.2709 -0.0919138C33.6366 -2.32473 51.4856 2.62033 56.1396 10.953C60.7921 19.2851 50.4864 27.8502 33.1208 30.0822Z" fill="url(#paint5_linear_10_1178)" />
      <path d="M47.717 3.9491C60.4315 10.0498 60.4315 19.9406 47.717 26.042C35.0029 32.1427 14.3875 32.1427 1.67302 26.042C-11.043 19.9404 -11.0423 10.0501 1.67267 3.94893C14.3875 -2.15211 35.0022 -2.15211 47.717 3.9491Z" fill="url(#paint6_linear_10_1178)" />
    </g>
    <mask id="mask3_10_1178" style="mask-type:luminance" maskUnits="userSpaceOnUse" x="20" y="0" width="19" height="26">
      <path d="M36.4209 14.8017C36.4209 12.4237 37.237 10.2371 38.6013 8.50271V8.49857C36.7336 6.129 33.8393 4.60344 30.5938 4.60344C29.0818 4.60169 27.5886 4.93877 26.224 5.5899L26.2233 0.000366211L20.396 0.00122934L20.3967 14.8019C20.3972 20.4251 24.9713 25.0004 30.5936 25.0004C33.8389 25.0004 36.7334 23.4745 38.6022 21.1049V21.1008C37.2374 19.3655 36.4209 17.1796 36.4209 14.8017ZM30.5938 19.1728C28.184 19.1728 26.224 17.2118 26.2233 14.8016C26.224 12.3915 28.184 10.4308 30.5938 10.4308C33.0032 10.4308 34.9638 12.3915 34.9638 14.8016C34.9644 17.2122 33.003 19.1728 30.5938 19.1728Z" fill="url(#paint7_linear_10_1178)" />
    </mask>
    <g mask="url(#mask3_10_1178)">
      <path d="M-6.75379 10.9519C-2.10019 2.6181 15.7525 -2.32747 33.1224 -0.0948341C50.4915 2.13798 60.7983 10.7048 56.1442 19.0383C51.4906 27.3722 33.6374 32.3186 16.2685 30.0851C-1.10045 27.852 -11.4079 19.2861 -6.75379 10.9519Z" fill="white" />
      <path d="M-6.75379 10.9519C-2.10019 2.6181 15.7525 -2.32747 33.1224 -0.0948341C50.4915 2.13798 60.7983 10.7048 56.1442 19.0383C51.4906 27.3722 33.6374 32.3186 16.2685 30.0851C-1.10045 27.852 -11.4079 19.2861 -6.75379 10.9519Z" fill="url(#paint8_linear_10_1178)" />
      <path d="M33.1208 30.0822C15.7551 32.3153 -2.09479 27.3704 -6.74753 19.0376C-11.4011 10.7055 -1.09539 2.1409 16.2709 -0.0919138C33.6366 -2.32473 51.4856 2.62033 56.1396 10.953C60.7921 19.2851 50.4864 27.8502 33.1208 30.0822Z" fill="url(#paint9_linear_10_1178)" />
      <path d="M47.717 3.9491C60.4315 10.0498 60.4315 19.9406 47.717 26.042C35.0029 32.1427 14.3875 32.1427 1.67302 26.042C-11.043 19.9404 -11.0423 10.0501 1.67267 3.94893C14.3875 -2.15211 35.0022 -2.15211 47.717 3.9491Z" fill="url(#paint10_linear_10_1178)" />
    </g>
    <mask id="mask4_10_1178" style="mask-type:luminance" maskUnits="userSpaceOnUse" x="10" y="0" width="11" height="26">
      <path d="M10.1982 14.8018C10.1982 20.4249 14.7734 25.0002 20.3969 25.0002L20.3962 19.1727C17.9868 19.1731 16.0259 17.2124 16.0259 14.8018V10.7949L20.3969 10.7952V4.96719H16.0259V0.00109863L10.1989 4.96702L10.1982 14.8018Z" fill="url(#paint11_linear_10_1178)" />
    </mask>
    <g mask="url(#mask4_10_1178)">
      <path d="M-6.75379 10.9519C-2.10019 2.6181 15.7525 -2.32747 33.1224 -0.0948341C50.4915 2.13798 60.7983 10.7048 56.1442 19.0383C51.4906 27.3722 33.6374 32.3186 16.2685 30.0851C-1.10045 27.852 -11.4079 19.2861 -6.75379 10.9519Z" fill="white" />
      <path d="M-6.75379 10.9519C-2.10019 2.6181 15.7525 -2.32747 33.1224 -0.0948341C50.4915 2.13798 60.7983 10.7048 56.1442 19.0383C51.4906 27.3722 33.6374 32.3186 16.2685 30.0851C-1.10045 27.852 -11.4079 19.2861 -6.75379 10.9519Z" fill="url(#paint12_linear_10_1178)" />
      <path d="M33.1208 30.0822C15.7551 32.3153 -2.09479 27.3704 -6.74753 19.0376C-11.4011 10.7055 -1.09539 2.1409 16.2709 -0.0919138C33.6366 -2.32473 51.4856 2.62033 56.1396 10.953C60.7921 19.2851 50.4864 27.8502 33.1208 30.0822Z" fill="url(#paint13_linear_10_1178)" />
      <path d="M47.717 3.9491C60.4315 10.0498 60.4315 19.9406 47.717 26.042C35.0029 32.1427 14.3875 32.1427 1.67302 26.042C-11.043 19.9404 -11.0423 10.0501 1.67267 3.94893C14.3875 -2.15211 35.0022 -2.15211 47.717 3.9491Z" fill="url(#paint14_linear_10_1178)" />
    </g>
  </g>
  <defs>
    <linearGradient id="paint0_linear_10_1178" x1="-3.62161e-05" y1="14.9836" x2="10.1982" y2="14.9836" gradientUnits="userSpaceOnUse">
      <stop offset="0.65" stop-color="white" />
      <stop offset="1" />
    </linearGradient>
    <linearGradient id="paint1_linear_10_1178" x1="20.2246" y1="-1.70392" x2="29.1712" y2="31.6877" gradientUnits="userSpaceOnUse">
      <stop stop-color="#FFFF00" />
      <stop offset="0.75" stop-color="#FFFF00" stop-opacity="0" />
    </linearGradient>
    <linearGradient id="paint2_linear_10_1178" x1="6.59783" y1="33.0467" x2="42.7194" y2="-3.07618" gradientUnits="userSpaceOnUse">
      <stop stop-color="#F0047F" />
      <stop offset="0.75" stop-color="#F0047F" stop-opacity="0" />
    </linearGradient>
    <linearGradient id="paint3_linear_10_1178" x1="36.421" y1="14.8011" x2="48.8858" y2="14.8011" gradientUnits="userSpaceOnUse">
      <stop offset="0.65" stop-color="white" />
      <stop offset="1" />
    </linearGradient>
    <linearGradient id="paint4_linear_10_1178" x1="55.3184" y1="23.2133" x2="-5.94581" y2="6.7988" gradientUnits="userSpaceOnUse">
      <stop stop-color="#00A0C6" />
      <stop offset="0.75" stop-color="#00A0C6" stop-opacity="0" />
    </linearGradient>
    <linearGradient id="paint5_linear_10_1178" x1="20.2246" y1="-1.70392" x2="29.1712" y2="31.6877" gradientUnits="userSpaceOnUse">
      <stop stop-color="#FFFF00" />
      <stop offset="0.75" stop-color="#FFFF00" stop-opacity="0" />
    </linearGradient>
    <linearGradient id="paint6_linear_10_1178" x1="6.59783" y1="33.0467" x2="42.7194" y2="-3.07618" gradientUnits="userSpaceOnUse">
      <stop stop-color="#F0047F" />
      <stop offset="0.75" stop-color="#F0047F" stop-opacity="0" />
    </linearGradient>
    <linearGradient id="paint7_linear_10_1178" x1="20.396" y1="12.5001" x2="38.6022" y2="12.5001" gradientUnits="userSpaceOnUse">
      <stop offset="0.65" stop-color="white" />
      <stop offset="1" />
    </linearGradient>
    <linearGradient id="paint8_linear_10_1178" x1="55.3184" y1="23.2133" x2="-5.94581" y2="6.7988" gradientUnits="userSpaceOnUse">
      <stop stop-color="#00A0C6" />
      <stop offset="0.75" stop-color="#00A0C6" stop-opacity="0" />
    </linearGradient>
    <linearGradient id="paint9_linear_10_1178" x1="20.2246" y1="-1.70392" x2="29.1712" y2="31.6877" gradientUnits="userSpaceOnUse">
      <stop stop-color="#FFFF00" />
      <stop offset="0.75" stop-color="#FFFF00" stop-opacity="0" />
    </linearGradient>
    <linearGradient id="paint10_linear_10_1178" x1="6.59783" y1="33.0467" x2="42.7194" y2="-3.07618" gradientUnits="userSpaceOnUse">
      <stop stop-color="#F0047F" />
      <stop offset="0.75" stop-color="#F0047F" stop-opacity="0" />
    </linearGradient>
    <linearGradient id="paint11_linear_10_1178" x1="10.1982" y1="12.5006" x2="20.3967" y2="12.5006" gradientUnits="userSpaceOnUse">
      <stop offset="0.65" stop-color="white" />
      <stop offset="1" />
    </linearGradient>
    <linearGradient id="paint12_linear_10_1178" x1="55.3184" y1="23.2133" x2="-5.94581" y2="6.7988" gradientUnits="userSpaceOnUse">
      <stop stop-color="#00A0C6" />
      <stop offset="0.75" stop-color="#00A0C6" stop-opacity="0" />
    </linearGradient>
    <linearGradient id="paint13_linear_10_1178" x1="20.2246" y1="-1.70392" x2="29.1712" y2="31.6877" gradientUnits="userSpaceOnUse">
      <stop stop-color="#FFFF00" />
      <stop offset="0.75" stop-color="#FFFF00" stop-opacity="0" />
    </linearGradient>
    <linearGradient id="paint14_linear_10_1178" x1="6.59783" y1="33.0467" x2="42.7194" y2="-3.07618" gradientUnits="userSpaceOnUse">
      <stop stop-color="#F0047F" />
      <stop offset="0.75" stop-color="#F0047F" stop-opacity="0" />
    </linearGradient>
  </defs>
</svg>
