<svg width="225" height="225" viewBox="0 0 225 225" fill="none" xmlns="http://www.w3.org/2000/svg">
  <g clip-path="url(#bg)">
    <path d="M225 0H0V225H225V0Z" fill="url(#tv2)"/>
    <g clip-path="url(#kbs)">
      <path d="M67.5731 131.193L52.4211 111.77L67.0248 93.8067H56.7363L42.8338 111.588V93.8067H35V131.193H42.8338V111.971L56.4583 131.193H67.5731ZM123.111 108.432C125.383 108.432 135.055 109.917 135.055 119.713C135.055 130.075 125.298 131.192 125.298 131.192H102.482V125.134L120.839 125.145C126.161 125.145 126.109 119.972 126.109 119.972C126.109 114.301 119.819 114.532 119.819 114.532H112.79C109.562 114.532 101.245 113.345 101.245 104.589C101.245 94.0663 111.554 93.8067 111.554 93.8067H132.444V99.7838L115.295 99.7996C109.755 99.7996 109.844 104.181 109.844 104.181C109.844 104.181 109.892 108.453 114.692 108.453L123.111 108.432ZM84.8793 125.107H75.6754V114.595L87.0328 114.599C87.0328 114.599 92.7705 114.814 92.7705 119.789C92.7705 124.759 88.4686 125.108 84.8799 125.108M75.6754 99.8754H85.7782C85.7782 99.8754 91.269 99.624 91.269 104.27C91.269 108.268 87.8154 108.53 86.6992 108.609H75.6754V99.8754ZM90.3467 131.193C95.8646 131.193 100.88 127.077 100.88 120.751C100.88 113.529 95.6416 111.279 95.6416 111.279C95.6416 111.279 99.8033 109.824 99.4104 103.345C98.8456 93.9576 88.4415 93.8079 88.4415 93.8079H68.2617V131.176C68.2617 131.176 85.7005 131.193 90.3467 131.193Z" fill="white"/>
      <path fill-rule="evenodd" clip-rule="evenodd" d="M139.742 112.5C139.742 126.378 150.992 137.63 164.87 137.63C178.749 137.63 189.999 126.378 189.999 112.5C189.999 98.6225 178.749 87.3712 164.87 87.3712C150.992 87.3712 139.742 98.6225 139.742 112.5ZM187.598 123.225H172.65C177.352 119.311 179.885 114.536 179.885 109.411C179.885 103.315 177.089 98.296 172.213 95.6422C167.398 93.0219 161.314 93.2499 156.712 96.2246C153.364 98.3888 151.634 101.26 150.901 102.779C150.417 103.782 150.351 104.935 150.717 105.987C151.084 107.038 151.853 107.9 152.856 108.384C153.858 108.868 155.012 108.934 156.063 108.568C157.115 108.201 157.977 107.432 158.461 106.429C158.743 105.844 159.582 104.366 161.27 103.275C163.295 101.966 166.079 101.862 168.199 103.016C170.352 104.187 171.49 106.399 171.49 109.411C171.49 117.72 156.491 123.225 150.412 123.225H142.143C143.669 126.447 145.86 129.308 148.574 131.62H150.42C150.439 131.62 150.457 131.62 150.476 131.62H181.167C183.88 129.308 186.072 126.447 187.598 123.225Z" fill="white"/>
    </g>
  </g>
  <defs>
    <linearGradient id="tv2" x1="0" y1="0" x2="225" y2="225" gradientUnits="userSpaceOnUse">
      <stop stop-color="#ECCE39"/>
      <stop offset="1" stop-color="#FD7879"/>
    </linearGradient>
    <clipPath id="bg">
     <rect width="225" height="225" fill="white"/>
    </clipPath>
    <clipPath id="kbs">
      <rect width="155" height="50.2584" fill="white" transform="translate(35 87.3707)"/>
    </clipPath>
  </defs>
</svg>
