<svg width="78" height="26" viewBox="0 0 78 26" fill="none" xmlns="http://www.w3.org/2000/svg">
  <g clip-path="url(#clip0_10_995)">
    <path d="M16.9871 22.2063L9.45007 12.5451L16.7144 3.60938H11.5966L4.68104 12.4543V3.60938H0.784302V22.2063H4.68104V12.645L11.4583 22.2063H16.9871ZM44.6134 10.8844C45.7433 10.8844 50.5545 11.6231 50.5545 16.4959C50.5545 21.6501 45.7009 22.206 45.7009 22.206H34.3516V19.1925L43.4831 19.1982C46.1305 19.1982 46.1044 16.625 46.1044 16.625C46.1044 13.8038 42.9756 13.9185 42.9756 13.9185H39.4792C37.8738 13.9185 33.7367 13.3281 33.7367 8.97292C33.7367 3.73852 38.8643 3.60938 38.8643 3.60938H49.2558V6.58259L40.7254 6.59046C37.9697 6.59046 38.0137 8.76993 38.0137 8.76993C38.0137 8.76993 38.0378 10.895 40.4253 10.895L44.6134 10.8844ZM25.5957 19.179H21.0174V13.95L26.6669 13.9522C26.6669 13.9522 29.521 14.059 29.521 16.5339C29.521 19.0062 27.3811 19.1793 25.596 19.1793M21.0174 6.62816H26.0428C26.0428 6.62816 28.7741 6.50309 28.7741 8.81423C28.7741 10.803 27.0562 10.9334 26.501 10.9724H21.0174V6.62816ZM28.3153 22.2063C31.0601 22.2063 33.5551 20.1591 33.5551 17.0121C33.5551 13.4199 30.9492 12.3006 30.9492 12.3006C30.9492 12.3006 33.0193 11.5766 32.8239 8.3539C32.543 3.68448 27.3676 3.61001 27.3676 3.61001H17.3296V22.1978C17.3296 22.1978 26.0042 22.2063 28.3153 22.2063Z" fill="white"/>
    <path fill-rule="evenodd" clip-rule="evenodd" d="M52.8857 12.9082C52.8857 19.8114 58.4821 25.4081 65.3854 25.4081C72.289 25.4081 77.8854 19.8114 77.8854 12.9082C77.8854 6.00491 72.289 0.408203 65.3854 0.408203C58.4821 0.408203 52.8857 6.00491 52.8857 12.9082ZM58.2255 22.4189C58.2161 22.4189 58.2068 22.4189 58.1975 22.4189H57.279C55.9293 21.2688 54.8391 19.8455 54.0801 18.2429H58.1937C61.2175 18.2429 68.6782 15.5044 68.6782 11.3716C68.6782 9.87341 68.1123 8.77298 67.0414 8.1904C65.9868 7.61631 64.6017 7.66784 63.5943 8.31924C62.755 8.86191 62.3377 9.5972 62.1973 9.88817C61.9565 10.3869 61.5275 10.7695 61.0046 10.9519C60.4817 11.1343 59.9078 11.1015 59.4091 10.8607C58.9104 10.6199 58.5278 10.1909 58.3454 9.66806C58.163 9.14518 58.1958 8.57126 58.4366 8.07257C58.8011 7.31685 59.6618 5.88869 61.3275 4.81214C63.6163 3.33245 66.6429 3.21901 69.038 4.52243C71.4632 5.8425 72.8543 8.33903 72.8543 11.3716C72.8543 13.9209 71.5942 16.2959 69.2555 18.2428H76.6907C75.9318 19.8454 74.8415 21.2687 73.4919 22.4189H58.2255Z" fill="white"/>
  </g>
  <defs>
    <clipPath id="clip0_10_995">
      <rect width="77.1015" height="25" fill="white" transform="translate(0.784302 0.407959)"/>
    </clipPath>
  </defs>
</svg>
