<svg width="78" height="25" viewBox="0 0 78 25" fill="none" xmlns="http://www.w3.org/2000/svg">
  <g clip-path="url(#clip0_10_1222)">
    <path d="M16.2028 21.7983L8.66576 12.1371L15.9301 3.20142H10.8123L3.89673 12.0463V3.20142H0V21.7983H3.89673V12.237L10.674 21.7983H16.2028ZM43.8291 10.4764C44.959 10.4764 49.7702 11.2152 49.7702 16.0879C49.7702 21.2422 44.9166 21.798 44.9166 21.798H33.5673V18.7846L42.6988 18.7902C45.3462 18.7902 45.3201 16.217 45.3201 16.217C45.3201 13.3959 42.1913 13.5106 42.1913 13.5106H38.6949C37.0895 13.5106 32.9524 12.9202 32.9524 8.56496C32.9524 3.33056 38.08 3.20142 38.08 3.20142H48.4715V6.17463L39.9411 6.1825C37.1854 6.1825 37.2294 8.36197 37.2294 8.36197C37.2294 8.36197 37.2535 10.4871 39.641 10.4871L43.8291 10.4764ZM24.8114 18.7711H20.2331V13.542L25.8826 13.5442C25.8826 13.5442 28.7367 13.651 28.7367 16.1259C28.7367 18.5982 26.5968 18.7714 24.8117 18.7714M20.2331 6.2202H25.2585C25.2585 6.2202 27.9898 6.09513 27.9898 8.40627C27.9898 10.395 26.2719 10.5254 25.7167 10.5644H20.2331V6.2202ZM27.531 21.7983C30.2758 21.7983 32.7708 19.7512 32.7708 16.6042C32.7708 13.0119 30.1649 11.8926 30.1649 11.8926C30.1649 11.8926 32.235 11.1687 32.0396 7.94594C31.7587 3.27652 26.5833 3.20205 26.5833 3.20205H16.5453V21.7899C16.5453 21.7899 25.2199 21.7983 27.531 21.7983Z" fill="#FAB700" />
    <path d="M52.1016 12.5002C52.1016 19.4034 57.698 25.0001 64.6012 25.0001C71.5048 25.0001 77.1012 19.4034 77.1012 12.5002C77.1012 5.59689 71.5048 0.000185975 64.6012 0.000185975C57.698 0.000185975 52.1016 5.59689 52.1016 12.5002Z" fill="url(#paint0_linear_10_1222)" />
    <path d="M68.4713 17.8349C67.7759 18.4137 66.986 18.9554 66.1045 19.4519C62.967 21.2188 59.48 22.01 57.4133 22.011H72.7077C74.0574 20.8609 75.1476 19.4375 75.9066 17.8349H68.4713Z" fill="url(#paint1_linear_10_1222)" />
    <mask id="mask0_10_1222" style="mask-type:luminance" maskUnits="userSpaceOnUse" x="-44" y="-57" width="266" height="188">
      <path d="M-43.0776 -56.5673H221.467V130.485H-43.0776V-56.5673Z" fill="white" />
    </mask>
    <g mask="url(#mask0_10_1222)">
      <path d="M68.2538 4.11436C65.8587 2.81094 62.8321 2.92438 60.5432 4.40407C58.8775 5.48062 58.0169 6.90878 57.6523 7.6645C57.4116 8.16319 57.3788 8.73711 57.5612 9.25999C57.7436 9.78286 58.1262 10.2119 58.6249 10.4526C59.1236 10.6934 59.6975 10.7262 60.2204 10.5438C60.7432 10.3614 61.1723 9.9788 61.413 9.4801C61.5535 9.18913 61.9708 8.45384 62.8101 7.91117C63.8175 7.25977 65.2026 7.20824 66.2572 7.78233C67.328 8.36491 67.894 9.46533 67.894 10.9636C67.894 15.0963 60.4333 17.8348 57.4094 17.8348H53.2959C54.0548 19.4374 55.1451 20.8607 56.4947 22.0109H57.4132C59.4796 22.0099 62.9669 21.2184 66.1044 19.4518C66.9862 18.9553 67.7758 18.4139 68.4712 17.8348C70.81 15.8878 72.07 13.5129 72.07 10.9636C72.07 7.93096 70.679 5.43443 68.2538 4.11436Z" fill="white" />
    </g>
  </g>
  <defs>
    <linearGradient id="paint0_linear_10_1222" x1="55.7586" y1="3.67077" x2="73.4359" y2="21.3481" gradientUnits="userSpaceOnUse">
      <stop stop-color="#EACC3B" />
      <stop offset="1" stop-color="#E66473" />
    </linearGradient>
    <linearGradient id="paint1_linear_10_1222" x1="57.4133" y1="19.9229" x2="72.2616" y2="19.9229" gradientUnits="userSpaceOnUse">
      <stop stop-color="#B2B2B2" />
      <stop offset="1" stop-color="white" />
    </linearGradient>
    <clipPath id="clip0_10_1222">
      <rect width="77.1015" height="25" fill="white" />
    </clipPath>
  </defs>
</svg>
