<svg width="225" height="225" viewBox="0 0 225 225" fill="none" xmlns="http://www.w3.org/2000/svg">
  <g clip-path="url(#bg)">
    <path d="M225 0H0V225H225V0Z" fill="#42515E"/>
    <g clip-path="url(#mbc)">
      <path d="M126.574 110.996V122.637H107.671V102.484H126.574V110.955C133.16 110.959 140.34 108.282 140.34 100.901C140.34 93.6723 134.773 90.3382 125.894 90.2113C125.849 90.2075 94.8009 90.2113 94.7113 90.2113V134.79H126.156C135.06 134.79 143.009 131.535 143.009 122.918C143.009 114.401 135.997 110.996 126.574 110.996M159.765 122.708V102.431H189.821V90.215H158.354C150.644 90.215 146.575 94.3145 146.575 100.74V124.441C146.575 130.288 149.965 134.79 158.574 134.79H190V122.708H159.765ZM75.8604 90.2113H47.0222C39.5475 90.2113 35 93.6723 35 100.822V134.79H47.7577V102.517H55.0755V134.79H67.8033V102.517H75.1249V134.79H87.8826V100.822C87.8826 93.6723 83.3276 90.2113 75.8604 90.2113" fill="white"/>
    </g>
  </g>
  <defs>
    <clipPath id="bg">
      <rect width="225" height="225" fill="white"/>
    </clipPath>
    <clipPath id="mbc">
      <rect width="155" height="44.5807" fill="white" transform="translate(35 90.2096)"/>
    </clipPath>
  </defs>
</svg>
