<svg width="87" height="26" viewBox="0 0 87 26" fill="none" xmlns="http://www.w3.org/2000/svg">
  <path d="M51.3528 12.5647V19.0929H40.7522V7.79096H51.3528V12.5416C55.0461 12.5437 59.0723 11.0425 59.0723 6.90322C59.0723 2.84977 55.9506 0.980076 50.9717 0.90889C50.9466 0.906796 33.5352 0.90889 33.4849 0.90889V25.908H51.1183C56.1118 25.908 60.5694 24.0822 60.5694 19.2499C60.5694 14.4741 56.6373 12.5647 51.3528 12.5647M69.966 19.1327V7.76165H86.8205V0.910985H69.1746C64.851 0.910985 62.5689 3.2099 62.5689 6.81319V20.1042C62.5689 23.3829 64.47 25.908 69.2981 25.908H86.921V19.1327H69.966ZM22.9137 0.90889H6.74179C2.55016 0.90889 0 2.84977 0 6.85926V25.908H7.15426V7.8098H11.258V25.908H18.3955V7.8098H22.5013V25.908H29.6555V6.85926C29.6555 2.84977 27.1012 0.90889 22.9137 0.90889" fill="white"/>
</svg>
