<svg width="225" height="225" viewBox="0 0 225 225" fill="none" xmlns="http://www.w3.org/2000/svg">
  <g clip-path="url(#bg)">
    <path d="M225 0H0V225H225V0Z" fill="#FFB514"/>
    <g clip-path="url(#ocn)">
      <path d="M68.7568 95.0526H52.5755C47.4171 95.0526 43.2211 99.248 43.2211 104.407V120.589C43.2211 125.747 47.4164 129.947 52.5755 129.947H68.7574C73.9158 129.947 78.1118 125.747 78.1118 120.589V104.407C78.1118 99.248 73.9158 95.0526 68.7568 95.0526ZM71.9194 118.946C71.9196 119.61 71.7889 120.268 71.5349 120.881C71.2808 121.495 70.9084 122.052 70.4389 122.522C69.9693 122.992 69.4119 123.364 68.7983 123.618C68.1848 123.873 67.5271 124.003 66.863 124.003H54.4692C53.805 124.004 53.1473 123.873 52.5337 123.619C51.9201 123.364 51.3625 122.992 50.8929 122.522C50.4233 122.053 50.0508 121.495 49.7967 120.881C49.5427 120.268 49.412 119.61 49.4122 118.946V106.05C49.4127 104.708 49.9458 103.422 50.8942 102.474C51.8426 101.526 53.1287 100.993 54.4699 100.993H66.8623C68.2035 100.993 69.4896 101.526 70.4378 102.475C71.3861 103.423 71.919 104.709 71.9194 106.05V118.946Z" fill="white"/>
      <path d="M70.2124 86.835H51.1211C42.23 86.835 35 94.065 35 102.951V122.048C35 130.934 42.23 138.164 51.1204 138.164H70.2124C79.098 138.164 86.328 130.934 86.328 122.048V102.951C86.3287 94.065 79.098 86.835 70.2124 86.835ZM80.1369 120.59C80.1369 126.866 75.0313 131.967 68.7553 131.967H52.5734C46.3022 131.967 41.1966 126.866 41.1966 120.59V104.408C41.1966 98.1324 46.3022 93.0315 52.5734 93.0315H68.7553C75.0313 93.0315 80.1369 98.1324 80.1369 104.408V120.59ZM95.5599 120.591V104.408C95.5599 98.1324 100.666 93.0315 106.937 93.0315H135.26V86.835H105.484C96.5797 86.835 89.3633 94.052 89.3633 102.951V122.047C89.3633 130.947 96.5797 138.165 105.484 138.165H135.26V131.968H106.937C100.666 131.968 95.5599 126.868 95.5599 120.592" fill="white"/>
      <path d="M97.5823 104.408V120.59C97.5823 125.749 101.778 129.945 106.937 129.945H135.26V124.004H108.835C107.494 124.004 106.208 123.471 105.26 122.523C104.312 121.575 103.779 120.289 103.779 118.948V106.052C103.779 105.387 103.909 104.73 104.163 104.116C104.417 103.502 104.79 102.945 105.26 102.475C105.729 102.005 106.287 101.633 106.9 101.379C107.514 101.125 108.172 100.994 108.836 100.994H135.26V95.0547H106.937C101.778 95.0547 97.5823 99.2494 97.5823 104.408ZM172.426 95.0526H156.244C151.086 95.0526 146.89 99.248 146.89 104.407V138.162H153.082V106.05C153.083 104.709 153.616 103.423 154.564 102.474C155.512 101.526 156.798 100.993 158.139 100.993H170.532C171.873 100.993 173.159 101.526 174.107 102.475C175.056 103.423 175.589 104.709 175.589 106.05V138.162H181.781V104.407C181.781 99.248 177.585 95.0526 172.426 95.0526Z" fill="white"/>
      <path d="M190 102.953C190 94.0526 182.783 86.8363 173.884 86.8363H154.787C145.888 86.8363 138.671 94.0526 138.671 102.952V138.165H144.868V104.41C144.868 98.1337 149.968 93.0281 156.244 93.0281H172.426C178.702 93.0281 183.804 98.1337 183.804 104.41V138.165H190V102.953Z" fill="white"/>
    </g>
  </g>
  <defs>
    <clipPath id="bg">
      <rect width="225" height="225" fill="white"/>
    </clipPath>
    <clipPath id="ocn">
      <rect width="155" height="51.3301" fill="white" transform="translate(35 86.835)"/>
    </clipPath>
  </defs>
</svg>
