<svg width="76" height="26" viewBox="0 0 76 26" fill="none" xmlns="http://www.w3.org/2000/svg">
  <path d="M16.441 4.09448H8.56003C6.0477 4.09448 4.00403 6.13782 4.00403 8.65048V16.5318C4.00403 19.0442 6.04736 21.0898 8.56003 21.0898H16.4414C18.9537 21.0898 20.9974 19.0442 20.9974 16.5318V8.65048C20.9974 6.13782 18.9537 4.09448 16.441 4.09448ZM17.9814 15.7315C17.9814 16.0549 17.9178 16.3752 17.7941 16.6741C17.6704 16.973 17.489 17.2445 17.2603 17.4733C17.0316 17.702 16.7601 17.8835 16.4613 18.0073C16.1624 18.1311 15.8422 18.1948 15.5187 18.1948H9.48236C9.15888 18.1949 8.83855 18.1312 8.53968 18.0074C8.24082 17.8836 7.96927 17.7022 7.74054 17.4734C7.51182 17.2446 7.3304 16.9731 7.20666 16.6742C7.08292 16.3753 7.01927 16.055 7.01936 15.7315V9.45048C7.01963 8.79728 7.27925 8.17091 7.74117 7.70905C8.20308 7.2472 8.82949 6.98766 9.4827 6.98748H15.5184C16.1716 6.98775 16.7979 7.24737 17.2598 7.70929C17.7216 8.17121 17.9812 8.79761 17.9814 9.45082V15.7315Z" fill="#FFB514"/>
  <path d="M17.15 0.0921631H7.85167C3.52133 0.0921631 0 3.6135 0 7.94116V17.2425C0 21.5702 3.52133 25.0915 7.85133 25.0915H17.15C21.4777 25.0915 24.999 21.5702 24.999 17.2425V7.94116C24.9993 3.6135 21.4777 0.0921631 17.15 0.0921631ZM21.9837 16.5325C21.9837 19.5892 19.497 22.0735 16.4403 22.0735H8.559C5.50467 22.0735 3.018 19.5892 3.018 16.5325V8.65116C3.018 5.5945 5.50467 3.11016 8.559 3.11016H16.4403C19.497 3.11016 21.9837 5.5945 21.9837 8.65116V16.5325ZM29.4953 16.5328V8.65116C29.4953 5.5945 31.982 3.11016 35.0363 3.11016H48.831V0.0921631H34.3287C29.992 0.0921631 26.4773 3.60716 26.4773 7.9415V17.2422C26.4773 21.5768 29.992 25.0922 34.3287 25.0922H48.831V22.0742H35.0363C31.982 22.0742 29.4953 19.5898 29.4953 16.5332" fill="#FFB514"/>
  <path d="M30.4803 8.65115V16.5325C30.4803 19.0448 32.5237 21.0885 35.0363 21.0885H48.831V18.1951H35.961C35.3079 18.1951 34.6815 17.9357 34.2196 17.4739C33.7578 17.012 33.4983 16.3856 33.4983 15.7325V9.45148C33.4983 9.128 33.5619 8.80766 33.6856 8.50878C33.8094 8.2099 33.9908 7.93832 34.2195 7.70957C34.4482 7.48081 34.7198 7.29936 35.0187 7.17558C35.3175 7.05179 35.6379 6.98811 35.9613 6.98815H48.831V4.09548H35.0363C32.524 4.09548 30.4803 6.13848 30.4803 8.65115ZM66.9327 4.09448H59.0513C56.539 4.09448 54.4953 6.13782 54.4953 8.65048V25.0905H57.5113V9.45048C57.5116 8.79734 57.7712 8.17102 58.233 7.70917C58.6949 7.24733 59.3212 6.98775 59.9743 6.98748H66.01C66.6632 6.98775 67.2896 7.24737 67.7514 7.70929C68.2133 8.17121 68.4728 8.79761 68.473 9.45082V25.0908H71.4887V8.65048C71.4887 6.13782 69.4453 4.09448 66.9327 4.09448Z" fill="#FFB514"/>
  <path d="M75.4916 7.94211C75.4916 3.60744 71.977 0.0927734 67.6426 0.0927734H58.3416C54.0073 0.0927734 50.4923 3.60744 50.4923 7.94177V25.0921H53.5103V8.65177C53.5103 5.59511 55.9946 3.10844 59.0513 3.10844H66.9326C69.9893 3.10844 72.474 5.59511 72.474 8.65177V25.0921H75.4916V7.94211Z" fill="#FFB514"/>
</svg>
