<svg width="76" height="26" viewBox="0 0 76 26" fill="none" xmlns="http://www.w3.org/2000/svg">
  <path d="M16.9329 4.2644H9.05185C6.53952 4.2644 4.49585 6.30774 4.49585 8.8204V16.7017C4.49585 19.2141 6.53918 21.2597 9.05185 21.2597H16.9332C19.4455 21.2597 21.4892 19.2141 21.4892 16.7017V8.8204C21.4892 6.30774 19.4455 4.2644 16.9329 4.2644ZM18.4732 15.9014C18.4733 16.2249 18.4096 16.5452 18.2859 16.844C18.1622 17.1429 17.9808 17.4145 17.7521 17.6432C17.5234 17.872 17.2519 18.0534 16.9531 18.1772C16.6543 18.301 16.334 18.3647 16.0105 18.3647H9.97418C9.6507 18.3648 9.33037 18.3011 9.0315 18.1773C8.73264 18.0535 8.46109 17.8721 8.23236 17.6433C8.00364 17.4146 7.82223 17.143 7.69848 16.8441C7.57474 16.5452 7.5111 16.2249 7.51118 15.9014V9.62041C7.51145 8.9672 7.77107 8.34083 8.23299 7.87898C8.69491 7.41712 9.32131 7.15758 9.97452 7.1574H16.0102C16.6634 7.15767 17.2898 7.41729 17.7516 7.87921C18.2135 8.34113 18.473 8.96753 18.4732 9.62074V15.9014Z" fill="white"/>
  <path d="M17.6418 0.262085H8.34349C4.01315 0.262085 0.491821 3.78342 0.491821 8.11109V17.4124C0.491821 21.7401 4.01316 25.2614 8.34316 25.2614H17.6418C21.9695 25.2614 25.4908 21.7401 25.4908 17.4124V8.11109C25.4912 3.78342 21.9695 0.262085 17.6418 0.262085ZM22.4755 16.7024C22.4755 19.7591 19.9888 22.2434 16.9322 22.2434H9.05082C5.99649 22.2434 3.50982 19.7591 3.50982 16.7024V8.82109C3.50982 5.76442 5.99649 3.28009 9.05082 3.28009H16.9322C19.9888 3.28009 22.4755 5.76442 22.4755 8.82109V16.7024ZM29.9872 16.7028V8.82109C29.9872 5.76442 32.4738 3.28009 35.5282 3.28009H49.3228V0.262085H34.8205C30.4838 0.262085 26.9692 3.77709 26.9692 8.11142V17.4121C26.9692 21.7468 30.4838 25.2621 34.8205 25.2621H49.3228V22.2441H35.5282C32.4738 22.2441 29.9872 19.7598 29.9872 16.7031" fill="white"/>
  <path d="M30.9722 8.82107V16.7024C30.9722 19.2147 33.0155 21.2584 35.5282 21.2584H49.3228V18.3651H36.4528C35.7997 18.3651 35.1733 18.1056 34.7115 17.6438C34.2496 17.1819 33.9902 16.5555 33.9902 15.9024V9.6214C33.9901 9.29792 34.0537 8.97758 34.1775 8.6787C34.3012 8.37982 34.4826 8.10824 34.7113 7.87949C34.9401 7.65073 35.2116 7.46928 35.5105 7.3455C35.8094 7.22172 36.1297 7.15803 36.4532 7.15807H49.3228V4.2654H35.5282C33.0158 4.2654 30.9722 6.3084 30.9722 8.82107ZM67.4245 4.2644H59.5432C57.0308 4.2644 54.9872 6.30774 54.9872 8.8204V25.2604H58.0032V9.6204C58.0034 8.96726 58.263 8.34094 58.7249 7.87909C59.1867 7.41725 59.813 7.15767 60.4662 7.1574H66.5018C67.155 7.15767 67.7814 7.41729 68.2433 7.87921C68.7051 8.34113 68.9647 8.96753 68.9648 9.62074V25.2607H71.9805V8.8204C71.9805 6.30774 69.9372 4.2644 67.4245 4.2644Z" fill="white"/>
  <path d="M75.9835 8.11203C75.9835 3.77736 72.4688 0.262695 68.1345 0.262695H58.8335C54.4991 0.262695 50.9841 3.77736 50.9841 8.1117V25.262H54.0021V8.8217C54.0021 5.76503 56.4865 3.27836 59.5431 3.27836H67.4245C70.4811 3.27836 72.9658 5.76503 72.9658 8.8217V25.262H75.9835V8.11203Z" fill="white"/>
</svg>
