<svg width="225" height="225" viewBox="0 0 225 225" fill="none" xmlns="http://www.w3.org/2000/svg">
  <g clip-path="url(#background)">
    <path d="M225 0H0V225H225V0Z" fill="black"/>
    <path d="M165.597 143.193C163.138 143.193 160.781 144.234 159.042 146.087C157.304 147.94 156.327 150.453 156.327 153.073C156.327 155.694 157.304 158.207 159.042 160.06C160.781 161.913 163.138 162.954 165.597 162.954C168.055 162.954 170.413 161.913 172.151 160.06C173.889 158.207 174.866 155.694 174.866 153.073C174.866 150.453 173.889 147.94 172.151 146.087C170.413 144.234 168.055 143.193 165.597 143.193Z" fill="#069DE0"/>
    <path d="M165.597 116.14C163.138 116.14 160.781 117.181 159.042 119.034C157.304 120.887 156.327 123.4 156.327 126.021C156.327 128.641 157.304 131.154 159.042 133.007C160.781 134.86 163.138 135.901 165.597 135.901C168.055 135.901 170.413 134.86 172.151 133.007C173.889 131.154 174.866 128.641 174.866 126.021C174.866 123.4 173.889 120.887 172.151 119.034C170.413 117.181 168.055 116.14 165.597 116.14Z" fill="#6E55DC"/>
    <path d="M165.597 170.241C164.363 170.212 163.136 170.447 161.988 170.93C160.84 171.414 159.794 172.137 158.912 173.057C158.03 173.977 157.329 175.076 156.85 176.288C156.372 177.501 156.125 178.804 156.125 180.119C156.125 181.435 156.372 182.737 156.85 183.95C157.329 185.163 158.03 186.262 158.912 187.182C159.794 188.102 160.84 188.825 161.988 189.309C163.136 189.792 164.363 190.026 165.597 189.998C168.055 189.998 170.413 188.957 172.151 187.104C173.889 185.251 174.866 182.737 174.866 180.117C174.866 177.496 173.889 174.983 172.151 173.13C170.413 171.277 168.055 170.241 165.597 170.241Z" fill="#05AC3F"/>
    <path d="M165.597 89.0962C163.138 89.0962 160.781 90.1372 159.042 91.9902C157.304 93.8432 156.327 96.3563 156.327 98.9769C156.327 101.597 157.304 104.111 159.042 105.964C160.781 107.817 163.138 108.858 165.597 108.858C168.055 108.858 170.413 107.817 172.151 105.964C173.889 104.111 174.866 101.597 174.866 98.9769C174.866 96.3563 173.889 93.8432 172.151 91.9902C170.413 90.1372 168.055 89.0962 165.597 89.0962Z" fill="#EF1541"/>
    <path d="M165.597 62.0437C163.138 62.0437 160.781 63.0847 159.042 64.9377C157.304 66.7907 156.327 69.3038 156.327 71.9244C156.327 74.5449 157.304 77.0581 159.042 78.911C160.781 80.764 163.138 81.805 165.597 81.805C168.055 81.805 170.413 80.764 172.151 78.911C173.889 77.0581 174.866 74.5449 174.866 71.9244C174.866 69.3038 173.889 66.7907 172.151 64.9377C170.413 63.0847 168.055 62.0437 165.597 62.0437Z" fill="#FF7112"/>
    <path d="M165.597 35C163.138 35 160.781 36.041 159.042 37.894C157.304 39.747 156.327 42.2601 156.327 44.8807C156.327 47.5012 157.304 50.0144 159.042 51.8673C160.781 53.7203 163.138 54.7613 165.597 54.7613C168.055 54.7613 170.413 53.7203 172.151 51.8673C173.889 50.0144 174.866 47.5012 174.866 44.8807C174.866 42.2601 173.889 39.747 172.151 37.894C170.413 36.041 168.055 35 165.597 35Z" fill="#FCCC12"/>
    <path d="M93.8189 45.2034C74.6556 45.2034 59.8828 61.2194 59.8828 81.5126L59.9188 189.999H70.8829V81.7812C70.8829 66.8969 81.3613 56.0853 93.9628 56.0853C106.558 56.0853 117.043 66.8969 117.043 81.7812C117.043 91.1798 112.736 101.461 101.772 106.038L70.8829 118.947L70.877 129.861L71.4168 130.475L104.225 115.936C114.086 111.352 117.397 107.912 117.427 107.88C120.785 104.483 123.46 100.393 125.287 95.859C127.114 91.3247 128.056 86.4412 128.055 81.5062C128.056 76.7227 127.17 71.9862 125.448 67.5688C123.726 63.1515 121.202 59.1405 118.021 55.7663C114.84 52.3922 111.065 49.7215 106.912 47.9076C102.76 46.0938 98.3123 45.1726 93.8249 45.197L93.8189 45.2034Z" fill="url(#p1)"/>
    <path d="M93.9689 35C69.7674 35 50.0823 55.9902 50.0823 81.782V190H60.0328V81.5262C60.0312 76.7761 60.9081 72.0722 62.6132 67.6836C64.3183 63.2949 66.8182 59.3076 69.97 55.9497C73.1218 52.5917 76.8637 49.929 80.9816 48.1137C85.0995 46.2984 89.5127 45.3662 93.9689 45.3704C98.426 45.3645 102.841 46.2955 106.96 48.11C111.079 49.9245 114.822 52.587 117.975 55.9451C121.129 59.3033 123.63 63.2911 125.335 67.6806C127.041 72.0701 127.919 76.775 127.917 81.5262C127.93 86.4366 126.996 91.2975 125.173 95.8069C123.35 100.316 120.676 104.378 117.319 107.74C117.295 107.766 114.062 111.18 104.165 115.783L71.3928 130.444L78.4943 138.487L109.06 125.725C126.537 118.462 137.861 101.788 137.861 81.782C137.861 55.9774 118.17 35 93.9689 35Z" fill="url(#p2)"/>
    <path d="M93.9689 35C69.7674 35 50.0823 55.9902 50.0823 81.782V190H60.0328V81.5262C60.0312 76.7761 60.9081 72.0722 62.6132 67.6836C64.3183 63.2949 66.8182 59.3076 69.97 55.9497C73.1218 52.5917 76.8637 49.929 80.9816 48.1137C85.0995 46.2984 89.5127 45.3662 93.9689 45.3704C98.426 45.3645 102.841 46.2955 106.96 48.11C111.079 49.9245 114.822 52.587 117.975 55.9451C121.129 59.3033 123.63 63.2911 125.335 67.6806C127.041 72.0701 127.919 76.775 127.917 81.5262C127.93 86.4366 126.996 91.2975 125.173 95.8069C123.35 100.316 120.676 104.378 117.319 107.74C117.295 107.766 114.062 111.18 104.165 115.783L71.3928 130.444L78.4943 138.487L109.06 125.725C126.537 118.462 137.861 101.788 137.861 81.782C137.861 55.9774 118.17 35 93.9689 35Z" fill="url(#p3)"/>
  </g>
  <defs>
    <linearGradient id="p1" x1="51.7207" y1="113.288" x2="107.207" y2="65.888" gradientUnits="userSpaceOnUse">
      <stop stop-color="white"/>
      <stop offset="0.498295" stop-color="white"/>
      <stop offset="1" stop-color="#D7D9D9"/>
    </linearGradient>
    <linearGradient id="p2" x1="50.0823" y1="91.3787" x2="75.7331" y2="141.982" gradientUnits="userSpaceOnUse">
      <stop stop-color="white"/>
      <stop offset="1" stop-color="#C7C7C7"/>
    </linearGradient>
    <linearGradient id="p3" x1="57.2289" y1="122.214" x2="72.1289" y2="116.363" gradientUnits="userSpaceOnUse">
      <stop stop-color="#F3F4F4"/>
      <stop offset="0.965572" stop-color="#F1F2F2" stop-opacity="0"/>
    </linearGradient>
    <clipPath id="background">
      <rect width="225" height="225" fill="white"/>
    </clipPath>
  </defs>
</svg>
