<svg width="46" height="14" viewBox="0 0 46 14" fill="none" xmlns="http://www.w3.org/2000/svg">
  <g clip-path="url(#clip0_385_456)">
    <path d="M44.7328 9.1936C44.5101 9.1936 44.2966 9.28206 44.1391 9.43952C43.9816 9.59697 43.8932 9.81053 43.8932 10.0332C43.8932 10.2559 43.9816 10.4694 44.1391 10.6269C44.2966 10.7843 44.5101 10.8728 44.7328 10.8728C44.9555 10.8728 45.169 10.7843 45.3265 10.6269C45.4839 10.4694 45.5724 10.2559 45.5724 10.0332C45.5724 9.81053 45.4839 9.59697 45.3265 9.43952C45.169 9.28206 44.9555 9.1936 44.7328 9.1936Z" fill="#069DE0" />
    <path d="M44.7328 6.89478C44.5101 6.89478 44.2966 6.98323 44.1391 7.14069C43.9816 7.29814 43.8932 7.5117 43.8932 7.73438C43.8932 7.95705 43.9816 8.17061 44.1391 8.32806C44.2966 8.48552 44.5101 8.57398 44.7328 8.57398C44.9555 8.57398 45.169 8.48552 45.3265 8.32806C45.4839 8.17061 45.5724 7.95705 45.5724 7.73438C45.5724 7.5117 45.4839 7.29814 45.3265 7.14069C45.169 6.98323 44.9555 6.89478 44.7328 6.89478Z" fill="#6E55DC" />
    <path d="M44.7328 11.492C44.621 11.4895 44.5099 11.5094 44.4059 11.5505C44.3019 11.5916 44.2072 11.6531 44.1273 11.7312C44.0474 11.8094 43.9839 11.9028 43.9406 12.0058C43.8972 12.1089 43.8749 12.2196 43.8749 12.3314C43.8749 12.4432 43.8972 12.5539 43.9406 12.6569C43.9839 12.76 44.0474 12.8533 44.1273 12.9315C44.2072 13.0097 44.3019 13.0711 44.4059 13.1122C44.5099 13.1533 44.621 13.1732 44.7328 13.1708C44.9555 13.1708 45.169 13.0823 45.3265 12.9249C45.4839 12.7674 45.5724 12.5539 45.5724 12.3312C45.5724 12.1085 45.4839 11.8949 45.3265 11.7375C45.169 11.58 44.9555 11.492 44.7328 11.492Z" fill="#05AC3F" />
    <path d="M44.7328 4.5968C44.5101 4.5968 44.2966 4.68526 44.1391 4.84272C43.9816 5.00017 43.8932 5.21373 43.8932 5.4364C43.8932 5.65908 43.9816 5.87263 44.1391 6.03009C44.2966 6.18754 44.5101 6.276 44.7328 6.276C44.9555 6.276 45.169 6.18754 45.3265 6.03009C45.4839 5.87263 45.5724 5.65908 45.5724 5.4364C45.5724 5.21373 45.4839 5.00017 45.3265 4.84272C45.169 4.68526 44.9555 4.5968 44.7328 4.5968Z" fill="#EF1541" />
    <path d="M44.7328 2.29797C44.5101 2.29797 44.2966 2.38643 44.1391 2.54389C43.9816 2.70134 43.8932 2.9149 43.8932 3.13757C43.8932 3.36025 43.9816 3.57381 44.1391 3.73126C44.2966 3.88872 44.5101 3.97717 44.7328 3.97717C44.9555 3.97717 45.169 3.88872 45.3265 3.73126C45.4839 3.57381 45.5724 3.36025 45.5724 3.13757C45.5724 2.9149 45.4839 2.70134 45.3265 2.54389C45.169 2.38643 44.9555 2.29797 44.7328 2.29797Z" fill="#FF7112" />
    <path d="M44.7328 0C44.5101 0 44.2966 0.0884576 44.1391 0.245913C43.9816 0.403369 43.8932 0.616924 43.8932 0.8396C43.8932 1.06228 43.9816 1.27583 44.1391 1.43329C44.2966 1.59074 44.5101 1.6792 44.7328 1.6792C44.9555 1.6792 45.169 1.59074 45.3265 1.43329C45.4839 1.27583 45.5724 1.06228 45.5724 0.8396C45.5724 0.616924 45.4839 0.403369 45.3265 0.245913C45.169 0.0884576 44.9555 0 44.7328 0Z" fill="#FCCC12" />
    <path d="M2.9168 4.94123C1.6388 4.94123 0.653595 5.94323 0.653595 7.21283L0.655995 14H1.3872V7.22962C1.3872 6.29843 2.086 5.62203 2.9264 5.62203C3.7664 5.62203 4.4656 6.29843 4.4656 7.22962C4.4656 7.81762 4.1784 8.46083 3.4472 8.74723L1.3872 9.55482L1.3868 10.2376L1.4228 10.276L3.6108 9.36643C4.2684 9.07963 4.4892 8.86443 4.4912 8.86243C4.71518 8.64993 4.89354 8.39405 5.0154 8.11037C5.13726 7.82669 5.20007 7.52117 5.2 7.21243C5.20005 6.91315 5.14096 6.61682 5.02612 6.34046C4.91128 6.0641 4.74296 5.81317 4.53082 5.60207C4.31869 5.39098 4.06692 5.22389 3.79 5.11041C3.51308 4.99693 3.21646 4.9393 2.9172 4.94083L2.9168 4.94123Z" fill="url(#paint0_linear_385_456)" />
    <path d="M2.9268 4.30286C1.3128 4.30286 0 5.61606 0 7.22966V14.0001H0.6636V7.21366C0.663495 6.91648 0.721971 6.62219 0.835685 6.34762C0.949399 6.07306 1.11612 5.8236 1.32631 5.61352C1.53651 5.40344 1.78605 5.23685 2.06068 5.12328C2.3353 5.00971 2.62962 4.95139 2.9268 4.95166C3.22405 4.95129 3.51845 5.00953 3.79317 5.12305C4.06789 5.23657 4.31752 5.40315 4.5278 5.61324C4.73808 5.82333 4.90488 6.07282 5.01864 6.34744C5.1324 6.62206 5.19091 6.91641 5.1908 7.21366C5.19168 7.52086 5.12939 7.82497 5.0078 8.1071C4.88621 8.38922 4.70792 8.64333 4.484 8.85366C4.4824 8.85526 4.2668 9.06886 3.6068 9.35686L1.4212 10.2741L1.8948 10.7773L3.9332 9.97886C5.0988 9.52446 5.854 8.48126 5.854 7.22966C5.854 5.61526 4.5408 4.30286 2.9268 4.30286Z" fill="url(#paint1_linear_385_456)" />
    <path d="M2.9268 4.30286C1.3128 4.30286 0 5.61606 0 7.22966V14.0001H0.6636V7.21366C0.663495 6.91648 0.721971 6.62219 0.835685 6.34762C0.949399 6.07306 1.11612 5.8236 1.32631 5.61352C1.53651 5.40344 1.78605 5.23685 2.06068 5.12328C2.3353 5.00971 2.62962 4.95139 2.9268 4.95166C3.22405 4.95129 3.51845 5.00953 3.79317 5.12305C4.06789 5.23657 4.31752 5.40315 4.5278 5.61324C4.73808 5.82333 4.90488 6.07282 5.01864 6.34744C5.1324 6.62206 5.19091 6.91641 5.1908 7.21366C5.19168 7.52086 5.12939 7.82497 5.0078 8.1071C4.88621 8.38922 4.70792 8.64333 4.484 8.85366C4.4824 8.85526 4.2668 9.06886 3.6068 9.35686L1.4212 10.2741L1.8948 10.7773L3.9332 9.97886C5.0988 9.52446 5.854 8.48126 5.854 7.22966C5.854 5.61526 4.5408 4.30286 2.9268 4.30286Z" fill="url(#paint2_linear_385_456)" />
    <path d="M7.7508 7.84477H12.0184L12.012 7.83197L11.3388 7.17957L7.6204 7.18557C7.6172 7.41077 7.6724 7.65197 7.7508 7.84477Z" fill="url(#paint3_linear_385_456)" />
    <path d="M7.6376 7.20915L11.3248 7.21075L10.6208 6.57715H7.762C7.68015 6.77782 7.63791 6.99243 7.6376 7.20915Z" fill="white" />
    <path d="M9.218 8.81836C8.8579 8.82165 8.50863 8.69529 8.234 8.46236V8.46316L8.2252 8.45516C8.0345 8.28973 7.88715 8.08018 7.796 7.84476C7.71597 7.64342 7.67524 7.42862 7.676 7.21196C7.676 6.98596 7.7192 6.77196 7.798 6.57716C7.8048 6.55996 7.8128 6.54356 7.8204 6.52676L7.83 6.50516C7.91815 6.31012 8.04529 6.1352 8.2036 5.99116C8.2136 5.98196 8.2236 5.97196 8.234 5.96316V5.96476C8.50783 5.72985 8.85722 5.6016 9.218 5.60356C9.8812 5.60356 10.3792 6.00236 10.5884 6.57676L11.3344 7.22036C11.3532 6.58676 11.1244 5.99356 10.7136 5.57236C10.3192 5.16796 9.7712 4.94556 9.188 4.94556C7.944 4.94556 6.918 5.96636 6.918 7.21036C6.918 8.45436 7.9396 9.47716 9.184 9.47716C9.912 9.47716 10.5904 9.12316 11.012 8.54676L10.4912 8.18556C10.3576 8.40596 9.9312 8.81836 9.218 8.81836Z" fill="url(#paint4_linear_385_456)" />
    <path d="M9.188 9.47406C7.9708 9.47406 6.926 8.46166 6.926 7.21086C6.926 5.96046 7.9764 4.94526 9.188 4.94766C9.7532 4.94846 10.3136 5.16926 10.7104 5.57566C11.1252 6.00126 11.3388 6.58166 11.324 7.21086L12.018 7.84486C12.0618 7.63635 12.0842 7.42391 12.0848 7.21086C12.0848 5.59686 10.8316 4.28406 9.218 4.28406C7.604 4.28406 6.2908 5.59726 6.2908 7.21086C6.2908 8.82446 7.6044 10.1377 9.218 10.1377C10.178 10.1377 11.0872 9.67286 11.6048 8.95646L11.0116 8.54686C10.58 9.12406 9.9112 9.47406 9.188 9.47406Z" fill="url(#paint5_linear_385_456)" />
    <path d="M17.0484 4.98323V4.45483H17.7252V6.88523L17.7196 6.83443C17.652 6.22403 17.3628 5.46283 17.0484 4.98323ZM17.3304 8.95043C17.2424 9.13643 17.1464 9.28963 17.0484 9.43843V9.96723H17.7252V7.50363L17.714 7.66083C17.67 8.05323 17.5376 8.51403 17.3304 8.95043Z" fill="#EEEFEF" />
    <path d="M17.7252 7.39206V7.22046L17.7196 7.02046L17.7 7.13566L17.708 7.44926C17.5948 8.59246 16.6092 9.48326 15.4972 9.48326C14.2652 9.48326 13.2692 8.47126 13.2692 7.22046C13.2692 5.99806 14.2652 4.95766 15.4972 4.95766C16.6316 4.95766 17.5948 5.84806 17.7084 6.99166L17.7252 7.22046V6.89726C17.7196 6.36286 17.446 5.57046 17.0632 5.00646C17.0583 4.99874 17.0533 4.99101 17.0484 4.98326C16.5776 4.49366 15.9552 4.28406 15.2988 4.28406C13.9408 4.28406 12.558 5.51686 12.558 7.21086C12.558 8.90486 13.9408 10.1377 15.2988 10.1377C15.9516 10.1377 16.5704 9.92966 17.04 9.44686C17.374 8.99086 17.744 8.07646 17.7252 7.39206Z" fill="url(#paint6_linear_385_456)" />
    <path d="M17.7252 7.39206V7.22046L17.7196 7.02046L17.7 7.13566L17.708 7.44926C17.5948 8.59246 16.6092 9.48326 15.4972 9.48326C14.2652 9.48326 13.2692 8.47126 13.2692 7.22046C13.2692 5.99806 14.2652 4.95766 15.4972 4.95766C16.6316 4.95766 17.5948 5.84806 17.7084 6.99166L17.7252 7.22046V6.89726C17.7196 6.36286 17.446 5.57046 17.0632 5.00646C17.0583 4.99874 17.0533 4.99101 17.0484 4.98326C16.5776 4.49366 15.9552 4.28406 15.2988 4.28406C13.9408 4.28406 12.558 5.51686 12.558 7.21086C12.558 8.90486 13.9408 10.1377 15.2988 10.1377C15.9516 10.1377 16.5704 9.92966 17.04 9.44686C17.374 8.99086 17.744 8.07646 17.7252 7.39206Z" fill="url(#paint7_linear_385_456)" fill-opacity="0.2" />
    <path d="M15.5164 4.92798C14.286 4.92798 13.2608 5.95598 13.2608 7.21598C13.2608 8.47678 14.2184 9.51198 15.5168 9.51198C16.7468 9.51198 17.7484 8.48078 17.7484 7.21998C17.7484 5.95998 16.7476 4.92798 15.5164 4.92798ZM15.5284 8.77798C14.65 8.77798 13.9824 8.07958 13.9824 7.19318C13.9824 6.30678 14.6656 5.60678 15.5284 5.60798C16.3988 5.60918 17.0428 6.33198 17.0484 7.20558C17.0488 8.09158 16.4064 8.77798 15.5284 8.77798Z" fill="url(#paint8_linear_385_456)" />
    <path d="M18.436 4.45483H17.7244V9.96683H18.4364L18.436 4.45483Z" fill="url(#paint9_linear_385_456)" />
    <path d="M21.8984 5.60163C22.5012 5.60163 22.9944 5.92803 23.2496 6.41923L23.8036 5.99443C23.3956 5.32363 22.6812 4.90723 21.9036 4.90723C20.6692 4.90723 19.6488 5.95163 19.6488 7.22323C19.6488 8.49523 20.6692 9.54963 21.9032 9.54963C22.6872 9.54963 23.4116 9.11763 23.818 8.43523L23.25 7.99923C23.1233 8.24783 22.9296 8.4561 22.6909 8.60055C22.4522 8.74501 22.1778 8.81992 21.8988 8.81683C21.0108 8.81683 20.3596 8.10803 20.3596 7.20963C20.3592 6.30963 21.0264 5.60163 21.8984 5.60163Z" fill="url(#paint10_linear_385_456)" />
    <path d="M21.8984 5.60163C22.5012 5.60163 22.9944 5.92803 23.2496 6.41923L23.8036 5.99443C23.3956 5.32363 22.6812 4.90723 21.9036 4.90723C20.6692 4.90723 19.6488 5.95163 19.6488 7.22323C19.6488 8.49523 20.6692 9.54963 21.9032 9.54963C22.6872 9.54963 23.4116 9.11763 23.818 8.43523L23.25 7.99923C23.1233 8.24783 22.9296 8.4561 22.6909 8.60055C22.4522 8.74501 22.1778 8.81992 21.8988 8.81683C21.0108 8.81683 20.3596 8.10803 20.3596 7.20963C20.3592 6.30963 21.0264 5.60163 21.8984 5.60163Z" fill="url(#paint11_linear_385_456)" />
    <path d="M21.9028 9.53602C20.6908 9.53602 19.6584 8.50122 19.6584 7.22322C19.6584 5.94482 20.6944 4.91162 21.9028 4.91162C22.6748 4.91162 23.3928 5.32042 23.8028 5.99402L24.3336 5.58722C24.0665 5.18578 23.7044 4.85654 23.2794 4.62876C22.8544 4.40099 22.3798 4.28174 21.8976 4.28162C20.2836 4.28162 18.9712 5.59482 18.9712 7.20842C18.9712 8.82202 20.2844 10.1352 21.898 10.1352C22.3801 10.1351 22.8546 10.0158 23.2795 9.78815C23.7044 9.56045 24.0665 9.23133 24.3336 8.83002L23.8172 8.43402C23.4092 9.11962 22.6624 9.53602 21.9028 9.53602Z" fill="url(#paint12_linear_385_456)" />
    <path d="M27.4096 4.28162C25.7956 4.28162 24.4828 5.59482 24.4828 7.20842C24.4828 8.82282 25.796 10.1352 27.4096 10.1352C29.0236 10.1352 30.3364 8.82202 30.3364 7.20842C30.3364 5.59482 29.0232 4.28162 27.4096 4.28162ZM27.4096 9.42562C26.2076 9.42562 25.2356 8.43882 25.2356 7.21842C25.2356 5.99842 26.2076 5.01162 27.4096 5.01162C28.6116 5.01162 29.5844 5.99842 29.5844 7.21842C29.5844 8.43842 28.6116 9.42602 27.4096 9.42602V9.42562Z" fill="url(#paint13_linear_385_456)" />
    <path d="M27.4096 4.896C26.1508 4.896 25.1216 5.9112 25.1216 7.2188C25.1216 8.5428 26.1508 9.5428 27.4096 9.5428C28.7232 9.5428 29.6988 8.4972 29.6988 7.2188C29.6988 5.9168 28.6684 4.896 27.4096 4.896ZM27.4096 8.816C26.5216 8.816 25.8704 8.108 25.8704 7.2092C25.8704 6.3104 26.5372 5.6016 27.4096 5.6016C28.2976 5.6016 28.9488 6.3104 28.9488 7.2092C28.9488 8.1076 28.2976 8.816 27.4096 8.816Z" fill="url(#paint14_linear_385_456)" />
    <path d="M33.7488 5.60163C34.3516 5.60163 34.8448 5.92803 35.1 6.41923L35.654 5.99443C35.246 5.32363 34.5316 4.90723 33.754 4.90723C32.5196 4.90723 31.4992 5.95163 31.4992 7.22323C31.4992 8.49523 32.5196 9.54963 33.7536 9.54963C34.5376 9.54963 35.262 9.11763 35.6684 8.43523L35.1004 7.99923C34.9737 8.24783 34.78 8.4561 34.5413 8.60055C34.3026 8.74501 34.0282 8.81992 33.7492 8.81683C32.8612 8.81683 32.21 8.10803 32.21 7.20963C32.21 6.30963 32.8768 5.60163 33.7488 5.60163Z" fill="url(#paint15_linear_385_456)" />
    <path d="M33.7532 9.53602C32.5412 9.53602 31.5088 8.50122 31.5088 7.22322C31.5088 5.94482 32.5448 4.91162 33.7532 4.91162C34.5252 4.91162 35.2432 5.32042 35.6532 5.99402L36.184 5.58722C35.9169 5.18578 35.5548 4.85654 35.1298 4.62876C34.7048 4.40099 34.2302 4.28174 33.748 4.28162C32.134 4.28162 30.8216 5.59482 30.8216 7.20842C30.8216 8.82202 32.1348 10.1352 33.7484 10.1352C34.2305 10.1351 34.705 10.0158 35.1299 9.78815C35.5548 9.56045 35.9169 9.23133 36.184 8.83002L35.6676 8.43402C35.2596 9.11962 34.5128 9.53602 33.7532 9.53602Z" fill="url(#paint16_linear_385_456)" />
    <path d="M38.1004 1.45243H37.38V9.96723H38.1008V1.45203L38.1004 1.45243Z" fill="white" />
    <path d="M39.3468 7.09238L39.3348 7.07678L38.8596 7.57638L38.8708 7.59158L38.8692 7.59318L40.5072 9.96678H41.3196L39.3468 7.09238Z" fill="url(#paint17_linear_385_456)" />
    <path d="M41.2992 9.96723H42.1876L40.052 7.01203L39.4232 7.00843H39.4132L39.332 7.09563L39.336 7.10163L41.2992 9.96723ZM37.404 8.21123L37.4092 8.21323L40.93 4.45483H40.0464L38.1008 6.55603L37.404 8.19803V8.21123Z" fill="white" />
    <path d="M41.8404 4.45483H40.9048L37.404 8.20523V8.21203L38.1008 8.40123L38.844 7.62123L39.4276 7.00843L41.8404 4.45483Z" fill="url(#paint18_linear_385_456)" />
    <path d="M37.404 1.45243H36.712V9.96723H37.4032V1.45203L37.404 1.45243Z" fill="url(#paint19_linear_385_456)" />
  </g>
  <defs>
    <linearGradient id="paint0_linear_385_456" x1="0.10926" y1="9.20079" x2="3.60846" y2="6.01434" gradientUnits="userSpaceOnUse">
      <stop stop-color="white" />
      <stop offset="0.498295" stop-color="white" />
      <stop offset="1" stop-color="#D7D9D9" />
    </linearGradient>
    <linearGradient id="paint1_linear_385_456" x1="7.84523e-08" y1="7.83006" x2="1.5433" y2="11.0755" gradientUnits="userSpaceOnUse">
      <stop stop-color="white" />
      <stop offset="1" stop-color="#C7C7C7" />
    </linearGradient>
    <linearGradient id="paint2_linear_385_456" x1="0.476608" y1="9.75918" x2="1.45252" y2="9.35066" gradientUnits="userSpaceOnUse">
      <stop stop-color="#F3F4F4" />
      <stop offset="0.965572" stop-color="#F1F2F2" stop-opacity="0" />
    </linearGradient>
    <linearGradient id="paint3_linear_385_456" x1="11.7606" y1="7.64297" x2="7.9704" y2="7.50677" gradientUnits="userSpaceOnUse">
      <stop stop-color="#D1D3D4" />
      <stop offset="1" stop-color="white" />
    </linearGradient>
    <linearGradient id="paint4_linear_385_456" x1="9.12352" y1="9.691" x2="9.46396" y2="4.94764" gradientUnits="userSpaceOnUse">
      <stop offset="0.0776933" stop-color="white" />
      <stop offset="0.494884" stop-color="white" />
      <stop offset="1" stop-color="#D1D3D4" />
    </linearGradient>
    <linearGradient id="paint5_linear_385_456" x1="7.14892" y1="10.1223" x2="10.7348" y2="3.4725" gradientUnits="userSpaceOnUse">
      <stop stop-color="#D1D3D4" />
      <stop offset="0.18053" stop-color="#D1D3D4" />
      <stop offset="0.587164" stop-color="white" />
      <stop offset="1" stop-color="white" />
    </linearGradient>
    <linearGradient id="paint6_linear_385_456" x1="14.3435" y1="10.372" x2="16.6322" y2="4.3149" gradientUnits="userSpaceOnUse">
      <stop offset="0.102765" stop-color="#D1D3D4" />
      <stop offset="0.714066" stop-color="white" />
    </linearGradient>
    <linearGradient id="paint7_linear_385_456" x1="18.0882" y1="6.35486" x2="16.0683" y2="7.39882" gradientUnits="userSpaceOnUse">
      <stop stop-opacity="0.81" />
      <stop offset="1" stop-opacity="0" />
    </linearGradient>
    <linearGradient id="paint8_linear_385_456" x1="14.7974" y1="9.82718" x2="15.8716" y2="3.83688" gradientUnits="userSpaceOnUse">
      <stop offset="0.0582393" stop-color="white" />
      <stop offset="0.540432" stop-color="#F5F6F6" />
      <stop offset="0.758799" stop-color="#D1D3D4" />
      <stop offset="0.893715" stop-color="#EAEAEA" />
    </linearGradient>
    <linearGradient id="paint9_linear_385_456" x1="18.4364" y1="6.84867" x2="17.7101" y2="6.84867" gradientUnits="userSpaceOnUse">
      <stop stop-color="#F6F7F7" />
      <stop offset="1" stop-color="white" />
    </linearGradient>
    <linearGradient id="paint10_linear_385_456" x1="24.8289" y1="8.91939" x2="23.6033" y2="5.71931" gradientUnits="userSpaceOnUse">
      <stop stop-color="white" />
      <stop offset="0.293501" stop-color="white" />
      <stop offset="0.658991" stop-color="#EEEEEE" />
      <stop offset="0.906692" stop-color="#D1D3D4" />
    </linearGradient>
    <linearGradient id="paint11_linear_385_456" x1="19.9493" y1="7.21723" x2="22.582" y2="7.85267" gradientUnits="userSpaceOnUse">
      <stop stop-color="white" stop-opacity="0.59" />
      <stop offset="1" stop-color="white" stop-opacity="0" />
    </linearGradient>
    <linearGradient id="paint12_linear_385_456" x1="21.8557" y1="10.4854" x2="21.4372" y2="3.47743" gradientUnits="userSpaceOnUse">
      <stop stop-color="#D1D3D4" />
      <stop offset="0.18053" stop-color="#D1D3D4" />
      <stop offset="0.329435" stop-color="#E9EAEA" />
      <stop offset="0.642301" stop-color="white" />
      <stop offset="0.977532" stop-color="white" />
      <stop offset="1" stop-color="white" />
    </linearGradient>
    <linearGradient id="paint13_linear_385_456" x1="26.4405" y1="10.8485" x2="29.4505" y2="4.58134" gradientUnits="userSpaceOnUse">
      <stop offset="0.0536517" stop-color="#D1D3D4" />
      <stop offset="0.661863" stop-color="#FCFCFC" />
      <stop offset="0.935543" stop-color="white" />
    </linearGradient>
    <linearGradient id="paint14_linear_385_456" x1="26.5995" y1="9.97652" x2="28.1125" y2="5.07896" gradientUnits="userSpaceOnUse">
      <stop offset="0.0539332" stop-color="white" />
      <stop offset="0.205793" stop-color="white" />
      <stop offset="0.906692" stop-color="#D3D5D6" />
    </linearGradient>
    <linearGradient id="paint15_linear_385_456" x1="34.5913" y1="10.4173" x2="36.2707" y2="4.90227" gradientUnits="userSpaceOnUse">
      <stop stop-color="white" />
      <stop offset="0.293501" stop-color="white" />
      <stop offset="0.658991" stop-color="#EEEEEE" />
      <stop offset="0.906692" stop-color="#D1D3D4" />
    </linearGradient>
    <linearGradient id="paint16_linear_385_456" x1="33.706" y1="10.4854" x2="33.2876" y2="3.47743" gradientUnits="userSpaceOnUse">
      <stop stop-color="#D1D3D4" />
      <stop offset="0.18053" stop-color="#D1D3D4" />
      <stop offset="0.329435" stop-color="#E9EAEA" />
      <stop offset="0.642301" stop-color="white" />
      <stop offset="0.977532" stop-color="white" />
      <stop offset="1" stop-color="white" />
    </linearGradient>
    <linearGradient id="paint17_linear_385_456" x1="39.3087" y1="7.32114" x2="40.0228" y2="9.92402" gradientUnits="userSpaceOnUse">
      <stop stop-color="white" />
      <stop offset="0.391844" stop-color="#F1F2F2" />
      <stop offset="0.729895" stop-color="#E6E7E7" />
      <stop offset="1" stop-color="#D3D5D6" />
    </linearGradient>
    <linearGradient id="paint18_linear_385_456" x1="41.2156" y1="4.43883" x2="37.5841" y2="8.25171" gradientUnits="userSpaceOnUse">
      <stop stop-color="#EEEFEF" />
      <stop offset="0.391844" stop-color="#F1F2F2" />
      <stop offset="0.729895" stop-color="#E8E9EA" />
      <stop offset="1" stop-color="#E6E7E8" />
    </linearGradient>
    <linearGradient id="paint19_linear_385_456" x1="37.0393" y1="1.6246" x2="37.0393" y2="9.84039" gradientUnits="userSpaceOnUse">
      <stop stop-color="#F1F2F2" />
      <stop offset="0.391844" stop-color="#F1F2F2" />
      <stop offset="0.729895" stop-color="#E6E7E7" />
      <stop offset="1" stop-color="#D3D5D6" />
    </linearGradient>
    <clipPath id="clip0_385_456">
      <rect width="45.6" height="14" fill="white" />
    </clipPath>
  </defs>
</svg>
