<svg width="46" height="14" viewBox="0 0 46 14" fill="none" xmlns="http://www.w3.org/2000/svg">
  <g clip-path="url(#clip0_391_708)">
    <path d="M2.93963 4.32439C1.31811 4.32439 0 5.63391 0 7.24486V14H1.3939V10.2505L1.90599 10.7873L3.95433 9.98676C5.12087 9.53448 5.87952 8.4885 5.87952 7.24512C5.87952 5.63416 4.56141 4.32439 2.93963 4.32439ZM3.46145 8.76195L1.39416 9.56272V7.24512C1.39416 6.31232 2.09597 5.64357 2.93989 5.64357C3.78381 5.64357 4.48562 6.32174 4.48562 7.24512C4.48562 7.82916 4.20116 8.46993 3.46145 8.76195ZM27.539 4.32439C25.9175 4.32439 24.5994 5.63391 24.5994 7.24486C24.5994 8.85581 25.9175 10.1653 27.539 10.1653C29.1605 10.1653 30.4786 8.85581 30.4786 7.24486C30.4786 5.63391 29.1605 4.32439 27.539 4.32439ZM27.539 8.84666C26.6477 8.84666 25.9933 8.14026 25.9933 7.24512C25.9933 6.34997 26.6666 5.64357 27.539 5.64357C28.4303 5.64357 29.0847 6.34997 29.0847 7.24512C29.0847 8.14026 28.4303 8.84666 27.539 8.84666ZM33.9022 5.64357C34.5087 5.64357 35.0019 5.97324 35.2582 6.46317L36.3487 5.63416C35.8176 4.85222 34.9263 4.33406 33.9022 4.33406C32.2804 4.33406 30.9623 5.64357 30.9623 7.25453C30.9623 8.86548 32.2804 10.175 33.9022 10.175C34.9169 10.175 35.8174 9.65684 36.3487 8.87489L35.2582 8.04563C35.0019 8.53581 34.5087 8.86548 33.9022 8.86548C33.0106 8.86548 32.3564 8.15908 32.3564 7.26394C32.3564 6.3688 33.0296 5.64357 33.9022 5.64357ZM22.0102 5.64357C22.6173 5.64357 23.1105 5.97324 23.3665 6.46317L24.457 5.63416C23.926 4.85222 23.0344 4.33406 22.0102 4.33406C20.3887 4.33406 19.0706 5.64357 19.0706 7.25453C19.0706 8.86548 20.3887 10.175 22.0102 10.175C23.0249 10.175 23.926 9.65684 24.457 8.87489L23.3665 8.04563C23.1105 8.53581 22.6173 8.86548 22.0102 8.86548C21.119 8.86548 20.4645 8.15908 20.4645 7.26394C20.4645 6.3688 21.1284 5.64357 22.0102 5.64357ZM17.136 5.02163C16.6618 4.5317 16.036 4.32464 15.3815 4.32464C14.0158 4.32464 12.6316 5.55887 12.6316 7.24512C12.6316 8.93136 14.0158 10.1656 15.3815 10.1656C16.036 10.1656 16.6618 9.95853 17.136 9.4686V9.99617H18.5301V4.50321H17.136V5.02163ZM15.5902 8.84666C14.6992 8.84666 14.0255 8.14026 14.0255 7.24512C14.0255 6.34997 14.7179 5.64357 15.5902 5.64357C16.4818 5.64357 17.136 6.34997 17.136 7.24512C17.136 8.14026 16.4818 8.84666 15.5902 8.84666ZM40.2272 7.04721H39.6014L42.0195 4.49406H40.2272L38.2736 6.58578V1.49829H36.8797V9.99643H38.2736V8.43254L39.0417 7.6221L40.6822 9.99643H42.3703L40.2272 7.04721ZM9.2744 4.32439C7.65288 4.32439 6.33477 5.63391 6.33477 7.24486C6.33477 8.85581 7.65288 10.1653 9.2744 10.1653C10.2417 10.1653 11.152 9.7039 11.6738 8.98783L10.5546 8.2153C10.4217 8.43203 9.99516 8.84615 9.2744 8.84615C8.61073 8.84615 8.06997 8.4506 7.8426 7.87596H12.0817C12.1293 7.6689 12.1482 7.46159 12.1482 7.24486C12.1572 5.63416 10.8962 4.32439 9.2744 4.32439ZM7.85208 6.61376C8.0797 6.03887 8.62021 5.64357 9.2744 5.64357C9.93832 5.64357 10.4409 6.03913 10.6496 6.61376H7.85208Z" fill="black"/>
    <path d="M44.9026 9.16711C44.4378 9.16711 44.0584 9.54384 44.0584 10.0058C44.0584 10.4672 44.4376 10.8439 44.9026 10.8439C45.367 10.8439 45.7465 10.4675 45.7465 10.0058C45.7465 9.54384 45.3673 9.16711 44.9026 9.16711Z" fill="#069DE0"/>
    <path d="M44.9026 6.87781C44.4378 6.87781 44.0584 7.25454 44.0584 7.71648C44.0584 8.17792 44.4376 8.55464 44.9026 8.55464C45.367 8.55464 45.7465 8.17817 45.7465 7.71648C45.737 7.24512 45.3673 6.87781 44.9026 6.87781Z" fill="#6E55DC"/>
    <path d="M44.9026 11.4565C44.4378 11.4565 44.0584 11.8333 44.0584 12.2952C44.0584 12.7566 44.4376 13.1334 44.9026 13.1334C45.367 13.1334 45.7465 12.7569 45.7465 12.2952C45.7465 11.8333 45.3673 11.4565 44.9026 11.4565Z" fill="#05AC3F"/>
    <path d="M44.9026 4.57874C44.4378 4.57874 44.0584 4.95546 44.0584 5.41741C44.0584 5.87884 44.4376 6.25583 44.9026 6.25583C45.367 6.25583 45.7465 5.8791 45.7465 5.41741C45.737 4.95572 45.3673 4.57874 44.9026 4.57874Z" fill="#EF1541"/>
    <path d="M44.9026 2.28943C44.4378 2.28943 44.0584 2.66616 44.0584 3.1281C44.0584 3.58954 44.4376 3.96652 44.9026 3.96652C45.367 3.96652 45.7465 3.58979 45.7465 3.1281C45.737 2.66641 45.3673 2.28943 44.9026 2.28943Z" fill="#FF7112"/>
    <path d="M44.9026 0C44.4378 0 44.0584 0.376728 44.0584 0.838672C44.0584 1.30011 44.4376 1.67709 44.9026 1.67709C45.367 1.67709 45.7465 1.30036 45.7465 0.838672C45.737 0.376983 45.3673 0 44.9026 0Z" fill="#FCCC12"/>
  </g>
  <defs>
    <clipPath id="clip0_391_708">
      <rect width="45.7465" height="14" fill="white"/>
    </clipPath>
  </defs>
</svg>
