<svg width="225" height="225" viewBox="0 0 225 225" fill="none" xmlns="http://www.w3.org/2000/svg">
  <g clip-path="url(#bg)">
    <path d="M225 0H0V225H225V0Z" fill="#005A91"/>
    <g clip-path="url(#sbs)">
      <path d="M86.6048 111.241L75.937 101.452C75.1874 100.779 74.7272 99.859 74.7272 98.8027C74.7272 96.7632 76.4808 95.1038 78.6388 95.1038H90.4431V90H72.3915C66.7926 90 62.1385 93.7686 62.1385 99.6742C62.1385 102.198 63.16 104.492 64.8369 106.214C66.0919 107.403 76.1496 116.889 77.4081 118.074C77.4081 118.074 79.5243 119.605 78.7887 122.129C78.0531 124.653 74.8458 124.653 73.643 124.653H62.142V135H79.594C86.6536 135 92.3779 129.603 92.3779 122.941V122.847C92.5732 117.869 89.8957 114.295 86.6048 111.241" fill="white"/>
      <path d="M157.075 111.241L146.41 101.452C145.661 100.779 145.201 99.859 145.201 98.8027C145.201 96.7632 146.954 95.1038 149.112 95.1038H160.913V90H142.865C137.266 90 132.612 93.7686 132.612 99.6742C132.612 102.198 133.634 104.492 135.31 106.214C136.565 107.403 146.623 116.889 147.878 118.074C147.878 118.074 149.998 119.605 149.262 122.129C148.527 124.653 145.319 124.653 144.113 124.653H132.612V135H150.068C157.127 135 162.851 129.603 162.851 122.941V122.847C163.047 117.869 160.369 114.295 157.075 111.241" fill="white"/>
      <path d="M121.118 109.258C125.692 107.856 128.063 104.492 128.063 99.7649C128.063 96.5959 126.56 93.9429 124.203 92.2138C120.815 89.878 115.735 90.0593 115.735 90.0593C115.732 90.0593 115.732 90.0488 115.732 90.0488H95.8118C95.8118 94.5426 95.8187 130.499 95.8187 134.997H117.011C118.8 134.913 122.575 134.421 125.633 131.929C128.345 129.537 130.179 125.964 130.179 121.937C130.179 116.534 127.163 111.322 121.118 109.258V109.258ZM111.371 95.1875C112.096 95.1875 117.099 95.1875 117.51 100.051C117.806 103.54 115.432 105.719 111.601 105.719H106.588V95.1875H111.371V95.1875ZM106.588 124.66V112.685H112.106C112.831 112.685 118.406 112.688 118.821 118.221C119.117 122.181 116.168 124.66 112.333 124.66H106.588V124.66Z" fill="white"/>
    </g>
  </g>
  <defs>
    <clipPath id="bg">
      <rect width="225" height="225" fill="white"/>
    </clipPath>
    <clipPath id="sbs">
      <rect width="100.723" height="45" fill="white" transform="translate(62.1385 90)"/>
    </clipPath>
  </defs>
</svg>
