<svg width="57" height="26" viewBox="0 0 57 26" fill="none" xmlns="http://www.w3.org/2000/svg">
  <path d="M13.6498 12.2088L7.72328 6.77029C7.30687 6.39649 7.05122 5.88518 7.05122 5.29834C7.05122 4.16532 8.02542 3.24341 9.22429 3.24341H15.7822V0.407959H5.75357C2.6431 0.407959 0.0574951 2.50162 0.0574951 5.78253C0.0574951 7.18476 0.624971 8.45917 1.55656 9.41594C2.25381 10.0764 7.84142 15.3464 8.5406 16.0049C8.5406 16.0049 9.71623 16.8551 9.30757 18.2574C8.89891 19.6596 7.11707 19.6596 6.44888 19.6596H0.0594279V25.408H9.75496C13.6769 25.408 16.8571 22.4098 16.8571 18.7086V18.6563C16.9656 15.8906 15.4782 13.9054 13.6498 12.2088" fill="#005A91"/>
  <path d="M52.7999 12.2088L46.8753 6.77029C46.4589 6.39649 46.2032 5.88518 46.2032 5.29834C46.2032 4.16532 47.1774 3.24341 48.3763 3.24341H54.9323V0.407959H44.9055C41.7951 0.407959 39.2095 2.50162 39.2095 5.78253C39.2095 7.18476 39.7769 8.45917 40.7085 9.41594C41.4058 10.0764 46.9934 15.3464 47.6906 16.0049C47.6906 16.0049 48.8682 16.8551 48.4596 18.2574C48.0509 19.6596 46.269 19.6596 45.5989 19.6596H39.2095V25.408H48.9069C52.8289 25.408 56.0091 22.4098 56.0091 18.7086V18.6563C56.1176 15.8906 54.6301 13.9054 52.7999 12.2088" fill="#005A91"/>
  <path d="M32.824 11.1067C35.3651 10.3281 36.6821 8.45915 36.6821 5.83288C36.6821 4.07234 35.8473 2.59845 34.5381 1.6378C32.6555 0.340158 29.8336 0.440869 29.8336 0.440869C29.8317 0.440869 29.8317 0.435059 29.8317 0.435059H18.7649C18.7649 2.93157 18.7688 22.9076 18.7688 25.406H30.5425C31.536 25.3595 33.6336 25.0864 35.3321 23.7016C36.839 22.373 37.8577 20.3878 37.8577 18.1508C37.8577 15.1488 36.1824 12.2533 32.824 11.1067V11.1067ZM27.4088 3.28988C27.8116 3.28988 30.5909 3.28988 30.8194 5.99169C30.9841 7.93041 29.6651 9.1409 27.5366 9.1409H24.7515V3.28988H27.4088V3.28988ZM24.7515 19.6634V13.0106H27.8174C28.2203 13.0106 31.3172 13.0125 31.5477 16.0862C31.7123 18.2864 30.0738 19.6634 27.9433 19.6634H24.7515V19.6634Z" fill="#005A91"/>
</svg>
