<svg width="56" height="26" viewBox="0 0 56 26" fill="none" xmlns="http://www.w3.org/2000/svg">
  <path d="M13.6137 12.2088L7.68715 6.77029C7.27074 6.39649 7.01508 5.88518 7.01508 5.29834C7.01508 4.16532 7.98929 3.24341 9.18815 3.24341H15.7461V0.407959H5.71744C2.60697 0.407959 0.0213623 2.50162 0.0213623 5.78253C0.0213623 7.18476 0.588838 8.45917 1.52043 9.41594C2.21767 10.0764 7.80529 15.3464 8.50447 16.0049C8.50447 16.0049 9.6801 16.8551 9.27143 18.2574C8.86277 19.6596 7.08094 19.6596 6.41275 19.6596H0.0232951V25.408H9.71883C13.6408 25.408 16.821 22.4098 16.821 18.7086V18.6563C16.9295 15.8906 15.442 13.9054 13.6137 12.2088" fill="white"/>
  <path d="M52.7637 12.2088L46.8391 6.77029C46.4227 6.39649 46.1671 5.88518 46.1671 5.29834C46.1671 4.16532 47.1413 3.24341 48.3401 3.24341H54.8961V0.407959H44.8694C41.7589 0.407959 39.1733 2.50162 39.1733 5.78253C39.1733 7.18476 39.7408 8.45917 40.6724 9.41594C41.3696 10.0764 46.9573 15.3464 47.6545 16.0049C47.6545 16.0049 48.8321 16.8551 48.4234 18.2574C48.0148 19.6596 46.2329 19.6596 45.5628 19.6596H39.1733V25.408H48.8708C52.7928 25.408 55.973 22.4098 55.973 18.7086V18.6563C56.0815 15.8906 54.594 13.9054 52.7637 12.2088" fill="white"/>
  <path d="M32.7879 11.1067C35.3289 10.3281 36.6459 8.45915 36.6459 5.83288C36.6459 4.07234 35.8112 2.59845 34.5019 1.6378C32.6194 0.340158 29.7975 0.440869 29.7975 0.440869C29.7955 0.440869 29.7955 0.435059 29.7955 0.435059H18.7288C18.7288 2.93157 18.7326 22.9076 18.7326 25.406H30.5063C31.4999 25.3595 33.5974 25.0864 35.296 23.7016C36.8028 22.373 37.8216 20.3878 37.8216 18.1508C37.8216 15.1488 36.1462 12.2533 32.7879 11.1067V11.1067ZM27.3726 3.28988C27.7755 3.28988 30.5548 3.28988 30.7833 5.99169C30.9479 7.93041 29.629 9.1409 27.5005 9.1409H24.7154V3.28988H27.3726V3.28988ZM24.7154 19.6634V13.0106H27.7813C28.1841 13.0106 31.2811 13.0125 31.5115 16.0862C31.6762 18.2864 30.0376 19.6634 27.9072 19.6634H24.7154V19.6634Z" fill="white"/>
</svg>
