<svg width="225" height="225" viewBox="0 0 225 225" fill="none" xmlns="http://www.w3.org/2000/svg">
  <g clip-path="url(#sky)">
    <path d="M225 0H0V225H225V0Z" fill="black"/>
    <path d="M144.828 162.872C146.216 163.566 149.055 164.449 152.587 164.576C158.769 164.702 162.049 162.368 164.572 156.817L197.5 82.9503C196.112 82.2564 193.148 81.3733 190.687 81.3733C186.461 81.3103 180.784 82.1303 177.188 90.8353L166.528 116.13L145.648 81.878C144.324 81.4995 140.981 80.8687 138.647 80.8687C131.266 80.8687 127.103 83.5811 122.814 88.249L102.502 110.642L118.84 136.505C121.867 141.236 125.841 143.633 132.276 143.633C136.502 143.633 140.034 142.624 141.674 141.867L122.057 112.03L135.934 97.1433L158.832 133.288L144.828 162.872ZM101.619 134.928C101.619 140.353 99.5371 143.507 88.9397 143.507C87.4889 143.507 86.3534 143.444 85.1549 143.255V71.0282C85.1549 65.5403 86.9842 59.8 97.6447 59.8C99.0325 59.8 100.357 59.9893 101.619 60.2416V134.928ZM79.8562 124.015C79.8562 134.171 73.2959 141.615 59.8599 143.065C50.1456 144.138 36.1419 142.876 29.4555 142.119C29.2032 141.047 29.0139 139.659 29.0139 138.587C29.0139 129.692 33.7449 127.674 38.2236 127.674C42.8915 127.674 50.2087 128.494 55.6336 128.494C61.6262 128.494 63.4555 126.475 63.4555 124.52C63.4555 121.997 61.0584 120.924 56.4536 120.041L43.7115 117.581C33.1772 115.563 27.5 108.182 27.5 100.423C27.5 90.8984 34.1865 82.9503 47.3071 81.4995C57.2106 80.4271 69.3219 81.6257 75.9453 82.4457C76.1976 83.5811 76.2607 84.6535 76.2607 85.852C76.2607 94.6832 71.6558 96.5756 67.1772 96.5756C63.7078 96.5756 58.4091 95.9448 52.3534 95.9448C46.1716 95.9448 43.5853 97.6479 43.5853 99.7926C43.5853 102 46.0455 102.947 49.8933 103.577L62.0046 105.848C74.4944 108.182 79.8562 115.31 79.8562 124.015Z" fill="white"/>
  </g>
  <defs>
    <clipPath id="sky">
      <rect width="225" height="225" fill="white"/>
    </clipPath>
  </defs>
</svg>
