<svg width="24" height="15" viewBox="0 0 24 15" fill="none" xmlns="http://www.w3.org/2000/svg">
  <path d="M16.1766 14.5718C16.362 14.6645 16.7413 14.7825 17.2133 14.7994C18.0392 14.8163 18.4775 14.5044 18.8146 13.7627L23.2142 3.89322C23.0288 3.80051 22.6326 3.68252 22.3039 3.68252C21.7392 3.67409 20.9807 3.78366 20.5003 4.94676L19.0759 8.32649L16.2861 3.74994C16.1092 3.69937 15.6625 3.61509 15.3506 3.61509C14.3645 3.61509 13.8082 3.97751 13.2351 4.6012L10.5212 7.59323L12.7041 11.0488C13.1087 11.6809 13.6397 12.0012 14.4994 12.0012C15.064 12.0012 15.536 11.8664 15.7552 11.7652L13.134 7.77865L14.9882 5.78958L18.0477 10.619L16.1766 14.5718ZM10.4032 10.8381C10.4032 11.5629 10.1251 11.9844 8.70913 11.9844C8.51528 11.9844 8.36357 11.9759 8.20344 11.9506V2.30028C8.20344 1.56702 8.44786 0.800049 9.87223 0.800049C10.0577 0.800049 10.2347 0.825334 10.4032 0.859047V10.8381ZM7.49546 9.38003C7.49546 10.737 6.61892 11.7315 4.8237 11.9254C3.52575 12.0686 1.65467 11.9001 0.761276 11.7989C0.727563 11.6557 0.702278 11.4702 0.702278 11.327C0.702278 10.1386 1.3344 9.86887 1.93281 9.86887C2.5565 9.86887 3.53418 9.97843 4.25901 9.97843C5.05969 9.97843 5.30411 9.70873 5.30411 9.44745C5.30411 9.11032 4.98384 8.96704 4.36858 8.84904L2.66607 8.52034C1.25854 8.25064 0.5 7.26453 0.5 6.22785C0.5 4.95518 1.3934 3.89322 3.14648 3.69937C4.46971 3.55609 6.08794 3.71623 6.97291 3.8258C7.00662 3.97751 7.01505 4.12079 7.01505 4.28092C7.01505 5.46088 6.39979 5.71373 5.80138 5.71373C5.33783 5.71373 4.62985 5.62945 3.82074 5.62945C2.99477 5.62945 2.64921 5.85701 2.64921 6.14357C2.64921 6.43856 2.97791 6.56498 3.49204 6.64927L5.11026 6.95268C6.77906 7.26453 7.49546 8.21692 7.49546 9.38003Z" fill="white"/>
</svg>
