<svg width="57" height="14" viewBox="0 0 57 14" fill="none" xmlns="http://www.w3.org/2000/svg">
  <mask id="mask0_0_1" style="mask-type:luminance" maskUnits="userSpaceOnUse" x="13" y="0" width="15" height="14">
    <path d="M13.8863 0H27.582V13.9998H13.8863V0Z" fill="white" />
  </mask>
  <g mask="url(#mask0_0_1)">
    <path d="M27.2653 -0.000244141H21.7175C21.5937 0.124602 21.5243 0.194607 21.4005 0.319282V6.96726H20.0047V0.31934L19.6878 -0.00018673H14.2035C14.0797 0.12466 14.0103 0.194664 13.8865 0.31934V7.03128L17.6435 10.852V13.6802C17.7673 13.8049 17.8367 13.8747 17.9605 13.9996H23.4449C23.5687 13.8747 23.638 13.8049 23.7618 13.6802V10.8191L27.5822 6.96726V0.31934C27.4585 0.194607 27.3891 0.124659 27.2653 -0.000244141Z" fill="white" />
  </g>
  <mask id="mask1_0_1" style="mask-type:luminance" maskUnits="userSpaceOnUse" x="42" y="0" width="15" height="14">
    <path d="M56.56 0.000244141V14.0001H42.8642V0.000244141H56.56Z" fill="white" />
  </mask>
  <g mask="url(#mask1_0_1)">
    <path d="M56.243 0.000244141H50.6952C50.5714 0.125033 50.502 0.195152 50.3782 0.319885V6.96786H48.9824V0.319885C48.8586 0.195152 48.7893 0.12509 48.6655 0.000244141H43.1812C43.0574 0.125033 42.988 0.195152 42.8642 0.319885V7.0316L46.6212 10.8523V13.6805C46.745 13.8053 46.8143 13.8752 46.9382 14H52.4226C52.5464 13.8752 52.6158 13.8053 52.7396 13.6805V10.8196L56.5601 6.96781V0.319885C56.4362 0.195152 56.3668 0.125033 56.243 0.000244141Z" fill="white" />
  </g>
  <mask id="mask2_0_1" style="mask-type:luminance" maskUnits="userSpaceOnUse" x="0" y="0" width="13" height="7">
    <path d="M0 0.000244141H12.4904V6.96775H0V0.000244141Z" fill="white" />
  </mask>
  <g mask="url(#mask2_0_1)">
    <path d="M12.1732 0H2.77368L-0.000244141 2.79667V6.64883C0.123622 6.77368 0.193022 6.84357 0.316718 6.96751H6.24494V5.59328H12.1732C12.297 5.46844 12.3663 5.39843 12.4901 5.27353V0.319584C12.3664 0.194852 12.2971 0.124903 12.1732 0Z" fill="white" />
  </g>
  <path d="M0.317024 8.34186C0.193214 8.46665 0.123758 8.53672 6.10352e-05 8.6615V13.6803C0.123814 13.805 0.193214 13.875 0.317024 13.9998H9.71656L12.4904 11.2032V7.28717C12.3666 7.16227 12.2972 7.0922 12.1734 6.96753H6.24519V8.34181H0.317024V8.34186Z" fill="white" />
  <path d="M41.1513 0.000244141H31.7518L28.9779 2.79697V13.6805C29.1017 13.8053 29.1712 13.8753 29.2949 14.0001H34.7794C34.9031 13.8753 34.9725 13.8053 35.0963 13.6805V11.9388H41.1513C41.2752 11.8138 41.3444 11.7438 41.4683 11.619V7.2875C41.3445 7.1626 41.2752 7.09277 41.1513 6.96792H35.0964V5.59353H41.1513C41.2752 5.46874 41.3444 5.39873 41.4683 5.27394V0.319998C41.3444 0.195152 41.2752 0.125033 41.1513 0.000244141Z" fill="white" />
</svg>
