<svg width="202" height="50" viewBox="0 0 202 50" fill="none" xmlns="http://www.w3.org/2000/svg">
  <mask id="mask0_0_1" style="mask-type:luminance" maskUnits="userSpaceOnUse" x="49" y="0" width="50" height="50">
    <path d="M49.5938 0.000244141H98.5073V49.9996H49.5938V0.000244141Z" fill="white" />
  </mask>
  <g mask="url(#mask0_0_1)">
    <path d="M97.3754 0H77.5618C77.1196 0.44588 76.8718 0.695897 76.4298 1.14117V24.8839H71.4448V1.14137L70.3128 0.000205039H50.7261C50.2839 0.446085 50.0363 0.696102 49.5941 1.14137V25.1126L63.0119 38.7579V48.8586C63.4541 49.3041 63.7018 49.5533 64.1439 49.9996H83.7311C84.1733 49.5535 84.4209 49.3041 84.8631 48.8586V38.6405L98.5074 24.8839V1.14137C98.0654 0.695898 97.8175 0.446083 97.3754 0Z" fill="black" />
  </g>
  <mask id="mask1_0_1" style="mask-type:luminance" maskUnits="userSpaceOnUse" x="153" y="0" width="49" height="50">
    <path d="M202 0.000488281V49.9999H153.086V0.000488281H202Z" fill="white" />
  </mask>
  <g mask="url(#mask1_0_1)">
    <path d="M200.868 0.000488281H181.054C180.612 0.446164 180.364 0.696589 179.922 1.14206V24.8848H174.937V1.14206C174.495 0.696589 174.248 0.446368 173.805 0.000488281H154.219C153.776 0.446164 153.528 0.696589 153.086 1.14206V25.1125L166.504 38.7578V48.8585C166.947 49.3042 167.194 49.554 167.636 49.9997H187.224C187.666 49.554 187.914 49.3042 188.356 48.8585V38.6411L202 24.8846V1.14206C201.558 0.696589 201.31 0.446164 200.868 0.000488281Z" fill="black" />
  </g>
  <mask id="mask2_0_1" style="mask-type:luminance" maskUnits="userSpaceOnUse" x="0" y="0" width="45" height="25">
    <path d="M0 0.000244141H44.6085V24.8842H0V0.000244141Z" fill="white" />
  </mask>
  <g mask="url(#mask2_0_1)">
    <path d="M43.4764 0H9.90665L-0.000244141 9.98811V23.7458C0.442136 24.1917 0.689991 24.4413 1.13176 24.8839H22.304V19.976H43.4762C43.9186 19.5301 44.1661 19.2801 44.6082 18.834V1.14137C44.1665 0.695898 43.919 0.446083 43.4764 0Z" fill="black" />
  </g>
  <path d="M1.13222 29.7924C0.690044 30.238 0.441988 30.4883 0.000213623 30.9339V48.8581C0.44219 49.3036 0.690044 49.5536 1.13222 49.9993H34.702L44.6085 40.0114V26.0256C44.1665 25.5795 43.9187 25.3293 43.4765 24.884H22.3042V29.7922H1.13222V29.7924Z" fill="black" />
  <path d="M146.969 0.000488281H113.399L103.493 9.9888V48.8587C103.935 49.3044 104.183 49.5542 104.625 49.9999H124.212C124.654 49.5542 124.902 49.3044 125.344 48.8587V42.6382H146.969C147.411 42.1917 147.659 41.9419 148.101 41.4962V26.0264C147.659 25.5803 147.412 25.3309 146.969 24.885H125.344V19.9765H146.969C147.411 19.5308 147.659 19.2808 148.101 18.8351V1.14247C147.659 0.696588 147.412 0.446164 146.969 0.000488281Z" fill="black" />
</svg>
