<?xml version="1.0" standalone="no"?>
<!DOCTYPE svg PUBLIC "-//W3C//DTD SVG 20010904//EN"
 "http://www.w3.org/TR/2001/REC-SVG-20010904/DTD/svg10.dtd">
<svg version="1.0" xmlns="http://www.w3.org/2000/svg"
 width="928.000000pt" height="928.000000pt" viewBox="0 0 928.000000 928.000000"
 preserveAspectRatio="xMidYMid meet">
<metadata>
Created by potrace 1.14, written by Peter Selinger 2001-2017
</metadata>
<g transform="translate(0.000000,928.000000) scale(0.100000,-0.100000)"
fill="#000000" stroke="none">
<path d="M287 8952 c-16 -3 -17 -36 -17 -386 l0 -382 853 0 852 0 -1 -104 c-1
-212 -19 -368 -58 -511 -10 -35 -59 -144 -82 -180 -13 -21 -24 -41 -24 -45 0
-11 -91 -124 -101 -124 -5 0 -8 -4 -7 -8 5 -14 -142 -152 -261 -245 -20 -15
-43 -33 -51 -40 -44 -34 -130 -96 -163 -116 -21 -13 -43 -28 -50 -34 -7 -7
-39 -30 -72 -52 -33 -22 -63 -44 -67 -50 -5 -7 -8 -7 -8 0 0 6 -4 5 -8 -1 -6
-10 -319 -224 -327 -224 -2 0 -45 -28 -97 -62 -52 -35 -103 -68 -114 -74 -29
-18 -307 -193 -325 -206 -10 -6 -20 -10 -24 -9 -4 2 -11 -1 -14 -6 -3 -5 -32
-25 -63 -44 l-57 -36 74 -112 c41 -62 75 -114 75 -116 0 -2 73 -113 106 -160
7 -11 54 -82 104 -158 l91 -138 37 22 c20 12 48 30 62 38 14 9 33 21 42 26 10
6 106 66 213 135 108 69 207 132 220 140 61 37 374 245 415 275 25 19 51 34
58 34 6 1 12 5 12 9 0 4 15 16 33 27 17 10 37 23 42 27 6 5 80 58 165 118 182
128 183 129 274 200 102 79 107 83 125 103 8 9 19 17 23 17 4 0 20 12 36 28
16 15 58 54 93 87 35 33 81 81 101 107 l36 48 15 -23 c23 -35 134 -146 222
-221 44 -37 89 -75 100 -85 11 -9 49 -39 85 -66 36 -27 71 -55 78 -62 6 -6 21
-15 32 -18 11 -3 20 -9 20 -13 0 -4 18 -18 40 -32 22 -14 40 -28 40 -32 0 -5
5 -8 10 -8 6 0 16 -5 23 -11 27 -24 623 -429 631 -429 2 0 50 -31 107 -68 57
-37 165 -106 239 -153 74 -46 137 -87 138 -91 2 -5 7 -8 12 -8 5 0 45 -23 89
-50 l81 -50 90 135 c49 75 90 140 90 145 0 27 29 3 65 -53 22 -34 43 -63 47
-65 5 -2 8 -8 8 -12 0 -11 61 -103 74 -112 6 -4 7 -8 3 -8 -5 0 -2 -7 6 -15 9
-8 17 -20 19 -26 4 -12 78 30 246 138 45 29 86 53 91 53 4 0 16 9 26 20 10 11
22 20 26 20 4 0 48 27 98 60 50 33 95 60 101 60 5 0 10 5 10 10 0 6 4 10 10
10 5 0 38 20 73 45 36 25 70 45 76 45 6 0 11 4 11 8 0 5 12 15 28 23 15 8 29
17 32 20 3 3 32 23 65 44 91 60 406 276 440 302 17 13 35 27 40 31 6 4 33 23
60 42 28 18 52 36 55 40 3 3 21 17 40 30 19 13 37 27 40 30 3 3 25 21 50 40
25 19 52 41 61 49 9 9 26 23 39 31 12 8 39 31 60 50 127 119 151 143 181 185
l33 46 20 -28 c25 -35 154 -163 225 -223 30 -25 61 -52 71 -60 9 -8 32 -26 50
-40 18 -14 41 -32 50 -40 10 -8 28 -22 40 -30 24 -17 76 -54 161 -118 31 -23
59 -42 63 -42 4 0 17 -9 29 -21 12 -11 36 -28 52 -36 17 -9 32 -19 35 -23 3
-3 34 -26 70 -50 36 -24 67 -46 70 -49 10 -12 90 -61 99 -61 5 0 11 -4 13 -8
6 -15 647 -431 844 -548 l74 -43 20 29 c11 15 20 33 20 38 0 6 3 12 8 14 7 3
62 85 266 398 52 80 99 150 105 157 21 24 13 33 -84 88 -61 35 -268 163 -317
197 -31 21 -62 38 -67 38 -6 0 -11 5 -11 10 0 6 -7 10 -15 10 -8 0 -15 5 -15
10 0 6 -7 10 -15 10 -8 0 -15 5 -15 10 0 6 -5 10 -10 10 -6 0 -63 35 -128 78
-65 42 -125 82 -133 87 -9 6 -65 44 -125 85 -60 41 -113 77 -119 79 -5 2 -14
8 -20 12 -5 5 -24 20 -41 34 -18 14 -36 25 -42 25 -6 0 -12 3 -14 8 -1 4 -50
41 -108 82 -58 41 -112 80 -120 86 -8 7 -44 36 -80 64 -91 73 -249 236 -293
303 -33 49 -108 183 -106 190 0 2 -6 21 -21 67 -29 84 -49 210 -55 353 -2 43
-6 81 -9 84 -3 4 -1 12 5 19 7 9 7 19 0 32 -6 11 -8 22 -4 25 3 4 6 28 7 54
l1 48 850 0 850 0 0 383 0 382 -30 1 c-146 3 -4257 1 -4260 -3 -4 -4 -8 -510
-5 -718 l0 -46 838 1 c460 0 844 -1 852 -3 13 -2 15 -20 13 -100 -6 -281 -22
-398 -71 -542 -23 -69 -76 -178 -92 -190 -3 -3 -17 -23 -30 -45 -13 -21 -31
-47 -40 -55 -8 -9 -40 -43 -70 -76 -31 -32 -84 -84 -119 -114 -35 -30 -78 -67
-95 -82 -17 -16 -34 -28 -39 -28 -4 0 -18 -9 -30 -21 -12 -11 -58 -46 -102
-76 -44 -31 -81 -60 -83 -65 -2 -4 -8 -8 -13 -8 -11 0 -72 -42 -77 -52 -2 -5
-10 -8 -17 -8 -7 0 -15 -4 -17 -8 -5 -15 -713 -479 -809 -531 l-36 -20 -80 52
c-78 51 -99 64 -145 90 -12 6 -27 16 -32 20 -31 23 -149 97 -156 97 -5 0 -10
3 -12 8 -1 4 -84 61 -183 126 -99 66 -181 123 -183 128 -2 4 -9 8 -16 8 -7 0
-21 9 -31 20 -10 11 -22 20 -26 20 -4 0 -37 21 -73 48 -36 26 -88 63 -116 82
-29 19 -62 45 -75 58 -13 12 -28 22 -32 22 -4 0 -22 13 -40 28 -17 15 -51 43
-75 62 -129 104 -271 269 -331 385 -36 69 -79 186 -72 193 3 3 1 10 -4 16 -6
6 -12 25 -15 41 -2 17 -5 30 -6 30 -9 0 -24 222 -25 350 l0 140 850 0 850 0 1
385 1 385 -2132 0 c-1172 0 -2139 -1 -2148 -3z"/>
<path d="M6337 4013 c-2 -5 -4 -223 -4 -486 -1 -262 -4 -507 -7 -545 -10 -98
-15 -134 -21 -162 -3 -14 -8 -40 -11 -58 -19 -112 -118 -323 -199 -421 -74
-90 -158 -177 -253 -260 -53 -46 -88 -74 -202 -162 -106 -82 -378 -279 -496
-359 -36 -25 -71 -50 -77 -55 -7 -6 -36 -26 -65 -44 -30 -19 -59 -39 -66 -45
-19 -17 -49 -36 -68 -42 -10 -4 -18 -10 -18 -15 0 -5 -7 -9 -15 -9 -8 0 -15
-4 -15 -9 0 -5 -12 -15 -27 -22 -16 -8 -68 -41 -118 -75 -49 -33 -97 -63 -105
-67 -8 -4 -25 -14 -37 -23 l-23 -16 0 1413 0 1414 -429 0 c-236 0 -432 -3
-436 -7 -11 -10 -13 -58 -3 -64 4 -3 5 -10 1 -16 -9 -15 -10 -248 -1 -248 4 0
3 -12 -1 -27 -6 -26 -7 -66 -1 -123 1 -14 1 -27 0 -30 -7 -19 -3 -397 4 -393
5 4 6 1 2 -6 -11 -17 -14 -111 -4 -117 5 -3 5 -11 1 -17 -4 -6 -7 -29 -6 -49
l1 -38 -56 -1 c-115 -1 -2367 2 -2378 3 -10 1 -10 65 0 75 3 3 1 16 -5 30 -6
16 -5 31 1 44 8 13 7 19 0 19 -6 0 -9 4 -5 10 6 9 7 131 2 185 -1 17 1 38 6
48 4 10 4 17 -2 17 -6 0 -6 11 -1 30 5 17 5 30 1 30 -5 0 -5 17 -1 38 4 21 3
49 -2 61 -4 13 -4 30 2 42 8 13 7 19 0 19 -6 0 -9 4 -5 10 6 9 7 131 2 185 -1
17 1 38 6 48 4 10 4 17 -2 17 -6 0 -6 11 -1 30 5 19 5 30 -1 30 -6 0 -8 4 -5
9 6 10 7 60 3 121 l-2 35 -425 1 c-234 0 -429 -1 -435 -3 -7 -2 -9 -593 -8
-1751 0 -961 2 -1750 2 -1754 1 -5 54 -8 119 -7 64 0 122 0 127 -1 6 -1 14 -2
19 -1 12 3 448 3 461 0 6 -1 14 -1 19 0 12 3 448 3 461 0 6 -1 14 -1 19 0 12
3 448 3 461 0 6 -1 14 -1 19 0 12 3 448 3 461 0 6 -1 15 0 20 1 12 3 131 2
143 0 4 -1 11 -2 16 -1 12 3 448 3 461 0 6 -1 14 -1 19 0 12 3 448 3 461 0 6
-1 14 -1 19 0 12 3 448 3 461 0 6 -1 14 0 20 1 5 1 97 1 202 1 l193 0 0 186 0
187 70 -100 c38 -54 74 -106 80 -114 5 -8 42 -59 80 -113 39 -54 70 -102 70
-107 0 -14 23 -17 45 -5 49 27 588 383 606 400 9 8 21 15 27 15 5 0 12 3 14 8
2 4 23 20 48 37 100 67 215 149 218 157 2 4 8 8 13 8 6 0 166 112 224 157 6 5
35 26 65 48 75 54 72 52 102 77 14 13 36 30 48 38 41 28 125 95 128 102 2 5
10 8 17 8 7 0 15 4 17 8 2 5 46 44 98 88 135 111 226 200 276 267 l43 58 15
-28 c13 -26 186 -212 186 -200 0 3 17 -11 38 -32 20 -20 46 -43 58 -51 11 -8
42 -33 69 -55 26 -22 62 -52 79 -66 38 -32 464 -350 488 -364 19 -12 188 -130
203 -142 6 -5 80 -56 165 -113 85 -58 157 -108 158 -112 2 -5 8 -8 13 -8 7 0
95 -56 109 -70 3 -3 17 -11 33 -19 15 -8 27 -18 27 -23 0 -4 5 -8 10 -8 6 0
44 -23 85 -50 41 -28 77 -51 80 -51 2 0 30 -17 62 -39 54 -36 59 -37 75 -23
10 9 18 22 18 30 0 7 7 16 15 19 8 4 15 12 15 20 0 8 5 14 10 14 6 0 10 7 10
15 0 8 5 15 10 15 6 0 10 7 10 15 0 8 4 15 8 15 4 0 16 15 27 32 10 18 21 35
25 38 10 8 80 110 80 116 0 3 6 12 13 19 19 22 30 37 62 85 36 53 37 56 70 96
14 18 25 35 25 38 0 4 10 20 22 36 12 16 20 31 17 33 -11 10 -131 87 -134 87
-3 0 -37 22 -77 49 -40 26 -107 70 -148 96 -41 27 -77 51 -80 54 -6 8 -41 29
-60 38 -8 4 -17 9 -20 13 -3 3 -45 33 -95 66 -49 34 -112 76 -140 94 -145 98
-515 372 -515 382 0 6 -3 8 -7 5 -6 -7 -94 59 -101 75 -2 5 -8 8 -12 8 -5 0
-20 10 -33 23 -12 12 -50 45 -82 73 -33 28 -83 76 -112 105 -49 51 -59 63
-107 121 -63 78 -159 251 -170 308 -1 3 -5 11 -9 18 -5 6 -6 12 -2 12 3 0 1 8
-4 18 -11 21 -18 51 -32 132 -28 165 -29 199 -30 765 -1 367 -1 338 1 350 1 6
2 27 1 48 l-1 37 -439 0 c-242 0 -442 -3 -444 -7z m-2699 -2057 c0 -72 1 -147
1 -166 1 -19 0 -57 -2 -83 -1 -27 1 -51 5 -53 5 -3 5 -10 1 -17 -9 -14 -10
-87 -1 -87 3 0 3 -12 -1 -27 -8 -30 -6 -116 3 -139 3 -7 2 -15 -2 -18 -4 -2
-6 -42 -5 -89 l2 -84 -1217 1 c-1153 1 -1217 2 -1216 19 1 9 -1 17 -5 17 -3 0
-6 11 -6 25 0 14 4 25 8 25 5 0 5 6 1 12 -11 18 -11 62 1 70 7 5 6 8 -1 8 -10
0 -10 60 0 87 3 7 1 15 -3 18 -5 3 -5 21 -1 40 4 19 5 35 1 35 -8 0 -6 54 2
67 3 5 2 15 -3 23 -5 8 -5 22 1 32 5 10 6 18 2 18 -10 0 -8 103 1 119 4 6 3
11 -3 11 -6 0 -6 11 -1 30 5 17 6 30 2 30 -4 0 -7 18 -7 39 0 22 3 37 7 34 5
-2 3 8 -2 22 -7 18 -7 33 0 46 6 10 7 19 2 19 -5 0 -7 10 -5 23 l5 23 1217 0
1218 0 1 -130z"/>
</g>
</svg>
