<?xml version="1.0" standalone="no"?>
<!DOCTYPE svg PUBLIC "-//W3C//DTD SVG 20010904//EN"
 "http://www.w3.org/TR/2001/REC-SVG-20010904/DTD/svg10.dtd">
<svg version="1.0" xmlns="http://www.w3.org/2000/svg"
 width="644.000000pt" height="644.000000pt" viewBox="0 0 644.000000 644.000000"
 preserveAspectRatio="xMidYMid meet">
<metadata>
Created by potrace 1.14, written by Peter Selinger 2001-2017
</metadata>
<g transform="translate(0.000000,644.000000) scale(0.100000,-0.100000)"
fill="#000000" stroke="none">
<path d="M2525 5750 c-318 -25 -659 -181 -902 -414 -179 -170 -170 -157 -970
-1546 -476 -827 -509 -887 -547 -987 -94 -243 -124 -474 -96 -728 74 -663 568
-1214 1215 -1354 90 -20 145 -23 664 -31 677 -11 2077 -12 2751 -1 l485 8 123
37 c303 89 495 201 699 408 123 124 190 210 253 324 154 278 223 567 206 867
-12 210 -63 404 -155 587 -90 179 -1205 2105 -1278 2210 -69 97 -265 287 -368
357 -120 81 -253 146 -394 193 -215 72 -211 72 -936 75 -357 2 -695 -1 -750
-5z m504 -185 c253 -66 472 -189 649 -364 131 -130 149 -159 800 -1282 486
-840 611 -1062 648 -1154 79 -193 112 -420 94 -640 -54 -660 -584 -1209 -1232
-1275 -73 -7 -488 -6 -1424 5 l-1321 14 -105 35 c-376 123 -676 385 -842 737
-97 204 -136 374 -136 589 0 212 24 341 100 540 57 145 1236 2184 1340 2315
172 217 433 392 693 464 141 40 240 50 442 47 168 -3 202 -7 294 -31z m981 11
c95 -24 246 -75 320 -108 151 -68 366 -239 478 -381 63 -79 326 -526 1030
-1749 301 -522 343 -610 389 -820 26 -119 25 -428 -1 -547 -93 -427 -353 -774
-730 -972 -228 -120 -445 -163 -796 -157 l-175 3 65 37 c182 102 401 306 519
483 119 177 199 365 243 568 30 139 33 464 5 602 -27 130 -80 287 -130 385
-104 201 -1153 2013 -1265 2185 -93 143 -345 371 -516 467 l-51 29 275 -4
c211 -4 290 -8 340 -21z"/>
<path d="M1840 2312 c-30 -29 -40 -48 -40 -71 0 -131 459 -311 795 -311 246 0
536 87 701 210 86 64 93 126 21 186 -40 33 -58 30 -217 -45 -199 -94 -309
-121 -497 -121 -181 0 -330 36 -555 134 -153 66 -159 67 -208 18z"/>
</g>
</svg>
