<svg width="73" height="25" viewBox="0 0 73 25" fill="none" xmlns="http://www.w3.org/2000/svg">
  <path d="M29.1639 24.9954C16.4081 24.8296 5.89877 22.2689 1.83972 18.3372C0.848943 17.3776 0.290987 16.4496 0.0602796 15.3771C-0.0207899 15.0002 -0.0199234 14.1033 0.0618887 13.7181C0.45882 11.8503 1.95186 10.0578 4.55425 8.32492C9.58044 4.97805 18.317 2.26736 28.3779 0.933245C35.2382 0.023534 42.4502 -0.229205 49.0089 0.210303C60.2287 0.96196 68.8245 3.67154 71.8117 7.39789C72.3614 8.08357 72.7391 8.84377 72.9021 9.59196C72.9875 9.98431 72.9875 10.9022 72.9021 11.2949C72.4947 13.169 71.0002 14.9555 68.3954 16.6821C66.8129 17.7311 64.9318 18.6938 62.7052 19.5942C55.5186 22.5003 45.755 24.3922 35.4024 24.8843C33.7393 24.9635 30.7709 25.0162 29.1639 24.9953V24.9954ZM34.3381 23.577C35.5931 23.512 36.6446 23.4417 37.58 23.3604C44.014 22.8008 50.033 21.4701 55.7057 19.3527C56.4924 19.059 56.8774 18.8923 57.6378 18.516C58.8225 17.9296 59.3244 17.6514 59.3244 17.5806C59.3244 17.5514 59.2896 17.5116 59.2471 17.4922C59.0234 17.3903 58.5168 16.8944 57.6225 15.9014C57.0923 15.313 56.6427 14.8316 56.6229 14.8316C56.6032 14.8316 56.2058 15.3187 55.7398 15.9139C55.2737 16.5092 54.8063 17.0758 54.7011 17.1733C54.4659 17.391 54.0565 17.5983 53.7246 17.6678C53.3919 17.7375 52.347 17.7166 51.9889 17.6331C51.2994 17.4722 50.9431 17.1293 50.5465 16.245L50.3679 15.8469H48.3185L46.2689 15.8468L45.928 16.3298C45.3584 17.1366 44.9506 17.4829 44.3915 17.6345C44.1362 17.7039 43.2489 17.7113 42.974 17.6463C42.5585 17.5485 42.206 17.2729 42.0346 16.9121C41.8499 16.5235 41.8372 16.3726 41.8372 14.571C41.8372 13.2809 41.8285 12.9326 41.7963 12.934C41.7738 12.935 41.5748 13.1891 41.3543 13.4989C40.8273 14.239 40.4236 14.7189 40.1998 14.8715C39.9673 15.0298 39.6661 15.1079 39.3811 15.0834C39.0018 15.051 38.7367 14.8928 38.4396 14.5217C37.9517 13.9124 36.6852 12.4411 36.6487 12.4411C36.5813 12.4411 36.5652 12.9346 36.5651 15.0141C36.5648 17.1317 36.5659 17.1197 36.3709 17.3561C36.3193 17.4187 36.1981 17.5137 36.1017 17.5671C35.947 17.6527 35.8952 17.6641 35.6643 17.6625C35.3516 17.6605 35.2067 17.5975 35.0013 17.3749C34.7386 17.0897 34.7511 17.3212 34.7773 13.2434C34.8023 9.37214 34.802 9.38007 34.9739 9.04056C35.2053 8.58398 35.5747 8.38087 36.172 8.38149C36.6991 8.38211 37.0588 8.5742 37.598 9.14366C37.7773 9.33279 38.4102 10.107 39.0046 10.8639C39.5989 11.6209 40.1027 12.2413 40.1239 12.2424C40.1452 12.2436 40.6461 11.5408 41.237 10.6809C42.3956 8.9944 42.6294 8.70713 42.9834 8.53434C43.6304 8.21861 44.3264 8.45092 44.6475 9.08982C44.8443 9.48168 44.85 9.55446 44.85 11.7188C44.85 13.2704 44.8587 13.6854 44.8908 13.6852C44.9134 13.6852 45.5434 12.6506 46.2909 11.3865C47.809 8.81902 47.8444 8.76864 48.2825 8.55217C48.5309 8.42951 48.5309 8.42951 49.04 8.4305C49.495 8.43137 49.5697 8.43954 49.7405 8.50761C49.9695 8.59883 50.2269 8.80119 50.3701 9.00294C50.4276 9.08376 51.0909 10.4799 51.8442 12.1054C52.8072 14.1835 53.2287 15.0605 53.2644 15.0598C53.3227 15.0585 54.9198 13.0263 54.9198 12.9534C54.9198 12.9269 54.2272 12.1378 53.3807 11.1999C51.7158 9.35494 51.608 9.21545 51.6383 8.94279C51.6601 8.74649 51.8022 8.57915 52.0247 8.48781C52.1946 8.418 52.2438 8.41503 53.2399 8.41416C54.3829 8.41293 54.5017 8.42642 54.8615 8.5971C55.315 8.81233 55.8465 9.28773 56.6063 10.1576C56.7415 10.3123 56.8681 10.4398 56.8879 10.441C56.9405 10.4445 61.1336 5.07559 61.1154 5.02806C61.0956 4.97645 60.4903 4.64821 59.8811 4.35871C54.5433 1.82191 45.7753 0.675308 36.6794 1.3251C34.1548 1.50531 30.2949 2.0046 27.9774 2.45079C26.3624 2.7617 23.4651 3.46509 21.6974 3.97539C19.7052 4.55055 18.5803 4.95132 16.9826 5.65458C16.1559 6.01847 14.4498 6.87867 13.8217 7.24837C10.2594 9.34467 8.2082 11.6964 7.94048 13.9916C7.79059 15.2761 8.18406 16.5459 9.07793 17.6614C9.42498 18.0947 10.1889 18.8338 10.2757 18.8203C10.3214 18.8132 11.1518 17.4495 13.2626 13.9146C15.5489 10.0862 16.2273 8.97435 16.3748 8.81419C16.5924 8.57816 16.9116 8.40203 17.2275 8.34361C17.6021 8.27443 18.432 8.36255 18.83 8.5138C19.056 8.59969 19.3162 8.7851 19.4192 8.93375C19.4986 9.04836 20.0312 10.1999 20.9918 12.3346C21.2131 12.8262 21.3971 13.1943 21.4217 13.1943C21.4566 13.1943 21.467 12.8481 21.4767 11.3686C21.4875 9.74061 21.495 9.52191 21.5468 9.34813C21.7279 8.73918 22.0713 8.418 22.6147 8.34968C22.9258 8.31069 23.6061 8.3581 23.7933 8.43186C24.0248 8.52308 24.251 8.68262 24.4692 8.90875C24.6949 9.14255 25.0058 9.52191 26.9019 11.8773C27.6301 12.7816 28.2454 13.5217 28.2691 13.5217C28.3046 13.5217 28.3124 13.1258 28.3124 11.3335C28.3124 8.80862 28.3028 8.90491 28.5862 8.62098C28.8137 8.39312 29.0078 8.33557 29.4873 8.35401C29.7839 8.3654 29.8599 8.38013 30.0029 8.45414C30.19 8.55093 30.3235 8.69215 30.4126 8.88796C30.4693 9.01222 30.4723 9.20444 30.472 12.6211C30.4716 15.4938 30.4626 16.2734 30.4274 16.4704C30.3415 16.9522 30.067 17.3224 29.6522 17.5157C29.3832 17.6412 28.9724 17.6865 28.4858 17.6443C27.7764 17.5828 27.4702 17.3766 26.741 16.469C26.0123 15.562 23.7094 12.834 23.6725 12.834C23.6407 12.834 23.6298 13.2028 23.6225 14.5131C23.6133 16.1921 23.6133 16.1921 23.5016 16.4206C23.3018 16.8297 22.8462 17.2166 22.3133 17.4298C21.9166 17.5885 21.6949 17.6229 21.1735 17.6072C20.6299 17.5907 20.3458 17.516 19.9588 17.2874C19.5869 17.0678 19.3944 16.843 19.16 16.3554C19.0474 16.1207 18.9448 15.8953 18.9323 15.8547C18.9094 15.7807 18.9094 15.7807 17.0555 15.7891L15.2017 15.7977L13.8501 18.0245C13.1069 19.2493 12.4979 20.2671 12.4971 20.2863C12.4956 20.3186 13.5145 20.7684 14.0509 20.9723C18.1155 22.5168 22.8656 23.3767 28.6073 23.6078C29.4852 23.6431 33.4774 23.6217 34.3381 23.5771V23.577ZM32.1695 17.6469C31.665 17.5619 31.2412 17.15 31.1328 16.6393C31.0923 16.4485 31.0875 13.0324 31.1244 10.6563C31.1452 9.3136 31.1452 9.3136 31.2334 9.12522C31.4182 8.73114 31.7981 8.44412 32.2298 8.37258C32.8304 8.27294 33.4707 8.61764 33.689 9.15827C33.7649 9.3464 33.7649 9.3464 33.774 12.834C33.7802 15.1626 33.7716 16.3964 33.7485 16.5466C33.6592 17.1283 33.2411 17.5526 32.6651 17.6461C32.4309 17.6841 32.3905 17.6842 32.1695 17.6469ZM62.1326 15.6604C63.8001 14.2192 64.7473 12.836 65.0614 11.3829C65.1581 10.9357 65.1676 9.97899 65.0794 9.57042C64.8589 8.54957 64.3325 7.63107 63.4899 6.79711C63.3132 6.62197 63.1763 6.51182 63.1442 6.51862C63.0609 6.53669 58.6002 12.2492 58.6111 12.3241C58.6243 12.4142 61.7512 15.8754 61.8215 15.8776C61.8532 15.8786 61.9932 15.7808 62.1326 15.6603V15.6604ZM49.7621 14.5029C49.7621 14.4843 49.5016 13.9021 49.1832 13.2095C48.776 12.3233 48.5891 11.9502 48.5528 11.9509C48.5029 11.9521 46.9785 14.4212 46.9785 14.5008C46.9785 14.5266 47.378 14.5368 48.3704 14.5368C49.3094 14.5368 49.7621 14.5258 49.7621 14.5029ZM18.2263 14.4126C18.2263 14.3132 17.3257 12.3928 17.2747 12.3835C17.2261 12.3746 16.0586 14.2555 16.0383 14.3758C16.0266 14.4441 16.1257 14.4501 17.5303 14.4643C18.181 14.471 18.2263 14.4675 18.2263 14.4126Z" fill="#00B8FF"/>
</svg>
