<svg width="226" height="226" viewBox="0 0 226 226" fill="none" xmlns="http://www.w3.org/2000/svg">
  <path d="M225.667 0.5H0.666992V225.5H225.667V0.5Z" fill="#00B8FF"/>
  <path d="M97.6193 139.543C70.5227 139.191 48.198 133.752 39.5755 125.4C37.4709 123.361 36.2856 121.39 35.7955 119.112C35.6233 118.311 35.6252 116.406 35.7989 115.587C36.6421 111.62 39.8138 107.812 45.3419 104.131C56.0189 97.0212 74.5777 91.2629 95.9498 88.4289C110.523 86.4964 125.843 85.9595 139.776 86.8932C163.609 88.4899 181.869 94.2458 188.215 102.162C189.382 103.618 190.185 105.233 190.531 106.822C190.713 107.656 190.713 109.606 190.531 110.44C189.666 114.421 186.491 118.216 180.958 121.884C177.596 124.112 173.6 126.157 168.87 128.07C153.604 134.243 132.863 138.262 110.872 139.307C107.339 139.476 101.033 139.588 97.6193 139.543V139.543ZM108.611 136.53C111.277 136.392 113.511 136.243 115.497 136.07C129.165 134.882 141.951 132.055 154.001 127.557C155.673 126.933 156.49 126.579 158.106 125.779C160.622 124.534 161.688 123.943 161.688 123.792C161.688 123.73 161.615 123.646 161.524 123.605C161.049 123.388 159.973 122.335 158.073 120.225C156.947 118.975 155.992 117.953 155.95 117.953C155.908 117.953 155.064 118.987 154.074 120.252C153.084 121.516 152.091 122.72 151.867 122.927C151.368 123.39 150.498 123.83 149.793 123.978C149.086 124.126 146.867 124.081 146.106 123.904C144.641 123.562 143.884 122.834 143.042 120.955L142.662 120.11H138.309L133.955 120.109L133.231 121.135C132.021 122.849 131.155 123.585 129.967 123.907C129.425 124.054 127.54 124.07 126.956 123.932C126.073 123.724 125.324 123.139 124.96 122.372C124.568 121.547 124.541 121.226 124.541 117.399C124.541 114.659 124.522 113.919 124.454 113.922C124.406 113.924 123.983 114.464 123.515 115.122C122.396 116.694 121.538 117.713 121.063 118.037C120.569 118.374 119.929 118.54 119.323 118.488C118.518 118.419 117.955 118.083 117.323 117.294C116.287 116 113.597 112.875 113.519 112.875C113.376 112.875 113.342 113.923 113.341 118.34C113.341 122.839 113.343 122.813 112.929 123.315C112.819 123.448 112.562 123.65 112.357 123.764C112.028 123.946 111.919 123.97 111.428 123.966C110.764 123.962 110.456 123.828 110.02 123.355C109.462 122.75 109.488 123.241 109.544 114.579C109.597 106.355 109.596 106.372 109.961 105.651C110.453 104.681 111.238 104.25 112.506 104.251C113.626 104.252 114.39 104.66 115.536 105.87C115.917 106.272 117.261 107.916 118.524 109.524C119.786 111.132 120.856 112.45 120.902 112.453C120.947 112.455 122.011 110.962 123.266 109.136C125.727 105.553 126.224 104.943 126.976 104.576C128.35 103.905 129.829 104.398 130.511 105.756C130.929 106.588 130.941 106.743 130.941 111.34C130.941 114.636 130.959 115.518 131.028 115.517C131.076 115.517 132.414 113.32 134.002 110.634C137.227 105.18 137.302 105.073 138.232 104.614C138.76 104.353 138.76 104.353 139.842 104.355C140.808 104.357 140.967 104.374 141.33 104.519C141.816 104.713 142.363 105.143 142.667 105.571C142.789 105.743 144.198 108.709 145.799 112.161C147.844 116.576 148.74 118.439 148.815 118.437C148.939 118.435 152.332 114.118 152.332 113.963C152.332 113.907 150.861 112.23 149.062 110.238C145.526 106.319 145.297 106.023 145.361 105.443C145.407 105.026 145.709 104.671 146.182 104.477C146.543 104.329 146.647 104.322 148.763 104.32C151.191 104.318 151.444 104.346 152.208 104.709C153.171 105.166 154.3 106.176 155.914 108.024C156.202 108.353 156.471 108.623 156.513 108.626C156.624 108.633 165.532 97.2283 165.493 97.1274C165.451 97.0177 164.165 96.3205 162.871 95.7055C151.532 90.3167 132.907 87.881 113.584 89.2613C108.221 89.6441 100.022 90.7047 95.099 91.6526C91.6684 92.313 85.5137 93.8072 81.7586 94.8912C77.5266 96.113 75.1369 96.9644 71.7432 98.4583C69.9868 99.2313 66.3627 101.059 65.0284 101.844C57.4613 106.297 53.1039 111.293 52.5352 116.168C52.2168 118.897 53.0526 121.594 54.9514 123.964C55.6887 124.884 57.3114 126.454 57.4957 126.426C57.593 126.411 59.3569 123.514 63.8408 116.005C68.6975 107.872 70.1386 105.51 70.452 105.17C70.9142 104.669 71.5922 104.295 72.2632 104.171C73.0591 104.024 74.822 104.211 75.6675 104.532C76.1476 104.714 76.7003 105.108 76.919 105.424C77.0878 105.668 78.2192 108.114 80.2597 112.648C80.7298 113.693 81.1208 114.475 81.1728 114.475C81.247 114.475 81.2691 113.739 81.2898 110.596C81.3127 107.138 81.3287 106.674 81.4386 106.304C81.8233 105.011 82.5529 104.329 83.7071 104.183C84.3681 104.101 85.8131 104.201 86.2109 104.358C86.7026 104.552 87.1832 104.891 87.6467 105.371C88.126 105.868 88.7865 106.674 92.8144 111.677C94.3612 113.598 95.6682 115.17 95.7187 115.17C95.7941 115.17 95.8107 114.329 95.8107 110.522C95.8107 105.158 95.7902 105.363 96.3923 104.76C96.8755 104.276 97.2878 104.153 98.3063 104.193C98.9366 104.217 99.098 104.248 99.4017 104.405C99.7992 104.611 100.083 104.911 100.272 105.327C100.392 105.591 100.399 105.999 100.398 113.257C100.397 119.359 100.378 121.016 100.303 121.434C100.121 122.457 99.5379 123.244 98.6568 123.655C98.0852 123.921 97.2126 124.017 96.179 123.928C94.672 123.797 94.0215 123.359 92.4726 121.431C90.9246 119.504 86.0327 113.709 85.9543 113.709C85.8867 113.709 85.8636 114.493 85.8481 117.276C85.8284 120.843 85.8284 120.843 85.5912 121.328C85.1669 122.197 84.199 123.019 83.0669 123.472C82.2242 123.809 81.7534 123.882 80.6457 123.849C79.4909 123.814 78.8875 123.655 78.0654 123.169C77.2753 122.703 76.8664 122.226 76.3685 121.19C76.1292 120.691 75.9112 120.212 75.8847 120.126C75.8361 119.969 75.8361 119.969 71.898 119.987L67.96 120.005L65.0889 124.735C63.51 127.337 62.2165 129.499 62.2146 129.54C62.2115 129.609 64.3758 130.564 65.5153 130.997C74.1497 134.278 84.2401 136.105 96.437 136.596C98.3019 136.671 106.782 136.625 108.611 136.531V136.53ZM104.004 123.933C102.932 123.753 102.032 122.878 101.802 121.793C101.716 121.387 101.706 114.131 101.784 109.083C101.828 106.231 101.828 106.231 102.016 105.831C102.408 104.994 103.215 104.384 104.132 104.232C105.408 104.02 106.768 104.753 107.232 105.901C107.393 106.301 107.393 106.301 107.413 113.709C107.426 118.656 107.407 121.277 107.358 121.596C107.169 122.832 106.28 123.733 105.057 123.931C104.559 124.012 104.474 124.012 104.004 123.933ZM167.654 119.713C171.196 116.652 173.208 113.713 173.875 110.627C174.081 109.677 174.101 107.644 173.914 106.777C173.445 104.608 172.327 102.657 170.537 100.885C170.162 100.513 169.871 100.279 169.803 100.294C169.626 100.332 160.15 112.467 160.173 112.626C160.201 112.817 166.844 120.17 166.993 120.175C167.06 120.177 167.358 119.969 167.654 119.713V119.713ZM141.375 117.255C141.375 117.215 140.822 115.978 140.146 114.507C139.281 112.624 138.884 111.832 138.807 111.833C138.701 111.836 135.462 117.081 135.462 117.25C135.462 117.305 136.311 117.327 138.419 117.327C140.414 117.327 141.375 117.303 141.375 117.255ZM74.385 117.063C74.385 116.851 72.472 112.772 72.3637 112.752C72.2603 112.733 69.7802 116.729 69.7371 116.984C69.7124 117.13 69.9227 117.142 72.9066 117.172C74.2888 117.187 74.385 117.179 74.385 117.063Z" fill="white"/>
</svg>
