<svg width="41" height="14" viewBox="0 0 41 14" fill="none" xmlns="http://www.w3.org/2000/svg">
  <path d="M16.3318 13.9974C9.18853 13.9045 3.30331 12.4705 1.03025 10.2688C0.475408 9.7314 0.162953 9.21171 0.0337566 8.61112C-0.0116423 8.40007 -0.0111571 7.89777 0.0346576 7.68208C0.256939 6.6361 1.09304 5.63233 2.55038 4.6619C5.36504 2.78766 10.2575 1.26967 15.8916 0.522563C19.7334 0.0131253 23.7721 -0.128408 27.445 0.117716C33.7281 0.538644 38.5417 2.05601 40.2146 4.14276C40.5224 4.52675 40.7339 4.95246 40.8252 5.37144C40.873 5.59116 40.873 6.10517 40.8252 6.3251C40.597 7.37461 39.7601 8.37505 38.3014 9.34194C37.4152 9.92936 36.3618 10.4685 35.1149 10.9727C31.0904 12.6001 25.6228 13.6596 19.8253 13.9351C18.894 13.9795 17.2317 14.009 16.3318 13.9973V13.9974ZM19.2293 13.2031C19.9321 13.1667 20.521 13.1273 21.0448 13.0818C24.6479 12.7684 28.0185 12.0232 31.1952 10.8375C31.6358 10.673 31.8513 10.5796 32.2772 10.3689C32.9406 10.0405 33.2217 9.88472 33.2217 9.84507C33.2217 9.82872 33.2022 9.80647 33.1784 9.79559C33.0531 9.73854 32.7694 9.46081 32.2686 8.90473C31.9717 8.57522 31.7199 8.30567 31.7088 8.30567C31.6978 8.30567 31.4752 8.57841 31.2143 8.91173C30.9533 9.24512 30.6915 9.56242 30.6326 9.61697C30.5009 9.73889 30.2717 9.85498 30.0858 9.89394C29.8994 9.93296 29.3143 9.92125 29.1138 9.87446C28.7277 9.78436 28.5281 9.59236 28.3061 9.09713L28.206 8.87423H27.0584L25.9106 8.87416L25.7197 9.14461C25.4007 9.59645 25.1723 9.79039 24.8593 9.87529C24.7163 9.91411 24.2194 9.91827 24.0654 9.88188C23.8328 9.82712 23.6354 9.67277 23.5394 9.47072C23.436 9.25309 23.4288 9.1686 23.4288 8.1597C23.4288 7.43727 23.424 7.24223 23.4059 7.24299C23.3933 7.24354 23.2819 7.38584 23.1584 7.55932C22.8633 7.97381 22.6372 8.24253 22.5119 8.32799C22.3817 8.41664 22.213 8.46037 22.0534 8.44665C21.841 8.42849 21.6926 8.33991 21.5262 8.13211C21.2529 7.79089 20.5437 6.96699 20.5233 6.96699C20.4855 6.96699 20.4765 7.24333 20.4764 8.40783C20.4763 9.59368 20.4769 9.58696 20.3677 9.71934C20.3388 9.75441 20.2709 9.80765 20.2169 9.83752C20.1303 9.88548 20.1013 9.89186 19.972 9.89096C19.7969 9.88985 19.7157 9.85457 19.6008 9.72988C19.4536 9.57018 19.4606 9.6998 19.4753 7.41627C19.4893 5.24835 19.4891 5.25278 19.5854 5.06266C19.715 4.80697 19.9218 4.69323 20.2563 4.69358C20.5515 4.69393 20.7529 4.8015 21.0549 5.1204C21.1553 5.22631 21.5097 5.65985 21.8426 6.08376C22.1754 6.50766 22.4575 6.85505 22.4694 6.85568C22.4813 6.85637 22.7618 6.46282 23.0927 5.98125C23.7416 5.03681 23.8725 4.87594 24.0707 4.77918C24.433 4.60237 24.8228 4.73246 25.0026 5.09025C25.1128 5.30969 25.116 5.35044 25.116 6.56249C25.116 7.43138 25.1208 7.66378 25.1389 7.66364C25.1515 7.66364 25.5043 7.08427 25.9229 6.37639C26.773 4.93859 26.7928 4.91039 27.0382 4.78916C27.1773 4.72047 27.1773 4.72047 27.4624 4.72103C27.7172 4.72151 27.759 4.72609 27.8547 4.76421C27.9829 4.81529 28.1271 4.92861 28.2073 5.04159C28.2394 5.08685 28.6109 5.86868 29.0328 6.77895C29.572 7.94269 29.8081 8.43383 29.8281 8.43341C29.8607 8.43272 30.7551 7.29469 30.7551 7.25387C30.7551 7.23904 30.3672 6.79711 29.8932 6.27187C28.9608 5.23871 28.9005 5.1606 28.9174 5.00791C28.9296 4.89798 29.0092 4.80427 29.1338 4.75312C29.229 4.71403 29.2565 4.71236 29.8143 4.71188C30.4544 4.71118 30.521 4.71874 30.7225 4.81432C30.9764 4.93485 31.274 5.20108 31.6995 5.6882C31.7752 5.77484 31.8461 5.84623 31.8572 5.84692C31.8867 5.84886 34.2348 2.84227 34.2246 2.81566C34.2135 2.78676 33.8746 2.60294 33.5334 2.44082C30.5443 1.02022 25.6342 0.378119 20.5405 0.742003C19.1267 0.84292 16.9651 1.12252 15.6673 1.37239C14.763 1.5465 13.1405 1.9404 12.1506 2.22617C11.0349 2.54826 10.4049 2.77269 9.51028 3.16651C9.04728 3.37029 8.09189 3.852 7.74013 4.05903C5.74529 5.23296 4.59659 6.54994 4.44667 7.83525C4.36273 8.55457 4.58307 9.26563 5.08364 9.89033C5.27799 10.133 5.70578 10.5469 5.75437 10.5393C5.78001 10.5353 6.24502 9.77167 7.42706 7.79214C8.70737 5.6482 9.08727 5.02558 9.16989 4.93589C9.29174 4.80372 9.47049 4.70509 9.64737 4.67237C9.85718 4.63363 10.3219 4.68297 10.5448 4.76767C10.6714 4.81578 10.8171 4.9196 10.8747 5.00285C10.9192 5.06703 11.2175 5.7119 11.7554 6.90731C11.8793 7.18262 11.9824 7.38875 11.9961 7.38875C12.0157 7.38875 12.0215 7.19489 12.027 6.36634C12.033 5.45469 12.0372 5.33221 12.0662 5.2349C12.1676 4.89389 12.3599 4.71403 12.6642 4.67577C12.8385 4.65393 13.2194 4.68048 13.3243 4.72179C13.4539 4.77287 13.5806 4.86221 13.7028 4.98885C13.8291 5.11977 14.0032 5.33221 15.0651 6.65121C15.4729 7.15767 15.8174 7.57208 15.8307 7.57208C15.8506 7.57208 15.855 7.35042 15.855 6.34672C15.855 4.93277 15.8496 4.9867 16.0083 4.8277C16.1357 4.70009 16.2444 4.66786 16.5129 4.67819C16.679 4.68457 16.7216 4.69282 16.8016 4.73427C16.9064 4.78847 16.9811 4.86755 17.031 4.9772C17.0628 5.04679 17.0645 5.15443 17.0643 7.06777C17.0641 8.67648 17.059 9.11308 17.0394 9.22335C16.9913 9.49318 16.8375 9.70049 16.6053 9.80875C16.4546 9.87904 16.2245 9.9044 15.9521 9.88077C15.5548 9.84632 15.3833 9.73085 14.975 9.22259C14.5669 8.71467 13.2773 7.18698 13.2566 7.18698C13.2388 7.18698 13.2327 7.39353 13.2286 8.12726C13.2234 9.06754 13.2234 9.06754 13.1609 9.19549C13.049 9.42456 12.7939 9.64123 12.4954 9.76065C12.2733 9.84951 12.1492 9.86878 11.8572 9.85998C11.5527 9.85076 11.3937 9.80889 11.1769 9.68088C10.9687 9.55792 10.8609 9.43205 10.7296 9.15896C10.6665 9.02755 10.6091 8.90133 10.6021 8.8786C10.5892 8.83715 10.5892 8.83715 9.5511 8.84186L8.51296 8.84664L7.75608 10.0937C7.33986 10.7795 6.99885 11.3495 6.99837 11.3603C6.99753 11.3784 7.5681 11.6303 7.8685 11.7444C10.1447 12.6093 12.8047 13.0909 16.0201 13.2203C16.5117 13.2401 18.7473 13.2281 19.2293 13.2031V13.2031ZM18.0149 9.88222C17.7324 9.83461 17.4951 9.60394 17.4344 9.31796C17.4117 9.21108 17.409 7.29809 17.4296 5.96745C17.4413 5.21556 17.4413 5.21556 17.4907 5.11007C17.5942 4.88938 17.8069 4.72865 18.0487 4.68859C18.385 4.63279 18.7436 4.82583 18.8658 5.12858C18.9083 5.23393 18.9083 5.23393 18.9135 7.18698C18.9169 8.49101 18.9121 9.1819 18.8992 9.26605C18.8491 9.59181 18.615 9.82941 18.2924 9.88174C18.1613 9.90302 18.1387 9.90309 18.0149 9.88222ZM34.7943 8.76978C35.728 7.96272 36.2585 7.18809 36.4344 6.37438C36.4885 6.12396 36.4939 5.58818 36.4444 5.35938C36.321 4.7877 36.0262 4.27335 35.5543 3.80633C35.4554 3.70825 35.3787 3.64656 35.3608 3.65038C35.3141 3.66049 32.8161 6.85949 32.8222 6.90142C32.8296 6.95188 34.5807 8.89017 34.62 8.89142C34.6378 8.89197 34.7162 8.83722 34.7943 8.76971V8.76978ZM27.8668 8.12158C27.8668 8.11118 27.7209 7.78514 27.5426 7.39728C27.3146 6.90101 27.2099 6.69203 27.1896 6.69245C27.1617 6.69314 26.3079 8.07583 26.3079 8.1204C26.3079 8.13482 26.5317 8.14057 27.0874 8.14057C27.6133 8.14057 27.8668 8.1344 27.8668 8.12158ZM10.2067 8.07098C10.2067 8.01532 9.70241 6.93989 9.67385 6.93469C9.64661 6.9297 8.9928 7.98303 8.98143 8.0504C8.97492 8.08866 9.03037 8.09198 9.81698 8.09995C10.1813 8.1037 10.2067 8.10176 10.2067 8.07098Z" fill="white"/>
</svg>
