<svg width="226" height="226" viewBox="0 0 226 226" fill="none" xmlns="http://www.w3.org/2000/svg">
  <path d="M225.667 0.5H0.666748V225.5H225.667V0.5Z" fill="#FF5D24"/>
  <path d="M88.193 101.4H95.0038V124.619H88.193V101.4ZM159.242 101.381V112.99C159.242 115.641 157.094 117.789 154.444 117.789C151.794 117.789 149.645 115.641 149.645 112.99V101.381H142.834V117.791C142.834 121.552 145.883 124.6 149.643 124.6H159.245C163.005 124.6 166.053 121.552 166.053 117.791V101.381H159.242ZM96.397 101.4V124.619H103.208V117.808H111.412C115.943 117.808 119.616 114.135 119.616 109.604C119.616 105.073 115.943 101.4 111.412 101.4H96.397ZM111.412 110.997H103.208V108.211H111.412C111.596 108.209 111.779 108.244 111.949 108.313C112.12 108.382 112.275 108.484 112.406 108.614C112.537 108.744 112.641 108.898 112.712 109.068C112.783 109.238 112.82 109.42 112.82 109.604C112.82 109.788 112.783 109.971 112.712 110.141C112.641 110.311 112.537 110.465 112.406 110.595C112.275 110.724 112.12 110.826 111.949 110.896C111.779 110.965 111.596 110.999 111.412 110.997ZM79.9888 101.4V117.316L72.5671 101.4H62.3508V117.503L65.669 124.619H69.1618V108.703L76.5835 124.619H86.7999V101.4H79.9888ZM53.305 101.4H46.4938L35.6667 124.619H49.6163L52.7922 117.808H45.6534L49.8995 108.703L57.3212 124.619H64.132L53.305 101.4Z" fill="white"/>
  <path d="M174.956 108.192H187.491L190.667 101.381H174.956C170.809 101.381 167.448 104.742 167.448 108.889C167.448 113.035 170.809 116.396 174.956 116.396H183.16C183.342 116.4 183.515 116.475 183.643 116.605C183.77 116.735 183.842 116.91 183.842 117.093C183.842 117.275 183.77 117.45 183.643 117.58C183.515 117.71 183.342 117.785 183.16 117.789H167.446V117.792C167.446 120.624 166.003 123.126 163.812 124.6H183.159C187.306 124.6 190.667 121.239 190.667 117.093C190.667 112.946 187.306 109.585 183.159 109.585H174.955C174.771 109.585 174.593 109.512 174.463 109.381C174.332 109.25 174.259 109.073 174.259 108.888C174.259 108.704 174.332 108.527 174.463 108.396C174.594 108.265 174.771 108.192 174.956 108.192ZM141.442 117.808H126.427V101.4H119.616V104.629C120.5 106.08 121.009 107.784 121.009 109.604C121.009 111.424 120.5 113.128 119.616 114.58V124.619H145.105C142.903 123.15 141.447 120.647 141.442 117.808Z" fill="white"/>
</svg>
