<svg width="168" height="25" viewBox="0 0 168 25" fill="none" xmlns="http://www.w3.org/2000/svg">
  <path d="M57.1466 0.0269697H64.4701V24.9935H57.1466V0.0269697ZM133.544 0.00646973V12.4896C133.544 15.3395 131.234 17.6495 128.384 17.6495C125.534 17.6495 123.224 15.3395 123.224 12.4896V0.00646973H115.901V17.6518C115.901 21.6951 119.179 24.973 123.222 24.973H133.546C137.589 24.973 140.867 21.6951 140.867 17.6518V0.00646973H133.544ZM65.9681 0.0269697V24.9935H73.2916V17.67H82.1131C86.9851 17.67 90.9346 13.7205 90.9346 8.84847C90.9346 3.97647 86.9851 0.0269697 82.1131 0.0269697H65.9681ZM82.1131 10.3465H73.2916V7.35064H82.1131C82.3111 7.34855 82.5076 7.38575 82.6912 7.46009C82.8747 7.53443 83.0417 7.64443 83.1825 7.78374C83.3233 7.92304 83.4351 8.08887 83.5113 8.27165C83.5876 8.45442 83.6269 8.6505 83.6269 8.84855C83.6269 9.0466 83.5876 9.24269 83.5113 9.42546C83.4351 9.60823 83.3233 9.77407 83.1825 9.91337C83.0417 10.0527 82.8747 10.1627 82.6912 10.237C82.5076 10.3114 82.3111 10.3486 82.1131 10.3465ZM48.3249 0.0269697V17.141L40.3446 0.0269697H29.3592V17.3418L32.9272 24.9935H36.6829V7.87947L44.6633 24.9935H55.6486V0.0269697H48.3249ZM19.6326 0.0269697H12.3087L0.666748 24.9935H15.6662L19.0812 17.67H11.4051L15.9707 7.8793L23.9511 24.9935H31.2746L19.6326 0.0269697Z" fill="#FF5D24"/>
  <path d="M150.439 7.32997H163.918L167.333 0.00646973H150.439C145.981 0.00646973 142.367 3.62064 142.367 8.07914C142.367 12.5375 145.981 16.1516 150.439 16.1516H159.261C159.457 16.1558 159.643 16.2365 159.78 16.3765C159.917 16.5165 159.994 16.7047 159.994 16.9006C159.994 17.0966 159.917 17.2847 159.78 17.4248C159.643 17.5648 159.457 17.6455 159.261 17.6496H142.365V17.6521C142.365 20.6981 140.812 23.3881 138.457 24.9731H159.261C163.719 24.9731 167.333 21.359 167.333 16.9006C167.333 12.4423 163.719 8.82797 159.261 8.82797H150.439C150.24 8.82795 150.05 8.74901 149.909 8.60853C149.769 8.46805 149.69 8.27753 149.69 8.07889C149.69 7.88024 149.769 7.68974 149.91 7.54929C150.05 7.40884 150.241 7.32995 150.439 7.32997ZM114.403 17.67H98.2581V0.0269697H90.9346V3.4983C91.8847 5.05947 92.4326 6.89114 92.4326 8.84847C92.4326 10.8058 91.8847 12.6373 90.9346 14.1985V24.9936H118.342C115.974 23.4143 114.409 20.722 114.403 17.67Z" fill="#FF5D24"/>
</svg>
