<svg width="94" height="14" viewBox="0 0 94 14" fill="none" xmlns="http://www.w3.org/2000/svg">
  <path d="M31.6449 0.015148H35.7482V14.0036H31.6449V0.015148ZM74.4493 0.00366211V6.99783C74.4493 8.59455 73.1551 9.88882 71.5583 9.88882C69.9617 9.88882 68.6674 8.59455 68.6674 6.99783V0.00366211H64.5642V9.89012C64.5642 12.1556 66.4007 13.9921 68.6661 13.9921H74.4506C76.7161 13.9921 78.5527 12.1556 78.5527 9.89012V0.00366211H74.4493ZM36.5875 0.015148V14.0036H40.6908V9.9003H45.6334C48.3631 9.9003 50.5759 7.68745 50.5759 4.95772C50.5759 2.228 48.3631 0.015148 45.6334 0.015148H36.5875ZM45.6334 5.79704H40.6908V4.11851H45.6334C45.7443 4.11734 45.8544 4.13818 45.9573 4.17983C46.0601 4.22148 46.1537 4.28312 46.2326 4.36117C46.3114 4.43922 46.3741 4.53213 46.4168 4.63454C46.4595 4.73694 46.4815 4.84681 46.4815 4.95777C46.4815 5.06874 46.4595 5.1786 46.4168 5.28101C46.3741 5.38341 46.3114 5.47633 46.2326 5.55438C46.1537 5.63242 46.0601 5.69406 45.9573 5.73571C45.8544 5.77736 45.7443 5.79821 45.6334 5.79704ZM26.7023 0.015148V9.60391L22.231 0.015148H16.0761V9.71643L18.0752 14.0036H20.1794V4.41481L24.6507 14.0036H30.8056V0.015148H26.7023ZM10.6263 0.015148H6.52287L0 14.0036H8.40403L10.3174 9.9003H6.01655L8.57464 4.41471L13.0459 14.0036H17.1492L10.6263 0.015148Z" fill="white"/>
  <path d="M83.9159 4.10693H91.468L93.3814 0.00366211H83.9159C81.4179 0.00366211 79.3929 2.02863 79.3929 4.52668C79.3929 7.02463 81.4179 9.0496 83.9159 9.0496H88.8585C88.9682 9.05191 89.0727 9.09714 89.1495 9.17559C89.2264 9.25404 89.2694 9.35946 89.2694 9.46925C89.2694 9.57904 89.2264 9.68447 89.1495 9.76291C89.0727 9.84136 88.9682 9.88659 88.8585 9.88891H79.392V9.89031C79.392 11.5969 78.5221 13.1041 77.2026 13.9922H88.8584C91.3563 13.9922 93.3814 11.9672 93.3814 9.46925C93.3814 6.9713 91.3563 4.94624 88.8584 4.94624H83.9158C83.8045 4.94623 83.6978 4.902 83.6191 4.82329C83.5404 4.74458 83.4962 4.63784 83.4962 4.52654C83.4962 4.41524 83.5404 4.3085 83.6191 4.22981C83.6979 4.15112 83.8046 4.10692 83.9159 4.10693ZM63.7251 9.9003H54.6794V0.015148H50.5762V1.96009C51.1085 2.8348 51.4155 3.86106 51.4155 4.95772C51.4155 6.05439 51.1085 7.08056 50.5762 7.95526V14.0037H65.9324C64.6054 13.1188 63.7286 11.6103 63.7251 9.9003Z" fill="white"/>
</svg>
