<svg width="225" height="225" viewBox="0 0 225 225" fill="none" xmlns="http://www.w3.org/2000/svg">
  <path d="M225 0H0V225H225V0Z" fill="#B1242A"/>
  <path d="M53.9566 138.798L65.0339 124.688L70.5003 138.798H53.9618H53.9566ZM65.3904 108.739L65.2179 108.692L65.2401 108.739H57.8001L37.4956 159.775H37.6852L37.6666 159.828H45.0085L50.7125 144.354H72.6295L78.69 159.776H78.8398L78.8605 159.829H86.7706L65.3961 108.741L65.3904 108.739ZM78.7824 114.753H96.2251V159.594L96.2081 159.671H96.2251V159.831H103.164V114.753H120.428V108.749H78.7824V114.753Z" fill="#C7C8C9"/>
  <path d="M157.657 118.235L119.863 76.3643C123.593 73.8848 126.889 71.0323 127.385 69.0793C127.548 68.4407 127.391 67.9897 127.23 67.7303C125.843 65.4678 119.196 68.2237 114.66 70.6148L110.767 66.296L114.033 70.9429C113.601 71.1806 113.194 71.4074 112.817 71.626C108.018 74.4098 102.897 78.322 102.267 80.802C102.108 81.4375 102.26 81.888 102.427 82.1427C104.021 84.7436 112.543 80.7301 116.837 78.2491C117.385 77.9276 117.93 77.6003 118.471 77.2674L152.21 125.286L125.359 160.528H136.529C136.529 160.528 156.09 134.251 157.573 132.013C158.541 133.463 178.214 160.528 178.214 160.528H189.565L163.318 124.708L187.638 92.1784H177.444L157.65 118.239L157.657 118.235Z" fill="#C7C8C9"/>
  <path d="M57.7591 112.701C58.5718 115.504 59.8459 119.077 61.4786 123.319L61.5313 123.464L65.8522 117.796L61.6765 107.53H54.376L35.001 158.085H35.1053L50.9463 137.315L49.3974 137.312L49.4077 137.306L49.3974 137.275L57.757 112.692L57.7591 112.701Z" fill="white"/>
  <path d="M68.7797 142.777L68.8019 142.835H68.8329L74.6557 158.087H82.2352L65.8517 117.792L61.5288 123.46L66.7523 137.317H50.9474L35.1064 158.087H42.0659L47.5529 142.778H68.7828L68.7797 142.777Z" fill="white"/>
  <path d="M61.4221 123.247C59.8184 119.066 58.5686 115.46 57.7574 112.681L49.3926 137.3L50.9844 137.309L61.5038 123.478L61.4201 123.249L61.4221 123.247Z" fill="white"/>
  <path d="M104.026 113.471L85.411 107.421H85.2895L74.8115 113.471H91.3655V158.091H91.412L98.0409 132.846V113.471H104.029H104.026ZM85.3283 107.411L85.3882 107.426ZM85.3025 107.411H74.7935V107.426H85.2715L85.3056 107.411H85.3025Z" fill="white"/>
  <path d="M85.3129 107.406L85.3041 107.409H85.3299L85.3129 107.406ZM74.7832 113.471H74.7899V107.421H74.7832V113.471ZM98.0332 158.07V132.826L91.3889 158.07H98.0332Z" fill="white"/>
  <path d="M85.3903 107.421L85.3273 107.406H85.3014L85.2673 107.421H85.3903ZM114.618 113.471V107.421H85.3903L104.006 113.471H114.618ZM74.7935 107.421V113.471L85.2715 107.421H74.7935Z" fill="white"/>
  <path d="M153.678 122.627L148.295 129.979C148.754 130.701 149.23 131.413 149.704 132.12C150.182 132.822 150.658 133.515 151.145 134.202L159.644 146.215L168.138 158.212H179.024L153.677 122.629L153.678 122.627ZM122.42 158.225H128.01L136.985 145.872L117.584 158.225H122.417H122.42ZM165.51 106.522L177.104 90.5779H167.36L153.993 108.429C153.03 109.678 152.091 110.946 151.177 112.232L157.852 117.043L165.509 106.518L165.51 106.522Z" fill="white"/>
  <path d="M151.198 112.237C150.302 113.502 149.44 114.791 148.611 116.101L148.583 116.143L101.794 64.3726L143.169 123.273L117.279 158.235H117.607L137.003 145.882L145.135 134.696C145.791 133.781 146.84 132.226 148.267 130.008L157.872 117.06L151.197 112.253L151.198 112.237Z" fill="white"/>
  <path d="M110.847 77.8058C103.789 82.0172 99.3042 82.7736 98.9477 82.1624L98.9663 81.9402C99.3285 80.5008 102.775 77.1481 108.442 73.7614C115.5 69.5609 119.989 68.8055 120.346 69.4115L120.327 69.644C119.964 71.0752 116.519 74.4294 110.847 77.8022M121.598 68.6572C120.051 66.0615 111.828 70.0439 107.69 72.5115C103.08 75.2525 98.1623 79.1197 97.5372 81.5739C97.3832 82.2073 97.5268 82.6563 97.6808 82.9141C99.2282 85.5067 107.461 81.5377 111.595 79.0717C116.201 76.3204 121.122 72.4532 121.742 69.999C121.906 69.3656 121.755 68.9264 121.598 68.6619" fill="white"/>
  <path d="M110.227 76.3333C103.174 80.5411 98.6897 81.2928 98.3228 80.6899C97.9643 80.0854 100.763 76.4971 107.819 72.294C114.877 68.091 119.356 67.3346 119.723 67.9375C120.085 68.542 117.288 72.1267 110.222 76.3333M120.979 67.1884C119.436 64.5957 111.203 68.5715 107.07 71.0339C102.934 73.5036 95.5225 78.8407 97.0622 81.4396C98.6148 84.0353 106.838 80.0544 110.976 77.5956C115.11 75.1295 122.524 69.7784 120.979 67.1899" fill="white"/>
  <path d="M108.573 73.9722L106.475 70.9988L107.578 70.7343L109.816 73.2189L108.573 73.9722Z" fill="white"/>
  <path d="M125.623 140.917L119.604 137.691L113.538 140.821L114.742 134.11L109.889 129.312L116.657 128.373L119.719 122.271L122.699 128.425L129.441 129.449L124.521 134.18L125.624 140.917L125.623 140.917Z" fill="#C7C8C9"/>
  <path d="M111.828 139.212L117.424 136.332L122.807 139.21L114.954 131.14L111.829 139.21L111.828 139.212ZM120.25 127.793L117.509 122.125L117.468 122.211L116.991 131.914L126.431 128.78L126.48 128.746L120.254 127.791L120.25 127.793ZM122.936 139.263L122.988 139.294Z" fill="white"/>
  <path d="M111.828 139.212L114.954 131.141L122.807 139.212L122.926 139.275L121.915 133.126L126.452 128.76L117.012 131.897L117.488 122.194L114.696 127.732H114.679L114.66 127.772L108.491 128.619L110.201 130.313L112.206 132.196L112.199 132.283L111.827 139.212H111.828Z" fill="white"/>
</svg>
