<svg width="40" height="25" viewBox="0 0 40 25" fill="none" xmlns="http://www.w3.org/2000/svg">
  <path d="M4.87879 19.2431L7.72986 15.6114L9.13677 19.2431H4.88012H4.87879ZM7.82161 11.5064L7.7772 11.4944L7.78291 11.5064H5.86802L0.64209 24.642H0.690893L0.686106 24.6556H2.57573L4.04382 20.6728H9.68478L11.2446 24.6423H11.2832L11.2885 24.656H13.3244L7.82307 11.507L7.82161 11.5064ZM11.2684 13.0542H15.7578V24.5954L15.7534 24.6151H15.7578V24.6565H17.5437V13.0542H21.987V11.509H11.2684V13.0542Z" fill="#C7C8C9"/>
  <path d="M31.5689 13.9505L21.8415 3.17388C22.8015 2.53571 23.65 1.80154 23.7777 1.29888C23.8194 1.13451 23.779 1.01842 23.7378 0.951668C23.3807 0.369355 21.6699 1.07866 20.5024 1.69409L19.5005 0.58252L20.341 1.77853C20.2298 1.8397 20.1251 1.89808 20.0281 1.95433C18.7929 2.67082 17.4749 3.67773 17.3126 4.31603C17.2718 4.47959 17.3109 4.59555 17.3539 4.66111C17.7641 5.33052 19.9576 4.29755 21.0626 3.65898C21.2038 3.57623 21.344 3.492 21.4834 3.40632L30.1669 15.7654L23.256 24.8358H26.131C26.131 24.8358 31.1656 18.0725 31.5472 17.4967C31.7964 17.8699 36.8597 24.8358 36.8597 24.8358H39.7812L33.0259 15.6164L39.2852 7.24409H36.6616L31.5671 13.9515L31.5689 13.9505Z" fill="#C7C8C9"/>
  <path d="M5.85794 12.5262C6.06711 13.2475 6.39504 14.1671 6.81525 15.2589L6.82881 15.2961L7.94091 13.8374L6.86618 11.1951H4.98719L0.000488281 24.207H0.02735L4.10448 18.8613L3.70581 18.8605L3.70847 18.8588L3.70581 18.8508L5.8574 12.5237L5.85794 12.5262Z" fill="#B1242A"/>
  <path d="M8.6941 20.2669L8.69982 20.2819H8.7078L10.2065 24.2074H12.1573L7.94051 13.8364L6.82788 15.2952L8.17229 18.8617H4.10447L0.0273438 24.2074H1.81857L3.2308 20.2673H8.6949L8.6941 20.2669Z" fill="#231F20"/>
  <path d="M6.80073 15.2403C6.38797 14.1642 6.06629 13.2363 5.85752 12.5209L3.70459 18.8573L4.1143 18.8596L6.82174 15.2997L6.8002 15.2408L6.80073 15.2403Z" fill="#231F20"/>
  <path d="M17.7661 12.7244L12.9749 11.1672H12.9437L10.2468 12.7244H14.5075V24.2084H14.5194L16.2256 17.7111V12.7244H17.7668H17.7661ZM12.9536 11.1646L12.969 11.1685ZM12.947 11.1646H10.2422V11.1685H12.939L12.9478 11.1646H12.947Z" fill="#B1242A"/>
  <path d="M12.9494 11.1632L12.9471 11.164H12.9538L12.9494 11.1632ZM10.2393 12.7244H10.241V11.1672H10.2393V12.7244ZM16.2233 24.2031V17.7058L14.5132 24.2031H16.2233Z" fill="#231F20"/>
  <path d="M12.9691 11.1672L12.9529 11.1632H12.9462L12.9374 11.1672H12.9691ZM20.4917 12.7244V11.1672H12.9691L17.7603 12.7244H20.4917ZM10.2417 11.1672V12.7244L12.9385 11.1672H10.2417Z" fill="#231F20"/>
  <path d="M30.5453 15.0807L29.1596 16.973C29.278 17.1589 29.4005 17.3421 29.5223 17.5242C29.6453 17.7048 29.768 17.8832 29.8933 18.06L32.0808 21.1517L34.2669 24.2395H37.0688L30.5449 15.0812L30.5453 15.0807ZM22.5001 24.2429H23.9389L26.2487 21.0634L21.2554 24.2429H22.4993H22.5001ZM33.5905 10.9358L36.5745 6.83203H34.0665L30.6264 11.4264C30.3785 11.7481 30.1368 12.0744 29.9015 12.4053L31.6196 13.6435L33.5903 10.9347L33.5905 10.9358Z" fill="#B1242A"/>
  <path d="M29.9068 12.4066C29.6763 12.7323 29.4543 13.064 29.2409 13.4012L29.2338 13.4119L17.1914 0.0874023L27.8403 15.247L21.1768 24.2456H21.2612L26.2532 21.0661L28.3463 18.1871C28.5151 17.9515 28.785 17.5515 29.1524 16.9805L31.6245 13.648L29.9064 12.4108L29.9068 12.4066Z" fill="#231F20"/>
  <path d="M19.5211 3.54482C17.7046 4.62873 16.5504 4.82341 16.4586 4.6661L16.4634 4.60891C16.5566 4.23844 17.4436 3.37554 18.9022 2.50386C20.7187 1.42274 21.8743 1.22833 21.9661 1.38431L21.9613 1.44415C21.8677 1.8125 20.9811 2.6758 19.5211 3.54389M22.2884 1.19016C21.8901 0.522079 19.7738 1.54708 18.7086 2.18219C17.5223 2.88764 16.2565 3.88298 16.0956 4.51463C16.056 4.67766 16.0929 4.79322 16.1326 4.85958C16.5308 5.52687 18.6499 4.50532 19.7137 3.87062C20.8992 3.1625 22.1658 2.16716 22.3254 1.53551C22.3675 1.37248 22.3288 1.25945 22.2884 1.19136" fill="#B1242A"/>
  <path d="M19.3615 3.16589C17.5464 4.24887 16.3921 4.44236 16.2977 4.28717C16.2054 4.13159 16.9258 3.20805 18.7419 2.12627C20.5584 1.04448 21.7113 0.849804 21.8057 1.00499C21.8988 1.16058 21.179 2.08318 19.3602 3.16589M22.1288 0.812171C21.7319 0.144884 19.6129 1.16816 18.549 1.80193C17.4844 2.43757 15.577 3.81124 15.9732 4.48012C16.3728 5.14821 18.4892 4.12361 19.5544 3.49076C20.6185 2.85605 22.5264 1.47879 22.1288 0.81257" fill="#B1242A"/>
  <path d="M18.9362 2.55811L18.396 1.79282L18.6799 1.72473L19.2561 2.36423L18.9362 2.55811Z" fill="#221B19"/>
  <path d="M23.3246 19.7882L21.7754 18.9579L20.2143 19.7636L20.5241 18.0362L19.2749 16.8015L21.0169 16.5597L21.805 14.9893L22.572 16.573L24.3073 16.8367L23.041 18.0543L23.3249 19.7883L23.3246 19.7882Z" fill="#C7C8C9"/>
  <path d="M19.7739 19.3494L21.2141 18.6083L22.5997 19.349L20.5784 17.2719L19.7741 19.349L19.7739 19.3494ZM21.9415 16.4106L21.236 14.9518L21.2254 14.9737L21.1028 17.4711L23.5323 16.6645L23.5451 16.6558L21.9427 16.41L21.9415 16.4106ZM22.633 19.3627L22.6463 19.3707Z" fill="#231F20"/>
  <path d="M19.7739 19.3494L20.5783 17.2723L22.5996 19.3494L22.6303 19.3656L22.3701 17.7832L23.5376 16.6593L21.1081 17.4667L21.2307 14.9694L20.5121 16.3949H20.5077L20.5028 16.405L18.915 16.6231L19.3552 17.059L19.8712 17.5437L19.8694 17.5662L19.7737 19.3494H19.7739Z" fill="#B1242A"/>
</svg>
