<svg width="23" height="14" viewBox="0 0 23 14" fill="none" xmlns="http://www.w3.org/2000/svg">
  <path d="M2.73242 10.7904L4.32901 8.7567L5.11688 10.7904H2.73316H2.73242ZM4.38039 6.45787L4.35552 6.45117L4.35872 6.45787H3.28638L0.359863 13.8138H0.387193L0.384512 13.8214H1.4427L2.26483 11.5911H5.42377L6.29728 13.814H6.31887L6.32185 13.8217H7.46196L4.38121 6.45825L4.38039 6.45787ZM6.31061 7.32468H8.82465V13.7878L8.82219 13.7988H8.82465V13.8219H9.82476V7.32468H12.313V6.45936H6.31061V7.32468Z" fill="#C7C8C9"/>
  <path d="M17.6787 7.82663L12.2313 1.79174C12.7689 1.43436 13.2441 1.02323 13.3156 0.741736C13.339 0.649693 13.3163 0.584683 13.2933 0.5473C13.0933 0.221204 12.1353 0.618417 11.4815 0.963055L10.9204 0.340576L11.3911 1.01034C11.3288 1.0446 11.2702 1.07729 11.2158 1.10879C10.5242 1.51002 9.78604 2.0739 9.69519 2.43134C9.67233 2.52294 9.69422 2.58787 9.71827 2.62459C9.94801 2.99946 11.1764 2.42099 11.7952 2.0634C11.8742 2.01705 11.9528 1.96989 12.0308 1.92191L16.8936 8.84297L13.0235 13.9224H14.6335C14.6335 13.9224 17.4528 10.135 17.6666 9.81254C17.8061 10.0215 20.6416 13.9224 20.6416 13.9224H22.2776L18.4946 8.75957L21.9998 4.07105H20.5306L17.6777 7.82723L17.6787 7.82663Z" fill="#C7C8C9"/>
  <path d="M3.28017 7.029C3.39731 7.43291 3.58095 7.94793 3.81627 8.55931L3.82386 8.58017L4.44664 7.76325L3.84479 6.28357H2.79255L0 13.5703H0.0150426L2.29823 10.5767L2.07498 10.5762L2.07647 10.5752L2.07498 10.5708L3.27987 7.02758L3.28017 7.029Z" fill="white"/>
  <path d="M4.86852 11.3639L4.87172 11.3723H4.87619L5.71544 13.5706H6.80789L4.44651 7.76282L3.82343 8.57973L4.57631 10.577H2.29833L0.0151367 13.5706H1.01822L1.80907 11.3641H4.86897L4.86852 11.3639Z" fill="white"/>
  <path d="M3.80806 8.549C3.57691 7.9464 3.39677 7.42676 3.27986 7.02612L2.07422 10.5745L2.30365 10.5758L3.81983 8.58228L3.80776 8.54929L3.80806 8.549Z" fill="white"/>
  <path d="M9.94876 7.13999L7.26567 6.26797H7.24817L5.73796 7.13999H8.12392V13.5711H8.13062L9.08604 9.93254V7.13999H9.94913H9.94876ZM7.25376 6.26648L7.26239 6.26871ZM7.25003 6.26648H5.73535V6.26871H7.24556L7.25048 6.26648H7.25003Z" fill="white"/>
  <path d="M7.25155 6.26575L7.25028 6.26619H7.254L7.25155 6.26575ZM5.73389 7.14H5.73485V6.26798H5.73389V7.14ZM9.08495 13.5681V9.92958L8.12729 13.5681H9.08495Z" fill="white"/>
  <path d="M7.26269 6.26798L7.25361 6.26575H7.24988L7.24497 6.26798H7.26269ZM11.4754 7.14V6.26798H7.26269L9.94578 7.14H11.4754ZM5.73535 6.26798V7.14L7.24556 6.26798H5.73535Z" fill="white"/>
  <path d="M17.1052 8.45959L16.3292 9.51927C16.3955 9.62337 16.4641 9.72599 16.5323 9.82794C16.6012 9.92907 16.6699 10.029 16.7401 10.128L17.9651 11.8594L19.1893 13.5885H20.7584L17.1049 8.45988L17.1052 8.45959ZM12.5999 13.5904H13.4056L14.6991 11.8099L11.9028 13.5904H12.5994H12.5999ZM18.8105 6.13842L20.4816 3.84033H19.0771L17.1506 6.4132C17.0118 6.59331 16.8765 6.77606 16.7447 6.96136L17.7068 7.65474L18.8104 6.13782L18.8105 6.13842Z" fill="white"/>
  <path d="M16.7481 6.96208C16.619 7.14451 16.4946 7.33025 16.3751 7.5191L16.3712 7.52506L9.62744 0.0633545L15.5908 8.55272L11.8592 13.592H11.9065L14.7021 11.8114L15.8742 10.1992C15.9687 10.0672 16.1199 9.84325 16.3256 9.52348L17.71 7.65731L16.7479 6.96446L16.7481 6.96208Z" fill="white"/>
  <path d="M10.9317 1.99944C9.91448 2.60643 9.2681 2.71545 9.21671 2.62735L9.21939 2.59533C9.2716 2.38786 9.7683 1.90464 10.5851 1.4165C11.6024 0.811077 12.2495 0.702205 12.3009 0.789556L12.2982 0.823067C12.2458 1.02934 11.7493 1.51279 10.9317 1.99892M12.4814 0.680833C12.2584 0.306705 11.0732 0.880705 10.4767 1.23636C9.81238 1.63142 9.10352 2.18881 9.01342 2.54253C8.99122 2.63383 9.01193 2.69855 9.03412 2.73571C9.25715 3.10939 10.4438 2.53732 11.0395 2.18189C11.7034 1.78534 12.4127 1.22795 12.5021 0.874226C12.5257 0.782928 12.504 0.719631 12.4814 0.681503" fill="white"/>
  <path d="M10.8423 1.78727C9.82586 2.39373 9.17948 2.50209 9.1266 2.41518C9.07492 2.32805 9.47832 1.81087 10.4953 1.20507C11.5126 0.599277 12.1582 0.490256 12.2111 0.57716C12.2632 0.664287 11.8601 1.18095 10.8416 1.78727M12.392 0.469181C12.1697 0.0955003 10.9831 0.668532 10.3873 1.02345C9.79116 1.3794 8.72299 2.14866 8.9449 2.52323C9.16868 2.89736 10.3538 2.32359 10.9503 1.96919C11.5462 1.61376 12.6147 0.84249 12.392 0.469404" fill="white"/>
  <path d="M10.6042 1.44692L10.3018 1.01835L10.4607 0.980225L10.7834 1.33834L10.6042 1.44692Z" fill="white"/>
  <path d="M13.0618 11.0957L12.1942 10.6308L11.32 11.082L11.4935 10.1146L10.7939 9.42318L11.7695 9.28779L12.2108 8.40833L12.6403 9.29524L13.6121 9.44291L12.903 10.1247L13.0619 11.0958L13.0618 11.0957Z" fill="#C7C8C9"/>
  <path d="M11.0732 10.85L11.8797 10.435L12.6557 10.8498L11.5238 9.68657L11.0733 10.8498L11.0732 10.85ZM12.2871 9.20424L11.892 8.38733L11.8861 8.39962L11.8174 9.79813L13.1779 9.34648L13.1851 9.34156L12.2877 9.20395L12.2871 9.20424ZM12.6743 10.8574L12.6818 10.8619Z" fill="white"/>
  <path d="M11.0733 10.85L11.5237 9.68686L12.6556 10.85L12.6728 10.8591L12.5271 9.97296L13.1809 9.34356L11.8204 9.79573L11.8891 8.39722L11.4866 9.19551H11.4842L11.4814 9.20117L10.5923 9.3233L10.8388 9.56741L11.1277 9.83884L11.1267 9.85143L11.0731 10.85H11.0733Z" fill="white"/>
</svg>
