<svg width="226" height="226" viewBox="0 0 226 226" fill="none" xmlns="http://www.w3.org/2000/svg">
  <path d="M225.667 0.5H0.666992V225.5H225.667V0.5Z" fill="white"/>
  <path d="M135.52 105.171C132 101.721 127.697 99.9715 122.73 99.9715C117.761 99.9715 113.522 101.722 110.018 105.171C109.261 105.913 108.517 106.692 108.052 107.504V106.928C108.052 104.925 107.321 103.126 105.895 101.735C104.474 100.332 102.72 99.5913 100.712 99.5913C99.1494 99.5913 97.5121 100.046 96.4271 100.907V94.5005C96.4271 94.449 96.3972 94.3974 96.3937 94.3458C96.3293 93.2873 95.9397 92.2556 95.2689 91.2884C94.3615 89.9685 92.5677 88.3944 89.2039 88.3944C85.9115 88.3944 84.0744 89.8777 83.1154 91.122C82.4018 92.0476 82.1599 92.7243 82.0117 93.7372C81.9941 93.8584 82.0117 94.2878 82.0117 94.4097V97.5843L78.2741 91.6077C77.9402 90.9234 77.3338 90.3077 76.5781 89.7729C75.3069 88.8567 73.6519 88.3921 71.7122 88.3921C71.6126 88.3921 71.4978 88.3933 71.4041 88.3956C66.4931 88.4964 63.5933 91.463 63.4609 96.5351C63.4609 96.5509 63.4568 96.5667 63.4562 96.5819L63.3613 109.315C62.7684 107.795 62.1269 106.146 61.4316 104.357C61.1445 103.455 60.595 102.584 59.7954 101.766C58.2564 100.194 56.1984 99.3465 53.674 99.248C51.0179 99.149 48.8117 99.934 47.0706 101.588C46.1169 102.51 45.2739 103.795 44.493 105.519C44.479 105.55 44.4655 105.582 44.4525 105.614L35.9557 126.611C35.8787 126.802 35.8252 127.001 35.7964 127.204L35.7056 127.838C35.6968 127.9 35.6903 127.963 35.6862 128.026C35.6322 128.775 35.6865 129.528 35.8473 130.261C36.3775 132.683 38.0682 134.456 40.5966 135.251C43.1163 136.057 45.2973 135.888 47.0524 134.757C48.2792 133.952 49.1462 132.781 49.6289 131.275L53.1234 121.031L56.807 132.096C56.8809 132.317 56.9846 132.527 57.1152 132.72L57.4597 133.227C57.4995 133.286 57.5428 133.344 57.5885 133.4C58.083 134.009 58.6782 134.568 59.3589 134.983C60.4837 135.671 61.7491 136.058 63.1199 136.058C64.2137 136.058 65.3836 135.791 66.612 135.337C69.4849 134.254 70.4726 132.365 70.7989 130.971C71.1071 129.616 70.9384 128.21 70.308 126.928C70.2401 126.785 70.0514 126.337 69.6033 125.222C69.8224 125.237 70.0485 125.245 70.2828 125.245C72.6847 125.245 74.7796 124.637 76.188 123.43C77.5547 122.246 78.4469 120.624 78.4469 118.74V116.815L80.8207 121.121C80.8418 121.154 80.7984 121.088 80.8207 121.121C81.2442 121.747 81.7129 122.32 82.2981 122.824C84.0439 124.371 86.1658 125.155 88.6461 125.155C88.7194 125.155 88.8289 125.154 88.9016 125.153C90.7364 125.119 92.0867 124.671 93.1717 124.059V129.193C93.1717 131.19 93.9596 132.992 95.4007 134.415C96.8325 135.811 98.6638 136.548 100.666 136.548C102.674 136.548 104.465 135.807 105.887 134.404C107.317 132.992 108.052 131.19 108.052 129.193V128.067C108.517 128.879 109.258 129.66 110.014 130.403C113.522 133.856 117.79 135.606 122.759 135.606C127.727 135.606 132.015 133.857 135.539 130.403C139.058 126.939 140.836 122.692 140.836 117.78C140.836 112.866 139.042 108.624 135.52 105.171Z" fill="black"/>
  <path d="M122.885 102.925C127.076 102.925 130.657 104.38 133.628 107.291C136.587 110.189 138.067 113.697 138.067 117.816C138.067 121.935 136.587 125.45 133.628 128.36C130.657 131.27 127.076 132.726 122.885 132.726C118.694 132.726 115.113 131.27 112.141 128.36C109.183 125.449 107.703 121.934 107.703 117.816C107.703 113.698 109.183 110.189 112.141 107.291C115.113 104.38 118.693 102.925 122.885 102.925Z" fill="#FF2400"/>
  <path d="M105.574 106.673V128.937C105.574 130.266 105.097 131.395 104.142 132.325C103.188 133.267 102.035 133.737 100.682 133.737C99.3292 133.737 98.1699 133.267 97.2038 132.326C96.2501 131.394 95.7727 130.266 95.7727 128.937V106.673C95.7727 105.344 96.2501 104.209 97.2038 103.267C98.1704 102.325 99.3298 101.854 100.682 101.854C102.035 101.854 103.188 102.325 104.142 103.267C105.097 104.209 105.574 105.344 105.574 106.673ZM75.9166 92.5239L84.3233 106.383V94.1361C84.4076 93.5562 84.673 92.9762 85.12 92.3968C86.014 91.2369 87.3725 90.6575 89.1962 90.6575C91.0204 90.6575 92.3421 91.255 93.164 92.4513C93.5741 93.043 93.7978 93.6347 93.8342 94.2264V117.651C93.8342 118.726 93.5746 119.65 93.055 120.422C92.2097 121.679 90.7908 122.325 88.7978 122.361C86.8652 122.398 85.2413 121.823 83.9249 120.641C83.5094 120.287 83.1437 119.878 82.8376 119.426L75.5734 107.524V118.467C75.5734 119.614 75.1691 120.537 74.3595 121.238C73.4298 122.036 72.0707 122.434 70.2833 122.434C68.4233 122.434 67.1252 121.775 66.3882 120.46C66.1557 120.028 65.9907 119.564 65.899 119.082L65.827 118.467L65.9898 96.3283C66.0865 92.6317 67.9043 90.7424 71.4433 90.6575C72.9647 90.6218 74.1662 90.9235 75.0485 91.5638C75.4943 91.8772 75.7843 92.1976 75.9166 92.5239ZM57.981 103.285C58.5252 103.84 58.8755 104.39 59.0325 104.934C64.7086 119.524 67.7104 127.138 68.0361 127.778C68.4228 128.539 68.5188 129.319 68.3261 130.115C68.0601 131.263 67.1908 132.108 65.7174 132.652C63.7244 133.388 62.0454 133.34 60.6811 132.507C60.2515 132.258 59.871 131.932 59.558 131.546L59.2136 131.04L54.5756 117.09C53.9599 116.172 53.295 115.9 52.5832 116.275C52.1368 116.514 51.9423 116.782 51.6951 117.09L47.2205 130.224C46.9182 131.178 46.3992 131.891 45.6622 132.363C44.5749 133.063 43.1437 133.128 41.3687 132.561C39.678 132.029 38.6633 130.991 38.3247 129.445C38.2146 128.952 38.1781 128.445 38.2164 127.941L38.3072 127.307L46.804 106.311C47.432 104.897 48.108 103.846 48.8327 103.158C50.053 101.999 51.6347 101.455 53.5797 101.528C55.4391 101.6 56.906 102.186 57.981 103.285Z" fill="white"/>
  <path d="M186.186 124.33C186.631 124.001 187.033 123.616 187.381 123.185C188.315 122.044 188.824 120.613 188.818 119.139C188.818 117.389 188.156 115.811 186.916 114.591C186.639 114.313 186.337 114.06 186.015 113.836C187.008 113.511 187.913 112.962 188.66 112.231C189.972 110.938 190.667 109.292 190.667 107.472C190.667 105.644 189.968 104.121 188.634 102.825C187.324 101.57 185.664 101.028 183.836 101.028H168.13C166.361 101.028 164.937 101.314 163.852 102.243V94.8807C163.852 94.8292 163.824 94.7776 163.821 94.726C163.757 93.6675 163.367 92.6364 162.697 91.6692C161.79 90.3487 159.996 88.7752 156.632 88.7752C153.325 88.7752 151.485 90.2585 150.522 91.5081C150.112 92.0787 149.607 92.9 149.437 93.661V97.9979L145.655 91.985C145.318 91.2978 144.704 90.6797 143.954 90.1519C142.671 89.238 140.989 88.774 139.015 88.774L138.772 88.7764C133.854 88.8936 130.95 91.8666 130.818 96.9463C130.769 99.2152 130.711 106.671 130.65 119.108C130.65 119.211 130.654 119.315 130.666 119.417L130.738 120.033C130.745 120.097 130.755 120.16 130.767 120.222C130.908 120.957 131.161 121.665 131.517 122.324C131.524 122.339 131.532 122.353 131.54 122.368C132.385 123.853 134.133 125.625 137.658 125.625C140.06 125.625 142.094 125.017 143.471 123.836C144.87 122.664 145.717 121.033 145.717 119.12V117.203L148.209 121.541C148.239 121.587 148.178 121.496 148.209 121.541C148.636 122.147 149.109 122.705 149.658 123.19C151.419 124.758 153.561 125.555 156.051 125.555C156.123 125.555 156.304 125.554 156.376 125.552C158.43 125.515 159.977 124.96 161.062 124.236V130.173C161.062 132.828 162.085 134.572 163.113 135.465C164.028 136.405 165.505 137.609 168.13 137.609H183.836C185.664 137.609 187.323 136.797 188.634 135.542C188.643 135.533 188.652 135.45 188.661 135.441C189.973 134.147 190.667 132.465 190.667 130.644C190.667 128.925 190.036 127.337 188.856 126.101C188.101 125.295 187.196 124.685 186.186 124.33Z" fill="black"/>
  <path d="M188.131 107.198C188.131 108.345 187.714 109.33 186.881 110.151C186.035 110.96 185.021 111.365 183.837 111.365H174.307V111.383C173.824 111.383 173.408 111.559 173.057 111.908C172.719 112.259 172.551 112.682 172.551 113.177C172.551 113.672 172.72 114.094 173.057 114.444C173.408 114.795 173.825 114.97 174.307 114.97H182.333C183.432 114.97 184.362 115.35 185.123 116.112C185.896 116.885 186.283 117.808 186.283 118.883C186.292 119.775 185.984 120.642 185.413 121.329C184.851 122.007 184.08 122.478 183.221 122.67H174.307C173.824 122.67 173.414 122.845 173.076 123.195C172.725 123.545 172.55 123.962 172.55 124.445C172.55 124.928 172.726 125.345 173.076 125.695C173.233 125.864 173.424 125.998 173.636 126.088C173.848 126.179 174.077 126.224 174.307 126.22H184.271C185.359 126.317 186.27 126.758 187.007 127.543C187.756 128.328 188.13 129.258 188.13 130.333C188.13 131.48 187.714 132.464 186.881 133.286C186.035 134.095 185.02 134.5 183.837 134.5H168.13C166.657 134.5 165.521 134.064 164.724 133.195C163.794 132.446 163.329 131.347 163.329 129.898V107.543C163.329 106.032 163.939 104.855 165.159 104.01C165.907 103.369 166.898 103.049 168.13 103.049H183.837C185.02 103.049 186.035 103.454 186.881 104.263C187.714 105.072 188.131 106.05 188.131 107.198Z" fill="white"/>
  <path d="M161.264 94.6072V118.031C161.264 119.106 161.004 120.036 160.484 120.822C159.639 122.065 158.214 122.706 156.209 122.742C154.277 122.778 152.647 122.21 151.317 121.039C150.907 120.677 150.545 120.272 150.231 119.825L142.966 107.905V118.847C142.966 120.007 142.556 120.937 141.734 121.637C140.804 122.434 139.445 122.832 137.658 122.832C135.798 122.832 134.494 122.168 133.745 120.84C133.509 120.41 133.343 119.946 133.256 119.463L133.183 118.847C133.243 106.371 133.298 98.9974 133.347 96.7267C133.443 93.019 135.266 91.1227 138.818 91.0383C140.339 91.0143 141.541 91.316 142.423 91.944C142.87 92.258 143.159 92.5785 143.292 92.9048L151.734 106.782V94.5345L151.88 93.9909C152.034 93.5612 152.254 93.1581 152.532 92.7958C153.426 91.6241 154.79 91.0383 156.626 91.0383C158.45 91.0383 159.772 91.6359 160.594 92.8315C161.004 93.4232 161.228 94.0149 161.264 94.6072Z" fill="white"/>
</svg>
