<svg width="45" height="15" viewBox="0 0 45 15" fill="none" xmlns="http://www.w3.org/2000/svg">
  <path d="M28.8362 5.52304C27.835 4.5415 26.6108 4.0439 25.198 4.0439C23.7845 4.0439 22.5787 4.54184 21.5818 5.52304C21.3665 5.73401 21.1548 5.95565 21.0225 6.18662V6.02281C21.0225 5.45288 20.8147 4.94128 20.4091 4.54567C20.0048 4.14655 19.5059 3.93575 18.9346 3.93575C18.4902 3.93575 18.0244 4.06506 17.7158 4.30987V2.4876C17.7158 2.47294 17.7073 2.45828 17.7063 2.44361C17.688 2.14248 17.5771 1.84902 17.3863 1.57389C17.1282 1.19844 16.6179 0.750667 15.6611 0.750667C14.7245 0.750667 14.2019 1.17261 13.9291 1.52656C13.7261 1.78986 13.6573 1.98234 13.6152 2.27047C13.6102 2.30496 13.6152 2.42711 13.6152 2.46178V3.36482L12.552 1.66471C12.457 1.47007 12.2845 1.29493 12.0695 1.14278C11.7079 0.882149 11.2371 0.75 10.6854 0.75C10.6571 0.75 10.6244 0.750333 10.5977 0.751C9.20074 0.779663 8.37585 1.62355 8.33819 3.06636C8.33819 3.07086 8.33702 3.07536 8.33686 3.07969L8.30986 6.70188C8.14121 6.26927 7.95874 5.80034 7.76093 5.2914C7.67928 5.03477 7.52296 4.78697 7.29549 4.55433C6.85772 4.10706 6.27229 3.86609 5.55422 3.83809C4.79865 3.80993 4.17107 4.03324 3.6758 4.50384C3.4045 4.76597 3.1647 5.13159 2.94256 5.62186C2.93858 5.63079 2.93474 5.63979 2.93107 5.64886L0.51405 11.6219C0.492137 11.6761 0.476916 11.7327 0.468722 11.7905L0.442892 11.9709C0.440389 11.9886 0.438555 12.0063 0.437393 12.0242C0.422035 12.2373 0.437469 12.4514 0.48322 12.6601C0.634034 13.349 1.11497 13.8533 1.83421 14.0794C2.55095 14.3087 3.17137 14.2607 3.67063 13.9389C4.01959 13.7101 4.26622 13.377 4.40354 12.9484L5.39757 10.0346L6.44544 13.182C6.46643 13.245 6.49593 13.3047 6.53309 13.3595L6.63108 13.5037C6.64241 13.5207 6.65474 13.537 6.66774 13.553C6.80839 13.7263 6.9777 13.8851 7.17134 14.0034C7.4913 14.1989 7.85125 14.3091 8.2412 14.3091C8.55233 14.3091 8.88512 14.2332 9.23457 14.1041C10.0518 13.796 10.3328 13.2585 10.4256 12.8619C10.5132 12.4765 10.4652 12.0765 10.2859 11.7121C10.2666 11.6714 10.2129 11.5437 10.0855 11.2266C10.1478 11.231 10.2121 11.2333 10.2788 11.2333C10.962 11.2333 11.5579 11.0601 11.9585 10.717C12.3473 10.3801 12.6011 9.9188 12.6011 9.38287V8.83527L13.2764 10.0601C13.2824 10.0696 13.27 10.0508 13.2764 10.0601C13.3969 10.2381 13.5302 10.4011 13.6967 10.5445C14.1933 10.9845 14.7968 11.2076 15.5024 11.2076C15.5232 11.2076 15.5544 11.2075 15.5751 11.207C16.097 11.1975 16.4811 11.0698 16.7897 10.8958V12.3561C16.7897 12.9244 17.0139 13.4368 17.4238 13.8418C17.8311 14.2387 18.352 14.4485 18.9216 14.4485C19.4927 14.4485 20.0023 14.2377 20.4068 13.8384C20.8135 13.4368 21.0225 12.9244 21.0225 12.3563V12.036C21.1548 12.267 21.3658 12.4891 21.5808 12.7004C22.5787 13.6826 23.7928 14.1806 25.2063 14.1806C26.6193 14.1806 27.8391 13.683 28.8415 12.7004C29.8427 11.7152 30.3483 10.5071 30.3483 9.10957C30.3483 7.71175 29.8382 6.50508 28.8362 5.52304Z" fill="black"/>
  <path d="M25.2424 4.88391C26.4346 4.88391 27.4533 5.29786 28.2985 6.12591C29.1401 6.95031 29.561 7.94834 29.561 9.12002C29.561 10.2915 29.1401 11.2914 28.2985 12.1193C27.4533 12.9472 26.4346 13.3613 25.2424 13.3613C24.0503 13.3613 23.0316 12.9472 22.1863 12.1193C21.3448 11.2912 20.9238 10.2914 20.9238 9.12002C20.9238 7.94851 21.3448 6.95031 22.1863 6.12591C23.0317 5.29786 24.0501 4.88391 25.2424 4.88391Z" fill="#FF2400"/>
  <path d="M20.318 5.9501V12.2834C20.318 12.6614 20.1823 12.9825 19.9109 13.2471C19.6394 13.5151 19.3113 13.6489 18.9267 13.6489C18.5417 13.6489 18.2119 13.5151 17.9371 13.2473C17.6658 12.9823 17.53 12.6614 17.53 12.2834V5.9501C17.53 5.57215 17.6658 5.24919 17.9371 4.98122C18.2121 4.71326 18.5419 4.57928 18.9267 4.57928C19.3113 4.57928 19.6394 4.71326 19.9109 4.98122C20.1823 5.24919 20.318 5.57215 20.318 5.9501ZM11.8818 1.92529L14.2731 5.86761V2.3839C14.2971 2.21892 14.3726 2.05394 14.4997 1.88913C14.754 1.55917 15.1405 1.39436 15.6593 1.39436C16.1782 1.39436 16.5541 1.56434 16.7879 1.90463C16.9046 2.07294 16.9683 2.24125 16.9786 2.40956V9.07302C16.9786 9.37865 16.9048 9.64161 16.757 9.86125C16.5165 10.2187 16.1129 10.4025 15.5459 10.4128C14.9962 10.4232 14.5342 10.2599 14.1598 9.92341C14.0416 9.82272 13.9376 9.70651 13.8505 9.57795L11.7841 6.19223V9.30499C11.7841 9.63128 11.6691 9.89391 11.4388 10.0932C11.1744 10.3202 10.7877 10.4335 10.2793 10.4335C9.75021 10.4335 9.38092 10.2462 9.17128 9.87192C9.10514 9.7492 9.05821 9.61707 9.03213 9.48013L9.01164 9.30499L9.05796 3.00748C9.08546 1.95596 9.60256 1.41853 10.6093 1.39436C11.042 1.3842 11.3838 1.47002 11.6348 1.65216C11.7616 1.74132 11.8441 1.83247 11.8818 1.92529ZM6.77976 4.98639C6.93458 5.14437 7.03423 5.30068 7.07889 5.45533C8.69351 9.60562 9.5474 11.7717 9.64005 11.9538C9.75004 12.1703 9.77737 12.3919 9.72254 12.6186C9.64689 12.945 9.39959 13.1853 8.98047 13.3401C8.41355 13.5496 7.93594 13.5358 7.54783 13.299C7.42564 13.228 7.31739 13.1354 7.22837 13.0257L7.13038 12.8815L5.81106 8.91337C5.63591 8.65224 5.44677 8.57492 5.2443 8.68141C5.11731 8.7494 5.06199 8.82589 4.99166 8.91337L3.71883 12.6496C3.63284 12.9208 3.4852 13.1237 3.27556 13.2578C2.96626 13.4569 2.55915 13.4756 2.05422 13.3143C1.57328 13.163 1.28465 12.8677 1.18833 12.4277C1.15701 12.2875 1.14662 12.1434 1.1575 12.0001L1.18333 11.8197L3.60035 5.84711C3.77899 5.445 3.9713 5.14604 4.17744 4.95023C4.52456 4.62044 4.9745 4.46596 5.52776 4.48646C6.05669 4.50712 6.47397 4.67376 6.77976 4.98639Z" fill="white"/>
  <path d="M43.2489 10.973C43.3756 10.8793 43.4898 10.7698 43.5887 10.6472C43.8546 10.3227 43.9992 9.9157 43.9977 9.49617C43.9977 8.99857 43.8094 8.54963 43.4566 8.20251C43.3777 8.12343 43.292 8.0516 43.2003 7.98787C43.4827 7.89527 43.7401 7.73906 43.9527 7.53127C44.326 7.16331 44.5234 6.69521 44.5234 6.17744C44.5234 5.65751 44.3248 5.22424 43.9452 4.85562C43.5726 4.49866 43.1004 4.34435 42.5805 4.34435H38.1126C37.6093 4.34435 37.2044 4.42584 36.8956 4.68997V2.59575C36.8956 2.58108 36.8878 2.56642 36.8869 2.55175C36.8686 2.25063 36.7578 1.95733 36.5671 1.6822C36.3092 1.30658 35.7989 0.858976 34.842 0.858976C33.9013 0.858976 33.3777 1.28092 33.1038 1.63637C32.9871 1.79869 32.8436 2.03232 32.7951 2.24879V3.48246L31.7194 1.77202C31.6236 1.57655 31.449 1.40074 31.2355 1.25059C30.8706 0.990625 30.3921 0.858643 29.8305 0.858643L29.7615 0.859309C28.3624 0.892638 27.5365 1.73836 27.4988 3.18334C27.485 3.82875 27.4683 5.94964 27.4512 9.48751C27.4512 9.51684 27.4522 9.54633 27.4557 9.5755L27.476 9.75047C27.4782 9.7688 27.4808 9.78664 27.4843 9.8043C27.5245 10.0133 27.5965 10.215 27.6976 10.4022C27.6996 10.4066 27.702 10.4106 27.7043 10.4147C27.9446 10.8373 28.4417 11.3413 29.4446 11.3413C30.1278 11.3413 30.7064 11.1683 31.0982 10.8325C31.4961 10.4989 31.7369 10.0349 31.7369 9.49101V8.94558L32.446 10.1794C32.4543 10.1927 32.4372 10.1668 32.446 10.1794C32.5675 10.3521 32.7018 10.5105 32.858 10.6485C33.3591 11.0948 33.9683 11.3213 34.6766 11.3213C34.6972 11.3213 34.7487 11.3211 34.769 11.3206C35.3535 11.3101 35.7934 11.1521 36.1022 10.9463V12.6349C36.1022 13.3902 36.393 13.8864 36.6856 14.1404C36.9459 14.4077 37.366 14.7502 38.1126 14.7502H42.5805C43.1004 14.7502 43.5724 14.5192 43.9452 14.1622C43.9478 14.1597 43.9503 14.1361 43.9528 14.1336C44.3261 13.7654 44.5234 13.287 44.5234 12.7691C44.5234 12.28 44.3441 11.8282 44.0085 11.4766C43.7937 11.2474 43.5361 11.074 43.2489 10.973Z" fill="black"/>
  <path d="M43.8021 6.09961C43.8021 6.4259 43.6835 6.70587 43.4465 6.9395C43.2061 7.1698 42.9174 7.28479 42.5806 7.28479H39.87V7.28996C39.7325 7.28996 39.614 7.33995 39.5144 7.43944C39.4182 7.53909 39.3702 7.65941 39.3702 7.80022C39.3702 7.94104 39.4184 8.06119 39.5144 8.16084C39.614 8.26049 39.7327 8.31049 39.87 8.31049H42.153C42.4657 8.31049 42.7301 8.41847 42.9466 8.63511C43.1666 8.85508 43.2765 9.11772 43.2765 9.42334C43.2791 9.6773 43.1914 9.92393 43.0291 10.1193C42.8692 10.312 42.6499 10.4462 42.4055 10.5007H39.87C39.7325 10.5007 39.6157 10.5504 39.5197 10.65C39.4199 10.7497 39.3701 10.8683 39.3701 11.0056C39.3701 11.1429 39.4201 11.2616 39.5197 11.3613C39.5644 11.4093 39.6187 11.4474 39.679 11.4731C39.7393 11.4988 39.8044 11.5116 39.87 11.5106H42.7043C43.0136 11.5381 43.2729 11.6635 43.4825 11.8869C43.6955 12.1102 43.802 12.3748 43.802 12.6806C43.802 13.0069 43.6835 13.2868 43.4465 13.5205C43.2061 13.7508 42.9173 13.8659 42.5806 13.8659H38.1127C37.6936 13.8659 37.3705 13.7419 37.1439 13.4946C36.8792 13.2817 36.7471 12.969 36.7471 12.5568V6.1976C36.7471 5.76799 36.9205 5.43303 37.2675 5.19273C37.4805 5.01042 37.7623 4.91943 38.1127 4.91943H42.5806C42.9173 4.91943 43.2061 5.03442 43.4465 5.26472C43.6835 5.49486 43.8021 5.77299 43.8021 6.09961Z" fill="white"/>
  <path d="M36.1597 2.5179V9.18119C36.1597 9.48698 36.0858 9.75145 35.938 9.97492C35.6976 10.3285 35.2921 10.5108 34.7218 10.5212C34.1723 10.5313 33.7085 10.3699 33.3304 10.0367C33.2137 9.93376 33.1106 9.81844 33.0212 9.69145L30.9548 6.30057V9.41316C30.9548 9.74311 30.838 10.0076 30.6044 10.2069C30.3398 10.4335 29.9531 10.5468 29.4449 10.5468C28.9156 10.5468 28.5447 10.3579 28.3317 9.98008C28.2645 9.85792 28.2175 9.72567 28.1925 9.58847L28.1719 9.41316C28.189 5.86429 28.2045 3.76673 28.2184 3.12082C28.2457 2.06612 28.7645 1.52669 29.7748 1.5027C30.2074 1.49586 30.5494 1.58169 30.8002 1.76033C30.9273 1.84965 31.0097 1.94081 31.0475 2.03363L33.449 5.98111V2.49723L33.4903 2.34259C33.5342 2.22037 33.5968 2.10569 33.6758 2.00263C33.9301 1.66934 34.3182 1.5027 34.8405 1.5027C35.3593 1.5027 35.7354 1.67267 35.9692 2.0128C36.0858 2.18111 36.1495 2.34942 36.1597 2.5179Z" fill="white"/>
</svg>
