<svg width="80" height="25" viewBox="0 0 80 25" fill="none" xmlns="http://www.w3.org/2000/svg">
  <path d="M51.154 8.52328C49.3661 6.77054 47.1801 5.88197 44.6572 5.88197C42.1332 5.88197 39.9799 6.77113 38.1998 8.52328C37.8153 8.90002 37.4374 9.2958 37.2011 9.70825V9.41573C37.2011 8.398 36.83 7.48443 36.1057 6.77798C35.3838 6.06527 34.4928 5.68884 33.4727 5.68884C32.679 5.68884 31.8473 5.91976 31.2962 6.3569V3.10287C31.2962 3.07668 31.281 3.05049 31.2792 3.02431C31.2465 2.48658 31.0486 1.96254 30.7079 1.47124C30.2469 0.800788 29.3357 0.00119032 27.627 0.00119032C25.9546 0.00119032 25.0214 0.754663 24.5343 1.38672C24.1718 1.8569 24.0489 2.2006 23.9736 2.71512C23.9647 2.77672 23.9736 2.99484 23.9736 3.05674V4.66933L22.0751 1.63342C21.9055 1.28584 21.5975 0.973086 21.2136 0.701396C20.5678 0.235981 19.7272 0 18.7419 0C18.6913 0 18.633 0.00059516 18.5854 0.00178548C16.0908 0.0529692 14.6177 1.55991 14.5505 4.13636C14.5505 4.1444 14.5484 4.15243 14.5481 4.16017L14.4999 10.6284C14.1987 9.85585 13.8729 9.01846 13.5197 8.10965C13.3738 7.65138 13.0947 7.20887 12.6885 6.79345C11.9068 5.99475 10.8614 5.56445 9.57911 5.51445C8.22988 5.46416 7.10919 5.86292 6.22478 6.70329C5.74032 7.17138 5.31211 7.82427 4.91543 8.69975C4.90831 8.7157 4.90147 8.73177 4.8949 8.74796L0.5788 19.4141C0.539671 19.5108 0.512489 19.612 0.497858 19.7153L0.451733 20.0372C0.447263 20.0689 0.443988 20.1006 0.441913 20.1325C0.414488 20.513 0.442049 20.8954 0.523747 21.268C0.793057 22.4982 1.65187 23.3987 2.93623 23.8025C4.21612 24.212 5.32401 24.1263 6.21556 23.5517C6.83869 23.1431 7.27911 22.5482 7.52432 21.7829L9.29938 16.5797L11.1706 22.2001C11.2081 22.3125 11.2607 22.4191 11.3271 22.517L11.5021 22.7744C11.5223 22.8047 11.5443 22.8339 11.5675 22.8625C11.8187 23.172 12.121 23.4555 12.4668 23.6668C13.0382 24.0159 13.6809 24.2126 14.3773 24.2126C14.9329 24.2126 15.5271 24.0772 16.1512 23.8466C17.6105 23.2963 18.1122 22.3366 18.278 21.6284C18.4345 20.9401 18.3488 20.2259 18.0286 19.5751C17.9941 19.5025 17.8983 19.2746 17.6706 18.7083C17.7819 18.716 17.8968 18.7202 18.0158 18.7202C19.2359 18.7202 20.3 18.411 21.0154 17.7983C21.7097 17.1966 22.1629 16.3728 22.1629 15.4158V14.438L23.3687 16.6252C23.3794 16.6422 23.3574 16.6085 23.3687 16.6252C23.5838 16.943 23.8219 17.234 24.1192 17.4903C25.0059 18.2759 26.0838 18.6743 27.3437 18.6743C27.3809 18.6743 27.4366 18.674 27.4735 18.6731C28.4055 18.6562 29.0914 18.4282 29.6425 18.1176V20.7253C29.6425 21.74 30.0428 22.6551 30.7748 23.3782C31.5021 24.087 32.4324 24.4617 33.4495 24.4617C34.4693 24.4617 35.3793 24.0852 36.1015 23.3722C36.8279 22.6551 37.2011 21.74 37.2011 20.7256V20.1536C37.4374 20.566 37.8141 20.9627 38.198 21.3401C39.9799 23.094 42.148 23.9832 44.6721 23.9832C47.1953 23.9832 49.3736 23.0946 51.1635 21.3401C52.9514 19.5808 53.8542 17.4233 53.8542 14.9278C53.8542 12.4317 52.9434 10.2769 51.154 8.52328Z" fill="black"/>
  <path d="M44.7357 7.38208C46.8646 7.38208 48.6837 8.12127 50.193 9.59994C51.6958 11.0721 52.4475 12.8543 52.4475 14.9466C52.4475 17.0385 51.6958 18.824 50.193 20.3024C48.6837 21.7808 46.8646 22.5203 44.7357 22.5203C42.6068 22.5203 40.7877 21.7808 39.2784 20.3024C37.7756 18.8237 37.0239 17.0383 37.0239 14.9466C37.0239 12.8546 37.7756 11.0721 39.2784 9.59994C40.788 8.12127 42.6065 7.38208 44.7357 7.38208Z" fill="#FF2400"/>
  <path d="M35.9423 9.28597V20.5955C35.9423 21.2704 35.7001 21.8438 35.2154 22.3164C34.7306 22.7949 34.1447 23.0339 33.4578 23.0339C32.7704 23.0339 32.1815 22.7949 31.6908 22.3167C31.2064 21.8436 30.9638 21.2704 30.9638 20.5955V9.28597C30.9638 8.61106 31.2064 8.03435 31.6908 7.55585C32.1818 7.07734 32.7707 6.83808 33.4578 6.83808C34.1447 6.83808 34.7306 7.07734 35.2154 7.55585C35.7001 8.03435 35.9423 8.61106 35.9423 9.28597ZM20.8777 2.09882L25.1479 9.13867V2.91776C25.1908 2.62316 25.3256 2.32856 25.5526 2.03425C26.0067 1.44504 26.6968 1.15073 27.6232 1.15073C28.5499 1.15073 29.2212 1.45427 29.6387 2.06192C29.847 2.36248 29.9607 2.66303 29.9791 2.96359V14.8626C29.9791 15.4084 29.8473 15.878 29.5834 16.2702C29.1539 16.9085 28.4332 17.2367 27.4208 17.2552C26.4391 17.2736 25.6142 16.982 24.9456 16.3812C24.7345 16.2014 24.5487 15.9939 24.3933 15.7643L20.7033 9.71836V15.2769C20.7033 15.8595 20.4979 16.3285 20.0867 16.6844C19.6144 17.0897 18.924 17.2921 18.0161 17.2921C17.0713 17.2921 16.4119 16.9576 16.0375 16.2892C15.9194 16.0701 15.8356 15.8341 15.789 15.5896L15.7524 15.2769L15.8352 4.03131C15.8843 2.15358 16.8077 1.19388 18.6053 1.15073C19.3781 1.13258 19.9885 1.28583 20.4366 1.61109C20.6631 1.7703 20.8104 1.93307 20.8777 2.09882ZM11.7669 7.56507C12.0434 7.84718 12.2213 8.12631 12.3011 8.40246C15.1844 15.8137 16.7092 19.6816 16.8746 20.0069C17.071 20.3934 17.1198 20.7892 17.0219 21.1939C16.8868 21.7769 16.4452 22.206 15.6968 22.4825C14.6844 22.8565 13.8316 22.8318 13.1385 22.409C12.9203 22.2822 12.727 22.1169 12.568 21.9209L12.3931 21.6635L10.0371 14.5775C9.72436 14.1112 9.3866 13.9732 9.02504 14.1633C8.79829 14.2847 8.69949 14.4213 8.57391 14.5775L6.301 21.2493C6.14745 21.7337 5.88379 22.0959 5.50943 22.3355C4.95713 22.6911 4.23014 22.7244 3.32847 22.4363C2.46966 22.1661 1.95425 21.6388 1.78225 20.8532C1.72631 20.6028 1.70776 20.3455 1.72719 20.0896L1.77332 19.7673L6.08942 9.10207C6.40842 8.38401 6.75183 7.85015 7.11994 7.50049C7.7398 6.91158 8.54326 6.63573 9.53123 6.67233C10.4757 6.70923 11.2209 7.00681 11.7669 7.56507Z" fill="white"/>
  <path d="M76.8909 18.2553C77.1171 18.088 77.3211 17.8925 77.4977 17.6735C77.9725 17.094 78.2307 16.3673 78.228 15.6181C78.228 14.7296 77.8917 13.9279 77.2617 13.308C77.121 13.1668 76.9678 13.0385 76.8041 12.9247C77.3084 12.7594 77.7681 12.4804 78.1476 12.1094C78.8142 11.4523 79.1668 10.6164 79.1668 9.69183C79.1668 8.76338 78.8121 7.98967 78.1342 7.33142C77.4688 6.69401 76.6258 6.41845 75.6974 6.41845H67.7189C66.8202 6.41845 66.0971 6.56397 65.5457 7.03563V3.29594C65.5457 3.26976 65.5317 3.24357 65.5302 3.21738C65.4975 2.67965 65.2996 2.15591 64.9592 1.66461C64.4985 0.993865 63.5873 0.194565 61.8786 0.194565C60.1988 0.194565 59.2638 0.948037 58.7746 1.58278C58.5663 1.87262 58.3101 2.28983 58.2235 2.67638V4.87937L56.3026 1.82501C56.1315 1.47594 55.8196 1.162 55.4384 0.893878C54.7867 0.429653 53.9324 0.19397 52.9295 0.19397L52.8063 0.19516C50.3078 0.254676 48.833 1.76489 48.7658 4.34521C48.7411 5.49774 48.7113 9.28504 48.6807 15.6027C48.6807 15.655 48.6824 15.7077 48.6887 15.7598L48.725 16.0722C48.7289 16.105 48.7336 16.1368 48.7399 16.1684C48.8116 16.5416 48.9401 16.9017 49.1208 17.2361C49.1244 17.2438 49.1285 17.251 49.1327 17.2584C49.5618 18.0131 50.4495 18.9129 52.2403 18.9129C53.4604 18.9129 54.4936 18.604 55.1932 18.0044C55.9038 17.4087 56.3338 16.5802 56.3338 15.6089V14.6349L57.6 16.8382C57.6149 16.862 57.5843 16.8156 57.6 16.8382C57.817 17.1465 58.0568 17.4295 58.3356 17.6759C59.2305 18.4728 60.3184 18.8772 61.5831 18.8772C61.62 18.8772 61.712 18.8769 61.7483 18.876C62.7919 18.8573 63.5775 18.5752 64.1289 18.2077V21.2231C64.1289 22.5717 64.6482 23.4579 65.1708 23.9114C65.6356 24.3887 66.3858 25.0002 67.7189 25.0002H75.6974C76.6258 25.0002 77.4686 24.5878 78.1342 23.9504C78.139 23.9459 78.1435 23.9037 78.1479 23.8992C78.8145 23.2418 79.1668 22.3875 79.1668 21.4626C79.1668 20.5892 78.8466 19.7825 78.2473 19.1546C77.8637 18.7454 77.4037 18.4356 76.8909 18.2553Z" fill="black"/>
  <path d="M77.8786 9.5529C77.8786 10.1356 77.6667 10.6355 77.2436 11.0527C76.8142 11.464 76.2988 11.6693 75.6974 11.6693H70.8569V11.6785C70.6114 11.6785 70.3998 11.7678 70.2219 11.9454C70.0502 12.1234 69.9645 12.3382 69.9645 12.5897C69.9645 12.8412 70.0505 13.0557 70.2219 13.2337C70.3998 13.4116 70.6117 13.5009 70.8569 13.5009H74.9338C75.492 13.5009 75.9643 13.6937 76.3508 14.0806C76.7436 14.4734 76.9401 14.9424 76.9401 15.4881C76.9446 15.9416 76.788 16.382 76.4981 16.7308C76.2127 17.075 75.821 17.3146 75.3846 17.412H70.8569C70.6114 17.412 70.4028 17.5007 70.2314 17.6786C70.0532 17.8566 69.9642 18.0684 69.9642 18.3137C69.9642 18.5589 70.0535 18.7707 70.2314 18.9487C70.3112 19.0344 70.4081 19.1025 70.5159 19.1484C70.6236 19.1943 70.7398 19.2171 70.8569 19.2153H75.9182C76.4705 19.2644 76.9335 19.4885 77.3079 19.8873C77.6882 20.286 77.8783 20.7586 77.8783 21.3046C77.8783 21.8873 77.6667 22.3872 77.2436 22.8044C76.8142 23.2157 76.2985 23.4213 75.6974 23.4213H67.7189C66.9705 23.4213 66.3935 23.1999 65.9888 22.7583C65.5163 22.378 65.2803 21.8197 65.2803 21.0835V9.72787C65.2803 8.96071 65.5901 8.36258 66.2096 7.93347C66.5899 7.60791 67.0931 7.44543 67.7189 7.44543H75.6974C76.2985 7.44543 76.8142 7.65076 77.2436 8.06202C77.6667 8.47298 77.8786 8.96964 77.8786 9.5529Z" fill="white"/>
  <path d="M64.2307 3.15704V15.0558C64.2307 15.6018 64.0989 16.0741 63.8349 16.4731C63.4055 17.1046 62.6815 17.4302 61.6632 17.4486C60.6818 17.4668 59.8536 17.1784 59.1784 16.5835C58.9701 16.3996 58.7859 16.1937 58.6264 15.967L54.9364 9.9118V15.47C54.9364 16.0592 54.7278 16.5315 54.3106 16.8874C53.838 17.2921 53.1476 17.4944 52.24 17.4944C51.2949 17.4944 50.6325 17.157 50.2522 16.4824C50.1321 16.2642 50.0482 16.0281 50.0037 15.7831L49.9668 15.47C49.9974 9.13274 50.0251 5.3871 50.0498 4.23368C50.0986 2.3503 51.025 1.38703 52.8292 1.34418C53.6017 1.33198 54.2124 1.48523 54.6602 1.80424C54.8873 1.96374 55.0343 2.12652 55.1018 2.29227L59.3903 9.34134V3.12014L59.4641 2.84398C59.5424 2.62573 59.6542 2.42095 59.7953 2.23692C60.2494 1.64176 60.9424 1.34418 61.8751 1.34418C62.8014 1.34418 63.4731 1.64771 63.8906 2.25507C64.0989 2.55563 64.2125 2.85618 64.2307 3.15704Z" fill="white"/>
</svg>
