<svg width="82" height="15" viewBox="0 0 82 15" fill="none" xmlns="http://www.w3.org/2000/svg">
  <path d="M0 1.99112H11.5416C12.0137 1.99095 12.4796 2.09744 12.9047 2.30263C13.3298 2.50782 13.7031 2.80641 13.9966 3.1761C14.2901 3.54578 14.4963 3.977 14.5998 4.43756C14.7033 4.89811 14.7013 5.3761 14.5942 5.8358L14.5992 5.81562C14.2435 9.25919 12.8888 14.7033 3.84469 14.8597C3.51964 14.8824 3.19342 14.8824 2.86838 14.8597H2.89108V12.8819C11.1128 13.1039 11.2238 7.46046 11.2692 5.61633C11.2692 4.7712 11.2692 4.21619 9.60162 4.21619H0.00252276V1.99364L0 1.99112ZM64.4414 6.32522H60.8187C60.8187 8.80257 59.3378 10.9368 57.2137 11.8854L57.1758 11.9005C56.5275 12.1932 55.7782 12.4051 54.9911 12.4959L54.9558 12.4984C54.3554 12.4984 54.2444 11.9434 54.2444 11.4313V2.07689H51.1111V11.676C51.1111 14.61 52.3119 14.721 54.532 14.721C54.9987 14.721 55.4881 14.721 55.9548 14.61C61.8656 13.6538 64.4439 9.25415 64.4439 6.3227L64.4414 6.32522ZM17.3314 2.03653H23.2876V4.10267H17.3314V2.03653ZM17.3314 6.27981H23.2876V8.34595H17.3314V6.27981ZM29.2438 11.3228C29.9124 10.4676 30.432 9.45849 30.7398 8.36109L30.755 8.30054H26.9784C26.9681 8.38269 26.9689 8.46585 26.9809 8.54777V8.54273C25.9365 12.5413 21.6478 12.9878 19.4707 12.9878H17.3364V14.8547H20.4697C22.1027 14.969 23.7405 14.7113 25.2595 14.1008C26.7784 13.4903 28.1391 12.5431 29.2388 11.3304L29.2464 11.3228H29.2438ZM27.1323 1.2797H30.977V3.05825H27.1323V1.2797ZM27.1323 4.25908H30.977V6.03763H27.1323V4.25908ZM34.7535 2.14753H47.4859V4.17078H34.7535V2.14753ZM47.8189 6.43622H34.4861V8.34847H39.8419C40.0412 11.9939 37.6194 12.9475 34.7308 12.7936V14.6604C36.242 14.6604 43.2628 15.0161 43.6185 8.28288H47.9526L47.8189 6.43622ZM72.2165 12.5463C71.7765 12.5405 71.3561 12.3633 71.0447 12.0523C70.7334 11.7414 70.5555 11.3213 70.549 10.8813V7.45794H79.9917V5.63651L70.5919 5.8358V1.92553H67.4813V10.8132C67.4813 12.8264 69.0959 14.4636 71.0989 14.5015H79.9891V12.5463H72.2165ZM78.0844 0.881104H81.4624V2.30394H78.0844V0.881104ZM78.0844 3.25755H81.4624V4.68038H78.0844V3.25755Z" fill="white"/>
</svg>
