<svg width="225" height="225" viewBox="0 0 225 225" fill="none" xmlns="http://www.w3.org/2000/svg">
  <path d="M225 0H0V225H225V0Z" fill="#E60028"/>
  <path d="M35 101.293H56.9605C57.8586 101.293 58.7452 101.495 59.5541 101.886C60.3629 102.276 61.0731 102.844 61.6316 103.548C62.1901 104.251 62.5824 105.072 62.7793 105.948C62.9762 106.824 62.9725 107.734 62.7686 108.608L62.7782 108.57C62.1014 115.122 59.5237 125.481 42.3154 125.778C41.6969 125.822 41.0762 125.822 40.4577 125.778H40.5009V122.015C56.1444 122.438 56.3556 111.7 56.442 108.191C56.442 106.583 56.442 105.527 53.2692 105.527H35.0048V101.298L35 101.293ZM157.614 109.54H150.721C150.721 114.253 147.903 118.314 143.861 120.119L143.789 120.148C142.556 120.705 141.13 121.108 139.633 121.281L139.565 121.285C138.423 121.285 138.212 120.229 138.212 119.255V101.456H132.25V119.721C132.25 125.303 134.535 125.514 138.759 125.514C139.647 125.514 140.578 125.514 141.466 125.303C152.713 123.484 157.619 115.113 157.619 109.535L157.614 109.54ZM67.9767 101.379H79.3097V105.311H67.9767V101.379ZM67.9767 109.453H79.3097V113.385H67.9767V109.453ZM90.6427 119.049C91.9148 117.421 92.9036 115.501 93.4892 113.413L93.518 113.298H86.3323C86.3126 113.454 86.3143 113.613 86.3371 113.769V113.759C84.3498 121.367 76.1896 122.217 72.0472 122.217H67.9863V125.769H73.948C77.0553 125.986 80.1714 125.496 83.0616 124.334C85.9518 123.173 88.5407 121.37 90.6331 119.063L90.6475 119.049H90.6427ZM86.6251 99.9395H93.9404V103.324H86.6251V99.9395ZM86.6251 105.608H93.9404V108.992H86.6251V105.608ZM101.126 101.591H125.352V105.44H101.126V101.591ZM125.986 109.751H100.617V113.389H110.808C111.187 120.325 106.579 122.14 101.083 121.847V125.399C103.958 125.399 117.317 126.076 117.994 113.265H126.24L125.986 109.751ZM172.408 121.377C171.57 121.366 170.771 121.028 170.178 120.437C169.586 119.845 169.247 119.046 169.235 118.209V111.695H187.202V108.229L169.316 108.608V101.168H163.398V118.079C163.398 121.909 166.47 125.025 170.281 125.097H187.197V121.377H172.408ZM183.573 99.181H190V101.888H183.573V99.181ZM183.573 103.703H190V106.41H183.573V103.703Z" fill="white"/>
</svg>
