<svg width="146" height="26" viewBox="0 0 146 26" fill="none" xmlns="http://www.w3.org/2000/svg">
  <path d="M0 2.35754H20.61C21.453 2.35724 22.2851 2.5474 23.0442 2.91381C23.8033 3.28022 24.4698 3.81342 24.9939 4.47357C25.5181 5.13372 25.8863 5.90376 26.0711 6.72618C26.2558 7.5486 26.2524 8.40214 26.061 9.22305L26.07 9.18701C25.4348 15.3362 23.0157 25.0579 6.86551 25.3372C6.28508 25.3777 5.70253 25.3777 5.1221 25.3372H5.16265V21.8053C19.8442 22.2017 20.0424 12.1242 20.1235 8.83112C20.1235 7.32197 20.1235 6.33088 17.1458 6.33088H0.00450493V2.36204L0 2.35754ZM115.074 10.097H108.605C108.605 14.5208 105.96 18.332 102.167 20.0259L102.1 20.0529C100.942 20.5755 99.604 20.9539 98.1984 21.1161L98.1353 21.1206C97.0632 21.1206 96.865 20.1295 96.865 19.215V2.51071H91.2698V19.652C91.2698 24.8912 93.4142 25.0894 97.3785 25.0894C98.2119 25.0894 99.0859 25.0894 99.9193 24.8912C110.474 23.1838 115.078 15.3272 115.078 10.0925L115.074 10.097ZM30.9489 2.43862H41.585V6.12816H30.9489V2.43862ZM30.9489 10.0159H41.585V13.7055H30.9489V10.0159ZM52.2211 19.0213C53.4149 17.4941 54.3429 15.6921 54.8925 13.7325L54.9196 13.6244H48.1757C48.1573 13.771 48.1588 13.9196 48.1802 14.0658V14.0568C46.3152 21.1971 38.6568 21.9945 34.769 21.9945H30.9579V25.3282H36.553C39.4692 25.5324 42.3937 25.0721 45.1062 23.982C47.8186 22.8918 50.2483 21.2003 52.2121 19.0348L52.2256 19.0213H52.2211ZM48.4505 1.08715H55.316V4.26312H48.4505V1.08715ZM48.4505 6.40747H55.316V9.58344H48.4505V6.40747ZM62.0599 2.63684H84.7963V6.2498H62.0599V2.63684ZM85.3909 10.2952H61.5824V13.71H71.1463C71.5022 20.2196 67.1775 21.9224 62.0193 21.6476V24.9813C64.7178 24.9813 77.255 25.6165 77.8902 13.5928H85.6297L85.3909 10.2952ZM128.958 21.2062C128.172 21.1957 127.422 20.8792 126.866 20.324C126.31 19.7688 125.992 19.0186 125.98 18.2329V12.1197H142.842V8.86715L126.057 9.22305V2.24041H120.502V18.1113C120.502 21.7062 123.385 24.6299 126.962 24.6975H142.838V21.2062H128.958ZM139.437 0.375366H145.469V2.91615H139.437V0.375366ZM139.437 4.61901H145.469V7.15979H139.437V4.61901Z" fill="black"/>
</svg>
