<svg width="225" height="225" viewBox="0 0 225 225" fill="none" xmlns="http://www.w3.org/2000/svg">
  <path d="M225 0H0V225H225V0Z" fill="#BED500"/>
  <path fill-rule="evenodd" clip-rule="evenodd" d="M38.3174 99.8349H41.0307V136.02C46.4022 135.684 46.4851 135.684 52.7923 135.135V101.644C55.0537 102.073 55.1366 102.1 57.3137 102.55V134.912C63.1178 134.458 63.1717 134.453 69.0739 134.028V104.359C71.4348 104.783 71.5025 104.792 73.5966 105.184V133.808C80.0062 133.298 80.0725 133.295 85.3569 132.923V95.3122C63.8421 92.8034 63.0265 92.6997 38.3174 88.9801V99.8349ZM92.5943 133.306H136.015V107.071H127.874V91.6948H92.5943V133.306ZM105.259 107.071H116.113V102.55H105.26V107.072L105.259 107.071ZM105.259 123.354H124.255V117.927H105.26V123.355L105.259 123.354ZM142.347 119.737C159.205 118.714 159.66 118.686 174.913 117.927V124.259C163.474 123.809 163.378 123.795 150.489 123.355V132.872C168.776 134.169 169.135 134.206 186.673 135.438C186.659 121.647 186.701 113.031 186.673 105.082C170.856 106.732 170.609 106.741 154.107 107.976V103.273C170.377 101.814 170.974 101.711 186.673 100.378V89.8855C164.648 91.9008 164.061 91.9768 142.347 93.5028V119.737Z" fill="black"/>
</svg>
