<svg width="73" height="24" viewBox="0 0 73 24" fill="none" xmlns="http://www.w3.org/2000/svg">
  <path fill-rule="evenodd" clip-rule="evenodd" d="M0.611328 5.45331H1.92944V23.0313C4.53882 22.8682 4.57911 22.8682 7.64307 22.6016V6.33228C8.74162 6.54044 8.7819 6.55387 9.83949 6.7721V22.4935C12.659 22.2726 12.6852 22.2705 15.5524 22.0637V7.65107C16.6993 7.85721 16.7322 7.86124 17.7495 8.05194V21.957C20.8632 21.7092 20.8954 21.7078 23.4625 21.5272V3.25623C13.0109 2.03749 12.6147 1.98713 0.611328 0.180176V5.45331ZM26.9784 21.7132H48.0716V8.96851H44.1166V1.49896H26.9784V21.7132ZM33.1305 8.96851H38.4036V6.7721H33.1311V8.96919L33.1305 8.96851ZM33.1305 16.8786H42.3586V14.2423H33.1311V16.8792L33.1305 16.8786ZM51.1476 15.1213C59.337 14.6244 59.5579 14.611 66.9677 14.2423V17.3184C61.4105 17.0995 61.3642 17.0928 55.1027 16.8792V21.5024C63.9863 22.1322 64.1609 22.1503 72.6807 22.7486C72.674 16.0493 72.6941 11.8639 72.6807 8.00225C64.9969 8.804 64.8767 8.80803 56.8606 9.40833V7.12328C64.7639 6.41487 65.054 6.36451 72.6807 5.7172V0.619996C61.9813 1.59901 61.6959 1.63595 51.1476 2.37726V15.1213Z" fill="#BED500"/>
</svg>
