<svg width="42" height="14" viewBox="0 0 42 14" fill="none" xmlns="http://www.w3.org/2000/svg">
  <path fill-rule="evenodd" clip-rule="evenodd" d="M0.902344 3.93575H1.64049V13.7794C3.10174 13.6881 3.1243 13.6881 4.84012 13.5388V4.42797C5.4553 4.54454 5.47787 4.55206 6.07011 4.67427V13.4782C7.64906 13.3545 7.66372 13.3534 9.26937 13.2376V5.16649C9.91163 5.28193 9.93005 5.28419 10.4997 5.39098V13.1778C12.2434 13.039 12.2614 13.0383 13.699 12.9371V2.70538C7.8461 2.02288 7.62424 1.99468 0.902344 0.982788V3.93575ZM15.6679 13.0413H27.4801V5.90426H25.2653V1.72131H15.6679V13.0413ZM19.1131 5.90426H22.066V4.67427H19.1134V5.90463L19.1131 5.90426ZM19.1131 10.3339H24.2808V8.85759H19.1134V10.3343L19.1131 10.3339ZM29.2027 9.34981C33.7887 9.07155 33.9124 9.06403 38.0619 8.85759V10.5802C34.9499 10.4576 34.924 10.4538 31.4175 10.3343V12.9232C36.3923 13.2759 36.4901 13.2861 41.2612 13.6211C41.2574 9.86949 41.2687 7.5257 41.2612 5.36315C36.9583 5.81213 36.891 5.81439 32.4019 6.15056V4.87093C36.8278 4.47422 36.9902 4.44602 41.2612 4.08352V1.22909C35.2695 1.77734 35.1097 1.79802 29.2027 2.21316V9.34981Z" fill="white"/>
</svg>
