<svg width="55" height="25" viewBox="0 0 55 25" fill="none" xmlns="http://www.w3.org/2000/svg">
  <path d="M50.4752 12.495C50.4752 16.2383 48.1495 19.7649 44.1018 19.7649L43.9384 19.7673V1.3125H39.8235V23.6833H42.6278C51.0882 23.6833 54.32 17.8956 54.32 12.495V12.2099H50.4752V12.495ZM9.19626 0.154297H8.68065C4.63182 0.154297 2.2227 2.86388 1.36867 5.37293C0.720827 7.27124 0.729009 9.43383 0.729009 12.1701V12.841C0.729009 15.5633 0.720827 17.7271 1.36867 19.637C2.22035 22.1356 4.63179 24.8557 8.68065 24.8557H9.19626C13.2393 24.8557 15.66 22.1356 16.5106 19.637C17.1584 17.7271 17.1456 15.5633 17.1456 12.841V12.1701C17.1456 9.43383 17.1584 7.27122 16.5106 5.37293C15.66 2.86386 13.2393 0.154297 9.19628 0.154297M4.87862 7.08469C5.26798 5.26513 6.93084 3.9984 8.68065 3.9984H9.19624C10.814 3.9984 12.3493 5.07971 12.8836 6.68716L4.62024 13.6105C4.62253 13.3301 4.62253 13.0728 4.62253 12.841V12.1701C4.62253 10.8129 4.57966 8.48115 4.87862 7.08469ZM12.9948 17.9102C12.602 19.7448 10.9495 20.9929 9.19626 20.9929H8.68065C7.06409 20.9929 5.52758 19.9198 4.99106 18.3239L13.2521 11.4005C13.2509 11.6798 13.2498 11.9441 13.2498 12.1701V12.841C13.2498 14.2005 13.2903 16.5218 12.9948 17.9102ZM20.6804 5.42649H36.0727V1.30995H20.6804V5.42649ZM20.6801 12.8505H26.4474V15.5391C26.4474 18.0493 25.0093 19.8307 22.2526 19.8307H21.9838V23.684H22.3465C27.101 23.684 30.3004 20.1448 30.3004 15.6365V12.8505H36.0724V8.73506H20.6801V12.8505Z" fill="#ED033B"/>
</svg>
