<svg width="31" height="15" viewBox="0 0 31 15" fill="none" xmlns="http://www.w3.org/2000/svg">
  <path d="M28.5078 7.8926C28.5078 9.98885 27.2054 11.9637 24.9387 11.9637L24.8472 11.9651V1.63041H22.5428V14.158H24.1133C28.851 14.158 30.6609 10.9169 30.6609 7.8926V7.73293H28.5078V7.8926ZM5.39157 0.981812H5.10282C2.83548 0.981812 1.48637 2.49918 1.00811 3.90425C0.645323 4.9673 0.649905 6.17835 0.649905 7.71064V8.08636C0.649905 9.61087 0.645323 10.8226 1.00811 11.8921C1.48506 13.2914 2.83547 14.8146 5.10282 14.8146H5.39157C7.65567 14.8146 9.01128 13.2914 9.48759 11.8921C9.85035 10.8226 9.84322 9.61087 9.84322 8.08636V7.71064C9.84322 6.17835 9.85035 4.96729 9.48761 3.90425C9.01128 2.49917 7.65567 0.981812 5.39158 0.981812M2.97369 4.86283C3.19173 3.84388 4.12293 3.13451 5.10282 3.13451H5.39155C6.29749 3.13451 7.15727 3.74004 7.45646 4.64021L2.829 8.51731C2.83028 8.36028 2.83028 8.2162 2.83028 8.08636V7.71064C2.83028 6.95064 2.80627 5.64485 2.97369 4.86283ZM7.51876 10.9251C7.29878 11.9525 6.37339 12.6515 5.39157 12.6515H5.10282C4.19755 12.6515 3.33711 12.0505 3.03665 11.1568L7.66284 7.27971C7.66219 7.43607 7.66152 7.58408 7.66152 7.71064V8.08636C7.66152 8.84766 7.68424 10.1476 7.51876 10.9251ZM11.8227 3.93424H20.4424V1.62898H11.8227V3.93424ZM11.8225 8.09166H15.0522V9.59731C15.0522 11.003 14.2469 12.0006 12.7031 12.0006H12.5526V14.1585H12.7557C15.4182 14.1585 17.2099 12.1765 17.2099 9.65186V8.09166H20.4422V5.78704H11.8225V8.09166Z" fill="white"/>
</svg>
