<svg width="225" height="225" viewBox="0 0 225 225" fill="none" xmlns="http://www.w3.org/2000/svg">
  <path d="M225 0H0V225H225V0Z" fill="#ED033B"/>
  <path d="M153.811 112.537C153.811 119.275 149.625 125.623 142.339 125.623L142.045 125.627V92.4085H134.638V132.676H139.686C154.915 132.676 160.732 122.258 160.732 112.537V112.024H153.811V112.537ZM79.5091 90.3237H78.581C71.2931 90.3237 66.9567 95.201 65.4195 99.7173C64.2533 103.134 64.2681 107.027 64.2681 111.952V113.16C64.2681 118.06 64.2533 121.955 65.4195 125.393C66.9525 129.89 71.2931 134.786 78.581 134.786H79.5091C86.7866 134.786 91.1439 129.89 92.6749 125.393C93.8409 121.955 93.818 118.06 93.818 113.16V111.952C93.818 107.027 93.8409 103.134 92.675 99.7173C91.1439 95.2009 86.7866 90.3237 79.5092 90.3237M71.7374 102.798C72.4382 99.5232 75.4314 97.2431 78.581 97.2431H79.5091C82.421 97.2431 85.1846 99.1895 86.1463 102.083L71.2723 114.545C71.2764 114.04 71.2764 113.577 71.2764 113.16V111.952C71.2764 109.509 71.1992 105.312 71.7374 102.798ZM86.3465 122.284C85.6395 125.587 82.665 127.833 79.5091 127.833H78.581C75.6712 127.833 72.9055 125.902 71.9398 123.029L86.8097 110.567C86.8076 111.07 86.8054 111.545 86.8054 111.952V113.16C86.8054 115.607 86.8784 119.785 86.3465 122.284ZM100.181 99.8137H127.887V92.4039H100.181V99.8137ZM100.18 113.177H110.561V118.016C110.561 122.535 107.973 125.741 103.011 125.741H102.527V132.677H103.179C111.738 132.677 117.497 126.307 117.497 118.192V113.177H127.886V105.769H100.18V113.177Z" fill="white"/>
</svg>
