<svg width="225" height="225" viewBox="0 0 225 225" fill="none" xmlns="http://www.w3.org/2000/svg">
  <path d="M225 0H0V225H225V0Z" fill="#0050FF"/>
  <path d="M141.921 121.431C142.465 122.306 142.911 123.208 143.524 123.977C145.35 126.272 148.83 126.937 151.352 125.536C152.94 124.654 153.817 123.294 153.854 121.484C153.892 119.636 153.118 118.139 151.459 117.277C150.294 116.672 149.042 116.218 147.797 115.789C145.256 114.912 142.765 113.947 140.523 112.425C137.379 110.29 135.513 107.347 134.977 103.59C134.164 97.8874 137.833 92.3046 143.379 90.7016C146.336 89.8472 149.308 89.782 152.294 90.4577C156.318 91.3677 159.126 93.7952 160.903 97.4742C161.06 97.8001 161.381 98.5128 161.397 98.6892L153.943 101.901C153.316 101.064 152.803 100.195 152.116 99.4999C150.027 97.3875 146.577 97.4616 144.602 99.5161C142.934 101.252 143.545 104.222 144.697 105.508C145.795 106.732 147.233 107.344 148.724 107.879C150.461 108.502 152.235 109.035 153.932 109.752C156.168 110.698 158.192 112.011 159.796 113.873C162.951 117.537 163.51 122.649 161.181 126.97C158.808 131.374 155.05 133.753 150.111 134.302C147.201 134.626 144.368 134.306 141.648 133.163C138.304 131.759 136.005 129.305 134.505 126.058C134.233 125.47 133.964 124.866 133.964 124.866L141.921 121.431ZM62.3906 98.5122V90.2956H91.7573V98.5098L81.4462 98.5128C81.4606 108.902 81.4845 131.291 81.4845 131.291C81.4845 131.291 72.9068 134.93 72.7059 135L72.7047 98.5134L62.3906 98.5122ZM99.5403 133.781V90.2896C99.5403 90.2896 109.325 90.2639 113.967 90.2711C120.76 90.2819 126.277 95.3367 126.82 102.115C127.085 105.429 126.14 108.423 124.074 111.04L123.82 111.415L124.094 111.798C129.351 117.48 128.501 126.536 122.303 131.145C119.987 132.866 117.406 133.764 114.517 133.766L99.5403 133.781ZM107.709 120.771C107.709 122.33 107.702 125.948 107.702 125.948C107.702 125.948 112.418 125.959 114.562 125.935C117.364 125.869 119.625 123.468 119.584 120.682C119.544 117.883 117.239 115.595 114.42 115.576C112.372 115.562 107.702 115.562 107.702 115.562C107.702 115.562 107.707 119.23 107.707 120.771L107.709 120.771ZM107.72 103.064C107.72 104.49 107.713 107.803 107.713 107.803C107.713 107.803 112.099 107.812 114.092 107.791C116.698 107.73 118.801 105.532 118.763 102.982C118.725 100.42 116.582 98.325 113.96 98.3077C112.056 98.2951 107.713 98.2957 107.713 98.2957C107.713 98.2957 107.717 101.654 107.717 103.064H107.72Z" fill="white"/>
</svg>
