<svg width="56" height="26" viewBox="0 0 56 26" fill="none" xmlns="http://www.w3.org/2000/svg">
  <path d="M44.2434 18.436C44.5457 18.9223 44.7938 19.4232 45.1343 19.8507C46.1487 21.1256 48.0817 21.495 49.4831 20.7164C50.365 20.2264 50.8523 19.471 50.8729 18.4652C50.8942 17.4388 50.464 16.607 49.5426 16.1284C48.8955 15.7922 48.1999 15.5401 47.508 15.3016C46.0963 14.8146 44.7124 14.2785 43.4671 13.4327C41.7205 12.2465 40.6835 10.6116 40.3858 8.52419C39.9344 5.35623 41.9723 2.25471 45.0536 1.36415C46.6962 0.88947 48.3474 0.853263 50.0066 1.22862C52.2418 1.73419 53.8021 3.08282 54.789 5.1267C54.8763 5.30774 55.0547 5.70369 55.0633 5.80168L50.9228 7.58613C50.574 7.12108 50.2893 6.63843 49.9073 6.25211C48.7467 5.07854 46.83 5.11972 45.7332 6.26108C44.8064 7.22539 45.1456 8.87563 45.786 9.59014C46.3955 10.2698 47.1948 10.6099 48.0232 10.9069C48.9882 11.253 49.9737 11.5493 50.9161 11.9479C52.1585 12.4734 53.2829 13.2025 54.1741 14.2373C55.927 16.2725 56.2372 19.1126 54.9434 21.5132C53.6253 23.9597 51.5373 25.2818 48.7939 25.5867C47.1768 25.7664 45.6033 25.5887 44.0919 24.9539C42.2344 24.1736 40.9568 22.8107 40.1234 21.0063C39.9726 20.6798 39.8231 20.3443 39.8231 20.3443L44.2434 18.436ZM0.0600586 5.70336V1.1386H16.3749V5.70203L10.6465 5.70369C10.6545 11.4756 10.6677 23.9139 10.6677 23.9139C10.6677 23.9139 5.90236 25.9355 5.79075 25.9744L5.79009 5.70402L0.0600586 5.70336ZM20.6988 25.2971V1.13528C20.6988 1.13528 26.1345 1.121 28.7135 1.12498C32.4877 1.13096 35.5527 3.93917 35.854 7.70505C36.0011 9.5463 35.4766 11.2095 34.3286 12.6631L34.1878 12.8717L34.3399 13.0843C37.2601 16.2413 36.788 21.2721 33.3447 23.8325C32.0582 24.7888 30.6242 25.2874 29.0191 25.2891L20.6988 25.2971ZM25.237 18.0696C25.237 18.9356 25.2333 20.9456 25.2333 20.9456C25.2333 20.9456 27.8532 20.9515 29.044 20.9383C30.6006 20.9017 31.8569 19.5677 31.8343 18.0201C31.8117 16.4648 30.5312 15.1936 28.9653 15.183C27.8276 15.1753 25.2333 15.1757 25.2333 15.1757C25.2333 15.1757 25.236 17.2132 25.236 18.0693L25.237 18.0696ZM25.2429 8.23188C25.2429 9.02445 25.2393 10.8647 25.2393 10.8647C25.2393 10.8647 27.6758 10.87 28.7833 10.8581C30.2309 10.8245 31.3992 9.60343 31.3782 8.1867C31.357 6.763 30.1664 5.59939 28.7099 5.58975C27.6519 5.58278 25.2393 5.58311 25.2393 5.58311C25.2393 5.58311 25.2416 7.44861 25.2416 8.23188H25.2429Z" fill="#0050FF"/>
</svg>
