<svg width="32" height="15" viewBox="0 0 32 15" fill="none" xmlns="http://www.w3.org/2000/svg">
  <path d="M24.8027 10.1596C24.972 10.4319 25.111 10.7125 25.3016 10.9519C25.8697 11.6658 26.9522 11.8726 27.737 11.4366C28.2308 11.1622 28.5037 10.7392 28.5153 10.176C28.5272 9.60118 28.2863 9.13539 27.7703 8.86734C27.4079 8.67909 27.0184 8.5379 26.6309 8.40434C25.8403 8.13163 25.0654 7.8314 24.368 7.3578C23.3899 6.69353 22.8092 5.77794 22.6425 4.60901C22.3897 2.83495 23.5309 1.0981 25.2564 0.599382C26.1763 0.333562 27.101 0.313286 28.0301 0.523487C29.2819 0.806607 30.1556 1.56184 30.7082 2.70641C30.7572 2.80779 30.8571 3.02953 30.8619 3.0844L28.5432 4.08369C28.3479 3.82327 28.1884 3.55298 27.9745 3.33664C27.3246 2.67944 26.2512 2.7025 25.637 3.34166C25.118 3.88167 25.3079 4.80581 25.6666 5.20594C26.0079 5.58653 26.4555 5.77701 26.9194 5.94332C27.4598 6.13715 28.0117 6.30307 28.5395 6.5263C29.2352 6.82058 29.8648 7.22889 30.3639 7.80833C31.3455 8.94807 31.5193 10.5385 30.7947 11.8829C30.0566 13.2529 28.8873 13.9933 27.351 14.164C26.4454 14.2647 25.5643 14.1651 24.7179 13.8097C23.6777 13.3727 22.9623 12.6095 22.4955 11.599C22.4111 11.4162 22.3274 11.2283 22.3274 11.2283L24.8027 10.1596ZM0.0600586 3.02934V0.473076H9.19635V3.02859L5.98846 3.02953C5.99293 6.26178 6.00037 13.2272 6.00037 13.2272C6.00037 13.2272 3.33175 14.3593 3.26925 14.3811L3.26887 3.02971L0.0600586 3.02934ZM11.6177 14.0018V0.471216C11.6177 0.471216 14.6617 0.463217 16.106 0.465449C18.2195 0.468798 19.9359 2.0414 20.1046 4.15029C20.187 5.18138 19.8933 6.11278 19.2504 6.92679L19.1716 7.04361L19.2568 7.16266C20.8921 8.93058 20.6277 11.7478 18.6995 13.1817C17.979 13.7172 17.176 13.9964 16.2771 13.9973L11.6177 14.0018ZM14.1591 9.95443C14.1591 10.4394 14.1571 11.565 14.1571 11.565C14.1571 11.565 15.6242 11.5683 16.2911 11.5609C17.1628 11.5404 17.8663 10.7934 17.8536 9.92671C17.841 9.05577 17.1239 8.34388 16.247 8.33793C15.6099 8.33365 14.1571 8.33384 14.1571 8.33384C14.1571 8.33384 14.1586 9.47487 14.1586 9.95424L14.1591 9.95443ZM14.1625 4.44531C14.1625 4.88915 14.1604 5.91969 14.1604 5.91969C14.1604 5.91969 15.5249 5.92267 16.1451 5.91597C16.9557 5.89718 17.61 5.21338 17.5982 4.42001C17.5863 3.62274 16.9196 2.97112 16.1039 2.96572C15.5115 2.96181 14.1604 2.962 14.1604 2.962C14.1604 2.962 14.1617 4.00668 14.1617 4.44531H14.1625Z" fill="white"/>
</svg>
