<svg width="225" height="225" viewBox="0 0 225 225" fill="none" xmlns="http://www.w3.org/2000/svg">
  <path d="M225 0H0V225H225V0Z" fill="white"/>
  <path fill-rule="evenodd" clip-rule="evenodd" d="M134.054 179.996C132.204 172.466 127.806 157.173 126.649 152.884C125.635 149.131 113.062 149.91 109.956 150.158C106.853 149.91 94.2862 149.131 93.2757 152.884C92.112 157.173 87.7143 172.466 85.8641 179.996H134.054Z" fill="#FFE2AE"/>
  <path fill-rule="evenodd" clip-rule="evenodd" d="M83.2932 182.012H136.625L136.012 179.515C134.699 174.172 132.1 164.903 130.289 158.447C129.541 155.779 128.927 153.59 128.595 152.359L128.595 152.358C128.053 150.353 126.142 149.406 124.68 148.925C123.072 148.396 121.111 148.135 119.221 148.009C115.534 147.764 111.633 148.006 109.956 148.136C108.28 148.006 104.382 147.764 100.697 148.009C98.8083 148.135 96.8487 148.396 95.2414 148.925C93.7807 149.406 91.8703 150.354 91.3298 152.358C91.0095 153.538 90.4332 155.591 89.7285 158.101C87.9125 164.568 85.244 174.072 83.9066 179.515L83.2932 182.012ZM88.4533 177.98C89.866 172.525 92.016 164.867 93.5737 159.32C94.2882 156.775 94.8781 154.675 95.2149 153.434C95.2207 153.437 95.3994 153.118 96.5025 152.754C97.6327 152.382 99.1982 152.149 100.965 152.032C104.47 151.799 108.268 152.045 109.796 152.167L109.956 152.18L110.116 152.167C111.645 152.045 115.446 151.799 118.953 152.032C120.721 152.149 122.288 152.382 123.42 152.754C124.525 153.118 124.704 153.439 124.71 153.436C125.062 154.737 125.69 156.976 126.448 159.68C127.994 165.195 130.082 172.64 131.465 177.98H88.4533Z" fill="#231F20"/>
  <path fill-rule="evenodd" clip-rule="evenodd" d="M162.549 174.797C159 178.222 153.206 179.682 144.952 177.501C138.423 175.774 131.64 174.96 125.458 175.099C119.293 175.237 113.643 176.325 109.433 178.476L110.479 180.524C114.269 178.588 119.539 177.532 125.51 177.398C131.465 177.264 138.033 178.05 144.364 179.724L144.364 179.724C153.108 182.035 159.832 180.614 164.146 176.452L164.146 176.452C167.715 173.005 168.962 167.802 166.355 161.561L166.355 161.561C165.787 160.204 165.375 159.043 165.402 157.829C165.427 156.669 165.861 155.318 167.306 153.641L165.563 152.14C163.845 154.135 163.141 155.981 163.102 157.78C163.065 159.526 163.664 161.086 164.233 162.448C166.523 167.929 165.351 172.091 162.549 174.797Z" fill="#231F20"/>
  <path fill-rule="evenodd" clip-rule="evenodd" d="M45.1205 100.321C45.1205 136.117 74.1466 165.153 109.956 165.153C145.764 165.153 174.804 136.117 174.804 100.321C174.804 64.5243 145.764 35.5 109.956 35.5C74.1471 35.5 45.1205 64.5249 45.1205 100.321ZM109.956 161.122C76.3733 161.122 49.1518 133.891 49.1518 100.321C49.1518 66.7519 76.3729 39.5313 109.956 39.5313C143.539 39.5313 170.773 66.7525 170.773 100.321C170.773 133.89 143.539 161.122 109.956 161.122Z" fill="#231F20"/>
  <path fill-rule="evenodd" clip-rule="evenodd" d="M129.828 164.876C138.962 162.506 146.952 172.237 140.927 182.779C142.639 183.198 144.778 183.783 147.021 184.559C149.341 185.359 149.123 187.484 146.585 187.484H73.3266C70.7922 187.484 70.5776 185.359 72.8942 184.559C75.1341 183.783 77.2689 183.198 78.9877 182.779C72.9632 172.237 80.9573 162.506 90.0834 164.876H129.828Z" fill="#FFE2AE"/>
  <path fill-rule="evenodd" clip-rule="evenodd" d="M69.292 186.578C69.5695 188.744 71.6892 189.5 73.3266 189.5H146.585C148.222 189.5 150.343 188.746 150.623 186.581C150.889 184.53 149.201 183.179 147.679 182.654C146.329 182.187 145.018 181.788 143.813 181.451C145.876 176.37 145.21 171.444 142.721 167.84C139.918 163.782 134.903 161.59 129.581 162.86H90.3304C85.012 161.59 79.9981 163.783 77.1956 167.84C74.7061 171.444 74.0394 176.37 76.1017 181.45C74.8948 181.787 73.5848 182.187 72.235 182.654C70.7131 183.18 69.0297 184.531 69.292 186.578ZM76.7062 185.469C77.6991 185.184 78.6313 184.941 79.4654 184.737L82.0659 184.103L80.7378 181.779C78.0723 177.115 78.6089 172.887 80.5125 170.131C82.4368 167.345 85.865 165.863 89.5767 166.827L89.8259 166.892H130.086L130.335 166.827C134.051 165.863 137.48 167.346 139.404 170.131C141.307 172.886 141.843 177.115 139.177 181.779L137.85 184.101L140.448 184.737C141.28 184.94 142.211 185.183 143.205 185.469H76.7062Z" fill="#231F20"/>
  <path fill-rule="evenodd" clip-rule="evenodd" d="M129.828 164.876C138.962 162.506 146.952 172.237 140.927 182.779C142.639 183.198 144.778 183.783 147.021 184.559C149.341 185.359 149.123 187.484 146.585 187.484H73.3266C70.7922 187.484 70.5776 185.359 72.8942 184.559C75.1341 183.783 77.2689 183.198 78.9877 182.779C72.9632 172.237 80.9573 162.506 90.0834 164.876H129.828Z" fill="#FFE2AE"/>
  <path fill-rule="evenodd" clip-rule="evenodd" d="M70.4342 186.432C70.5994 187.721 71.9007 188.348 73.3266 188.348H146.585C148.012 188.348 149.315 187.722 149.481 186.433C149.642 185.193 148.618 184.196 147.303 183.742C145.478 183.111 143.724 182.605 142.209 182.211C144.774 177.03 144.21 172.023 141.773 168.494C139.208 164.781 134.611 162.789 129.72 164.012H90.1917C85.3042 162.789 80.7082 164.781 78.1431 168.494C75.706 172.022 75.1412 177.029 77.706 182.211C76.187 182.605 74.4346 183.111 72.6112 183.743C71.2973 184.197 70.2755 185.193 70.4342 186.432ZM72.1483 186.212C72.1453 186.188 72.174 185.722 73.1763 185.376L73.1771 185.376C75.3847 184.611 77.4922 184.033 79.1925 183.618L80.3073 183.347L79.7379 182.35C76.8743 177.34 77.3857 172.631 79.565 169.477C81.7532 166.309 85.6681 164.622 89.8661 165.712L89.9729 165.74H129.939L130.045 165.712C134.248 164.622 138.163 166.309 140.351 169.477C142.53 172.631 143.041 177.339 140.177 182.35L139.608 183.346L140.722 183.618C142.416 184.033 144.527 184.611 146.738 185.376L146.739 185.376C147.743 185.722 147.77 186.188 147.768 186.211C147.765 186.228 147.752 186.308 147.594 186.406C147.426 186.51 147.107 186.62 146.585 186.62H73.3266C72.8053 186.62 72.4875 186.51 72.3205 186.406C72.1637 186.309 72.1506 186.23 72.1483 186.212Z" fill="#231F20"/>
  <path fill-rule="evenodd" clip-rule="evenodd" d="M134.054 179.996C132.204 172.466 127.806 157.173 126.649 152.884C125.635 149.131 113.062 149.91 109.956 150.158C106.853 149.91 94.2862 149.131 93.2757 152.884C92.112 157.173 87.7143 172.466 85.8641 179.996H134.054Z" fill="#FFE2AE"/>
  <path fill-rule="evenodd" clip-rule="evenodd" d="M84.762 180.86H135.156L134.893 179.79C133.585 174.465 131.001 165.252 129.192 158.799C128.439 156.115 127.821 153.909 127.483 152.659L127.483 152.658C127.106 151.263 125.729 150.483 124.32 150.019C122.848 149.535 121 149.282 119.144 149.158C115.475 148.914 111.564 149.164 109.956 149.291C108.349 149.164 104.441 148.914 100.774 149.158C98.9197 149.282 97.0727 149.535 95.6017 150.019C94.1937 150.483 92.8177 151.263 92.4416 152.658C92.117 153.855 91.5359 155.924 90.8269 158.449C89.0114 164.915 86.3574 174.367 85.0249 179.79L84.762 180.86ZM86.97 179.132C88.3584 173.634 90.7754 165.026 92.4753 158.972C93.1903 156.425 93.7784 154.331 94.1097 153.11L94.1101 153.108C94.2396 152.628 94.8132 152.098 96.1423 151.66C97.4088 151.243 99.0869 151.003 100.889 150.883C104.48 150.644 108.346 150.896 109.887 151.019L109.956 151.025L110.024 151.019C111.567 150.896 115.436 150.644 119.03 150.883C120.833 151.003 122.512 151.243 123.78 151.661C125.11 152.098 125.685 152.628 125.815 153.109C126.16 154.387 126.786 156.621 127.545 159.328C129.237 165.359 131.587 173.74 132.948 179.132H86.97Z" fill="#231F20"/>
  <path fill-rule="evenodd" clip-rule="evenodd" d="M159.069 61.1553C167.637 71.9006 172.775 85.5043 172.775 100.315C172.775 105.126 172.224 109.795 171.196 114.296L109.959 100.315L159.069 61.1553Z" fill="#524FA1"/>
  <path fill-rule="evenodd" clip-rule="evenodd" d="M171.846 115.331L172.038 114.488C173.08 109.926 173.64 105.193 173.64 100.315C173.64 85.3008 168.429 71.5087 159.744 60.6166L159.206 59.941L108.018 100.758L171.846 115.331ZM111.901 99.8715L158.927 62.3733C167.057 72.8631 171.911 86.0183 171.911 100.315C171.911 104.76 171.434 109.082 170.54 113.26L111.901 99.8715Z" fill="#231F20"/>
  <path fill-rule="evenodd" clip-rule="evenodd" d="M109.959 37.496C129.841 37.496 147.543 46.7414 159.069 61.1553L109.959 100.318V37.496Z" fill="#EF5BA1"/>
  <path fill-rule="evenodd" clip-rule="evenodd" d="M109.095 102.112L160.284 61.2914L159.744 60.6156C148.061 46.0063 130.116 36.6319 109.959 36.6319H109.095V102.112ZM110.823 98.5236V38.366C129.77 38.6252 146.641 47.3967 157.849 61.0229L110.823 98.5236Z" fill="#231F20"/>
  <path fill-rule="evenodd" clip-rule="evenodd" d="M48.7192 114.289C47.6956 109.789 47.1362 105.126 47.1362 100.315C47.1362 85.4978 52.2751 71.894 60.8527 61.152L109.959 100.315L48.7192 114.289Z" fill="#F68D47"/>
  <path fill-rule="evenodd" clip-rule="evenodd" d="M48.0684 115.324L111.901 100.758L60.7163 59.938L60.1774 60.6128C51.4824 71.5019 46.272 85.2942 46.272 100.315C46.272 105.194 46.8394 109.921 47.8766 114.481L48.0684 115.324ZM49.3756 113.253C48.4842 109.075 48.0002 104.759 48.0002 100.315C48.0002 86.0115 52.8548 72.8562 60.9937 62.3697L108.017 99.8713L49.3756 113.253Z" fill="#231F20"/>
  <path fill-rule="evenodd" clip-rule="evenodd" d="M137.224 156.926C128.975 160.904 119.727 163.141 109.962 163.141C100.191 163.141 90.9428 160.904 82.6881 156.922L109.962 100.315L137.224 156.926Z" fill="#A3CF62"/>
  <path fill-rule="evenodd" clip-rule="evenodd" d="M82.3127 157.701C90.6814 161.737 100.058 164.005 109.962 164.005C119.86 164.005 129.237 161.737 137.599 157.704L138.377 157.329L109.963 98.3234L81.5347 157.325L82.3127 157.701ZM83.844 156.514L109.962 102.306L136.068 156.517C128.133 160.209 119.287 162.277 109.962 162.277C100.632 162.277 91.7853 160.209 83.844 156.514Z" fill="#231F20"/>
  <path fill-rule="evenodd" clip-rule="evenodd" d="M60.856 61.1553C72.3687 46.7447 90.0801 37.4993 109.962 37.4993V100.315L60.856 61.1553Z" fill="#F15A40"/>
  <path fill-rule="evenodd" clip-rule="evenodd" d="M110.826 102.109V36.6352H109.962C89.8057 36.6352 71.8501 46.0094 60.1808 60.616L59.641 61.2917L110.826 102.109ZM62.0755 61.0227C73.2714 47.4001 90.1514 38.6285 109.098 38.3693V98.5203L62.0755 61.0227Z" fill="#231F20"/>
  <path fill-rule="evenodd" clip-rule="evenodd" d="M171.192 114.296C166.916 133.121 154.198 148.737 137.22 156.926L109.959 100.315L171.192 114.296Z" fill="#00B9F2"/>
  <path fill-rule="evenodd" clip-rule="evenodd" d="M136.817 158.08L137.596 157.704C154.807 149.403 167.7 133.573 172.035 114.487L172.226 113.646L108.402 99.0727L136.817 158.08ZM137.621 155.766L111.516 101.556L170.153 114.945C165.822 132.847 153.725 147.718 137.621 155.766Z" fill="#231F20"/>
  <path fill-rule="evenodd" clip-rule="evenodd" d="M48.7192 114.289L109.959 100.315L82.6913 156.922C65.7102 148.733 52.9954 133.114 48.7192 114.289Z" fill="#FFF450"/>
  <path fill-rule="evenodd" clip-rule="evenodd" d="M83.0947 158.076L111.516 99.0729L47.6854 113.639L47.8766 114.481C52.212 133.566 65.1016 149.399 82.316 157.701L83.0947 158.076ZM49.7589 114.938L108.402 101.556L82.2907 155.763C66.1833 147.715 54.09 132.84 49.7589 114.938Z" fill="#231F20"/>
  <path fill-rule="evenodd" clip-rule="evenodd" d="M107.752 167.539V184.582C107.752 188.102 104.527 188.423 102.852 185.418C100.598 181.384 96.4145 173.318 93.9666 169.043L107.752 167.539Z" fill="#FFE2AE"/>
  <path fill-rule="evenodd" clip-rule="evenodd" d="M106.052 188.302C107.652 188.074 108.616 186.59 108.616 184.582V166.575L92.5609 168.327L93.2167 169.472C94.5996 171.887 96.5047 175.454 98.3162 178.845C99.7318 181.494 101.09 184.037 102.097 185.84C103.036 187.523 104.555 188.515 106.052 188.302ZM105.808 186.591C105.274 186.667 104.343 186.318 103.606 184.998L103.606 184.997C102.644 183.274 101.296 180.753 99.88 178.103C98.3151 175.176 96.667 172.092 95.3639 169.759L106.888 168.502V184.582C106.888 186.094 106.239 186.53 105.808 186.591Z" fill="#231F20"/>
  <path fill-rule="evenodd" clip-rule="evenodd" d="M112.16 167.539V184.582C112.16 188.102 115.388 188.423 117.063 185.418C119.311 181.384 123.5 173.318 125.949 169.043L112.16 167.539Z" fill="#FFE2AE"/>
  <path fill-rule="evenodd" clip-rule="evenodd" d="M114.105 186.591C113.673 186.53 113.024 186.094 113.024 184.582V168.502L124.552 169.759C123.22 172.141 121.531 175.3 119.939 178.279C118.558 180.861 117.249 183.309 116.308 184.998M114.105 186.591C114.64 186.667 115.572 186.318 116.308 184.998ZM113.862 188.302C115.359 188.515 116.879 187.523 117.818 185.839L117.818 185.839C118.797 184.081 120.118 181.611 121.5 179.024C123.342 175.578 125.294 171.925 126.699 169.472L127.355 168.327L111.296 166.575V184.582C111.296 186.59 112.261 188.074 113.862 188.302Z" fill="#231F20"/>
  <path fill-rule="evenodd" clip-rule="evenodd" d="M144.463 100.315C144.463 119.388 129.008 134.858 109.956 134.858C90.8968 134.858 75.4483 119.388 75.4483 100.315C75.4483 81.2423 90.8968 65.7709 109.956 65.7709C129.008 65.7709 144.463 81.2423 144.463 100.315Z" fill="#FFE2AE"/>
  <path fill-rule="evenodd" clip-rule="evenodd" d="M74.4404 100.315C74.4404 119.943 90.339 135.866 109.956 135.866C129.566 135.866 145.471 119.943 145.471 100.315C145.471 80.6867 129.566 64.7631 109.956 64.7631C90.339 64.7631 74.4404 80.6869 74.4404 100.315ZM109.956 133.85C91.4544 133.85 76.4561 118.832 76.4561 100.315C76.4561 81.7978 91.4545 66.7787 109.956 66.7787C128.451 66.7787 143.455 81.798 143.455 100.315C143.455 118.832 128.451 133.85 109.956 133.85Z" fill="#231F20"/>
  <path fill-rule="evenodd" clip-rule="evenodd" d="M104.43 79.9363C104.242 81.5489 103.196 82.752 102.102 82.613C101.008 82.4948 100.27 81.0737 100.472 79.471C100.668 77.8518 101.701 76.6552 102.792 76.7844C103.893 76.9136 104.626 78.328 104.43 79.9363Z" fill="#FDC07C"/>
  <path fill-rule="evenodd" clip-rule="evenodd" d="M103.692 82.0063C104.13 81.5019 104.447 80.7757 104.544 79.9498C104.644 79.1259 104.507 78.3468 104.199 77.7531C103.891 77.16 103.404 76.7415 102.805 76.6712C102.211 76.6008 101.645 76.8932 101.21 77.3975C100.774 77.9023 100.459 78.6283 100.359 79.457C100.255 80.2784 100.392 81.058 100.7 81.6512C101.007 82.2433 101.493 82.6614 102.089 82.7262C102.684 82.8015 103.254 82.5099 103.692 82.0063ZM103.52 81.8567C103.114 82.3228 102.614 82.5632 102.116 82.4999L102.114 82.4997L102.114 82.4997C101.617 82.4459 101.187 82.0945 100.902 81.5462C100.618 80.9987 100.487 80.2665 100.585 79.4852L100.585 79.4847C100.681 78.6944 100.98 78.0125 101.383 77.5466C101.785 77.0801 102.282 76.8388 102.778 76.8976L102.778 76.8976C103.28 76.9565 103.711 77.3098 103.996 77.8582C104.281 78.4061 104.413 79.1382 104.317 79.9225L104.317 79.923C104.225 80.7096 103.925 81.3912 103.52 81.8567Z" fill="#FFD24E"/>
  <path fill-rule="evenodd" clip-rule="evenodd" d="M115.488 79.9363C115.676 81.5489 116.727 82.752 117.816 82.613C118.9 82.4948 119.64 81.0737 119.446 79.471C119.258 77.8518 118.217 76.6552 117.12 76.7844C116.026 76.9136 115.292 78.328 115.488 79.9363Z" fill="#FDC07C"/>
  <path fill-rule="evenodd" clip-rule="evenodd" d="M116.4 81.8566C115.995 81.3911 115.693 80.7094 115.601 79.923L115.601 79.9225C115.505 79.1382 115.637 78.4061 115.922 77.8581C116.206 77.3095 116.635 76.9564 117.133 76.8976C117.634 76.8387 118.134 77.0804 118.538 77.5467C118.942 78.0126 119.241 78.6942 119.333 79.4842L119.333 79.4847C119.428 80.266 119.294 80.9985 119.009 81.5461C118.724 82.0948 118.296 82.446 117.804 82.4997L117.802 82.4999L117.802 82.4999C117.306 82.5632 116.806 82.3229 116.4 81.8566ZM117.83 82.7262C117.236 82.8015 116.667 82.5098 116.228 82.0064C115.789 81.502 115.471 80.7759 115.375 79.9498C115.274 79.1259 115.411 78.3468 115.719 77.7532C116.026 77.1603 116.511 76.7415 117.107 76.6712L117.107 76.6712C117.704 76.6009 118.273 76.8929 118.71 77.3974C119.148 77.9023 119.463 78.6284 119.56 79.4576C119.659 80.2789 119.52 81.0582 119.212 81.6512C118.904 82.243 118.421 82.6613 117.83 82.7262Z" fill="#FFD24E"/>
  <path fill-rule="evenodd" clip-rule="evenodd" d="M96.0099 109.067C95.0497 108.464 94.4524 107.649 94.4026 106.691L93.0728 106.76C93.1522 108.29 94.11 109.447 95.3019 110.195C96.4922 110.942 97.9913 111.337 99.3649 111.337C103.371 111.337 107.313 109.095 109.962 105.645C112.604 109.095 116.541 111.337 120.557 111.337C121.932 111.337 123.431 110.942 124.62 110.195C125.812 109.447 126.768 108.29 126.852 106.762L125.522 106.689C125.47 107.649 124.872 108.465 123.912 109.067C122.951 109.671 121.702 110.005 120.557 110.005C116.778 110.005 112.943 107.723 110.514 104.134L109.963 103.321L109.411 104.134C106.975 107.723 103.134 110.005 99.3649 110.005C98.2216 110.005 96.9716 109.671 96.0099 109.067Z" fill="#231F20"/>
  <path fill-rule="evenodd" clip-rule="evenodd" d="M109.959 104.508C108.406 106.798 106.295 108.589 103.962 109.64L103.945 109.663C104.458 113.492 107.537 117.038 109.953 117.038C112.379 117.038 115.465 113.483 115.973 109.65C113.63 108.599 111.509 106.798 109.959 104.508Z" fill="#F15A40"/>
  <path fill-rule="evenodd" clip-rule="evenodd" d="M104.681 110.037C106.689 109.043 108.513 107.53 109.959 105.645C111.4 107.526 113.225 109.043 115.235 110.038C114.925 111.646 114.142 113.187 113.17 114.356C112.079 115.667 110.87 116.373 109.953 116.373C109.041 116.373 107.837 115.67 106.747 114.361C105.775 113.192 104.991 111.648 104.681 110.037ZM105.724 115.213C106.906 116.634 108.449 117.704 109.953 117.704C111.461 117.704 113.009 116.632 114.194 115.207C115.403 113.754 116.36 111.792 116.633 109.737L116.698 109.245L116.245 109.042C114.022 108.045 111.995 106.328 110.511 104.134L109.96 103.321L109.408 104.134C107.92 106.328 105.903 108.035 103.688 109.033L103.525 109.107L103.251 109.49L103.286 109.751C103.56 111.804 104.517 113.762 105.724 115.213Z" fill="#231F20"/>
  <path fill-rule="evenodd" clip-rule="evenodd" d="M112.49 100.705C112.999 100.794 113.065 101.035 112.692 101.431L110.332 104.234C110.128 104.488 109.781 104.488 109.573 104.234L107.22 101.431C106.85 101.035 106.912 100.794 107.412 100.705C108.759 100.463 111.146 100.463 112.49 100.705Z" fill="#9F664D"/>
  <path fill-rule="evenodd" clip-rule="evenodd" d="M110.846 104.658L113.19 101.873C113.303 101.752 113.413 101.611 113.489 101.452C113.569 101.287 113.638 101.045 113.564 100.776C113.487 100.497 113.294 100.322 113.12 100.223C112.955 100.128 112.772 100.079 112.606 100.05C111.184 99.7941 108.719 99.7942 107.295 100.05C107.131 100.079 106.947 100.129 106.782 100.226C106.608 100.328 106.419 100.506 106.346 100.784C106.276 101.05 106.345 101.289 106.424 101.452C106.5 101.61 106.608 101.75 106.721 101.872L109.061 104.659C109.532 105.23 110.372 105.238 110.846 104.658ZM109.953 103.651L107.975 101.295C109.129 101.154 110.785 101.155 111.935 101.296L109.953 103.651Z" fill="#231F20"/>
  <path fill-rule="evenodd" clip-rule="evenodd" d="M175.988 139.534L177.037 137.066L174.279 138.083L174.85 136.122C172.052 136.785 168.998 138.108 167.168 139.773C163.622 143.003 162.898 148.093 165.42 153.792L165.508 154L165.747 153.971C169.963 153.509 174.189 152.923 175.98 147.322C176.905 144.428 176.189 142.36 178.049 139.062L175.988 139.534Z" fill="#524FA1"/>
  <path fill-rule="evenodd" clip-rule="evenodd" d="M175.98 147.326C176.905 144.431 176.195 142.363 178.049 139.065L175.988 139.537L177.041 137.066L174.282 138.083L174.85 136.124C173.36 136.474 171.807 137.016 170.397 137.7C169.14 141.282 167.967 147.861 168.866 153.535C171.916 152.91 174.639 151.526 175.98 147.326Z" fill="#EF5BA1"/>
  <path fill-rule="evenodd" clip-rule="evenodd" d="M175.988 139.534L177.037 137.066L174.279 138.083L174.85 136.122C174.189 136.276 173.522 136.468 172.864 136.689C172.253 140.03 172.015 145.595 173.344 151.492C174.46 150.538 175.379 149.206 175.98 147.322C176.905 144.428 176.189 142.36 178.049 139.062L175.988 139.534Z" fill="#FFF450"/>
  <path fill-rule="evenodd" clip-rule="evenodd" d="M174.893 147.114C172.831 151.258 170.521 152.193 166.276 152.699C165.426 150.587 165.053 148.571 165.162 146.734C165.472 141.209 169.157 138.414 174.038 137.029L173.905 138.833L176.076 137.995L175.25 140.159L177.047 140.03C176.528 141.996 176.152 144.573 174.893 147.114ZM178.062 137.833L179.03 135.038L176.232 136.009L176.598 134.182C172.923 135.156 168.969 136.494 166.355 138.884C162.347 142.532 161.6 148.142 164.313 154.279L164.398 154.487L164.758 155.316L165.651 155.204L165.889 155.177C169.97 154.727 174.586 153.429 177.18 147.382C178.458 144.398 179.357 139.997 179.88 137.459L178.062 137.833Z" fill="#231F20"/>
  <path fill-rule="evenodd" clip-rule="evenodd" d="M91.2865 90.8742C89.5775 90.9366 87.7635 90.1703 86.8942 88.7963C87.5555 90.5699 88.7291 91.8661 91.0051 92.1267L91.2865 90.8742Z" fill="#231F20"/>
  <path fill-rule="evenodd" clip-rule="evenodd" d="M98.1366 94.0064C97.5804 96.6043 95.3635 98.3253 93.1925 97.8699C91.0216 97.4068 89.7068 94.9249 90.2618 92.3248C90.8103 89.7411 93.0207 88.0125 95.1916 88.4756C97.3691 88.9376 98.6883 91.4162 98.1366 94.0064Z" fill="#28A0D4"/>
  <path fill-rule="evenodd" clip-rule="evenodd" d="M95.4171 91.2147C95.1916 92.2624 94.3858 92.9828 93.6129 92.8175C92.8422 92.6522 92.3966 91.6669 92.6178 90.617C92.8422 89.566 93.6458 88.8489 94.422 89.0142C95.1982 89.1828 95.6448 90.1637 95.4171 91.2147Z" fill="white"/>
  <path fill-rule="evenodd" clip-rule="evenodd" d="M93.7705 95.9792C93.6326 96.6667 93.0841 97.1265 92.5652 97.0203C92.0561 96.9109 91.7518 96.2639 91.8908 95.5796C92.0397 94.8921 92.5816 94.4235 93.1005 94.5319C93.6195 94.6414 93.9194 95.2862 93.7705 95.9792Z" fill="white"/>
  <path fill-rule="evenodd" clip-rule="evenodd" d="M97.2673 94.9556C97.1414 95.5369 96.6225 95.9168 96.1112 95.8073C95.5912 95.6989 95.2683 95.1373 95.3963 94.5582C95.5157 93.9801 96.0346 93.6068 96.5535 93.7163C97.0692 93.8247 97.3867 94.3764 97.2673 94.9556Z" fill="white"/>
  <path fill-rule="evenodd" clip-rule="evenodd" d="M93.1084 98.2709C95.562 98.7856 97.9482 96.8434 98.5372 94.0922L98.5373 94.0918C99.1217 91.3484 97.7382 88.597 95.2766 88.0747C92.8213 87.5513 90.4419 89.5035 89.861 92.2395C89.2737 94.991 90.6508 97.7467 93.107 98.2706L93.1084 98.2709L93.1084 98.2709ZM93.2773 97.469C91.392 97.0664 90.1398 94.8587 90.6625 92.4104L90.6626 92.4099C91.1787 89.9788 93.2197 88.4739 95.1061 88.8763L95.1065 88.8764C96.9999 89.2781 98.2549 91.4839 97.7358 93.9209C97.2124 96.3651 95.1653 97.8646 93.2773 97.469Z" fill="#231F20"/>
  <path fill-rule="evenodd" clip-rule="evenodd" d="M128.628 90.8742C130.341 90.9366 132.155 90.1703 133.027 88.7963C132.359 90.5699 131.186 91.8661 128.913 92.1267L128.628 90.8742Z" fill="#231F20"/>
  <path fill-rule="evenodd" clip-rule="evenodd" d="M129.656 92.3248C130.215 94.9249 128.897 97.4068 126.722 97.8732C124.545 98.3385 122.337 96.6043 121.785 94.0064C121.233 91.4161 122.543 88.9441 124.717 88.4821C126.894 88.0125 129.105 89.7411 129.656 92.3248Z" fill="#28A0D4"/>
  <path fill-rule="evenodd" clip-rule="evenodd" d="M126.507 96.0755C126.524 96.7729 126.112 97.3575 125.582 97.374C125.061 97.3904 124.607 96.8288 124.584 96.1314C124.561 95.434 124.977 94.8428 125.506 94.8297C126.035 94.8133 126.485 95.3749 126.507 96.0755Z" fill="white"/>
  <path fill-rule="evenodd" clip-rule="evenodd" d="M129.276 93.7196C129.293 94.314 128.883 94.8067 128.361 94.8165C127.823 94.8362 127.383 94.3699 127.369 93.7754C127.346 93.1875 127.76 92.6981 128.296 92.6784C128.817 92.6653 129.257 93.1317 129.276 93.7196Z" fill="white"/>
  <path fill-rule="evenodd" clip-rule="evenodd" d="M121.384 94.0918C121.968 96.8407 124.345 98.8002 126.808 98.2739L126.808 98.2738C129.267 97.7465 130.648 94.992 130.057 92.2392C129.473 89.5035 127.093 87.5508 124.631 88.0815C122.172 88.6044 120.8 91.3496 121.384 94.0915M124.717 88.4821L124.717 88.4821L124.717 88.4821C122.705 96.368 124.745 97.8766 126.637 97.4725L122.186 93.9213C122.913 89.2844 121.666 91.4828 122.186 93.921L124.802 88.8829C128.736 89.979 126.696 88.4745 124.803 88.8827L129.256 92.4104C128.527 97.067 129.781 94.8581 129.256 92.4108" fill="#231F20"/>
  <path fill-rule="evenodd" clip-rule="evenodd" d="M126.074 91.1392C126.104 92.2153 125.49 93.1076 124.704 93.1251C123.907 93.1514 123.243 92.3018 123.209 91.2246C123.18 90.1539 123.792 89.2616 124.588 89.2419C125.377 89.2156 126.041 90.0718 126.074 91.1392Z" fill="white"/>
</svg>
