<svg width="107" height="13" viewBox="0 0 107 13" fill="none" xmlns="http://www.w3.org/2000/svg">
  <path d="M12.9075 3.40393C13.3592 3.40393 13.6553 3.16037 13.6553 2.70978V2.24037C13.6553 1.78646 13.3105 1.52075 12.8577 1.52075H0.898202C0.445951 1.52075 0.107178 1.78646 0.107178 2.24037V2.72583C0.107178 3.19248 0.41772 3.40393 0.870525 3.40393H5.11073C5.56298 3.40393 5.9322 3.77315 5.9322 4.22319V11.5334C5.9322 11.9867 6.19956 12.3255 6.65071 12.3255H7.13783C7.59949 12.3255 7.82257 11.9956 7.82257 11.5445V4.22319C7.82257 3.77315 8.19179 3.40393 8.64349 3.40393H12.9075Z" fill="white"/>
  <path d="M13.9962 6.88237C13.9962 10.1317 16.6394 12.7738 19.8904 12.7738C23.1397 12.7738 25.7857 10.1323 25.7857 6.88237C25.7857 3.63137 23.1397 0.988159 19.8904 0.988159C16.6394 0.988159 13.9962 3.63137 13.9962 6.88237ZM15.876 6.88237C15.876 4.66927 17.6773 2.86913 19.8904 2.86913C22.1024 2.86913 23.9014 4.66927 23.9014 6.88237C23.9005 7.94594 23.4777 8.96571 22.7257 9.71782C21.9737 10.4699 20.9539 10.8929 19.8904 10.894C17.6773 10.894 15.876 9.09547 15.876 6.88237Z" fill="white"/>
  <path d="M29.0374 1.35406H28.4562C28.0394 1.35406 27.7571 1.68232 27.7571 2.11852V11.6064C27.7571 12.0293 28.0748 12.3315 28.4512 12.3315H29.064C29.4698 12.3315 29.7216 12.0238 29.7216 11.5798V2.09859C29.7216 1.65464 29.4869 1.35406 29.0374 1.35406ZM37.8749 10.9189C37.8749 10.9189 33.2704 6.97205 33.2666 6.96707C33.0856 6.82758 33.1548 6.57627 33.2865 6.45448L37.5798 2.77946C37.9446 2.48995 37.9651 2.03881 37.7121 1.73989C37.711 1.73989 37.4177 1.38949 37.4177 1.38949C37.1702 1.09556 36.8171 1.02802 36.403 1.35406L30.6411 6.29119C30.3289 6.58623 30.3444 6.91836 30.6522 7.24385L36.6604 12.347C37.018 12.6349 37.4005 12.5895 37.6358 12.3133L37.969 11.923C38.2087 11.6296 38.1998 11.2377 37.8738 10.9189" fill="white"/>
  <path d="M51.4606 2.6854C51.7457 2.40142 51.8116 2.03774 51.5121 1.71281L51.1617 1.36407C50.8362 1.04356 50.4277 1.06072 50.0862 1.39507L46.0414 5.44485C45.9356 5.54998 45.7925 5.60898 45.6434 5.60898C45.4942 5.60898 45.3512 5.54998 45.2454 5.44485L41.1989 1.39009C40.8723 1.07456 40.4583 1.04633 40.1605 1.33086L39.7962 1.69343C39.5111 1.96578 39.5111 2.366 39.8256 2.68373L44.3038 7.16473C44.6127 7.45535 44.7007 7.76589 44.7007 8.12237V11.5632C44.7007 12.031 45.0262 12.3299 45.3965 12.3299H45.9047C46.3126 12.3299 46.5872 12.0565 46.5872 11.5688V8.12293C46.5872 7.75482 46.6968 7.45258 46.983 7.16473L51.4606 2.6854Z" fill="white"/>
  <path d="M52.2456 6.88237C52.2456 10.1317 54.8894 12.7738 58.1393 12.7738C61.3897 12.7738 64.0329 10.1323 64.0329 6.88237C64.0329 3.63137 61.3892 0.988159 58.1387 0.988159C54.8883 0.988159 52.2456 3.63137 52.2456 6.88237ZM54.1255 6.88237C54.1255 4.66927 55.9273 2.86913 58.1393 2.86913C60.3513 2.86913 62.152 4.66927 62.152 6.88237C62.152 9.09547 60.3518 10.894 58.1393 10.894C55.9273 10.894 54.1255 9.09547 54.1255 6.88237Z" fill="white"/>
  <path d="M91.1414 9.8982L85.783 2.44961C85.4409 1.96802 84.837 1.96802 84.5154 2.40865L81.131 6.90625C81.0059 7.07232 80.8398 7.17362 80.6405 7.17362C80.449 7.17362 80.2746 7.07232 80.1501 6.90625L76.7679 2.40865C76.4474 1.96802 75.8435 1.96802 75.5003 2.44961L70.1402 9.8982C69.8784 10.2646 69.9122 10.6892 70.2797 10.9511L70.6633 11.2311C71.032 11.4946 71.404 11.3773 71.6675 11.0092L75.6918 5.41665C75.9542 5.05075 76.392 5.04632 76.6649 5.40502L80.0217 9.8672C80.185 10.0742 80.4147 10.186 80.6405 10.186C80.8653 10.186 81.0978 10.0742 81.26 9.8672L84.6173 5.40502C84.8896 5.04632 85.3275 5.05075 85.5915 5.41665L89.6169 11.0092C89.8777 11.3767 90.2496 11.4946 90.6166 11.2306L91.0025 10.9511C91.3695 10.6892 91.4038 10.2646 91.1414 9.8982Z" fill="white"/>
  <path d="M93.2264 11.8987C92.9485 11.5616 93.0509 11.1403 93.3925 10.8469L97.6105 7.24941C97.9515 6.95602 97.9515 6.47554 97.6105 6.18216L93.6803 2.82044C93.3332 2.52485 93.2186 2.11356 93.5386 1.74434L93.8419 1.38564C94.1359 1.04354 94.5283 1.07178 94.8743 1.3635L99.0597 4.94497C99.4018 5.23836 99.9637 5.23836 100.307 4.94497L104.501 1.34523C104.844 1.0524 105.228 1.0524 105.52 1.39505L105.832 1.77589C106.125 2.11909 106.032 2.51654 105.688 2.81103L101.757 6.18216C101.414 6.47554 101.414 6.95602 101.757 7.24941L105.999 10.858C106.344 11.1514 106.422 11.5798 106.13 11.9241L105.822 12.2889C105.529 12.6321 105.135 12.5956 104.795 12.3028L100.307 8.48604C99.9637 8.19266 99.4018 8.19266 99.0569 8.48604L94.6147 12.2779C94.2732 12.5729 93.8779 12.6515 93.584 12.3061L93.227 11.8987" fill="white"/>
</svg>
