<svg width="225" height="225" viewBox="0 0 225 225" fill="none" xmlns="http://www.w3.org/2000/svg">
  <path d="M225 0H0V225H225V0Z" fill="url(#paint0_linear_0_1)"/>
  <path d="M54.8829 107.529C55.5287 107.529 55.9521 107.181 55.9521 106.536V105.865C55.9521 105.216 55.4591 104.837 54.8117 104.837H37.7137C37.0671 104.837 36.5828 105.216 36.5828 105.865V106.559C36.5828 107.227 37.0267 107.529 37.6741 107.529H43.7362C44.3827 107.529 44.9106 108.057 44.9106 108.7V119.151C44.9106 119.799 45.2928 120.284 45.9378 120.284H46.6342C47.2943 120.284 47.6132 119.812 47.6132 119.167V108.7C47.6132 108.057 48.1411 107.529 48.7868 107.529H54.8829Z" fill="white"/>
  <path d="M56.4395 112.502C56.4395 117.147 60.2184 120.925 64.8663 120.925C69.5117 120.925 73.2946 117.148 73.2946 112.502C73.2946 107.854 69.5117 104.075 64.8663 104.075C60.2184 104.075 56.4395 107.854 56.4395 112.502ZM59.1271 112.502C59.1271 109.338 61.7023 106.764 64.8663 106.764C68.0287 106.764 70.6007 109.338 70.6007 112.502C70.5994 114.023 69.9949 115.48 68.9198 116.556C67.8447 117.631 66.3868 118.236 64.8663 118.237C61.7023 118.237 59.1271 115.666 59.1271 112.502Z" fill="white"/>
  <path d="M77.9433 104.598H77.1123C76.5164 104.598 76.1128 105.068 76.1128 105.691V119.256C76.1128 119.86 76.5671 120.292 77.1052 120.292H77.9813C78.5614 120.292 78.9214 119.852 78.9214 119.218V105.663C78.9214 105.028 78.5859 104.598 77.9433 104.598ZM90.5779 118.273C90.5779 118.273 83.9951 112.63 83.9895 112.623C83.7307 112.424 83.8297 112.064 84.018 111.89L90.1561 106.636C90.6776 106.222 90.7069 105.577 90.3452 105.15C90.3436 105.15 89.9242 104.649 89.9242 104.649C89.5704 104.229 89.0655 104.132 88.4736 104.598L80.236 111.657C79.7896 112.079 79.8118 112.553 80.2518 113.019L88.8416 120.315C89.3528 120.726 89.8997 120.661 90.236 120.266L90.7124 119.708C91.0551 119.289 91.0424 118.729 90.5763 118.273" fill="white"/>
  <path d="M110.001 106.502C110.409 106.096 110.503 105.576 110.075 105.111L109.574 104.613C109.109 104.154 108.525 104.179 108.036 104.657L102.254 110.447C102.102 110.597 101.898 110.681 101.685 110.681C101.471 110.681 101.267 110.597 101.116 110.447L95.3304 104.65C94.8635 104.199 94.2715 104.158 93.8458 104.565L93.325 105.083C92.9175 105.473 92.9175 106.045 93.367 106.499L99.7694 112.906C100.211 113.321 100.337 113.765 100.337 114.275V119.194C100.337 119.863 100.802 120.29 101.332 120.29H102.058C102.641 120.29 103.034 119.899 103.034 119.202V114.276C103.034 113.749 103.191 113.317 103.6 112.906L110.001 106.502Z" fill="white"/>
  <path d="M111.124 112.502C111.124 117.147 114.903 120.925 119.549 120.925C124.197 120.925 127.975 117.148 127.975 112.502C127.975 107.854 124.196 104.075 119.549 104.075C114.902 104.075 111.124 107.854 111.124 112.502ZM113.811 112.502C113.811 109.338 116.387 106.764 119.549 106.764C122.712 106.764 125.286 109.338 125.286 112.502C125.286 115.666 122.713 118.237 119.549 118.237C116.387 118.237 113.811 115.666 113.811 112.502Z" fill="white"/>
  <path d="M166.731 116.813L159.07 106.164C158.581 105.476 157.718 105.476 157.258 106.106L152.42 112.536C152.241 112.773 152.003 112.918 151.718 112.918C151.445 112.918 151.195 112.773 151.017 112.536L146.182 106.106C145.724 105.476 144.86 105.476 144.37 106.164L136.707 116.813C136.332 117.337 136.38 117.944 136.906 118.319L137.454 118.719C137.981 119.096 138.513 118.928 138.89 118.402L144.643 110.406C145.019 109.883 145.645 109.877 146.035 110.39L150.834 116.769C151.067 117.065 151.396 117.225 151.718 117.225C152.04 117.225 152.372 117.065 152.604 116.769L157.404 110.39C157.793 109.877 158.419 109.883 158.797 110.406L164.552 118.402C164.924 118.927 165.456 119.096 165.981 118.718L166.533 118.319C167.057 117.944 167.106 117.337 166.731 116.813Z" fill="white"/>
  <path d="M169.713 119.674C169.315 119.192 169.462 118.589 169.95 118.17L175.98 113.027C176.468 112.607 176.468 111.92 175.98 111.501L170.362 106.695C169.865 106.272 169.702 105.684 170.159 105.156L170.593 104.643C171.013 104.154 171.574 104.195 172.069 104.612L178.052 109.732C178.541 110.152 179.345 110.152 179.835 109.732L185.831 104.586C186.322 104.167 186.871 104.167 187.288 104.657L187.734 105.201C188.154 105.692 188.02 106.26 187.529 106.681L181.909 111.501C181.418 111.92 181.418 112.607 181.909 113.027L187.973 118.186C188.466 118.605 188.578 119.218 188.161 119.71L187.72 120.231C187.301 120.722 186.739 120.67 186.252 120.251L179.835 114.795C179.345 114.375 178.541 114.375 178.048 114.795L171.697 120.216C171.209 120.637 170.644 120.75 170.224 120.256L169.713 119.674" fill="white"/>
  <defs>
    <linearGradient id="paint0_linear_0_1" x1="0" y1="0" x2="225" y2="0" gradientUnits="userSpaceOnUse">
      <stop offset="0.201484" stop-color="#4D45A4"/>
      <stop offset="0.287592" stop-color="#33BDF2"/>
      <stop offset="0.3737" stop-color="#99D64B"/>
      <stop offset="0.448172" stop-color="#F9AE14"/>
      <stop offset="0.529626" stop-color="#F36218"/>
      <stop offset="0.680897" stop-color="#ED1639"/>
      <stop offset="0.790278" stop-color="#F033A3"/>
    </linearGradient>
  </defs>
</svg>
