<svg width="191" height="22" viewBox="0 0 191 22" fill="none" xmlns="http://www.w3.org/2000/svg">
  <path d="M23.8348 5.05301C24.6414 5.05301 25.1702 4.61808 25.1702 3.81345V2.97522C25.1702 2.16466 24.5544 1.69019 23.7458 1.69019H2.38959C1.582 1.69019 0.977051 2.16466 0.977051 2.97522V3.84212C0.977051 4.67541 1.53159 5.05301 2.34017 5.05301H9.91196C10.7196 5.05301 11.3789 5.71233 11.3789 6.51597V19.5699C11.3789 20.3795 11.8563 20.9844 12.6619 20.9844H13.5318C14.3562 20.9844 14.7545 20.3953 14.7545 19.5897V6.51597C14.7545 5.71233 15.4139 5.05301 16.2205 5.05301H23.8348Z" fill="#4D45A4"/>
  <path d="M25.7791 11.2646C25.7791 17.067 30.4991 21.7851 36.3044 21.7851C42.1068 21.7851 46.8318 17.068 46.8318 11.2646C46.8318 5.45927 42.1068 0.739258 36.3044 0.739258C30.4991 0.739258 25.7791 5.45927 25.7791 11.2646ZM29.136 11.2646C29.136 7.31268 32.3525 4.09813 36.3044 4.09813C40.2544 4.09813 43.467 7.31268 43.467 11.2646C43.4654 13.1639 42.7103 14.9849 41.3675 16.3279C40.0246 17.671 38.2037 18.4263 36.3044 18.4282C32.3525 18.4282 29.136 15.2166 29.136 11.2646Z" fill="#33BDF2"/>
  <path d="M52.6382 1.39272H51.6003C50.8559 1.39272 50.3518 1.97889 50.3518 2.75782V19.7004C50.3518 20.4556 50.9192 20.9954 51.5914 20.9954H52.6856C53.4102 20.9954 53.8599 20.4458 53.8599 19.653V2.72223C53.8599 1.92947 53.4408 1.39272 52.6382 1.39272ZM68.4193 18.4727C68.4193 18.4727 60.1971 11.4248 60.1902 11.416C59.867 11.1669 59.9905 10.7181 60.2258 10.5006L67.8925 3.93807C68.5439 3.42109 68.5804 2.61548 68.1287 2.08169C68.1267 2.08169 67.6028 1.45598 67.6028 1.45598C67.161 0.931099 66.5303 0.810504 65.7909 1.39272L55.5018 10.209C54.9443 10.7359 54.972 11.329 55.5216 11.9102L66.2506 21.023C66.8891 21.537 67.5722 21.456 67.9923 20.9627L68.5874 20.2659C69.0154 19.742 68.9996 19.0421 68.4173 18.4727" fill="#99D64B"/>
  <path d="M92.6797 3.76997C93.1888 3.26287 93.3064 2.61344 92.7716 2.0332L92.1459 1.41045C91.5647 0.838123 90.8352 0.868766 90.2253 1.46581L83.0024 8.69756C82.8135 8.88529 82.558 8.99066 82.2917 8.99066C82.0254 8.99066 81.7699 8.88529 81.581 8.69756L74.3552 1.45691C73.772 0.893478 73.0326 0.843065 72.5008 1.35115L71.8503 1.9986C71.3413 2.48494 71.3413 3.19961 71.9027 3.767L79.8996 11.7688C80.4512 12.2877 80.6083 12.8423 80.6083 13.4789V19.6233C80.6083 20.4585 81.1895 20.9923 81.8508 20.9923H82.7583C83.4868 20.9923 83.9771 20.504 83.9771 19.6332V13.4798C83.9771 12.8225 84.1728 12.2828 84.6838 11.7688L92.6797 3.76997Z" fill="#F9AE14"/>
  <path d="M94.0815 11.2646C94.0815 17.067 98.8025 21.7851 104.606 21.7851C110.41 21.7851 115.13 17.068 115.13 11.2646C115.13 5.45927 110.409 0.739258 104.605 0.739258C98.8006 0.739258 94.0815 5.45927 94.0815 11.2646ZM97.4384 11.2646C97.4384 7.31268 100.656 4.09813 104.606 4.09813C108.556 4.09813 111.771 7.31268 111.771 11.2646C111.771 15.2166 108.557 18.4282 104.606 18.4282C100.656 18.4282 97.4384 15.2166 97.4384 11.2646Z" fill="#F36218"/>
  <path d="M163.538 16.6499L153.969 3.34889C153.359 2.48891 152.28 2.48891 151.706 3.27574L145.662 11.3072C145.439 11.6037 145.142 11.7846 144.786 11.7846C144.444 11.7846 144.133 11.6037 143.911 11.3072L137.871 3.27574C137.299 2.48891 136.22 2.48891 135.607 3.34889L126.036 16.6499C125.568 17.3043 125.629 18.0625 126.285 18.53L126.97 19.0302C127.628 19.5007 128.293 19.2912 128.763 18.6338L135.949 8.64717C136.418 7.99378 137.2 7.98587 137.687 8.62641L143.681 16.5946C143.973 16.9643 144.383 17.1639 144.786 17.1639C145.188 17.1639 145.603 16.9643 145.893 16.5946L151.888 8.62641C152.374 7.98587 153.156 7.99378 153.627 8.64717L160.816 18.6338C161.281 19.2902 161.946 19.5007 162.601 19.0292L163.29 18.53C163.945 18.0625 164.007 17.3043 163.538 16.6499Z" fill="#ED1639"/>
  <path d="M167.262 20.2223C166.766 19.6203 166.948 18.8681 167.558 18.3442L175.091 11.92C175.699 11.3961 175.699 10.5381 175.091 10.0142L168.072 4.01114C167.453 3.48329 167.248 2.74885 167.819 2.08953L168.361 1.44899C168.886 0.838109 169.587 0.888521 170.204 1.40945L177.678 7.80494C178.289 8.32884 179.293 8.32884 179.905 7.80494L187.394 1.37683C188.007 0.853924 188.693 0.853924 189.214 1.4658L189.772 2.14587C190.295 2.75873 190.128 3.46847 189.516 3.99434L182.495 10.0142C181.882 10.5381 181.882 11.3961 182.495 11.92L190.07 18.3639C190.686 18.8878 190.825 19.6529 190.304 20.2678L189.754 20.9192C189.23 21.532 188.528 21.4668 187.92 20.9439L179.905 14.1283C179.293 13.6044 178.289 13.6044 177.673 14.1283L169.741 20.8994C169.131 21.4263 168.425 21.5666 167.9 20.9498L167.263 20.2223" fill="#F033A3"/>
</svg>
