<svg width="225" height="225" viewBox="0 0 225 225" fill="none" xmlns="http://www.w3.org/2000/svg">
  <path d="M225 0H0V225H225V0Z" fill="white"/>
  <path d="M38.1554 106.099C38.9886 106.099 39.5349 105.65 39.5349 104.821V103.957C39.5349 103.121 38.8988 102.632 38.0635 102.632H16.0015C15.1672 102.632 14.5422 103.121 14.5422 103.957V104.85C14.5422 105.709 15.1151 106.099 15.9504 106.099H23.7724C24.6067 106.099 25.2878 106.778 25.2878 107.607V121.065C25.2878 121.899 25.781 122.523 26.6133 122.523H27.5119C28.3635 122.523 28.7751 121.915 28.7751 121.085V107.607C28.7751 106.778 29.4562 106.099 30.2894 106.099H38.1554Z" fill="#4D45A4"/>
  <path d="M40.1641 112.502C40.1641 118.484 45.0401 123.348 51.0373 123.348C57.0315 123.348 61.9126 118.485 61.9126 112.502C61.9126 106.517 57.0315 101.651 51.0373 101.651C45.0401 101.651 40.1641 106.517 40.1641 112.502ZM43.6319 112.502C43.6319 108.428 46.9548 105.114 51.0373 105.114C55.1179 105.114 58.4366 108.428 58.4366 112.502C58.435 114.46 57.6549 116.338 56.2677 117.722C54.8804 119.107 52.9993 119.886 51.0373 119.887C46.9548 119.887 43.6319 116.577 43.6319 112.502Z" fill="#33BDF2"/>
  <path d="M67.9108 102.325H66.8385C66.0696 102.325 65.5488 102.929 65.5488 103.732V121.199C65.5488 121.978 66.135 122.534 66.8294 122.534H67.9598C68.7083 122.534 69.1729 121.967 69.1729 121.15V103.696C69.1729 102.878 68.7399 102.325 67.9108 102.325ZM84.2134 119.933C84.2134 119.933 75.7195 112.667 75.7124 112.658C75.3784 112.402 75.5061 111.939 75.7491 111.715L83.6692 104.949C84.3421 104.416 84.3799 103.586 83.9132 103.035C83.9112 103.035 83.37 102.39 83.37 102.39C82.9135 101.849 82.262 101.725 81.4982 102.325L70.869 111.414C70.2931 111.957 70.3217 112.569 70.8895 113.168L81.973 122.563C82.6327 123.092 83.3383 123.009 83.7723 122.5L84.387 121.782C84.8292 121.242 84.8129 120.52 84.2114 119.933" fill="#99D64B"/>
  <path d="M109.276 104.776C109.802 104.253 109.923 103.584 109.371 102.985L108.724 102.343C108.124 101.753 107.37 101.785 106.74 102.401L99.2787 109.856C99.0835 110.049 98.8196 110.158 98.5445 110.158C98.2693 110.158 98.0054 110.049 97.8102 109.856L90.3456 102.391C89.7431 101.811 88.9793 101.759 88.4299 102.282L87.758 102.95C87.2321 103.451 87.2321 104.188 87.8121 104.773L96.0733 113.022C96.6431 113.557 96.8054 114.129 96.8054 114.785V121.12C96.8054 121.981 97.4059 122.531 98.089 122.531H99.0264C99.779 122.531 100.286 122.028 100.286 121.13V114.786C100.286 114.108 100.488 113.552 101.016 113.022L109.276 104.776Z" fill="#F9AE14"/>
  <path d="M110.724 112.502C110.724 118.484 115.601 123.348 121.596 123.348C127.592 123.348 132.468 118.485 132.468 112.502C132.468 106.517 127.591 101.651 121.595 101.651C115.599 101.651 110.724 106.517 110.724 112.502ZM114.191 112.502C114.191 108.428 117.515 105.114 121.596 105.114C125.676 105.114 128.998 108.428 128.998 112.502C128.998 116.577 125.677 119.887 121.596 119.887C117.515 119.887 114.191 116.577 114.191 112.502Z" fill="#F36218"/>
  <path d="M182.476 118.054L172.591 104.342C171.96 103.455 170.846 103.455 170.253 104.266L164.009 112.546C163.779 112.852 163.472 113.038 163.105 113.038C162.751 113.038 162.43 112.852 162.2 112.546L155.961 104.266C155.369 103.455 154.255 103.455 153.622 104.342L143.734 118.054C143.251 118.729 143.314 119.51 143.992 119.992L144.699 120.508C145.38 120.993 146.066 120.777 146.552 120.099L153.976 109.804C154.46 109.13 155.267 109.122 155.771 109.783L161.963 117.997C162.264 118.378 162.688 118.584 163.105 118.584C163.519 118.584 163.948 118.378 164.247 117.997L170.441 109.783C170.943 109.122 171.751 109.13 172.238 109.804L179.664 120.099C180.145 120.776 180.831 120.993 181.508 120.507L182.22 119.992C182.897 119.51 182.96 118.729 182.476 118.054Z" fill="#ED1639"/>
  <path d="M186.322 121.737C185.81 121.116 185.999 120.341 186.629 119.801L194.41 113.178C195.039 112.638 195.039 111.753 194.41 111.213L187.16 105.025C186.52 104.48 186.308 103.723 186.898 103.044L187.458 102.383C188 101.753 188.724 101.805 189.362 102.342L197.083 108.936C197.714 109.476 198.751 109.476 199.384 108.936L207.12 102.309C207.753 101.77 208.462 101.77 209 102.401L209.576 103.102C210.117 103.733 209.945 104.465 209.312 105.007L202.059 111.213C201.426 111.753 201.426 112.638 202.059 113.178L209.885 119.821C210.521 120.361 210.665 121.15 210.127 121.784L209.558 122.456C209.017 123.087 208.292 123.02 207.664 122.481L199.384 115.455C198.751 114.915 197.714 114.915 197.078 115.455L188.884 122.435C188.253 122.978 187.524 123.123 186.982 122.487L186.324 121.737" fill="#F033A3"/>
</svg>
