<svg width="167" height="25" viewBox="0 0 167 25" fill="none" xmlns="http://www.w3.org/2000/svg">
  <path d="M100.556 6.35004L100.031 6.07471H95.7588L95.3775 6.20637L95.1585 6.48187L91.663 16.4222L91.5218 16.5235L91.3877 16.4222L87.8898 6.48187L87.6757 6.20637L87.2943 6.07471H83.0243L82.4923 6.35004L82.4053 6.93837L87.9252 22.5212C88.2358 23.3709 88.9725 24.0229 89.8788 24.2065L90.4438 24.2654H92.6047L93.1742 24.2065C94.0758 24.0229 94.8125 23.3709 95.128 22.5212L100.648 6.93854L100.556 6.35004ZM15.2663 7.88621H10.5043L9.84766 8.53821V23.6054L10.4997 24.2715H15.271L15.9183 23.6054V8.53821L15.2663 7.88621Z" fill="#00AFEF"/>
  <path d="M22.3218 0.652L21.6815 0H10.0017C4.95967 0.0916667 0.798 3.79667 0 8.6175L0.141327 9.14717L0.649668 9.392H5.59049L5.9505 9.2695L6.15067 8.97533C6.70867 7.28533 8.281 6.07533 10.1547 6.07533H21.6557L22.3265 5.41383L22.3218 0.652ZM109.667 5.80033C104.493 5.80033 100.291 10.002 100.291 15.1617C100.291 20.3402 104.484 24.53 109.646 24.53C113.334 24.53 116.514 22.3952 118.044 19.3117V18.7113L117.47 18.3653H113.478L112.993 18.5583C112.774 18.782 111.533 19.9518 109.65 19.933C108.709 19.9213 107.881 19.6577 107.179 19.2503C106.496 18.8243 105.948 18.2642 105.562 17.6215L105.475 17.4592L105.451 17.3485L105.508 17.2308L105.604 17.2048H118.23L118.649 17.0637L118.892 16.6658C118.892 16.6658 119.005 16.1268 119.005 15.1617C119.005 10.002 114.838 5.80033 109.665 5.80033M113.857 13.0032L113.8 13.1092L113.69 13.1562H105.604L105.498 13.1257L105.437 13.0032L105.461 12.902C106.27 11.4167 107.847 10.4093 109.653 10.4093C110.511 10.4079 111.355 10.6389 112.093 11.0777C112.831 11.5166 113.436 12.1469 113.845 12.902L113.857 13.0032ZM157.46 5.80033C152.291 5.80033 148.094 10.002 148.094 15.1617C148.094 20.3402 152.276 24.53 157.446 24.53C161.127 24.53 164.312 22.3952 165.849 19.3117V18.7113L165.279 18.3653H161.278L160.804 18.5583C160.586 18.782 159.343 19.9518 157.457 19.933C156.516 19.9213 155.68 19.6577 154.988 19.2503C154.308 18.8243 153.752 18.2642 153.367 17.6215L153.279 17.4592L153.256 17.3485L153.315 17.2308L153.423 17.2048H166.04L166.452 17.0637L166.694 16.6658C166.694 16.6658 166.817 16.1268 166.817 15.1617C166.817 10.002 162.636 5.80033 157.467 5.80033M161.664 13.0032L161.612 13.1092L161.497 13.1562H153.406L153.31 13.1257L153.239 13.0032L153.263 12.902C154.073 11.4167 155.638 10.4093 157.455 10.4093C159.265 10.4093 160.838 11.4167 161.645 12.902L161.664 13.0032ZM44.5118 5.80033C39.3427 5.80033 35.1575 10.002 35.1575 15.1617C35.1575 20.3402 39.3427 24.53 44.5118 24.53C49.6857 24.53 53.8825 20.3402 53.8825 15.1617C53.8825 10.002 49.6857 5.80033 44.5118 5.80033ZM44.5118 18.9162C42.4522 18.9162 40.7715 17.2355 40.7715 15.1617C40.7715 13.095 42.4522 11.4333 44.5118 11.4333C46.5878 11.4333 48.2615 13.095 48.2615 15.1617C48.2615 17.2355 46.5878 18.9162 44.5118 18.9162ZM33.2747 15.1608C33.2747 13.1623 33.8043 11.284 34.7198 9.655C33.0203 7.327 30.2687 5.79967 27.1593 5.79967C21.9855 5.79967 17.7955 10.0013 17.7955 15.161C17.7955 20.3393 21.9855 24.5317 27.1593 24.5317C30.2687 24.5317 33.0203 23.0158 34.7198 20.676C33.7717 18.9926 33.274 17.0929 33.2747 15.1608ZM27.1593 18.9153C25.0832 18.9153 23.4048 17.237 23.4048 15.161C23.4048 13.0943 25.0832 11.4323 27.1593 11.4323C29.2188 11.4323 30.9043 13.0942 30.9043 15.161C30.9043 17.237 29.2188 18.9153 27.1593 18.9153ZM73.7215 14.9367C73.6555 10.0218 69.6682 6.07433 64.7438 6.07433C62.3475 6.07433 60.1843 7.00183 58.572 8.51767C58.313 8.06817 57.814 7.376 56.9195 6.80883L55.872 6.31917L54.914 6.105L54.4103 6.20617L54.1302 6.70517V11.1023L54.2337 11.4672L54.5798 11.7332L55.3518 12.2603L55.7543 13.3503V23.606L56.411 24.2652H60.6268L61.2695 23.606V14.8308C61.2695 12.9125 62.8253 11.3612 64.732 11.3612C66.6457 11.3612 68.2017 12.9123 68.2017 14.8308V23.606L68.863 24.2652H73.0858L73.7215 23.606V14.9367ZM80.4615 6.07467H76.2245L75.5843 6.72683V16.992L76.2505 17.6417H80.4733L81.1088 16.992V6.72683L80.4615 6.07467ZM78.351 18.6707C76.7315 18.6707 75.4252 19.984 75.4252 21.5965C75.4252 23.2183 76.7315 24.52 78.351 24.52C79.9635 24.52 81.2768 23.2183 81.2768 21.5967C81.2768 19.9842 79.9635 18.6707 78.351 18.6707ZM138.001 12.6375C137.295 12.4538 136.938 12.0372 136.872 11.5688C136.806 11.091 137.01 10.5518 137.695 10.2977C138.392 10.0528 138.983 10.001 139.39 10.001C139.588 10.001 140.122 10.001 140.795 10.206C141.466 10.4083 141.669 10.6227 141.751 10.745L141.918 11.324V11.6393L142.584 12.3008H146.158L146.812 11.6393V11.1922C146.812 10.9073 146.812 10.074 146.334 8.98417C145.852 7.8755 144.971 7.13417 144.59 6.84917C143.644 6.188 141.69 5.31233 139.329 5.3335C138.755 5.343 137.326 5.4135 135.829 6.00433C135.139 6.268 134.461 6.55283 133.729 7.21433C132.993 7.86633 132.599 8.60767 132.458 8.90433C132.136 9.59633 131.959 10.3685 131.959 11.1923C131.959 12.1787 132.147 13.0353 132.797 14.0828C133.068 14.5207 134.005 15.893 136.121 16.4132C138.303 16.9405 140.927 17.5713 141.233 17.6325C141.542 17.7055 142.224 18.1408 142.128 18.9153C142.022 19.6992 141.257 19.9535 140.953 20.0758C140.643 20.1982 140.002 20.3442 139.386 20.3442C138.759 20.33 138.322 20.2688 137.691 20.0335C137.051 19.8005 136.613 19.3532 136.613 18.8023V18.294L135.951 17.642H132.376L131.724 18.2843V18.9152C131.724 20.869 132.748 22.5778 134.268 23.5547C134.268 23.5642 135.372 24.2513 136.577 24.5928C137.778 24.927 138.67 25 139.39 25C141.257 25 143.008 24.4798 144.503 23.5547C146 22.6297 147.036 20.8572 147.036 18.9152C147.036 18.9152 147.097 16.6978 145.567 15.1608C144.574 14.1745 143.314 13.7862 142.347 13.5837C141.817 13.4825 138.715 12.7998 137.997 12.6375M130.691 6.70567L130.035 6.07483L127.436 6.06533C123.818 6.07483 120.883 9.00533 120.883 12.6162V23.6042L121.544 24.2655H125.751L126.403 23.6042V13.228C126.403 12.2207 127.191 11.4155 128.184 11.3543H130.034L130.691 10.7047L130.691 6.70567Z" fill="#00AFEF"/>
</svg>
