<svg width="94" height="15" viewBox="0 0 94 15" fill="none" xmlns="http://www.w3.org/2000/svg">
  <path d="M56.3113 4.05604L56.0173 3.90186H53.6249L53.4114 3.97559L53.2887 4.12987L51.3312 9.69646L51.2522 9.7532L51.1771 9.69646L49.2183 4.12987L49.0983 3.97559L48.8848 3.90186H46.4936L46.1957 4.05604L46.1469 4.38551L49.2381 13.1119C49.412 13.5877 49.8246 13.9528 50.3321 14.0557L50.6485 14.0886H51.8586L52.1775 14.0557C52.6824 13.9528 53.095 13.5877 53.2716 13.1119L56.3627 4.3856L56.3113 4.05604ZM8.5491 4.9163H5.88238L5.51465 5.28142V13.719L5.87977 14.0921H8.55172L8.91422 13.719V5.28142L8.5491 4.9163Z" fill="white"/>
  <path d="M12.5002 0.86512L12.1416 0.5H5.60093C2.77741 0.551333 0.44688 2.62613 0 5.3258L0.0791431 5.62241L0.363814 5.75952H3.13068L3.33228 5.69092L3.44437 5.52619C3.75685 4.57979 4.63736 3.90219 5.68661 3.90219H12.1272L12.5028 3.53175L12.5002 0.86512ZM61.4135 3.74819C58.5162 3.74819 56.1632 6.10112 56.1632 8.99053C56.1632 11.8905 58.5109 14.2368 61.4017 14.2368C63.4671 14.2368 65.248 13.0413 66.1048 11.3145V10.9783L65.7832 10.7846H63.5476L63.276 10.8927C63.1534 11.0179 62.4588 11.673 61.4043 11.6625C60.8769 11.6559 60.4131 11.5083 60.0201 11.2802C59.6379 11.0416 59.3308 10.7279 59.1146 10.368L59.0658 10.2771L59.0527 10.2152L59.0843 10.1493L59.1384 10.1347H66.209L66.4436 10.0557L66.5794 9.83287C66.5794 9.83287 66.6427 9.53103 66.6427 8.99053C66.6427 6.10112 64.3095 3.74819 61.4122 3.74819M63.7598 7.78177L63.7282 7.84113L63.6662 7.86745H59.1383L59.0791 7.85037L59.0447 7.78177L59.0579 7.72512C59.5114 6.89333 60.3945 6.32923 61.4056 6.32923C61.8864 6.32843 62.3585 6.45777 62.7718 6.70352C63.1851 6.94927 63.5242 7.30228 63.7532 7.72512L63.7598 7.78177ZM88.1774 3.74819C85.2828 3.74819 82.9325 6.10112 82.9325 8.99053C82.9325 11.8905 85.2748 14.2368 88.1696 14.2368C90.2311 14.2368 92.0146 13.0413 92.8754 11.3145V10.9783L92.5564 10.7846H90.3155L90.0505 10.8927C89.928 11.0179 89.232 11.673 88.1761 11.6625C87.6488 11.6559 87.1809 11.5083 86.7934 11.2802C86.4124 11.0416 86.1013 10.7279 85.8852 10.368L85.8363 10.2771L85.8233 10.2152L85.8562 10.1493L85.9169 10.1347H92.9822L93.2128 10.0557L93.3486 9.83287C93.3486 9.83287 93.4172 9.53103 93.4172 8.99053C93.4172 6.10112 91.0762 3.74819 88.1814 3.74819M90.5317 7.78177L90.5028 7.84113L90.4381 7.86745H85.9076L85.8535 7.85037L85.814 7.78177L85.8271 7.72512C86.2806 6.89333 87.1571 6.32923 88.1748 6.32923C89.1884 6.32923 90.069 6.89333 90.5212 7.72512L90.5317 7.78177ZM24.9266 3.74819C22.0319 3.74819 19.6882 6.10112 19.6882 8.99053C19.6882 11.8905 22.0319 14.2368 24.9266 14.2368C27.824 14.2368 30.1742 11.8905 30.1742 8.99053C30.1742 6.10112 27.824 3.74819 24.9266 3.74819ZM24.9266 11.0931C23.7732 11.0931 22.832 10.1519 22.832 8.99053C22.832 7.8332 23.7732 6.90267 24.9266 6.90267C26.0892 6.90267 27.0264 7.8332 27.0264 8.99053C27.0264 10.1519 26.0892 11.0931 24.9266 11.0931ZM18.6338 8.99007C18.6338 7.87091 18.9304 6.81904 19.4431 5.9068C18.4914 4.60312 16.9505 3.74781 15.2092 3.74781C12.3119 3.74781 9.96548 6.10075 9.96548 8.99016C9.96548 11.89 12.3119 14.2377 15.2092 14.2377C16.9505 14.2377 18.4914 13.3889 19.4431 12.0786C18.9122 11.1358 18.6334 10.072 18.6338 8.99007ZM15.2092 11.0926C14.0466 11.0926 13.1067 10.1527 13.1067 8.99016C13.1067 7.83283 14.0466 6.90211 15.2092 6.90211C16.3625 6.90211 17.3064 7.83273 17.3064 8.99016C17.3064 10.1527 16.3625 11.0926 15.2092 11.0926ZM41.284 8.86453C41.2471 6.11223 39.0142 3.90163 36.2565 3.90163C34.9146 3.90163 33.7032 4.42103 32.8003 5.26989C32.6553 5.01817 32.3758 4.63056 31.8749 4.31295L31.2883 4.03873L30.7518 3.9188L30.4698 3.97545L30.3129 4.25489V6.71731L30.3709 6.92161L30.5647 7.07057L30.997 7.36579L31.2224 7.97619V13.7194L31.5902 14.0885H33.951L34.3109 13.7194V8.80527C34.3109 7.731 35.1822 6.86225 36.2499 6.86225C37.3216 6.86225 38.1929 7.73091 38.1929 8.80527V13.7194L38.5633 14.0885H40.9281L41.284 13.7194V8.86453ZM45.0584 3.90181H42.6857L42.3272 4.26703V10.0155L42.7003 10.3793H45.0651L45.4209 10.0155V4.26703L45.0584 3.90181ZM43.8766 10.9556C42.9696 10.9556 42.2381 11.691 42.2381 12.594C42.2381 13.5023 42.9696 14.2312 43.8766 14.2312C44.7796 14.2312 45.515 13.5023 45.515 12.5941C45.515 11.6911 44.7796 10.9556 43.8766 10.9556ZM77.2808 7.577C76.8854 7.47415 76.685 7.24081 76.648 6.97855C76.6112 6.71096 76.7259 6.40903 77.1095 6.26669C77.4996 6.12959 77.8305 6.10056 78.0585 6.10056C78.1693 6.10056 78.4685 6.10056 78.8455 6.21536C79.2211 6.32867 79.3345 6.44869 79.3806 6.5172L79.4743 6.84144V7.01803L79.8473 7.38847H81.8483L82.2147 7.01803V6.76761C82.2147 6.60811 82.2147 6.14144 81.9471 5.53113C81.6769 4.91028 81.1839 4.49513 80.9704 4.33553C80.4405 3.96528 79.3464 3.47491 78.0242 3.48676C77.7026 3.49208 76.9025 3.53156 76.0641 3.86243C75.6779 4.01008 75.2983 4.16959 74.8883 4.54003C74.4758 4.90515 74.2555 5.32029 74.1765 5.48643C73.996 5.87395 73.897 6.30636 73.897 6.76771C73.897 7.32005 74.0025 7.79979 74.3663 8.38639C74.5179 8.63157 75.0425 9.40008 76.2276 9.69137C77.4495 9.98668 78.9193 10.3399 79.0907 10.3742C79.2633 10.4151 79.6456 10.6589 79.5916 11.0926C79.5322 11.5315 79.1038 11.674 78.9338 11.7425C78.7598 11.811 78.4012 11.8927 78.0559 11.8927C77.7052 11.8848 77.46 11.8505 77.1068 11.7188C76.7483 11.5883 76.5031 11.3378 76.5031 11.0293V10.7446L76.1327 10.3795H74.1304L73.7653 10.7392V11.0925C73.7653 12.1866 74.3387 13.1436 75.1902 13.6906C75.1902 13.6959 75.8084 14.0807 76.4833 14.272C77.1556 14.4591 77.6552 14.5 78.0585 14.5C79.1038 14.5 80.0846 14.2087 80.9216 13.6906C81.7599 13.1726 82.34 12.18 82.34 11.0925C82.34 11.0925 82.3742 9.85079 81.5174 8.99007C80.9612 8.43772 80.2559 8.22025 79.7142 8.10685C79.4175 8.0502 77.6802 7.66791 77.2782 7.577M73.1871 4.25517L72.8194 3.90191L71.3641 3.89659C69.3381 3.90191 67.6943 5.54299 67.6943 7.56505V13.7183L68.0647 14.0887H70.4203L70.7854 13.7183V7.90768C70.7854 7.34357 71.227 6.89268 71.7832 6.85843H72.8193L73.1871 6.49461L73.1871 4.25517Z" fill="white"/>
</svg>
