<svg width="226" height="226" viewBox="0 0 226 226" fill="none" xmlns="http://www.w3.org/2000/svg">
  <path d="M225.667 0.5H0.666992V225.5H225.667V0.5Z" fill="#00AFEF"/>
  <path d="M129.1 107.286L128.612 107.03H124.643L124.288 107.152L124.085 107.408L120.837 116.644L120.706 116.738L120.581 116.644L117.331 107.408L117.132 107.152L116.778 107.03H112.81L112.316 107.286L112.235 107.832L117.364 122.311C117.652 123.101 118.337 123.707 119.179 123.877L119.704 123.932H121.712L122.241 123.877C123.079 123.707 123.763 123.101 124.056 122.311L129.185 107.832L129.1 107.286ZM49.8517 108.713H45.427L44.8169 109.319V123.319L45.4227 123.938H49.8561L50.4575 123.319V109.319L49.8517 108.713Z" fill="white"/>
  <path d="M56.4077 101.991L55.8127 101.385H44.9602C40.2753 101.471 36.4085 104.913 35.667 109.392L35.7983 109.885L36.2706 110.112H40.8615L41.196 109.998L41.382 109.725C41.9005 108.155 43.3614 107.03 45.1024 107.03H55.7887L56.412 106.416L56.4077 101.991ZM137.566 106.775C132.758 106.775 128.854 110.679 128.854 115.473C128.854 120.285 132.75 124.178 137.546 124.178C140.973 124.178 143.928 122.194 145.35 119.329V118.771L144.816 118.45H141.107L140.656 118.629C140.453 118.837 139.3 119.924 137.55 119.906C136.675 119.896 135.906 119.651 135.254 119.272C134.62 118.876 134.11 118.356 133.751 117.759L133.67 117.608L133.649 117.505L133.701 117.396L133.791 117.372H145.523L145.912 117.24L146.137 116.871C146.137 116.871 146.242 116.37 146.242 115.473C146.242 110.679 142.371 106.775 137.564 106.775M141.459 113.467L141.406 113.566L141.303 113.61H133.791L133.692 113.581L133.635 113.467L133.657 113.373C134.41 111.993 135.875 111.057 137.553 111.057C138.35 111.056 139.134 111.271 139.82 111.678C140.505 112.086 141.068 112.672 141.448 113.373L141.459 113.467ZM181.973 106.775C177.17 106.775 173.27 110.679 173.27 115.473C173.27 120.285 177.157 124.178 181.96 124.178C185.381 124.178 188.34 122.194 189.768 119.329V118.771L189.239 118.45H185.521L185.081 118.629C184.878 118.837 183.723 119.924 181.971 119.906C181.096 119.896 180.32 119.651 179.677 119.272C179.044 118.876 178.528 118.356 178.17 117.759L178.089 117.608L178.067 117.505L178.122 117.396L178.222 117.372H189.945L190.328 117.24L190.553 116.871C190.553 116.871 190.667 116.37 190.667 115.473C190.667 110.679 186.783 106.775 181.98 106.775M185.879 113.467L185.831 113.566L185.724 113.61H178.207L178.117 113.581L178.052 113.467L178.073 113.373C178.826 111.993 180.28 111.057 181.969 111.057C183.651 111.057 185.112 111.993 185.862 113.373L185.879 113.467ZM77.0258 106.775C72.2228 106.775 68.3341 110.679 68.3341 115.473C68.3341 120.285 72.2228 124.178 77.0258 124.178C81.8332 124.178 85.7327 120.285 85.7327 115.473C85.7327 110.679 81.8332 106.775 77.0258 106.775ZM77.0258 118.962C75.1121 118.962 73.5505 117.4 73.5505 115.473C73.5505 113.553 75.1121 112.009 77.0258 112.009C78.9548 112.009 80.5099 113.553 80.5099 115.473C80.5099 117.4 78.9548 118.962 77.0258 118.962ZM66.5847 115.472C66.5847 113.615 67.0768 111.87 67.9275 110.356C66.3483 108.193 63.7916 106.774 60.9025 106.774C56.0952 106.774 52.202 110.678 52.202 115.472C52.202 120.284 56.0952 124.179 60.9025 124.179C63.7916 124.179 66.3483 122.771 67.9275 120.597C67.0465 119.033 66.584 117.267 66.5847 115.472ZM60.9025 118.961C58.9734 118.961 57.4139 117.401 57.4139 115.472C57.4139 113.552 58.9734 112.008 60.9025 112.008C62.8161 112.008 64.3822 113.552 64.3822 115.472C64.3822 117.401 62.8161 118.961 60.9025 118.961ZM104.166 115.264C104.105 110.697 100.4 107.029 95.8247 107.029C93.5981 107.029 91.5882 107.891 90.0901 109.3C89.8494 108.882 89.3858 108.239 88.5546 107.712L87.5813 107.257L86.6912 107.058L86.2232 107.152L85.9629 107.616V111.701L86.059 112.04L86.3807 112.287L87.098 112.777L87.472 113.79V123.319L88.0821 123.932H91.9993L92.5965 123.319V115.166C92.5965 113.383 94.0421 111.942 95.8137 111.942C97.5918 111.942 99.0376 113.383 99.0376 115.166V123.319L99.6521 123.932H103.576L104.166 123.319V115.264ZM110.429 107.03H106.492L105.897 107.636V117.174L106.516 117.777H110.44L111.031 117.174V107.636L110.429 107.03ZM108.468 118.734C106.963 118.734 105.749 119.954 105.749 121.452C105.749 122.959 106.963 124.169 108.468 124.169C109.966 124.169 111.187 122.959 111.187 121.452C111.187 119.954 109.966 118.734 108.468 118.734ZM163.893 113.128C163.237 112.957 162.905 112.57 162.843 112.135C162.782 111.691 162.972 111.19 163.609 110.954C164.256 110.726 164.805 110.678 165.183 110.678C165.367 110.678 165.864 110.678 166.489 110.868C167.113 111.056 167.301 111.256 167.377 111.369L167.533 111.907V112.2L168.152 112.815H171.472L172.08 112.2V111.785C172.08 111.52 172.08 110.746 171.636 109.733C171.187 108.703 170.369 108.014 170.015 107.749C169.136 107.135 167.32 106.321 165.127 106.341C164.593 106.35 163.265 106.415 161.874 106.964C161.234 107.209 160.604 107.474 159.923 108.089C159.239 108.695 158.874 109.383 158.742 109.659C158.443 110.302 158.279 111.019 158.279 111.785C158.279 112.701 158.454 113.497 159.057 114.471C159.309 114.877 160.179 116.153 162.146 116.636C164.173 117.126 166.612 117.712 166.896 117.769C167.183 117.837 167.817 118.241 167.727 118.961C167.629 119.689 166.918 119.925 166.636 120.039C166.347 120.153 165.752 120.288 165.179 120.288C164.597 120.275 164.191 120.218 163.604 120C163.01 119.783 162.603 119.368 162.603 118.856V118.384L161.988 117.778H158.666L158.06 118.375V118.961C158.06 120.776 159.012 122.364 160.424 123.272C160.424 123.28 161.45 123.919 162.57 124.236C163.685 124.547 164.514 124.615 165.183 124.615C166.918 124.615 168.545 124.131 169.934 123.272C171.325 122.412 172.287 120.765 172.287 118.961C172.287 118.961 172.344 116.9 170.923 115.472C170 114.556 168.83 114.195 167.931 114.007C167.438 113.913 164.556 113.279 163.889 113.128M157.101 107.616L156.491 107.03L154.076 107.021C150.714 107.03 147.987 109.753 147.987 113.108V123.318L148.602 123.932H152.51L153.116 123.318V113.676C153.116 112.74 153.848 111.992 154.771 111.935H156.491L157.101 111.332L157.101 107.616Z" fill="white"/>
</svg>
