<svg width="225" height="225" viewBox="0 0 225 225" fill="none" xmlns="http://www.w3.org/2000/svg">
  <path d="M225 0H0V225H225V0Z" fill="white"/>
  <path d="M185.436 44.2614C172.278 44.2703 152.672 80.892 152.614 80.9502C152.108 81.797 150.889 83.1007 149.76 83.1007C148.631 83.1007 141.839 79.2253 137.887 77.366C135.119 76.1205 131.512 74.5255 128.349 73.9028C124.792 73.2262 118.595 71.8105 117.466 71.8105C116.337 71.8105 110.231 71.4162 102.556 71.8105C101.651 71.8105 100.231 71.6582 99.72 70.5829C98.9315 68.9476 98.2729 65.9413 98.2729 64.8123C98.2729 63.6833 97.8249 59.8437 97.8249 52.6171C97.8249 49.9065 98.1699 47.178 98.7209 44.3196C100.379 35.6682 105.397 37.0526 105.952 34.1001C106.288 32.3259 103.412 30.7131 101.888 30.7131C94.6618 30.7131 89.6932 42.4558 89.6932 46.9719C89.6932 48.1009 89.2407 53.2936 89.2407 54.4226C89.2407 55.5516 91.4988 70.4575 91.4988 71.5865C91.4988 72.7155 91.3913 72.6931 91.445 73.0022C83.3895 74.7047 68.188 83.5532 68.0177 83.5532C66.8887 83.5532 66.0733 81.9493 64.1468 79.409C64.1468 79.409 47.9865 56.2909 44.9757 50.9683C43.2464 49.0239 48.2419 48.0248 49.3709 47.514C51.1764 46.6673 52.5608 45.5785 53.9856 44.6019V42.1108C52.9909 41.5777 52.4354 41.1028 51.3064 41.1028C48.9363 41.1028 35.5 43.6969 35.5 49.6825C35.5 50.8115 36.4498 53.204 37.4668 54.557C37.8029 55.0095 41.7141 60.7039 43.2553 62.4154C45.1818 64.5525 57.7579 82.4869 60.3386 88.5219C60.7821 89.5568 54.12 95.9457 51.0151 99.8972C49.1558 102.267 47.7177 105.865 46.6469 108.065C43.9901 113.486 43.0224 117.688 41.8261 124.4C41.6155 138.858 42.3638 139.673 45.1102 150.694C46.1137 154.713 50.6881 162.339 50.7508 162.495C51.5752 164.7 55.2176 168.889 55.7015 168.817C55.6208 168.727 60.4371 174.337 66.9156 178.938C69.4424 180.909 73.0759 182.262 76.6736 184.229C79.4782 185.372 83.1789 188.499 83.4836 188.575C86.1583 189.247 89.1063 188.933 91.6466 189.946C94.057 191.743 99.6618 193.355 105.746 193.741C110.329 194.028 117.991 194.48 120.123 194.198C136.485 192.016 164.424 177.675 170.351 160.175C170.974 158.199 172.206 156.546 173.156 153.849C173.532 152.782 175.481 144.001 175.647 139.937C175.876 134.516 175.925 133.795 175.925 132.666C175.925 108.732 158.282 92.2853 157.027 89.7763C156.87 88.6563 166.23 72.6035 167.551 69.9601C170.629 63.7998 180.504 53.4638 182.197 51.9988C184.455 50.023 188.398 49.2255 189.5 47.1646C187.511 45.1753 187.748 44.2614 185.436 44.2614ZM163.116 113.038C165.15 117.5 166.857 122.003 167.932 126.631C168.609 129.682 168.725 135.26 168.725 136.393C168.725 143.392 165.705 154.176 162.036 160.497C153.286 175.511 130.387 186.998 113.905 186.998C105.123 186.998 102.623 185.891 96.9781 184.467C96.1896 178.477 89.7918 178.1 86.2927 176.823C84.2228 174.736 83.4836 171.631 80.8089 168.799C79.5096 166.711 80.2399 162.424 77.6637 160.318C71.6467 159.131 73.1521 168.499 73.3761 172.934H71.9111C67.171 172.97 56.8798 158.311 55.2311 155.072C51.0331 147.446 49.0483 136.617 49.0483 128.714C49.0483 127.585 49.3709 122.908 51.1495 117.245C52.6773 113.499 56.1719 106.438 56.7275 105.457C57.6056 103.889 59.2095 101.842 59.8861 100.941C61.2167 99.1849 63.0939 98.0962 64.6127 96.1966C68.6136 97.8184 66.9156 103.943 73.2104 104.328C76.1987 104.507 78.8555 102.523 78.8555 98.6831C78.8555 95.8023 76.5795 94.3238 73.0177 92.0075C73.0177 92.0075 71.6557 90.5873 74.3887 88.6831C77.6637 86.3937 87.4352 81.7477 91.9513 81.7477C93.0803 81.7477 94.1466 82.7154 94.7425 83.3248C95.1054 84.624 96.0149 86.0353 96.0149 87.1643C96.0149 88.2934 96.5839 90.6903 97.8831 92.2136C99.2362 93.8534 101.66 94.391 102.789 94.391C106.405 94.391 108.663 90.8337 108.663 88.7459C108.663 85.3588 106.212 85.4798 103.246 80.5918C103.398 79.4269 104.339 79.1133 105.19 79.0461H114.702C115.831 79.0371 120.697 80.1348 123.833 80.5067C128.828 81.107 145.553 86.9403 145.692 92.1329C145.768 94.8883 143.541 95.1078 142.287 100.126C140.876 104.987 135.701 108.437 135.759 112.908C135.729 113.687 135.86 114.463 136.144 115.189C136.429 115.915 136.86 116.574 137.411 117.125C137.962 117.676 138.621 118.108 139.347 118.392C140.073 118.676 140.85 118.807 141.628 118.777C148.559 118.316 147.619 112.514 147.95 109.064C148.869 107.491 150.835 101.73 153.577 98.7145C156.87 101.694 161.104 107.182 163.116 113.038Z" fill="#231F20"/>
  <path d="M106.535 111.102C111.104 111.102 116.611 112.576 121.239 117.151C122.762 118.616 123.851 121.564 125.428 123.374C129.043 127.549 130.791 132.272 130.791 136.617C130.791 148.696 119.666 157.666 106.682 160.771C106.288 160.829 102.171 160.78 101.212 160.78C99.3482 160.78 96.9289 159.453 94.7828 158.324C86.0911 153.754 81.9155 140.502 81.9155 133.84C81.9155 129.83 82.61 124.781 85.3743 121.994C93.9853 113.298 98.5731 111.102 106.535 111.102Z" fill="#EC1B24"/>
</svg>
