<svg width="77" height="26" viewBox="0 0 77 26" fill="none" xmlns="http://www.w3.org/2000/svg">
  <path d="M50.0795 14.3953C50.0795 14.3953 50.2808 15.5746 50.3479 16.481C50.4357 17.6668 49.8512 19.1144 48.2657 19.7062C43.9213 21.3274 36.7921 23.6553 31.0127 25.3752V1.72217H36.0056V18.7654C42.7421 16.9395 50.0795 14.3953 50.0795 14.3953ZM23.266 3.451V1.72217H4.73389V6.06026H20.6569C22.0978 6.06026 23.266 4.89209 23.266 3.451ZM16.4166 14.4032H24.0952C25.5361 14.4032 26.7042 13.2352 26.7042 11.7941V10.0655H17.4977L16.4166 14.4032Z" fill="#000F64"/>
  <path d="M0 14.4032H9.63633L6.90074 25.3754C10.5222 25.3754 12.8474 24.2571 13.2929 22.4649L16.3859 10.0656H4.42173C1.64127 10.0656 0.698111 11.6036 0 14.4032Z" fill="#E7465A"/>
  <path d="M71.3523 8.51724V10.7292L66.7765 10.7279V8.51702L71.3523 8.51724ZM71.3523 15.5042H66.7765V13.2999H71.3523V15.5042ZM58.2798 13.2999H62.8558V15.5044H58.2798V13.2999ZM58.2798 8.51724H62.8558V10.727L58.2798 10.7261V8.51724ZM62.8562 1.72214H53.395V4.72587H62.876V5.95002H54.4179V18.0712H59.6959C59.4672 18.2237 56.5728 20.1274 53.3952 21.1135V24.7328C53.3952 24.7328 57.8989 23.8214 62.8564 20.1579V25.3751H66.7772V20.159C71.7343 23.8217 76.2371 24.7328 76.2371 24.7328V21.1135C73.0885 20.1364 70.2179 18.2581 69.9436 18.076L73.6801 18.0789C73.8816 18.0789 74.0811 18.0392 74.2672 17.9622C74.4533 17.8851 74.6225 17.7721 74.7649 17.6297C74.9074 17.4872 75.0204 17.3181 75.0976 17.132C75.1747 16.9459 75.2144 16.7464 75.2144 16.545V5.95023H66.7768V4.72609H75.2144C75.3487 4.72606 75.4817 4.69957 75.6058 4.64814C75.7299 4.59671 75.8426 4.52133 75.9376 4.42633C76.0325 4.33132 76.1078 4.21854 76.1592 4.09443C76.2105 3.97032 76.2369 3.83731 76.2369 3.70299V1.72214H66.777V0.375366H62.8562V1.72214Z" fill="#000F64"/>
</svg>
