<svg width="225" height="225" viewBox="0 0 225 225" fill="none" xmlns="http://www.w3.org/2000/svg">
  <path d="M225 0H0V225H225V0Z" fill="#000F64"/>
  <path d="M136.818 115.59C136.818 115.59 137.227 117.988 137.364 119.831C137.542 122.241 136.354 125.185 133.13 126.388C124.298 129.684 109.803 134.417 98.0525 137.914V89.8239H108.204V124.475C121.9 120.763 136.818 115.59 136.818 115.59ZM82.3023 93.3388V89.8239H44.624V98.6438H76.9978C79.9273 98.6438 82.3023 96.2688 82.3023 93.3388ZM68.3767 115.606H83.9883C86.9178 115.606 89.2928 113.232 89.2928 110.302V106.787H70.5746L68.3767 115.606Z" fill="white"/>
  <path d="M35 115.606H54.592L49.0302 137.914C56.3931 137.914 61.1206 135.641 62.0262 131.997L68.3148 106.787H43.99C38.3369 106.787 36.4194 109.914 35 115.606Z" fill="#E7465A"/>
  <path d="M180.069 103.639V108.136L170.766 108.134V103.639L180.069 103.639ZM180.069 117.845H170.766V113.363H180.069V117.845ZM153.491 113.363H162.795V117.845H153.491V113.363ZM153.491 103.639H162.795V108.132L153.491 108.13V103.639ZM162.796 89.8239H143.56V95.9309H162.836V98.4197H145.639V123.064H156.37C155.905 123.374 150.02 127.244 143.56 129.249V136.608C143.56 136.608 152.717 134.755 162.796 127.306V137.914H170.767V127.309C180.846 134.755 190.001 136.608 190.001 136.608V129.249C183.599 127.263 177.763 123.444 177.205 123.074L184.802 123.079C185.212 123.079 185.617 122.999 185.996 122.842C186.374 122.685 186.718 122.456 187.008 122.166C187.297 121.877 187.527 121.533 187.684 121.154C187.841 120.776 187.921 120.37 187.921 119.961V98.4202H170.766V95.9313H187.921C188.195 95.9313 188.465 95.8774 188.717 95.7728C188.969 95.6683 189.199 95.515 189.392 95.3219C189.585 95.1287 189.738 94.8994 189.842 94.6471C189.947 94.3947 190 94.1243 190 93.8512V89.8239H170.767V87.0857H162.796V89.8239Z" fill="white"/>
</svg>
