<svg width="153" height="51" viewBox="0 0 153 51" fill="none" xmlns="http://www.w3.org/2000/svg">
  <path d="M100.159 28.421C100.159 28.421 100.561 30.7795 100.695 32.5922C100.871 34.9639 99.702 37.8591 96.531 39.0427C87.8422 42.2852 73.5837 46.9409 62.0249 50.3807V3.07466H72.0106V37.1612C85.4836 33.5093 100.159 28.421 100.159 28.421ZM46.5314 6.53233V3.07466H9.46729V11.7508H41.3133C44.1951 11.7508 46.5314 9.41451 46.5314 6.53233ZM32.8328 28.4367H48.1899C51.0717 28.4367 53.408 26.1008 53.408 23.2186V19.7614H34.9948L32.8328 28.4367Z" fill="white"/>
  <path d="M0 28.4367H19.2727L13.8015 50.3811C21.0444 50.3811 25.6948 48.1445 26.5857 44.5601L32.7718 19.7614H8.84347C3.28254 19.7614 1.39622 22.8374 0 28.4367Z" fill="#E7465A"/>
  <path d="M142.704 16.6648V21.0888L133.553 21.0861V16.6644L142.704 16.6648ZM142.704 30.6388H133.553V26.2302H142.704V30.6388ZM116.559 26.2302H125.711V30.6393H116.559V26.2302ZM116.559 16.6648H125.711V21.0844L116.559 21.0827V16.6648ZM125.712 3.07466H106.79V9.08212H125.752V11.5304H108.836V35.7728H119.392C118.934 36.0778 113.145 39.8853 106.79 41.8574V49.096C106.79 49.096 115.798 47.2733 125.713 39.9462V50.3807H133.554V39.9484C143.468 47.2737 152.474 49.096 152.474 49.096V41.8574C146.177 39.9031 140.436 36.1466 139.887 35.7824L147.36 35.7881C147.763 35.7881 148.162 35.7088 148.534 35.5547C148.906 35.4006 149.245 35.1746 149.53 34.8897C149.815 34.6049 150.041 34.2667 150.195 33.8944C150.349 33.5222 150.429 33.1232 150.429 32.7203V11.5308H133.553V9.08255H150.429C150.697 9.08249 150.963 9.02952 151.211 8.92665C151.46 8.82378 151.685 8.67304 151.875 8.48303C152.065 8.29302 152.215 8.06746 152.318 7.81923C152.421 7.57101 152.474 7.30499 152.474 7.03636V3.07466H133.554V0.381104H125.712V3.07466Z" fill="white"/>
</svg>
