<svg width="43" height="15" viewBox="0 0 43 15" fill="none" xmlns="http://www.w3.org/2000/svg">
  <path d="M28.0444 8.23223C28.0444 8.23223 28.1571 8.89262 28.1947 9.40017C28.2439 10.0642 27.9166 10.8749 27.0287 11.2063C24.5959 12.1142 20.6035 13.4178 17.367 14.3809V1.13525H20.163V10.6795C23.9355 9.65694 28.0444 8.23223 28.0444 8.23223ZM13.0288 2.1034V1.13525H2.65088V3.56458H11.5678C12.3747 3.56458 13.0288 2.91041 13.0288 2.1034ZM9.19321 8.23662H13.4932C14.3001 8.23662 14.9543 7.58257 14.9543 6.77556V5.80753H9.7986L9.19321 8.23662Z" fill="white"/>
  <path d="M0 8.2367H5.39634L3.86441 14.3811C5.89243 14.3811 7.19456 13.7549 7.444 12.7513L9.1761 5.80762H2.47617C0.91911 5.80762 0.390942 6.66891 0 8.2367Z" fill="white"/>
  <path d="M39.9574 4.94055V6.17925L37.395 6.17851V4.94043L39.9574 4.94055ZM39.9574 8.85327H37.395V7.61884H39.9574V8.85327ZM32.6369 7.61884H35.1994V8.85339H32.6369V7.61884ZM32.6369 4.94055H35.1994V6.17803L32.6369 6.17754V4.94055ZM35.1996 1.1353H29.9014V2.81739H35.2107V3.50291H30.4742V10.2908H33.4298C33.3018 10.3762 31.6809 11.4423 29.9015 11.9945V14.0213C29.9015 14.0213 32.4235 13.5109 35.1998 11.4593V14.381H37.3954V11.46C40.1714 13.511 42.6929 14.0213 42.6929 14.0213V11.9945C40.9297 11.4473 39.3222 10.3954 39.1686 10.2935L41.261 10.2951C41.3738 10.2951 41.4855 10.2729 41.5898 10.2297C41.694 10.1865 41.7887 10.1233 41.8685 10.0435C41.9483 9.96376 42.0116 9.86906 42.0548 9.76483C42.098 9.66061 42.1202 9.5489 42.1202 9.43608V3.50303H37.3951V2.81751H42.1202C42.1954 2.81749 42.2699 2.80266 42.3394 2.77386C42.4089 2.74505 42.472 2.70285 42.5252 2.64964C42.5784 2.59644 42.6205 2.53328 42.6493 2.46378C42.678 2.39428 42.6928 2.31979 42.6928 2.24457V1.1353H37.3953V0.381104H35.1996V1.1353Z" fill="white"/>
</svg>
