<svg width="225" height="225" viewBox="0 0 225 225" fill="none" xmlns="http://www.w3.org/2000/svg">
  <path d="M225 0H0V225H225V0Z" fill="#0056A7"/>
  <path fill-rule="evenodd" clip-rule="evenodd" d="M183.791 102.984V103.749H184.151C185.276 103.749 185.771 104.244 185.726 105.279C185.681 105.774 185.546 106.538 185.231 107.348C185.231 107.348 182.621 114.682 181.766 116.977C181.316 115.717 177.807 105.998 177.807 105.998C177.672 105.549 177.582 105.189 177.582 104.919C177.582 104.694 177.537 103.749 179.067 103.749H179.427V102.984H172.093V103.749H172.453C173.038 103.749 173.443 103.974 173.713 104.199C174.163 104.604 174.478 105.234 174.747 105.954L175.107 107.033C175.062 107.213 172.003 115.762 171.553 116.977C171.103 115.717 167.549 105.954 167.549 105.954C167.414 105.549 167.324 105.234 167.324 105.009C167.324 104.469 167.459 103.929 168.673 103.794L168.988 103.749V102.984H161.565V103.749H161.925C162.554 103.749 163.004 103.974 163.229 104.109C163.499 104.334 163.724 104.649 163.949 105.009C164.174 105.414 164.444 105.998 164.759 106.808L169.978 121.206H149.012C149.776 120.756 150.496 120.216 151.171 119.541C153.106 117.607 154.051 115.222 154.051 112.387C154.051 109.643 153.106 107.258 151.171 105.369C149.282 103.479 146.942 102.534 144.197 102.534C141.363 102.534 138.978 103.479 137.089 105.369C135.199 107.258 134.209 109.598 134.209 112.432C134.209 115.222 135.154 117.652 137.089 119.586C137.763 120.261 138.483 120.801 139.248 121.251H118.597C118.866 120.531 123.366 107.663 123.366 107.663C123.816 106.358 124.176 105.684 124.536 105.099C125.03 104.289 125.57 103.839 126.335 103.794H126.65V102.984H120.486V103.749H120.846C121.971 103.749 122.466 104.244 122.421 105.279C122.376 105.774 122.241 106.538 121.926 107.348C121.926 107.348 119.316 114.682 118.462 116.977C118.012 115.717 114.502 105.998 114.502 105.998C114.367 105.549 114.277 105.189 114.277 104.919C114.277 104.694 114.232 103.749 115.762 103.749H116.122V102.984H108.788V103.749H109.148C109.733 103.749 110.138 103.974 110.408 104.199C110.858 104.604 111.173 105.234 111.443 105.954L111.803 107.033C111.758 107.213 108.698 115.762 108.248 116.977C107.798 115.717 104.244 105.954 104.244 105.954C104.109 105.549 104.019 105.234 104.019 105.009C104.019 104.469 104.154 103.929 105.369 103.794L105.684 103.749V102.984H98.2598V103.749H98.6197C99.2496 103.749 99.7446 103.974 99.9245 104.109C100.194 104.334 100.419 104.649 100.644 105.009C100.869 105.414 101.139 105.998 101.454 106.808L106.673 121.161H85.7068C86.4717 120.711 87.1916 120.171 87.8665 119.496C89.8012 117.562 90.746 115.177 90.746 112.342C90.746 109.598 89.8012 107.213 87.8665 105.324C86.0218 103.479 83.6372 102.534 80.8926 102.534C78.0581 102.534 75.6734 103.479 73.7837 105.369C71.894 107.258 70.9042 109.598 70.9042 112.432C70.9042 115.222 71.8491 117.652 73.7837 119.586C74.4586 120.261 75.1785 120.801 75.9434 121.251H55.3367C55.6067 120.531 60.1059 107.663 60.1059 107.663C60.5559 106.358 60.9158 105.684 61.2758 105.099C61.7707 104.289 62.3106 103.839 63.0755 103.794H63.3904V102.984H57.2264V103.749H57.5864C58.7112 103.749 59.2061 104.244 59.1611 105.279C59.1161 105.774 58.9811 106.538 58.6662 107.348C58.6662 107.348 56.0566 114.682 55.2017 116.977C54.7518 115.717 51.2424 105.998 51.2424 105.998C51.1074 105.549 51.0174 105.189 51.0174 104.919C51.0174 104.694 50.9274 103.749 52.5022 103.749H52.8621V102.984H45.5283V103.749H45.8882C46.4731 103.749 46.8781 103.974 47.148 104.199C47.598 104.604 47.9129 105.234 48.1829 105.954L48.5428 107.033C48.4978 107.213 45.4383 115.762 44.9884 116.977C44.5385 115.717 40.984 105.954 40.984 105.954C40.8491 105.549 40.7591 105.234 40.7591 105.009C40.7591 104.469 40.894 103.929 42.1089 103.794L42.4238 103.749V102.984H35V103.749H35.3599C35.9898 103.749 36.4848 103.974 36.6647 104.109C36.9347 104.334 37.1597 104.649 37.3846 105.009C37.6096 105.414 37.8795 105.998 38.1945 106.808L43.7736 122.241H44.6734C44.6734 122.241 48.8128 110.408 49.2627 109.148C49.7126 110.408 54.0769 122.466 54.0769 122.466H171.148C171.148 122.466 175.377 110.453 175.827 109.148C176.277 110.408 180.327 121.566 180.327 121.566L180.552 122.241H181.496L186.671 107.618C187.12 106.313 187.48 105.639 187.84 105.054C188.335 104.244 188.875 103.794 189.64 103.749H189.955V102.984H183.791ZM80.8026 121.206C78.8229 121.206 77.2932 120.441 76.0784 118.821C74.8636 117.202 74.2337 115.087 74.2337 112.432C74.2337 109.823 74.8636 107.708 76.0784 106.133C77.2932 104.559 78.9129 103.794 80.9376 103.794C82.8723 103.794 84.402 104.559 85.6168 106.178C86.8316 107.753 87.4615 109.913 87.4615 112.567C87.4615 115.042 86.8316 117.112 85.6168 118.776C84.357 120.396 82.7373 121.206 80.8026 121.206ZM108.338 121.206C109.373 118.282 112.208 110.228 112.567 109.148C112.972 110.273 116.212 119.226 116.932 121.206H108.338ZM144.062 121.206C142.083 121.206 140.553 120.441 139.338 118.821C138.123 117.202 137.538 115.087 137.538 112.432C137.538 109.823 138.168 107.708 139.383 106.133C140.598 104.604 142.218 103.794 144.242 103.794C146.177 103.794 147.707 104.559 148.922 106.178C150.136 107.753 150.766 109.913 150.766 112.567C150.766 115.042 150.136 117.112 148.922 118.776C147.662 120.396 146.042 121.206 144.062 121.206Z" fill="white"/>
</svg>
