<svg width="110" height="15" viewBox="0 0 110 15" fill="none" xmlns="http://www.w3.org/2000/svg">
  <path fill-rule="evenodd" clip-rule="evenodd" d="M104.76 0.697131V1.23438H105.013C105.803 1.23438 106.151 1.58201 106.119 2.30887C106.087 2.6565 105.993 3.19374 105.771 3.76259C105.771 3.76259 103.938 8.91383 103.338 10.5256C103.022 9.6407 100.557 2.81451 100.557 2.81451C100.462 2.49849 100.399 2.24566 100.399 2.05605C100.399 1.89803 100.367 1.23438 101.442 1.23438H101.695V0.697131H96.5435V1.23438H96.7963C97.2071 1.23438 97.4915 1.39239 97.6812 1.5504C97.9972 1.83483 98.2184 2.27727 98.408 2.78291L98.6608 3.54137C98.6292 3.66779 96.4803 9.6723 96.1642 10.5256C95.8482 9.6407 93.3516 2.78291 93.3516 2.78291C93.2568 2.49849 93.1936 2.27727 93.1936 2.11925C93.1936 1.74002 93.2884 1.36079 94.1417 1.26598L94.3629 1.23438V0.697131H89.1484V1.23438H89.4012C89.8437 1.23438 90.1597 1.39239 90.3177 1.4872C90.5073 1.64521 90.6654 1.86643 90.8234 2.11925C90.9814 2.40368 91.171 2.81451 91.3922 3.38336L95.0581 13.4962H80.3313C80.8685 13.1802 81.3742 12.801 81.8482 12.3269C83.2071 10.968 83.8708 9.29307 83.8708 7.3021C83.8708 5.37433 83.2071 3.69939 81.8482 2.37207C80.5209 1.04476 78.8775 0.381104 76.9498 0.381104C74.9588 0.381104 73.2839 1.04476 71.9565 2.37207C70.6292 3.69939 69.934 5.34273 69.934 7.3337C69.934 9.29307 70.5976 10.9996 71.9565 12.3585C72.4306 12.8326 72.9362 13.2118 73.4735 13.5278H58.9678C59.1575 13.0222 62.3177 3.98381 62.3177 3.98381C62.6337 3.06733 62.8866 2.59329 63.1394 2.18246C63.487 1.61361 63.8663 1.29758 64.4035 1.26598H64.6247V0.697131H60.2951V1.23438H60.548C61.338 1.23438 61.6857 1.58201 61.6541 2.30887C61.6225 2.6565 61.5277 3.19374 61.3064 3.76259C61.3064 3.76259 59.4735 8.91383 58.873 10.5256C58.557 9.6407 56.092 2.81451 56.092 2.81451C55.9972 2.49849 55.934 2.24566 55.934 2.05605C55.934 1.89803 55.9024 1.23438 56.9769 1.23438H57.2297V0.697131H52.0784V1.23438H52.3313C52.7421 1.23438 53.0265 1.39239 53.2161 1.5504C53.5322 1.83483 53.7534 2.27727 53.943 2.78291L54.1958 3.54137C54.1642 3.66779 52.0152 9.6723 51.6992 10.5256C51.3832 9.6407 48.8866 2.78291 48.8866 2.78291C48.7918 2.49849 48.7286 2.27727 48.7286 2.11925C48.7286 1.74002 48.8234 1.36079 49.6766 1.26598L49.8979 1.23438V0.697131H44.6834V1.23438H44.9362C45.3787 1.23438 45.7263 1.39239 45.8527 1.4872C46.0423 1.64521 46.2003 1.86643 46.3584 2.11925C46.5164 2.40368 46.706 2.81451 46.9272 3.38336L50.5931 13.4646H35.8663C36.4035 13.1486 36.9091 12.7694 37.3832 12.2953C38.7421 10.9364 39.4058 9.26146 39.4058 7.27049C39.4058 5.34273 38.7421 3.66779 37.3832 2.34047C36.0875 1.04476 34.4125 0.381104 32.4848 0.381104C30.4938 0.381104 28.8188 1.04476 27.4915 2.37207C26.1642 3.69939 25.469 5.34273 25.469 7.3337C25.469 9.29307 26.1326 10.9996 27.4915 12.3585C27.9656 12.8326 28.4712 13.2118 29.0085 13.5278H14.5344C14.724 13.0222 17.8843 3.98381 17.8843 3.98381C18.2003 3.06733 18.4532 2.59329 18.706 2.18246C19.0536 1.61361 19.4328 1.29758 19.9701 1.26598H20.1913V0.697131H15.8617V1.23438H16.1146C16.9046 1.23438 17.2523 1.58201 17.2207 2.30887C17.1891 2.6565 17.0942 3.19374 16.873 3.76259C16.873 3.76259 15.0401 8.91383 14.4396 10.5256C14.1236 9.6407 11.6586 2.81451 11.6586 2.81451C11.5638 2.49849 11.5006 2.24566 11.5006 2.05605C11.5006 1.89803 11.4374 1.23438 12.5435 1.23438H12.7963V0.697131H7.64503V1.23438H7.89786C8.30869 1.23438 8.59312 1.39239 8.78273 1.5504C9.09876 1.83483 9.31998 2.27727 9.50959 2.78291L9.76242 3.54137C9.73081 3.66779 7.58183 9.6723 7.2658 10.5256C6.94977 9.6407 4.45316 2.78291 4.45316 2.78291C4.35835 2.49849 4.29515 2.27727 4.29515 2.11925C4.29515 1.74002 4.38996 1.36079 5.24323 1.26598L5.46445 1.23438V0.697131H0.25V1.23438H0.502822C0.94526 1.23438 1.29289 1.39239 1.4193 1.4872C1.60892 1.64521 1.76693 1.86643 1.92494 2.11925C2.08296 2.40368 2.27257 2.81451 2.49379 3.38336L6.41253 14.2231H7.04458C7.04458 14.2231 9.95203 5.91158 10.2681 5.0267C10.5841 5.91158 13.6495 14.3811 13.6495 14.3811H95.8798C95.8798 14.3811 98.8505 5.94318 99.1665 5.0267C99.4825 5.91158 102.327 13.749 102.327 13.749L102.485 14.2231H103.148L106.783 3.95221C107.099 3.03573 107.352 2.56169 107.604 2.15086C107.952 1.58201 108.331 1.26598 108.869 1.23438H109.09V0.697131H104.76ZM32.4216 13.4962C31.031 13.4962 29.9565 12.959 29.1033 11.8213C28.25 10.6836 27.8076 9.19826 27.8076 7.3337C27.8076 5.50074 28.25 4.01542 29.1033 2.90932C29.9565 1.80323 31.0942 1.26598 32.5164 1.26598C33.8753 1.26598 34.9498 1.80323 35.803 2.94092C36.6563 4.04702 37.0988 5.56395 37.0988 7.42851C37.0988 9.16666 36.6563 10.6204 35.803 11.7897C34.9182 12.9274 33.7805 13.4962 32.4216 13.4962ZM51.7624 13.4962C52.4893 11.4421 54.4802 5.78517 54.7331 5.0267C55.0175 5.81677 57.2929 12.1057 57.7985 13.4962H51.7624ZM76.855 13.4962C75.4644 13.4962 74.39 12.959 73.5367 11.8213C72.6834 10.6836 72.2726 9.19826 72.2726 7.3337C72.2726 5.50074 72.715 4.01542 73.5683 2.90932C74.4216 1.83483 75.5593 1.26598 76.9814 1.26598C78.3403 1.26598 79.4148 1.80323 80.2681 2.94092C81.1213 4.04702 81.5638 5.56395 81.5638 7.42851C81.5638 9.16666 81.1213 10.6204 80.2681 11.7897C79.3832 12.9274 78.2455 13.4962 76.855 13.4962Z" fill="white"/>
</svg>
