<svg width="195" height="26" viewBox="0 0 195 26" fill="none" xmlns="http://www.w3.org/2000/svg">
  <path fill-rule="evenodd" clip-rule="evenodd" d="M186.875 1.52014V2.47951H187.327C188.738 2.47951 189.358 3.10028 189.302 4.39825C189.245 5.01902 189.076 5.97838 188.681 6.99419C188.681 6.99419 185.408 16.1928 184.336 19.0709C183.771 17.4908 179.37 5.30118 179.37 5.30118C179.2 4.73685 179.087 4.28538 179.087 3.94678C179.087 3.66461 179.031 2.47951 180.95 2.47951H181.401V1.52014H172.203V2.47951H172.654C173.388 2.47951 173.896 2.76168 174.234 3.04385C174.799 3.55175 175.194 4.34182 175.532 5.24475L175.984 6.59915C175.927 6.82489 172.09 17.5472 171.525 19.0709C170.961 17.4908 166.503 5.24475 166.503 5.24475C166.334 4.73685 166.221 4.34182 166.221 4.05965C166.221 3.38245 166.39 2.70525 167.914 2.53595L168.309 2.47951V1.52014H158.997V2.47951H159.449C160.239 2.47951 160.803 2.76168 161.085 2.93098C161.424 3.21315 161.706 3.60818 161.988 4.05965C162.27 4.56755 162.609 5.30118 163.004 6.31698L169.55 24.3757H143.252C144.212 23.8113 145.115 23.1341 145.961 22.2876C148.388 19.861 149.573 16.87 149.573 13.3147C149.573 9.87229 148.388 6.88132 145.961 4.51112C143.591 2.14091 140.656 0.955811 137.214 0.955811C133.659 0.955811 130.668 2.14091 128.297 4.51112C125.927 6.88132 124.686 9.81586 124.686 13.3712C124.686 16.87 125.871 19.9174 128.297 22.3441C129.144 23.1906 130.047 23.8678 131.006 24.4321H105.103C105.442 23.5292 111.085 7.38922 111.085 7.38922C111.65 5.75265 112.101 4.90615 112.552 4.17251C113.173 3.15671 113.85 2.59238 114.81 2.53595H115.205V1.52014H107.473V2.47951H107.925C109.336 2.47951 109.957 3.10028 109.9 4.39825C109.844 5.01902 109.674 5.97838 109.279 6.99419C109.279 6.99419 106.006 16.1928 104.934 19.0709C104.37 17.4908 99.9678 5.30118 99.9678 5.30118C99.7985 4.73685 99.6857 4.28538 99.6857 3.94678C99.6857 3.66461 99.6292 2.47951 101.548 2.47951H101.999V1.52014H92.8008V2.47951H93.2523C93.9859 2.47951 94.4938 2.76168 94.8324 3.04385C95.3967 3.55175 95.7918 4.34182 96.1304 5.24475L96.5818 6.59915C96.5254 6.82489 92.6879 17.5472 92.1236 19.0709C91.5593 17.4908 87.101 5.24475 87.101 5.24475C86.9317 4.73685 86.8188 4.34182 86.8188 4.05965C86.8188 3.38245 86.9881 2.70525 88.5118 2.53595L88.9069 2.47951V1.52014H79.5954V2.47951H80.0468C80.8369 2.47951 81.4577 2.76168 81.6834 2.93098C82.022 3.21315 82.3042 3.60818 82.5863 4.05965C82.8685 4.56755 83.2071 5.30118 83.6021 6.31698L90.1484 24.3192H63.8505C64.8098 23.7549 65.7128 23.0777 66.5593 22.2312C68.9859 19.8046 70.171 16.8136 70.171 13.2583C70.171 9.81586 68.9859 6.82488 66.5593 4.45468C64.2455 2.14091 61.2545 0.955811 57.8121 0.955811C54.2568 0.955811 51.2658 2.14091 48.8956 4.51112C46.5254 6.88132 45.2839 9.81586 45.2839 13.3712C45.2839 16.87 46.469 19.9174 48.8956 22.3441C49.7421 23.1906 50.645 23.8678 51.6044 24.4321H25.7579C26.0965 23.5292 31.7398 7.38922 31.7398 7.38922C32.3042 5.75265 32.7556 4.90615 33.2071 4.17251C33.8279 3.15671 34.5051 2.59238 35.4644 2.53595H35.8595V1.52014H28.1281V2.47951H28.5796C29.9904 2.47951 30.6112 3.10028 30.5547 4.39825C30.4983 5.01902 30.329 5.97838 29.934 6.99419C29.934 6.99419 26.6608 16.1928 25.5886 19.0709C25.0243 17.4908 20.6225 5.30118 20.6225 5.30118C20.4532 4.73685 20.3403 4.28538 20.3403 3.94678C20.3403 3.66461 20.2274 2.47951 22.2026 2.47951H22.6541V1.52014H13.4554V2.47951H13.9069C14.6405 2.47951 15.1484 2.76168 15.487 3.04385C16.0514 3.55175 16.4464 4.34182 16.785 5.24475L17.2365 6.59915C17.18 6.82489 13.3426 17.5472 12.7782 19.0709C12.2139 17.4908 7.75564 5.24475 7.75564 5.24475C7.58634 4.73685 7.47348 4.34182 7.47348 4.05965C7.47348 3.38245 7.64278 2.70525 9.16648 2.53595L9.56151 2.47951V1.52014H0.25V2.47951H0.701467C1.49154 2.47951 2.1123 2.76168 2.33804 2.93098C2.67664 3.21315 2.9588 3.60818 3.24097 4.05965C3.52314 4.56755 3.86174 5.30118 4.25677 6.31698L11.2545 25.6736H12.3832C12.3832 25.6736 17.5751 10.8317 18.1394 9.25152C18.7037 10.8317 24.1778 25.9558 24.1778 25.9558H171.018C171.018 25.9558 176.322 10.8881 176.887 9.25152C177.451 10.8317 182.53 24.8271 182.53 24.8271L182.812 25.6736H183.997L190.487 7.33279C191.051 5.69622 191.503 4.84972 191.954 4.11608C192.575 3.10028 193.252 2.53595 194.212 2.47951H194.607V1.52014H186.875ZM57.6992 24.3757C55.2161 24.3757 53.2974 23.4163 51.7737 21.3847C50.25 19.3531 49.4599 16.7007 49.4599 13.3712C49.4599 10.098 50.25 7.44565 51.7737 5.47048C53.2974 3.49531 55.329 2.53595 57.8685 2.53595C60.2951 2.53595 62.2139 3.49531 63.7376 5.52692C65.2613 7.50209 66.0514 10.2109 66.0514 13.5405C66.0514 16.6443 65.2613 19.2402 63.7376 21.3283C62.1575 23.3599 60.1258 24.3757 57.6992 24.3757ZM92.2365 24.3757C93.5344 20.7075 97.0897 10.6059 97.5412 9.25152C98.0491 10.6624 102.112 21.8926 103.015 24.3757H92.2365ZM137.045 24.3757C134.562 24.3757 132.643 23.4163 131.119 21.3847C129.595 19.3531 128.862 16.7007 128.862 13.3712C128.862 10.098 129.652 7.44565 131.176 5.47048C132.699 3.55175 134.731 2.53595 137.27 2.53595C139.697 2.53595 141.616 3.49531 143.139 5.52692C144.663 7.50209 145.453 10.2109 145.453 13.5405C145.453 16.6443 144.663 19.2402 143.139 21.3283C141.559 23.3599 139.528 24.3757 137.045 24.3757Z" fill="#0056A7"/>
</svg>
